<svg width="536" height="97" viewBox="0 0 536 97" fill="none" xmlns="http://www.w3.org/2000/svg">
<path fill-rule="evenodd" clip-rule="evenodd" d="M40.9208 30H30V66.6005H43.5953V53.8792L54.1338 66.6005H65.0547V30H51.4593V42.7212L40.9208 30ZM93.7248 30H77.8642L90.6309 48.1037L77.307 66.6005H93.7411L106.491 48.1028L93.7248 30ZM32.8504 63.7501V32.8504H39.5807L54.3097 50.6301V32.8504H62.2043V63.7501H55.4739L40.7449 45.9704V63.7501H32.8504ZM94.1312 48.1212L83.3622 32.8504H92.2471L103.016 48.1214L92.2439 63.7501H82.8731L94.1312 48.1212ZM142 56.2685H114.492V66.6005H142V56.2685ZM117.343 63.7501V59.1189H139.15V63.7501H117.343Z" fill="#143055"/>
<path d="M186.568 67.2486C182.943 67.2486 179.664 66.4546 176.729 64.8665C173.829 63.2439 171.551 61.0345 169.894 58.2381C168.237 55.4072 167.408 52.2311 167.408 48.7097C167.408 45.1883 168.237 42.0295 169.894 39.2331C171.551 36.4022 173.847 34.1927 176.781 32.6047C179.715 30.9821 182.995 30.1708 186.62 30.1708C189.451 30.1708 192.04 30.6541 194.388 31.6207C196.735 32.5529 198.738 33.9511 200.395 35.8153L197.029 39.0777C194.301 36.2123 190.901 34.7796 186.827 34.7796C184.134 34.7796 181.701 35.3838 179.526 36.5921C177.351 37.8004 175.642 39.4748 174.399 41.6152C173.191 43.7211 172.586 46.0859 172.586 48.7097C172.586 51.3335 173.191 53.7156 174.399 55.856C175.642 57.9619 177.351 59.619 179.526 60.8273C181.701 62.0356 184.134 62.6398 186.827 62.6398C190.866 62.6398 194.267 61.1898 197.029 58.2899L200.395 61.5523C198.738 63.4166 196.718 64.832 194.336 65.7987C191.988 66.7653 189.399 67.2486 186.568 67.2486Z" fill="#143055"/>
<path d="M236.852 67.2486C233.192 67.2486 229.895 66.4546 226.961 64.8665C224.026 63.2439 221.713 61.0172 220.022 58.1863C218.365 55.3554 217.536 52.1965 217.536 48.7097C217.536 45.2229 218.365 42.064 220.022 39.2331C221.713 36.4022 224.026 34.1927 226.961 32.6047C229.895 30.9821 233.192 30.1708 236.852 30.1708C240.477 30.1708 243.756 30.9821 246.691 32.6047C249.625 34.1927 251.921 36.4022 253.578 39.2331C255.235 42.0295 256.064 45.1883 256.064 48.7097C256.064 52.2311 255.235 55.4072 253.578 58.2381C251.921 61.0345 249.625 63.2439 246.691 64.8665C243.756 66.4546 240.477 67.2486 236.852 67.2486ZM236.852 62.6398C239.51 62.6398 241.892 62.0356 243.998 60.8273C246.138 59.619 247.813 57.9619 249.021 55.856C250.264 53.7156 250.885 51.3335 250.885 48.7097C250.885 46.0859 250.264 43.7211 249.021 41.6152C247.813 39.4748 246.138 37.8004 243.998 36.5921C241.892 35.3838 239.51 34.7796 236.852 34.7796C234.193 34.7796 231.777 35.3838 229.602 36.5921C227.461 37.8004 225.77 39.4748 224.527 41.6152C223.319 43.7211 222.714 46.0859 222.714 48.7097C222.714 51.3335 223.319 53.7156 224.527 55.856C225.77 57.9619 227.461 59.619 229.602 60.8273C231.777 62.0356 234.193 62.6398 236.852 62.6398Z" fill="#143055"/>
<path d="M308.617 30.5851V66.8344H304.371L282.621 39.8027V66.8344H277.443V30.5851H281.689L303.439 57.6167V30.5851H308.617Z" fill="#143055"/>
<path d="M343.495 67.2486C340.768 67.2486 338.127 66.8344 335.572 66.0058C333.052 65.1427 331.067 64.038 329.617 62.6916L331.533 58.6524C332.914 59.8952 334.675 60.9136 336.815 61.7077C338.99 62.4672 341.217 62.8469 343.495 62.8469C346.499 62.8469 348.743 62.3463 350.227 61.3452C351.712 60.3095 352.454 58.9458 352.454 57.2542C352.454 56.0113 352.04 55.0102 351.211 54.2507C350.417 53.4566 349.416 52.8525 348.208 52.4382C347.034 52.0239 345.36 51.5579 343.185 51.04C340.457 50.3841 338.248 49.7281 336.556 49.0722C334.899 48.4163 333.466 47.4151 332.258 46.0687C331.084 44.6878 330.497 42.8408 330.497 40.5277C330.497 38.5944 330.998 36.851 331.999 35.2975C333.035 33.7439 334.588 32.5011 336.66 31.569C338.731 30.6368 341.303 30.1708 344.376 30.1708C346.516 30.1708 348.622 30.447 350.693 30.9993C352.765 31.5517 354.543 32.3457 356.027 33.3814L354.318 37.5242C352.799 36.5576 351.177 35.8326 349.451 35.3492C347.724 34.8314 346.033 34.5725 344.376 34.5725C341.441 34.5725 339.232 35.1076 337.747 36.1778C336.297 37.248 335.572 38.6289 335.572 40.3206C335.572 41.5634 335.987 42.5818 336.815 43.3759C337.644 44.1354 338.662 44.7395 339.87 45.1883C341.113 45.6026 342.788 46.0514 344.894 46.5347C347.621 47.1907 349.813 47.8466 351.47 48.5026C353.127 49.1585 354.543 50.1597 355.717 51.5061C356.925 52.8525 357.529 54.6649 357.529 56.9435C357.529 58.8422 357.011 60.5857 355.976 62.1737C354.94 63.7273 353.369 64.9701 351.263 65.9022C349.157 66.7998 346.568 67.2486 343.495 67.2486Z" fill="#143055"/>
<path d="M394.922 67.2486C391.263 67.2486 387.966 66.4546 385.032 64.8665C382.097 63.2439 379.784 61.0172 378.092 58.1863C376.435 55.3554 375.607 52.1965 375.607 48.7097C375.607 45.2229 376.435 42.064 378.092 39.2331C379.784 36.4022 382.097 34.1927 385.032 32.6047C387.966 30.9821 391.263 30.1708 394.922 30.1708C398.547 30.1708 401.827 30.9821 404.762 32.6047C407.696 34.1927 409.992 36.4022 411.649 39.2331C413.306 42.0295 414.135 45.1883 414.135 48.7097C414.135 52.2311 413.306 55.4072 411.649 58.2381C409.992 61.0345 407.696 63.2439 404.762 64.8665C401.827 66.4546 398.547 67.2486 394.922 67.2486ZM394.922 62.6398C397.581 62.6398 399.963 62.0356 402.069 60.8273C404.209 59.619 405.884 57.9619 407.092 55.856C408.335 53.7156 408.956 51.3335 408.956 48.7097C408.956 46.0859 408.335 43.7211 407.092 41.6152C405.884 39.4748 404.209 37.8004 402.069 36.5921C399.963 35.3838 397.581 34.7796 394.922 34.7796C392.264 34.7796 389.848 35.3838 387.673 36.5921C385.532 37.8004 383.841 39.4748 382.598 41.6152C381.389 43.7211 380.785 46.0859 380.785 48.7097C380.785 51.3335 381.389 53.7156 382.598 55.856C383.841 57.9619 385.532 59.619 387.673 60.8273C389.848 62.0356 392.264 62.6398 394.922 62.6398Z" fill="#143055"/>
<path d="M435.514 30.5851H440.692V62.3291H460.318V66.8344H435.514V30.5851Z" fill="#143055"/>
<path d="M506.031 62.3291V66.8344H479.725V30.5851H505.306V35.0903H484.903V46.224H503.08V50.6257H484.903V62.3291H506.031Z" fill="#143055"/>
</svg>
