<svg width="395" height="110" viewBox="0 0 395 110" fill="none" xmlns="http://www.w3.org/2000/svg">
<path d="M82.84 32V26.5H83.91V27.55H84.17L83.91 27.8C83.91 27.36 84.04 27.0167 84.3 26.77C84.56 26.5233 84.92 26.4 85.38 26.4C85.9267 26.4 86.3633 26.5767 86.69 26.93C87.0167 27.2767 87.18 27.7467 87.18 28.34V32H86.1V28.46C86.1 28.1 86.0033 27.8233 85.81 27.63C85.6167 27.4367 85.3533 27.34 85.02 27.34C84.68 27.34 84.41 27.4433 84.21 27.65C84.0167 27.85 83.92 28.1433 83.92 28.53V32H82.84ZM88.4261 32L90.3561 29.16L88.5461 26.5H89.7861L90.7561 28.02C90.8028 28.1 90.8494 28.1867 90.8961 28.28C90.9428 28.3667 90.9794 28.44 91.0061 28.5C91.0261 28.44 91.0594 28.3667 91.1061 28.28C91.1528 28.1867 91.1994 28.1 91.2461 28.02L92.2161 26.5H93.4561L91.6461 29.17L93.5661 32H92.3261L91.2561 30.35C91.2094 30.27 91.1628 30.18 91.1161 30.08C91.0694 29.98 91.0328 29.9 91.0061 29.84C90.9794 29.9 90.9394 29.98 90.8861 30.08C90.8394 30.18 90.7894 30.27 90.7361 30.35L89.6561 32H88.4261Z" fill="#94A3B8"/>
<path d="M105.178 31.4L100.798 29.27V28.14L105.178 26.01V27.02L102.188 28.45C102.055 28.51 101.928 28.5633 101.808 28.61C101.688 28.65 101.598 28.6767 101.538 28.69C101.605 28.7033 101.698 28.73 101.818 28.77C101.945 28.81 102.068 28.86 102.188 28.92L105.178 30.36V31.4ZM109.584 32C109.084 32 108.694 31.8633 108.414 31.59C108.134 31.3167 107.994 30.9367 107.994 30.45V27.48H106.474V26.5H107.994V24.95H109.074V26.5H111.224V27.48H109.074V30.45C109.074 30.83 109.258 31.02 109.624 31.02H111.124V32H109.584ZM114.43 32.1C113.857 32.1 113.404 31.9533 113.07 31.66C112.744 31.36 112.58 30.9533 112.58 30.44C112.58 29.92 112.754 29.5133 113.1 29.22C113.454 28.92 113.937 28.77 114.55 28.77H116.08V28.26C116.08 27.96 115.987 27.7267 115.8 27.56C115.614 27.3933 115.35 27.31 115.01 27.31C114.71 27.31 114.46 27.3767 114.26 27.51C114.06 27.6367 113.944 27.8067 113.91 28.02H112.85C112.91 27.5267 113.137 27.1333 113.53 26.84C113.93 26.5467 114.434 26.4 115.04 26.4C115.694 26.4 116.21 26.5667 116.59 26.9C116.97 27.2267 117.16 27.6733 117.16 28.24V32H116.11V30.99H115.93L116.11 30.79C116.11 31.19 115.957 31.51 115.65 31.75C115.344 31.9833 114.937 32.1 114.43 32.1ZM114.75 31.27C115.137 31.27 115.454 31.1733 115.7 30.98C115.954 30.78 116.08 30.5267 116.08 30.22V29.5H114.57C114.29 29.5 114.067 29.5767 113.9 29.73C113.74 29.8833 113.66 30.0933 113.66 30.36C113.66 30.64 113.757 30.8633 113.95 31.03C114.144 31.19 114.41 31.27 114.75 31.27ZM118.997 32V26.5H120.037V27.55H120.297L119.967 28.2C119.967 27.6067 120.097 27.16 120.357 26.86C120.617 26.5533 121.003 26.4 121.517 26.4C122.103 26.4 122.567 26.5833 122.907 26.95C123.253 27.31 123.427 27.8067 123.427 28.44V28.81H122.317V28.53C122.317 28.1367 122.217 27.8367 122.017 27.63C121.823 27.4167 121.55 27.31 121.197 27.31C120.843 27.31 120.567 27.4167 120.367 27.63C120.173 27.8433 120.077 28.1433 120.077 28.53V32H118.997ZM125.533 33.8V32.87H127.223C127.503 32.87 127.709 32.8033 127.843 32.67C127.983 32.5367 128.053 32.34 128.053 32.08V31.53L128.073 30.51H127.843L128.063 30.31C128.063 30.73 127.929 31.06 127.663 31.3C127.403 31.54 127.049 31.66 126.603 31.66C126.036 31.66 125.589 31.4733 125.263 31.1C124.936 30.7267 124.773 30.2233 124.773 29.59V28.47C124.773 27.8367 124.936 27.3333 125.263 26.96C125.589 26.5867 126.036 26.4 126.603 26.4C127.049 26.4 127.403 26.5233 127.663 26.77C127.929 27.01 128.063 27.34 128.063 27.76L127.843 27.55H128.063L128.053 26.5H129.123V32.1C129.123 32.6267 128.956 33.04 128.623 33.34C128.289 33.6467 127.826 33.8 127.233 33.8H125.533ZM126.953 30.73C127.293 30.73 127.559 30.6267 127.753 30.42C127.953 30.2067 128.053 29.9133 128.053 29.54V28.53C128.053 28.1567 127.953 27.8667 127.753 27.66C127.559 27.4467 127.293 27.34 126.953 27.34C126.599 27.34 126.326 27.4433 126.133 27.65C125.946 27.85 125.853 28.1433 125.853 28.53V29.54C125.853 29.92 125.946 30.2133 126.133 30.42C126.326 30.6267 126.599 30.73 126.953 30.73ZM132.969 32.1C132.522 32.1 132.129 32.0133 131.789 31.84C131.455 31.66 131.199 31.41 131.019 31.09C130.839 30.77 130.749 30.3967 130.749 29.97V28.53C130.749 28.0967 130.839 27.7233 131.019 27.41C131.199 27.09 131.455 26.8433 131.789 26.67C132.129 26.49 132.522 26.4 132.969 26.4C133.422 26.4 133.815 26.49 134.149 26.67C134.482 26.8433 134.739 27.09 134.919 27.41C135.099 27.7233 135.189 28.0967 135.189 28.53V29.51H131.789V29.97C131.789 30.3767 131.889 30.6867 132.089 30.9C132.295 31.1133 132.592 31.22 132.979 31.22C133.292 31.22 133.545 31.1667 133.739 31.06C133.932 30.9467 134.052 30.7833 134.099 30.57H135.169C135.089 31.0367 134.849 31.41 134.449 31.69C134.049 31.9633 133.555 32.1 132.969 32.1ZM134.149 28.86V28.52C134.149 28.12 134.049 27.81 133.849 27.59C133.649 27.37 133.355 27.26 132.969 27.26C132.589 27.26 132.295 27.37 132.089 27.59C131.889 27.81 131.789 28.1233 131.789 28.53V28.78L134.229 28.77L134.149 28.86ZM139.565 32C139.065 32 138.675 31.8633 138.395 31.59C138.115 31.3167 137.975 30.9367 137.975 30.45V27.48H136.455V26.5H137.975V24.95H139.055V26.5H141.205V27.48H139.055V30.45C139.055 30.83 139.238 31.02 139.605 31.02H141.105V32H139.565ZM148.797 32V26.5H149.867V27.55H150.127L149.867 27.8C149.867 27.36 149.997 27.0167 150.257 26.77C150.517 26.5233 150.877 26.4 151.337 26.4C151.884 26.4 152.32 26.5767 152.647 26.93C152.974 27.2767 153.137 27.7467 153.137 28.34V32H152.057V28.46C152.057 28.1 151.96 27.8233 151.767 27.63C151.574 27.4367 151.31 27.34 150.977 27.34C150.637 27.34 150.367 27.4433 150.167 27.65C149.974 27.85 149.877 28.1433 149.877 28.53V32H148.797ZM156.403 32.1C155.83 32.1 155.376 31.9533 155.043 31.66C154.716 31.36 154.553 30.9533 154.553 30.44C154.553 29.92 154.726 29.5133 155.073 29.22C155.426 28.92 155.91 28.77 156.523 28.77H158.053V28.26C158.053 27.96 157.96 27.7267 157.773 27.56C157.586 27.3933 157.323 27.31 156.983 27.31C156.683 27.31 156.433 27.3767 156.233 27.51C156.033 27.6367 155.916 27.8067 155.883 28.02H154.823C154.883 27.5267 155.11 27.1333 155.503 26.84C155.903 26.5467 156.406 26.4 157.013 26.4C157.666 26.4 158.183 26.5667 158.563 26.9C158.943 27.2267 159.133 27.6733 159.133 28.24V32H158.083V30.99H157.903L158.083 30.79C158.083 31.19 157.93 31.51 157.623 31.75C157.316 31.9833 156.91 32.1 156.403 32.1ZM156.723 31.27C157.11 31.27 157.426 31.1733 157.673 30.98C157.926 30.78 158.053 30.5267 158.053 30.22V29.5H156.543C156.263 29.5 156.04 29.5767 155.873 29.73C155.713 29.8833 155.633 30.0933 155.633 30.36C155.633 30.64 155.73 30.8633 155.923 31.03C156.116 31.19 156.383 31.27 156.723 31.27ZM160.539 32V26.5H161.439V27.2H161.639L161.489 27.41C161.489 27.1033 161.573 26.86 161.739 26.68C161.906 26.4933 162.129 26.4 162.409 26.4C162.709 26.4 162.939 26.5167 163.099 26.75C163.266 26.9833 163.349 27.3033 163.349 27.71L163.109 27.2H163.489L163.329 27.41C163.329 27.1033 163.413 26.86 163.579 26.68C163.753 26.4933 163.983 26.4 164.269 26.4C164.609 26.4 164.876 26.53 165.069 26.79C165.263 27.0433 165.359 27.3833 165.359 27.81V32H164.399V27.84C164.399 27.6333 164.353 27.4733 164.259 27.36C164.173 27.2467 164.046 27.19 163.879 27.19C163.713 27.19 163.583 27.2467 163.489 27.36C163.403 27.4667 163.359 27.6233 163.359 27.83V32H162.549V27.84C162.549 27.6267 162.503 27.4667 162.409 27.36C162.316 27.2467 162.183 27.19 162.009 27.19C161.843 27.19 161.716 27.2467 161.629 27.36C161.549 27.4667 161.509 27.6233 161.509 27.83V32H160.539ZM168.945 32.1C168.499 32.1 168.105 32.0133 167.765 31.84C167.432 31.66 167.175 31.41 166.995 31.09C166.815 30.77 166.725 30.3967 166.725 29.97V28.53C166.725 28.0967 166.815 27.7233 166.995 27.41C167.175 27.09 167.432 26.8433 167.765 26.67C168.105 26.49 168.499 26.4 168.945 26.4C169.399 26.4 169.792 26.49 170.125 26.67C170.459 26.8433 170.715 27.09 170.895 27.41C171.075 27.7233 171.165 28.0967 171.165 28.53V29.51H167.765V29.97C167.765 30.3767 167.865 30.6867 168.065 30.9C168.272 31.1133 168.569 31.22 168.955 31.22C169.269 31.22 169.522 31.1667 169.715 31.06C169.909 30.9467 170.029 30.7833 170.075 30.57H171.145C171.065 31.0367 170.825 31.41 170.425 31.69C170.025 31.9633 169.532 32.1 168.945 32.1ZM170.125 28.86V28.52C170.125 28.12 170.025 27.81 169.825 27.59C169.625 27.37 169.332 27.26 168.945 27.26C168.565 27.26 168.272 27.37 168.065 27.59C167.865 27.81 167.765 28.1233 167.765 28.53V28.78L170.205 28.77L170.125 28.86ZM172.751 31.4V30.38L175.741 28.95C175.875 28.89 176.001 28.84 176.121 28.8C176.241 28.76 176.331 28.7333 176.391 28.72C176.325 28.7067 176.228 28.68 176.101 28.64C175.981 28.5933 175.861 28.54 175.741 28.48L172.751 27.05V26.01L177.131 28.14V29.27L172.751 31.4Z" fill="#6366F1"/>
<path d="M189.124 31.4L184.744 29.27V28.14L189.124 26.01V27.02L186.134 28.45C186 28.51 185.874 28.5633 185.754 28.61C185.634 28.65 185.544 28.6767 185.484 28.69C185.55 28.7033 185.644 28.73 185.764 28.77C185.89 28.81 186.014 28.86 186.134 28.92L189.124 30.36V31.4ZM190.77 33.8V26.5H191.84V27.55H192.07L191.84 27.8C191.84 27.3667 191.973 27.0267 192.24 26.78C192.513 26.5267 192.876 26.4 193.33 26.4C193.883 26.4 194.323 26.5867 194.65 26.96C194.983 27.3267 195.15 27.83 195.15 28.47V30.02C195.15 30.4467 195.073 30.8167 194.92 31.13C194.773 31.4367 194.563 31.6767 194.29 31.85C194.023 32.0167 193.703 32.1 193.33 32.1C192.883 32.1 192.523 31.9767 192.25 31.73C191.976 31.4767 191.84 31.1333 191.84 30.7L192.07 30.95H191.82L191.85 32.23V33.8H190.77ZM192.96 31.16C193.313 31.16 193.586 31.06 193.78 30.86C193.98 30.6533 194.08 30.3567 194.08 29.97V28.53C194.08 28.1433 193.98 27.85 193.78 27.65C193.586 27.4433 193.313 27.34 192.96 27.34C192.62 27.34 192.35 27.4467 192.15 27.66C191.95 27.8667 191.85 28.1567 191.85 28.53V29.97C191.85 30.3433 191.95 30.6367 192.15 30.85C192.35 31.0567 192.62 31.16 192.96 31.16ZM196.946 32V26.5H197.986V27.55H198.246L197.916 28.2C197.916 27.6067 198.046 27.16 198.306 26.86C198.566 26.5533 198.952 26.4 199.466 26.4C200.052 26.4 200.516 26.5833 200.856 26.95C201.202 27.31 201.376 27.8067 201.376 28.44V28.81H200.266V28.53C200.266 28.1367 200.166 27.8367 199.966 27.63C199.772 27.4167 199.499 27.31 199.146 27.31C198.792 27.31 198.516 27.4167 198.316 27.63C198.122 27.8433 198.026 28.1433 198.026 28.53V32H196.946ZM204.922 32.09C204.469 32.09 204.075 32.0033 203.742 31.83C203.409 31.6567 203.152 31.41 202.972 31.09C202.792 30.77 202.702 30.3933 202.702 29.96V28.54C202.702 28.1 202.792 27.7233 202.972 27.41C203.152 27.09 203.409 26.8433 203.742 26.67C204.075 26.4967 204.469 26.41 204.922 26.41C205.375 26.41 205.769 26.4967 206.102 26.67C206.435 26.8433 206.692 27.09 206.872 27.41C207.052 27.7233 207.142 28.1 207.142 28.54V29.96C207.142 30.3933 207.052 30.77 206.872 31.09C206.692 31.41 206.435 31.6567 206.102 31.83C205.769 32.0033 205.375 32.09 204.922 32.09ZM204.922 31.14C205.289 31.14 205.572 31.04 205.772 30.84C205.972 30.6333 206.072 30.34 206.072 29.96V28.54C206.072 28.1533 205.972 27.86 205.772 27.66C205.572 27.46 205.289 27.36 204.922 27.36C204.562 27.36 204.279 27.46 204.072 27.66C203.872 27.86 203.772 28.1533 203.772 28.54V29.96C203.772 30.34 203.872 30.6333 204.072 30.84C204.279 31.04 204.562 31.14 204.922 31.14ZM208.758 33.8V32.8H210.138C210.505 32.8 210.791 32.7 210.998 32.5C211.205 32.3 211.308 32.0167 211.308 31.65V27.49H209.058V26.5H212.388V31.66C212.388 32.32 212.188 32.84 211.788 33.22C211.388 33.6067 210.848 33.8 210.168 33.8H208.758ZM211.798 25.55C211.565 25.55 211.378 25.49 211.238 25.37C211.098 25.2433 211.028 25.0767 211.028 24.87C211.028 24.6567 211.098 24.49 211.238 24.37C211.378 24.2433 211.565 24.18 211.798 24.18C212.031 24.18 212.218 24.2433 212.358 24.37C212.498 24.49 212.568 24.6567 212.568 24.87C212.568 25.0767 212.498 25.2433 212.358 25.37C212.218 25.49 212.031 25.55 211.798 25.55ZM216.914 32.1C216.467 32.1 216.074 32.0133 215.734 31.84C215.401 31.66 215.144 31.41 214.964 31.09C214.784 30.77 214.694 30.3967 214.694 29.97V28.53C214.694 28.0967 214.784 27.7233 214.964 27.41C215.144 27.09 215.401 26.8433 215.734 26.67C216.074 26.49 216.467 26.4 216.914 26.4C217.367 26.4 217.761 26.49 218.094 26.67C218.427 26.8433 218.684 27.09 218.864 27.41C219.044 27.7233 219.134 28.0967 219.134 28.53V29.51H215.734V29.97C215.734 30.3767 215.834 30.6867 216.034 30.9C216.241 31.1133 216.537 31.22 216.924 31.22C217.237 31.22 217.491 31.1667 217.684 31.06C217.877 30.9467 217.997 30.7833 218.044 30.57H219.114C219.034 31.0367 218.794 31.41 218.394 31.69C217.994 31.9633 217.501 32.1 216.914 32.1ZM218.094 28.86V28.52C218.094 28.12 217.994 27.81 217.794 27.59C217.594 27.37 217.301 27.26 216.914 27.26C216.534 27.26 216.241 27.37 216.034 27.59C215.834 27.81 215.734 28.1233 215.734 28.53V28.78L218.174 28.77L218.094 28.86ZM222.95 32.1C222.497 32.1 222.097 32.0167 221.75 31.85C221.41 31.6767 221.147 31.43 220.96 31.11C220.78 30.7833 220.69 30.4033 220.69 29.97V28.53C220.69 28.09 220.78 27.71 220.96 27.39C221.147 27.07 221.41 26.8267 221.75 26.66C222.097 26.4867 222.497 26.4 222.95 26.4C223.61 26.4 224.14 26.5733 224.54 26.92C224.94 27.2667 225.15 27.74 225.17 28.34H224.09C224.07 28.0267 223.96 27.7833 223.76 27.61C223.56 27.4367 223.29 27.35 222.95 27.35C222.583 27.35 222.293 27.4533 222.08 27.66C221.867 27.86 221.76 28.1467 221.76 28.52V29.97C221.76 30.3433 221.867 30.6333 222.08 30.84C222.293 31.0467 222.583 31.15 222.95 31.15C223.29 31.15 223.56 31.0633 223.76 30.89C223.96 30.7167 224.07 30.4733 224.09 30.16H225.17C225.15 30.76 224.94 31.2333 224.54 31.58C224.14 31.9267 223.61 32.1 222.95 32.1ZM229.506 32C229.006 32 228.616 31.8633 228.336 31.59C228.056 31.3167 227.916 30.9367 227.916 30.45V27.48H226.396V26.5H227.916V24.95H228.996V26.5H231.146V27.48H228.996V30.45C228.996 30.83 229.18 31.02 229.546 31.02H231.046V32H229.506ZM238.738 32V26.5H239.808V27.55H240.068L239.808 27.8C239.808 27.36 239.938 27.0167 240.198 26.77C240.458 26.5233 240.818 26.4 241.278 26.4C241.825 26.4 242.262 26.5767 242.588 26.93C242.915 27.2767 243.078 27.7467 243.078 28.34V32H241.998V28.46C241.998 28.1 241.902 27.8233 241.708 27.63C241.515 27.4367 241.252 27.34 240.918 27.34C240.578 27.34 240.308 27.4433 240.108 27.65C239.915 27.85 239.818 28.1433 239.818 28.53V32H238.738ZM246.345 32.1C245.771 32.1 245.318 31.9533 244.985 31.66C244.658 31.36 244.495 30.9533 244.495 30.44C244.495 29.92 244.668 29.5133 245.015 29.22C245.368 28.92 245.851 28.77 246.465 28.77H247.995V28.26C247.995 27.96 247.901 27.7267 247.715 27.56C247.528 27.3933 247.265 27.31 246.925 27.31C246.625 27.31 246.375 27.3767 246.175 27.51C245.975 27.6367 245.858 27.8067 245.825 28.02H244.765C244.825 27.5267 245.051 27.1333 245.445 26.84C245.845 26.5467 246.348 26.4 246.955 26.4C247.608 26.4 248.125 26.5667 248.505 26.9C248.885 27.2267 249.075 27.6733 249.075 28.24V32H248.025V30.99H247.845L248.025 30.79C248.025 31.19 247.871 31.51 247.565 31.75C247.258 31.9833 246.851 32.1 246.345 32.1ZM246.665 31.27C247.051 31.27 247.368 31.1733 247.615 30.98C247.868 30.78 247.995 30.5267 247.995 30.22V29.5H246.485C246.205 29.5 245.981 29.5767 245.815 29.73C245.655 29.8833 245.575 30.0933 245.575 30.36C245.575 30.64 245.671 30.8633 245.865 31.03C246.058 31.19 246.325 31.27 246.665 31.27ZM250.481 32V26.5H251.381V27.2H251.581L251.431 27.41C251.431 27.1033 251.514 26.86 251.681 26.68C251.847 26.4933 252.071 26.4 252.351 26.4C252.651 26.4 252.881 26.5167 253.041 26.75C253.207 26.9833 253.291 27.3033 253.291 27.71L253.051 27.2H253.431L253.271 27.41C253.271 27.1033 253.354 26.86 253.521 26.68C253.694 26.4933 253.924 26.4 254.211 26.4C254.551 26.4 254.817 26.53 255.011 26.79C255.204 27.0433 255.301 27.3833 255.301 27.81V32H254.341V27.84C254.341 27.6333 254.294 27.4733 254.201 27.36C254.114 27.2467 253.987 27.19 253.821 27.19C253.654 27.19 253.524 27.2467 253.431 27.36C253.344 27.4667 253.301 27.6233 253.301 27.83V32H252.491V27.84C252.491 27.6267 252.444 27.4667 252.351 27.36C252.257 27.2467 252.124 27.19 251.951 27.19C251.784 27.19 251.657 27.2467 251.571 27.36C251.491 27.4667 251.451 27.6233 251.451 27.83V32H250.481ZM258.887 32.1C258.44 32.1 258.047 32.0133 257.707 31.84C257.373 31.66 257.117 31.41 256.937 31.09C256.757 30.77 256.667 30.3967 256.667 29.97V28.53C256.667 28.0967 256.757 27.7233 256.937 27.41C257.117 27.09 257.373 26.8433 257.707 26.67C258.047 26.49 258.44 26.4 258.887 26.4C259.34 26.4 259.733 26.49 260.067 26.67C260.4 26.8433 260.657 27.09 260.837 27.41C261.017 27.7233 261.107 28.0967 261.107 28.53V29.51H257.707V29.97C257.707 30.3767 257.807 30.6867 258.007 30.9C258.213 31.1133 258.51 31.22 258.897 31.22C259.21 31.22 259.463 31.1667 259.657 31.06C259.85 30.9467 259.97 30.7833 260.017 30.57H261.087C261.007 31.0367 260.767 31.41 260.367 31.69C259.967 31.9633 259.473 32.1 258.887 32.1ZM260.067 28.86V28.52C260.067 28.12 259.967 27.81 259.767 27.59C259.567 27.37 259.273 27.26 258.887 27.26C258.507 27.26 258.213 27.37 258.007 27.59C257.807 27.81 257.707 28.1233 257.707 28.53V28.78L260.147 28.77L260.067 28.86ZM262.693 31.4V30.38L265.683 28.95C265.816 28.89 265.943 28.84 266.063 28.8C266.183 28.76 266.273 28.7333 266.333 28.72C266.266 28.7067 266.169 28.68 266.043 28.64C265.923 28.5933 265.803 28.54 265.683 28.48L262.693 27.05V26.01L267.073 28.14V29.27L262.693 31.4Z" fill="#F43F5E"/>
<path d="M279.065 31.4L274.685 29.27V28.14L279.065 26.01V27.02L276.075 28.45C275.942 28.51 275.815 28.5633 275.695 28.61C275.575 28.65 275.485 28.6767 275.425 28.69C275.492 28.7033 275.585 28.73 275.705 28.77C275.832 28.81 275.955 28.86 276.075 28.92L279.065 30.36V31.4ZM282.871 32.09C282.418 32.09 282.024 32.0033 281.691 31.83C281.358 31.6567 281.101 31.41 280.921 31.09C280.741 30.77 280.651 30.3933 280.651 29.96V28.54C280.651 28.1 280.741 27.7233 280.921 27.41C281.101 27.09 281.358 26.8433 281.691 26.67C282.024 26.4967 282.418 26.41 282.871 26.41C283.324 26.41 283.718 26.4967 284.051 26.67C284.384 26.8433 284.641 27.09 284.821 27.41C285.001 27.7233 285.091 28.1 285.091 28.54V29.96C285.091 30.3933 285.001 30.77 284.821 31.09C284.641 31.41 284.384 31.6567 284.051 31.83C283.718 32.0033 283.324 32.09 282.871 32.09ZM282.871 31.14C283.238 31.14 283.521 31.04 283.721 30.84C283.921 30.6333 284.021 30.34 284.021 29.96V28.54C284.021 28.1533 283.921 27.86 283.721 27.66C283.521 27.46 283.238 27.36 282.871 27.36C282.511 27.36 282.228 27.46 282.021 27.66C281.821 27.86 281.721 28.1533 281.721 28.54V29.96C281.721 30.34 281.821 30.6333 282.021 30.84C282.228 31.04 282.511 31.14 282.871 31.14ZM286.707 33.8V26.5H287.777V27.55H288.007L287.777 27.8C287.777 27.3667 287.911 27.0267 288.177 26.78C288.451 26.5267 288.814 26.4 289.267 26.4C289.821 26.4 290.261 26.5867 290.587 26.96C290.921 27.3267 291.087 27.83 291.087 28.47V30.02C291.087 30.4467 291.011 30.8167 290.857 31.13C290.711 31.4367 290.501 31.6767 290.227 31.85C289.961 32.0167 289.641 32.1 289.267 32.1C288.821 32.1 288.461 31.9767 288.187 31.73C287.914 31.4767 287.777 31.1333 287.777 30.7L288.007 30.95H287.757L287.787 32.23V33.8H286.707ZM288.897 31.16C289.251 31.16 289.524 31.06 289.717 30.86C289.917 30.6533 290.017 30.3567 290.017 29.97V28.53C290.017 28.1433 289.917 27.85 289.717 27.65C289.524 27.4433 289.251 27.34 288.897 27.34C288.557 27.34 288.287 27.4467 288.087 27.66C287.887 27.8667 287.787 28.1567 287.787 28.53V29.97C287.787 30.3433 287.887 30.6367 288.087 30.85C288.287 31.0567 288.557 31.16 288.897 31.16ZM295.463 32C294.963 32 294.573 31.8633 294.293 31.59C294.013 31.3167 293.873 30.9367 293.873 30.45V27.48H292.353V26.5H293.873V24.95H294.953V26.5H297.103V27.48H294.953V30.45C294.953 30.83 295.137 31.02 295.503 31.02H297.003V32H295.463ZM298.669 32V31.02H300.599V27.48H298.919V26.5H301.649V31.02H303.419V32H298.669ZM301.019 25.55C300.786 25.55 300.599 25.49 300.459 25.37C300.319 25.2433 300.249 25.0767 300.249 24.87C300.249 24.6567 300.319 24.49 300.459 24.37C300.599 24.2433 300.786 24.18 301.019 24.18C301.253 24.18 301.439 24.2433 301.579 24.37C301.719 24.49 301.789 24.6567 301.789 24.87C301.789 25.0767 301.719 25.2433 301.579 25.37C301.439 25.49 301.253 25.55 301.019 25.55ZM306.855 32.09C306.402 32.09 306.009 32.0033 305.675 31.83C305.342 31.6567 305.085 31.41 304.905 31.09C304.725 30.77 304.635 30.3933 304.635 29.96V28.54C304.635 28.1 304.725 27.7233 304.905 27.41C305.085 27.09 305.342 26.8433 305.675 26.67C306.009 26.4967 306.402 26.41 306.855 26.41C307.309 26.41 307.702 26.4967 308.035 26.67C308.369 26.8433 308.625 27.09 308.805 27.41C308.985 27.7233 309.075 28.1 309.075 28.54V29.96C309.075 30.3933 308.985 30.77 308.805 31.09C308.625 31.41 308.369 31.6567 308.035 31.83C307.702 32.0033 307.309 32.09 306.855 32.09ZM306.855 31.14C307.222 31.14 307.505 31.04 307.705 30.84C307.905 30.6333 308.005 30.34 308.005 29.96V28.54C308.005 28.1533 307.905 27.86 307.705 27.66C307.505 27.46 307.222 27.36 306.855 27.36C306.495 27.36 306.212 27.46 306.005 27.66C305.805 27.86 305.705 28.1533 305.705 28.54V29.96C305.705 30.34 305.805 30.6333 306.005 30.84C306.212 31.04 306.495 31.14 306.855 31.14ZM310.692 32V26.5H311.762V27.55H312.022L311.762 27.8C311.762 27.36 311.892 27.0167 312.152 26.77C312.412 26.5233 312.772 26.4 313.232 26.4C313.778 26.4 314.215 26.5767 314.542 26.93C314.868 27.2767 315.032 27.7467 315.032 28.34V32H313.952V28.46C313.952 28.1 313.855 27.8233 313.662 27.63C313.468 27.4367 313.205 27.34 312.872 27.34C312.532 27.34 312.262 27.4433 312.062 27.65C311.868 27.85 311.772 28.1433 311.772 28.53V32H310.692ZM324.844 32.09C324.39 32.09 323.997 32.0033 323.664 31.83C323.33 31.6567 323.074 31.41 322.894 31.09C322.714 30.77 322.624 30.3933 322.624 29.96V28.54C322.624 28.1 322.714 27.7233 322.894 27.41C323.074 27.09 323.33 26.8433 323.664 26.67C323.997 26.4967 324.39 26.41 324.844 26.41C325.297 26.41 325.69 26.4967 326.024 26.67C326.357 26.8433 326.614 27.09 326.794 27.41C326.974 27.7233 327.064 28.1 327.064 28.54V29.96C327.064 30.3933 326.974 30.77 326.794 31.09C326.614 31.41 326.357 31.6567 326.024 31.83C325.69 32.0033 325.297 32.09 324.844 32.09ZM324.844 31.14C325.21 31.14 325.494 31.04 325.694 30.84C325.894 30.6333 325.994 30.34 325.994 29.96V28.54C325.994 28.1533 325.894 27.86 325.694 27.66C325.494 27.46 325.21 27.36 324.844 27.36C324.484 27.36 324.2 27.46 323.994 27.66C323.794 27.86 323.694 28.1533 323.694 28.54V29.96C323.694 30.34 323.794 30.6333 323.994 30.84C324.2 31.04 324.484 31.14 324.844 31.14ZM330.13 32L328.31 26.5H329.41L330.54 30.02C330.613 30.2267 330.677 30.4367 330.73 30.65C330.79 30.8567 330.833 31.02 330.86 31.14C330.893 31.02 330.937 30.8567 330.99 30.65C331.05 30.4367 331.11 30.2267 331.17 30.02L332.28 26.5H333.37L331.55 32H330.13ZM336.836 32.1C336.389 32.1 335.996 32.0133 335.656 31.84C335.323 31.66 335.066 31.41 334.886 31.09C334.706 30.77 334.616 30.3967 334.616 29.97V28.53C334.616 28.0967 334.706 27.7233 334.886 27.41C335.066 27.09 335.323 26.8433 335.656 26.67C335.996 26.49 336.389 26.4 336.836 26.4C337.289 26.4 337.683 26.49 338.016 26.67C338.349 26.8433 338.606 27.09 338.786 27.41C338.966 27.7233 339.056 28.0967 339.056 28.53V29.51H335.656V29.97C335.656 30.3767 335.756 30.6867 335.956 30.9C336.163 31.1133 336.459 31.22 336.846 31.22C337.159 31.22 337.413 31.1667 337.606 31.06C337.799 30.9467 337.919 30.7833 337.966 30.57H339.036C338.956 31.0367 338.716 31.41 338.316 31.69C337.916 31.9633 337.423 32.1 336.836 32.1ZM338.016 28.86V28.52C338.016 28.12 337.916 27.81 337.716 27.59C337.516 27.37 337.223 27.26 336.836 27.26C336.456 27.26 336.163 27.37 335.956 27.59C335.756 27.81 335.656 28.1233 335.656 28.53V28.78L338.096 28.77L338.016 28.86ZM340.852 32V26.5H341.892V27.55H342.152L341.822 28.2C341.822 27.6067 341.952 27.16 342.212 26.86C342.472 26.5533 342.859 26.4 343.372 26.4C343.959 26.4 344.422 26.5833 344.762 26.95C345.109 27.31 345.282 27.8067 345.282 28.44V28.81H344.172V28.53C344.172 28.1367 344.072 27.8367 343.872 27.63C343.679 27.4167 343.405 27.31 343.052 27.31C342.699 27.31 342.422 27.4167 342.222 27.63C342.029 27.8433 341.932 28.1433 341.932 28.53V32H340.852ZM346.848 32V26.5H347.888V27.55H348.148L347.818 28.2C347.818 27.6067 347.948 27.16 348.208 26.86C348.468 26.5533 348.855 26.4 349.368 26.4C349.955 26.4 350.418 26.5833 350.758 26.95C351.105 27.31 351.278 27.8067 351.278 28.44V28.81H350.168V28.53C350.168 28.1367 350.068 27.8367 349.868 27.63C349.675 27.4167 349.401 27.31 349.048 27.31C348.695 27.31 348.418 27.4167 348.218 27.63C348.025 27.8433 347.928 28.1433 347.928 28.53V32H346.848ZM352.634 32V31.02H354.564V27.48H352.884V26.5H355.614V31.02H357.384V32H352.634ZM354.984 25.55C354.751 25.55 354.564 25.49 354.424 25.37C354.284 25.2433 354.214 25.0767 354.214 24.87C354.214 24.6567 354.284 24.49 354.424 24.37C354.564 24.2433 354.751 24.18 354.984 24.18C355.218 24.18 355.404 24.2433 355.544 24.37C355.684 24.49 355.754 24.6567 355.754 24.87C355.754 25.0767 355.684 25.2433 355.544 25.37C355.404 25.49 355.218 25.55 354.984 25.55ZM360.43 32.1C359.877 32.1 359.434 31.9133 359.1 31.54C358.767 31.1667 358.6 30.6633 358.6 30.03V28.48C358.6 27.84 358.767 27.3333 359.1 26.96C359.434 26.5867 359.877 26.4 360.43 26.4C360.884 26.4 361.244 26.5267 361.51 26.78C361.777 27.0267 361.91 27.3667 361.91 27.8L361.68 27.55H361.93L361.9 26.27V24.7H362.98V32H361.91V30.95H361.68L361.91 30.7C361.91 31.1333 361.777 31.4767 361.51 31.73C361.244 31.9767 360.884 32.1 360.43 32.1ZM360.8 31.16C361.14 31.16 361.407 31.0567 361.6 30.85C361.8 30.6367 361.9 30.3433 361.9 29.97V28.53C361.9 28.1567 361.8 27.8667 361.6 27.66C361.407 27.4467 361.14 27.34 360.8 27.34C360.447 27.34 360.17 27.4433 359.97 27.65C359.77 27.85 359.67 28.1433 359.67 28.53V29.97C359.67 30.3567 359.77 30.6533 359.97 30.86C360.17 31.06 360.447 31.16 360.8 31.16ZM366.816 32.1C366.37 32.1 365.976 32.0133 365.636 31.84C365.303 31.66 365.046 31.41 364.866 31.09C364.686 30.77 364.596 30.3967 364.596 29.97V28.53C364.596 28.0967 364.686 27.7233 364.866 27.41C365.046 27.09 365.303 26.8433 365.636 26.67C365.976 26.49 366.37 26.4 366.816 26.4C367.27 26.4 367.663 26.49 367.996 26.67C368.33 26.8433 368.586 27.09 368.766 27.41C368.946 27.7233 369.036 28.0967 369.036 28.53V29.51H365.636V29.97C365.636 30.3767 365.736 30.6867 365.936 30.9C366.143 31.1133 366.44 31.22 366.826 31.22C367.14 31.22 367.393 31.1667 367.586 31.06C367.78 30.9467 367.9 30.7833 367.946 30.57H369.016C368.936 31.0367 368.696 31.41 368.296 31.69C367.896 31.9633 367.403 32.1 366.816 32.1ZM367.996 28.86V28.52C367.996 28.12 367.896 27.81 367.696 27.59C367.496 27.37 367.203 27.26 366.816 27.26C366.436 27.26 366.143 27.37 365.936 27.59C365.736 27.81 365.636 28.1233 365.636 28.53V28.78L368.076 28.77L367.996 28.86ZM372.623 32.09C372.229 32.09 371.883 32.0267 371.583 31.9C371.289 31.7733 371.056 31.6 370.883 31.38C370.716 31.1533 370.619 30.8867 370.593 30.58H371.673C371.699 30.76 371.796 30.9067 371.963 31.02C372.129 31.1267 372.349 31.18 372.623 31.18H373.053C373.379 31.18 373.626 31.1133 373.793 30.98C373.959 30.8467 374.043 30.67 374.043 30.45C374.043 30.2367 373.966 30.07 373.813 29.95C373.666 29.8233 373.446 29.74 373.153 29.7L372.443 29.59C371.856 29.4967 371.423 29.33 371.143 29.09C370.869 28.8433 370.733 28.48 370.733 28C370.733 27.4933 370.896 27.1033 371.223 26.83C371.556 26.55 372.046 26.41 372.693 26.41H373.073C373.646 26.41 374.103 26.5433 374.443 26.81C374.789 27.07 374.986 27.42 375.033 27.86H373.953C373.926 27.7 373.836 27.57 373.683 27.47C373.536 27.37 373.333 27.32 373.073 27.32H372.693C372.379 27.32 372.149 27.38 372.003 27.5C371.863 27.6133 371.793 27.7833 371.793 28.01C371.793 28.21 371.856 28.36 371.983 28.46C372.109 28.56 372.306 28.63 372.573 28.67L373.303 28.79C373.923 28.8767 374.376 29.05 374.663 29.31C374.956 29.5633 375.103 29.9333 375.103 30.42C375.103 30.9467 374.929 31.3567 374.583 31.65C374.243 31.9433 373.733 32.09 373.053 32.09H372.623ZM376.619 31.4V30.38L379.609 28.95C379.742 28.89 379.869 28.84 379.989 28.8C380.109 28.76 380.199 28.7333 380.259 28.72C380.192 28.7067 380.095 28.68 379.969 28.64C379.849 28.5933 379.729 28.54 379.609 28.48L376.619 27.05V26.01L380.999 28.14V29.27L376.619 31.4Z" fill="#47BC99"/>
<path d="M82.84 89V83.5H83.91V84.55H84.17L83.91 84.8C83.91 84.36 84.04 84.0167 84.3 83.77C84.56 83.5233 84.92 83.4 85.38 83.4C85.9267 83.4 86.3633 83.5767 86.69 83.93C87.0167 84.2767 87.18 84.7467 87.18 85.34V89H86.1V85.46C86.1 85.1 86.0033 84.8233 85.81 84.63C85.6167 84.4367 85.3533 84.34 85.02 84.34C84.68 84.34 84.41 84.4433 84.21 84.65C84.0167 84.85 83.92 85.1433 83.92 85.53V89H82.84ZM88.4261 89L90.3561 86.16L88.5461 83.5H89.7861L90.7561 85.02C90.8028 85.1 90.8494 85.1867 90.8961 85.28C90.9428 85.3667 90.9794 85.44 91.0061 85.5C91.0261 85.44 91.0594 85.3667 91.1061 85.28C91.1528 85.1867 91.1994 85.1 91.2461 85.02L92.2161 83.5H93.4561L91.6461 86.17L93.5661 89H92.3261L91.2561 87.35C91.2094 87.27 91.1628 87.18 91.1161 87.08C91.0694 86.98 91.0328 86.9 91.0061 86.84C90.9794 86.9 90.9394 86.98 90.8861 87.08C90.8394 87.18 90.7894 87.27 90.7361 87.35L89.6561 89H88.4261Z" fill="#94A3B8"/>
<path d="M103.378 89.1C102.925 89.1 102.565 88.9767 102.298 88.73C102.032 88.4767 101.898 88.1333 101.898 87.7L102.128 87.95H101.898V89H100.828V81.7H101.908V83.27L101.878 84.55H102.128L101.898 84.8C101.898 84.3667 102.032 84.0267 102.298 83.78C102.572 83.5267 102.932 83.4 103.378 83.4C103.932 83.4 104.375 83.5867 104.708 83.96C105.042 84.3333 105.208 84.84 105.208 85.48V87.03C105.208 87.6633 105.042 88.1667 104.708 88.54C104.375 88.9133 103.932 89.1 103.378 89.1ZM103.008 88.16C103.362 88.16 103.638 88.06 103.838 87.86C104.038 87.6533 104.138 87.3567 104.138 86.97V85.53C104.138 85.1433 104.038 84.85 103.838 84.65C103.638 84.4433 103.362 84.34 103.008 84.34C102.668 84.34 102.398 84.4467 102.198 84.66C102.005 84.8667 101.908 85.1567 101.908 85.53V86.97C101.908 87.3433 102.005 87.6367 102.198 87.85C102.398 88.0567 102.668 88.16 103.008 88.16ZM108.974 89.1C108.314 89.1 107.788 88.91 107.394 88.53C107.001 88.1433 106.804 87.62 106.804 86.96V83.5H107.884V86.96C107.884 87.34 107.981 87.6367 108.174 87.85C108.368 88.0567 108.634 88.16 108.974 88.16C109.321 88.16 109.591 88.0567 109.784 87.85C109.984 87.6367 110.084 87.34 110.084 86.96V83.5H111.164V86.96C111.164 87.62 110.964 88.1433 110.564 88.53C110.171 88.91 109.641 89.1 108.974 89.1ZM112.79 89V88.02H114.72V84.48H113.04V83.5H115.77V88.02H117.54V89H112.79ZM115.14 82.55C114.907 82.55 114.72 82.49 114.58 82.37C114.44 82.2433 114.37 82.0767 114.37 81.87C114.37 81.6567 114.44 81.49 114.58 81.37C114.72 81.2433 114.907 81.18 115.14 81.18C115.374 81.18 115.56 81.2433 115.7 81.37C115.84 81.49 115.91 81.6567 115.91 81.87C115.91 82.0767 115.84 82.2433 115.7 82.37C115.56 82.49 115.374 82.55 115.14 82.55ZM121.767 89C121.427 89 121.13 88.9333 120.877 88.8C120.623 88.66 120.423 88.4633 120.277 88.21C120.137 87.9567 120.067 87.6633 120.067 87.33V82.68H118.267V81.7H121.147V87.33C121.147 87.5433 121.207 87.7133 121.327 87.84C121.447 87.96 121.61 88.02 121.817 88.02H123.517V89H121.767ZM126.583 89.1C126.029 89.1 125.586 88.9133 125.253 88.54C124.919 88.1667 124.753 87.6633 124.753 87.03V85.48C124.753 84.84 124.919 84.3333 125.253 83.96C125.586 83.5867 126.029 83.4 126.583 83.4C127.036 83.4 127.396 83.5267 127.663 83.78C127.929 84.0267 128.063 84.3667 128.063 84.8L127.833 84.55H128.083L128.053 83.27V81.7H129.133V89H128.063V87.95H127.833L128.063 87.7C128.063 88.1333 127.929 88.4767 127.663 88.73C127.396 88.9767 127.036 89.1 126.583 89.1ZM126.953 88.16C127.293 88.16 127.559 88.0567 127.753 87.85C127.953 87.6367 128.053 87.3433 128.053 86.97V85.53C128.053 85.1567 127.953 84.8667 127.753 84.66C127.559 84.4467 127.293 84.34 126.953 84.34C126.599 84.34 126.323 84.4433 126.123 84.65C125.923 84.85 125.823 85.1433 125.823 85.53V86.97C125.823 87.3567 125.923 87.6533 126.123 87.86C126.323 88.06 126.599 88.16 126.953 88.16Z" fill="#6366F1"/>
<path d="M136.805 90.8V83.5H137.875V84.55H138.105L137.875 84.8C137.875 84.3667 138.008 84.0267 138.275 83.78C138.548 83.5267 138.912 83.4 139.365 83.4C139.918 83.4 140.358 83.5867 140.685 83.96C141.018 84.3267 141.185 84.83 141.185 85.47V87.02C141.185 87.4467 141.108 87.8167 140.955 88.13C140.808 88.4367 140.598 88.6767 140.325 88.85C140.058 89.0167 139.738 89.1 139.365 89.1C138.918 89.1 138.558 88.9767 138.285 88.73C138.012 88.4767 137.875 88.1333 137.875 87.7L138.105 87.95H137.855L137.885 89.23V90.8H136.805ZM138.995 88.16C139.348 88.16 139.622 88.06 139.815 87.86C140.015 87.6533 140.115 87.3567 140.115 86.97V85.53C140.115 85.1433 140.015 84.85 139.815 84.65C139.622 84.4433 139.348 84.34 138.995 84.34C138.655 84.34 138.385 84.4467 138.185 84.66C137.985 84.8667 137.885 85.1567 137.885 85.53V86.97C137.885 87.3433 137.985 87.6367 138.185 87.85C138.385 88.0567 138.655 88.16 138.995 88.16ZM142.981 89V83.5H144.021V84.55H144.281L143.951 85.2C143.951 84.6067 144.081 84.16 144.341 83.86C144.601 83.5533 144.988 83.4 145.501 83.4C146.088 83.4 146.551 83.5833 146.891 83.95C147.238 84.31 147.411 84.8067 147.411 85.44V85.81H146.301V85.53C146.301 85.1367 146.201 84.8367 146.001 84.63C145.808 84.4167 145.534 84.31 145.181 84.31C144.828 84.31 144.551 84.4167 144.351 84.63C144.158 84.8433 144.061 85.1433 144.061 85.53V89H142.981ZM150.957 89.09C150.504 89.09 150.11 89.0033 149.777 88.83C149.444 88.6567 149.187 88.41 149.007 88.09C148.827 87.77 148.737 87.3933 148.737 86.96V85.54C148.737 85.1 148.827 84.7233 149.007 84.41C149.187 84.09 149.444 83.8433 149.777 83.67C150.11 83.4967 150.504 83.41 150.957 83.41C151.41 83.41 151.804 83.4967 152.137 83.67C152.47 83.8433 152.727 84.09 152.907 84.41C153.087 84.7233 153.177 85.1 153.177 85.54V86.96C153.177 87.3933 153.087 87.77 152.907 88.09C152.727 88.41 152.47 88.6567 152.137 88.83C151.804 89.0033 151.41 89.09 150.957 89.09ZM150.957 88.14C151.324 88.14 151.607 88.04 151.807 87.84C152.007 87.6333 152.107 87.34 152.107 86.96V85.54C152.107 85.1533 152.007 84.86 151.807 84.66C151.607 84.46 151.324 84.36 150.957 84.36C150.597 84.36 150.314 84.46 150.107 84.66C149.907 84.86 149.807 85.1533 149.807 85.54V86.96C149.807 87.34 149.907 87.6333 150.107 87.84C150.314 88.04 150.597 88.14 150.957 88.14ZM156.563 89.1C156.01 89.1 155.566 88.9133 155.233 88.54C154.9 88.1667 154.733 87.6633 154.733 87.03V85.48C154.733 84.84 154.9 84.3333 155.233 83.96C155.566 83.5867 156.01 83.4 156.563 83.4C157.016 83.4 157.376 83.5267 157.643 83.78C157.91 84.0267 158.043 84.3667 158.043 84.8L157.813 84.55H158.063L158.033 83.27V81.7H159.113V89H158.043V87.95H157.813L158.043 87.7C158.043 88.1333 157.91 88.4767 157.643 88.73C157.376 88.9767 157.016 89.1 156.563 89.1ZM156.933 88.16C157.273 88.16 157.54 88.0567 157.733 87.85C157.933 87.6367 158.033 87.3433 158.033 86.97V85.53C158.033 85.1567 157.933 84.8667 157.733 84.66C157.54 84.4467 157.273 84.34 156.933 84.34C156.58 84.34 156.303 84.4433 156.103 84.65C155.903 84.85 155.803 85.1433 155.803 85.53V86.97C155.803 87.3567 155.903 87.6533 156.103 87.86C156.303 88.06 156.58 88.16 156.933 88.16ZM162.939 89.1C162.279 89.1 161.753 88.91 161.359 88.53C160.966 88.1433 160.769 87.62 160.769 86.96V83.5H161.849V86.96C161.849 87.34 161.946 87.6367 162.139 87.85C162.333 88.0567 162.599 88.16 162.939 88.16C163.286 88.16 163.556 88.0567 163.749 87.85C163.949 87.6367 164.049 87.34 164.049 86.96V83.5H165.129V86.96C165.129 87.62 164.929 88.1433 164.529 88.53C164.136 88.91 163.606 89.1 162.939 89.1ZM168.985 89.1C168.532 89.1 168.132 89.0167 167.785 88.85C167.445 88.6767 167.182 88.43 166.995 88.11C166.815 87.7833 166.725 87.4033 166.725 86.97V85.53C166.725 85.09 166.815 84.71 166.995 84.39C167.182 84.07 167.445 83.8267 167.785 83.66C168.132 83.4867 168.532 83.4 168.985 83.4C169.645 83.4 170.175 83.5733 170.575 83.92C170.975 84.2667 171.185 84.74 171.205 85.34H170.125C170.105 85.0267 169.995 84.7833 169.795 84.61C169.595 84.4367 169.325 84.35 168.985 84.35C168.619 84.35 168.329 84.4533 168.115 84.66C167.902 84.86 167.795 85.1467 167.795 85.52V86.97C167.795 87.3433 167.902 87.6333 168.115 87.84C168.329 88.0467 168.619 88.15 168.985 88.15C169.325 88.15 169.595 88.0633 169.795 87.89C169.995 87.7167 170.105 87.4733 170.125 87.16H171.205C171.185 87.76 170.975 88.2333 170.575 88.58C170.175 88.9267 169.645 89.1 168.985 89.1ZM175.541 89C175.041 89 174.651 88.8633 174.371 88.59C174.091 88.3167 173.951 87.9367 173.951 87.45V84.48H172.431V83.5H173.951V81.95H175.031V83.5H177.181V84.48H175.031V87.45C175.031 87.83 175.215 88.02 175.581 88.02H177.081V89H175.541ZM180.748 89.09C180.354 89.09 180.008 89.0267 179.708 88.9C179.414 88.7733 179.181 88.6 179.008 88.38C178.841 88.1533 178.744 87.8867 178.718 87.58H179.798C179.824 87.76 179.921 87.9067 180.088 88.02C180.254 88.1267 180.474 88.18 180.748 88.18H181.178C181.504 88.18 181.751 88.1133 181.918 87.98C182.084 87.8467 182.168 87.67 182.168 87.45C182.168 87.2367 182.091 87.07 181.938 86.95C181.791 86.8233 181.571 86.74 181.278 86.7L180.568 86.59C179.981 86.4967 179.548 86.33 179.268 86.09C178.994 85.8433 178.858 85.48 178.858 85C178.858 84.4933 179.021 84.1033 179.348 83.83C179.681 83.55 180.171 83.41 180.818 83.41H181.198C181.771 83.41 182.228 83.5433 182.568 83.81C182.914 84.07 183.111 84.42 183.158 84.86H182.078C182.051 84.7 181.961 84.57 181.808 84.47C181.661 84.37 181.458 84.32 181.198 84.32H180.818C180.504 84.32 180.274 84.38 180.128 84.5C179.988 84.6133 179.918 84.7833 179.918 85.01C179.918 85.21 179.981 85.36 180.108 85.46C180.234 85.56 180.431 85.63 180.698 85.67L181.428 85.79C182.048 85.8767 182.501 86.05 182.788 86.31C183.081 86.5633 183.228 86.9333 183.228 87.42C183.228 87.9467 183.054 88.3567 182.708 88.65C182.368 88.9433 181.858 89.09 181.178 89.09H180.748ZM185.334 86.19V85.21H188.534V86.19H185.334ZM192.54 89.1C191.986 89.1 191.543 88.9133 191.21 88.54C190.876 88.1667 190.71 87.6633 190.71 87.03V85.48C190.71 84.84 190.876 84.3333 191.21 83.96C191.543 83.5867 191.986 83.4 192.54 83.4C192.993 83.4 193.353 83.5267 193.62 83.78C193.886 84.0267 194.02 84.3667 194.02 84.8L193.79 84.55H194.04L194.01 83.27V81.7H195.09V89H194.02V87.95H193.79L194.02 87.7C194.02 88.1333 193.886 88.4767 193.62 88.73C193.353 88.9767 192.993 89.1 192.54 89.1ZM192.91 88.16C193.25 88.16 193.516 88.0567 193.71 87.85C193.91 87.6367 194.01 87.3433 194.01 86.97V85.53C194.01 85.1567 193.91 84.8667 193.71 84.66C193.516 84.4467 193.25 84.34 192.91 84.34C192.556 84.34 192.28 84.4433 192.08 84.65C191.88 84.85 191.78 85.1433 191.78 85.53V86.97C191.78 87.3567 191.88 87.6533 192.08 87.86C192.28 88.06 192.556 88.16 192.91 88.16ZM198.376 89.1C197.802 89.1 197.349 88.9533 197.016 88.66C196.689 88.36 196.526 87.9533 196.526 87.44C196.526 86.92 196.699 86.5133 197.046 86.22C197.399 85.92 197.882 85.77 198.496 85.77H200.026V85.26C200.026 84.96 199.932 84.7267 199.746 84.56C199.559 84.3933 199.296 84.31 198.956 84.31C198.656 84.31 198.406 84.3767 198.206 84.51C198.006 84.6367 197.889 84.8067 197.856 85.02H196.796C196.856 84.5267 197.082 84.1333 197.476 83.84C197.876 83.5467 198.379 83.4 198.986 83.4C199.639 83.4 200.156 83.5667 200.536 83.9C200.916 84.2267 201.106 84.6733 201.106 85.24V89H200.056V87.99H199.876L200.056 87.79C200.056 88.19 199.902 88.51 199.596 88.75C199.289 88.9833 198.882 89.1 198.376 89.1ZM198.696 88.27C199.082 88.27 199.399 88.1733 199.646 87.98C199.899 87.78 200.026 87.5267 200.026 87.22V86.5H198.516C198.236 86.5 198.012 86.5767 197.846 86.73C197.686 86.8833 197.606 87.0933 197.606 87.36C197.606 87.64 197.702 87.8633 197.896 88.03C198.089 88.19 198.356 88.27 198.696 88.27ZM205.522 89C205.022 89 204.632 88.8633 204.352 88.59C204.072 88.3167 203.932 87.9367 203.932 87.45V84.48H202.412V83.5H203.932V81.95H205.012V83.5H207.162V84.48H205.012V87.45C205.012 87.83 205.195 88.02 205.562 88.02H207.062V89H205.522ZM210.368 89.1C209.795 89.1 209.341 88.9533 209.008 88.66C208.681 88.36 208.518 87.9533 208.518 87.44C208.518 86.92 208.691 86.5133 209.038 86.22C209.391 85.92 209.875 85.77 210.488 85.77H212.018V85.26C212.018 84.96 211.925 84.7267 211.738 84.56C211.551 84.3933 211.288 84.31 210.948 84.31C210.648 84.31 210.398 84.3767 210.198 84.51C209.998 84.6367 209.881 84.8067 209.848 85.02H208.788C208.848 84.5267 209.075 84.1333 209.468 83.84C209.868 83.5467 210.371 83.4 210.978 83.4C211.631 83.4 212.148 83.5667 212.528 83.9C212.908 84.2267 213.098 84.6733 213.098 85.24V89H212.048V87.99H211.868L212.048 87.79C212.048 88.19 211.895 88.51 211.588 88.75C211.281 88.9833 210.875 89.1 210.368 89.1ZM210.688 88.27C211.075 88.27 211.391 88.1733 211.638 87.98C211.891 87.78 212.018 87.5267 212.018 87.22V86.5H210.508C210.228 86.5 210.005 86.5767 209.838 86.73C209.678 86.8833 209.598 87.0933 209.598 87.36C209.598 87.64 209.695 87.8633 209.888 88.03C210.081 88.19 210.348 88.27 210.688 88.27ZM215.314 86.19V85.21H218.514V86.19H215.314ZM222.95 89.1C222.497 89.1 222.097 89.0167 221.75 88.85C221.41 88.6767 221.147 88.43 220.96 88.11C220.78 87.7833 220.69 87.4033 220.69 86.97V85.53C220.69 85.09 220.78 84.71 220.96 84.39C221.147 84.07 221.41 83.8267 221.75 83.66C222.097 83.4867 222.497 83.4 222.95 83.4C223.61 83.4 224.14 83.5733 224.54 83.92C224.94 84.2667 225.15 84.74 225.17 85.34H224.09C224.07 85.0267 223.96 84.7833 223.76 84.61C223.56 84.4367 223.29 84.35 222.95 84.35C222.583 84.35 222.293 84.4533 222.08 84.66C221.867 84.86 221.76 85.1467 221.76 85.52V86.97C221.76 87.3433 221.867 87.6333 222.08 87.84C222.293 88.0467 222.583 88.15 222.95 88.15C223.29 88.15 223.56 88.0633 223.76 87.89C223.96 87.7167 224.07 87.4733 224.09 87.16H225.17C225.15 87.76 224.94 88.2333 224.54 88.58C224.14 88.9267 223.61 89.1 222.95 89.1ZM229.696 89C229.356 89 229.06 88.9333 228.806 88.8C228.553 88.66 228.353 88.4633 228.206 88.21C228.066 87.9567 227.996 87.6633 227.996 87.33V82.68H226.196V81.7H229.076V87.33C229.076 87.5433 229.136 87.7133 229.256 87.84C229.376 87.96 229.54 88.02 229.746 88.02H231.446V89H229.696ZM232.712 89V88.02H234.642V84.48H232.962V83.5H235.692V88.02H237.462V89H232.712ZM235.062 82.55C234.829 82.55 234.642 82.49 234.502 82.37C234.362 82.2433 234.292 82.0767 234.292 81.87C234.292 81.6567 234.362 81.49 234.502 81.37C234.642 81.2433 234.829 81.18 235.062 81.18C235.296 81.18 235.482 81.2433 235.622 81.37C235.762 81.49 235.832 81.6567 235.832 81.87C235.832 82.0767 235.762 82.2433 235.622 82.37C235.482 82.49 235.296 82.55 235.062 82.55ZM240.898 89.1C240.452 89.1 240.058 89.0133 239.718 88.84C239.385 88.66 239.128 88.41 238.948 88.09C238.768 87.77 238.678 87.3967 238.678 86.97V85.53C238.678 85.0967 238.768 84.7233 238.948 84.41C239.128 84.09 239.385 83.8433 239.718 83.67C240.058 83.49 240.452 83.4 240.898 83.4C241.352 83.4 241.745 83.49 242.078 83.67C242.412 83.8433 242.668 84.09 242.848 84.41C243.028 84.7233 243.118 85.0967 243.118 85.53V86.51H239.718V86.97C239.718 87.3767 239.818 87.6867 240.018 87.9C240.225 88.1133 240.522 88.22 240.908 88.22C241.222 88.22 241.475 88.1667 241.668 88.06C241.862 87.9467 241.982 87.7833 242.028 87.57H243.098C243.018 88.0367 242.778 88.41 242.378 88.69C241.978 88.9633 241.485 89.1 240.898 89.1ZM242.078 85.86V85.52C242.078 85.12 241.978 84.81 241.778 84.59C241.578 84.37 241.285 84.26 240.898 84.26C240.518 84.26 240.225 84.37 240.018 84.59C239.818 84.81 239.718 85.1233 239.718 85.53V85.78L242.158 85.77L242.078 85.86ZM244.735 89V83.5H245.805V84.55H246.065L245.805 84.8C245.805 84.36 245.935 84.0167 246.195 83.77C246.455 83.5233 246.815 83.4 247.275 83.4C247.821 83.4 248.258 83.5767 248.585 83.93C248.911 84.2767 249.075 84.7467 249.075 85.34V89H247.995V85.46C247.995 85.1 247.898 84.8233 247.705 84.63C247.511 84.4367 247.248 84.34 246.915 84.34C246.575 84.34 246.305 84.4433 246.105 84.65C245.911 84.85 245.815 85.1433 245.815 85.53V89H244.735ZM253.491 89C252.991 89 252.601 88.8633 252.321 88.59C252.041 88.3167 251.901 87.9367 251.901 87.45V84.48H250.381V83.5H251.901V81.95H252.981V83.5H255.131V84.48H252.981V87.45C252.981 87.83 253.164 88.02 253.531 88.02H255.031V89H253.491Z" fill="#F43F5E"/>
<path d="M268.329 86.19V85.21H272.479V86.19H268.329ZM263.279 86.19V85.21H267.429V86.19H263.279ZM275.005 89L274.155 83.5H275.065L275.575 87.13C275.602 87.2967 275.625 87.4833 275.645 87.69C275.672 87.89 275.692 88.0567 275.705 88.19C275.718 88.0567 275.738 87.89 275.765 87.69C275.798 87.49 275.828 87.3033 275.855 87.13L276.425 83.5H277.335L277.895 87.13C277.922 87.3033 277.948 87.4933 277.975 87.7C278.008 87.9 278.032 88.0667 278.045 88.2C278.058 88.06 278.078 87.89 278.105 87.69C278.138 87.4833 278.168 87.2967 278.195 87.13L278.715 83.5H279.595L278.715 89H277.575L277.035 85.41C277.008 85.2233 276.978 85.0267 276.945 84.82C276.912 84.6067 276.888 84.4367 276.875 84.31C276.855 84.4367 276.828 84.6067 276.795 84.82C276.768 85.0267 276.742 85.2233 276.715 85.41L276.155 89H275.005ZM282.321 89.1C281.748 89.1 281.294 88.9533 280.961 88.66C280.634 88.36 280.471 87.9533 280.471 87.44C280.471 86.92 280.644 86.5133 280.991 86.22C281.344 85.92 281.828 85.77 282.441 85.77H283.971V85.26C283.971 84.96 283.878 84.7267 283.691 84.56C283.504 84.3933 283.241 84.31 282.901 84.31C282.601 84.31 282.351 84.3767 282.151 84.51C281.951 84.6367 281.834 84.8067 281.801 85.02H280.741C280.801 84.5267 281.028 84.1333 281.421 83.84C281.821 83.5467 282.324 83.4 282.931 83.4C283.584 83.4 284.101 83.5667 284.481 83.9C284.861 84.2267 285.051 84.6733 285.051 85.24V89H284.001V87.99H283.821L284.001 87.79C284.001 88.19 283.848 88.51 283.541 88.75C283.234 88.9833 282.828 89.1 282.321 89.1ZM282.641 88.27C283.028 88.27 283.344 88.1733 283.591 87.98C283.844 87.78 283.971 87.5267 283.971 87.22V86.5H282.461C282.181 86.5 281.958 86.5767 281.791 86.73C281.631 86.8833 281.551 87.0933 281.551 87.36C281.551 87.64 281.648 87.8633 281.841 88.03C282.034 88.19 282.301 88.27 282.641 88.27ZM289.467 89C288.967 89 288.577 88.8633 288.297 88.59C288.017 88.3167 287.877 87.9367 287.877 87.45V84.48H286.357V83.5H287.877V81.95H288.957V83.5H291.107V84.48H288.957V87.45C288.957 87.83 289.141 88.02 289.507 88.02H291.007V89H289.467ZM294.903 89.1C294.45 89.1 294.05 89.0167 293.703 88.85C293.363 88.6767 293.1 88.43 292.913 88.11C292.733 87.7833 292.643 87.4033 292.643 86.97V85.53C292.643 85.09 292.733 84.71 292.913 84.39C293.1 84.07 293.363 83.8267 293.703 83.66C294.05 83.4867 294.45 83.4 294.903 83.4C295.563 83.4 296.093 83.5733 296.493 83.92C296.893 84.2667 297.103 84.74 297.123 85.34H296.043C296.023 85.0267 295.913 84.7833 295.713 84.61C295.513 84.4367 295.243 84.35 294.903 84.35C294.537 84.35 294.247 84.4533 294.033 84.66C293.82 84.86 293.713 85.1467 293.713 85.52V86.97C293.713 87.3433 293.82 87.6333 294.033 87.84C294.247 88.0467 294.537 88.15 294.903 88.15C295.243 88.15 295.513 88.0633 295.713 87.89C295.913 87.7167 296.023 87.4733 296.043 87.16H297.123C297.103 87.76 296.893 88.2333 296.493 88.58C296.093 88.9267 295.563 89.1 294.903 89.1ZM298.699 89V81.7H299.779V83.5L299.769 84.55H300.029L299.769 84.8C299.769 84.36 299.899 84.0167 300.159 83.77C300.419 83.5233 300.779 83.4 301.239 83.4C301.786 83.4 302.223 83.5767 302.549 83.93C302.876 84.2767 303.039 84.7467 303.039 85.34V89H301.959V85.46C301.959 85.1 301.863 84.82 301.669 84.62C301.476 84.42 301.213 84.32 300.879 84.32C300.539 84.32 300.269 84.4267 300.069 84.64C299.876 84.8467 299.779 85.1433 299.779 85.53V89H298.699Z" fill="#47BC99"/>
<path d="M141.875 35C141.875 34.7239 141.651 34.5 141.375 34.5C141.099 34.5 140.875 34.7239 140.875 35H141.875ZM111.771 78.2283C111.967 78.4235 112.283 78.4235 112.479 78.2283L115.661 75.0463C115.856 74.851 115.856 74.5345 115.661 74.3392C115.465 74.1439 115.149 74.1439 114.953 74.3392L112.125 77.1676L109.297 74.3392C109.101 74.1439 108.785 74.1439 108.589 74.3392C108.394 74.5345 108.394 74.851 108.589 75.0463L111.771 78.2283ZM140.875 35V41.8121H141.875V35H140.875ZM111.625 71.0622V77.8747H112.625V71.0622H111.625ZM126.75 55.9371C118.397 55.9371 111.625 62.7088 111.625 71.0622H112.625C112.625 63.2611 118.949 56.9371 126.75 56.9371V55.9371ZM140.875 41.8121C140.875 49.6132 134.551 55.9371 126.75 55.9371V56.9371C135.103 56.9371 141.875 50.1654 141.875 41.8121H140.875Z" fill="#6366F1"/>
<path d="M201.08 77.0625C201.276 77.2578 201.592 77.2578 201.787 77.0625L204.969 73.8806C205.165 73.6853 205.165 73.3687 204.969 73.1734C204.774 72.9782 204.458 72.9782 204.262 73.1734L201.434 76.0019L198.605 73.1735C198.41 72.9782 198.094 72.9782 197.898 73.1735C197.703 73.3687 197.703 73.6853 197.898 73.8806L201.08 77.0625ZM230.75 35L231.25 35L230.75 35ZM225.75 39.5H216.092V40.5H225.75V39.5ZM200.934 54.6581L200.934 76.709L201.934 76.709L201.934 54.6581L200.934 54.6581ZM216.092 39.5C207.72 39.5 200.934 46.2865 200.934 54.6581L201.934 54.6581C201.934 46.8388 208.273 40.5 216.092 40.5V39.5ZM230.25 35C230.25 37.4853 228.235 39.5 225.75 39.5V40.5C228.788 40.5 231.25 38.0376 231.25 35L230.25 35Z" fill="#F43F5E"/>
<path d="M285.138 78.2398C285.334 78.4351 285.65 78.4351 285.845 78.2398L289.027 75.0578C289.223 74.8626 289.223 74.546 289.027 74.3507C288.832 74.1555 288.516 74.1555 288.32 74.3507L285.492 77.1792L282.664 74.3507C282.468 74.1555 282.152 74.1555 281.956 74.3507C281.761 74.546 281.761 74.8626 281.956 75.0578L285.138 78.2398ZM329.043 35L329.543 35L329.043 35ZM318.044 45.5H307.268V46.5H318.044V45.5ZM284.992 67.7756V77.8863H285.992V67.7756H284.992ZM307.268 45.5C294.965 45.5 284.992 55.4731 284.992 67.7756H285.992C285.992 56.0254 295.517 46.5 307.268 46.5V45.5ZM328.543 35C328.544 40.799 323.843 45.5 318.044 45.5V46.5C324.395 46.5 329.544 41.3512 329.543 35L328.543 35Z" fill="#47BC99"/>
<path d="M19.6719 24.4929C19.6188 24.0223 19.4001 23.6577 19.0156 23.3991C18.6312 23.1373 18.1473 23.0064 17.5639 23.0064C17.1463 23.0064 16.785 23.0727 16.4801 23.2053C16.1752 23.3345 15.9382 23.5135 15.7692 23.7422C15.6035 23.9676 15.5206 24.2244 15.5206 24.5128C15.5206 24.7547 15.5769 24.9635 15.6896 25.1392C15.8056 25.3149 15.9564 25.4624 16.142 25.5817C16.331 25.6977 16.5331 25.7955 16.7486 25.875C16.964 25.9512 17.1712 26.0142 17.37 26.0639L18.3643 26.3224C18.6892 26.402 19.0223 26.5097 19.3636 26.6456C19.705 26.7815 20.0215 26.9605 20.3132 27.1825C20.6049 27.4046 20.8402 27.6797 21.0192 28.0078C21.2015 28.3359 21.2926 28.7287 21.2926 29.1861C21.2926 29.7628 21.1435 30.2749 20.8452 30.7223C20.5502 31.1697 20.121 31.5227 19.5575 31.7812C18.9974 32.0398 18.3196 32.169 17.5241 32.169C16.7618 32.169 16.1023 32.0481 15.5455 31.8061C14.9886 31.5642 14.5528 31.2211 14.2379 30.777C13.9231 30.3295 13.7491 29.7992 13.7159 29.1861H15.2571C15.2869 29.554 15.4063 29.8606 15.6151 30.1058C15.8272 30.3478 16.0973 30.5284 16.4254 30.6477C16.7569 30.7637 17.1198 30.8217 17.5142 30.8217C17.9484 30.8217 18.3345 30.7538 18.6726 30.6179C19.014 30.4787 19.2824 30.2865 19.478 30.0412C19.6735 29.7926 19.7713 29.5026 19.7713 29.1712C19.7713 28.8696 19.6851 28.6226 19.5128 28.4304C19.3438 28.2382 19.1134 28.0791 18.8217 27.9531C18.5334 27.8272 18.2069 27.7161 17.8423 27.62L16.6392 27.2919C15.8239 27.0698 15.1776 26.7434 14.7003 26.3125C14.2263 25.8816 13.9893 25.3116 13.9893 24.6023C13.9893 24.0156 14.1484 23.5036 14.4666 23.0661C14.7848 22.6286 15.2157 22.2888 15.7592 22.0469C16.3028 21.8016 16.916 21.679 17.5987 21.679C18.2881 21.679 18.8963 21.8 19.4233 22.0419C19.9536 22.2839 20.3712 22.617 20.6761 23.0412C20.9811 23.4621 21.1402 23.946 21.1534 24.4929H19.6719ZM23.9487 34.8636C23.7266 34.8636 23.5244 34.8454 23.3422 34.8089C23.1599 34.7758 23.024 34.7393 22.9345 34.6996L23.2924 33.4815C23.5642 33.5545 23.8062 33.5859 24.0183 33.576C24.2304 33.5661 24.4177 33.4865 24.5801 33.3374C24.7458 33.1882 24.8916 32.9446 25.0176 32.6065L25.2015 32.0994L22.4075 24.3636H23.9984L25.9324 30.2898H26.0119L27.9458 24.3636H29.5417L26.3947 33.0192C26.2489 33.4169 26.0633 33.7533 25.8379 34.0284C25.6125 34.3068 25.344 34.5156 25.0325 34.6548C24.7209 34.794 24.3597 34.8636 23.9487 34.8636ZM32.4252 27.4659V32H30.9387V24.3636H32.3656V25.6065H32.46C32.6357 25.2022 32.9108 24.8774 33.2853 24.6321C33.6632 24.3868 34.1388 24.2642 34.7122 24.2642C35.2325 24.2642 35.6883 24.3736 36.0794 24.5923C36.4705 24.8078 36.7737 25.1293 36.9892 25.5568C37.2046 25.9844 37.3123 26.513 37.3123 27.1428V32H35.8258V27.3217C35.8258 26.7682 35.6816 26.3357 35.3933 26.0241C35.1049 25.7093 34.7089 25.5518 34.2051 25.5518C33.8604 25.5518 33.5538 25.6264 33.2853 25.7756C33.0202 25.9247 32.8097 26.1435 32.6539 26.4318C32.5015 26.7169 32.4252 27.0616 32.4252 27.4659ZM42.8706 24.3636V25.5568H38.6994V24.3636H42.8706ZM39.818 22.5341H41.3045V29.7578C41.3045 30.0462 41.3476 30.2633 41.4338 30.4091C41.5199 30.5516 41.631 30.6494 41.7669 30.7024C41.9061 30.7521 42.0569 30.777 42.2193 30.777C42.3386 30.777 42.443 30.7687 42.5325 30.7521C42.622 30.7356 42.6916 30.7223 42.7413 30.7124L43.0098 31.9403C42.9236 31.9735 42.801 32.0066 42.6419 32.0398C42.4828 32.0762 42.2839 32.0961 42.0453 32.0994C41.6542 32.1061 41.2896 32.0365 40.9515 31.8906C40.6135 31.7448 40.34 31.5194 40.1312 31.2145C39.9224 30.9096 39.818 30.5268 39.818 30.0661V22.5341ZM46.7372 32.169C46.2533 32.169 45.8158 32.0795 45.4247 31.9006C45.0336 31.7183 44.7237 31.4548 44.495 31.1101C44.2696 30.7654 44.157 30.3428 44.157 29.8423C44.157 29.4115 44.2398 29.0568 44.4055 28.7784C44.5713 28.5 44.795 28.2796 45.0767 28.1172C45.3584 27.9548 45.6733 27.8321 46.0213 27.7493C46.3693 27.6664 46.724 27.6035 47.0852 27.5604C47.5426 27.5073 47.9138 27.4643 48.1989 27.4311C48.4839 27.3946 48.6911 27.3366 48.8203 27.2571C48.9496 27.1776 49.0142 27.0483 49.0142 26.8693V26.8345C49.0142 26.4003 48.8916 26.0639 48.6463 25.8253C48.4044 25.5866 48.0431 25.4673 47.5625 25.4673C47.062 25.4673 46.6676 25.5784 46.3793 25.8004C46.0942 26.0192 45.897 26.2628 45.7876 26.5312L44.3906 26.2131C44.5563 25.7491 44.7983 25.3745 45.1165 25.0895C45.438 24.8011 45.8075 24.5923 46.2251 24.4631C46.6428 24.3305 47.0819 24.2642 47.5426 24.2642C47.8475 24.2642 48.1707 24.3007 48.5121 24.3736C48.8568 24.4432 49.1783 24.5724 49.4766 24.7614C49.7782 24.9503 50.0251 25.2204 50.2173 25.5717C50.4096 25.9197 50.5057 26.3722 50.5057 26.929V32H49.054V30.956H48.9943C48.8982 31.1482 48.754 31.3371 48.5618 31.5227C48.3696 31.7083 48.1226 31.8625 47.821 31.9851C47.5194 32.1077 47.1581 32.169 46.7372 32.169ZM47.0604 30.9759C47.4714 30.9759 47.8227 30.8946 48.1143 30.7322C48.4093 30.5698 48.633 30.3577 48.7855 30.0959C48.9413 29.8307 49.0192 29.5473 49.0192 29.2457V28.2614C48.9661 28.3144 48.8634 28.3641 48.7109 28.4105C48.5618 28.4536 48.3911 28.4917 48.1989 28.5249C48.0066 28.5547 47.8194 28.5829 47.6371 28.6094C47.4548 28.6326 47.3023 28.6525 47.1797 28.669C46.8913 28.7055 46.6278 28.7668 46.3892 28.853C46.1539 28.9392 45.965 29.0634 45.8224 29.2259C45.6832 29.3849 45.6136 29.5971 45.6136 29.8622C45.6136 30.2301 45.7495 30.5085 46.0213 30.6974C46.2931 30.883 46.6394 30.9759 47.0604 30.9759ZM53.6589 24.3636L55.3443 27.3366L57.0446 24.3636H58.6703L56.2889 28.1818L58.6902 32H57.0645L55.3443 29.1463L53.6291 32H51.9984L54.3748 28.1818L52.0282 24.3636H53.6589ZM61.176 32.0945C60.9042 32.0945 60.6705 31.9983 60.475 31.8061C60.2794 31.6106 60.1816 31.3752 60.1816 31.1001C60.1816 30.8284 60.2794 30.5964 60.475 30.4041C60.6705 30.2086 60.9042 30.1108 61.176 30.1108C61.4477 30.1108 61.6814 30.2086 61.877 30.4041C62.0725 30.5964 62.1703 30.8284 62.1703 31.1001C62.1703 31.2824 62.1239 31.4498 62.0311 31.6023C61.9416 31.7514 61.8223 31.8707 61.6731 31.9602C61.524 32.0497 61.3583 32.0945 61.176 32.0945ZM61.176 26.5362C60.9042 26.5362 60.6705 26.4384 60.475 26.2429C60.2794 26.0473 60.1816 25.8137 60.1816 25.5419C60.1816 25.2701 60.2794 25.0381 60.475 24.8459C60.6705 24.6503 60.9042 24.5526 61.176 24.5526C61.4477 24.5526 61.6814 24.6503 61.877 24.8459C62.0725 25.0381 62.1703 25.2701 62.1703 25.5419C62.1703 25.7242 62.1239 25.8916 62.0311 26.044C61.9416 26.1932 61.8223 26.3125 61.6731 26.402C61.524 26.4915 61.3583 26.5362 61.176 26.5362Z" fill="#94A3B8"/>
<path d="M13 34.7841H63.1596V35.7386H13V34.7841Z" fill="#94A3B8"/>
<path d="M14.1186 89V78.8182H20.5021V80.1406H15.6548V83.2429H20.169V84.5604H15.6548V87.6776H20.5618V89H14.1186ZM23.6081 81.3636L25.2935 84.3366L26.9938 81.3636H28.6195L26.2381 85.1818L28.6394 89H27.0137L25.2935 86.1463L23.5783 89H21.9476L24.324 85.1818L21.9775 81.3636H23.6081ZM32.3544 89.169C31.8705 89.169 31.433 89.0795 31.0419 88.9006C30.6508 88.7183 30.3409 88.4548 30.1122 88.1101C29.8868 87.7654 29.7741 87.3428 29.7741 86.8423C29.7741 86.4115 29.857 86.0568 30.0227 85.7784C30.1884 85.5 30.4122 85.2796 30.6939 85.1172C30.9756 84.9548 31.2905 84.8321 31.6385 84.7493C31.9865 84.6664 32.3411 84.6035 32.7024 84.5604C33.1598 84.5073 33.531 84.4643 33.8161 84.4311C34.1011 84.3946 34.3082 84.3366 34.4375 84.2571C34.5668 84.1776 34.6314 84.0483 34.6314 83.8693V83.8345C34.6314 83.4003 34.5088 83.0639 34.2635 82.8253C34.0215 82.5866 33.6603 82.4673 33.1797 82.4673C32.6792 82.4673 32.2848 82.5784 31.9964 82.8004C31.7114 83.0192 31.5142 83.2628 31.4048 83.5312L30.0078 83.2131C30.1735 82.7491 30.4155 82.3745 30.7337 82.0895C31.0552 81.8011 31.4247 81.5923 31.8423 81.4631C32.2599 81.3305 32.6991 81.2642 33.1598 81.2642C33.4647 81.2642 33.7879 81.3007 34.1293 81.3736C34.474 81.4432 34.7955 81.5724 35.0938 81.7614C35.3954 81.9503 35.6423 82.2204 35.8345 82.5717C36.0268 82.9197 36.1229 83.3722 36.1229 83.929V89H34.6712V87.956H34.6115C34.5154 88.1482 34.3712 88.3371 34.179 88.5227C33.9867 88.7083 33.7398 88.8625 33.4382 88.9851C33.1366 89.1077 32.7753 89.169 32.3544 89.169ZM32.6776 87.9759C33.0885 87.9759 33.4399 87.8946 33.7315 87.7322C34.0265 87.5698 34.2502 87.3577 34.4027 87.0959C34.5585 86.8307 34.6364 86.5473 34.6364 86.2457V85.2614C34.5833 85.3144 34.4806 85.3641 34.3281 85.4105C34.179 85.4536 34.0083 85.4917 33.8161 85.5249C33.6238 85.5547 33.4366 85.5829 33.2543 85.6094C33.072 85.6326 32.9195 85.6525 32.7969 85.669C32.5085 85.7055 32.245 85.7668 32.0064 85.853C31.7711 85.9392 31.5821 86.0634 31.4396 86.2259C31.3004 86.3849 31.2308 86.5971 31.2308 86.8622C31.2308 87.2301 31.3667 87.5085 31.6385 87.6974C31.9103 87.883 32.2566 87.9759 32.6776 87.9759ZM38.1028 89V81.3636H39.5297V82.6065H39.6241C39.7832 82.1856 40.0434 81.8575 40.4047 81.6222C40.7659 81.3835 41.1984 81.2642 41.7022 81.2642C42.2127 81.2642 42.6402 81.3835 42.9849 81.6222C43.3329 81.8608 43.5898 82.1889 43.7555 82.6065H43.835C44.0173 82.1989 44.3074 81.8741 44.7051 81.6321C45.1028 81.3868 45.5768 81.2642 46.127 81.2642C46.8197 81.2642 47.3848 81.4813 47.8223 81.9155C48.2631 82.3497 48.4835 83.0043 48.4835 83.8793V89H46.997V84.0185C46.997 83.5014 46.8561 83.1269 46.5744 82.8949C46.2927 82.6629 45.9563 82.5469 45.5652 82.5469C45.0813 82.5469 44.7051 82.696 44.4366 82.9943C44.1681 83.2893 44.0339 83.6688 44.0339 84.1328V89H42.5524V83.924C42.5524 83.5097 42.4231 83.1766 42.1646 82.9247C41.9061 82.6728 41.5697 82.5469 41.1554 82.5469C40.8736 82.5469 40.6135 82.6214 40.3748 82.7706C40.1395 82.9164 39.9489 83.1203 39.8031 83.3821C39.6606 83.6439 39.5893 83.9472 39.5893 84.2919V89H38.1028ZM50.4759 91.8636V81.3636H51.9276V82.6016H52.0518C52.138 82.4425 52.2623 82.2585 52.4247 82.0497C52.5871 81.8409 52.8125 81.6586 53.1009 81.5028C53.3892 81.3438 53.7704 81.2642 54.2443 81.2642C54.8608 81.2642 55.411 81.42 55.8949 81.7315C56.3788 82.0431 56.7583 82.4922 57.0334 83.0788C57.3118 83.6655 57.451 84.3714 57.451 85.1967C57.451 86.022 57.3134 86.7296 57.0384 87.3196C56.7633 87.9062 56.3854 88.3587 55.9048 88.6768C55.4242 88.9917 54.8757 89.1491 54.2592 89.1491C53.7952 89.1491 53.4157 89.0713 53.1207 88.9155C52.8291 88.7597 52.6004 88.5774 52.4347 88.3686C52.2689 88.1598 52.1413 87.9742 52.0518 87.8118H51.9624V91.8636H50.4759ZM51.9325 85.1818C51.9325 85.7187 52.0104 86.1894 52.1662 86.5938C52.322 86.9981 52.5473 87.3146 52.8423 87.5433C53.1373 87.7687 53.4986 87.8814 53.9261 87.8814C54.3703 87.8814 54.7415 87.7637 55.0398 87.5284C55.3381 87.2898 55.5634 86.9666 55.7159 86.5589C55.8717 86.1513 55.9496 85.6922 55.9496 85.1818C55.9496 84.678 55.8733 84.2256 55.7209 83.8246C55.5717 83.4235 55.3464 83.107 55.0447 82.875C54.7464 82.643 54.3736 82.527 53.9261 82.527C53.4953 82.527 53.1307 82.638 52.8324 82.8601C52.5374 83.0821 52.3137 83.392 52.1612 83.7898C52.0088 84.1875 51.9325 84.6515 51.9325 85.1818ZM60.603 78.8182V89H59.1165V78.8182H60.603ZM65.894 89.1541C65.1416 89.1541 64.4937 88.9934 63.9501 88.6719C63.4099 88.3471 62.9922 87.8913 62.6973 87.3047C62.4056 86.7147 62.2598 86.0237 62.2598 85.2315C62.2598 84.4493 62.4056 83.7599 62.6973 83.1634C62.9922 82.5668 63.4032 82.1011 63.9302 81.7663C64.4605 81.4316 65.0803 81.2642 65.7896 81.2642C66.2205 81.2642 66.6381 81.3355 67.0424 81.478C67.4468 81.6205 67.8097 81.8442 68.1312 82.1491C68.4527 82.4541 68.7063 82.8501 68.8919 83.3374C69.0775 83.8213 69.1703 84.4096 69.1703 85.1023V85.6293H63.1V84.5156H67.7136C67.7136 84.1245 67.6341 83.7782 67.475 83.4766C67.3159 83.1716 67.0922 82.9313 66.8038 82.7557C66.5188 82.58 66.184 82.4922 65.7995 82.4922C65.3819 82.4922 65.0173 82.5949 64.7058 82.8004C64.3975 83.0026 64.1589 83.2678 63.9899 83.5959C63.8242 83.9207 63.7413 84.2737 63.7413 84.6548V85.5249C63.7413 86.0353 63.8308 86.4695 64.0098 86.8274C64.1921 87.1854 64.4456 87.4588 64.7704 87.6477C65.0952 87.8333 65.4747 87.9261 65.9089 87.9261C66.1906 87.9261 66.4475 87.8864 66.6795 87.8068C66.9115 87.724 67.112 87.6013 67.2811 87.4389C67.4501 87.2765 67.5794 87.076 67.6689 86.8374L69.0758 87.0909C68.9631 87.5052 68.7609 87.8681 68.4693 88.1797C68.1809 88.4879 67.818 88.7282 67.3805 88.9006C66.9463 89.0696 66.4508 89.1541 65.894 89.1541ZM71.799 89.0945C71.5272 89.0945 71.2936 88.9983 71.098 88.8061C70.9025 88.6106 70.8047 88.3752 70.8047 88.1001C70.8047 87.8284 70.9025 87.5964 71.098 87.4041C71.2936 87.2086 71.5272 87.1108 71.799 87.1108C72.0708 87.1108 72.3045 87.2086 72.5 87.4041C72.6955 87.5964 72.7933 87.8284 72.7933 88.1001C72.7933 88.2824 72.7469 88.4498 72.6541 88.6023C72.5646 88.7514 72.4453 88.8707 72.2962 88.9602C72.147 89.0497 71.9813 89.0945 71.799 89.0945ZM71.799 83.5362C71.5272 83.5362 71.2936 83.4384 71.098 83.2429C70.9025 83.0473 70.8047 82.8137 70.8047 82.5419C70.8047 82.2701 70.9025 82.0381 71.098 81.8459C71.2936 81.6503 71.5272 81.5526 71.799 81.5526C72.0708 81.5526 72.3045 81.6503 72.5 81.8459C72.6955 82.0381 72.7933 82.2701 72.7933 82.5419C72.7933 82.7242 72.7469 82.8916 72.6541 83.044C72.5646 83.1932 72.4453 83.3125 72.2962 83.402C72.147 83.4915 71.9813 83.5362 71.799 83.5362Z" fill="#94A3B8"/>
<path d="M13 91.7841H73.7827V92.7386H13V91.7841Z" fill="#94A3B8"/>
</svg>
