<svg width="500" height="350" viewBox="0 0 500 350" fill="none" xmlns="http://www.w3.org/2000/svg">
<rect x="44" y="38" width="146" height="64" rx="8" fill="#94A3B8"/>
<path d="M73.6796 79.2727V67.2727H75.3387V68.6875H75.4807C75.5792 68.5057 75.7213 68.2955 75.9069 68.0568C76.0925 67.8182 76.3501 67.6098 76.6796 67.4318C77.0092 67.25 77.4448 67.1591 77.9864 67.1591C78.691 67.1591 79.3198 67.3371 79.8728 67.6932C80.4258 68.0492 80.8595 68.5625 81.1739 69.233C81.4921 69.9034 81.6512 70.7102 81.6512 71.6534C81.6512 72.5966 81.494 73.4053 81.1796 74.0795C80.8652 74.75 80.4334 75.267 79.8842 75.6307C79.3349 75.9905 78.708 76.1705 78.0035 76.1705C77.4732 76.1705 77.0395 76.0814 76.7023 75.9034C76.369 75.7254 76.1076 75.517 75.9182 75.2784C75.7289 75.0398 75.583 74.8277 75.4807 74.642H75.3785V79.2727H73.6796ZM75.3444 71.6364C75.3444 72.25 75.4334 72.7879 75.6114 73.25C75.7895 73.7121 76.047 74.0739 76.3842 74.3352C76.7213 74.5928 77.1342 74.7216 77.6228 74.7216C78.1304 74.7216 78.5546 74.5871 78.8955 74.3182C79.2364 74.0455 79.494 73.6761 79.6682 73.2102C79.8463 72.7443 79.9353 72.2197 79.9353 71.6364C79.9353 71.0606 79.8482 70.5436 79.6739 70.0852C79.5035 69.6269 79.2459 69.2652 78.9012 69C78.5603 68.7348 78.1342 68.6023 77.6228 68.6023C77.1304 68.6023 76.7137 68.7292 76.3728 68.983C76.0357 69.2367 75.78 69.5909 75.6057 70.0455C75.4315 70.5 75.3444 71.0303 75.3444 71.6364ZM83.2026 76V67.2727H84.8447V68.6591H84.9356C85.0947 68.1894 85.375 67.8201 85.7765 67.5511C86.1818 67.2784 86.6401 67.142 87.1515 67.142C87.2575 67.142 87.3825 67.1458 87.5265 67.1534C87.6742 67.161 87.7897 67.1705 87.8731 67.1818V68.8068C87.8049 68.7879 87.6837 68.767 87.5094 68.7443C87.3352 68.7178 87.1609 68.7045 86.9867 68.7045C86.5852 68.7045 86.2272 68.7898 85.9128 68.9602C85.6022 69.1269 85.356 69.3598 85.1742 69.6591C84.9924 69.9545 84.9015 70.2917 84.9015 70.6705V76H83.2026ZM92.3549 76.1761C91.5367 76.1761 90.8227 75.9886 90.2128 75.6136C89.603 75.2386 89.1295 74.714 88.7924 74.0398C88.4552 73.3655 88.2867 72.5777 88.2867 71.6761C88.2867 70.7708 88.4552 69.9792 88.7924 69.3011C89.1295 68.6231 89.603 68.0966 90.2128 67.7216C90.8227 67.3466 91.5367 67.1591 92.3549 67.1591C93.1731 67.1591 93.8871 67.3466 94.4969 67.7216C95.1068 68.0966 95.5802 68.6231 95.9174 69.3011C96.2545 69.9792 96.4231 70.7708 96.4231 71.6761C96.4231 72.5777 96.2545 73.3655 95.9174 74.0398C95.5802 74.714 95.1068 75.2386 94.4969 75.6136C93.8871 75.9886 93.1731 76.1761 92.3549 76.1761ZM92.3606 74.75C92.8909 74.75 93.3302 74.6098 93.6787 74.3295C94.0272 74.0492 94.2848 73.6761 94.4515 73.2102C94.6219 72.7443 94.7071 72.2311 94.7071 71.6705C94.7071 71.1136 94.6219 70.6023 94.4515 70.1364C94.2848 69.6667 94.0272 69.2898 93.6787 69.0057C93.3302 68.7216 92.8909 68.5795 92.3606 68.5795C91.8265 68.5795 91.3833 68.7216 91.031 69.0057C90.6825 69.2898 90.4231 69.6667 90.2526 70.1364C90.0859 70.6023 90.0026 71.1136 90.0026 71.6705C90.0026 72.2311 90.0859 72.7443 90.2526 73.2102C90.4231 73.6761 90.6825 74.0492 91.031 74.3295C91.3833 74.6098 91.8265 74.75 92.3606 74.75ZM101.234 76.1705C100.53 76.1705 99.9011 75.9905 99.348 75.6307C98.7988 75.267 98.367 74.75 98.0526 74.0795C97.742 73.4053 97.5867 72.5966 97.5867 71.6534C97.5867 70.7102 97.7439 69.9034 98.0583 69.233C98.3765 68.5625 98.8121 68.0492 99.3651 67.6932C99.9181 67.3371 100.545 67.1591 101.246 67.1591C101.787 67.1591 102.223 67.25 102.553 67.4318C102.886 67.6098 103.143 67.8182 103.325 68.0568C103.511 68.2955 103.655 68.5057 103.757 68.6875H103.859V64.3636H105.558V76H103.899V74.642H103.757C103.655 74.8277 103.507 75.0398 103.314 75.2784C103.125 75.517 102.863 75.7254 102.53 75.9034C102.197 76.0814 101.765 76.1705 101.234 76.1705ZM101.609 74.7216C102.098 74.7216 102.511 74.5928 102.848 74.3352C103.189 74.0739 103.447 73.7121 103.621 73.25C103.799 72.7879 103.888 72.25 103.888 71.6364C103.888 71.0303 103.801 70.5 103.626 70.0455C103.452 69.5909 103.197 69.2367 102.859 68.983C102.522 68.7292 102.106 68.6023 101.609 68.6023C101.098 68.6023 100.672 68.7348 100.331 69C99.9901 69.2652 99.7325 69.6269 99.5583 70.0852C99.3878 70.5436 99.3026 71.0606 99.3026 71.6364C99.3026 72.2197 99.3897 72.7443 99.564 73.2102C99.7382 73.6761 99.9958 74.0455 100.337 74.3182C100.681 74.5871 101.106 74.7216 101.609 74.7216ZM113.159 72.3807V67.2727H114.864V76H113.193V74.4886H113.103C112.902 74.9545 112.58 75.3428 112.137 75.6534C111.697 75.9602 111.15 76.1136 110.495 76.1136C109.934 76.1136 109.438 75.9905 109.006 75.7443C108.578 75.4943 108.241 75.125 107.995 74.6364C107.752 74.1477 107.631 73.5436 107.631 72.8239V67.2727H109.33V72.6193C109.33 73.214 109.495 73.6875 109.824 74.0398C110.154 74.392 110.582 74.5682 111.108 74.5682C111.426 74.5682 111.743 74.4886 112.057 74.3295C112.375 74.1705 112.639 73.9299 112.847 73.608C113.059 73.286 113.163 72.8769 113.159 72.3807ZM120.471 76.1761C119.626 76.1761 118.899 75.9848 118.289 75.6023C117.683 75.2159 117.217 74.6837 116.891 74.0057C116.565 73.3277 116.403 72.5511 116.403 71.6761C116.403 70.7898 116.569 70.0076 116.903 69.3295C117.236 68.6477 117.706 68.1155 118.312 67.733C118.918 67.3504 119.632 67.1591 120.454 67.1591C121.117 67.1591 121.707 67.2822 122.226 67.5284C122.745 67.7708 123.164 68.1117 123.482 68.5511C123.804 68.9905 123.995 69.5038 124.056 70.0909H122.403C122.312 69.6818 122.103 69.3295 121.778 69.0341C121.456 68.7386 121.024 68.5909 120.482 68.5909C120.009 68.5909 119.594 68.7159 119.238 68.9659C118.886 69.2121 118.611 69.5644 118.414 70.0227C118.217 70.4773 118.118 71.0152 118.118 71.6364C118.118 72.2727 118.215 72.822 118.408 73.2841C118.601 73.7462 118.874 74.1042 119.226 74.358C119.582 74.6117 120.001 74.7386 120.482 74.7386C120.804 74.7386 121.096 74.6799 121.357 74.5625C121.622 74.4413 121.844 74.2689 122.022 74.0455C122.204 73.822 122.331 73.553 122.403 73.2386H124.056C123.995 73.803 123.812 74.3068 123.505 74.75C123.198 75.1932 122.787 75.5417 122.272 75.7955C121.761 76.0492 121.16 76.1761 120.471 76.1761ZM129.595 67.2727V68.6364H124.828V67.2727H129.595ZM126.106 65.1818H127.805V73.4375C127.805 73.767 127.854 74.0152 127.953 74.1818C128.051 74.3447 128.178 74.4564 128.333 74.517C128.492 74.5739 128.665 74.6023 128.85 74.6023C128.987 74.6023 129.106 74.5928 129.208 74.5739C129.311 74.5549 129.39 74.5398 129.447 74.5284L129.754 75.9318C129.655 75.9697 129.515 76.0076 129.333 76.0455C129.151 76.0871 128.924 76.1098 128.651 76.1136C128.204 76.1212 127.788 76.0417 127.401 75.875C127.015 75.7083 126.703 75.4508 126.464 75.1023C126.225 74.7538 126.106 74.3163 126.106 73.7898V65.1818ZM137.521 69.4034L135.981 69.6761C135.917 69.4792 135.815 69.2917 135.674 69.1136C135.538 68.9356 135.352 68.7898 135.118 68.6761C134.883 68.5625 134.589 68.5057 134.237 68.5057C133.756 68.5057 133.354 68.6136 133.032 68.8295C132.71 69.0417 132.549 69.3163 132.549 69.6534C132.549 69.9451 132.657 70.1799 132.873 70.358C133.089 70.536 133.438 70.6818 133.919 70.7955L135.305 71.1136C136.108 71.2992 136.707 71.5852 137.101 71.9716C137.494 72.358 137.691 72.8598 137.691 73.4773C137.691 74 137.54 74.4659 137.237 74.875C136.938 75.2803 136.519 75.5985 135.981 75.8295C135.447 76.0606 134.828 76.1761 134.123 76.1761C133.146 76.1761 132.349 75.9678 131.731 75.5511C131.114 75.1307 130.735 74.5341 130.595 73.7614L132.237 73.5114C132.339 73.9394 132.549 74.2633 132.868 74.483C133.186 74.6989 133.601 74.8068 134.112 74.8068C134.669 74.8068 135.114 74.6913 135.447 74.4602C135.78 74.2254 135.947 73.9394 135.947 73.6023C135.947 73.3295 135.845 73.1004 135.64 72.9148C135.44 72.7292 135.131 72.589 134.714 72.4943L133.237 72.1705C132.423 71.9848 131.82 71.6894 131.43 71.2841C131.044 70.8788 130.851 70.3655 130.851 69.7443C130.851 69.2292 130.994 68.7784 131.282 68.392C131.57 68.0057 131.968 67.7045 132.476 67.4886C132.983 67.2689 133.565 67.1591 134.22 67.1591C135.163 67.1591 135.905 67.3636 136.447 67.7727C136.989 68.178 137.347 68.7216 137.521 69.4034ZM144.349 70.3466V71.8182H139.19V70.3466H144.349ZM149.938 76.1761C149.093 76.1761 148.366 75.9848 147.756 75.6023C147.15 75.2159 146.684 74.6837 146.358 74.0057C146.032 73.3277 145.87 72.5511 145.87 71.6761C145.87 70.7898 146.036 70.0076 146.37 69.3295C146.703 68.6477 147.173 68.1155 147.779 67.733C148.385 67.3504 149.099 67.1591 149.921 67.1591C150.584 67.1591 151.174 67.2822 151.693 67.5284C152.212 67.7708 152.631 68.1117 152.949 68.5511C153.271 68.9905 153.462 69.5038 153.523 70.0909H151.87C151.779 69.6818 151.57 69.3295 151.245 69.0341C150.923 68.7386 150.491 68.5909 149.949 68.5909C149.476 68.5909 149.061 68.7159 148.705 68.9659C148.353 69.2121 148.078 69.5644 147.881 70.0227C147.684 70.4773 147.585 71.0152 147.585 71.6364C147.585 72.2727 147.682 72.822 147.875 73.2841C148.068 73.7462 148.341 74.1042 148.693 74.358C149.049 74.6117 149.468 74.7386 149.949 74.7386C150.271 74.7386 150.563 74.6799 150.824 74.5625C151.089 74.4413 151.311 74.2689 151.489 74.0455C151.671 73.822 151.798 73.553 151.87 73.2386H153.523C153.462 73.803 153.279 74.3068 152.972 74.75C152.665 75.1932 152.254 75.5417 151.739 75.7955C151.228 76.0492 150.627 76.1761 149.938 76.1761ZM156.687 64.3636V76H154.988V64.3636H156.687ZM158.62 76V67.2727H160.319V76H158.62ZM159.478 65.9261C159.183 65.9261 158.929 65.8277 158.717 65.6307C158.508 65.4299 158.404 65.1913 158.404 64.9148C158.404 64.6345 158.508 64.3958 158.717 64.1989C158.929 63.9981 159.183 63.8977 159.478 63.8977C159.774 63.8977 160.025 63.9981 160.234 64.1989C160.446 64.3958 160.552 64.6345 160.552 64.9148C160.552 65.1913 160.446 65.4299 160.234 65.6307C160.025 65.8277 159.774 65.9261 159.478 65.9261Z" fill="white"/>
<rect x="309" y="38" width="146" height="64" rx="8" fill="#94A3B8"/>
<path d="M346.675 79.2727V67.2727H348.334V68.6875H348.476C348.575 68.5057 348.717 68.2955 348.902 68.0568C349.088 67.8182 349.346 67.6098 349.675 67.4318C350.005 67.25 350.44 67.1591 350.982 67.1591C351.686 67.1591 352.315 67.3371 352.868 67.6932C353.421 68.0492 353.855 68.5625 354.169 69.233C354.488 69.9034 354.647 70.7102 354.647 71.6534C354.647 72.5966 354.489 73.4053 354.175 74.0795C353.861 74.75 353.429 75.267 352.88 75.6307C352.33 75.9905 351.703 76.1705 350.999 76.1705C350.469 76.1705 350.035 76.0814 349.698 75.9034C349.364 75.7254 349.103 75.517 348.914 75.2784C348.724 75.0398 348.578 74.8277 348.476 74.642H348.374V79.2727H346.675ZM348.34 71.6364C348.34 72.25 348.429 72.7879 348.607 73.25C348.785 73.7121 349.042 74.0739 349.38 74.3352C349.717 74.5928 350.13 74.7216 350.618 74.7216C351.126 74.7216 351.55 74.5871 351.891 74.3182C352.232 74.0455 352.489 73.6761 352.664 73.2102C352.842 72.7443 352.931 72.2197 352.931 71.6364C352.931 71.0606 352.844 70.5436 352.669 70.0852C352.499 69.6269 352.241 69.2652 351.897 69C351.556 68.7348 351.13 68.6023 350.618 68.6023C350.126 68.6023 349.709 68.7292 349.368 68.983C349.031 69.2367 348.775 69.5909 348.601 70.0455C348.427 70.5 348.34 71.0303 348.34 71.6364ZM356.198 76V67.2727H357.84V68.6591H357.931C358.09 68.1894 358.37 67.8201 358.772 67.5511C359.177 67.2784 359.636 67.142 360.147 67.142C360.253 67.142 360.378 67.1458 360.522 67.1534C360.67 67.161 360.785 67.1705 360.868 67.1818V68.8068C360.8 68.7879 360.679 68.767 360.505 68.7443C360.331 68.7178 360.156 68.7045 359.982 68.7045C359.581 68.7045 359.223 68.7898 358.908 68.9602C358.598 69.1269 358.351 69.3598 358.17 69.6591C357.988 69.9545 357.897 70.2917 357.897 70.6705V76H356.198ZM365.35 76.1761C364.532 76.1761 363.818 75.9886 363.208 75.6136C362.598 75.2386 362.125 74.714 361.788 74.0398C361.451 73.3655 361.282 72.5777 361.282 71.6761C361.282 70.7708 361.451 69.9792 361.788 69.3011C362.125 68.6231 362.598 68.0966 363.208 67.7216C363.818 67.3466 364.532 67.1591 365.35 67.1591C366.168 67.1591 366.883 67.3466 367.492 67.7216C368.102 68.0966 368.576 68.6231 368.913 69.3011C369.25 69.9792 369.418 70.7708 369.418 71.6761C369.418 72.5777 369.25 73.3655 368.913 74.0398C368.576 74.714 368.102 75.2386 367.492 75.6136C366.883 75.9886 366.168 76.1761 365.35 76.1761ZM365.356 74.75C365.886 74.75 366.326 74.6098 366.674 74.3295C367.023 74.0492 367.28 73.6761 367.447 73.2102C367.617 72.7443 367.703 72.2311 367.703 71.6705C367.703 71.1136 367.617 70.6023 367.447 70.1364C367.28 69.6667 367.023 69.2898 366.674 69.0057C366.326 68.7216 365.886 68.5795 365.356 68.5795C364.822 68.5795 364.379 68.7216 364.026 69.0057C363.678 69.2898 363.418 69.6667 363.248 70.1364C363.081 70.6023 362.998 71.1136 362.998 71.6705C362.998 72.2311 363.081 72.7443 363.248 73.2102C363.418 73.6761 363.678 74.0492 364.026 74.3295C364.379 74.6098 364.822 74.75 365.356 74.75ZM374.23 76.1705C373.525 76.1705 372.897 75.9905 372.343 75.6307C371.794 75.267 371.362 74.75 371.048 74.0795C370.737 73.4053 370.582 72.5966 370.582 71.6534C370.582 70.7102 370.739 69.9034 371.054 69.233C371.372 68.5625 371.807 68.0492 372.361 67.6932C372.914 67.3371 373.54 67.1591 374.241 67.1591C374.783 67.1591 375.218 67.25 375.548 67.4318C375.881 67.6098 376.139 67.8182 376.321 68.0568C376.506 68.2955 376.65 68.5057 376.753 68.6875H376.855V64.3636H378.554V76H376.895V74.642H376.753C376.65 74.8277 376.503 75.0398 376.309 75.2784C376.12 75.517 375.859 75.7254 375.525 75.9034C375.192 76.0814 374.76 76.1705 374.23 76.1705ZM374.605 74.7216C375.093 74.7216 375.506 74.5928 375.843 74.3352C376.184 74.0739 376.442 73.7121 376.616 73.25C376.794 72.7879 376.883 72.25 376.883 71.6364C376.883 71.0303 376.796 70.5 376.622 70.0455C376.448 69.5909 376.192 69.2367 375.855 68.983C375.518 68.7292 375.101 68.6023 374.605 68.6023C374.093 68.6023 373.667 68.7348 373.326 69C372.986 69.2652 372.728 69.6269 372.554 70.0852C372.383 70.5436 372.298 71.0606 372.298 71.6364C372.298 72.2197 372.385 72.7443 372.559 73.2102C372.734 73.6761 372.991 74.0455 373.332 74.3182C373.677 74.5871 374.101 74.7216 374.605 74.7216ZM386.155 72.3807V67.2727H387.859V76H386.189V74.4886H386.098C385.897 74.9545 385.575 75.3428 385.132 75.6534C384.693 75.9602 384.145 76.1136 383.49 76.1136C382.929 76.1136 382.433 75.9905 382.001 75.7443C381.573 75.4943 381.236 75.125 380.99 74.6364C380.748 74.1477 380.626 73.5436 380.626 72.8239V67.2727H382.325V72.6193C382.325 73.214 382.49 73.6875 382.82 74.0398C383.149 74.392 383.577 74.5682 384.104 74.5682C384.422 74.5682 384.738 74.4886 385.053 74.3295C385.371 74.1705 385.634 73.9299 385.842 73.608C386.054 73.286 386.159 72.8769 386.155 72.3807ZM393.466 76.1761C392.621 76.1761 391.894 75.9848 391.284 75.6023C390.678 75.2159 390.212 74.6837 389.887 74.0057C389.561 73.3277 389.398 72.5511 389.398 71.6761C389.398 70.7898 389.565 70.0076 389.898 69.3295C390.231 68.6477 390.701 68.1155 391.307 67.733C391.913 67.3504 392.627 67.1591 393.449 67.1591C394.112 67.1591 394.703 67.2822 395.222 67.5284C395.741 67.7708 396.159 68.1117 396.478 68.5511C396.8 68.9905 396.991 69.5038 397.051 70.0909H395.398C395.307 69.6818 395.099 69.3295 394.773 69.0341C394.451 68.7386 394.019 68.5909 393.478 68.5909C393.004 68.5909 392.589 68.7159 392.233 68.9659C391.881 69.2121 391.606 69.5644 391.409 70.0227C391.212 70.4773 391.114 71.0152 391.114 71.6364C391.114 72.2727 391.211 72.822 391.404 73.2841C391.597 73.7462 391.87 74.1042 392.222 74.358C392.578 74.6117 392.996 74.7386 393.478 74.7386C393.8 74.7386 394.091 74.6799 394.353 74.5625C394.618 74.4413 394.839 74.2689 395.017 74.0455C395.199 73.822 395.326 73.553 395.398 73.2386H397.051C396.991 73.803 396.807 74.3068 396.5 74.75C396.193 75.1932 395.782 75.5417 395.267 75.7955C394.756 76.0492 394.156 76.1761 393.466 76.1761ZM402.59 67.2727V68.6364H397.823V67.2727H402.59ZM399.101 65.1818H400.8V73.4375C400.8 73.767 400.85 74.0152 400.948 74.1818C401.046 74.3447 401.173 74.4564 401.329 74.517C401.488 74.5739 401.66 74.6023 401.846 74.6023C401.982 74.6023 402.101 74.5928 402.204 74.5739C402.306 74.5549 402.385 74.5398 402.442 74.5284L402.749 75.9318C402.651 75.9697 402.51 76.0076 402.329 76.0455C402.147 76.0871 401.92 76.1098 401.647 76.1136C401.2 76.1212 400.783 76.0417 400.397 75.875C400.01 75.7083 399.698 75.4508 399.459 75.1023C399.221 74.7538 399.101 74.3163 399.101 73.7898V65.1818ZM410.516 69.4034L408.977 69.6761C408.912 69.4792 408.81 69.2917 408.67 69.1136C408.533 68.9356 408.348 68.7898 408.113 68.6761C407.878 68.5625 407.585 68.5057 407.232 68.5057C406.751 68.5057 406.35 68.6136 406.028 68.8295C405.706 69.0417 405.545 69.3163 405.545 69.6534C405.545 69.9451 405.653 70.1799 405.869 70.358C406.085 70.536 406.433 70.6818 406.914 70.7955L408.301 71.1136C409.104 71.2992 409.702 71.5852 410.096 71.9716C410.49 72.358 410.687 72.8598 410.687 73.4773C410.687 74 410.535 74.4659 410.232 74.875C409.933 75.2803 409.515 75.5985 408.977 75.8295C408.443 76.0606 407.823 76.1761 407.119 76.1761C406.141 76.1761 405.344 75.9678 404.727 75.5511C404.109 75.1307 403.73 74.5341 403.59 73.7614L405.232 73.5114C405.335 73.9394 405.545 74.2633 405.863 74.483C406.181 74.6989 406.596 74.8068 407.107 74.8068C407.664 74.8068 408.109 74.6913 408.443 74.4602C408.776 74.2254 408.943 73.9394 408.943 73.6023C408.943 73.3295 408.84 73.1004 408.636 72.9148C408.435 72.7292 408.126 72.589 407.71 72.4943L406.232 72.1705C405.418 71.9848 404.816 71.6894 404.426 71.2841C404.039 70.8788 403.846 70.3655 403.846 69.7443C403.846 69.2292 403.99 68.7784 404.278 68.392C404.566 68.0057 404.963 67.7045 405.471 67.4886C405.979 67.2689 406.56 67.1591 407.215 67.1591C408.158 67.1591 408.901 67.3636 409.443 67.7727C409.984 68.178 410.342 68.7216 410.516 69.4034ZM417.345 70.3466V71.8182H412.186V70.3466H417.345ZM420.745 76.108C420.435 76.108 420.168 75.9981 419.944 75.7784C419.721 75.5549 419.609 75.286 419.609 74.9716C419.609 74.661 419.721 74.3958 419.944 74.1761C420.168 73.9527 420.435 73.8409 420.745 73.8409C421.056 73.8409 421.323 73.9527 421.547 74.1761C421.77 74.3958 421.882 74.661 421.882 74.9716C421.882 75.1799 421.829 75.3712 421.723 75.5455C421.62 75.7159 421.484 75.8523 421.314 75.9545C421.143 76.0568 420.954 76.108 420.745 76.108ZM424.99 76.108C424.679 76.108 424.412 75.9981 424.189 75.7784C423.965 75.5549 423.853 75.286 423.853 74.9716C423.853 74.661 423.965 74.3958 424.189 74.1761C424.412 73.9527 424.679 73.8409 424.99 73.8409C425.3 73.8409 425.567 73.9527 425.791 74.1761C426.014 74.3958 426.126 74.661 426.126 74.9716C426.126 75.1799 426.073 75.3712 425.967 75.5455C425.865 75.7159 425.728 75.8523 425.558 75.9545C425.387 76.0568 425.198 76.108 424.99 76.108ZM429.24 76.108C428.929 76.108 428.662 75.9981 428.439 75.7784C428.215 75.5549 428.103 75.286 428.103 74.9716C428.103 74.661 428.215 74.3958 428.439 74.1761C428.662 73.9527 428.929 73.8409 429.24 73.8409C429.55 73.8409 429.817 73.9527 430.041 74.1761C430.264 74.3958 430.376 74.661 430.376 74.9716C430.376 75.1799 430.323 75.3712 430.217 75.5455C430.115 75.7159 429.978 75.8523 429.808 75.9545C429.637 76.0568 429.448 76.108 429.24 76.108Z" fill="white"/>
<rect x="157" y="243" width="160" height="70" rx="8" stroke="#94A3B8" stroke-width="2" stroke-miterlimit="0" stroke-linecap="round"/>
<path d="M199.671 284.176C198.827 284.176 198.1 283.985 197.49 283.602C196.884 283.216 196.418 282.684 196.092 282.006C195.766 281.328 195.603 280.551 195.603 279.676C195.603 278.79 195.77 278.008 196.103 277.33C196.437 276.648 196.906 276.116 197.512 275.733C198.118 275.35 198.832 275.159 199.654 275.159C200.317 275.159 200.908 275.282 201.427 275.528C201.946 275.771 202.365 276.112 202.683 276.551C203.005 276.991 203.196 277.504 203.257 278.091H201.603C201.512 277.682 201.304 277.33 200.978 277.034C200.656 276.739 200.225 276.591 199.683 276.591C199.209 276.591 198.795 276.716 198.439 276.966C198.086 277.212 197.812 277.564 197.615 278.023C197.418 278.477 197.319 279.015 197.319 279.636C197.319 280.273 197.416 280.822 197.609 281.284C197.802 281.746 198.075 282.104 198.427 282.358C198.783 282.612 199.202 282.739 199.683 282.739C200.005 282.739 200.296 282.68 200.558 282.562C200.823 282.441 201.045 282.269 201.223 282.045C201.404 281.822 201.531 281.553 201.603 281.239H203.257C203.196 281.803 203.012 282.307 202.706 282.75C202.399 283.193 201.988 283.542 201.473 283.795C200.961 284.049 200.361 284.176 199.671 284.176ZM208.398 284.176C207.579 284.176 206.865 283.989 206.256 283.614C205.646 283.239 205.172 282.714 204.835 282.04C204.498 281.366 204.329 280.578 204.329 279.676C204.329 278.771 204.498 277.979 204.835 277.301C205.172 276.623 205.646 276.097 206.256 275.722C206.865 275.347 207.579 275.159 208.398 275.159C209.216 275.159 209.93 275.347 210.54 275.722C211.15 276.097 211.623 276.623 211.96 277.301C212.297 277.979 212.466 278.771 212.466 279.676C212.466 280.578 212.297 281.366 211.96 282.04C211.623 282.714 211.15 283.239 210.54 283.614C209.93 283.989 209.216 284.176 208.398 284.176ZM208.403 282.75C208.934 282.75 209.373 282.61 209.721 282.33C210.07 282.049 210.328 281.676 210.494 281.21C210.665 280.744 210.75 280.231 210.75 279.67C210.75 279.114 210.665 278.602 210.494 278.136C210.328 277.667 210.07 277.29 209.721 277.006C209.373 276.722 208.934 276.58 208.403 276.58C207.869 276.58 207.426 276.722 207.074 277.006C206.725 277.29 206.466 277.667 206.295 278.136C206.129 278.602 206.045 279.114 206.045 279.67C206.045 280.231 206.129 280.744 206.295 281.21C206.466 281.676 206.725 282.049 207.074 282.33C207.426 282.61 207.869 282.75 208.403 282.75ZM214.01 284V275.273H215.641V276.693H215.749C215.931 276.212 216.228 275.837 216.641 275.568C217.054 275.295 217.548 275.159 218.124 275.159C218.707 275.159 219.196 275.295 219.59 275.568C219.987 275.841 220.281 276.216 220.47 276.693H220.561C220.77 276.227 221.101 275.856 221.556 275.58C222.01 275.299 222.552 275.159 223.181 275.159C223.972 275.159 224.618 275.407 225.118 275.903C225.622 276.4 225.874 277.148 225.874 278.148V284H224.175V278.307C224.175 277.716 224.014 277.288 223.692 277.023C223.37 276.758 222.985 276.625 222.539 276.625C221.985 276.625 221.556 276.795 221.249 277.136C220.942 277.473 220.789 277.907 220.789 278.438V284H219.095V278.199C219.095 277.725 218.948 277.345 218.652 277.057C218.357 276.769 217.972 276.625 217.499 276.625C217.177 276.625 216.879 276.71 216.607 276.881C216.338 277.047 216.12 277.28 215.953 277.58C215.79 277.879 215.709 278.225 215.709 278.619V284H214.01ZM227.799 284V275.273H229.429V276.693H229.537C229.719 276.212 230.017 275.837 230.429 275.568C230.842 275.295 231.337 275.159 231.912 275.159C232.496 275.159 232.984 275.295 233.378 275.568C233.776 275.841 234.07 276.216 234.259 276.693H234.35C234.558 276.227 234.89 275.856 235.344 275.58C235.799 275.299 236.34 275.159 236.969 275.159C237.761 275.159 238.407 275.407 238.907 275.903C239.41 276.4 239.662 277.148 239.662 278.148V284H237.964V278.307C237.964 277.716 237.803 277.288 237.481 277.023C237.159 276.758 236.774 276.625 236.327 276.625C235.774 276.625 235.344 276.795 235.037 277.136C234.731 277.473 234.577 277.907 234.577 278.438V284H232.884V278.199C232.884 277.725 232.736 277.345 232.441 277.057C232.145 276.769 231.761 276.625 231.287 276.625C230.965 276.625 230.668 276.71 230.395 276.881C230.126 277.047 229.909 277.28 229.742 277.58C229.579 277.879 229.498 278.225 229.498 278.619V284H227.799ZM245.263 284.176C244.445 284.176 243.731 283.989 243.121 283.614C242.512 283.239 242.038 282.714 241.701 282.04C241.364 281.366 241.195 280.578 241.195 279.676C241.195 278.771 241.364 277.979 241.701 277.301C242.038 276.623 242.512 276.097 243.121 275.722C243.731 275.347 244.445 275.159 245.263 275.159C246.082 275.159 246.796 275.347 247.406 275.722C248.015 276.097 248.489 276.623 248.826 277.301C249.163 277.979 249.332 278.771 249.332 279.676C249.332 280.578 249.163 281.366 248.826 282.04C248.489 282.714 248.015 283.239 247.406 283.614C246.796 283.989 246.082 284.176 245.263 284.176ZM245.269 282.75C245.799 282.75 246.239 282.61 246.587 282.33C246.936 282.049 247.193 281.676 247.36 281.21C247.531 280.744 247.616 280.231 247.616 279.67C247.616 279.114 247.531 278.602 247.36 278.136C247.193 277.667 246.936 277.29 246.587 277.006C246.239 276.722 245.799 276.58 245.269 276.58C244.735 276.58 244.292 276.722 243.94 277.006C243.591 277.29 243.332 277.667 243.161 278.136C242.995 278.602 242.911 279.114 242.911 279.67C242.911 280.231 242.995 280.744 243.161 281.21C243.332 281.676 243.591 282.049 243.94 282.33C244.292 282.61 244.735 282.75 245.269 282.75ZM252.575 278.818V284H250.876V275.273H252.507V276.693H252.615C252.815 276.231 253.13 275.86 253.558 275.58C253.99 275.299 254.533 275.159 255.188 275.159C255.783 275.159 256.304 275.284 256.751 275.534C257.198 275.78 257.545 276.148 257.791 276.636C258.037 277.125 258.16 277.729 258.16 278.449V284H256.461V278.653C256.461 278.021 256.296 277.527 255.967 277.17C255.637 276.811 255.185 276.631 254.609 276.631C254.215 276.631 253.865 276.716 253.558 276.886C253.255 277.057 253.014 277.307 252.836 277.636C252.662 277.962 252.575 278.356 252.575 278.818ZM265.229 278.347V279.818H260.069V278.347H265.229ZM272.669 280.381V275.273H274.374V284H272.703V282.489H272.612C272.412 282.955 272.09 283.343 271.646 283.653C271.207 283.96 270.66 284.114 270.004 284.114C269.444 284.114 268.948 283.991 268.516 283.744C268.088 283.494 267.751 283.125 267.504 282.636C267.262 282.148 267.141 281.544 267.141 280.824V275.273H268.84V280.619C268.84 281.214 269.004 281.687 269.334 282.04C269.663 282.392 270.091 282.568 270.618 282.568C270.936 282.568 271.252 282.489 271.567 282.33C271.885 282.17 272.148 281.93 272.357 281.608C272.569 281.286 272.673 280.877 272.669 280.381ZM276.304 284V275.273H278.003V284H276.304ZM277.162 273.926C276.867 273.926 276.613 273.828 276.401 273.631C276.193 273.43 276.088 273.191 276.088 272.915C276.088 272.634 276.193 272.396 276.401 272.199C276.613 271.998 276.867 271.898 277.162 271.898C277.458 271.898 277.71 271.998 277.918 272.199C278.13 272.396 278.236 272.634 278.236 272.915C278.236 273.191 278.13 273.43 277.918 273.631C277.71 273.828 277.458 273.926 277.162 273.926Z" fill="#94A3B8"/>
<path d="M293.75 290C293.335 290 293 290.335 293 290.75V305.25C293 305.665 293.335 306 293.75 306H308.25C308.665 306 309 305.665 309 305.25V290.75C309 290.335 308.665 290 308.25 290H293.75ZM305.325 296.5C305.733 296.5 306.095 296.525 306.41 296.574C306.707 296.619 306.999 296.695 307.281 296.801V298.439C307.146 298.346 307.002 298.265 306.852 298.199C306.697 298.129 306.537 298.071 306.374 298.025C306.064 297.939 305.745 297.894 305.423 297.892C305.223 297.892 305.041 297.911 304.877 297.949C304.731 297.981 304.591 298.035 304.462 298.111C304.349 298.18 304.262 298.263 304.2 298.36C304.138 298.457 304.105 298.571 304.107 298.687C304.107 298.817 304.142 298.935 304.211 299.039C304.28 299.143 304.379 299.242 304.506 299.335C304.633 299.429 304.788 299.519 304.97 299.609C305.152 299.699 305.358 299.791 305.587 299.886C305.901 300.017 306.182 300.157 306.431 300.305C306.681 300.453 306.895 300.62 307.073 300.807C307.252 300.993 307.388 301.205 307.483 301.445C307.577 301.684 307.625 301.962 307.625 302.28C307.625 302.718 307.542 303.087 307.377 303.384C307.215 303.677 306.983 303.926 306.702 304.107C306.399 304.3 306.063 304.434 305.711 304.505C305.333 304.585 304.935 304.625 304.517 304.625C304.106 304.626 303.695 304.59 303.291 304.515C302.941 304.455 302.601 304.344 302.283 304.187V302.433C302.885 302.946 303.65 303.229 304.441 303.233C304.663 303.233 304.857 303.213 305.022 303.173C305.188 303.133 305.326 303.077 305.437 303.007C305.548 302.935 305.631 302.851 305.686 302.753C305.747 302.64 305.775 302.512 305.766 302.383C305.758 302.255 305.713 302.131 305.637 302.027C305.538 301.896 305.416 301.783 305.279 301.694C305.108 301.581 304.928 301.482 304.741 301.398C304.519 301.297 304.295 301.2 304.069 301.107C303.457 300.852 303.001 300.539 302.701 300.171C302.401 299.802 302.25 299.356 302.25 298.834C302.25 298.425 302.332 298.073 302.496 297.779C302.66 297.485 302.883 297.243 303.165 297.053C303.464 296.856 303.796 296.714 304.145 296.634C304.532 296.543 304.928 296.498 305.325 296.5V296.5ZM295.25 296.625H301.625V298.069H299.337V304.5H297.526V298.069H295.25V296.625Z" fill="#94A3B8"/>
<path d="M383.5 106C383.5 105.172 382.828 104.5 382 104.5C381.172 104.5 380.5 105.172 380.5 106H383.5ZM235.939 240.061C236.525 240.646 237.475 240.646 238.061 240.061L247.607 230.515C248.192 229.929 248.192 228.979 247.607 228.393C247.021 227.808 246.071 227.808 245.485 228.393L237 236.879L228.515 228.393C227.929 227.808 226.979 227.808 226.393 228.393C225.808 228.979 225.808 229.929 226.393 230.515L235.939 240.061ZM380.5 106V148.5H383.5V106H380.5ZM358 171H261V174H358V171ZM235.5 196.5V239H238.5V196.5H235.5ZM261 171C246.917 171 235.5 182.417 235.5 196.5H238.5C238.5 184.074 248.574 174 261 174V171ZM380.5 148.5C380.5 160.926 370.426 171 358 171V174C372.083 174 383.5 162.583 383.5 148.5H380.5Z" fill="#94A3B8"/>
<path d="M118.5 106C118.5 105.172 117.828 104.5 117 104.5C116.172 104.5 115.5 105.172 115.5 106H118.5ZM235.939 240.061C236.525 240.646 237.475 240.646 238.061 240.061L247.607 230.515C248.192 229.929 248.192 228.979 247.607 228.393C247.021 227.808 246.071 227.808 245.485 228.393L237 236.879L228.515 228.393C227.929 227.808 226.979 227.808 226.393 228.393C225.808 228.979 225.808 229.929 226.393 230.515L235.939 240.061ZM115.5 106V168.001H118.5V106H115.5ZM141 193.501H213V190.501H141V193.501ZM235.5 216.001V239H238.5V216.001H235.5ZM213 193.501C225.426 193.501 235.5 203.574 235.5 216.001H238.5C238.5 201.917 227.083 190.501 213 190.501V193.501ZM115.5 168.001C115.5 182.084 126.917 193.501 141 193.501V190.501C128.574 190.501 118.5 180.427 118.5 168.001H115.5Z" fill="#94A3B8"/>
<path d="M449 94.0343C448.767 94.1223 448.51 94.1221 448.277 94.0337C448.045 93.9453 447.852 93.7747 447.737 93.5543L445.437 90.3736L445.103 89.9289L442.435 93.5583C442.326 93.7695 442.144 93.9339 441.923 94.0208C441.702 94.1077 441.457 94.111 441.233 94.0303L444.672 89.4169L441.473 85.2496C441.703 85.1667 441.955 85.1656 442.186 85.2465C442.416 85.3274 442.612 85.4853 442.74 85.6936L445.124 88.9136L447.521 85.7069C447.631 85.4995 447.813 85.3395 448.033 85.2574C448.252 85.1752 448.495 85.1768 448.713 85.2616L447.472 86.9089L445.791 89.0976C445.744 89.1393 445.707 89.1903 445.681 89.2474C445.655 89.3045 445.642 89.3664 445.642 89.4289C445.642 89.4915 445.655 89.5534 445.681 89.6105C445.707 89.6676 445.744 89.7186 445.791 89.7603L448.993 94.0349L449 94.0343ZM433.001 89.3596L433.281 87.9763C434.051 85.2409 437.187 84.1029 439.344 85.7963C440.607 86.7889 440.923 88.1943 440.861 89.7783H433.744C433.629 92.6069 435.67 94.3149 438.28 93.4423C438.703 93.29 439.082 93.0351 439.382 92.7005C439.683 92.3659 439.895 91.9619 440.001 91.5249C440.139 91.0809 440.367 91.0049 440.784 91.1329C440.714 91.6745 440.523 92.1933 440.224 92.6502C439.925 93.1071 439.526 93.4903 439.058 93.7709C438.284 94.1941 437.397 94.3619 436.522 94.2502C435.647 94.1385 434.83 93.753 434.187 93.1489C433.552 92.4339 433.168 91.5306 433.094 90.5769C433.094 90.4203 433.041 90.2736 433.005 90.1329C433.001 89.8754 433 89.6178 433 89.3603L433.001 89.3596ZM433.753 89.1689H440.189C440.149 87.1183 438.855 85.6636 437.129 85.6503C435.207 85.6236 433.833 87.0463 433.748 89.1596L433.753 89.1689Z" fill="white"/>
<path d="M176.999 97.0428C176.758 97.0428 176.517 96.9796 176.306 96.8571L174.099 95.5512C173.769 95.3671 173.93 95.3016 174.038 95.2633C174.478 95.1107 174.567 95.0754 175.037 94.8092C175.086 94.7814 175.15 94.7919 175.201 94.822L176.897 95.8286C176.958 95.8625 177.045 95.8625 177.101 95.8286L183.713 92.0126C183.775 91.9773 183.814 91.9066 183.814 91.8337V84.2032C183.814 84.1288 183.774 84.0589 183.711 84.0213L177.102 80.2083C177.041 80.173 176.96 80.173 176.898 80.2083L170.291 84.022C170.227 84.0589 170.186 84.131 170.186 84.2032V91.8337C170.186 91.9066 170.227 91.9758 170.291 92.0104L172.102 93.0569C173.084 93.5485 173.687 92.9696 173.687 92.3878V84.8542C173.687 84.7475 173.772 84.6641 173.879 84.6641H174.717C174.822 84.6641 174.909 84.7482 174.909 84.8542V92.3878C174.909 93.6996 174.195 94.4514 172.951 94.4514C172.569 94.4514 172.268 94.4514 171.428 94.0372L169.693 93.0396C169.265 92.7922 169 92.3291 169 91.8337V84.2032C169 83.7078 169.265 83.2447 169.693 82.9981L176.305 79.1776C176.724 78.9408 177.279 78.9408 177.694 79.1776L184.305 82.9981C184.734 83.2455 185 83.7078 185 84.2032V91.8337C185 92.3291 184.734 92.7907 184.305 93.0396L177.694 96.8571C177.484 96.9796 177.244 97.0428 176.999 97.0428ZM182.337 89.5198C182.337 88.0914 181.372 87.711 179.34 87.4426C177.287 87.1712 177.078 87.0306 177.078 86.5503C177.078 86.1533 177.254 85.6233 178.775 85.6233C180.134 85.6233 180.634 85.9158 180.84 86.8314C180.858 86.9179 180.937 86.981 181.026 86.981H181.884C181.937 86.981 181.988 86.9577 182.024 86.9201C182.06 86.8795 182.079 86.8277 182.074 86.7728C181.941 85.1956 180.893 84.4603 178.775 84.4603C176.89 84.4603 175.765 85.2557 175.765 86.5901C175.765 88.0373 176.884 88.4372 178.693 88.6161C180.858 88.8281 181.026 89.1446 181.026 89.5701C181.026 90.3091 180.433 90.6241 179.04 90.6241C177.291 90.6241 176.906 90.1851 176.776 89.3145C176.761 89.2213 176.682 89.1529 176.586 89.1529H175.731C175.625 89.1529 175.54 89.2371 175.54 89.3431C175.54 90.4572 176.146 91.7849 179.04 91.7849C181.136 91.7856 182.337 90.9609 182.337 89.5198Z" fill="white"/>
</svg>
