<svg width="500" height="350" viewBox="0 0 500 350" fill="none" xmlns="http://www.w3.org/2000/svg">
<rect x="44" y="38" width="146" height="64" rx="8" fill="#94A3B8"/>
<path d="M73.6796 79.2727V67.2727H75.3387V68.6875H75.4807C75.5792 68.5057 75.7213 68.2955 75.9069 68.0568C76.0925 67.8182 76.3501 67.6098 76.6796 67.4318C77.0092 67.25 77.4448 67.1591 77.9864 67.1591C78.691 67.1591 79.3198 67.3371 79.8728 67.6932C80.4258 68.0492 80.8595 68.5625 81.1739 69.233C81.4921 69.9034 81.6512 70.7102 81.6512 71.6534C81.6512 72.5966 81.494 73.4053 81.1796 74.0795C80.8652 74.75 80.4334 75.267 79.8842 75.6307C79.3349 75.9905 78.708 76.1705 78.0035 76.1705C77.4732 76.1705 77.0395 76.0814 76.7023 75.9034C76.369 75.7254 76.1076 75.517 75.9182 75.2784C75.7289 75.0398 75.583 74.8277 75.4807 74.642H75.3785V79.2727H73.6796ZM75.3444 71.6364C75.3444 72.25 75.4334 72.7879 75.6114 73.25C75.7895 73.7121 76.047 74.0739 76.3842 74.3352C76.7213 74.5928 77.1342 74.7216 77.6228 74.7216C78.1304 74.7216 78.5546 74.5871 78.8955 74.3182C79.2364 74.0455 79.494 73.6761 79.6682 73.2102C79.8463 72.7443 79.9353 72.2197 79.9353 71.6364C79.9353 71.0606 79.8482 70.5436 79.6739 70.0852C79.5035 69.6269 79.2459 69.2652 78.9012 69C78.5603 68.7348 78.1342 68.6023 77.6228 68.6023C77.1304 68.6023 76.7137 68.7292 76.3728 68.983C76.0357 69.2367 75.78 69.5909 75.6057 70.0455C75.4315 70.5 75.3444 71.0303 75.3444 71.6364ZM83.2026 76V67.2727H84.8447V68.6591H84.9356C85.0947 68.1894 85.375 67.8201 85.7765 67.5511C86.1818 67.2784 86.6401 67.142 87.1515 67.142C87.2575 67.142 87.3825 67.1458 87.5265 67.1534C87.6742 67.161 87.7897 67.1705 87.8731 67.1818V68.8068C87.8049 68.7879 87.6837 68.767 87.5094 68.7443C87.3352 68.7178 87.1609 68.7045 86.9867 68.7045C86.5852 68.7045 86.2272 68.7898 85.9128 68.9602C85.6022 69.1269 85.356 69.3598 85.1742 69.6591C84.9924 69.9545 84.9015 70.2917 84.9015 70.6705V76H83.2026ZM92.3549 76.1761C91.5367 76.1761 90.8227 75.9886 90.2128 75.6136C89.603 75.2386 89.1295 74.714 88.7924 74.0398C88.4552 73.3655 88.2867 72.5777 88.2867 71.6761C88.2867 70.7708 88.4552 69.9792 88.7924 69.3011C89.1295 68.6231 89.603 68.0966 90.2128 67.7216C90.8227 67.3466 91.5367 67.1591 92.3549 67.1591C93.1731 67.1591 93.8871 67.3466 94.4969 67.7216C95.1068 68.0966 95.5802 68.6231 95.9174 69.3011C96.2545 69.9792 96.4231 70.7708 96.4231 71.6761C96.4231 72.5777 96.2545 73.3655 95.9174 74.0398C95.5802 74.714 95.1068 75.2386 94.4969 75.6136C93.8871 75.9886 93.1731 76.1761 92.3549 76.1761ZM92.3606 74.75C92.8909 74.75 93.3302 74.6098 93.6787 74.3295C94.0272 74.0492 94.2848 73.6761 94.4515 73.2102C94.6219 72.7443 94.7071 72.2311 94.7071 71.6705C94.7071 71.1136 94.6219 70.6023 94.4515 70.1364C94.2848 69.6667 94.0272 69.2898 93.6787 69.0057C93.3302 68.7216 92.8909 68.5795 92.3606 68.5795C91.8265 68.5795 91.3833 68.7216 91.031 69.0057C90.6825 69.2898 90.4231 69.6667 90.2526 70.1364C90.0859 70.6023 90.0026 71.1136 90.0026 71.6705C90.0026 72.2311 90.0859 72.7443 90.2526 73.2102C90.4231 73.6761 90.6825 74.0492 91.031 74.3295C91.3833 74.6098 91.8265 74.75 92.3606 74.75ZM101.234 76.1705C100.53 76.1705 99.9011 75.9905 99.348 75.6307C98.7988 75.267 98.367 74.75 98.0526 74.0795C97.742 73.4053 97.5867 72.5966 97.5867 71.6534C97.5867 70.7102 97.7439 69.9034 98.0583 69.233C98.3765 68.5625 98.8121 68.0492 99.3651 67.6932C99.9181 67.3371 100.545 67.1591 101.246 67.1591C101.787 67.1591 102.223 67.25 102.553 67.4318C102.886 67.6098 103.143 67.8182 103.325 68.0568C103.511 68.2955 103.655 68.5057 103.757 68.6875H103.859V64.3636H105.558V76H103.899V74.642H103.757C103.655 74.8277 103.507 75.0398 103.314 75.2784C103.125 75.517 102.863 75.7254 102.53 75.9034C102.197 76.0814 101.765 76.1705 101.234 76.1705ZM101.609 74.7216C102.098 74.7216 102.511 74.5928 102.848 74.3352C103.189 74.0739 103.447 73.7121 103.621 73.25C103.799 72.7879 103.888 72.25 103.888 71.6364C103.888 71.0303 103.801 70.5 103.626 70.0455C103.452 69.5909 103.197 69.2367 102.859 68.983C102.522 68.7292 102.106 68.6023 101.609 68.6023C101.098 68.6023 100.672 68.7348 100.331 69C99.9901 69.2652 99.7325 69.6269 99.5583 70.0852C99.3878 70.5436 99.3026 71.0606 99.3026 71.6364C99.3026 72.2197 99.3897 72.7443 99.564 73.2102C99.7382 73.6761 99.9958 74.0455 100.337 74.3182C100.681 74.5871 101.106 74.7216 101.609 74.7216ZM113.159 72.3807V67.2727H114.864V76H113.193V74.4886H113.103C112.902 74.9545 112.58 75.3428 112.137 75.6534C111.697 75.9602 111.15 76.1136 110.495 76.1136C109.934 76.1136 109.438 75.9905 109.006 75.7443C108.578 75.4943 108.241 75.125 107.995 74.6364C107.752 74.1477 107.631 73.5436 107.631 72.8239V67.2727H109.33V72.6193C109.33 73.214 109.495 73.6875 109.824 74.0398C110.154 74.392 110.582 74.5682 111.108 74.5682C111.426 74.5682 111.743 74.4886 112.057 74.3295C112.375 74.1705 112.639 73.9299 112.847 73.608C113.059 73.286 113.163 72.8769 113.159 72.3807ZM120.471 76.1761C119.626 76.1761 118.899 75.9848 118.289 75.6023C117.683 75.2159 117.217 74.6837 116.891 74.0057C116.565 73.3277 116.403 72.5511 116.403 71.6761C116.403 70.7898 116.569 70.0076 116.903 69.3295C117.236 68.6477 117.706 68.1155 118.312 67.733C118.918 67.3504 119.632 67.1591 120.454 67.1591C121.117 67.1591 121.707 67.2822 122.226 67.5284C122.745 67.7708 123.164 68.1117 123.482 68.5511C123.804 68.9905 123.995 69.5038 124.056 70.0909H122.403C122.312 69.6818 122.103 69.3295 121.778 69.0341C121.456 68.7386 121.024 68.5909 120.482 68.5909C120.009 68.5909 119.594 68.7159 119.238 68.9659C118.886 69.2121 118.611 69.5644 118.414 70.0227C118.217 70.4773 118.118 71.0152 118.118 71.6364C118.118 72.2727 118.215 72.822 118.408 73.2841C118.601 73.7462 118.874 74.1042 119.226 74.358C119.582 74.6117 120.001 74.7386 120.482 74.7386C120.804 74.7386 121.096 74.6799 121.357 74.5625C121.622 74.4413 121.844 74.2689 122.022 74.0455C122.204 73.822 122.331 73.553 122.403 73.2386H124.056C123.995 73.803 123.812 74.3068 123.505 74.75C123.198 75.1932 122.787 75.5417 122.272 75.7955C121.761 76.0492 121.16 76.1761 120.471 76.1761ZM129.595 67.2727V68.6364H124.828V67.2727H129.595ZM126.106 65.1818H127.805V73.4375C127.805 73.767 127.854 74.0152 127.953 74.1818C128.051 74.3447 128.178 74.4564 128.333 74.517C128.492 74.5739 128.665 74.6023 128.85 74.6023C128.987 74.6023 129.106 74.5928 129.208 74.5739C129.311 74.5549 129.39 74.5398 129.447 74.5284L129.754 75.9318C129.655 75.9697 129.515 76.0076 129.333 76.0455C129.151 76.0871 128.924 76.1098 128.651 76.1136C128.204 76.1212 127.788 76.0417 127.401 75.875C127.015 75.7083 126.703 75.4508 126.464 75.1023C126.225 74.7538 126.106 74.3163 126.106 73.7898V65.1818ZM137.521 69.4034L135.981 69.6761C135.917 69.4792 135.815 69.2917 135.674 69.1136C135.538 68.9356 135.352 68.7898 135.118 68.6761C134.883 68.5625 134.589 68.5057 134.237 68.5057C133.756 68.5057 133.354 68.6136 133.032 68.8295C132.71 69.0417 132.549 69.3163 132.549 69.6534C132.549 69.9451 132.657 70.1799 132.873 70.358C133.089 70.536 133.438 70.6818 133.919 70.7955L135.305 71.1136C136.108 71.2992 136.707 71.5852 137.101 71.9716C137.494 72.358 137.691 72.8598 137.691 73.4773C137.691 74 137.54 74.4659 137.237 74.875C136.938 75.2803 136.519 75.5985 135.981 75.8295C135.447 76.0606 134.828 76.1761 134.123 76.1761C133.146 76.1761 132.349 75.9678 131.731 75.5511C131.114 75.1307 130.735 74.5341 130.595 73.7614L132.237 73.5114C132.339 73.9394 132.549 74.2633 132.868 74.483C133.186 74.6989 133.601 74.8068 134.112 74.8068C134.669 74.8068 135.114 74.6913 135.447 74.4602C135.78 74.2254 135.947 73.9394 135.947 73.6023C135.947 73.3295 135.845 73.1004 135.64 72.9148C135.44 72.7292 135.131 72.589 134.714 72.4943L133.237 72.1705C132.423 71.9848 131.82 71.6894 131.43 71.2841C131.044 70.8788 130.851 70.3655 130.851 69.7443C130.851 69.2292 130.994 68.7784 131.282 68.392C131.57 68.0057 131.968 67.7045 132.476 67.4886C132.983 67.2689 133.565 67.1591 134.22 67.1591C135.163 67.1591 135.905 67.3636 136.447 67.7727C136.989 68.178 137.347 68.7216 137.521 69.4034ZM144.349 70.3466V71.8182H139.19V70.3466H144.349ZM149.938 76.1761C149.093 76.1761 148.366 75.9848 147.756 75.6023C147.15 75.2159 146.684 74.6837 146.358 74.0057C146.032 73.3277 145.87 72.5511 145.87 71.6761C145.87 70.7898 146.036 70.0076 146.37 69.3295C146.703 68.6477 147.173 68.1155 147.779 67.733C148.385 67.3504 149.099 67.1591 149.921 67.1591C150.584 67.1591 151.174 67.2822 151.693 67.5284C152.212 67.7708 152.631 68.1117 152.949 68.5511C153.271 68.9905 153.462 69.5038 153.523 70.0909H151.87C151.779 69.6818 151.57 69.3295 151.245 69.0341C150.923 68.7386 150.491 68.5909 149.949 68.5909C149.476 68.5909 149.061 68.7159 148.705 68.9659C148.353 69.2121 148.078 69.5644 147.881 70.0227C147.684 70.4773 147.585 71.0152 147.585 71.6364C147.585 72.2727 147.682 72.822 147.875 73.2841C148.068 73.7462 148.341 74.1042 148.693 74.358C149.049 74.6117 149.468 74.7386 149.949 74.7386C150.271 74.7386 150.563 74.6799 150.824 74.5625C151.089 74.4413 151.311 74.2689 151.489 74.0455C151.671 73.822 151.798 73.553 151.87 73.2386H153.523C153.462 73.803 153.279 74.3068 152.972 74.75C152.665 75.1932 152.254 75.5417 151.739 75.7955C151.228 76.0492 150.627 76.1761 149.938 76.1761ZM156.687 64.3636V76H154.988V64.3636H156.687ZM158.62 76V67.2727H160.319V76H158.62ZM159.478 65.9261C159.183 65.9261 158.929 65.8277 158.717 65.6307C158.508 65.4299 158.404 65.1913 158.404 64.9148C158.404 64.6345 158.508 64.3958 158.717 64.1989C158.929 63.9981 159.183 63.8977 159.478 63.8977C159.774 63.8977 160.025 63.9981 160.234 64.1989C160.446 64.3958 160.552 64.6345 160.552 64.9148C160.552 65.1913 160.446 65.4299 160.234 65.6307C160.025 65.8277 159.774 65.9261 159.478 65.9261Z" fill="white"/>
<rect x="303" y="38" width="152" height="64" rx="8" fill="#94A3B8"/>
<path d="M332.719 79.2727V67.2727H334.378V68.6875H334.52C334.618 68.5057 334.76 68.2955 334.946 68.0568C335.132 67.8182 335.389 67.6098 335.719 67.4318C336.048 67.25 336.484 67.1591 337.025 67.1591C337.73 67.1591 338.359 67.3371 338.912 67.6932C339.465 68.0492 339.899 68.5625 340.213 69.233C340.531 69.9034 340.69 70.7102 340.69 71.6534C340.69 72.5966 340.533 73.4053 340.219 74.0795C339.904 74.75 339.472 75.267 338.923 75.6307C338.374 75.9905 337.747 76.1705 337.043 76.1705C336.512 76.1705 336.079 76.0814 335.741 75.9034C335.408 75.7254 335.147 75.517 334.957 75.2784C334.768 75.0398 334.622 74.8277 334.52 74.642H334.418V79.2727H332.719ZM334.383 71.6364C334.383 72.25 334.472 72.7879 334.65 73.25C334.829 73.7121 335.086 74.0739 335.423 74.3352C335.76 74.5928 336.173 74.7216 336.662 74.7216C337.169 74.7216 337.594 74.5871 337.935 74.3182C338.275 74.0455 338.533 73.6761 338.707 73.2102C338.885 72.7443 338.974 72.2197 338.974 71.6364C338.974 71.0606 338.887 70.5436 338.713 70.0852C338.543 69.6269 338.285 69.2652 337.94 69C337.599 68.7348 337.173 68.6023 336.662 68.6023C336.169 68.6023 335.753 68.7292 335.412 68.983C335.075 69.2367 334.819 69.5909 334.645 70.0455C334.471 70.5 334.383 71.0303 334.383 71.6364ZM342.242 76V67.2727H343.884V68.6591H343.975C344.134 68.1894 344.414 67.8201 344.816 67.5511C345.221 67.2784 345.679 67.142 346.191 67.142C346.297 67.142 346.422 67.1458 346.566 67.1534C346.713 67.161 346.829 67.1705 346.912 67.1818V68.8068C346.844 68.7879 346.723 68.767 346.548 68.7443C346.374 68.7178 346.2 68.7045 346.026 68.7045C345.624 68.7045 345.266 68.7898 344.952 68.9602C344.641 69.1269 344.395 69.3598 344.213 69.6591C344.031 69.9545 343.941 70.2917 343.941 70.6705V76H342.242ZM351.394 76.1761C350.576 76.1761 349.862 75.9886 349.252 75.6136C348.642 75.2386 348.169 74.714 347.831 74.0398C347.494 73.3655 347.326 72.5777 347.326 71.6761C347.326 70.7708 347.494 69.9792 347.831 69.3011C348.169 68.6231 348.642 68.0966 349.252 67.7216C349.862 67.3466 350.576 67.1591 351.394 67.1591C352.212 67.1591 352.926 67.3466 353.536 67.7216C354.146 68.0966 354.619 68.6231 354.956 69.3011C355.294 69.9792 355.462 70.7708 355.462 71.6761C355.462 72.5777 355.294 73.3655 354.956 74.0398C354.619 74.714 354.146 75.2386 353.536 75.6136C352.926 75.9886 352.212 76.1761 351.394 76.1761ZM351.4 74.75C351.93 74.75 352.369 74.6098 352.718 74.3295C353.066 74.0492 353.324 73.6761 353.491 73.2102C353.661 72.7443 353.746 72.2311 353.746 71.6705C353.746 71.1136 353.661 70.6023 353.491 70.1364C353.324 69.6667 353.066 69.2898 352.718 69.0057C352.369 68.7216 351.93 68.5795 351.4 68.5795C350.866 68.5795 350.422 68.7216 350.07 69.0057C349.722 69.2898 349.462 69.6667 349.292 70.1364C349.125 70.6023 349.042 71.1136 349.042 71.6705C349.042 72.2311 349.125 72.7443 349.292 73.2102C349.462 73.6761 349.722 74.0492 350.07 74.3295C350.422 74.6098 350.866 74.75 351.4 74.75ZM360.273 76.1705C359.569 76.1705 358.94 75.9905 358.387 75.6307C357.838 75.267 357.406 74.75 357.092 74.0795C356.781 73.4053 356.626 72.5966 356.626 71.6534C356.626 70.7102 356.783 69.9034 357.097 69.233C357.416 68.5625 357.851 68.0492 358.404 67.6932C358.957 67.3371 359.584 67.1591 360.285 67.1591C360.826 67.1591 361.262 67.25 361.592 67.4318C361.925 67.6098 362.183 67.8182 362.364 68.0568C362.55 68.2955 362.694 68.5057 362.796 68.6875H362.898V64.3636H364.597V76H362.938V74.642H362.796C362.694 74.8277 362.546 75.0398 362.353 75.2784C362.164 75.517 361.902 75.7254 361.569 75.9034C361.236 76.0814 360.804 76.1705 360.273 76.1705ZM360.648 74.7216C361.137 74.7216 361.55 74.5928 361.887 74.3352C362.228 74.0739 362.486 73.7121 362.66 73.25C362.838 72.7879 362.927 72.25 362.927 71.6364C362.927 71.0303 362.84 70.5 362.666 70.0455C362.491 69.5909 362.236 69.2367 361.898 68.983C361.561 68.7292 361.145 68.6023 360.648 68.6023C360.137 68.6023 359.711 68.7348 359.37 69C359.029 69.2652 358.772 69.6269 358.597 70.0852C358.427 70.5436 358.342 71.0606 358.342 71.6364C358.342 72.2197 358.429 72.7443 358.603 73.2102C358.777 73.6761 359.035 74.0455 359.376 74.3182C359.72 74.5871 360.145 74.7216 360.648 74.7216ZM372.198 72.3807V67.2727H373.903V76H372.233V74.4886H372.142C371.941 74.9545 371.619 75.3428 371.176 75.6534C370.736 75.9602 370.189 76.1136 369.534 76.1136C368.973 76.1136 368.477 75.9905 368.045 75.7443C367.617 75.4943 367.28 75.125 367.034 74.6364C366.791 74.1477 366.67 73.5436 366.67 72.8239V67.2727H368.369V72.6193C368.369 73.214 368.534 73.6875 368.863 74.0398C369.193 74.392 369.621 74.5682 370.147 74.5682C370.466 74.5682 370.782 74.4886 371.096 74.3295C371.414 74.1705 371.678 73.9299 371.886 73.608C372.098 73.286 372.202 72.8769 372.198 72.3807ZM379.51 76.1761C378.665 76.1761 377.938 75.9848 377.328 75.6023C376.722 75.2159 376.256 74.6837 375.93 74.0057C375.605 73.3277 375.442 72.5511 375.442 71.6761C375.442 70.7898 375.608 70.0076 375.942 69.3295C376.275 68.6477 376.745 68.1155 377.351 67.733C377.957 67.3504 378.671 67.1591 379.493 67.1591C380.156 67.1591 380.747 67.2822 381.265 67.5284C381.784 67.7708 382.203 68.1117 382.521 68.5511C382.843 68.9905 383.034 69.5038 383.095 70.0909H381.442C381.351 69.6818 381.142 69.3295 380.817 69.0341C380.495 68.7386 380.063 68.5909 379.521 68.5909C379.048 68.5909 378.633 68.7159 378.277 68.9659C377.925 69.2121 377.65 69.5644 377.453 70.0227C377.256 70.4773 377.158 71.0152 377.158 71.6364C377.158 72.2727 377.254 72.822 377.447 73.2841C377.64 73.7462 377.913 74.1042 378.265 74.358C378.622 74.6117 379.04 74.7386 379.521 74.7386C379.843 74.7386 380.135 74.6799 380.396 74.5625C380.661 74.4413 380.883 74.2689 381.061 74.0455C381.243 73.822 381.37 73.553 381.442 73.2386H383.095C383.034 73.803 382.851 74.3068 382.544 74.75C382.237 75.1932 381.826 75.5417 381.311 75.7955C380.8 76.0492 380.199 76.1761 379.51 76.1761ZM388.634 67.2727V68.6364H383.867V67.2727H388.634ZM385.145 65.1818H386.844V73.4375C386.844 73.767 386.893 74.0152 386.992 74.1818C387.09 74.3447 387.217 74.4564 387.372 74.517C387.531 74.5739 387.704 74.6023 387.889 74.6023C388.026 74.6023 388.145 74.5928 388.247 74.5739C388.35 74.5549 388.429 74.5398 388.486 74.5284L388.793 75.9318C388.694 75.9697 388.554 76.0076 388.372 76.0455C388.19 76.0871 387.963 76.1098 387.69 76.1136C387.244 76.1212 386.827 76.0417 386.44 75.875C386.054 75.7083 385.742 75.4508 385.503 75.1023C385.264 74.7538 385.145 74.3163 385.145 73.7898V65.1818ZM396.56 69.4034L395.02 69.6761C394.956 69.4792 394.854 69.2917 394.713 69.1136C394.577 68.9356 394.392 68.7898 394.157 68.6761C393.922 68.5625 393.628 68.5057 393.276 68.5057C392.795 68.5057 392.393 68.6136 392.071 68.8295C391.749 69.0417 391.588 69.3163 391.588 69.6534C391.588 69.9451 391.696 70.1799 391.912 70.358C392.128 70.536 392.477 70.6818 392.958 70.7955L394.344 71.1136C395.147 71.2992 395.746 71.5852 396.14 71.9716C396.534 72.358 396.731 72.8598 396.731 73.4773C396.731 74 396.579 74.4659 396.276 74.875C395.977 75.2803 395.558 75.5985 395.02 75.8295C394.486 76.0606 393.867 76.1761 393.162 76.1761C392.185 76.1761 391.388 75.9678 390.77 75.5511C390.153 75.1307 389.774 74.5341 389.634 73.7614L391.276 73.5114C391.378 73.9394 391.588 74.2633 391.907 74.483C392.225 74.6989 392.64 74.8068 393.151 74.8068C393.708 74.8068 394.153 74.6913 394.486 74.4602C394.82 74.2254 394.986 73.9394 394.986 73.6023C394.986 73.3295 394.884 73.1004 394.679 72.9148C394.479 72.7292 394.17 72.589 393.753 72.4943L392.276 72.1705C391.462 71.9848 390.859 71.6894 390.469 71.2841C390.083 70.8788 389.89 70.3655 389.89 69.7443C389.89 69.2292 390.034 68.7784 390.321 68.392C390.609 68.0057 391.007 67.7045 391.515 67.4886C392.022 67.2689 392.604 67.1591 393.259 67.1591C394.202 67.1591 394.945 67.3636 395.486 67.7727C396.028 68.178 396.386 68.7216 396.56 69.4034ZM403.388 70.3466V71.8182H398.229V70.3466H403.388ZM407.84 76.1932C407.287 76.1932 406.787 76.0909 406.34 75.8864C405.893 75.678 405.539 75.3769 405.278 74.983C405.02 74.589 404.892 74.1061 404.892 73.5341C404.892 73.0417 404.986 72.6364 405.176 72.3182C405.365 72 405.621 71.7481 405.943 71.5625C406.265 71.3769 406.625 71.2367 407.022 71.142C407.42 71.0473 407.825 70.9754 408.238 70.9261C408.761 70.8655 409.185 70.8163 409.511 70.7784C409.837 70.7367 410.073 70.6705 410.221 70.5795C410.369 70.4886 410.443 70.3409 410.443 70.1364V70.0966C410.443 69.6004 410.303 69.2159 410.022 68.9432C409.746 68.6705 409.333 68.5341 408.784 68.5341C408.212 68.5341 407.761 68.661 407.431 68.9148C407.106 69.1648 406.88 69.4432 406.755 69.75L405.159 69.3864C405.348 68.8561 405.625 68.428 405.988 68.1023C406.356 67.7727 406.778 67.5341 407.255 67.3864C407.732 67.2348 408.234 67.1591 408.761 67.1591C409.109 67.1591 409.479 67.2008 409.869 67.2841C410.263 67.3636 410.63 67.5114 410.971 67.7273C411.316 67.9432 411.598 68.2519 411.818 68.6534C412.037 69.0511 412.147 69.5682 412.147 70.2045V76H410.488V74.8068H410.42C410.31 75.0265 410.145 75.2424 409.926 75.4545C409.706 75.6667 409.424 75.8428 409.079 75.983C408.734 76.1231 408.322 76.1932 407.84 76.1932ZM408.21 74.8295C408.679 74.8295 409.081 74.7367 409.414 74.5511C409.751 74.3655 410.007 74.1231 410.181 73.8239C410.359 73.5208 410.448 73.197 410.448 72.8523V71.7273C410.388 71.7879 410.27 71.8447 410.096 71.8977C409.926 71.947 409.731 71.9905 409.511 72.0284C409.291 72.0625 409.077 72.0947 408.869 72.125C408.661 72.1515 408.486 72.1742 408.346 72.1932C408.017 72.2348 407.715 72.3049 407.443 72.4034C407.174 72.5019 406.958 72.6439 406.795 72.8295C406.636 73.0114 406.556 73.2538 406.556 73.5568C406.556 73.9773 406.712 74.2955 407.022 74.5114C407.333 74.7235 407.729 74.8295 408.21 74.8295ZM414.058 79.2727V67.2727H415.717V68.6875H415.859C415.958 68.5057 416.1 68.2955 416.285 68.0568C416.471 67.8182 416.729 67.6098 417.058 67.4318C417.388 67.25 417.823 67.1591 418.365 67.1591C419.069 67.1591 419.698 67.3371 420.251 67.6932C420.804 68.0492 421.238 68.5625 421.552 69.233C421.871 69.9034 422.03 70.7102 422.03 71.6534C422.03 72.5966 421.872 73.4053 421.558 74.0795C421.244 74.75 420.812 75.267 420.263 75.6307C419.713 75.9905 419.086 76.1705 418.382 76.1705C417.852 76.1705 417.418 76.0814 417.081 75.9034C416.747 75.7254 416.486 75.517 416.297 75.2784C416.107 75.0398 415.961 74.8277 415.859 74.642H415.757V79.2727H414.058ZM415.723 71.6364C415.723 72.25 415.812 72.7879 415.99 73.25C416.168 73.7121 416.425 74.0739 416.763 74.3352C417.1 74.5928 417.513 74.7216 418.001 74.7216C418.509 74.7216 418.933 74.5871 419.274 74.3182C419.615 74.0455 419.872 73.6761 420.047 73.2102C420.225 72.7443 420.314 72.2197 420.314 71.6364C420.314 71.0606 420.227 70.5436 420.052 70.0852C419.882 69.6269 419.624 69.2652 419.28 69C418.939 68.7348 418.513 68.6023 418.001 68.6023C417.509 68.6023 417.092 68.7292 416.751 68.983C416.414 69.2367 416.158 69.5909 415.984 70.0455C415.81 70.5 415.723 71.0303 415.723 71.6364ZM423.581 76V67.2727H425.28V76H423.581ZM424.439 65.9261C424.144 65.9261 423.89 65.8277 423.678 65.6307C423.469 65.4299 423.365 65.1913 423.365 64.9148C423.365 64.6345 423.469 64.3958 423.678 64.1989C423.89 63.9981 424.144 63.8977 424.439 63.8977C424.734 63.8977 424.986 63.9981 425.195 64.1989C425.407 64.3958 425.513 64.6345 425.513 64.9148C425.513 65.1913 425.407 65.4299 425.195 65.6307C424.986 65.8277 424.734 65.9261 424.439 65.9261Z" fill="white"/>
<rect x="112" y="243" width="250" height="70" rx="8" stroke="#94A3B8" stroke-width="2" stroke-miterlimit="0" stroke-linecap="round"/>
<path d="M161.838 287.273V275.273H163.497V276.688H163.639C163.737 276.506 163.879 276.295 164.065 276.057C164.25 275.818 164.508 275.61 164.838 275.432C165.167 275.25 165.603 275.159 166.144 275.159C166.849 275.159 167.478 275.337 168.031 275.693C168.584 276.049 169.018 276.562 169.332 277.233C169.65 277.903 169.809 278.71 169.809 279.653C169.809 280.597 169.652 281.405 169.338 282.08C169.023 282.75 168.591 283.267 168.042 283.631C167.493 283.991 166.866 284.17 166.161 284.17C165.631 284.17 165.197 284.081 164.86 283.903C164.527 283.725 164.266 283.517 164.076 283.278C163.887 283.04 163.741 282.828 163.639 282.642H163.536V287.273H161.838ZM163.502 279.636C163.502 280.25 163.591 280.788 163.769 281.25C163.947 281.712 164.205 282.074 164.542 282.335C164.879 282.593 165.292 282.722 165.781 282.722C166.288 282.722 166.713 282.587 167.054 282.318C167.394 282.045 167.652 281.676 167.826 281.21C168.004 280.744 168.093 280.22 168.093 279.636C168.093 279.061 168.006 278.544 167.832 278.085C167.661 277.627 167.404 277.265 167.059 277C166.718 276.735 166.292 276.602 165.781 276.602C165.288 276.602 164.872 276.729 164.531 276.983C164.194 277.237 163.938 277.591 163.764 278.045C163.59 278.5 163.502 279.03 163.502 279.636ZM171.361 284V275.273H173.003V276.659H173.094C173.253 276.189 173.533 275.82 173.934 275.551C174.34 275.278 174.798 275.142 175.309 275.142C175.416 275.142 175.541 275.146 175.684 275.153C175.832 275.161 175.948 275.17 176.031 275.182V276.807C175.963 276.788 175.842 276.767 175.667 276.744C175.493 276.718 175.319 276.705 175.145 276.705C174.743 276.705 174.385 276.79 174.071 276.96C173.76 277.127 173.514 277.36 173.332 277.659C173.15 277.955 173.059 278.292 173.059 278.67V284H171.361ZM180.513 284.176C179.695 284.176 178.981 283.989 178.371 283.614C177.761 283.239 177.287 282.714 176.95 282.04C176.613 281.366 176.445 280.578 176.445 279.676C176.445 278.771 176.613 277.979 176.95 277.301C177.287 276.623 177.761 276.097 178.371 275.722C178.981 275.347 179.695 275.159 180.513 275.159C181.331 275.159 182.045 275.347 182.655 275.722C183.265 276.097 183.738 276.623 184.075 277.301C184.412 277.979 184.581 278.771 184.581 279.676C184.581 280.578 184.412 281.366 184.075 282.04C183.738 282.714 183.265 283.239 182.655 283.614C182.045 283.989 181.331 284.176 180.513 284.176ZM180.519 282.75C181.049 282.75 181.488 282.61 181.837 282.33C182.185 282.049 182.443 281.676 182.609 281.21C182.78 280.744 182.865 280.231 182.865 279.67C182.865 279.114 182.78 278.602 182.609 278.136C182.443 277.667 182.185 277.29 181.837 277.006C181.488 276.722 181.049 276.58 180.519 276.58C179.984 276.58 179.541 276.722 179.189 277.006C178.841 277.29 178.581 277.667 178.411 278.136C178.244 278.602 178.161 279.114 178.161 279.67C178.161 280.231 178.244 280.744 178.411 281.21C178.581 281.676 178.841 282.049 179.189 282.33C179.541 282.61 179.984 282.75 180.519 282.75ZM189.392 284.17C188.688 284.17 188.059 283.991 187.506 283.631C186.957 283.267 186.525 282.75 186.211 282.08C185.9 281.405 185.745 280.597 185.745 279.653C185.745 278.71 185.902 277.903 186.216 277.233C186.534 276.562 186.97 276.049 187.523 275.693C188.076 275.337 188.703 275.159 189.404 275.159C189.945 275.159 190.381 275.25 190.711 275.432C191.044 275.61 191.301 275.818 191.483 276.057C191.669 276.295 191.813 276.506 191.915 276.688H192.017V272.364H193.716V284H192.057V282.642H191.915C191.813 282.828 191.665 283.04 191.472 283.278C191.283 283.517 191.021 283.725 190.688 283.903C190.355 284.081 189.923 284.17 189.392 284.17ZM189.767 282.722C190.256 282.722 190.669 282.593 191.006 282.335C191.347 282.074 191.605 281.712 191.779 281.25C191.957 280.788 192.046 280.25 192.046 279.636C192.046 279.03 191.959 278.5 191.784 278.045C191.61 277.591 191.355 277.237 191.017 276.983C190.68 276.729 190.264 276.602 189.767 276.602C189.256 276.602 188.83 276.735 188.489 277C188.148 277.265 187.891 277.627 187.716 278.085C187.546 278.544 187.461 279.061 187.461 279.636C187.461 280.22 187.548 280.744 187.722 281.21C187.896 281.676 188.154 282.045 188.495 282.318C188.839 282.587 189.264 282.722 189.767 282.722ZM201.317 280.381V275.273H203.022V284H201.351V282.489H201.261C201.06 282.955 200.738 283.343 200.295 283.653C199.855 283.96 199.308 284.114 198.653 284.114C198.092 284.114 197.596 283.991 197.164 283.744C196.736 283.494 196.399 283.125 196.153 282.636C195.91 282.148 195.789 281.544 195.789 280.824V275.273H197.488V280.619C197.488 281.214 197.653 281.687 197.982 282.04C198.312 282.392 198.74 282.568 199.266 282.568C199.584 282.568 199.901 282.489 200.215 282.33C200.533 282.17 200.797 281.93 201.005 281.608C201.217 281.286 201.321 280.877 201.317 280.381ZM208.629 284.176C207.784 284.176 207.057 283.985 206.447 283.602C205.841 283.216 205.375 282.684 205.049 282.006C204.723 281.328 204.561 280.551 204.561 279.676C204.561 278.79 204.727 278.008 205.061 277.33C205.394 276.648 205.864 276.116 206.47 275.733C207.076 275.35 207.79 275.159 208.612 275.159C209.275 275.159 209.865 275.282 210.384 275.528C210.903 275.771 211.322 276.112 211.64 276.551C211.962 276.991 212.153 277.504 212.214 278.091H210.561C210.47 277.682 210.261 277.33 209.936 277.034C209.614 276.739 209.182 276.591 208.64 276.591C208.167 276.591 207.752 276.716 207.396 276.966C207.044 277.212 206.769 277.564 206.572 278.023C206.375 278.477 206.276 279.015 206.276 279.636C206.276 280.273 206.373 280.822 206.566 281.284C206.759 281.746 207.032 282.104 207.384 282.358C207.74 282.612 208.159 282.739 208.64 282.739C208.962 282.739 209.254 282.68 209.515 282.562C209.78 282.441 210.002 282.269 210.18 282.045C210.362 281.822 210.489 281.553 210.561 281.239H212.214C212.153 281.803 211.97 282.307 211.663 282.75C211.356 283.193 210.945 283.542 210.43 283.795C209.919 284.049 209.318 284.176 208.629 284.176ZM217.753 275.273V276.636H212.986V275.273H217.753ZM214.264 273.182H215.963V281.438C215.963 281.767 216.012 282.015 216.111 282.182C216.209 282.345 216.336 282.456 216.491 282.517C216.65 282.574 216.823 282.602 217.008 282.602C217.145 282.602 217.264 282.593 217.366 282.574C217.469 282.555 217.548 282.54 217.605 282.528L217.912 283.932C217.813 283.97 217.673 284.008 217.491 284.045C217.309 284.087 217.082 284.11 216.809 284.114C216.362 284.121 215.946 284.042 215.559 283.875C215.173 283.708 214.861 283.451 214.622 283.102C214.383 282.754 214.264 282.316 214.264 281.79V273.182ZM225.679 277.403L224.139 277.676C224.075 277.479 223.973 277.292 223.832 277.114C223.696 276.936 223.51 276.79 223.276 276.676C223.041 276.562 222.747 276.506 222.395 276.506C221.914 276.506 221.512 276.614 221.19 276.83C220.868 277.042 220.707 277.316 220.707 277.653C220.707 277.945 220.815 278.18 221.031 278.358C221.247 278.536 221.596 278.682 222.077 278.795L223.463 279.114C224.266 279.299 224.865 279.585 225.259 279.972C225.652 280.358 225.849 280.86 225.849 281.477C225.849 282 225.698 282.466 225.395 282.875C225.096 283.28 224.677 283.598 224.139 283.83C223.605 284.061 222.986 284.176 222.281 284.176C221.304 284.176 220.507 283.968 219.889 283.551C219.272 283.131 218.893 282.534 218.753 281.761L220.395 281.511C220.497 281.939 220.707 282.263 221.026 282.483C221.344 282.699 221.759 282.807 222.27 282.807C222.827 282.807 223.272 282.691 223.605 282.46C223.938 282.225 224.105 281.939 224.105 281.602C224.105 281.33 224.003 281.1 223.798 280.915C223.598 280.729 223.289 280.589 222.872 280.494L221.395 280.17C220.581 279.985 219.978 279.689 219.588 279.284C219.202 278.879 219.009 278.366 219.009 277.744C219.009 277.229 219.152 276.778 219.44 276.392C219.728 276.006 220.126 275.705 220.634 275.489C221.141 275.269 221.723 275.159 222.378 275.159C223.321 275.159 224.063 275.364 224.605 275.773C225.147 276.178 225.505 276.722 225.679 277.403ZM232.507 278.347V279.818H227.348V278.347H232.507ZM237.687 284.17C236.982 284.17 236.353 283.991 235.8 283.631C235.251 283.267 234.819 282.75 234.505 282.08C234.194 281.405 234.039 280.597 234.039 279.653C234.039 278.71 234.196 277.903 234.511 277.233C234.829 276.562 235.264 276.049 235.817 275.693C236.37 275.337 236.997 275.159 237.698 275.159C238.24 275.159 238.675 275.25 239.005 275.432C239.338 275.61 239.596 275.818 239.778 276.057C239.963 276.295 240.107 276.506 240.209 276.688H240.312V272.364H242.011V284H240.351V282.642H240.209C240.107 282.828 239.959 283.04 239.766 283.278C239.577 283.517 239.315 283.725 238.982 283.903C238.649 284.081 238.217 284.17 237.687 284.17ZM238.062 282.722C238.55 282.722 238.963 282.593 239.3 282.335C239.641 282.074 239.899 281.712 240.073 281.25C240.251 280.788 240.34 280.25 240.34 279.636C240.34 279.03 240.253 278.5 240.079 278.045C239.904 277.591 239.649 277.237 239.312 276.983C238.975 276.729 238.558 276.602 238.062 276.602C237.55 276.602 237.124 276.735 236.783 277C236.442 277.265 236.185 277.627 236.011 278.085C235.84 278.544 235.755 279.061 235.755 279.636C235.755 280.22 235.842 280.744 236.016 281.21C236.19 281.676 236.448 282.045 236.789 282.318C237.134 282.587 237.558 282.722 238.062 282.722ZM246.623 284.193C246.07 284.193 245.57 284.091 245.123 283.886C244.676 283.678 244.322 283.377 244.061 282.983C243.803 282.589 243.674 282.106 243.674 281.534C243.674 281.042 243.769 280.636 243.958 280.318C244.148 280 244.403 279.748 244.725 279.562C245.047 279.377 245.407 279.237 245.805 279.142C246.203 279.047 246.608 278.975 247.021 278.926C247.543 278.866 247.968 278.816 248.293 278.778C248.619 278.737 248.856 278.67 249.004 278.58C249.151 278.489 249.225 278.341 249.225 278.136V278.097C249.225 277.6 249.085 277.216 248.805 276.943C248.528 276.67 248.115 276.534 247.566 276.534C246.994 276.534 246.543 276.661 246.214 276.915C245.888 277.165 245.663 277.443 245.538 277.75L243.941 277.386C244.131 276.856 244.407 276.428 244.771 276.102C245.138 275.773 245.561 275.534 246.038 275.386C246.515 275.235 247.017 275.159 247.543 275.159C247.892 275.159 248.261 275.201 248.651 275.284C249.045 275.364 249.413 275.511 249.754 275.727C250.098 275.943 250.381 276.252 250.6 276.653C250.82 277.051 250.93 277.568 250.93 278.205V284H249.271V282.807H249.203C249.093 283.027 248.928 283.242 248.708 283.455C248.489 283.667 248.206 283.843 247.862 283.983C247.517 284.123 247.104 284.193 246.623 284.193ZM246.992 282.83C247.462 282.83 247.864 282.737 248.197 282.551C248.534 282.366 248.79 282.123 248.964 281.824C249.142 281.521 249.231 281.197 249.231 280.852V279.727C249.17 279.788 249.053 279.845 248.879 279.898C248.708 279.947 248.513 279.991 248.293 280.028C248.074 280.062 247.86 280.095 247.651 280.125C247.443 280.152 247.269 280.174 247.129 280.193C246.799 280.235 246.498 280.305 246.225 280.403C245.956 280.502 245.74 280.644 245.578 280.83C245.418 281.011 245.339 281.254 245.339 281.557C245.339 281.977 245.494 282.295 245.805 282.511C246.115 282.723 246.511 282.83 246.992 282.83ZM256.914 275.273V276.636H252.147V275.273H256.914ZM253.426 273.182H255.125V281.438C255.125 281.767 255.174 282.015 255.272 282.182C255.371 282.345 255.498 282.456 255.653 282.517C255.812 282.574 255.985 282.602 256.17 282.602C256.307 282.602 256.426 282.593 256.528 282.574C256.63 282.555 256.71 282.54 256.767 282.528L257.074 283.932C256.975 283.97 256.835 284.008 256.653 284.045C256.471 284.087 256.244 284.11 255.971 284.114C255.524 284.121 255.108 284.042 254.721 283.875C254.335 283.708 254.022 283.451 253.784 283.102C253.545 282.754 253.426 282.316 253.426 281.79V273.182ZM260.982 284.193C260.428 284.193 259.928 284.091 259.482 283.886C259.035 283.678 258.68 283.377 258.419 282.983C258.161 282.589 258.033 282.106 258.033 281.534C258.033 281.042 258.127 280.636 258.317 280.318C258.506 280 258.762 279.748 259.084 279.562C259.406 279.377 259.766 279.237 260.163 279.142C260.561 279.047 260.966 278.975 261.379 278.926C261.902 278.866 262.326 278.816 262.652 278.778C262.978 278.737 263.214 278.67 263.362 278.58C263.51 278.489 263.584 278.341 263.584 278.136V278.097C263.584 277.6 263.444 277.216 263.163 276.943C262.887 276.67 262.474 276.534 261.925 276.534C261.353 276.534 260.902 276.661 260.572 276.915C260.247 277.165 260.021 277.443 259.896 277.75L258.3 277.386C258.489 276.856 258.766 276.428 259.129 276.102C259.497 275.773 259.919 275.534 260.396 275.386C260.874 275.235 261.375 275.159 261.902 275.159C262.25 275.159 262.62 275.201 263.01 275.284C263.404 275.364 263.771 275.511 264.112 275.727C264.457 275.943 264.739 276.252 264.959 276.653C265.178 277.051 265.288 277.568 265.288 278.205V284H263.629V282.807H263.561C263.451 283.027 263.286 283.242 263.067 283.455C262.847 283.667 262.565 283.843 262.22 283.983C261.875 284.123 261.463 284.193 260.982 284.193ZM261.351 282.83C261.821 282.83 262.222 282.737 262.555 282.551C262.892 282.366 263.148 282.123 263.322 281.824C263.5 281.521 263.589 281.197 263.589 280.852V279.727C263.529 279.788 263.411 279.845 263.237 279.898C263.067 279.947 262.872 279.991 262.652 280.028C262.432 280.062 262.218 280.095 262.01 280.125C261.802 280.152 261.627 280.174 261.487 280.193C261.158 280.235 260.857 280.305 260.584 280.403C260.315 280.502 260.099 280.644 259.936 280.83C259.777 281.011 259.697 281.254 259.697 281.557C259.697 281.977 259.853 282.295 260.163 282.511C260.474 282.723 260.87 282.83 261.351 282.83ZM272.341 278.347V279.818H267.182V278.347H272.341ZM277.929 284.176C277.085 284.176 276.358 283.985 275.748 283.602C275.142 283.216 274.676 282.684 274.35 282.006C274.024 281.328 273.861 280.551 273.861 279.676C273.861 278.79 274.028 278.008 274.361 277.33C274.695 276.648 275.164 276.116 275.77 275.733C276.376 275.35 277.09 275.159 277.912 275.159C278.575 275.159 279.166 275.282 279.685 275.528C280.204 275.771 280.623 276.112 280.941 276.551C281.263 276.991 281.454 277.504 281.515 278.091H279.861C279.77 277.682 279.562 277.33 279.236 277.034C278.914 276.739 278.483 276.591 277.941 276.591C277.467 276.591 277.053 276.716 276.697 276.966C276.344 277.212 276.07 277.564 275.873 278.023C275.676 278.477 275.577 279.015 275.577 279.636C275.577 280.273 275.674 280.822 275.867 281.284C276.06 281.746 276.333 282.104 276.685 282.358C277.041 282.612 277.46 282.739 277.941 282.739C278.263 282.739 278.554 282.68 278.816 282.562C279.081 282.441 279.303 282.269 279.481 282.045C279.662 281.822 279.789 281.553 279.861 281.239H281.515C281.454 281.803 281.27 282.307 280.964 282.75C280.657 283.193 280.246 283.542 279.731 283.795C279.219 284.049 278.619 284.176 277.929 284.176ZM284.678 272.364V284H282.979V272.364H284.678ZM286.612 284V275.273H288.311V284H286.612ZM287.47 273.926C287.174 273.926 286.921 273.828 286.708 273.631C286.5 273.43 286.396 273.191 286.396 272.915C286.396 272.634 286.5 272.396 286.708 272.199C286.921 271.998 287.174 271.898 287.47 271.898C287.765 271.898 288.017 271.998 288.226 272.199C288.438 272.396 288.544 272.634 288.544 272.915C288.544 273.191 288.438 273.43 288.226 273.631C288.017 273.828 287.765 273.926 287.47 273.926ZM294.006 284.176C293.146 284.176 292.405 283.992 291.784 283.625C291.167 283.254 290.689 282.733 290.352 282.062C290.019 281.388 289.852 280.598 289.852 279.693C289.852 278.799 290.019 278.011 290.352 277.33C290.689 276.648 291.159 276.116 291.761 275.733C292.367 275.35 293.076 275.159 293.886 275.159C294.379 275.159 294.856 275.241 295.318 275.403C295.78 275.566 296.195 275.822 296.562 276.17C296.93 276.519 297.22 276.972 297.432 277.528C297.644 278.081 297.75 278.754 297.75 279.545V280.148H290.812V278.875H296.085C296.085 278.428 295.994 278.032 295.812 277.688C295.631 277.339 295.375 277.064 295.045 276.864C294.72 276.663 294.337 276.562 293.898 276.562C293.42 276.562 293.004 276.68 292.648 276.915C292.295 277.146 292.023 277.449 291.829 277.824C291.64 278.195 291.545 278.598 291.545 279.034V280.028C291.545 280.612 291.648 281.108 291.852 281.517C292.061 281.926 292.35 282.239 292.722 282.455C293.093 282.667 293.526 282.773 294.023 282.773C294.345 282.773 294.638 282.727 294.903 282.636C295.168 282.542 295.398 282.402 295.591 282.216C295.784 282.03 295.932 281.801 296.034 281.528L297.642 281.818C297.513 282.292 297.282 282.706 296.949 283.062C296.619 283.415 296.204 283.689 295.704 283.886C295.208 284.08 294.642 284.176 294.006 284.176ZM300.982 278.818V284H299.283V275.273H300.914V276.693H301.021C301.222 276.231 301.537 275.86 301.965 275.58C302.396 275.299 302.94 275.159 303.595 275.159C304.19 275.159 304.711 275.284 305.158 275.534C305.605 275.78 305.951 276.148 306.198 276.636C306.444 277.125 306.567 277.729 306.567 278.449V284H304.868V278.653C304.868 278.021 304.703 277.527 304.374 277.17C304.044 276.811 303.592 276.631 303.016 276.631C302.622 276.631 302.271 276.716 301.965 276.886C301.662 277.057 301.421 277.307 301.243 277.636C301.069 277.962 300.982 278.356 300.982 278.818ZM312.567 275.273V276.636H307.8V275.273H312.567ZM309.079 273.182H310.777V281.438C310.777 281.767 310.827 282.015 310.925 282.182C311.024 282.345 311.151 282.456 311.306 282.517C311.465 282.574 311.637 282.602 311.823 282.602C311.959 282.602 312.079 282.593 312.181 282.574C312.283 282.555 312.363 282.54 312.42 282.528L312.726 283.932C312.628 283.97 312.488 284.008 312.306 284.045C312.124 284.087 311.897 284.11 311.624 284.114C311.177 284.121 310.76 284.042 310.374 283.875C309.988 283.708 309.675 283.451 309.437 283.102C309.198 282.754 309.079 282.316 309.079 281.79V273.182Z" fill="#94A3B8"/>
<path d="M339.75 290C339.335 290 339 290.335 339 290.75V305.25C339 305.665 339.335 306 339.75 306H354.25C354.665 306 355 305.665 355 305.25V290.75C355 290.335 354.665 290 354.25 290H339.75ZM351.325 296.5C351.733 296.5 352.095 296.525 352.41 296.574C352.707 296.619 352.999 296.695 353.281 296.801V298.439C353.146 298.346 353.002 298.265 352.852 298.199C352.697 298.129 352.537 298.071 352.374 298.025C352.064 297.939 351.745 297.894 351.423 297.892C351.223 297.892 351.041 297.911 350.877 297.949C350.731 297.981 350.591 298.035 350.462 298.111C350.349 298.18 350.262 298.263 350.2 298.36C350.138 298.457 350.105 298.571 350.107 298.687C350.107 298.817 350.142 298.935 350.211 299.039C350.28 299.143 350.379 299.242 350.506 299.335C350.633 299.429 350.788 299.519 350.97 299.609C351.152 299.699 351.358 299.791 351.587 299.886C351.901 300.017 352.182 300.157 352.431 300.305C352.681 300.453 352.895 300.62 353.073 300.807C353.252 300.993 353.388 301.205 353.483 301.445C353.577 301.684 353.625 301.962 353.625 302.28C353.625 302.718 353.542 303.087 353.377 303.384C353.215 303.677 352.983 303.926 352.702 304.107C352.399 304.3 352.063 304.434 351.711 304.505C351.333 304.585 350.935 304.625 350.517 304.625C350.106 304.626 349.695 304.59 349.291 304.515C348.941 304.455 348.601 304.344 348.283 304.187V302.433C348.885 302.946 349.65 303.229 350.441 303.233C350.663 303.233 350.857 303.213 351.022 303.173C351.188 303.133 351.326 303.077 351.437 303.007C351.548 302.935 351.631 302.851 351.686 302.753C351.747 302.64 351.775 302.512 351.766 302.383C351.758 302.255 351.713 302.131 351.637 302.027C351.538 301.896 351.416 301.783 351.279 301.694C351.108 301.581 350.928 301.482 350.741 301.398C350.519 301.297 350.295 301.2 350.069 301.107C349.457 300.852 349.001 300.539 348.701 300.171C348.401 299.802 348.25 299.356 348.25 298.834C348.25 298.425 348.332 298.073 348.496 297.779C348.66 297.485 348.883 297.243 349.165 297.053C349.464 296.856 349.796 296.714 350.145 296.634C350.532 296.543 350.928 296.498 351.325 296.5V296.5ZM341.25 296.625H347.625V298.069H345.337V304.5H343.526V298.069H341.25V296.625Z" fill="#94A3B8"/>
<path d="M380.5 106C380.5 105.172 379.828 104.5 379 104.5C378.172 104.5 377.5 105.172 377.5 106H380.5ZM235.939 240.061C236.525 240.646 237.475 240.646 238.061 240.061L247.607 230.515C248.192 229.929 248.192 228.979 247.607 228.393C247.021 227.808 246.071 227.808 245.485 228.393L237 236.879L228.515 228.393C227.929 227.808 226.979 227.808 226.393 228.393C225.808 228.979 225.808 229.929 226.393 230.515L235.939 240.061ZM377.5 106V148.5H380.5V106H377.5ZM355 171H261V174H355V171ZM235.5 196.5V239H238.5V196.5H235.5ZM261 171C246.917 171 235.5 182.417 235.5 196.5H238.5C238.5 184.074 248.574 174 261 174V171ZM377.5 148.5C377.5 160.926 367.426 171 355 171V174C369.083 174 380.5 162.583 380.5 148.5H377.5Z" fill="#94A3B8"/>
<path d="M118.5 106C118.5 105.172 117.828 104.5 117 104.5C116.172 104.5 115.5 105.172 115.5 106H118.5ZM235.939 240.061C236.525 240.646 237.475 240.646 238.061 240.061L247.607 230.515C248.192 229.929 248.192 228.979 247.607 228.393C247.021 227.808 246.071 227.808 245.485 228.393L237 236.879L228.515 228.393C227.929 227.808 226.979 227.808 226.393 228.393C225.808 228.979 225.808 229.929 226.393 230.515L235.939 240.061ZM115.5 106V168.001H118.5V106H115.5ZM141 193.501H213V190.501H141V193.501ZM235.5 216.001V239H238.5V216.001H235.5ZM213 193.501C225.426 193.501 235.5 203.574 235.5 216.001H238.5C238.5 201.917 227.083 190.501 213 190.501V193.501ZM115.5 168.001C115.5 182.084 126.917 193.501 141 193.501V190.501C128.574 190.501 118.5 180.427 118.5 168.001H115.5Z" fill="#94A3B8"/>
<path d="M449 94.0343C448.767 94.1223 448.51 94.1221 448.277 94.0337C448.045 93.9453 447.852 93.7747 447.737 93.5543L445.437 90.3736L445.103 89.9289L442.435 93.5583C442.326 93.7695 442.144 93.9339 441.923 94.0208C441.702 94.1077 441.457 94.111 441.233 94.0303L444.672 89.4169L441.473 85.2496C441.703 85.1667 441.955 85.1656 442.186 85.2465C442.416 85.3274 442.612 85.4853 442.74 85.6936L445.124 88.9136L447.521 85.7069C447.631 85.4995 447.813 85.3395 448.033 85.2574C448.252 85.1752 448.495 85.1768 448.713 85.2616L447.472 86.9089L445.791 89.0976C445.744 89.1393 445.707 89.1903 445.681 89.2474C445.655 89.3045 445.642 89.3664 445.642 89.4289C445.642 89.4915 445.655 89.5534 445.681 89.6105C445.707 89.6676 445.744 89.7186 445.791 89.7603L448.993 94.0349L449 94.0343ZM433.001 89.3596L433.281 87.9763C434.051 85.2409 437.187 84.1029 439.344 85.7963C440.607 86.7889 440.923 88.1943 440.861 89.7783H433.744C433.629 92.6069 435.67 94.3149 438.28 93.4423C438.703 93.29 439.082 93.0351 439.382 92.7005C439.683 92.3659 439.895 91.9619 440.001 91.5249C440.139 91.0809 440.367 91.0049 440.784 91.1329C440.714 91.6745 440.523 92.1933 440.224 92.6502C439.925 93.1071 439.526 93.4903 439.058 93.7709C438.284 94.1941 437.397 94.3619 436.522 94.2502C435.647 94.1385 434.83 93.753 434.187 93.1489C433.552 92.4339 433.168 91.5306 433.094 90.5769C433.094 90.4203 433.041 90.2736 433.005 90.1329C433.001 89.8754 433 89.6178 433 89.3603L433.001 89.3596ZM433.753 89.1689H440.189C440.149 87.1183 438.855 85.6636 437.129 85.6503C435.207 85.6236 433.833 87.0463 433.748 89.1596L433.753 89.1689Z" fill="white"/>
<path d="M176.999 97.0428C176.758 97.0428 176.517 96.9796 176.306 96.8571L174.099 95.5512C173.769 95.3671 173.93 95.3016 174.038 95.2633C174.478 95.1107 174.567 95.0754 175.037 94.8092C175.086 94.7814 175.15 94.7919 175.201 94.822L176.897 95.8286C176.958 95.8625 177.045 95.8625 177.101 95.8286L183.713 92.0126C183.775 91.9773 183.814 91.9066 183.814 91.8337V84.2032C183.814 84.1288 183.774 84.0589 183.711 84.0213L177.102 80.2083C177.041 80.173 176.96 80.173 176.898 80.2083L170.291 84.022C170.227 84.0589 170.186 84.131 170.186 84.2032V91.8337C170.186 91.9066 170.227 91.9758 170.291 92.0104L172.102 93.0569C173.084 93.5485 173.687 92.9696 173.687 92.3878V84.8542C173.687 84.7475 173.772 84.6641 173.879 84.6641H174.717C174.822 84.6641 174.909 84.7482 174.909 84.8542V92.3878C174.909 93.6996 174.195 94.4514 172.951 94.4514C172.569 94.4514 172.268 94.4514 171.428 94.0372L169.693 93.0396C169.265 92.7922 169 92.3291 169 91.8337V84.2032C169 83.7078 169.265 83.2447 169.693 82.9981L176.305 79.1776C176.724 78.9408 177.279 78.9408 177.694 79.1776L184.305 82.9981C184.734 83.2455 185 83.7078 185 84.2032V91.8337C185 92.3291 184.734 92.7907 184.305 93.0396L177.694 96.8571C177.484 96.9796 177.244 97.0428 176.999 97.0428ZM182.337 89.5198C182.337 88.0914 181.372 87.711 179.34 87.4426C177.287 87.1712 177.078 87.0306 177.078 86.5503C177.078 86.1533 177.254 85.6233 178.775 85.6233C180.134 85.6233 180.634 85.9158 180.84 86.8314C180.858 86.9179 180.937 86.981 181.026 86.981H181.884C181.937 86.981 181.988 86.9577 182.024 86.9201C182.06 86.8795 182.079 86.8277 182.074 86.7728C181.941 85.1956 180.893 84.4603 178.775 84.4603C176.89 84.4603 175.765 85.2557 175.765 86.5901C175.765 88.0373 176.884 88.4372 178.693 88.6161C180.858 88.8281 181.026 89.1446 181.026 89.5701C181.026 90.3091 180.433 90.6241 179.04 90.6241C177.291 90.6241 176.906 90.1851 176.776 89.3145C176.761 89.2213 176.682 89.1529 176.586 89.1529H175.731C175.625 89.1529 175.54 89.2371 175.54 89.3431C175.54 90.4572 176.146 91.7849 179.04 91.7849C181.136 91.7856 182.337 90.9609 182.337 89.5198Z" fill="white"/>
</svg>
