<svg role="img" viewBox="0 0 24 24" xmlns="http://www.w3.org/2000/svg"><title>C#</title><path d="M1.194 7.543v8.913c0 1.103.588 2.122 1.544 2.674l7.718 4.456a3.086 3.086 0 0 0 3.088 0l7.718-4.456a3.087 3.087 0 0 0 1.544-2.674V7.543a3.084 3.084 0 0 0-1.544-2.673L13.544.414a3.086 3.086 0 0 0-3.088 0L2.738 4.87a3.085 3.085 0 0 0-1.544 2.673Zm5.403 2.914v3.087a.77.77 0 0 0 .772.772.773.773 0 0 0 .772-.772.773.773 0 0 1 1.317-.546.775.775 0 0 1 .226.546 2.314 2.314 0 1 1-4.631 0v-3.087c0-.615.244-1.203.679-1.637a2.312 2.312 0 0 1 3.274 0c.434.434.678 1.023.678 1.637a.769.769 0 0 1-.226.545.767.767 0 0 1-1.091 0 .77.77 0 0 1-.226-.545.77.77 0 0 0-.772-.772.771.771 0 0 0-.772.772Zm12.35 3.087a.77.77 0 0 1-.772.772h-.772v.772a.773.773 0 0 1-1.544 0v-.772h-1.544v.772a.773.773 0 0 1-1.317.546.775.775 0 0 1-.226-.546v-.772H12a.771.771 0 1 1 0-1.544h.772v-1.543H12a.77.77 0 1 1 0-1.544h.772v-.772a.773.773 0 0 1 1.317-.546.775.775 0 0 1 .226.546v.772h1.544v-.772a.773.773 0 0 1 1.544 0v.772h.772a.772.772 0 0 1 0 1.544h-.772v1.543h.772a.776.776 0 0 1 .772.772Zm-3.088-2.315h-1.544v1.543h1.544v-1.543Z"/></svg>