<svg width="24" height="24" viewBox="0 0 24 24" fill="none" xmlns="http://www.w3.org/2000/svg">
<g clip-path="url(#clip0_1244_718)">
<path d="M9.35205 3.72154V7.35041L12.0002 8.93803M9.35205 3.72154L12.0002 2.13391L14.6483 3.72154M9.35205 3.72154L12.0002 5.08236M12.0002 8.93803L14.6483 7.35041V3.72154M12.0002 8.93803V5.08236M14.6483 3.72154L12.0002 5.08236" stroke="black" stroke-width="0.5" stroke-linejoin="round"/>
<path d="M8.3335 3.26804L12.0002 1L15.6668 3.26804V7.80412L12.0002 10.0722L8.3335 7.80412V3.26804Z" stroke="black" stroke-width="0.5" stroke-linejoin="round"/>
<path d="M2.01855 15.2888V18.9177L4.6667 20.5053M2.01855 15.2888L4.6667 13.7012L7.31485 15.2888M2.01855 15.2888L4.6667 16.8764M4.6667 20.5053L7.31485 18.9177V15.2888M4.6667 20.5053V16.8764M7.31485 15.2888L4.6667 16.8764" stroke="black" stroke-width="0.5" stroke-linejoin="round"/>
<path d="M1 14.8349L4.66667 12.5669L8.33333 14.8349V19.371L4.66667 21.6391L1 19.371V14.8349Z" stroke="black" stroke-width="0.5" stroke-linejoin="round"/>
<path d="M16.6855 15.2888V18.9177L19.3337 20.5053M16.6855 15.2888L19.3337 13.7012L21.9818 15.2888M16.6855 15.2888L19.3337 16.6496M19.3337 20.5053L21.9818 18.9177V15.2888M19.3337 20.5053V16.6496M21.9818 15.2888L19.3337 16.6496" stroke="black" stroke-width="0.5" stroke-linejoin="round"/>
<path d="M15.6665 14.8349L19.3332 12.5669L22.9998 14.8349V19.371L19.3332 21.6391L15.6665 19.371V14.8349Z" stroke="black" stroke-width="0.5" stroke-linejoin="round"/>
<path d="M8.33317 6.89685L4.6665 9.16489V12.567" stroke="black" stroke-width="0.5" stroke-linejoin="round"/>
<path d="M15.6668 6.89685L19.3335 9.16489V12.567" stroke="black" stroke-width="0.5" stroke-linejoin="round"/>
<path d="M7.51855 19.8248L12 23.0001L16.4815 19.8248" stroke="black" stroke-width="0.5" stroke-linejoin="round"/>
</g>
<defs>
<clipPath id="clip0_1244_718">
<rect width="24" height="24" fill="white"/>
</clipPath>
</defs>
</svg>
