<svg width="730" height="260" viewBox="0 0 730 260" fill="none" xmlns="http://www.w3.org/2000/svg">
<rect x="59" y="101" width="67.2" height="38.4" rx="8" fill="#F43F5E"/>
<rect x="231.8" y="101" width="67.2" height="38.4" rx="8" fill="#94A3B8"/>
<rect x="141" y="173" width="67.2" height="38.4" rx="8" fill="#94A3B8"/>
<path d="M93.1 143.399C93.1 143.123 92.8761 142.899 92.6 142.899C92.3238 142.899 92.1 143.123 92.1 143.399H93.1ZM137.354 192.553C137.549 192.358 137.549 192.041 137.354 191.846L134.172 188.664C133.976 188.469 133.66 188.469 133.464 188.664C133.269 188.859 133.269 189.176 133.464 189.371L136.293 192.199L133.464 195.028C133.269 195.223 133.269 195.54 133.464 195.735C133.66 195.93 133.976 195.93 134.172 195.735L137.354 192.553ZM92.1 143.399V168.199H93.1V143.399H92.1ZM116.6 192.699H137V191.699H116.6V192.699ZM92.1 168.199C92.1 181.73 103.069 192.699 116.6 192.699V191.699C103.621 191.699 93.1 181.178 93.1 168.199H92.1Z" fill="#94A3B8"/>
<path d="M265.9 143.399C265.9 143.123 265.676 142.899 265.4 142.899C265.124 142.899 264.9 143.123 264.9 143.399H265.9ZM211.846 191.846C211.651 192.041 211.651 192.358 211.846 192.553L215.028 195.735C215.224 195.93 215.54 195.93 215.736 195.735C215.931 195.54 215.931 195.223 215.736 195.028L212.907 192.199L215.736 189.371C215.931 189.176 215.931 188.859 215.736 188.664C215.54 188.469 215.224 188.469 215.028 188.664L211.846 191.846ZM264.9 143.399V168.199H265.9V143.399H264.9ZM241.4 191.699H212.2V192.699H241.4V191.699ZM264.9 168.199C264.9 181.178 254.379 191.699 241.4 191.699V192.699C254.931 192.699 265.9 181.73 265.9 168.199H264.9Z" fill="#94A3B8"/>
<path d="M249.821 124H248.423L251.564 115.273H253.085L256.226 124H254.828L252.361 116.858H252.293L249.821 124ZM250.055 120.582H254.589V121.69H250.055V120.582ZM257.384 126.455V117.455H258.628V118.516H258.735C258.809 118.379 258.915 118.222 259.054 118.043C259.194 117.864 259.387 117.707 259.634 117.574C259.881 117.438 260.208 117.369 260.614 117.369C261.142 117.369 261.614 117.503 262.029 117.77C262.444 118.037 262.769 118.422 263.005 118.925C263.243 119.428 263.363 120.033 263.363 120.74C263.363 121.447 263.245 122.054 263.009 122.56C262.773 123.062 262.449 123.45 262.037 123.723C261.625 123.993 261.155 124.128 260.627 124.128C260.229 124.128 259.904 124.061 259.651 123.928C259.401 123.794 259.205 123.638 259.063 123.459C258.921 123.28 258.811 123.121 258.735 122.982H258.658V126.455H257.384ZM258.632 120.727C258.632 121.187 258.699 121.591 258.833 121.938C258.966 122.284 259.159 122.555 259.412 122.751C259.665 122.945 259.975 123.041 260.341 123.041C260.722 123.041 261.04 122.94 261.296 122.739C261.551 122.534 261.745 122.257 261.875 121.908C262.009 121.558 262.076 121.165 262.076 120.727C262.076 120.295 262.01 119.908 261.88 119.564C261.752 119.22 261.559 118.949 261.3 118.75C261.044 118.551 260.725 118.452 260.341 118.452C259.972 118.452 259.659 118.547 259.404 118.737C259.151 118.928 258.959 119.193 258.828 119.534C258.698 119.875 258.632 120.273 258.632 120.727ZM264.79 126.455V117.455H266.034V118.516H266.141C266.215 118.379 266.321 118.222 266.461 118.043C266.6 117.864 266.793 117.707 267.04 117.574C267.287 117.438 267.614 117.369 268.02 117.369C268.549 117.369 269.02 117.503 269.435 117.77C269.85 118.037 270.175 118.422 270.411 118.925C270.65 119.428 270.769 120.033 270.769 120.74C270.769 121.447 270.651 122.054 270.415 122.56C270.179 123.062 269.855 123.45 269.444 123.723C269.032 123.993 268.561 124.128 268.033 124.128C267.635 124.128 267.31 124.061 267.057 123.928C266.807 123.794 266.611 123.638 266.469 123.459C266.327 123.28 266.218 123.121 266.141 122.982H266.064V126.455H264.79ZM266.039 120.727C266.039 121.187 266.105 121.591 266.239 121.938C266.373 122.284 266.566 122.555 266.819 122.751C267.071 122.945 267.381 123.041 267.748 123.041C268.128 123.041 268.446 122.94 268.702 122.739C268.958 122.534 269.151 122.257 269.282 121.908C269.415 121.558 269.482 121.165 269.482 120.727C269.482 120.295 269.417 119.908 269.286 119.564C269.158 119.22 268.965 118.949 268.706 118.75C268.451 118.551 268.131 118.452 267.748 118.452C267.378 118.452 267.066 118.547 266.81 118.737C266.557 118.928 266.365 119.193 266.235 119.534C266.104 119.875 266.039 120.273 266.039 120.727ZM275.355 124V123.045L278.308 119.986C278.624 119.653 278.884 119.362 279.088 119.112C279.295 118.859 279.45 118.619 279.553 118.392C279.655 118.165 279.706 117.923 279.706 117.668C279.706 117.378 279.638 117.128 279.501 116.918C279.365 116.705 279.179 116.541 278.943 116.428C278.707 116.311 278.442 116.253 278.146 116.253C277.834 116.253 277.561 116.317 277.328 116.445C277.095 116.572 276.916 116.753 276.791 116.986C276.666 117.219 276.604 117.491 276.604 117.804H275.347C275.347 117.273 275.469 116.808 275.713 116.411C275.957 116.013 276.293 115.705 276.719 115.486C277.145 115.264 277.629 115.153 278.172 115.153C278.72 115.153 279.203 115.263 279.621 115.482C280.041 115.697 280.369 115.993 280.605 116.368C280.841 116.74 280.959 117.161 280.959 117.629C280.959 117.953 280.898 118.27 280.776 118.58C280.656 118.889 280.447 119.234 280.149 119.615C279.851 119.993 279.436 120.452 278.905 120.991L277.17 122.807V122.871H281.099V124H275.355Z" fill="white"/>
<path d="M167.322 196V187.273H168.639V194.866H172.593V196H167.322ZM173.993 196V189.455H175.267V196H173.993ZM174.637 188.445C174.415 188.445 174.225 188.371 174.066 188.223C173.909 188.072 173.831 187.893 173.831 187.686C173.831 187.476 173.909 187.297 174.066 187.149C174.225 186.999 174.415 186.923 174.637 186.923C174.858 186.923 175.047 186.999 175.203 187.149C175.363 187.297 175.442 187.476 175.442 187.686C175.442 187.893 175.363 188.072 175.203 188.223C175.047 188.371 174.858 188.445 174.637 188.445ZM177.084 196V187.273H178.358V190.516H178.435C178.509 190.379 178.615 190.222 178.754 190.043C178.893 189.864 179.087 189.707 179.334 189.574C179.581 189.438 179.908 189.369 180.314 189.369C180.842 189.369 181.314 189.503 181.729 189.77C182.143 190.037 182.469 190.422 182.705 190.925C182.943 191.428 183.062 192.033 183.062 192.74C183.062 193.447 182.945 194.054 182.709 194.56C182.473 195.062 182.149 195.45 181.737 195.723C181.325 195.993 180.855 196.128 180.327 196.128C179.929 196.128 179.604 196.061 179.351 195.928C179.101 195.794 178.905 195.638 178.763 195.459C178.621 195.28 178.511 195.121 178.435 194.982H178.328V196H177.084ZM178.332 192.727C178.332 193.187 178.399 193.591 178.533 193.938C178.666 194.284 178.859 194.555 179.112 194.751C179.365 194.945 179.675 195.041 180.041 195.041C180.422 195.041 180.74 194.94 180.996 194.739C181.251 194.534 181.445 194.257 181.575 193.908C181.709 193.558 181.776 193.165 181.776 192.727C181.776 192.295 181.71 191.908 181.58 191.564C181.452 191.22 181.259 190.949 181 190.75C180.744 190.551 180.425 190.452 180.041 190.452C179.672 190.452 179.359 190.547 179.104 190.737C178.851 190.928 178.659 191.193 178.528 191.534C178.398 191.875 178.332 192.273 178.332 192.727Z" fill="white"/>
<path d="M79.1648 124H77.767L80.9077 115.273H82.429L85.5696 124H84.1719L81.7045 116.858H81.6364L79.1648 124ZM79.3991 120.582H83.9332V121.69H79.3991V120.582ZM86.7276 126.455V117.455H87.9719V118.516H88.0785C88.1523 118.379 88.2589 118.222 88.3981 118.043C88.5373 117.864 88.7305 117.707 88.9776 117.574C89.2248 117.438 89.5515 117.369 89.9577 117.369C90.4862 117.369 90.9577 117.503 91.3725 117.77C91.7873 118.037 92.1126 118.422 92.3484 118.925C92.587 119.428 92.7063 120.033 92.7063 120.74C92.7063 121.447 92.5884 122.054 92.3526 122.56C92.1168 123.062 91.793 123.45 91.381 123.723C90.9691 123.993 90.4989 124.128 89.9705 124.128C89.5728 124.128 89.2475 124.061 88.9947 123.928C88.7447 123.794 88.5487 123.638 88.4066 123.459C88.2646 123.28 88.1552 123.121 88.0785 122.982H88.0018V126.455H86.7276ZM87.9762 120.727C87.9762 121.187 88.043 121.591 88.1765 121.938C88.31 122.284 88.5032 122.555 88.756 122.751C89.0089 122.945 89.3185 123.041 89.685 123.041C90.0657 123.041 90.3839 122.94 90.6396 122.739C90.8952 122.534 91.0884 122.257 91.2191 121.908C91.3526 121.558 91.4194 121.165 91.4194 120.727C91.4194 120.295 91.354 119.908 91.2234 119.564C91.0955 119.22 90.9023 118.949 90.6438 118.75C90.3881 118.551 90.0685 118.452 89.685 118.452C89.3157 118.452 89.0032 118.547 88.7475 118.737C88.4947 118.928 88.3029 119.193 88.1722 119.534C88.0415 119.875 87.9762 120.273 87.9762 120.727ZM94.1339 126.455V117.455H95.3782V118.516H95.4847C95.5586 118.379 95.6651 118.222 95.8043 118.043C95.9435 117.864 96.1367 117.707 96.3839 117.574C96.631 117.438 96.9577 117.369 97.364 117.369C97.8924 117.369 98.364 117.503 98.7788 117.77C99.1935 118.037 99.5188 118.422 99.7546 118.925C99.9933 119.428 100.113 120.033 100.113 120.74C100.113 121.447 99.9947 122.054 99.7589 122.56C99.5231 123.062 99.1992 123.45 98.7873 123.723C98.3754 123.993 97.9052 124.128 97.3768 124.128C96.979 124.128 96.6538 124.061 96.4009 123.928C96.1509 123.794 95.9549 123.638 95.8129 123.459C95.6708 123.28 95.5614 123.121 95.4847 122.982H95.408V126.455H94.1339ZM95.3825 120.727C95.3825 121.187 95.4492 121.591 95.5827 121.938C95.7163 122.284 95.9094 122.555 96.1623 122.751C96.4151 122.945 96.7248 123.041 97.0913 123.041C97.4719 123.041 97.7901 122.94 98.0458 122.739C98.3015 122.534 98.4947 122.257 98.6254 121.908C98.7589 121.558 98.8256 121.165 98.8256 120.727C98.8256 120.295 98.7603 119.908 98.6296 119.564C98.5018 119.22 98.3086 118.949 98.0501 118.75C97.7944 118.551 97.4748 118.452 97.0913 118.452C96.7219 118.452 96.4094 118.547 96.1538 118.737C95.9009 118.928 95.7092 119.193 95.5785 119.534C95.4478 119.875 95.3825 120.273 95.3825 120.727ZM108.01 115.273V124H106.689V116.594H106.638L104.55 117.957V116.696L106.727 115.273H108.01Z" fill="white"/>
<path d="M111.326 58.1477H109.553C109.485 57.7689 109.358 57.4356 109.173 57.1477C108.987 56.8598 108.76 56.6155 108.491 56.4148C108.222 56.214 107.921 56.0625 107.587 55.9602C107.258 55.858 106.907 55.8068 106.536 55.8068C105.866 55.8068 105.265 55.9754 104.735 56.3125C104.209 56.6496 103.792 57.1439 103.485 57.7955C103.182 58.447 103.031 59.2424 103.031 60.1818C103.031 61.1288 103.182 61.928 103.485 62.5795C103.792 63.2311 104.21 63.7235 104.741 64.0568C105.271 64.3902 105.868 64.5568 106.531 64.5568C106.898 64.5568 107.246 64.5076 107.576 64.4091C107.909 64.3068 108.21 64.1572 108.479 63.9602C108.748 63.7633 108.976 63.5227 109.161 63.2386C109.351 62.9508 109.481 62.6212 109.553 62.25L111.326 62.2557C111.231 62.8277 111.048 63.3542 110.775 63.8352C110.506 64.3125 110.159 64.7254 109.735 65.0739C109.315 65.4186 108.834 65.6856 108.292 65.875C107.75 66.0644 107.159 66.1591 106.519 66.1591C105.512 66.1591 104.614 65.9205 103.826 65.4432C103.038 64.9621 102.417 64.2746 101.962 63.3807C101.512 62.4867 101.286 61.4205 101.286 60.1818C101.286 58.9394 101.513 57.8731 101.968 56.983C102.423 56.089 103.044 55.4034 103.832 54.9261C104.62 54.4451 105.515 54.2045 106.519 54.2045C107.137 54.2045 107.712 54.2936 108.246 54.4716C108.784 54.6458 109.267 54.9034 109.695 55.2443C110.123 55.5814 110.478 55.9943 110.758 56.483C111.038 56.9678 111.228 57.5227 111.326 58.1477ZM114.989 60.8182V66H113.29V54.3636H114.967V58.6932H115.075C115.279 58.2235 115.592 57.8504 116.012 57.5739C116.433 57.2973 116.982 57.1591 117.66 57.1591C118.258 57.1591 118.781 57.2822 119.228 57.5284C119.679 57.7746 120.027 58.142 120.273 58.6307C120.523 59.1155 120.648 59.7216 120.648 60.4489V66H118.95V60.6534C118.95 60.0133 118.785 59.517 118.455 59.1648C118.126 58.8087 117.667 58.6307 117.08 58.6307C116.679 58.6307 116.319 58.7159 116.001 58.8864C115.686 59.0568 115.438 59.3068 115.256 59.6364C115.078 59.9621 114.989 60.3561 114.989 60.8182ZM125.455 66.1932C124.902 66.1932 124.402 66.0909 123.955 65.8864C123.508 65.678 123.154 65.3769 122.893 64.983C122.635 64.589 122.506 64.1061 122.506 63.5341C122.506 63.0417 122.601 62.6364 122.79 62.3182C122.98 62 123.236 61.7481 123.558 61.5625C123.879 61.3769 124.239 61.2367 124.637 61.142C125.035 61.0473 125.44 60.9754 125.853 60.9261C126.376 60.8655 126.8 60.8163 127.126 60.7784C127.451 60.7367 127.688 60.6705 127.836 60.5795C127.984 60.4886 128.058 60.3409 128.058 60.1364V60.0966C128.058 59.6004 127.917 59.2159 127.637 58.9432C127.361 58.6705 126.948 58.5341 126.398 58.5341C125.826 58.5341 125.376 58.661 125.046 58.9148C124.72 59.1648 124.495 59.4432 124.37 59.75L122.773 59.3864C122.963 58.8561 123.239 58.428 123.603 58.1023C123.97 57.7727 124.393 57.5341 124.87 57.3864C125.347 57.2348 125.849 57.1591 126.376 57.1591C126.724 57.1591 127.094 57.2008 127.484 57.2841C127.878 57.3636 128.245 57.5114 128.586 57.7273C128.931 57.9432 129.213 58.2519 129.433 58.6534C129.652 59.0511 129.762 59.5682 129.762 60.2045V66H128.103V64.8068H128.035C127.925 65.0265 127.76 65.2424 127.54 65.4545C127.321 65.6667 127.039 65.8428 126.694 65.983C126.349 66.1231 125.936 66.1932 125.455 66.1932ZM125.825 64.8295C126.294 64.8295 126.696 64.7367 127.029 64.5511C127.366 64.3655 127.622 64.1231 127.796 63.8239C127.974 63.5208 128.063 63.197 128.063 62.8523V61.7273C128.003 61.7879 127.885 61.8447 127.711 61.8977C127.54 61.947 127.345 61.9905 127.126 62.0284C126.906 62.0625 126.692 62.0947 126.484 62.125C126.275 62.1515 126.101 62.1742 125.961 62.1932C125.631 62.2348 125.33 62.3049 125.058 62.4034C124.789 62.5019 124.573 62.6439 124.41 62.8295C124.251 63.0114 124.171 63.2538 124.171 63.5568C124.171 63.9773 124.326 64.2955 124.637 64.5114C124.948 64.7235 125.344 64.8295 125.825 64.8295ZM133.724 60.8182V66H132.025V57.2727H133.656V58.6932H133.763C133.964 58.2311 134.279 57.8598 134.707 57.5795C135.138 57.2992 135.682 57.1591 136.337 57.1591C136.932 57.1591 137.453 57.2841 137.9 57.5341C138.347 57.7803 138.693 58.1477 138.94 58.6364C139.186 59.125 139.309 59.7292 139.309 60.4489V66H137.61V60.6534C137.61 60.0208 137.445 59.5265 137.116 59.1705C136.786 58.8106 136.334 58.6307 135.758 58.6307C135.364 58.6307 135.013 58.7159 134.707 58.8864C134.404 59.0568 134.163 59.3068 133.985 59.6364C133.811 59.9621 133.724 60.3561 133.724 60.8182ZM145.246 69.4545C144.553 69.4545 143.957 69.3636 143.457 69.1818C142.96 69 142.555 68.7595 142.241 68.4602C141.926 68.161 141.692 67.8333 141.536 67.4773L142.996 66.875C143.099 67.0417 143.235 67.2178 143.406 67.4034C143.58 67.5928 143.815 67.7538 144.11 67.8864C144.409 68.0189 144.794 68.0852 145.263 68.0852C145.907 68.0852 146.44 67.928 146.86 67.6136C147.281 67.303 147.491 66.8068 147.491 66.125V64.4091H147.383C147.281 64.5947 147.133 64.8011 146.94 65.0284C146.75 65.2557 146.489 65.4527 146.156 65.6193C145.822 65.786 145.388 65.8693 144.854 65.8693C144.165 65.8693 143.544 65.7083 142.991 65.3864C142.442 65.0606 142.006 64.5814 141.684 63.9489C141.366 63.3125 141.207 62.5303 141.207 61.6023C141.207 60.6742 141.364 59.8788 141.678 59.2159C141.996 58.553 142.432 58.0455 142.985 57.6932C143.538 57.3371 144.165 57.1591 144.866 57.1591C145.407 57.1591 145.845 57.25 146.178 57.4318C146.512 57.6098 146.771 57.8182 146.957 58.0568C147.146 58.2955 147.292 58.5057 147.394 58.6875H147.519V57.2727H149.184V66.1932C149.184 66.9432 149.01 67.5587 148.661 68.0398C148.313 68.5208 147.841 68.8769 147.246 69.108C146.656 69.339 145.989 69.4545 145.246 69.4545ZM145.229 64.4602C145.718 64.4602 146.131 64.3466 146.468 64.1193C146.809 63.8883 147.067 63.5587 147.241 63.1307C147.419 62.6989 147.508 62.1818 147.508 61.5795C147.508 60.9924 147.421 60.4754 147.246 60.0284C147.072 59.5814 146.817 59.233 146.479 58.983C146.142 58.7292 145.726 58.6023 145.229 58.6023C144.718 58.6023 144.292 58.7348 143.951 59C143.61 59.2614 143.353 59.6174 143.178 60.0682C143.008 60.5189 142.923 61.0227 142.923 61.5795C142.923 62.1515 143.01 62.6534 143.184 63.0852C143.358 63.517 143.616 63.8542 143.957 64.0966C144.301 64.339 144.726 64.4602 145.229 64.4602ZM151.462 66V57.2727H153.161V66H151.462ZM152.32 55.9261C152.025 55.9261 151.771 55.8277 151.559 55.6307C151.351 55.4299 151.246 55.1913 151.246 54.9148C151.246 54.6345 151.351 54.3958 151.559 54.1989C151.771 53.9981 152.025 53.8977 152.32 53.8977C152.616 53.8977 152.868 53.9981 153.076 54.1989C153.288 54.3958 153.394 54.6345 153.394 54.9148C153.394 55.1913 153.288 55.4299 153.076 55.6307C152.868 55.8277 152.616 55.9261 152.32 55.9261ZM157.146 60.8182V66H155.447V57.2727H157.077V58.6932H157.185C157.386 58.2311 157.701 57.8598 158.129 57.5795C158.56 57.2992 159.104 57.1591 159.759 57.1591C160.354 57.1591 160.875 57.2841 161.322 57.5341C161.769 57.7803 162.115 58.1477 162.362 58.6364C162.608 59.125 162.731 59.7292 162.731 60.4489V66H161.032V60.6534C161.032 60.0208 160.867 59.5265 160.538 59.1705C160.208 58.8106 159.755 58.6307 159.18 58.6307C158.786 58.6307 158.435 58.7159 158.129 58.8864C157.826 59.0568 157.585 59.3068 157.407 59.6364C157.233 59.9621 157.146 60.3561 157.146 60.8182ZM168.668 69.4545C167.975 69.4545 167.379 69.3636 166.879 69.1818C166.382 69 165.977 68.7595 165.663 68.4602C165.348 68.161 165.113 67.8333 164.958 67.4773L166.418 66.875C166.521 67.0417 166.657 67.2178 166.827 67.4034C167.002 67.5928 167.237 67.7538 167.532 67.8864C167.831 68.0189 168.216 68.0852 168.685 68.0852C169.329 68.0852 169.862 67.928 170.282 67.6136C170.702 67.303 170.913 66.8068 170.913 66.125V64.4091H170.805C170.702 64.5947 170.555 64.8011 170.362 65.0284C170.172 65.2557 169.911 65.4527 169.577 65.6193C169.244 65.786 168.81 65.8693 168.276 65.8693C167.587 65.8693 166.966 65.7083 166.413 65.3864C165.863 65.0606 165.428 64.5814 165.106 63.9489C164.788 63.3125 164.629 62.5303 164.629 61.6023C164.629 60.6742 164.786 59.8788 165.1 59.2159C165.418 58.553 165.854 58.0455 166.407 57.6932C166.96 57.3371 167.587 57.1591 168.288 57.1591C168.829 57.1591 169.267 57.25 169.6 57.4318C169.933 57.6098 170.193 57.8182 170.379 58.0568C170.568 58.2955 170.714 58.5057 170.816 58.6875H170.941V57.2727H172.606V66.1932C172.606 66.9432 172.432 67.5587 172.083 68.0398C171.735 68.5208 171.263 68.8769 170.668 69.108C170.077 69.339 169.411 69.4545 168.668 69.4545ZM168.651 64.4602C169.14 64.4602 169.553 64.3466 169.89 64.1193C170.231 63.8883 170.488 63.5587 170.663 63.1307C170.841 62.6989 170.93 62.1818 170.93 61.5795C170.93 60.9924 170.843 60.4754 170.668 60.0284C170.494 59.5814 170.238 59.233 169.901 58.983C169.564 58.7292 169.147 58.6023 168.651 58.6023C168.14 58.6023 167.714 58.7348 167.373 59C167.032 59.2614 166.774 59.6174 166.6 60.0682C166.43 60.5189 166.344 61.0227 166.344 61.5795C166.344 62.1515 166.432 62.6534 166.606 63.0852C166.78 63.517 167.038 63.8542 167.379 64.0966C167.723 64.339 168.147 64.4602 168.651 64.4602ZM181.658 66.1932C181.105 66.1932 180.605 66.0909 180.158 65.8864C179.711 65.678 179.357 65.3769 179.096 64.983C178.838 64.589 178.71 64.1061 178.71 63.5341C178.71 63.0417 178.804 62.6364 178.994 62.3182C179.183 62 179.439 61.7481 179.761 61.5625C180.083 61.3769 180.442 61.2367 180.84 61.142C181.238 61.0473 181.643 60.9754 182.056 60.9261C182.579 60.8655 183.003 60.8163 183.329 60.7784C183.655 60.7367 183.891 60.6705 184.039 60.5795C184.187 60.4886 184.261 60.3409 184.261 60.1364V60.0966C184.261 59.6004 184.121 59.2159 183.84 58.9432C183.564 58.6705 183.151 58.5341 182.602 58.5341C182.03 58.5341 181.579 58.661 181.249 58.9148C180.924 59.1648 180.698 59.4432 180.573 59.75L178.977 59.3864C179.166 58.8561 179.442 58.428 179.806 58.1023C180.174 57.7727 180.596 57.5341 181.073 57.3864C181.55 57.2348 182.052 57.1591 182.579 57.1591C182.927 57.1591 183.297 57.2008 183.687 57.2841C184.081 57.3636 184.448 57.5114 184.789 57.7273C185.134 57.9432 185.416 58.2519 185.636 58.6534C185.855 59.0511 185.965 59.5682 185.965 60.2045V66H184.306V64.8068H184.238C184.128 65.0265 183.963 65.2424 183.744 65.4545C183.524 65.6667 183.242 65.8428 182.897 65.983C182.552 66.1231 182.139 66.1932 181.658 66.1932ZM182.028 64.8295C182.497 64.8295 182.899 64.7367 183.232 64.5511C183.569 64.3655 183.825 64.1231 183.999 63.8239C184.177 63.5208 184.266 63.197 184.266 62.8523V61.7273C184.206 61.7879 184.088 61.8447 183.914 61.8977C183.744 61.947 183.549 61.9905 183.329 62.0284C183.109 62.0625 182.895 62.0947 182.687 62.125C182.478 62.1515 182.304 62.1742 182.164 62.1932C181.835 62.2348 181.533 62.3049 181.261 62.4034C180.992 62.5019 180.776 62.6439 180.613 62.8295C180.454 63.0114 180.374 63.2538 180.374 63.5568C180.374 63.9773 180.53 64.2955 180.84 64.5114C181.151 64.7235 181.547 64.8295 182.028 64.8295ZM188.228 69.2727V57.2727H189.887V58.6875H190.029C190.128 58.5057 190.27 58.2955 190.455 58.0568C190.641 57.8182 190.898 57.6098 191.228 57.4318C191.558 57.25 191.993 57.1591 192.535 57.1591C193.239 57.1591 193.868 57.3371 194.421 57.6932C194.974 58.0492 195.408 58.5625 195.722 59.233C196.04 59.9034 196.2 60.7102 196.2 61.6534C196.2 62.5966 196.042 63.4053 195.728 64.0795C195.414 64.75 194.982 65.267 194.433 65.6307C193.883 65.9905 193.256 66.1705 192.552 66.1705C192.022 66.1705 191.588 66.0814 191.251 65.9034C190.917 65.7254 190.656 65.517 190.467 65.2784C190.277 65.0398 190.131 64.8277 190.029 64.642H189.927V69.2727H188.228ZM189.893 61.6364C189.893 62.25 189.982 62.7879 190.16 63.25C190.338 63.7121 190.595 64.0739 190.933 64.3352C191.27 64.5928 191.683 64.7216 192.171 64.7216C192.679 64.7216 193.103 64.5871 193.444 64.3182C193.785 64.0455 194.042 63.6761 194.217 63.2102C194.395 62.7443 194.484 62.2197 194.484 61.6364C194.484 61.0606 194.397 60.5436 194.222 60.0852C194.052 59.6269 193.794 59.2652 193.45 59C193.109 58.7348 192.683 58.6023 192.171 58.6023C191.679 58.6023 191.262 58.7292 190.921 58.983C190.584 59.2367 190.328 59.5909 190.154 60.0455C189.98 60.5 189.893 61.0303 189.893 61.6364ZM198.103 69.2727V57.2727H199.762V58.6875H199.904C200.003 58.5057 200.145 58.2955 200.33 58.0568C200.516 57.8182 200.773 57.6098 201.103 57.4318C201.433 57.25 201.868 57.1591 202.41 57.1591C203.114 57.1591 203.743 57.3371 204.296 57.6932C204.849 58.0492 205.283 58.5625 205.597 59.233C205.915 59.9034 206.075 60.7102 206.075 61.6534C206.075 62.5966 205.917 63.4053 205.603 64.0795C205.289 64.75 204.857 65.267 204.308 65.6307C203.758 65.9905 203.131 66.1705 202.427 66.1705C201.897 66.1705 201.463 66.0814 201.126 65.9034C200.792 65.7254 200.531 65.517 200.342 65.2784C200.152 65.0398 200.006 64.8277 199.904 64.642H199.802V69.2727H198.103ZM199.768 61.6364C199.768 62.25 199.857 62.7879 200.035 63.25C200.213 63.7121 200.47 64.0739 200.808 64.3352C201.145 64.5928 201.558 64.7216 202.046 64.7216C202.554 64.7216 202.978 64.5871 203.319 64.3182C203.66 64.0455 203.917 63.6761 204.092 63.2102C204.27 62.7443 204.359 62.2197 204.359 61.6364C204.359 61.0606 204.272 60.5436 204.097 60.0852C203.927 59.6269 203.669 59.2652 203.325 59C202.984 58.7348 202.558 58.6023 202.046 58.6023C201.554 58.6023 201.137 58.7292 200.796 58.983C200.459 59.2367 200.203 59.5909 200.029 60.0455C199.855 60.5 199.768 61.0303 199.768 61.6364ZM212.37 54.3636V66H210.609V56.125H210.54L207.756 57.9432V56.2614L210.66 54.3636H212.37ZM223.451 66.1761C222.606 66.1761 221.879 65.9848 221.269 65.6023C220.663 65.2159 220.197 64.6837 219.871 64.0057C219.546 63.3277 219.383 62.5511 219.383 61.6761C219.383 60.7898 219.549 60.0076 219.883 59.3295C220.216 58.6477 220.686 58.1155 221.292 57.733C221.898 57.3504 222.612 57.1591 223.434 57.1591C224.097 57.1591 224.688 57.2822 225.207 57.5284C225.726 57.7708 226.144 58.1117 226.462 58.5511C226.784 58.9905 226.976 59.5038 227.036 60.0909H225.383C225.292 59.6818 225.084 59.3295 224.758 59.0341C224.436 58.7386 224.004 58.5909 223.462 58.5909C222.989 58.5909 222.574 58.7159 222.218 58.9659C221.866 59.2121 221.591 59.5644 221.394 60.0227C221.197 60.4773 221.099 61.0152 221.099 61.6364C221.099 62.2727 221.195 62.822 221.388 63.2841C221.582 63.7462 221.854 64.1042 222.207 64.358C222.563 64.6117 222.981 64.7386 223.462 64.7386C223.784 64.7386 224.076 64.6799 224.337 64.5625C224.603 64.4413 224.824 64.2689 225.002 64.0455C225.184 63.822 225.311 63.553 225.383 63.2386H227.036C226.976 63.803 226.792 64.3068 226.485 64.75C226.178 65.1932 225.767 65.5417 225.252 65.7955C224.741 66.0492 224.14 66.1761 223.451 66.1761ZM231.393 66.1932C230.84 66.1932 230.34 66.0909 229.893 65.8864C229.446 65.678 229.092 65.3769 228.83 64.983C228.573 64.589 228.444 64.1061 228.444 63.5341C228.444 63.0417 228.539 62.6364 228.728 62.3182C228.917 62 229.173 61.7481 229.495 61.5625C229.817 61.3769 230.177 61.2367 230.575 61.142C230.972 61.0473 231.378 60.9754 231.79 60.9261C232.313 60.8655 232.737 60.8163 233.063 60.7784C233.389 60.7367 233.626 60.6705 233.773 60.5795C233.921 60.4886 233.995 60.3409 233.995 60.1364V60.0966C233.995 59.6004 233.855 59.2159 233.575 58.9432C233.298 58.6705 232.885 58.5341 232.336 58.5341C231.764 58.5341 231.313 58.661 230.984 58.9148C230.658 59.1648 230.433 59.4432 230.308 59.75L228.711 59.3864C228.9 58.8561 229.177 58.428 229.54 58.1023C229.908 57.7727 230.33 57.5341 230.808 57.3864C231.285 57.2348 231.787 57.1591 232.313 57.1591C232.662 57.1591 233.031 57.2008 233.421 57.2841C233.815 57.3636 234.183 57.5114 234.523 57.7273C234.868 57.9432 235.15 58.2519 235.37 58.6534C235.59 59.0511 235.7 59.5682 235.7 60.2045V66H234.04V64.8068H233.972C233.862 65.0265 233.698 65.2424 233.478 65.4545C233.258 65.6667 232.976 65.8428 232.631 65.983C232.287 66.1231 231.874 66.1932 231.393 66.1932ZM231.762 64.8295C232.232 64.8295 232.633 64.7367 232.967 64.5511C233.304 64.3655 233.559 64.1231 233.734 63.8239C233.912 63.5208 234.001 63.197 234.001 62.8523V61.7273C233.94 61.7879 233.823 61.8447 233.648 61.8977C233.478 61.947 233.283 61.9905 233.063 62.0284C232.844 62.0625 232.629 62.0947 232.421 62.125C232.213 62.1515 232.039 62.1742 231.898 62.1932C231.569 62.2348 231.268 62.3049 230.995 62.4034C230.726 62.5019 230.51 62.6439 230.347 62.8295C230.188 63.0114 230.109 63.2538 230.109 63.5568C230.109 63.9773 230.264 64.2955 230.575 64.5114C230.885 64.7235 231.281 64.8295 231.762 64.8295ZM239.661 60.8182V66H237.962V57.2727H239.593V58.6932H239.701C239.902 58.2311 240.216 57.8598 240.644 57.5795C241.076 57.2992 241.62 57.1591 242.275 57.1591C242.87 57.1591 243.39 57.2841 243.837 57.5341C244.284 57.7803 244.631 58.1477 244.877 58.6364C245.123 59.125 245.246 59.7292 245.246 60.4489V66H243.548V60.6534C243.548 60.0208 243.383 59.5265 243.053 59.1705C242.724 58.8106 242.271 58.6307 241.695 58.6307C241.301 58.6307 240.951 58.7159 240.644 58.8864C240.341 59.0568 240.101 59.3068 239.923 59.6364C239.748 59.9621 239.661 60.3561 239.661 60.8182ZM119.248 85.1761C118.43 85.1761 117.716 84.9886 117.106 84.6136C116.496 84.2386 116.022 83.714 115.685 83.0398C115.348 82.3655 115.18 81.5777 115.18 80.6761C115.18 79.7708 115.348 78.9792 115.685 78.3011C116.022 77.6231 116.496 77.0966 117.106 76.7216C117.716 76.3466 118.43 76.1591 119.248 76.1591C120.066 76.1591 120.78 76.3466 121.39 76.7216C122 77.0966 122.473 77.6231 122.81 78.3011C123.147 78.9792 123.316 79.7708 123.316 80.6761C123.316 81.5777 123.147 82.3655 122.81 83.0398C122.473 83.714 122 84.2386 121.39 84.6136C120.78 84.9886 120.066 85.1761 119.248 85.1761ZM119.254 83.75C119.784 83.75 120.223 83.6098 120.572 83.3295C120.92 83.0492 121.178 82.6761 121.344 82.2102C121.515 81.7443 121.6 81.2311 121.6 80.6705C121.6 80.1136 121.515 79.6023 121.344 79.1364C121.178 78.6667 120.92 78.2898 120.572 78.0057C120.223 77.7216 119.784 77.5795 119.254 77.5795C118.719 77.5795 118.276 77.7216 117.924 78.0057C117.576 78.2898 117.316 78.6667 117.146 79.1364C116.979 79.6023 116.896 80.1136 116.896 80.6705C116.896 81.2311 116.979 81.7443 117.146 82.2102C117.316 82.6761 117.576 83.0492 117.924 83.3295C118.276 83.6098 118.719 83.75 119.254 83.75ZM126.911 79.8182V85H125.212V76.2727H126.843V77.6932H126.951C127.152 77.2311 127.466 76.8598 127.894 76.5795C128.326 76.2992 128.87 76.1591 129.525 76.1591C130.12 76.1591 130.64 76.2841 131.087 76.5341C131.534 76.7803 131.881 77.1477 132.127 77.6364C132.373 78.125 132.496 78.7292 132.496 79.4489V85H130.798V79.6534C130.798 79.0208 130.633 78.5265 130.303 78.1705C129.974 77.8106 129.521 77.6307 128.945 77.6307C128.551 77.6307 128.201 77.7159 127.894 77.8864C127.591 78.0568 127.351 78.3068 127.173 78.6364C126.998 78.9621 126.911 79.3561 126.911 79.8182ZM136.474 73.3636V85H134.775V73.3636H136.474ZM139.833 88.2727C139.579 88.2727 139.348 88.2519 139.14 88.2102C138.932 88.1723 138.776 88.1307 138.674 88.0852L139.083 86.6932C139.394 86.7765 139.67 86.8125 139.913 86.8011C140.155 86.7898 140.369 86.6989 140.555 86.5284C140.744 86.358 140.911 86.0795 141.055 85.6932L141.265 85.1136L138.072 76.2727H139.89L142.1 83.0455H142.191L144.401 76.2727H146.225L142.629 86.1648C142.462 86.6193 142.25 87.0038 141.992 87.3182C141.735 87.6364 141.428 87.875 141.072 88.0341C140.716 88.1932 140.303 88.2727 139.833 88.2727ZM154.596 85.1932C154.043 85.1932 153.543 85.0909 153.096 84.8864C152.649 84.678 152.295 84.3769 152.033 83.983C151.776 83.589 151.647 83.1061 151.647 82.5341C151.647 82.0417 151.742 81.6364 151.931 81.3182C152.121 81 152.376 80.7481 152.698 80.5625C153.02 80.3769 153.38 80.2367 153.778 80.142C154.175 80.0473 154.581 79.9754 154.994 79.9261C155.516 79.8655 155.941 79.8163 156.266 79.7784C156.592 79.7367 156.829 79.6705 156.977 79.5795C157.124 79.4886 157.198 79.3409 157.198 79.1364V79.0966C157.198 78.6004 157.058 78.2159 156.778 77.9432C156.501 77.6705 156.088 77.5341 155.539 77.5341C154.967 77.5341 154.516 77.661 154.187 77.9148C153.861 78.1648 153.636 78.4432 153.511 78.75L151.914 78.3864C152.103 77.8561 152.38 77.428 152.744 77.1023C153.111 76.7727 153.533 76.5341 154.011 76.3864C154.488 76.2348 154.99 76.1591 155.516 76.1591C155.865 76.1591 156.234 76.2008 156.624 76.2841C157.018 76.3636 157.386 76.5114 157.727 76.7273C158.071 76.9432 158.353 77.2519 158.573 77.6534C158.793 78.0511 158.903 78.5682 158.903 79.2045V85H157.244V83.8068H157.175C157.066 84.0265 156.901 84.2424 156.681 84.4545C156.461 84.6667 156.179 84.8428 155.835 84.983C155.49 85.1231 155.077 85.1932 154.596 85.1932ZM154.965 83.8295C155.435 83.8295 155.836 83.7367 156.17 83.5511C156.507 83.3655 156.763 83.1231 156.937 82.8239C157.115 82.5208 157.204 82.197 157.204 81.8523V80.7273C157.143 80.7879 157.026 80.8447 156.852 80.8977C156.681 80.947 156.486 80.9905 156.266 81.0284C156.047 81.0625 155.833 81.0947 155.624 81.125C155.416 81.1515 155.242 81.1742 155.102 81.1932C154.772 81.2348 154.471 81.3049 154.198 81.4034C153.929 81.5019 153.713 81.6439 153.55 81.8295C153.391 82.0114 153.312 82.2538 153.312 82.5568C153.312 82.9773 153.467 83.2955 153.778 83.5114C154.088 83.7235 154.484 83.8295 154.965 83.8295ZM165.319 76.2727V77.6364H160.387V76.2727H165.319ZM161.739 85V75.2614C161.739 74.7159 161.859 74.2633 162.097 73.9034C162.336 73.5398 162.652 73.2689 163.046 73.0909C163.44 72.9091 163.868 72.8182 164.33 72.8182C164.671 72.8182 164.963 72.8466 165.205 72.9034C165.448 72.9564 165.628 73.0057 165.745 73.0511L165.347 74.4261C165.268 74.4034 165.165 74.3769 165.04 74.3466C164.915 74.3125 164.764 74.2955 164.586 74.2955C164.173 74.2955 163.878 74.3977 163.7 74.6023C163.525 74.8068 163.438 75.1023 163.438 75.4886V85H161.739ZM171.225 76.2727V77.6364H166.293V76.2727H171.225ZM167.646 85V75.2614C167.646 74.7159 167.765 74.2633 168.004 73.9034C168.242 73.5398 168.558 73.2689 168.952 73.0909C169.346 72.9091 169.774 72.8182 170.237 72.8182C170.577 72.8182 170.869 72.8466 171.112 72.9034C171.354 72.9564 171.534 73.0057 171.651 73.0511L171.254 74.4261C171.174 74.4034 171.072 74.3769 170.947 74.3466C170.822 74.3125 170.67 74.2955 170.492 74.2955C170.079 74.2955 169.784 74.3977 169.606 74.6023C169.432 74.8068 169.344 75.1023 169.344 75.4886V85H167.646ZM176.396 85.1761C175.536 85.1761 174.795 84.9924 174.174 84.625C173.557 84.2538 173.079 83.733 172.742 83.0625C172.409 82.3883 172.242 81.5985 172.242 80.6932C172.242 79.7992 172.409 79.0114 172.742 78.3295C173.079 77.6477 173.549 77.1155 174.151 76.733C174.757 76.3504 175.466 76.1591 176.276 76.1591C176.769 76.1591 177.246 76.2405 177.708 76.4034C178.17 76.5663 178.585 76.822 178.952 77.1705C179.32 77.5189 179.61 77.9716 179.822 78.5284C180.034 79.0814 180.14 79.7538 180.14 80.5455V81.1477H173.202V79.875H178.475C178.475 79.428 178.384 79.0322 178.202 78.6875C178.021 78.339 177.765 78.0644 177.435 77.8636C177.11 77.6629 176.727 77.5625 176.288 77.5625C175.81 77.5625 175.394 77.6799 175.038 77.9148C174.685 78.1458 174.413 78.4489 174.219 78.8239C174.03 79.1951 173.935 79.5985 173.935 80.0341V81.0284C173.935 81.6117 174.038 82.108 174.242 82.517C174.451 82.9261 174.74 83.2386 175.112 83.4545C175.483 83.6667 175.916 83.7727 176.413 83.7727C176.735 83.7727 177.028 83.7273 177.293 83.6364C177.558 83.5417 177.788 83.4015 177.981 83.2159C178.174 83.0303 178.322 82.8011 178.424 82.5284L180.032 82.8182C179.903 83.2917 179.672 83.7064 179.339 84.0625C179.009 84.4148 178.594 84.6894 178.094 84.8864C177.598 85.0795 177.032 85.1761 176.396 85.1761ZM185.701 85.1761C184.856 85.1761 184.129 84.9848 183.519 84.6023C182.913 84.2159 182.447 83.6837 182.121 83.0057C181.796 82.3277 181.633 81.5511 181.633 80.6761C181.633 79.7898 181.799 79.0076 182.133 78.3295C182.466 77.6477 182.936 77.1155 183.542 76.733C184.148 76.3504 184.862 76.1591 185.684 76.1591C186.347 76.1591 186.938 76.2822 187.457 76.5284C187.976 76.7708 188.394 77.1117 188.712 77.5511C189.034 77.9905 189.226 78.5038 189.286 79.0909H187.633C187.542 78.6818 187.334 78.3295 187.008 78.0341C186.686 77.7386 186.254 77.5909 185.712 77.5909C185.239 77.5909 184.824 77.7159 184.468 77.9659C184.116 78.2121 183.841 78.5644 183.644 79.0227C183.447 79.4773 183.349 80.0152 183.349 80.6364C183.349 81.2727 183.445 81.822 183.638 82.2841C183.832 82.7462 184.104 83.1042 184.457 83.358C184.813 83.6117 185.231 83.7386 185.712 83.7386C186.034 83.7386 186.326 83.6799 186.587 83.5625C186.853 83.4413 187.074 83.2689 187.252 83.0455C187.434 82.822 187.561 82.553 187.633 82.2386H189.286C189.226 82.803 189.042 83.3068 188.735 83.75C188.428 84.1932 188.017 84.5417 187.502 84.7955C186.991 85.0492 186.39 85.1761 185.701 85.1761ZM195.177 76.2727V77.6364H190.41V76.2727H195.177ZM191.688 74.1818H193.387V82.4375C193.387 82.767 193.436 83.0152 193.535 83.1818C193.633 83.3447 193.76 83.4564 193.915 83.517C194.075 83.5739 194.247 83.6023 194.433 83.6023C194.569 83.6023 194.688 83.5928 194.79 83.5739C194.893 83.5549 194.972 83.5398 195.029 83.5284L195.336 84.9318C195.237 84.9697 195.097 85.0076 194.915 85.0455C194.734 85.0871 194.506 85.1098 194.234 85.1136C193.787 85.1212 193.37 85.0417 192.984 84.875C192.597 84.7083 192.285 84.4508 192.046 84.1023C191.808 83.7538 191.688 83.3163 191.688 82.7898V74.1818ZM203.83 85.1932C203.277 85.1932 202.777 85.0909 202.33 84.8864C201.883 84.678 201.529 84.3769 201.268 83.983C201.01 83.589 200.881 83.1061 200.881 82.5341C200.881 82.0417 200.976 81.6364 201.165 81.3182C201.355 81 201.611 80.7481 201.933 80.5625C202.254 80.3769 202.614 80.2367 203.012 80.142C203.41 80.0473 203.815 79.9754 204.228 79.9261C204.751 79.8655 205.175 79.8163 205.501 79.7784C205.826 79.7367 206.063 79.6705 206.211 79.5795C206.359 79.4886 206.433 79.3409 206.433 79.1364V79.0966C206.433 78.6004 206.292 78.2159 206.012 77.9432C205.736 77.6705 205.323 77.5341 204.773 77.5341C204.201 77.5341 203.751 77.661 203.421 77.9148C203.095 78.1648 202.87 78.4432 202.745 78.75L201.148 78.3864C201.338 77.8561 201.614 77.428 201.978 77.1023C202.345 76.7727 202.768 76.5341 203.245 76.3864C203.722 76.2348 204.224 76.1591 204.751 76.1591C205.099 76.1591 205.469 76.2008 205.859 76.2841C206.253 76.3636 206.62 76.5114 206.961 76.7273C207.306 76.9432 207.588 77.2519 207.808 77.6534C208.027 78.0511 208.137 78.5682 208.137 79.2045V85H206.478V83.8068H206.41C206.3 84.0265 206.135 84.2424 205.915 84.4545C205.696 84.6667 205.414 84.8428 205.069 84.983C204.724 85.1231 204.311 85.1932 203.83 85.1932ZM204.2 83.8295C204.669 83.8295 205.071 83.7367 205.404 83.5511C205.741 83.3655 205.997 83.1231 206.171 82.8239C206.349 82.5208 206.438 82.197 206.438 81.8523V80.7273C206.378 80.7879 206.26 80.8447 206.086 80.8977C205.915 80.947 205.72 80.9905 205.501 81.0284C205.281 81.0625 205.067 81.0947 204.859 81.125C204.65 81.1515 204.476 81.1742 204.336 81.1932C204.006 81.2348 203.705 81.3049 203.433 81.4034C203.164 81.5019 202.948 81.6439 202.785 81.8295C202.626 82.0114 202.546 82.2538 202.546 82.5568C202.546 82.9773 202.701 83.2955 203.012 83.5114C203.323 83.7235 203.719 83.8295 204.2 83.8295ZM210.4 88.2727V76.2727H212.059V77.6875H212.201C212.299 77.5057 212.442 77.2955 212.627 77.0568C212.813 76.8182 213.07 76.6098 213.4 76.4318C213.729 76.25 214.165 76.1591 214.707 76.1591C215.411 76.1591 216.04 76.3371 216.593 76.6932C217.146 77.0492 217.58 77.5625 217.894 78.233C218.212 78.9034 218.371 79.7102 218.371 80.6534C218.371 81.5966 218.214 82.4053 217.9 83.0795C217.585 83.75 217.154 84.267 216.604 84.6307C216.055 84.9905 215.428 85.1705 214.724 85.1705C214.193 85.1705 213.76 85.0814 213.423 84.9034C213.089 84.7254 212.828 84.517 212.638 84.2784C212.449 84.0398 212.303 83.8277 212.201 83.642H212.099V88.2727H210.4ZM212.065 80.6364C212.065 81.25 212.154 81.7879 212.332 82.25C212.51 82.7121 212.767 83.0739 213.104 83.3352C213.442 83.5928 213.854 83.7216 214.343 83.7216C214.851 83.7216 215.275 83.5871 215.616 83.3182C215.957 83.0455 216.214 82.6761 216.388 82.2102C216.567 81.7443 216.656 81.2197 216.656 80.6364C216.656 80.0606 216.568 79.5436 216.394 79.0852C216.224 78.6269 215.966 78.2652 215.621 78C215.281 77.7348 214.854 77.6023 214.343 77.6023C213.851 77.6023 213.434 77.7292 213.093 77.983C212.756 78.2367 212.5 78.5909 212.326 79.0455C212.152 79.5 212.065 80.0303 212.065 80.6364ZM220.275 88.2727V76.2727H221.934V77.6875H222.076C222.174 77.5057 222.317 77.2955 222.502 77.0568C222.688 76.8182 222.945 76.6098 223.275 76.4318C223.604 76.25 224.04 76.1591 224.582 76.1591C225.286 76.1591 225.915 76.3371 226.468 76.6932C227.021 77.0492 227.455 77.5625 227.769 78.233C228.087 78.9034 228.246 79.7102 228.246 80.6534C228.246 81.5966 228.089 82.4053 227.775 83.0795C227.46 83.75 227.029 84.267 226.479 84.6307C225.93 84.9905 225.303 85.1705 224.599 85.1705C224.068 85.1705 223.635 85.0814 223.298 84.9034C222.964 84.7254 222.703 84.517 222.513 84.2784C222.324 84.0398 222.178 83.8277 222.076 83.642H221.974V88.2727H220.275ZM221.94 80.6364C221.94 81.25 222.029 81.7879 222.207 82.25C222.385 82.7121 222.642 83.0739 222.979 83.3352C223.317 83.5928 223.729 83.7216 224.218 83.7216C224.726 83.7216 225.15 83.5871 225.491 83.3182C225.832 83.0455 226.089 82.6761 226.263 82.2102C226.442 81.7443 226.531 81.2197 226.531 80.6364C226.531 80.0606 226.443 79.5436 226.269 79.0852C226.099 78.6269 225.841 78.2652 225.496 78C225.156 77.7348 224.729 77.6023 224.218 77.6023C223.726 77.6023 223.309 77.7292 222.968 77.983C222.631 78.2367 222.375 78.5909 222.201 79.0455C222.027 79.5 221.94 80.0303 221.94 80.6364ZM234.542 73.3636V85H232.781V75.125H232.712L229.928 76.9432V75.2614L232.832 73.3636H234.542Z" fill="#94A3B8"/>
<rect x="432" y="102" width="67.2" height="38.4" rx="8" fill="#94A3B8" stroke="#F43F5E" stroke-width="3" stroke-linecap="round" stroke-dasharray="8 8"/>
<rect x="604.8" y="102" width="67.2" height="38.4" rx="8" fill="#94A3B8" stroke="#F43F5E" stroke-width="3" stroke-linecap="round" stroke-dasharray="8 8"/>
<rect x="514" y="174" width="67.2" height="38.4" rx="8" fill="#F43F5E"/>
<path d="M466.1 144.399C466.1 144.123 465.876 143.899 465.6 143.899C465.324 143.899 465.1 144.123 465.1 144.399H466.1ZM510.354 193.553C510.549 193.358 510.549 193.041 510.354 192.846L507.172 189.664C506.976 189.469 506.66 189.469 506.465 189.664C506.269 189.859 506.269 190.176 506.465 190.371L509.293 193.199L506.465 196.028C506.269 196.223 506.269 196.54 506.465 196.735C506.66 196.93 506.976 196.93 507.172 196.735L510.354 193.553ZM465.1 144.399V169.199H466.1V144.399H465.1ZM489.6 193.699H510V192.699H489.6V193.699ZM465.1 169.199C465.1 182.73 476.069 193.699 489.6 193.699V192.699C476.621 192.699 466.1 182.178 466.1 169.199H465.1Z" fill="#94A3B8"/>
<path d="M638.9 144.399C638.9 144.123 638.676 143.899 638.4 143.899C638.124 143.899 637.9 144.123 637.9 144.399H638.9ZM584.846 192.846C584.651 193.041 584.651 193.358 584.846 193.553L588.028 196.735C588.224 196.93 588.54 196.93 588.736 196.735C588.931 196.54 588.931 196.223 588.736 196.028L585.907 193.199L588.736 190.371C588.931 190.176 588.931 189.859 588.736 189.664C588.54 189.469 588.224 189.469 588.028 189.664L584.846 192.846ZM637.9 144.399V169.199H638.9V144.399H637.9ZM614.4 192.699H585.2V193.699H614.4V192.699ZM637.9 169.199C637.9 182.178 627.379 192.699 614.4 192.699V193.699C627.931 193.699 638.9 182.73 638.9 169.199H637.9Z" fill="#94A3B8"/>
<path d="M622.821 125H621.423L624.564 116.273H626.085L629.226 125H627.828L625.361 117.858H625.293L622.821 125ZM623.055 121.582H627.589V122.69H623.055V121.582ZM630.384 127.455V118.455H631.628V119.516H631.735C631.809 119.379 631.915 119.222 632.054 119.043C632.194 118.864 632.387 118.707 632.634 118.574C632.881 118.438 633.208 118.369 633.614 118.369C634.142 118.369 634.614 118.503 635.029 118.77C635.444 119.037 635.769 119.422 636.005 119.925C636.243 120.428 636.363 121.033 636.363 121.74C636.363 122.447 636.245 123.054 636.009 123.56C635.773 124.062 635.449 124.45 635.037 124.723C634.625 124.993 634.155 125.128 633.627 125.128C633.229 125.128 632.904 125.061 632.651 124.928C632.401 124.794 632.205 124.638 632.063 124.459C631.921 124.28 631.811 124.121 631.735 123.982H631.658V127.455H630.384ZM631.632 121.727C631.632 122.187 631.699 122.591 631.833 122.938C631.966 123.284 632.159 123.555 632.412 123.751C632.665 123.945 632.975 124.041 633.341 124.041C633.722 124.041 634.04 123.94 634.296 123.739C634.551 123.534 634.745 123.257 634.875 122.908C635.009 122.558 635.076 122.165 635.076 121.727C635.076 121.295 635.01 120.908 634.88 120.564C634.752 120.22 634.559 119.949 634.3 119.75C634.044 119.551 633.725 119.452 633.341 119.452C632.972 119.452 632.659 119.547 632.404 119.737C632.151 119.928 631.959 120.193 631.828 120.534C631.698 120.875 631.632 121.273 631.632 121.727ZM637.79 127.455V118.455H639.034V119.516H639.141C639.215 119.379 639.321 119.222 639.461 119.043C639.6 118.864 639.793 118.707 640.04 118.574C640.287 118.438 640.614 118.369 641.02 118.369C641.549 118.369 642.02 118.503 642.435 118.77C642.85 119.037 643.175 119.422 643.411 119.925C643.65 120.428 643.769 121.033 643.769 121.74C643.769 122.447 643.651 123.054 643.415 123.56C643.179 124.062 642.855 124.45 642.444 124.723C642.032 124.993 641.561 125.128 641.033 125.128C640.635 125.128 640.31 125.061 640.057 124.928C639.807 124.794 639.611 124.638 639.469 124.459C639.327 124.28 639.218 124.121 639.141 123.982H639.064V127.455H637.79ZM639.039 121.727C639.039 122.187 639.105 122.591 639.239 122.938C639.373 123.284 639.566 123.555 639.819 123.751C640.071 123.945 640.381 124.041 640.748 124.041C641.128 124.041 641.446 123.94 641.702 123.739C641.958 123.534 642.151 123.257 642.282 122.908C642.415 122.558 642.482 122.165 642.482 121.727C642.482 121.295 642.417 120.908 642.286 120.564C642.158 120.22 641.965 119.949 641.706 119.75C641.451 119.551 641.131 119.452 640.748 119.452C640.378 119.452 640.066 119.547 639.81 119.737C639.557 119.928 639.365 120.193 639.235 120.534C639.104 120.875 639.039 121.273 639.039 121.727ZM648.355 125V124.045L651.308 120.986C651.624 120.653 651.884 120.362 652.088 120.112C652.295 119.859 652.45 119.619 652.553 119.392C652.655 119.165 652.706 118.923 652.706 118.668C652.706 118.378 652.638 118.128 652.501 117.918C652.365 117.705 652.179 117.541 651.943 117.428C651.707 117.311 651.442 117.253 651.146 117.253C650.834 117.253 650.561 117.317 650.328 117.445C650.095 117.572 649.916 117.753 649.791 117.986C649.666 118.219 649.604 118.491 649.604 118.804H648.347C648.347 118.273 648.469 117.808 648.713 117.411C648.957 117.013 649.293 116.705 649.719 116.486C650.145 116.264 650.629 116.153 651.172 116.153C651.72 116.153 652.203 116.263 652.621 116.482C653.041 116.697 653.369 116.993 653.605 117.368C653.841 117.74 653.959 118.161 653.959 118.629C653.959 118.953 653.898 119.27 653.776 119.58C653.656 119.889 653.447 120.234 653.149 120.615C652.851 120.993 652.436 121.452 651.905 121.991L650.17 123.807V123.871H654.099V125H648.355Z" fill="white"/>
<path d="M540.322 197V188.273H541.639V195.866H545.593V197H540.322ZM546.993 197V190.455H548.267V197H546.993ZM547.637 189.445C547.415 189.445 547.225 189.371 547.066 189.223C546.909 189.072 546.831 188.893 546.831 188.686C546.831 188.476 546.909 188.297 547.066 188.149C547.225 187.999 547.415 187.923 547.637 187.923C547.858 187.923 548.047 187.999 548.203 188.149C548.363 188.297 548.442 188.476 548.442 188.686C548.442 188.893 548.363 189.072 548.203 189.223C548.047 189.371 547.858 189.445 547.637 189.445ZM550.084 197V188.273H551.358V191.516H551.435C551.509 191.379 551.615 191.222 551.754 191.043C551.893 190.864 552.087 190.707 552.334 190.574C552.581 190.438 552.908 190.369 553.314 190.369C553.842 190.369 554.314 190.503 554.729 190.77C555.143 191.037 555.469 191.422 555.705 191.925C555.943 192.428 556.062 193.033 556.062 193.74C556.062 194.447 555.945 195.054 555.709 195.56C555.473 196.062 555.149 196.45 554.737 196.723C554.325 196.993 553.855 197.128 553.327 197.128C552.929 197.128 552.604 197.061 552.351 196.928C552.101 196.794 551.905 196.638 551.763 196.459C551.621 196.28 551.511 196.121 551.435 195.982H551.328V197H550.084ZM551.332 193.727C551.332 194.187 551.399 194.591 551.533 194.938C551.666 195.284 551.859 195.555 552.112 195.751C552.365 195.945 552.675 196.041 553.041 196.041C553.422 196.041 553.74 195.94 553.996 195.739C554.251 195.534 554.445 195.257 554.575 194.908C554.709 194.558 554.776 194.165 554.776 193.727C554.776 193.295 554.71 192.908 554.58 192.564C554.452 192.22 554.259 191.949 554 191.75C553.744 191.551 553.425 191.452 553.041 191.452C552.672 191.452 552.359 191.547 552.104 191.737C551.851 191.928 551.659 192.193 551.528 192.534C551.398 192.875 551.332 193.273 551.332 193.727Z" fill="white"/>
<path d="M452.165 125H450.767L453.908 116.273H455.429L458.57 125H457.172L454.705 117.858H454.636L452.165 125ZM452.399 121.582H456.933V122.69H452.399V121.582ZM459.728 127.455V118.455H460.972V119.516H461.078C461.152 119.379 461.259 119.222 461.398 119.043C461.537 118.864 461.73 118.707 461.978 118.574C462.225 118.438 462.551 118.369 462.958 118.369C463.486 118.369 463.958 118.503 464.373 118.77C464.787 119.037 465.113 119.422 465.348 119.925C465.587 120.428 465.706 121.033 465.706 121.74C465.706 122.447 465.588 123.054 465.353 123.56C465.117 124.062 464.793 124.45 464.381 124.723C463.969 124.993 463.499 125.128 462.971 125.128C462.573 125.128 462.248 125.061 461.995 124.928C461.745 124.794 461.549 124.638 461.407 124.459C461.265 124.28 461.155 124.121 461.078 123.982H461.002V127.455H459.728ZM460.976 121.727C460.976 122.187 461.043 122.591 461.176 122.938C461.31 123.284 461.503 123.555 461.756 123.751C462.009 123.945 462.319 124.041 462.685 124.041C463.066 124.041 463.384 123.94 463.64 123.739C463.895 123.534 464.088 123.257 464.219 122.908C464.353 122.558 464.419 122.165 464.419 121.727C464.419 121.295 464.354 120.908 464.223 120.564C464.096 120.22 463.902 119.949 463.644 119.75C463.388 119.551 463.069 119.452 462.685 119.452C462.316 119.452 462.003 119.547 461.748 119.737C461.495 119.928 461.303 120.193 461.172 120.534C461.042 120.875 460.976 121.273 460.976 121.727ZM467.134 127.455V118.455H468.378V119.516H468.485C468.559 119.379 468.665 119.222 468.804 119.043C468.944 118.864 469.137 118.707 469.384 118.574C469.631 118.438 469.958 118.369 470.364 118.369C470.892 118.369 471.364 118.503 471.779 118.77C472.194 119.037 472.519 119.422 472.755 119.925C472.993 120.428 473.113 121.033 473.113 121.74C473.113 122.447 472.995 123.054 472.759 123.56C472.523 124.062 472.199 124.45 471.787 124.723C471.375 124.993 470.905 125.128 470.377 125.128C469.979 125.128 469.654 125.061 469.401 124.928C469.151 124.794 468.955 124.638 468.813 124.459C468.671 124.28 468.561 124.121 468.485 123.982H468.408V127.455H467.134ZM468.382 121.727C468.382 122.187 468.449 122.591 468.583 122.938C468.716 123.284 468.909 123.555 469.162 123.751C469.415 123.945 469.725 124.041 470.091 124.041C470.472 124.041 470.79 123.94 471.046 123.739C471.301 123.534 471.495 123.257 471.625 122.908C471.759 122.558 471.826 122.165 471.826 121.727C471.826 121.295 471.76 120.908 471.63 120.564C471.502 120.22 471.309 119.949 471.05 119.75C470.794 119.551 470.475 119.452 470.091 119.452C469.722 119.452 469.409 119.547 469.154 119.737C468.901 119.928 468.709 120.193 468.578 120.534C468.448 120.875 468.382 121.273 468.382 121.727ZM481.01 116.273V125H479.689V117.594H479.638L477.55 118.957V117.696L479.727 116.273H481.01Z" fill="white"/>
<path d="M466.428 54.1477H464.655C464.587 53.7689 464.46 53.4356 464.274 53.1477C464.089 52.8598 463.861 52.6155 463.592 52.4148C463.323 52.214 463.022 52.0625 462.689 51.9602C462.359 51.858 462.009 51.8068 461.638 51.8068C460.967 51.8068 460.367 51.9754 459.837 52.3125C459.31 52.6496 458.893 53.1439 458.587 53.7955C458.284 54.447 458.132 55.2424 458.132 56.1818C458.132 57.1288 458.284 57.928 458.587 58.5795C458.893 59.2311 459.312 59.7235 459.842 60.0568C460.373 60.3902 460.969 60.5568 461.632 60.5568C462 60.5568 462.348 60.5076 462.678 60.4091C463.011 60.3068 463.312 60.1572 463.581 59.9602C463.85 59.7633 464.077 59.5227 464.263 59.2386C464.452 58.9508 464.583 58.6212 464.655 58.25L466.428 58.2557C466.333 58.8277 466.149 59.3542 465.876 59.8352C465.607 60.3125 465.261 60.7254 464.837 61.0739C464.416 61.4186 463.935 61.6856 463.393 61.875C462.852 62.0644 462.261 62.1591 461.621 62.1591C460.613 62.1591 459.715 61.9205 458.928 61.4432C458.14 60.9621 457.518 60.2746 457.064 59.3807C456.613 58.4867 456.388 57.4205 456.388 56.1818C456.388 54.9394 456.615 53.8731 457.07 52.983C457.524 52.089 458.145 51.4034 458.933 50.9261C459.721 50.4451 460.617 50.2045 461.621 50.2045C462.238 50.2045 462.814 50.2936 463.348 50.4716C463.886 50.6458 464.369 50.9034 464.797 51.2443C465.225 51.5814 465.579 51.9943 465.859 52.483C466.14 52.9678 466.329 53.5227 466.428 54.1477ZM470.091 56.8182V62H468.392V50.3636H470.068V54.6932H470.176C470.381 54.2235 470.693 53.8504 471.114 53.5739C471.534 53.2973 472.083 53.1591 472.761 53.1591C473.36 53.1591 473.883 53.2822 474.33 53.5284C474.78 53.7746 475.129 54.142 475.375 54.6307C475.625 55.1155 475.75 55.7216 475.75 56.4489V62H474.051V56.6534C474.051 56.0133 473.886 55.517 473.557 55.1648C473.227 54.8087 472.769 54.6307 472.182 54.6307C471.78 54.6307 471.42 54.7159 471.102 54.8864C470.788 55.0568 470.54 55.3068 470.358 55.6364C470.18 55.9621 470.091 56.3561 470.091 56.8182ZM480.557 62.1932C480.004 62.1932 479.504 62.0909 479.057 61.8864C478.61 61.678 478.256 61.3769 477.994 60.983C477.737 60.589 477.608 60.1061 477.608 59.5341C477.608 59.0417 477.703 58.6364 477.892 58.3182C478.081 58 478.337 57.7481 478.659 57.5625C478.981 57.3769 479.341 57.2367 479.739 57.142C480.136 57.0473 480.542 56.9754 480.955 56.9261C481.477 56.8655 481.902 56.8163 482.227 56.7784C482.553 56.7367 482.79 56.6705 482.938 56.5795C483.085 56.4886 483.159 56.3409 483.159 56.1364V56.0966C483.159 55.6004 483.019 55.2159 482.739 54.9432C482.462 54.6705 482.049 54.5341 481.5 54.5341C480.928 54.5341 480.477 54.661 480.148 54.9148C479.822 55.1648 479.597 55.4432 479.472 55.75L477.875 55.3864C478.064 54.8561 478.341 54.428 478.705 54.1023C479.072 53.7727 479.494 53.5341 479.972 53.3864C480.449 53.2348 480.951 53.1591 481.477 53.1591C481.826 53.1591 482.195 53.2008 482.585 53.2841C482.979 53.3636 483.347 53.5114 483.688 53.7273C484.032 53.9432 484.314 54.2519 484.534 54.6534C484.754 55.0511 484.864 55.5682 484.864 56.2045V62H483.205V60.8068H483.136C483.027 61.0265 482.862 61.2424 482.642 61.4545C482.422 61.6667 482.14 61.8428 481.795 61.983C481.451 62.1231 481.038 62.1932 480.557 62.1932ZM480.926 60.8295C481.396 60.8295 481.797 60.7367 482.131 60.5511C482.468 60.3655 482.723 60.1231 482.898 59.8239C483.076 59.5208 483.165 59.197 483.165 58.8523V57.7273C483.104 57.7879 482.987 57.8447 482.812 57.8977C482.642 57.947 482.447 57.9905 482.227 58.0284C482.008 58.0625 481.794 58.0947 481.585 58.125C481.377 58.1515 481.203 58.1742 481.062 58.1932C480.733 58.2348 480.432 58.3049 480.159 58.4034C479.89 58.5019 479.674 58.6439 479.511 58.8295C479.352 59.0114 479.273 59.2538 479.273 59.5568C479.273 59.9773 479.428 60.2955 479.739 60.5114C480.049 60.7235 480.445 60.8295 480.926 60.8295ZM488.825 56.8182V62H487.126V53.2727H488.757V54.6932H488.865C489.066 54.2311 489.38 53.8598 489.808 53.5795C490.24 53.2992 490.784 53.1591 491.439 53.1591C492.034 53.1591 492.554 53.2841 493.001 53.5341C493.448 53.7803 493.795 54.1477 494.041 54.6364C494.287 55.125 494.411 55.7292 494.411 56.4489V62H492.712V56.6534C492.712 56.0208 492.547 55.5265 492.217 55.1705C491.888 54.8106 491.435 54.6307 490.859 54.6307C490.465 54.6307 490.115 54.7159 489.808 54.8864C489.505 55.0568 489.265 55.3068 489.087 55.6364C488.912 55.9621 488.825 56.3561 488.825 56.8182ZM500.348 65.4545C499.655 65.4545 499.058 65.3636 498.558 65.1818C498.062 65 497.657 64.7595 497.342 64.4602C497.028 64.161 496.793 63.8333 496.638 63.4773L498.098 62.875C498.2 63.0417 498.337 63.2178 498.507 63.4034C498.681 63.5928 498.916 63.7538 499.212 63.8864C499.511 64.0189 499.895 64.0852 500.365 64.0852C501.009 64.0852 501.541 63.928 501.962 63.6136C502.382 63.303 502.592 62.8068 502.592 62.125V60.4091H502.484C502.382 60.5947 502.234 60.8011 502.041 61.0284C501.852 61.2557 501.59 61.4527 501.257 61.6193C500.924 61.786 500.49 61.8693 499.956 61.8693C499.267 61.8693 498.645 61.7083 498.092 61.3864C497.543 61.0606 497.107 60.5814 496.786 59.9489C496.467 59.3125 496.308 58.5303 496.308 57.6023C496.308 56.6742 496.465 55.8788 496.78 55.2159C497.098 54.553 497.534 54.0455 498.087 53.6932C498.64 53.3371 499.267 53.1591 499.967 53.1591C500.509 53.1591 500.946 53.25 501.28 53.4318C501.613 53.6098 501.873 53.8182 502.058 54.0568C502.248 54.2955 502.393 54.5057 502.496 54.6875H502.621V53.2727H504.286V62.1932C504.286 62.9432 504.111 63.5587 503.763 64.0398C503.414 64.5208 502.943 64.8769 502.348 65.108C501.757 65.339 501.09 65.4545 500.348 65.4545ZM500.331 60.4602C500.82 60.4602 501.232 60.3466 501.57 60.1193C501.911 59.8883 502.168 59.5587 502.342 59.1307C502.52 58.6989 502.609 58.1818 502.609 57.5795C502.609 56.9924 502.522 56.4754 502.348 56.0284C502.174 55.5814 501.918 55.233 501.581 54.983C501.244 54.7292 500.827 54.6023 500.331 54.6023C499.82 54.6023 499.393 54.7348 499.053 55C498.712 55.2614 498.454 55.6174 498.28 56.0682C498.109 56.5189 498.024 57.0227 498.024 57.5795C498.024 58.1515 498.111 58.6534 498.286 59.0852C498.46 59.517 498.717 59.8542 499.058 60.0966C499.403 60.339 499.827 60.4602 500.331 60.4602ZM506.564 62V53.2727H508.263V62H506.564ZM507.422 51.9261C507.126 51.9261 506.873 51.8277 506.661 51.6307C506.452 51.4299 506.348 51.1913 506.348 50.9148C506.348 50.6345 506.452 50.3958 506.661 50.1989C506.873 49.9981 507.126 49.8977 507.422 49.8977C507.717 49.8977 507.969 49.9981 508.178 50.1989C508.39 50.3958 508.496 50.6345 508.496 50.9148C508.496 51.1913 508.39 51.4299 508.178 51.6307C507.969 51.8277 507.717 51.9261 507.422 51.9261ZM512.247 56.8182V62H510.548V53.2727H512.179V54.6932H512.287C512.488 54.2311 512.802 53.8598 513.23 53.5795C513.662 53.2992 514.205 53.1591 514.861 53.1591C515.455 53.1591 515.976 53.2841 516.423 53.5341C516.87 53.7803 517.217 54.1477 517.463 54.6364C517.709 55.125 517.832 55.7292 517.832 56.4489V62H516.134V56.6534C516.134 56.0208 515.969 55.5265 515.639 55.1705C515.31 54.8106 514.857 54.6307 514.281 54.6307C513.887 54.6307 513.537 54.7159 513.23 54.8864C512.927 55.0568 512.687 55.3068 512.509 55.6364C512.334 55.9621 512.247 56.3561 512.247 56.8182ZM523.77 65.4545C523.077 65.4545 522.48 65.3636 521.98 65.1818C521.484 65 521.079 64.7595 520.764 64.4602C520.45 64.161 520.215 63.8333 520.06 63.4773L521.52 62.875C521.622 63.0417 521.759 63.2178 521.929 63.4034C522.103 63.5928 522.338 63.7538 522.634 63.8864C522.933 64.0189 523.317 64.0852 523.787 64.0852C524.431 64.0852 524.963 63.928 525.384 63.6136C525.804 63.303 526.014 62.8068 526.014 62.125V60.4091H525.906C525.804 60.5947 525.656 60.8011 525.463 61.0284C525.274 61.2557 525.012 61.4527 524.679 61.6193C524.346 61.786 523.912 61.8693 523.378 61.8693C522.688 61.8693 522.067 61.7083 521.514 61.3864C520.965 61.0606 520.529 60.5814 520.207 59.9489C519.889 59.3125 519.73 58.5303 519.73 57.6023C519.73 56.6742 519.887 55.8788 520.202 55.2159C520.52 54.553 520.955 54.0455 521.509 53.6932C522.062 53.3371 522.688 53.1591 523.389 53.1591C523.931 53.1591 524.368 53.25 524.702 53.4318C525.035 53.6098 525.295 53.8182 525.48 54.0568C525.67 54.2955 525.815 54.5057 525.918 54.6875H526.043V53.2727H527.707V62.1932C527.707 62.9432 527.533 63.5587 527.185 64.0398C526.836 64.5208 526.365 64.8769 525.77 65.108C525.179 65.339 524.512 65.4545 523.77 65.4545ZM523.753 60.4602C524.241 60.4602 524.654 60.3466 524.991 60.1193C525.332 59.8883 525.59 59.5587 525.764 59.1307C525.942 58.6989 526.031 58.1818 526.031 57.5795C526.031 56.9924 525.944 56.4754 525.77 56.0284C525.596 55.5814 525.34 55.233 525.003 54.983C524.666 54.7292 524.249 54.6023 523.753 54.6023C523.241 54.6023 522.815 54.7348 522.474 55C522.134 55.2614 521.876 55.6174 521.702 56.0682C521.531 56.5189 521.446 57.0227 521.446 57.5795C521.446 58.1515 521.533 58.6534 521.707 59.0852C521.882 59.517 522.139 59.8542 522.48 60.0966C522.825 60.339 523.249 60.4602 523.753 60.4602ZM535.919 50.3636V62H534.22V50.3636H535.919ZM538.205 62V53.2727H539.903V62H538.205ZM539.062 51.9261C538.767 51.9261 538.513 51.8277 538.301 51.6307C538.093 51.4299 537.989 51.1913 537.989 50.9148C537.989 50.6345 538.093 50.3958 538.301 50.1989C538.513 49.9981 538.767 49.8977 539.062 49.8977C539.358 49.8977 539.61 49.9981 539.818 50.1989C540.03 50.3958 540.136 50.6345 540.136 50.9148C540.136 51.1913 540.03 51.4299 539.818 51.6307C539.61 51.8277 539.358 51.9261 539.062 51.9261ZM542.325 62V50.3636H544.024V54.6875H544.126C544.225 54.5057 544.367 54.2955 544.553 54.0568C544.738 53.8182 544.996 53.6098 545.325 53.4318C545.655 53.25 546.09 53.1591 546.632 53.1591C547.337 53.1591 547.965 53.3371 548.518 53.6932C549.071 54.0492 549.505 54.5625 549.82 55.233C550.138 55.9034 550.297 56.7102 550.297 57.6534C550.297 58.5966 550.14 59.4053 549.825 60.0795C549.511 60.75 549.079 61.267 548.53 61.6307C547.981 61.9905 547.354 62.1705 546.649 62.1705C546.119 62.1705 545.685 62.0814 545.348 61.9034C545.015 61.7254 544.753 61.517 544.564 61.2784C544.375 61.0398 544.229 60.8277 544.126 60.642H543.984V62H542.325ZM543.99 57.6364C543.99 58.25 544.079 58.7879 544.257 59.25C544.435 59.7121 544.693 60.0739 545.03 60.3352C545.367 60.5928 545.78 60.7216 546.268 60.7216C546.776 60.7216 547.2 60.5871 547.541 60.3182C547.882 60.0455 548.14 59.6761 548.314 59.2102C548.492 58.7443 548.581 58.2197 548.581 57.6364C548.581 57.0606 548.494 56.5436 548.32 56.0852C548.149 55.6269 547.892 55.2652 547.547 55C547.206 54.7348 546.78 54.6023 546.268 54.6023C545.776 54.6023 545.359 54.7292 545.018 54.983C544.681 55.2367 544.426 55.5909 544.251 56.0455C544.077 56.5 543.99 57.0303 543.99 57.6364ZM560.115 62.1761C559.27 62.1761 558.543 61.9848 557.933 61.6023C557.327 61.2159 556.861 60.6837 556.536 60.0057C556.21 59.3277 556.047 58.5511 556.047 57.6761C556.047 56.7898 556.214 56.0076 556.547 55.3295C556.88 54.6477 557.35 54.1155 557.956 53.733C558.562 53.3504 559.276 53.1591 560.098 53.1591C560.761 53.1591 561.352 53.2822 561.871 53.5284C562.39 53.7708 562.808 54.1117 563.126 54.5511C563.448 54.9905 563.64 55.5038 563.7 56.0909H562.047C561.956 55.6818 561.748 55.3295 561.422 55.0341C561.1 54.7386 560.668 54.5909 560.126 54.5909C559.653 54.5909 559.238 54.7159 558.882 54.9659C558.53 55.2121 558.255 55.5644 558.058 56.0227C557.861 56.4773 557.763 57.0152 557.763 57.6364C557.763 58.2727 557.859 58.822 558.053 59.2841C558.246 59.7462 558.518 60.1042 558.871 60.358C559.227 60.6117 559.645 60.7386 560.126 60.7386C560.448 60.7386 560.74 60.6799 561.001 60.5625C561.267 60.4413 561.488 60.2689 561.666 60.0455C561.848 59.822 561.975 59.553 562.047 59.2386H563.7C563.64 59.803 563.456 60.3068 563.149 60.75C562.842 61.1932 562.431 61.5417 561.916 61.7955C561.405 62.0492 560.804 62.1761 560.115 62.1761ZM568.057 62.1932C567.504 62.1932 567.004 62.0909 566.557 61.8864C566.11 61.678 565.756 61.3769 565.494 60.983C565.237 60.589 565.108 60.1061 565.108 59.5341C565.108 59.0417 565.203 58.6364 565.392 58.3182C565.581 58 565.837 57.7481 566.159 57.5625C566.481 57.3769 566.841 57.2367 567.239 57.142C567.636 57.0473 568.042 56.9754 568.455 56.9261C568.977 56.8655 569.402 56.8163 569.727 56.7784C570.053 56.7367 570.29 56.6705 570.438 56.5795C570.585 56.4886 570.659 56.3409 570.659 56.1364V56.0966C570.659 55.6004 570.519 55.2159 570.239 54.9432C569.962 54.6705 569.549 54.5341 569 54.5341C568.428 54.5341 567.977 54.661 567.648 54.9148C567.322 55.1648 567.097 55.4432 566.972 55.75L565.375 55.3864C565.564 54.8561 565.841 54.428 566.205 54.1023C566.572 53.7727 566.994 53.5341 567.472 53.3864C567.949 53.2348 568.451 53.1591 568.977 53.1591C569.326 53.1591 569.695 53.2008 570.085 53.2841C570.479 53.3636 570.847 53.5114 571.188 53.7273C571.532 53.9432 571.814 54.2519 572.034 54.6534C572.254 55.0511 572.364 55.5682 572.364 56.2045V62H570.705V60.8068H570.636C570.527 61.0265 570.362 61.2424 570.142 61.4545C569.922 61.6667 569.64 61.8428 569.295 61.983C568.951 62.1231 568.538 62.1932 568.057 62.1932ZM568.426 60.8295C568.896 60.8295 569.297 60.7367 569.631 60.5511C569.968 60.3655 570.223 60.1231 570.398 59.8239C570.576 59.5208 570.665 59.197 570.665 58.8523V57.7273C570.604 57.7879 570.487 57.8447 570.312 57.8977C570.142 57.947 569.947 57.9905 569.727 58.0284C569.508 58.0625 569.294 58.0947 569.085 58.125C568.877 58.1515 568.703 58.1742 568.562 58.1932C568.233 58.2348 567.932 58.3049 567.659 58.4034C567.39 58.5019 567.174 58.6439 567.011 58.8295C566.852 59.0114 566.773 59.2538 566.773 59.5568C566.773 59.9773 566.928 60.2955 567.239 60.5114C567.549 60.7235 567.945 60.8295 568.426 60.8295ZM576.325 56.8182V62H574.626V53.2727H576.257V54.6932H576.365C576.566 54.2311 576.88 53.8598 577.308 53.5795C577.74 53.2992 578.284 53.1591 578.939 53.1591C579.534 53.1591 580.054 53.2841 580.501 53.5341C580.948 53.7803 581.295 54.1477 581.541 54.6364C581.787 55.125 581.911 55.7292 581.911 56.4489V62H580.212V56.6534C580.212 56.0208 580.047 55.5265 579.717 55.1705C579.388 54.8106 578.935 54.6307 578.359 54.6307C577.965 54.6307 577.615 54.7159 577.308 54.8864C577.005 55.0568 576.765 55.3068 576.587 55.6364C576.412 55.9621 576.325 56.3561 576.325 56.8182ZM590.963 62.1932C590.41 62.1932 589.91 62.0909 589.463 61.8864C589.016 61.678 588.662 61.3769 588.401 60.983C588.143 60.589 588.014 60.1061 588.014 59.5341C588.014 59.0417 588.109 58.6364 588.298 58.3182C588.488 58 588.743 57.7481 589.065 57.5625C589.387 57.3769 589.747 57.2367 590.145 57.142C590.543 57.0473 590.948 56.9754 591.361 56.9261C591.884 56.8655 592.308 56.8163 592.634 56.7784C592.959 56.7367 593.196 56.6705 593.344 56.5795C593.491 56.4886 593.565 56.3409 593.565 56.1364V56.0966C593.565 55.6004 593.425 55.2159 593.145 54.9432C592.868 54.6705 592.455 54.5341 591.906 54.5341C591.334 54.5341 590.884 54.661 590.554 54.9148C590.228 55.1648 590.003 55.4432 589.878 55.75L588.281 55.3864C588.471 54.8561 588.747 54.428 589.111 54.1023C589.478 53.7727 589.901 53.5341 590.378 53.3864C590.855 53.2348 591.357 53.1591 591.884 53.1591C592.232 53.1591 592.601 53.2008 592.991 53.2841C593.385 53.3636 593.753 53.5114 594.094 53.7273C594.438 53.9432 594.721 54.2519 594.94 54.6534C595.16 55.0511 595.27 55.5682 595.27 56.2045V62H593.611V60.8068H593.543C593.433 61.0265 593.268 61.2424 593.048 61.4545C592.829 61.6667 592.546 61.8428 592.202 61.983C591.857 62.1231 591.444 62.1932 590.963 62.1932ZM591.332 60.8295C591.802 60.8295 592.204 60.7367 592.537 60.5511C592.874 60.3655 593.13 60.1231 593.304 59.8239C593.482 59.5208 593.571 59.197 593.571 58.8523V57.7273C593.51 57.7879 593.393 57.8447 593.219 57.8977C593.048 57.947 592.853 57.9905 592.634 58.0284C592.414 58.0625 592.2 58.0947 591.991 58.125C591.783 58.1515 591.609 58.1742 591.469 58.1932C591.139 58.2348 590.838 58.3049 590.565 58.4034C590.296 58.5019 590.08 58.6439 589.918 58.8295C589.759 59.0114 589.679 59.2538 589.679 59.5568C589.679 59.9773 589.834 60.2955 590.145 60.5114C590.455 60.7235 590.851 60.8295 591.332 60.8295ZM601.686 53.2727V54.6364H596.754V53.2727H601.686ZM598.107 62V52.2614C598.107 51.7159 598.226 51.2633 598.464 50.9034C598.703 50.5398 599.019 50.2689 599.413 50.0909C599.807 49.9091 600.235 49.8182 600.697 49.8182C601.038 49.8182 601.33 49.8466 601.572 49.9034C601.815 49.9564 601.995 50.0057 602.112 50.0511L601.714 51.4261C601.635 51.4034 601.533 51.3769 601.408 51.3466C601.283 51.3125 601.131 51.2955 600.953 51.2955C600.54 51.2955 600.245 51.3977 600.067 51.6023C599.893 51.8068 599.805 52.1023 599.805 52.4886V62H598.107ZM607.592 53.2727V54.6364H602.661V53.2727H607.592ZM604.013 62V52.2614C604.013 51.7159 604.132 51.2633 604.371 50.9034C604.609 50.5398 604.926 50.2689 605.32 50.0909C605.714 49.9091 606.142 49.8182 606.604 49.8182C606.945 49.8182 607.236 49.8466 607.479 49.9034C607.721 49.9564 607.901 50.0057 608.018 50.0511L607.621 51.4261C607.541 51.4034 607.439 51.3769 607.314 51.3466C607.189 51.3125 607.037 51.2955 606.859 51.2955C606.446 51.2955 606.151 51.3977 605.973 51.6023C605.799 51.8068 605.712 52.1023 605.712 52.4886V62H604.013ZM612.763 62.1761C611.903 62.1761 611.162 61.9924 610.541 61.625C609.924 61.2538 609.446 60.733 609.109 60.0625C608.776 59.3883 608.609 58.5985 608.609 57.6932C608.609 56.7992 608.776 56.0114 609.109 55.3295C609.446 54.6477 609.916 54.1155 610.518 53.733C611.125 53.3504 611.833 53.1591 612.643 53.1591C613.136 53.1591 613.613 53.2405 614.075 53.4034C614.537 53.5663 614.952 53.822 615.32 54.1705C615.687 54.5189 615.977 54.9716 616.189 55.5284C616.401 56.0814 616.507 56.7538 616.507 57.5455V58.1477H609.57V56.875H614.842C614.842 56.428 614.751 56.0322 614.57 55.6875C614.388 55.339 614.132 55.0644 613.803 54.8636C613.477 54.6629 613.094 54.5625 612.655 54.5625C612.178 54.5625 611.761 54.6799 611.405 54.9148C611.053 55.1458 610.78 55.4489 610.587 55.8239C610.397 56.1951 610.303 56.5985 610.303 57.0341V58.0284C610.303 58.6117 610.405 59.108 610.609 59.517C610.818 59.9261 611.107 60.2386 611.479 60.4545C611.85 60.6667 612.284 60.7727 612.78 60.7727C613.102 60.7727 613.395 60.7273 613.661 60.6364C613.926 60.5417 614.155 60.4015 614.348 60.2159C614.541 60.0303 614.689 59.8011 614.791 59.5284L616.399 59.8182C616.27 60.2917 616.039 60.7064 615.706 61.0625C615.376 61.4148 614.962 61.6894 614.462 61.8864C613.965 62.0795 613.399 62.1761 612.763 62.1761ZM622.068 62.1761C621.223 62.1761 620.496 61.9848 619.886 61.6023C619.28 61.2159 618.814 60.6837 618.489 60.0057C618.163 59.3277 618 58.5511 618 57.6761C618 56.7898 618.167 56.0076 618.5 55.3295C618.833 54.6477 619.303 54.1155 619.909 53.733C620.515 53.3504 621.229 53.1591 622.051 53.1591C622.714 53.1591 623.305 53.2822 623.824 53.5284C624.343 53.7708 624.761 54.1117 625.08 54.5511C625.402 54.9905 625.593 55.5038 625.653 56.0909H624C623.909 55.6818 623.701 55.3295 623.375 55.0341C623.053 54.7386 622.621 54.5909 622.08 54.5909C621.606 54.5909 621.191 54.7159 620.835 54.9659C620.483 55.2121 620.208 55.5644 620.011 56.0227C619.814 56.4773 619.716 57.0152 619.716 57.6364C619.716 58.2727 619.813 58.822 620.006 59.2841C620.199 59.7462 620.472 60.1042 620.824 60.358C621.18 60.6117 621.598 60.7386 622.08 60.7386C622.402 60.7386 622.693 60.6799 622.955 60.5625C623.22 60.4413 623.441 60.2689 623.619 60.0455C623.801 59.822 623.928 59.553 624 59.2386H625.653C625.593 59.803 625.409 60.3068 625.102 60.75C624.795 61.1932 624.384 61.5417 623.869 61.7955C623.358 62.0492 622.758 62.1761 622.068 62.1761ZM631.544 53.2727V54.6364H626.777V53.2727H631.544ZM628.055 51.1818H629.754V59.4375C629.754 59.767 629.804 60.0152 629.902 60.1818C630 60.3447 630.127 60.4564 630.283 60.517C630.442 60.5739 630.614 60.6023 630.8 60.6023C630.936 60.6023 631.055 60.5928 631.158 60.5739C631.26 60.5549 631.339 60.5398 631.396 60.5284L631.703 61.9318C631.605 61.9697 631.464 62.0076 631.283 62.0455C631.101 62.0871 630.874 62.1098 630.601 62.1136C630.154 62.1212 629.737 62.0417 629.351 61.875C628.964 61.7083 628.652 61.4508 628.413 61.1023C628.175 60.7538 628.055 60.3163 628.055 59.7898V51.1818ZM493.982 69.3636V81H492.283V69.3636H493.982ZM496.267 81V72.2727H497.966V81H496.267ZM497.125 70.9261C496.83 70.9261 496.576 70.8277 496.364 70.6307C496.155 70.4299 496.051 70.1913 496.051 69.9148C496.051 69.6345 496.155 69.3958 496.364 69.1989C496.576 68.9981 496.83 68.8977 497.125 68.8977C497.42 68.8977 497.672 68.9981 497.881 69.1989C498.093 69.3958 498.199 69.6345 498.199 69.9148C498.199 70.1913 498.093 70.4299 497.881 70.6307C497.672 70.8277 497.42 70.9261 497.125 70.9261ZM500.388 81V69.3636H502.087V73.6875H502.189C502.287 73.5057 502.429 73.2955 502.615 73.0568C502.801 72.8182 503.058 72.6098 503.388 72.4318C503.717 72.25 504.153 72.1591 504.695 72.1591C505.399 72.1591 506.028 72.3371 506.581 72.6932C507.134 73.0492 507.568 73.5625 507.882 74.233C508.2 74.9034 508.359 75.7102 508.359 76.6534C508.359 77.5966 508.202 78.4053 507.888 79.0795C507.573 79.75 507.142 80.267 506.592 80.6307C506.043 80.9905 505.416 81.1705 504.712 81.1705C504.181 81.1705 503.748 81.0814 503.411 80.9034C503.077 80.7254 502.816 80.517 502.626 80.2784C502.437 80.0398 502.291 79.8277 502.189 79.642H502.047V81H500.388ZM502.053 76.6364C502.053 77.25 502.142 77.7879 502.32 78.25C502.498 78.7121 502.755 79.0739 503.092 79.3352C503.429 79.5928 503.842 79.7216 504.331 79.7216C504.839 79.7216 505.263 79.5871 505.604 79.3182C505.945 79.0455 506.202 78.6761 506.376 78.2102C506.554 77.7443 506.643 77.2197 506.643 76.6364C506.643 76.0606 506.556 75.5436 506.382 75.0852C506.212 74.6269 505.954 74.2652 505.609 74C505.268 73.7348 504.842 73.6023 504.331 73.6023C503.839 73.6023 503.422 73.7292 503.081 73.983C502.744 74.2367 502.488 74.5909 502.314 75.0455C502.14 75.5 502.053 76.0303 502.053 76.6364ZM512.477 79.4091L512.392 80.0284C512.335 80.483 512.239 80.9564 512.102 81.4489C511.97 81.9451 511.831 82.4053 511.688 82.8295C511.547 83.2538 511.432 83.5909 511.341 83.8409H510.136C510.186 83.6061 510.254 83.2879 510.341 82.8864C510.428 82.4886 510.513 82.0436 510.597 81.5511C510.68 81.0587 510.742 80.5568 510.784 80.0455L510.841 79.4091H512.477ZM521.463 81.1932C520.91 81.1932 520.41 81.0909 519.963 80.8864C519.516 80.678 519.162 80.3769 518.901 79.983C518.643 79.589 518.514 79.1061 518.514 78.5341C518.514 78.0417 518.609 77.6364 518.798 77.3182C518.988 77 519.243 76.7481 519.565 76.5625C519.887 76.3769 520.247 76.2367 520.645 76.142C521.043 76.0473 521.448 75.9754 521.861 75.9261C522.384 75.8655 522.808 75.8163 523.134 75.7784C523.459 75.7367 523.696 75.6705 523.844 75.5795C523.991 75.4886 524.065 75.3409 524.065 75.1364V75.0966C524.065 74.6004 523.925 74.2159 523.645 73.9432C523.368 73.6705 522.955 73.5341 522.406 73.5341C521.834 73.5341 521.384 73.661 521.054 73.9148C520.728 74.1648 520.503 74.4432 520.378 74.75L518.781 74.3864C518.971 73.8561 519.247 73.428 519.611 73.1023C519.978 72.7727 520.401 72.5341 520.878 72.3864C521.355 72.2348 521.857 72.1591 522.384 72.1591C522.732 72.1591 523.101 72.2008 523.491 72.2841C523.885 72.3636 524.253 72.5114 524.594 72.7273C524.938 72.9432 525.221 73.2519 525.44 73.6534C525.66 74.0511 525.77 74.5682 525.77 75.2045V81H524.111V79.8068H524.043C523.933 80.0265 523.768 80.2424 523.548 80.4545C523.329 80.6667 523.046 80.8428 522.702 80.983C522.357 81.1231 521.944 81.1932 521.463 81.1932ZM521.832 79.8295C522.302 79.8295 522.704 79.7367 523.037 79.5511C523.374 79.3655 523.63 79.1231 523.804 78.8239C523.982 78.5208 524.071 78.197 524.071 77.8523V76.7273C524.01 76.7879 523.893 76.8447 523.719 76.8977C523.548 76.947 523.353 76.9905 523.134 77.0284C522.914 77.0625 522.7 77.0947 522.491 77.125C522.283 77.1515 522.109 77.1742 521.969 77.1932C521.639 77.2348 521.338 77.3049 521.065 77.4034C520.796 77.5019 520.58 77.6439 520.418 77.8295C520.259 78.0114 520.179 78.2538 520.179 78.5568C520.179 78.9773 520.334 79.2955 520.645 79.5114C520.955 79.7235 521.351 79.8295 521.832 79.8295ZM528.033 84.2727V72.2727H529.692V73.6875H529.834C529.932 73.5057 530.074 73.2955 530.26 73.0568C530.446 72.8182 530.703 72.6098 531.033 72.4318C531.362 72.25 531.798 72.1591 532.339 72.1591C533.044 72.1591 533.673 72.3371 534.226 72.6932C534.779 73.0492 535.213 73.5625 535.527 74.233C535.845 74.9034 536.004 75.7102 536.004 76.6534C536.004 77.5966 535.847 78.4053 535.533 79.0795C535.218 79.75 534.786 80.267 534.237 80.6307C533.688 80.9905 533.061 81.1705 532.357 81.1705C531.826 81.1705 531.393 81.0814 531.055 80.9034C530.722 80.7254 530.461 80.517 530.271 80.2784C530.082 80.0398 529.936 79.8277 529.834 79.642H529.732V84.2727H528.033ZM529.697 76.6364C529.697 77.25 529.786 77.7879 529.964 78.25C530.143 78.7121 530.4 79.0739 530.737 79.3352C531.074 79.5928 531.487 79.7216 531.976 79.7216C532.483 79.7216 532.908 79.5871 533.249 79.3182C533.589 79.0455 533.847 78.6761 534.021 78.2102C534.199 77.7443 534.288 77.2197 534.288 76.6364C534.288 76.0606 534.201 75.5436 534.027 75.0852C533.857 74.6269 533.599 74.2652 533.254 74C532.913 73.7348 532.487 73.6023 531.976 73.6023C531.483 73.6023 531.067 73.7292 530.726 73.983C530.389 74.2367 530.133 74.5909 529.959 75.0455C529.785 75.5 529.697 76.0303 529.697 76.6364ZM537.908 84.2727V72.2727H539.567V73.6875H539.709C539.807 73.5057 539.949 73.2955 540.135 73.0568C540.321 72.8182 540.578 72.6098 540.908 72.4318C541.237 72.25 541.673 72.1591 542.214 72.1591C542.919 72.1591 543.548 72.3371 544.101 72.6932C544.654 73.0492 545.088 73.5625 545.402 74.233C545.72 74.9034 545.879 75.7102 545.879 76.6534C545.879 77.5966 545.722 78.4053 545.408 79.0795C545.093 79.75 544.661 80.267 544.112 80.6307C543.563 80.9905 542.936 81.1705 542.232 81.1705C541.701 81.1705 541.268 81.0814 540.93 80.9034C540.597 80.7254 540.336 80.517 540.146 80.2784C539.957 80.0398 539.811 79.8277 539.709 79.642H539.607V84.2727H537.908ZM539.572 76.6364C539.572 77.25 539.661 77.7879 539.839 78.25C540.018 78.7121 540.275 79.0739 540.612 79.3352C540.949 79.5928 541.362 79.7216 541.851 79.7216C542.358 79.7216 542.783 79.5871 543.124 79.3182C543.464 79.0455 543.722 78.6761 543.896 78.2102C544.074 77.7443 544.163 77.2197 544.163 76.6364C544.163 76.0606 544.076 75.5436 543.902 75.0852C543.732 74.6269 543.474 74.2652 543.129 74C542.788 73.7348 542.362 73.6023 541.851 73.6023C541.358 73.6023 540.942 73.7292 540.601 73.983C540.264 74.2367 540.008 74.5909 539.834 75.0455C539.66 75.5 539.572 76.0303 539.572 76.6364ZM552.175 69.3636V81H550.413V71.125H550.345L547.561 72.9432V71.2614L550.464 69.3636H552.175ZM556.884 79.4091L556.798 80.0284C556.741 80.483 556.645 80.9564 556.509 81.4489C556.376 81.9451 556.238 82.4053 556.094 82.8295C555.954 83.2538 555.838 83.5909 555.747 83.8409H554.543C554.592 83.6061 554.66 83.2879 554.747 82.8864C554.834 82.4886 554.92 82.0436 555.003 81.5511C555.086 81.0587 555.149 80.5568 555.19 80.0455L555.247 79.4091H556.884ZM565.869 81.1932C565.316 81.1932 564.816 81.0909 564.369 80.8864C563.922 80.678 563.568 80.3769 563.307 79.983C563.049 79.589 562.92 79.1061 562.92 78.5341C562.92 78.0417 563.015 77.6364 563.205 77.3182C563.394 77 563.65 76.7481 563.972 76.5625C564.294 76.3769 564.653 76.2367 565.051 76.142C565.449 76.0473 565.854 75.9754 566.267 75.9261C566.79 75.8655 567.214 75.8163 567.54 75.7784C567.866 75.7367 568.102 75.6705 568.25 75.5795C568.398 75.4886 568.472 75.3409 568.472 75.1364V75.0966C568.472 74.6004 568.331 74.2159 568.051 73.9432C567.775 73.6705 567.362 73.5341 566.812 73.5341C566.241 73.5341 565.79 73.661 565.46 73.9148C565.134 74.1648 564.909 74.4432 564.784 74.75L563.188 74.3864C563.377 73.8561 563.653 73.428 564.017 73.1023C564.384 72.7727 564.807 72.5341 565.284 72.3864C565.761 72.2348 566.263 72.1591 566.79 72.1591C567.138 72.1591 567.508 72.2008 567.898 72.2841C568.292 72.3636 568.659 72.5114 569 72.7273C569.345 72.9432 569.627 73.2519 569.847 73.6534C570.066 74.0511 570.176 74.5682 570.176 75.2045V81H568.517V79.8068H568.449C568.339 80.0265 568.174 80.2424 567.955 80.4545C567.735 80.6667 567.453 80.8428 567.108 80.983C566.763 81.1231 566.35 81.1932 565.869 81.1932ZM566.239 79.8295C566.708 79.8295 567.11 79.7367 567.443 79.5511C567.78 79.3655 568.036 79.1231 568.21 78.8239C568.388 78.5208 568.477 78.197 568.477 77.8523V76.7273C568.417 76.7879 568.299 76.8447 568.125 76.8977C567.955 76.947 567.759 76.9905 567.54 77.0284C567.32 77.0625 567.106 77.0947 566.898 77.125C566.689 77.1515 566.515 77.1742 566.375 77.1932C566.045 77.2348 565.744 77.3049 565.472 77.4034C565.203 77.5019 564.987 77.6439 564.824 77.8295C564.665 78.0114 564.585 78.2538 564.585 78.5568C564.585 78.9773 564.741 79.2955 565.051 79.5114C565.362 79.7235 565.758 79.8295 566.239 79.8295ZM572.439 84.2727V72.2727H574.098V73.6875H574.24C574.339 73.5057 574.481 73.2955 574.666 73.0568C574.852 72.8182 575.109 72.6098 575.439 72.4318C575.768 72.25 576.204 72.1591 576.746 72.1591C577.45 72.1591 578.079 72.3371 578.632 72.6932C579.185 73.0492 579.619 73.5625 579.933 74.233C580.251 74.9034 580.411 75.7102 580.411 76.6534C580.411 77.5966 580.253 78.4053 579.939 79.0795C579.625 79.75 579.193 80.267 578.643 80.6307C578.094 80.9905 577.467 81.1705 576.763 81.1705C576.232 81.1705 575.799 81.0814 575.462 80.9034C575.128 80.7254 574.867 80.517 574.678 80.2784C574.488 80.0398 574.342 79.8277 574.24 79.642H574.138V84.2727H572.439ZM574.104 76.6364C574.104 77.25 574.193 77.7879 574.371 78.25C574.549 78.7121 574.806 79.0739 575.143 79.3352C575.481 79.5928 575.893 79.7216 576.382 79.7216C576.89 79.7216 577.314 79.5871 577.655 79.3182C577.996 79.0455 578.253 78.6761 578.428 78.2102C578.606 77.7443 578.695 77.2197 578.695 76.6364C578.695 76.0606 578.607 75.5436 578.433 75.0852C578.263 74.6269 578.005 74.2652 577.661 74C577.32 73.7348 576.893 73.6023 576.382 73.6023C575.89 73.6023 575.473 73.7292 575.132 73.983C574.795 74.2367 574.539 74.5909 574.365 75.0455C574.191 75.5 574.104 76.0303 574.104 76.6364ZM582.314 84.2727V72.2727H583.973V73.6875H584.115C584.214 73.5057 584.356 73.2955 584.541 73.0568C584.727 72.8182 584.984 72.6098 585.314 72.4318C585.643 72.25 586.079 72.1591 586.621 72.1591C587.325 72.1591 587.954 72.3371 588.507 72.6932C589.06 73.0492 589.494 73.5625 589.808 74.233C590.126 74.9034 590.286 75.7102 590.286 76.6534C590.286 77.5966 590.128 78.4053 589.814 79.0795C589.5 79.75 589.068 80.267 588.518 80.6307C587.969 80.9905 587.342 81.1705 586.638 81.1705C586.107 81.1705 585.674 81.0814 585.337 80.9034C585.003 80.7254 584.742 80.517 584.553 80.2784C584.363 80.0398 584.217 79.8277 584.115 79.642H584.013V84.2727H582.314ZM583.979 76.6364C583.979 77.25 584.068 77.7879 584.246 78.25C584.424 78.7121 584.681 79.0739 585.018 79.3352C585.356 79.5928 585.768 79.7216 586.257 79.7216C586.765 79.7216 587.189 79.5871 587.53 79.3182C587.871 79.0455 588.128 78.6761 588.303 78.2102C588.481 77.7443 588.57 77.2197 588.57 76.6364C588.57 76.0606 588.482 75.5436 588.308 75.0852C588.138 74.6269 587.88 74.2652 587.536 74C587.195 73.7348 586.768 73.6023 586.257 73.6023C585.765 73.6023 585.348 73.7292 585.007 73.983C584.67 74.2367 584.414 74.5909 584.24 75.0455C584.066 75.5 583.979 76.0303 583.979 76.6364ZM592.166 81V79.7273L596.104 75.6477C596.524 75.2045 596.871 74.8163 597.143 74.483C597.42 74.1458 597.626 73.8258 597.763 73.5227C597.899 73.2197 597.967 72.8977 597.967 72.5568C597.967 72.1705 597.876 71.8371 597.695 71.5568C597.513 71.2727 597.265 71.0549 596.95 70.9034C596.636 70.7481 596.282 70.6705 595.888 70.6705C595.471 70.6705 595.107 70.7557 594.797 70.9261C594.486 71.0966 594.248 71.3371 594.081 71.6477C593.914 71.9583 593.831 72.322 593.831 72.7386H592.155C592.155 72.0303 592.318 71.411 592.643 70.8807C592.969 70.3504 593.416 69.9394 593.984 69.6477C594.553 69.3523 595.198 69.2045 595.922 69.2045C596.653 69.2045 597.297 69.3504 597.854 69.642C598.414 69.9299 598.852 70.3239 599.166 70.8239C599.481 71.3201 599.638 71.8807 599.638 72.5057C599.638 72.9375 599.556 73.3598 599.393 73.7727C599.234 74.1856 598.956 74.6458 598.558 75.1534C598.161 75.6572 597.607 76.2689 596.899 76.9886L594.587 79.4091V79.4943H599.825V81H592.166Z" fill="#94A3B8"/>
</svg>
