<svg width="500" height="185" viewBox="0 0 500 185" fill="none" xmlns="http://www.w3.org/2000/svg">
<path d="M30.84 74V68.5H31.91V69.55H32.17L31.91 69.8C31.91 69.36 32.04 69.0167 32.3 68.77C32.56 68.5233 32.92 68.4 33.38 68.4C33.9267 68.4 34.3633 68.5767 34.69 68.93C35.0167 69.2767 35.18 69.7467 35.18 70.34V74H34.1V70.46C34.1 70.1 34.0033 69.8233 33.81 69.63C33.6167 69.4367 33.3533 69.34 33.02 69.34C32.68 69.34 32.41 69.4433 32.21 69.65C32.0167 69.85 31.92 70.1433 31.92 70.53V74H30.84ZM36.4261 74L38.3561 71.16L36.5461 68.5H37.7861L38.7561 70.02C38.8028 70.1 38.8494 70.1867 38.8961 70.28C38.9428 70.3667 38.9794 70.44 39.0061 70.5C39.0261 70.44 39.0594 70.3667 39.1061 70.28C39.1528 70.1867 39.1994 70.1 39.2461 70.02L40.2161 68.5H41.4561L39.6461 71.17L41.5661 74H40.3261L39.2561 72.35C39.2094 72.27 39.1628 72.18 39.1161 72.08C39.0694 71.98 39.0328 71.9 39.0061 71.84C38.9794 71.9 38.9394 71.98 38.8861 72.08C38.8394 72.18 38.7894 72.27 38.7361 72.35L37.6561 74H36.4261ZM49.5483 75.8V74.87H51.2383C51.5183 74.87 51.7249 74.8033 51.8583 74.67C51.9983 74.5367 52.0683 74.34 52.0683 74.08V73.53L52.0883 72.51H51.8583L52.0783 72.31C52.0783 72.73 51.9449 73.06 51.6783 73.3C51.4183 73.54 51.0649 73.66 50.6183 73.66C50.0516 73.66 49.6049 73.4733 49.2783 73.1C48.9516 72.7267 48.7883 72.2233 48.7883 71.59V70.47C48.7883 69.8367 48.9516 69.3333 49.2783 68.96C49.6049 68.5867 50.0516 68.4 50.6183 68.4C51.0649 68.4 51.4183 68.5233 51.6783 68.77C51.9449 69.01 52.0783 69.34 52.0783 69.76L51.8583 69.55H52.0783L52.0683 68.5H53.1383V74.1C53.1383 74.6267 52.9716 75.04 52.6383 75.34C52.3049 75.6467 51.8416 75.8 51.2483 75.8H49.5483ZM50.9683 72.73C51.3083 72.73 51.5749 72.6267 51.7683 72.42C51.9683 72.2067 52.0683 71.9133 52.0683 71.54V70.53C52.0683 70.1567 51.9683 69.8667 51.7683 69.66C51.5749 69.4467 51.3083 69.34 50.9683 69.34C50.6149 69.34 50.3416 69.4433 50.1483 69.65C49.9616 69.85 49.8683 70.1433 49.8683 70.53V71.54C49.8683 71.92 49.9616 72.2133 50.1483 72.42C50.3416 72.6267 50.6149 72.73 50.9683 72.73ZM56.9844 74.1C56.5377 74.1 56.1444 74.0133 55.8044 73.84C55.471 73.66 55.2144 73.41 55.0344 73.09C54.8544 72.77 54.7644 72.3967 54.7644 71.97V70.53C54.7644 70.0967 54.8544 69.7233 55.0344 69.41C55.2144 69.09 55.471 68.8433 55.8044 68.67C56.1444 68.49 56.5377 68.4 56.9844 68.4C57.4377 68.4 57.831 68.49 58.1644 68.67C58.4977 68.8433 58.7544 69.09 58.9344 69.41C59.1144 69.7233 59.2044 70.0967 59.2044 70.53V71.51H55.8044V71.97C55.8044 72.3767 55.9044 72.6867 56.1044 72.9C56.311 73.1133 56.6077 73.22 56.9944 73.22C57.3077 73.22 57.561 73.1667 57.7544 73.06C57.9477 72.9467 58.0677 72.7833 58.1144 72.57H59.1844C59.1044 73.0367 58.8644 73.41 58.4644 73.69C58.0644 73.9633 57.571 74.1 56.9844 74.1ZM58.1644 70.86V70.52C58.1644 70.12 58.0644 69.81 57.8644 69.59C57.6644 69.37 57.371 69.26 56.9844 69.26C56.6044 69.26 56.311 69.37 56.1044 69.59C55.9044 69.81 55.8044 70.1233 55.8044 70.53V70.78L58.2444 70.77L58.1644 70.86ZM60.8205 74V68.5H61.8905V69.55H62.1505L61.8905 69.8C61.8905 69.36 62.0205 69.0167 62.2805 68.77C62.5405 68.5233 62.9005 68.4 63.3605 68.4C63.9071 68.4 64.3438 68.5767 64.6705 68.93C64.9971 69.2767 65.1605 69.7467 65.1605 70.34V74H64.0805V70.46C64.0805 70.1 63.9838 69.8233 63.7905 69.63C63.5971 69.4367 63.3338 69.34 63.0005 69.34C62.6605 69.34 62.3905 69.4433 62.1905 69.65C61.9971 69.85 61.9005 70.1433 61.9005 70.53V74H60.8205ZM68.9766 74.1C68.5299 74.1 68.1366 74.0133 67.7966 73.84C67.4632 73.66 67.2066 73.41 67.0266 73.09C66.8466 72.77 66.7566 72.3967 66.7566 71.97V70.53C66.7566 70.0967 66.8466 69.7233 67.0266 69.41C67.2066 69.09 67.4632 68.8433 67.7966 68.67C68.1366 68.49 68.5299 68.4 68.9766 68.4C69.4299 68.4 69.8232 68.49 70.1566 68.67C70.4899 68.8433 70.7466 69.09 70.9266 69.41C71.1066 69.7233 71.1966 70.0967 71.1966 70.53V71.51H67.7966V71.97C67.7966 72.3767 67.8966 72.6867 68.0966 72.9C68.3032 73.1133 68.5999 73.22 68.9866 73.22C69.2999 73.22 69.5532 73.1667 69.7466 73.06C69.9399 72.9467 70.0599 72.7833 70.1066 72.57H71.1766C71.0966 73.0367 70.8566 73.41 70.4566 73.69C70.0566 73.9633 69.5632 74.1 68.9766 74.1ZM70.1566 70.86V70.52C70.1566 70.12 70.0566 69.81 69.8566 69.59C69.6566 69.37 69.3632 69.26 68.9766 69.26C68.5966 69.26 68.3032 69.37 68.0966 69.59C67.8966 69.81 67.7966 70.1233 67.7966 70.53V70.78L70.2366 70.77L70.1566 70.86ZM72.9927 74V68.5H74.0327V69.55H74.2927L73.9627 70.2C73.9627 69.6067 74.0927 69.16 74.3527 68.86C74.6127 68.5533 74.9993 68.4 75.5127 68.4C76.0993 68.4 76.5627 68.5833 76.9027 68.95C77.2493 69.31 77.4227 69.8067 77.4227 70.44V70.81H76.3127V70.53C76.3127 70.1367 76.2127 69.8367 76.0127 69.63C75.8193 69.4167 75.546 69.31 75.1927 69.31C74.8393 69.31 74.5627 69.4167 74.3627 69.63C74.1693 69.8433 74.0727 70.1433 74.0727 70.53V74H72.9927ZM80.4188 74.1C79.8454 74.1 79.3921 73.9533 79.0588 73.66C78.7321 73.36 78.5688 72.9533 78.5688 72.44C78.5688 71.92 78.7421 71.5133 79.0888 71.22C79.4421 70.92 79.9254 70.77 80.5387 70.77H82.0688V70.26C82.0688 69.96 81.9754 69.7267 81.7888 69.56C81.6021 69.3933 81.3388 69.31 80.9988 69.31C80.6988 69.31 80.4488 69.3767 80.2488 69.51C80.0488 69.6367 79.9321 69.8067 79.8988 70.02H78.8388C78.8988 69.5267 79.1254 69.1333 79.5188 68.84C79.9188 68.5467 80.4221 68.4 81.0288 68.4C81.6821 68.4 82.1988 68.5667 82.5788 68.9C82.9588 69.2267 83.1488 69.6733 83.1488 70.24V74H82.0988V72.99H81.9188L82.0988 72.79C82.0988 73.19 81.9454 73.51 81.6388 73.75C81.3321 73.9833 80.9254 74.1 80.4188 74.1ZM80.7388 73.27C81.1254 73.27 81.4421 73.1733 81.6888 72.98C81.9421 72.78 82.0688 72.5267 82.0688 72.22V71.5H80.5588C80.2788 71.5 80.0554 71.5767 79.8888 71.73C79.7288 71.8833 79.6488 72.0933 79.6488 72.36C79.6488 72.64 79.7454 72.8633 79.9388 73.03C80.1321 73.19 80.3988 73.27 80.7388 73.27ZM87.5648 74C87.0648 74 86.6748 73.8633 86.3948 73.59C86.1148 73.3167 85.9748 72.9367 85.9748 72.45V69.48H84.4548V68.5H85.9748V66.95H87.0548V68.5H89.2048V69.48H87.0548V72.45C87.0548 72.83 87.2382 73.02 87.6048 73.02H89.1048V74H87.5648ZM92.9609 74.1C92.5143 74.1 92.1209 74.0133 91.7809 73.84C91.4476 73.66 91.1909 73.41 91.0109 73.09C90.8309 72.77 90.7409 72.3967 90.7409 71.97V70.53C90.7409 70.0967 90.8309 69.7233 91.0109 69.41C91.1909 69.09 91.4476 68.8433 91.7809 68.67C92.1209 68.49 92.5143 68.4 92.9609 68.4C93.4143 68.4 93.8076 68.49 94.1409 68.67C94.4743 68.8433 94.7309 69.09 94.9109 69.41C95.0909 69.7233 95.1809 70.0967 95.1809 70.53V71.51H91.7809V71.97C91.7809 72.3767 91.8809 72.6867 92.0809 72.9C92.2876 73.1133 92.5843 73.22 92.9709 73.22C93.2843 73.22 93.5376 73.1667 93.7309 73.06C93.9243 72.9467 94.0443 72.7833 94.0909 72.57H95.1609C95.0809 73.0367 94.8409 73.41 94.4409 73.69C94.0409 73.9633 93.5476 74.1 92.9609 74.1ZM94.1409 70.86V70.52C94.1409 70.12 94.0409 69.81 93.8409 69.59C93.6409 69.37 93.3476 69.26 92.9609 69.26C92.5809 69.26 92.2876 69.37 92.0809 69.59C91.8809 69.81 91.7809 70.1233 91.7809 70.53V70.78L94.2209 70.77L94.1409 70.86ZM182.902 69.99C182.642 69.99 182.429 69.9167 182.262 69.77C182.102 69.6233 182.022 69.43 182.022 69.19C182.022 68.95 182.102 68.76 182.262 68.62C182.429 68.4733 182.642 68.4 182.902 68.4C183.169 68.4 183.382 68.4733 183.542 68.62C183.702 68.76 183.782 68.95 183.782 69.19C183.782 69.43 183.702 69.6233 183.542 69.77C183.382 69.9167 183.169 69.99 182.902 69.99ZM182.902 74.1C182.642 74.1 182.429 74.0267 182.262 73.88C182.102 73.7333 182.022 73.5433 182.022 73.31C182.022 73.0633 182.102 72.87 182.262 72.73C182.429 72.5833 182.642 72.51 182.902 72.51C183.169 72.51 183.382 72.5833 183.542 72.73C183.702 72.87 183.782 73.0633 183.782 73.31C183.782 73.5433 183.702 73.7333 183.542 73.88C183.382 74.0267 183.169 74.1 182.902 74.1Z" fill="#94A3B8"/>
<path d="M107.143 73.4L102.763 71.27V70.14L107.143 68.01V69.02L104.153 70.45C104.02 70.51 103.893 70.5633 103.773 70.61C103.653 70.65 103.563 70.6767 103.503 70.69C103.57 70.7033 103.663 70.73 103.783 70.77C103.91 70.81 104.033 70.86 104.153 70.92L107.143 72.36V73.4ZM108.789 75.8V68.5H109.859V69.55H110.089L109.859 69.8C109.859 69.3667 109.993 69.0267 110.259 68.78C110.533 68.5267 110.896 68.4 111.349 68.4C111.903 68.4 112.343 68.5867 112.669 68.96C113.003 69.3267 113.169 69.83 113.169 70.47V72.02C113.169 72.4467 113.093 72.8167 112.939 73.13C112.793 73.4367 112.583 73.6767 112.309 73.85C112.043 74.0167 111.723 74.1 111.349 74.1C110.903 74.1 110.543 73.9767 110.269 73.73C109.996 73.4767 109.859 73.1333 109.859 72.7L110.089 72.95H109.839L109.869 74.23V75.8H108.789ZM110.979 73.16C111.333 73.16 111.606 73.06 111.799 72.86C111.999 72.6533 112.099 72.3567 112.099 71.97V70.53C112.099 70.1433 111.999 69.85 111.799 69.65C111.606 69.4433 111.333 69.34 110.979 69.34C110.639 69.34 110.369 69.4467 110.169 69.66C109.969 69.8667 109.869 70.1567 109.869 70.53V71.97C109.869 72.3433 109.969 72.6367 110.169 72.85C110.369 73.0567 110.639 73.16 110.979 73.16ZM117.735 74C117.395 74 117.099 73.9333 116.845 73.8C116.592 73.66 116.392 73.4633 116.245 73.21C116.105 72.9567 116.035 72.6633 116.035 72.33V67.68H114.235V66.7H117.115V72.33C117.115 72.5433 117.175 72.7133 117.295 72.84C117.415 72.96 117.579 73.02 117.785 73.02H119.485V74H117.735ZM122.931 74.1C122.271 74.1 121.745 73.91 121.351 73.53C120.958 73.1433 120.761 72.62 120.761 71.96V68.5H121.841V71.96C121.841 72.34 121.938 72.6367 122.131 72.85C122.325 73.0567 122.591 73.16 122.931 73.16C123.278 73.16 123.548 73.0567 123.741 72.85C123.941 72.6367 124.041 72.34 124.041 71.96V68.5H125.121V71.96C125.121 72.62 124.921 73.1433 124.521 73.53C124.128 73.91 123.598 74.1 122.931 74.1ZM127.498 75.8V74.87H129.188C129.468 74.87 129.674 74.8033 129.808 74.67C129.948 74.5367 130.018 74.34 130.018 74.08V73.53L130.038 72.51H129.808L130.028 72.31C130.028 72.73 129.894 73.06 129.628 73.3C129.368 73.54 129.014 73.66 128.568 73.66C128.001 73.66 127.554 73.4733 127.228 73.1C126.901 72.7267 126.738 72.2233 126.738 71.59V70.47C126.738 69.8367 126.901 69.3333 127.228 68.96C127.554 68.5867 128.001 68.4 128.568 68.4C129.014 68.4 129.368 68.5233 129.628 68.77C129.894 69.01 130.028 69.34 130.028 69.76L129.808 69.55H130.028L130.018 68.5H131.088V74.1C131.088 74.6267 130.921 75.04 130.588 75.34C130.254 75.6467 129.791 75.8 129.198 75.8H127.498ZM128.918 72.73C129.258 72.73 129.524 72.6267 129.718 72.42C129.918 72.2067 130.018 71.9133 130.018 71.54V70.53C130.018 70.1567 129.918 69.8667 129.718 69.66C129.524 69.4467 129.258 69.34 128.918 69.34C128.564 69.34 128.291 69.4433 128.098 69.65C127.911 69.85 127.818 70.1433 127.818 70.53V71.54C127.818 71.92 127.911 72.2133 128.098 72.42C128.291 72.6267 128.564 72.73 128.918 72.73ZM132.744 74V73.02H134.674V69.48H132.994V68.5H135.724V73.02H137.494V74H132.744ZM135.094 67.55C134.86 67.55 134.674 67.49 134.534 67.37C134.394 67.2433 134.324 67.0767 134.324 66.87C134.324 66.6567 134.394 66.49 134.534 66.37C134.674 66.2433 134.86 66.18 135.094 66.18C135.327 66.18 135.514 66.2433 135.654 66.37C135.794 66.49 135.864 66.6567 135.864 66.87C135.864 67.0767 135.794 67.2433 135.654 67.37C135.514 67.49 135.327 67.55 135.094 67.55ZM138.77 74V68.5H139.84V69.55H140.1L139.84 69.8C139.84 69.36 139.97 69.0167 140.23 68.77C140.49 68.5233 140.85 68.4 141.31 68.4C141.856 68.4 142.293 68.5767 142.62 68.93C142.946 69.2767 143.11 69.7467 143.11 70.34V74H142.03V70.46C142.03 70.1 141.933 69.8233 141.74 69.63C141.546 69.4367 141.283 69.34 140.95 69.34C140.61 69.34 140.34 69.4433 140.14 69.65C139.946 69.85 139.85 70.1433 139.85 70.53V74H138.77ZM150.762 74V68.5H151.832V69.55H152.092L151.832 69.8C151.832 69.36 151.962 69.0167 152.222 68.77C152.482 68.5233 152.842 68.4 153.302 68.4C153.849 68.4 154.285 68.5767 154.612 68.93C154.939 69.2767 155.102 69.7467 155.102 70.34V74H154.022V70.46C154.022 70.1 153.925 69.8233 153.732 69.63C153.539 69.4367 153.275 69.34 152.942 69.34C152.602 69.34 152.332 69.4433 152.132 69.65C151.939 69.85 151.842 70.1433 151.842 70.53V74H150.762ZM158.368 74.1C157.795 74.1 157.341 73.9533 157.008 73.66C156.681 73.36 156.518 72.9533 156.518 72.44C156.518 71.92 156.691 71.5133 157.038 71.22C157.391 70.92 157.875 70.77 158.488 70.77H160.018V70.26C160.018 69.96 159.925 69.7267 159.738 69.56C159.551 69.3933 159.288 69.31 158.948 69.31C158.648 69.31 158.398 69.3767 158.198 69.51C157.998 69.6367 157.881 69.8067 157.848 70.02H156.788C156.848 69.5267 157.075 69.1333 157.468 68.84C157.868 68.5467 158.371 68.4 158.978 68.4C159.631 68.4 160.148 68.5667 160.528 68.9C160.908 69.2267 161.098 69.6733 161.098 70.24V74H160.048V72.99H159.868L160.048 72.79C160.048 73.19 159.895 73.51 159.588 73.75C159.281 73.9833 158.875 74.1 158.368 74.1ZM158.688 73.27C159.075 73.27 159.391 73.1733 159.638 72.98C159.891 72.78 160.018 72.5267 160.018 72.22V71.5H158.508C158.228 71.5 158.005 71.5767 157.838 71.73C157.678 71.8833 157.598 72.0933 157.598 72.36C157.598 72.64 157.695 72.8633 157.888 73.03C158.081 73.19 158.348 73.27 158.688 73.27ZM162.504 74V68.5H163.404V69.2H163.604L163.454 69.41C163.454 69.1033 163.537 68.86 163.704 68.68C163.871 68.4933 164.094 68.4 164.374 68.4C164.674 68.4 164.904 68.5167 165.064 68.75C165.231 68.9833 165.314 69.3033 165.314 69.71L165.074 69.2H165.454L165.294 69.41C165.294 69.1033 165.377 68.86 165.544 68.68C165.717 68.4933 165.947 68.4 166.234 68.4C166.574 68.4 166.841 68.53 167.034 68.79C167.227 69.0433 167.324 69.3833 167.324 69.81V74H166.364V69.84C166.364 69.6333 166.317 69.4733 166.224 69.36C166.137 69.2467 166.011 69.19 165.844 69.19C165.677 69.19 165.547 69.2467 165.454 69.36C165.367 69.4667 165.324 69.6233 165.324 69.83V74H164.514V69.84C164.514 69.6267 164.467 69.4667 164.374 69.36C164.281 69.2467 164.147 69.19 163.974 69.19C163.807 69.19 163.681 69.2467 163.594 69.36C163.514 69.4667 163.474 69.6233 163.474 69.83V74H162.504ZM170.91 74.1C170.463 74.1 170.07 74.0133 169.73 73.84C169.397 73.66 169.14 73.41 168.96 73.09C168.78 72.77 168.69 72.3967 168.69 71.97V70.53C168.69 70.0967 168.78 69.7233 168.96 69.41C169.14 69.09 169.397 68.8433 169.73 68.67C170.07 68.49 170.463 68.4 170.91 68.4C171.363 68.4 171.757 68.49 172.09 68.67C172.423 68.8433 172.68 69.09 172.86 69.41C173.04 69.7233 173.13 70.0967 173.13 70.53V71.51H169.73V71.97C169.73 72.3767 169.83 72.6867 170.03 72.9C170.237 73.1133 170.533 73.22 170.92 73.22C171.233 73.22 171.487 73.1667 171.68 73.06C171.873 72.9467 171.993 72.7833 172.04 72.57H173.11C173.03 73.0367 172.79 73.41 172.39 73.69C171.99 73.9633 171.497 74.1 170.91 74.1ZM172.09 70.86V70.52C172.09 70.12 171.99 69.81 171.79 69.59C171.59 69.37 171.297 69.26 170.91 69.26C170.53 69.26 170.237 69.37 170.03 69.59C169.83 69.81 169.73 70.1233 169.73 70.53V70.78L172.17 70.77L172.09 70.86ZM174.716 73.4V72.38L177.706 70.95C177.84 70.89 177.966 70.84 178.086 70.8C178.206 70.76 178.296 70.7333 178.356 70.72C178.29 70.7067 178.193 70.68 178.066 70.64C177.946 70.5933 177.826 70.54 177.706 70.48L174.716 69.05V68.01L179.096 70.14V71.27L174.716 73.4Z" fill="#6366F1"/>
<path d="M191.088 73.4L186.708 71.27V70.14L191.088 68.01V69.02L188.098 70.45C187.965 70.51 187.838 70.5633 187.718 70.61C187.598 70.65 187.508 70.6767 187.448 70.69C187.515 70.7033 187.608 70.73 187.728 70.77C187.855 70.81 187.978 70.86 188.098 70.92L191.088 72.36V73.4ZM193.455 75.8V74.87H195.145C195.425 74.87 195.631 74.8033 195.765 74.67C195.905 74.5367 195.975 74.34 195.975 74.08V73.53L195.995 72.51H195.765L195.985 72.31C195.985 72.73 195.851 73.06 195.585 73.3C195.325 73.54 194.971 73.66 194.525 73.66C193.958 73.66 193.511 73.4733 193.185 73.1C192.858 72.7267 192.695 72.2233 192.695 71.59V70.47C192.695 69.8367 192.858 69.3333 193.185 68.96C193.511 68.5867 193.958 68.4 194.525 68.4C194.971 68.4 195.325 68.5233 195.585 68.77C195.851 69.01 195.985 69.34 195.985 69.76L195.765 69.55H195.985L195.975 68.5H197.045V74.1C197.045 74.6267 196.878 75.04 196.545 75.34C196.211 75.6467 195.748 75.8 195.155 75.8H193.455ZM194.875 72.73C195.215 72.73 195.481 72.6267 195.675 72.42C195.875 72.2067 195.975 71.9133 195.975 71.54V70.53C195.975 70.1567 195.875 69.8667 195.675 69.66C195.481 69.4467 195.215 69.34 194.875 69.34C194.521 69.34 194.248 69.4433 194.055 69.65C193.868 69.85 193.775 70.1433 193.775 70.53V71.54C193.775 71.92 193.868 72.2133 194.055 72.42C194.248 72.6267 194.521 72.73 194.875 72.73ZM200.891 74.1C200.444 74.1 200.051 74.0133 199.711 73.84C199.377 73.66 199.121 73.41 198.941 73.09C198.761 72.77 198.671 72.3967 198.671 71.97V70.53C198.671 70.0967 198.761 69.7233 198.941 69.41C199.121 69.09 199.377 68.8433 199.711 68.67C200.051 68.49 200.444 68.4 200.891 68.4C201.344 68.4 201.737 68.49 202.071 68.67C202.404 68.8433 202.661 69.09 202.841 69.41C203.021 69.7233 203.111 70.0967 203.111 70.53V71.51H199.711V71.97C199.711 72.3767 199.811 72.6867 200.011 72.9C200.217 73.1133 200.514 73.22 200.901 73.22C201.214 73.22 201.467 73.1667 201.661 73.06C201.854 72.9467 201.974 72.7833 202.021 72.57H203.091C203.011 73.0367 202.771 73.41 202.371 73.69C201.971 73.9633 201.477 74.1 200.891 74.1ZM202.071 70.86V70.52C202.071 70.12 201.971 69.81 201.771 69.59C201.571 69.37 201.277 69.26 200.891 69.26C200.511 69.26 200.217 69.37 200.011 69.59C199.811 69.81 199.711 70.1233 199.711 70.53V70.78L202.151 70.77L202.071 70.86ZM204.727 74V68.5H205.797V69.55H206.057L205.797 69.8C205.797 69.36 205.927 69.0167 206.187 68.77C206.447 68.5233 206.807 68.4 207.267 68.4C207.813 68.4 208.25 68.5767 208.577 68.93C208.903 69.2767 209.067 69.7467 209.067 70.34V74H207.987V70.46C207.987 70.1 207.89 69.8233 207.697 69.63C207.503 69.4367 207.24 69.34 206.907 69.34C206.567 69.34 206.297 69.4433 206.097 69.65C205.903 69.85 205.807 70.1433 205.807 70.53V74H204.727ZM212.883 74.1C212.436 74.1 212.043 74.0133 211.703 73.84C211.369 73.66 211.113 73.41 210.933 73.09C210.753 72.77 210.663 72.3967 210.663 71.97V70.53C210.663 70.0967 210.753 69.7233 210.933 69.41C211.113 69.09 211.369 68.8433 211.703 68.67C212.043 68.49 212.436 68.4 212.883 68.4C213.336 68.4 213.729 68.49 214.063 68.67C214.396 68.8433 214.653 69.09 214.833 69.41C215.013 69.7233 215.103 70.0967 215.103 70.53V71.51H211.703V71.97C211.703 72.3767 211.803 72.6867 212.003 72.9C212.209 73.1133 212.506 73.22 212.893 73.22C213.206 73.22 213.459 73.1667 213.653 73.06C213.846 72.9467 213.966 72.7833 214.013 72.57H215.083C215.003 73.0367 214.763 73.41 214.363 73.69C213.963 73.9633 213.469 74.1 212.883 74.1ZM214.063 70.86V70.52C214.063 70.12 213.963 69.81 213.763 69.59C213.563 69.37 213.269 69.26 212.883 69.26C212.503 69.26 212.209 69.37 212.003 69.59C211.803 69.81 211.703 70.1233 211.703 70.53V70.78L214.143 70.77L214.063 70.86ZM216.899 74V68.5H217.939V69.55H218.199L217.869 70.2C217.869 69.6067 217.999 69.16 218.259 68.86C218.519 68.5533 218.906 68.4 219.419 68.4C220.006 68.4 220.469 68.5833 220.809 68.95C221.156 69.31 221.329 69.8067 221.329 70.44V70.81H220.219V70.53C220.219 70.1367 220.119 69.8367 219.919 69.63C219.726 69.4167 219.452 69.31 219.099 69.31C218.746 69.31 218.469 69.4167 218.269 69.63C218.076 69.8433 217.979 70.1433 217.979 70.53V74H216.899ZM224.325 74.1C223.752 74.1 223.298 73.9533 222.965 73.66C222.638 73.36 222.475 72.9533 222.475 72.44C222.475 71.92 222.648 71.5133 222.995 71.22C223.348 70.92 223.832 70.77 224.445 70.77H225.975V70.26C225.975 69.96 225.882 69.7267 225.695 69.56C225.508 69.3933 225.245 69.31 224.905 69.31C224.605 69.31 224.355 69.3767 224.155 69.51C223.955 69.6367 223.838 69.8067 223.805 70.02H222.745C222.805 69.5267 223.032 69.1333 223.425 68.84C223.825 68.5467 224.328 68.4 224.935 68.4C225.588 68.4 226.105 68.5667 226.485 68.9C226.865 69.2267 227.055 69.6733 227.055 70.24V74H226.005V72.99H225.825L226.005 72.79C226.005 73.19 225.852 73.51 225.545 73.75C225.238 73.9833 224.832 74.1 224.325 74.1ZM224.645 73.27C225.032 73.27 225.348 73.1733 225.595 72.98C225.848 72.78 225.975 72.5267 225.975 72.22V71.5H224.465C224.185 71.5 223.962 71.5767 223.795 71.73C223.635 71.8833 223.555 72.0933 223.555 72.36C223.555 72.64 223.652 72.8633 223.845 73.03C224.038 73.19 224.305 73.27 224.645 73.27ZM231.471 74C230.971 74 230.581 73.8633 230.301 73.59C230.021 73.3167 229.881 72.9367 229.881 72.45V69.48H228.361V68.5H229.881V66.95H230.961V68.5H233.111V69.48H230.961V72.45C230.961 72.83 231.144 73.02 231.511 73.02H233.011V74H231.471ZM236.867 74.09C236.414 74.09 236.021 74.0033 235.687 73.83C235.354 73.6567 235.097 73.41 234.917 73.09C234.737 72.77 234.647 72.3933 234.647 71.96V70.54C234.647 70.1 234.737 69.7233 234.917 69.41C235.097 69.09 235.354 68.8433 235.687 68.67C236.021 68.4967 236.414 68.41 236.867 68.41C237.321 68.41 237.714 68.4967 238.047 68.67C238.381 68.8433 238.637 69.09 238.817 69.41C238.997 69.7233 239.087 70.1 239.087 70.54V71.96C239.087 72.3933 238.997 72.77 238.817 73.09C238.637 73.41 238.381 73.6567 238.047 73.83C237.714 74.0033 237.321 74.09 236.867 74.09ZM236.867 73.14C237.234 73.14 237.517 73.04 237.717 72.84C237.917 72.6333 238.017 72.34 238.017 71.96V70.54C238.017 70.1533 237.917 69.86 237.717 69.66C237.517 69.46 237.234 69.36 236.867 69.36C236.507 69.36 236.224 69.46 236.017 69.66C235.817 69.86 235.717 70.1533 235.717 70.54V71.96C235.717 72.34 235.817 72.6333 236.017 72.84C236.224 73.04 236.507 73.14 236.867 73.14ZM240.883 74V68.5H241.923V69.55H242.183L241.853 70.2C241.853 69.6067 241.983 69.16 242.243 68.86C242.503 68.5533 242.89 68.4 243.403 68.4C243.99 68.4 244.453 68.5833 244.793 68.95C245.14 69.31 245.313 69.8067 245.313 70.44V70.81H244.203V70.53C244.203 70.1367 244.103 69.8367 243.903 69.63C243.71 69.4167 243.437 69.31 243.083 69.31C242.73 69.31 242.453 69.4167 242.253 69.63C242.06 69.8433 241.963 70.1433 241.963 70.53V74H240.883ZM252.695 74V68.5H253.765V69.55H254.025L253.765 69.8C253.765 69.36 253.895 69.0167 254.155 68.77C254.415 68.5233 254.775 68.4 255.235 68.4C255.782 68.4 256.219 68.5767 256.545 68.93C256.872 69.2767 257.035 69.7467 257.035 70.34V74H255.955V70.46C255.955 70.1 255.859 69.8233 255.665 69.63C255.472 69.4367 255.209 69.34 254.875 69.34C254.535 69.34 254.265 69.4433 254.065 69.65C253.872 69.85 253.775 70.1433 253.775 70.53V74H252.695ZM260.302 74.1C259.728 74.1 259.275 73.9533 258.942 73.66C258.615 73.36 258.452 72.9533 258.452 72.44C258.452 71.92 258.625 71.5133 258.972 71.22C259.325 70.92 259.808 70.77 260.422 70.77H261.952V70.26C261.952 69.96 261.858 69.7267 261.672 69.56C261.485 69.3933 261.222 69.31 260.882 69.31C260.582 69.31 260.332 69.3767 260.132 69.51C259.932 69.6367 259.815 69.8067 259.782 70.02H258.722C258.782 69.5267 259.008 69.1333 259.402 68.84C259.802 68.5467 260.305 68.4 260.912 68.4C261.565 68.4 262.082 68.5667 262.462 68.9C262.842 69.2267 263.032 69.6733 263.032 70.24V74H261.982V72.99H261.802L261.982 72.79C261.982 73.19 261.828 73.51 261.522 73.75C261.215 73.9833 260.808 74.1 260.302 74.1ZM260.622 73.27C261.008 73.27 261.325 73.1733 261.572 72.98C261.825 72.78 261.952 72.5267 261.952 72.22V71.5H260.442C260.162 71.5 259.938 71.5767 259.772 71.73C259.612 71.8833 259.532 72.0933 259.532 72.36C259.532 72.64 259.628 72.8633 259.822 73.03C260.015 73.19 260.282 73.27 260.622 73.27ZM264.438 74V68.5H265.338V69.2H265.538L265.388 69.41C265.388 69.1033 265.471 68.86 265.638 68.68C265.804 68.4933 266.028 68.4 266.308 68.4C266.608 68.4 266.838 68.5167 266.998 68.75C267.164 68.9833 267.248 69.3033 267.248 69.71L267.008 69.2H267.388L267.228 69.41C267.228 69.1033 267.311 68.86 267.478 68.68C267.651 68.4933 267.881 68.4 268.168 68.4C268.508 68.4 268.774 68.53 268.968 68.79C269.161 69.0433 269.258 69.3833 269.258 69.81V74H268.298V69.84C268.298 69.6333 268.251 69.4733 268.158 69.36C268.071 69.2467 267.944 69.19 267.778 69.19C267.611 69.19 267.481 69.2467 267.388 69.36C267.301 69.4667 267.258 69.6233 267.258 69.83V74H266.448V69.84C266.448 69.6267 266.401 69.4667 266.308 69.36C266.214 69.2467 266.081 69.19 265.908 69.19C265.741 69.19 265.614 69.2467 265.528 69.36C265.448 69.4667 265.408 69.6233 265.408 69.83V74H264.438ZM272.844 74.1C272.397 74.1 272.004 74.0133 271.664 73.84C271.33 73.66 271.074 73.41 270.894 73.09C270.714 72.77 270.624 72.3967 270.624 71.97V70.53C270.624 70.0967 270.714 69.7233 270.894 69.41C271.074 69.09 271.33 68.8433 271.664 68.67C272.004 68.49 272.397 68.4 272.844 68.4C273.297 68.4 273.69 68.49 274.024 68.67C274.357 68.8433 274.614 69.09 274.794 69.41C274.974 69.7233 275.064 70.0967 275.064 70.53V71.51H271.664V71.97C271.664 72.3767 271.764 72.6867 271.964 72.9C272.17 73.1133 272.467 73.22 272.854 73.22C273.167 73.22 273.42 73.1667 273.614 73.06C273.807 72.9467 273.927 72.7833 273.974 72.57H275.044C274.964 73.0367 274.724 73.41 274.324 73.69C273.924 73.9633 273.43 74.1 272.844 74.1ZM274.024 70.86V70.52C274.024 70.12 273.924 69.81 273.724 69.59C273.524 69.37 273.23 69.26 272.844 69.26C272.464 69.26 272.17 69.37 271.964 69.59C271.764 69.81 271.664 70.1233 271.664 70.53V70.78L274.104 70.77L274.024 70.86ZM276.65 73.4V72.38L279.64 70.95C279.773 70.89 279.9 70.84 280.02 70.8C280.14 70.76 280.23 70.7333 280.29 70.72C280.223 70.7067 280.127 70.68 280 70.64C279.88 70.5933 279.76 70.54 279.64 70.48L276.65 69.05V68.01L281.03 70.14V71.27L276.65 73.4Z" fill="#F43F5E"/>
<path d="M293.022 73.4L288.642 71.27V70.14L293.022 68.01V69.02L290.032 70.45C289.899 70.51 289.772 70.5633 289.652 70.61C289.532 70.65 289.442 70.6767 289.382 70.69C289.449 70.7033 289.542 70.73 289.662 70.77C289.789 70.81 289.912 70.86 290.032 70.92L293.022 72.36V73.4ZM296.438 74.1C295.885 74.1 295.441 73.9133 295.108 73.54C294.775 73.1667 294.608 72.6633 294.608 72.03V70.48C294.608 69.84 294.775 69.3333 295.108 68.96C295.441 68.5867 295.885 68.4 296.438 68.4C296.891 68.4 297.251 68.5267 297.518 68.78C297.785 69.0267 297.918 69.3667 297.918 69.8L297.688 69.55H297.938L297.908 68.27V66.7H298.988V74H297.918V72.95H297.688L297.918 72.7C297.918 73.1333 297.785 73.4767 297.518 73.73C297.251 73.9767 296.891 74.1 296.438 74.1ZM296.808 73.16C297.148 73.16 297.415 73.0567 297.608 72.85C297.808 72.6367 297.908 72.3433 297.908 71.97V70.53C297.908 70.1567 297.808 69.8667 297.608 69.66C297.415 69.4467 297.148 69.34 296.808 69.34C296.455 69.34 296.178 69.4433 295.978 69.65C295.778 69.85 295.678 70.1433 295.678 70.53V71.97C295.678 72.3567 295.778 72.6533 295.978 72.86C296.178 73.06 296.455 73.16 296.808 73.16ZM302.824 74.1C302.378 74.1 301.984 74.0133 301.644 73.84C301.311 73.66 301.054 73.41 300.874 73.09C300.694 72.77 300.604 72.3967 300.604 71.97V70.53C300.604 70.0967 300.694 69.7233 300.874 69.41C301.054 69.09 301.311 68.8433 301.644 68.67C301.984 68.49 302.378 68.4 302.824 68.4C303.278 68.4 303.671 68.49 304.004 68.67C304.338 68.8433 304.594 69.09 304.774 69.41C304.954 69.7233 305.044 70.0967 305.044 70.53V71.51H301.644V71.97C301.644 72.3767 301.744 72.6867 301.944 72.9C302.151 73.1133 302.448 73.22 302.834 73.22C303.148 73.22 303.401 73.1667 303.594 73.06C303.788 72.9467 303.908 72.7833 303.954 72.57H305.024C304.944 73.0367 304.704 73.41 304.304 73.69C303.904 73.9633 303.411 74.1 302.824 74.1ZM304.004 70.86V70.52C304.004 70.12 303.904 69.81 303.704 69.59C303.504 69.37 303.211 69.26 302.824 69.26C302.444 69.26 302.151 69.37 301.944 69.59C301.744 69.81 301.644 70.1233 301.644 70.53V70.78L304.084 70.77L304.004 70.86ZM307.95 74V70.06H306.39V69.08H307.95V68.19C307.95 67.73 308.097 67.3667 308.39 67.1C308.684 66.8333 309.084 66.7 309.59 66.7H311.2V67.66H309.61C309.424 67.66 309.277 67.7067 309.17 67.8C309.07 67.8933 309.02 68.0267 309.02 68.2V69.08H311.2V70.06H309.02V74H307.95ZM314.266 74.1C313.693 74.1 313.24 73.9533 312.906 73.66C312.58 73.36 312.416 72.9533 312.416 72.44C312.416 71.92 312.59 71.5133 312.936 71.22C313.29 70.92 313.773 70.77 314.386 70.77H315.916V70.26C315.916 69.96 315.823 69.7267 315.636 69.56C315.45 69.3933 315.186 69.31 314.846 69.31C314.546 69.31 314.296 69.3767 314.096 69.51C313.896 69.6367 313.78 69.8067 313.746 70.02H312.686C312.746 69.5267 312.973 69.1333 313.366 68.84C313.766 68.5467 314.27 68.4 314.876 68.4C315.53 68.4 316.046 68.5667 316.426 68.9C316.806 69.2267 316.996 69.6733 316.996 70.24V74H315.946V72.99H315.766L315.946 72.79C315.946 73.19 315.793 73.51 315.486 73.75C315.18 73.9833 314.773 74.1 314.266 74.1ZM314.586 73.27C314.973 73.27 315.29 73.1733 315.536 72.98C315.79 72.78 315.916 72.5267 315.916 72.22V71.5H314.406C314.126 71.5 313.903 71.5767 313.736 71.73C313.576 71.8833 313.496 72.0933 313.496 72.36C313.496 72.64 313.593 72.8633 313.786 73.03C313.98 73.19 314.246 73.27 314.586 73.27ZM320.803 74.1C320.143 74.1 319.616 73.91 319.223 73.53C318.829 73.1433 318.633 72.62 318.633 71.96V68.5H319.713V71.96C319.713 72.34 319.809 72.6367 320.003 72.85C320.196 73.0567 320.463 73.16 320.803 73.16C321.149 73.16 321.419 73.0567 321.613 72.85C321.813 72.6367 321.913 72.34 321.913 71.96V68.5H322.993V71.96C322.993 72.62 322.793 73.1433 322.393 73.53C321.999 73.91 321.469 74.1 320.803 74.1ZM327.599 74C327.259 74 326.962 73.9333 326.709 73.8C326.455 73.66 326.255 73.4633 326.109 73.21C325.969 72.9567 325.899 72.6633 325.899 72.33V67.68H324.099V66.7H326.979V72.33C326.979 72.5433 327.039 72.7133 327.159 72.84C327.279 72.96 327.442 73.02 327.649 73.02H329.349V74H327.599ZM333.405 74C332.905 74 332.515 73.8633 332.235 73.59C331.955 73.3167 331.815 72.9367 331.815 72.45V69.48H330.295V68.5H331.815V66.95H332.895V68.5H335.045V69.48H332.895V72.45C332.895 72.83 333.078 73.02 333.445 73.02H334.945V74H333.405ZM344.797 74.09C344.344 74.09 343.95 74.0033 343.617 73.83C343.284 73.6567 343.027 73.41 342.847 73.09C342.667 72.77 342.577 72.3933 342.577 71.96V70.54C342.577 70.1 342.667 69.7233 342.847 69.41C343.027 69.09 343.284 68.8433 343.617 68.67C343.95 68.4967 344.344 68.41 344.797 68.41C345.25 68.41 345.644 68.4967 345.977 68.67C346.31 68.8433 346.567 69.09 346.747 69.41C346.927 69.7233 347.017 70.1 347.017 70.54V71.96C347.017 72.3933 346.927 72.77 346.747 73.09C346.567 73.41 346.31 73.6567 345.977 73.83C345.644 74.0033 345.25 74.09 344.797 74.09ZM344.797 73.14C345.164 73.14 345.447 73.04 345.647 72.84C345.847 72.6333 345.947 72.34 345.947 71.96V70.54C345.947 70.1533 345.847 69.86 345.647 69.66C345.447 69.46 345.164 69.36 344.797 69.36C344.437 69.36 344.154 69.46 343.947 69.66C343.747 69.86 343.647 70.1533 343.647 70.54V71.96C343.647 72.34 343.747 72.6333 343.947 72.84C344.154 73.04 344.437 73.14 344.797 73.14ZM348.633 75.8V68.5H349.703V69.55H349.933L349.703 69.8C349.703 69.3667 349.836 69.0267 350.103 68.78C350.376 68.5267 350.74 68.4 351.193 68.4C351.746 68.4 352.186 68.5867 352.513 68.96C352.846 69.3267 353.013 69.83 353.013 70.47V72.02C353.013 72.4467 352.936 72.8167 352.783 73.13C352.636 73.4367 352.426 73.6767 352.153 73.85C351.886 74.0167 351.566 74.1 351.193 74.1C350.746 74.1 350.386 73.9767 350.113 73.73C349.84 73.4767 349.703 73.1333 349.703 72.7L349.933 72.95H349.683L349.713 74.23V75.8H348.633ZM350.823 73.16C351.176 73.16 351.45 73.06 351.643 72.86C351.843 72.6533 351.943 72.3567 351.943 71.97V70.53C351.943 70.1433 351.843 69.85 351.643 69.65C351.45 69.4433 351.176 69.34 350.823 69.34C350.483 69.34 350.213 69.4467 350.013 69.66C349.813 69.8667 349.713 70.1567 349.713 70.53V71.97C349.713 72.3433 349.813 72.6367 350.013 72.85C350.213 73.0567 350.483 73.16 350.823 73.16ZM357.389 74C356.889 74 356.499 73.8633 356.219 73.59C355.939 73.3167 355.799 72.9367 355.799 72.45V69.48H354.279V68.5H355.799V66.95H356.879V68.5H359.029V69.48H356.879V72.45C356.879 72.83 357.062 73.02 357.429 73.02H358.929V74H357.389ZM360.595 74V73.02H362.525V69.48H360.845V68.5H363.575V73.02H365.345V74H360.595ZM362.945 67.55C362.712 67.55 362.525 67.49 362.385 67.37C362.245 67.2433 362.175 67.0767 362.175 66.87C362.175 66.6567 362.245 66.49 362.385 66.37C362.525 66.2433 362.712 66.18 362.945 66.18C363.178 66.18 363.365 66.2433 363.505 66.37C363.645 66.49 363.715 66.6567 363.715 66.87C363.715 67.0767 363.645 67.2433 363.505 67.37C363.365 67.49 363.178 67.55 362.945 67.55ZM368.781 74.09C368.328 74.09 367.935 74.0033 367.601 73.83C367.268 73.6567 367.011 73.41 366.831 73.09C366.651 72.77 366.561 72.3933 366.561 71.96V70.54C366.561 70.1 366.651 69.7233 366.831 69.41C367.011 69.09 367.268 68.8433 367.601 68.67C367.935 68.4967 368.328 68.41 368.781 68.41C369.235 68.41 369.628 68.4967 369.961 68.67C370.295 68.8433 370.551 69.09 370.731 69.41C370.911 69.7233 371.001 70.1 371.001 70.54V71.96C371.001 72.3933 370.911 72.77 370.731 73.09C370.551 73.41 370.295 73.6567 369.961 73.83C369.628 74.0033 369.235 74.09 368.781 74.09ZM368.781 73.14C369.148 73.14 369.431 73.04 369.631 72.84C369.831 72.6333 369.931 72.34 369.931 71.96V70.54C369.931 70.1533 369.831 69.86 369.631 69.66C369.431 69.46 369.148 69.36 368.781 69.36C368.421 69.36 368.138 69.46 367.931 69.66C367.731 69.86 367.631 70.1533 367.631 70.54V71.96C367.631 72.34 367.731 72.6333 367.931 72.84C368.138 73.04 368.421 73.14 368.781 73.14ZM372.617 74V68.5H373.687V69.55H373.947L373.687 69.8C373.687 69.36 373.817 69.0167 374.077 68.77C374.337 68.5233 374.697 68.4 375.157 68.4C375.704 68.4 376.141 68.5767 376.467 68.93C376.794 69.2767 376.957 69.7467 376.957 70.34V74H375.877V70.46C375.877 70.1 375.781 69.8233 375.587 69.63C375.394 69.4367 375.131 69.34 374.797 69.34C374.457 69.34 374.187 69.4433 373.987 69.65C373.794 69.85 373.697 70.1433 373.697 70.53V74H372.617ZM378.583 73.4V72.38L381.573 70.95C381.707 70.89 381.833 70.84 381.953 70.8C382.073 70.76 382.163 70.7333 382.223 70.72C382.157 70.7067 382.06 70.68 381.933 70.64C381.813 70.5933 381.693 70.54 381.573 70.48L378.583 69.05V68.01L382.963 70.14V71.27L378.583 73.4Z" fill="#47BC99"/>
<path d="M394.956 73.4L390.576 71.27V70.14L394.956 68.01V69.02L391.966 70.45C391.832 70.51 391.706 70.5633 391.586 70.61C391.466 70.65 391.376 70.6767 391.316 70.69C391.382 70.7033 391.476 70.73 391.596 70.77C391.722 70.81 391.846 70.86 391.966 70.92L394.956 72.36V73.4ZM398.762 74.09C398.308 74.09 397.915 74.0033 397.582 73.83C397.248 73.6567 396.992 73.41 396.812 73.09C396.632 72.77 396.542 72.3933 396.542 71.96V70.54C396.542 70.1 396.632 69.7233 396.812 69.41C396.992 69.09 397.248 68.8433 397.582 68.67C397.915 68.4967 398.308 68.41 398.762 68.41C399.215 68.41 399.608 68.4967 399.942 68.67C400.275 68.8433 400.532 69.09 400.712 69.41C400.892 69.7233 400.982 70.1 400.982 70.54V71.96C400.982 72.3933 400.892 72.77 400.712 73.09C400.532 73.41 400.275 73.6567 399.942 73.83C399.608 74.0033 399.215 74.09 398.762 74.09ZM398.762 73.14C399.128 73.14 399.412 73.04 399.612 72.84C399.812 72.6333 399.912 72.34 399.912 71.96V70.54C399.912 70.1533 399.812 69.86 399.612 69.66C399.412 69.46 399.128 69.36 398.762 69.36C398.402 69.36 398.118 69.46 397.912 69.66C397.712 69.86 397.612 70.1533 397.612 70.54V71.96C397.612 72.34 397.712 72.6333 397.912 72.84C398.118 73.04 398.402 73.14 398.762 73.14ZM405.358 74C404.858 74 404.468 73.8633 404.188 73.59C403.908 73.3167 403.768 72.9367 403.768 72.45V69.48H402.248V68.5H403.768V66.95H404.848V68.5H406.998V69.48H404.848V72.45C404.848 72.83 405.031 73.02 405.398 73.02H406.898V74H405.358ZM408.594 74V66.7H409.674V68.5L409.664 69.55H409.924L409.664 69.8C409.664 69.36 409.794 69.0167 410.054 68.77C410.314 68.5233 410.674 68.4 411.134 68.4C411.681 68.4 412.117 68.5767 412.444 68.93C412.771 69.2767 412.934 69.7467 412.934 70.34V74H411.854V70.46C411.854 70.1 411.757 69.82 411.564 69.62C411.371 69.42 411.107 69.32 410.774 69.32C410.434 69.32 410.164 69.4267 409.964 69.64C409.771 69.8467 409.674 70.1433 409.674 70.53V74H408.594ZM416.75 74.1C416.303 74.1 415.91 74.0133 415.57 73.84C415.237 73.66 414.98 73.41 414.8 73.09C414.62 72.77 414.53 72.3967 414.53 71.97V70.53C414.53 70.0967 414.62 69.7233 414.8 69.41C414.98 69.09 415.237 68.8433 415.57 68.67C415.91 68.49 416.303 68.4 416.75 68.4C417.203 68.4 417.597 68.49 417.93 68.67C418.263 68.8433 418.52 69.09 418.7 69.41C418.88 69.7233 418.97 70.0967 418.97 70.53V71.51H415.57V71.97C415.57 72.3767 415.67 72.6867 415.87 72.9C416.077 73.1133 416.373 73.22 416.76 73.22C417.073 73.22 417.327 73.1667 417.52 73.06C417.713 72.9467 417.833 72.7833 417.88 72.57H418.95C418.87 73.0367 418.63 73.41 418.23 73.69C417.83 73.9633 417.337 74.1 416.75 74.1ZM417.93 70.86V70.52C417.93 70.12 417.83 69.81 417.63 69.59C417.43 69.37 417.137 69.26 416.75 69.26C416.37 69.26 416.077 69.37 415.87 69.59C415.67 69.81 415.57 70.1233 415.57 70.53V70.78L418.01 70.77L417.93 70.86ZM420.766 74V68.5H421.806V69.55H422.066L421.736 70.2C421.736 69.6067 421.866 69.16 422.126 68.86C422.386 68.5533 422.773 68.4 423.286 68.4C423.873 68.4 424.336 68.5833 424.676 68.95C425.023 69.31 425.196 69.8067 425.196 70.44V70.81H424.086V70.53C424.086 70.1367 423.986 69.8367 423.786 69.63C423.593 69.4167 423.319 69.31 422.966 69.31C422.613 69.31 422.336 69.4167 422.136 69.63C421.943 69.8433 421.846 70.1433 421.846 70.53V74H420.766ZM434.738 74.09C434.285 74.09 433.892 74.0033 433.558 73.83C433.225 73.6567 432.968 73.41 432.788 73.09C432.608 72.77 432.518 72.3933 432.518 71.96V70.54C432.518 70.1 432.608 69.7233 432.788 69.41C432.968 69.09 433.225 68.8433 433.558 68.67C433.892 68.4967 434.285 68.41 434.738 68.41C435.192 68.41 435.585 68.4967 435.918 68.67C436.252 68.8433 436.508 69.09 436.688 69.41C436.868 69.7233 436.958 70.1 436.958 70.54V71.96C436.958 72.3933 436.868 72.77 436.688 73.09C436.508 73.41 436.252 73.6567 435.918 73.83C435.585 74.0033 435.192 74.09 434.738 74.09ZM434.738 73.14C435.105 73.14 435.388 73.04 435.588 72.84C435.788 72.6333 435.888 72.34 435.888 71.96V70.54C435.888 70.1533 435.788 69.86 435.588 69.66C435.388 69.46 435.105 69.36 434.738 69.36C434.378 69.36 434.095 69.46 433.888 69.66C433.688 69.86 433.588 70.1533 433.588 70.54V71.96C433.588 72.34 433.688 72.6333 433.888 72.84C434.095 73.04 434.378 73.14 434.738 73.14ZM438.574 75.8V68.5H439.644V69.55H439.874L439.644 69.8C439.644 69.3667 439.778 69.0267 440.044 68.78C440.318 68.5267 440.681 68.4 441.134 68.4C441.688 68.4 442.128 68.5867 442.454 68.96C442.788 69.3267 442.954 69.83 442.954 70.47V72.02C442.954 72.4467 442.878 72.8167 442.724 73.13C442.578 73.4367 442.368 73.6767 442.094 73.85C441.828 74.0167 441.508 74.1 441.134 74.1C440.688 74.1 440.328 73.9767 440.054 73.73C439.781 73.4767 439.644 73.1333 439.644 72.7L439.874 72.95H439.624L439.654 74.23V75.8H438.574ZM440.764 73.16C441.118 73.16 441.391 73.06 441.584 72.86C441.784 72.6533 441.884 72.3567 441.884 71.97V70.53C441.884 70.1433 441.784 69.85 441.584 69.65C441.391 69.4433 441.118 69.34 440.764 69.34C440.424 69.34 440.154 69.4467 439.954 69.66C439.754 69.8667 439.654 70.1567 439.654 70.53V71.97C439.654 72.3433 439.754 72.6367 439.954 72.85C440.154 73.0567 440.424 73.16 440.764 73.16ZM447.33 74C446.83 74 446.44 73.8633 446.16 73.59C445.88 73.3167 445.74 72.9367 445.74 72.45V69.48H444.22V68.5H445.74V66.95H446.82V68.5H448.97V69.48H446.82V72.45C446.82 72.83 447.004 73.02 447.37 73.02H448.87V74H447.33ZM450.537 74V73.02H452.467V69.48H450.787V68.5H453.517V73.02H455.287V74H450.537ZM452.887 67.55C452.653 67.55 452.467 67.49 452.327 67.37C452.187 67.2433 452.117 67.0767 452.117 66.87C452.117 66.6567 452.187 66.49 452.327 66.37C452.467 66.2433 452.653 66.18 452.887 66.18C453.12 66.18 453.307 66.2433 453.447 66.37C453.587 66.49 453.657 66.6567 453.657 66.87C453.657 67.0767 453.587 67.2433 453.447 67.37C453.307 67.49 453.12 67.55 452.887 67.55ZM458.723 74.09C458.269 74.09 457.876 74.0033 457.543 73.83C457.209 73.6567 456.953 73.41 456.773 73.09C456.593 72.77 456.503 72.3933 456.503 71.96V70.54C456.503 70.1 456.593 69.7233 456.773 69.41C456.953 69.09 457.209 68.8433 457.543 68.67C457.876 68.4967 458.269 68.41 458.723 68.41C459.176 68.41 459.569 68.4967 459.903 68.67C460.236 68.8433 460.493 69.09 460.673 69.41C460.853 69.7233 460.943 70.1 460.943 70.54V71.96C460.943 72.3933 460.853 72.77 460.673 73.09C460.493 73.41 460.236 73.6567 459.903 73.83C459.569 74.0033 459.176 74.09 458.723 74.09ZM458.723 73.14C459.089 73.14 459.373 73.04 459.573 72.84C459.773 72.6333 459.873 72.34 459.873 71.96V70.54C459.873 70.1533 459.773 69.86 459.573 69.66C459.373 69.46 459.089 69.36 458.723 69.36C458.363 69.36 458.079 69.46 457.873 69.66C457.673 69.86 457.573 70.1533 457.573 70.54V71.96C457.573 72.34 457.673 72.6333 457.873 72.84C458.079 73.04 458.363 73.14 458.723 73.14ZM462.559 74V68.5H463.629V69.55H463.889L463.629 69.8C463.629 69.36 463.759 69.0167 464.019 68.77C464.279 68.5233 464.639 68.4 465.099 68.4C465.645 68.4 466.082 68.5767 466.409 68.93C466.735 69.2767 466.899 69.7467 466.899 70.34V74H465.819V70.46C465.819 70.1 465.722 69.8233 465.529 69.63C465.335 69.4367 465.072 69.34 464.739 69.34C464.399 69.34 464.129 69.4433 463.929 69.65C463.735 69.85 463.639 70.1433 463.639 70.53V74H462.559ZM470.525 74.09C470.132 74.09 469.785 74.0267 469.485 73.9C469.192 73.7733 468.958 73.6 468.785 73.38C468.618 73.1533 468.522 72.8867 468.495 72.58H469.575C469.602 72.76 469.698 72.9067 469.865 73.02C470.032 73.1267 470.252 73.18 470.525 73.18H470.955C471.282 73.18 471.528 73.1133 471.695 72.98C471.862 72.8467 471.945 72.67 471.945 72.45C471.945 72.2367 471.868 72.07 471.715 71.95C471.568 71.8233 471.348 71.74 471.055 71.7L470.345 71.59C469.758 71.4967 469.325 71.33 469.045 71.09C468.772 70.8433 468.635 70.48 468.635 70C468.635 69.4933 468.798 69.1033 469.125 68.83C469.458 68.55 469.948 68.41 470.595 68.41H470.975C471.548 68.41 472.005 68.5433 472.345 68.81C472.692 69.07 472.888 69.42 472.935 69.86H471.855C471.828 69.7 471.738 69.57 471.585 69.47C471.438 69.37 471.235 69.32 470.975 69.32H470.595C470.282 69.32 470.052 69.38 469.905 69.5C469.765 69.6133 469.695 69.7833 469.695 70.01C469.695 70.21 469.758 70.36 469.885 70.46C470.012 70.56 470.208 70.63 470.475 70.67L471.205 70.79C471.825 70.8767 472.278 71.05 472.565 71.31C472.858 71.5633 473.005 71.9333 473.005 72.42C473.005 72.9467 472.832 73.3567 472.485 73.65C472.145 73.9433 471.635 74.09 470.955 74.09H470.525ZM474.521 73.4V72.38L477.511 70.95C477.644 70.89 477.771 70.84 477.891 70.8C478.011 70.76 478.101 70.7333 478.161 70.72C478.094 70.7067 477.998 70.68 477.871 70.64C477.751 70.5933 477.631 70.54 477.511 70.48L474.521 69.05V68.01L478.901 70.14V71.27L474.521 73.4Z" fill="#F88C9E"/>
<path d="M30.84 162V156.5H31.91V157.55H32.17L31.91 157.8C31.91 157.36 32.04 157.017 32.3 156.77C32.56 156.523 32.92 156.4 33.38 156.4C33.9267 156.4 34.3633 156.577 34.69 156.93C35.0167 157.277 35.18 157.747 35.18 158.34V162H34.1V158.46C34.1 158.1 34.0033 157.823 33.81 157.63C33.6167 157.437 33.3533 157.34 33.02 157.34C32.68 157.34 32.41 157.443 32.21 157.65C32.0167 157.85 31.92 158.143 31.92 158.53V162H30.84ZM36.4261 162L38.3561 159.16L36.5461 156.5H37.7861L38.7561 158.02C38.8028 158.1 38.8494 158.187 38.8961 158.28C38.9428 158.367 38.9794 158.44 39.0061 158.5C39.0261 158.44 39.0594 158.367 39.1061 158.28C39.1528 158.187 39.1994 158.1 39.2461 158.02L40.2161 156.5H41.4561L39.6461 159.17L41.5661 162H40.3261L39.2561 160.35C39.2094 160.27 39.1628 160.18 39.1161 160.08C39.0694 159.98 39.0328 159.9 39.0061 159.84C38.9794 159.9 38.9394 159.98 38.8861 160.08C38.8394 160.18 38.7894 160.27 38.7361 160.35L37.6561 162H36.4261ZM49.5483 163.8V162.87H51.2383C51.5183 162.87 51.7249 162.803 51.8583 162.67C51.9983 162.537 52.0683 162.34 52.0683 162.08V161.53L52.0883 160.51H51.8583L52.0783 160.31C52.0783 160.73 51.9449 161.06 51.6783 161.3C51.4183 161.54 51.0649 161.66 50.6183 161.66C50.0516 161.66 49.6049 161.473 49.2783 161.1C48.9516 160.727 48.7883 160.223 48.7883 159.59V158.47C48.7883 157.837 48.9516 157.333 49.2783 156.96C49.6049 156.587 50.0516 156.4 50.6183 156.4C51.0649 156.4 51.4183 156.523 51.6783 156.77C51.9449 157.01 52.0783 157.34 52.0783 157.76L51.8583 157.55H52.0783L52.0683 156.5H53.1383V162.1C53.1383 162.627 52.9716 163.04 52.6383 163.34C52.3049 163.647 51.8416 163.8 51.2483 163.8H49.5483ZM50.9683 160.73C51.3083 160.73 51.5749 160.627 51.7683 160.42C51.9683 160.207 52.0683 159.913 52.0683 159.54V158.53C52.0683 158.157 51.9683 157.867 51.7683 157.66C51.5749 157.447 51.3083 157.34 50.9683 157.34C50.6149 157.34 50.3416 157.443 50.1483 157.65C49.9616 157.85 49.8683 158.143 49.8683 158.53V159.54C49.8683 159.92 49.9616 160.213 50.1483 160.42C50.3416 160.627 50.6149 160.73 50.9683 160.73ZM56.9844 162.1C56.5377 162.1 56.1444 162.013 55.8044 161.84C55.471 161.66 55.2144 161.41 55.0344 161.09C54.8544 160.77 54.7644 160.397 54.7644 159.97V158.53C54.7644 158.097 54.8544 157.723 55.0344 157.41C55.2144 157.09 55.471 156.843 55.8044 156.67C56.1444 156.49 56.5377 156.4 56.9844 156.4C57.4377 156.4 57.831 156.49 58.1644 156.67C58.4977 156.843 58.7544 157.09 58.9344 157.41C59.1144 157.723 59.2044 158.097 59.2044 158.53V159.51H55.8044V159.97C55.8044 160.377 55.9044 160.687 56.1044 160.9C56.311 161.113 56.6077 161.22 56.9944 161.22C57.3077 161.22 57.561 161.167 57.7544 161.06C57.9477 160.947 58.0677 160.783 58.1144 160.57H59.1844C59.1044 161.037 58.8644 161.41 58.4644 161.69C58.0644 161.963 57.571 162.1 56.9844 162.1ZM58.1644 158.86V158.52C58.1644 158.12 58.0644 157.81 57.8644 157.59C57.6644 157.37 57.371 157.26 56.9844 157.26C56.6044 157.26 56.311 157.37 56.1044 157.59C55.9044 157.81 55.8044 158.123 55.8044 158.53V158.78L58.2444 158.77L58.1644 158.86ZM60.8205 162V156.5H61.8905V157.55H62.1505L61.8905 157.8C61.8905 157.36 62.0205 157.017 62.2805 156.77C62.5405 156.523 62.9005 156.4 63.3605 156.4C63.9071 156.4 64.3438 156.577 64.6705 156.93C64.9971 157.277 65.1605 157.747 65.1605 158.34V162H64.0805V158.46C64.0805 158.1 63.9838 157.823 63.7905 157.63C63.5971 157.437 63.3338 157.34 63.0005 157.34C62.6605 157.34 62.3905 157.443 62.1905 157.65C61.9971 157.85 61.9005 158.143 61.9005 158.53V162H60.8205ZM68.9766 162.1C68.5299 162.1 68.1366 162.013 67.7966 161.84C67.4632 161.66 67.2066 161.41 67.0266 161.09C66.8466 160.77 66.7566 160.397 66.7566 159.97V158.53C66.7566 158.097 66.8466 157.723 67.0266 157.41C67.2066 157.09 67.4632 156.843 67.7966 156.67C68.1366 156.49 68.5299 156.4 68.9766 156.4C69.4299 156.4 69.8232 156.49 70.1566 156.67C70.4899 156.843 70.7466 157.09 70.9266 157.41C71.1066 157.723 71.1966 158.097 71.1966 158.53V159.51H67.7966V159.97C67.7966 160.377 67.8966 160.687 68.0966 160.9C68.3032 161.113 68.5999 161.22 68.9866 161.22C69.2999 161.22 69.5532 161.167 69.7466 161.06C69.9399 160.947 70.0599 160.783 70.1066 160.57H71.1766C71.0966 161.037 70.8566 161.41 70.4566 161.69C70.0566 161.963 69.5632 162.1 68.9766 162.1ZM70.1566 158.86V158.52C70.1566 158.12 70.0566 157.81 69.8566 157.59C69.6566 157.37 69.3632 157.26 68.9766 157.26C68.5966 157.26 68.3032 157.37 68.0966 157.59C67.8966 157.81 67.7966 158.123 67.7966 158.53V158.78L70.2366 158.77L70.1566 158.86ZM72.9927 162V156.5H74.0327V157.55H74.2927L73.9627 158.2C73.9627 157.607 74.0927 157.16 74.3527 156.86C74.6127 156.553 74.9993 156.4 75.5127 156.4C76.0993 156.4 76.5627 156.583 76.9027 156.95C77.2493 157.31 77.4227 157.807 77.4227 158.44V158.81H76.3127V158.53C76.3127 158.137 76.2127 157.837 76.0127 157.63C75.8193 157.417 75.546 157.31 75.1927 157.31C74.8393 157.31 74.5627 157.417 74.3627 157.63C74.1693 157.843 74.0727 158.143 74.0727 158.53V162H72.9927ZM80.4188 162.1C79.8454 162.1 79.3921 161.953 79.0588 161.66C78.7321 161.36 78.5688 160.953 78.5688 160.44C78.5688 159.92 78.7421 159.513 79.0888 159.22C79.4421 158.92 79.9254 158.77 80.5387 158.77H82.0688V158.26C82.0688 157.96 81.9754 157.727 81.7888 157.56C81.6021 157.393 81.3388 157.31 80.9988 157.31C80.6988 157.31 80.4488 157.377 80.2488 157.51C80.0488 157.637 79.9321 157.807 79.8988 158.02H78.8388C78.8988 157.527 79.1254 157.133 79.5188 156.84C79.9188 156.547 80.4221 156.4 81.0288 156.4C81.6821 156.4 82.1988 156.567 82.5788 156.9C82.9588 157.227 83.1488 157.673 83.1488 158.24V162H82.0988V160.99H81.9188L82.0988 160.79C82.0988 161.19 81.9454 161.51 81.6388 161.75C81.3321 161.983 80.9254 162.1 80.4188 162.1ZM80.7388 161.27C81.1254 161.27 81.4421 161.173 81.6888 160.98C81.9421 160.78 82.0688 160.527 82.0688 160.22V159.5H80.5588C80.2788 159.5 80.0554 159.577 79.8888 159.73C79.7288 159.883 79.6488 160.093 79.6488 160.36C79.6488 160.64 79.7454 160.863 79.9388 161.03C80.1321 161.19 80.3988 161.27 80.7388 161.27ZM87.5648 162C87.0648 162 86.6748 161.863 86.3948 161.59C86.1148 161.317 85.9748 160.937 85.9748 160.45V157.48H84.4548V156.5H85.9748V154.95H87.0548V156.5H89.2048V157.48H87.0548V160.45C87.0548 160.83 87.2382 161.02 87.6048 161.02H89.1048V162H87.5648ZM92.9609 162.1C92.5143 162.1 92.1209 162.013 91.7809 161.84C91.4476 161.66 91.1909 161.41 91.0109 161.09C90.8309 160.77 90.7409 160.397 90.7409 159.97V158.53C90.7409 158.097 90.8309 157.723 91.0109 157.41C91.1909 157.09 91.4476 156.843 91.7809 156.67C92.1209 156.49 92.5143 156.4 92.9609 156.4C93.4143 156.4 93.8076 156.49 94.1409 156.67C94.4743 156.843 94.7309 157.09 94.9109 157.41C95.0909 157.723 95.1809 158.097 95.1809 158.53V159.51H91.7809V159.97C91.7809 160.377 91.8809 160.687 92.0809 160.9C92.2876 161.113 92.5843 161.22 92.9709 161.22C93.2843 161.22 93.5376 161.167 93.7309 161.06C93.9243 160.947 94.0443 160.783 94.0909 160.57H95.1609C95.0809 161.037 94.8409 161.41 94.4409 161.69C94.0409 161.963 93.5476 162.1 92.9609 162.1ZM94.1409 158.86V158.52C94.1409 158.12 94.0409 157.81 93.8409 157.59C93.6409 157.37 93.3476 157.26 92.9609 157.26C92.5809 157.26 92.2876 157.37 92.0809 157.59C91.8809 157.81 91.7809 158.123 91.7809 158.53V158.78L94.2209 158.77L94.1409 158.86ZM182.902 157.99C182.642 157.99 182.429 157.917 182.262 157.77C182.102 157.623 182.022 157.43 182.022 157.19C182.022 156.95 182.102 156.76 182.262 156.62C182.429 156.473 182.642 156.4 182.902 156.4C183.169 156.4 183.382 156.473 183.542 156.62C183.702 156.76 183.782 156.95 183.782 157.19C183.782 157.43 183.702 157.623 183.542 157.77C183.382 157.917 183.169 157.99 182.902 157.99ZM182.902 162.1C182.642 162.1 182.429 162.027 182.262 161.88C182.102 161.733 182.022 161.543 182.022 161.31C182.022 161.063 182.102 160.87 182.262 160.73C182.429 160.583 182.642 160.51 182.902 160.51C183.169 160.51 183.382 160.583 183.542 160.73C183.702 160.87 183.782 161.063 183.782 161.31C183.782 161.543 183.702 161.733 183.542 161.88C183.382 162.027 183.169 162.1 182.902 162.1Z" fill="#94A3B8"/>
<path d="M105.203 163.8C104.623 163.8 104.116 163.68 103.683 163.44C103.256 163.207 102.926 162.87 102.693 162.43C102.46 161.997 102.343 161.487 102.343 160.9V157.5C102.343 156.9 102.453 156.383 102.673 155.95C102.9 155.517 103.216 155.183 103.623 154.95C104.036 154.717 104.53 154.6 105.103 154.6C105.623 154.6 106.07 154.7 106.443 154.9C106.823 155.1 107.113 155.383 107.313 155.75C107.513 156.117 107.613 156.547 107.613 157.04V161.35H106.783L106.813 160.8H106.523L106.693 160.57C106.693 160.83 106.593 161.043 106.393 161.21C106.2 161.37 105.943 161.45 105.623 161.45C105.196 161.45 104.866 161.317 104.633 161.05C104.406 160.777 104.293 160.383 104.293 159.87V158.7C104.293 158.187 104.406 157.797 104.633 157.53C104.866 157.257 105.196 157.12 105.623 157.12C105.943 157.12 106.2 157.203 106.393 157.37C106.593 157.53 106.693 157.743 106.693 158.01L106.553 157.8H106.823L106.693 157.11V157.04C106.693 156.7 106.63 156.41 106.503 156.17C106.383 155.923 106.206 155.733 105.973 155.6C105.74 155.467 105.45 155.4 105.103 155.4C104.523 155.4 104.07 155.583 103.743 155.95C103.423 156.317 103.263 156.833 103.263 157.5V160.9C103.263 161.54 103.433 162.04 103.773 162.4C104.12 162.76 104.596 162.94 105.203 162.94H105.903V163.8H105.203ZM105.953 160.75C106.206 160.75 106.393 160.677 106.513 160.53C106.633 160.377 106.693 160.133 106.693 159.8V158.69C106.693 158.397 106.63 158.18 106.503 158.04C106.383 157.893 106.2 157.82 105.953 157.82C105.706 157.82 105.52 157.893 105.393 158.04C105.273 158.187 105.213 158.407 105.213 158.7V159.87C105.213 160.177 105.273 160.4 105.393 160.54C105.52 160.68 105.706 160.75 105.953 160.75ZM108.789 162V156.5H109.859V157.55H110.119L109.859 157.8C109.859 157.36 109.989 157.017 110.249 156.77C110.509 156.523 110.869 156.4 111.329 156.4C111.876 156.4 112.313 156.577 112.639 156.93C112.966 157.277 113.129 157.747 113.129 158.34V162H112.049V158.46C112.049 158.1 111.953 157.823 111.759 157.63C111.566 157.437 111.303 157.34 110.969 157.34C110.629 157.34 110.359 157.443 110.159 157.65C109.966 157.85 109.869 158.143 109.869 158.53V162H108.789ZM114.965 162V156.5H116.005V157.55H116.265L115.935 158.2C115.935 157.607 116.065 157.16 116.325 156.86C116.585 156.553 116.972 156.4 117.485 156.4C118.072 156.4 118.535 156.583 118.875 156.95C119.222 157.31 119.395 157.807 119.395 158.44V158.81H118.285V158.53C118.285 158.137 118.185 157.837 117.985 157.63C117.792 157.417 117.519 157.31 117.165 157.31C116.812 157.31 116.535 157.417 116.335 157.63C116.142 157.843 116.045 158.143 116.045 158.53V162H114.965ZM121.071 162L120.221 156.5H121.131L121.641 160.13C121.668 160.297 121.691 160.483 121.711 160.69C121.738 160.89 121.758 161.057 121.771 161.19C121.785 161.057 121.805 160.89 121.831 160.69C121.865 160.49 121.895 160.303 121.921 160.13L122.491 156.5H123.401L123.961 160.13C123.988 160.303 124.015 160.493 124.041 160.7C124.075 160.9 124.098 161.067 124.111 161.2C124.125 161.06 124.145 160.89 124.171 160.69C124.205 160.483 124.235 160.297 124.261 160.13L124.781 156.5H125.661L124.781 162H123.641L123.101 158.41C123.075 158.223 123.045 158.027 123.011 157.82C122.978 157.607 122.955 157.437 122.941 157.31C122.921 157.437 122.895 157.607 122.861 157.82C122.835 158.027 122.808 158.223 122.781 158.41L122.221 162H121.071ZM129.728 162C129.388 162 129.091 161.933 128.838 161.8C128.584 161.66 128.384 161.463 128.238 161.21C128.098 160.957 128.028 160.663 128.028 160.33V155.68H126.228V154.7H129.108V160.33C129.108 160.543 129.168 160.713 129.288 160.84C129.408 160.96 129.571 161.02 129.778 161.02H131.478V162H129.728ZM132.614 163.1L136.134 153.7H137.254L133.734 163.1H132.614ZM140.38 162.1C139.806 162.1 139.353 161.953 139.02 161.66C138.693 161.36 138.53 160.953 138.53 160.44C138.53 159.92 138.703 159.513 139.05 159.22C139.403 158.92 139.886 158.77 140.5 158.77H142.03V158.26C142.03 157.96 141.936 157.727 141.75 157.56C141.563 157.393 141.3 157.31 140.96 157.31C140.66 157.31 140.41 157.377 140.21 157.51C140.01 157.637 139.893 157.807 139.86 158.02H138.8C138.86 157.527 139.086 157.133 139.48 156.84C139.88 156.547 140.383 156.4 140.99 156.4C141.643 156.4 142.16 156.567 142.54 156.9C142.92 157.227 143.11 157.673 143.11 158.24V162H142.06V160.99H141.88L142.06 160.79C142.06 161.19 141.906 161.51 141.6 161.75C141.293 161.983 140.886 162.1 140.38 162.1ZM140.7 161.27C141.086 161.27 141.403 161.173 141.65 160.98C141.903 160.78 142.03 160.527 142.03 160.22V159.5H140.52C140.24 159.5 140.016 159.577 139.85 159.73C139.69 159.883 139.61 160.093 139.61 160.36C139.61 160.64 139.706 160.863 139.9 161.03C140.093 161.19 140.36 161.27 140.7 161.27ZM144.766 162V156.5H145.836V157.55H146.096L145.836 157.8C145.836 157.36 145.966 157.017 146.226 156.77C146.486 156.523 146.846 156.4 147.306 156.4C147.852 156.4 148.289 156.577 148.616 156.93C148.942 157.277 149.106 157.747 149.106 158.34V162H148.026V158.46C148.026 158.1 147.929 157.823 147.736 157.63C147.542 157.437 147.279 157.34 146.946 157.34C146.606 157.34 146.336 157.443 146.136 157.65C145.942 157.85 145.846 158.143 145.846 158.53V162H144.766ZM151.482 163.8V162.87H153.172C153.452 162.87 153.659 162.803 153.792 162.67C153.932 162.537 154.002 162.34 154.002 162.08V161.53L154.022 160.51H153.792L154.012 160.31C154.012 160.73 153.879 161.06 153.612 161.3C153.352 161.54 152.999 161.66 152.552 161.66C151.985 161.66 151.539 161.473 151.212 161.1C150.885 160.727 150.722 160.223 150.722 159.59V158.47C150.722 157.837 150.885 157.333 151.212 156.96C151.539 156.587 151.985 156.4 152.552 156.4C152.999 156.4 153.352 156.523 153.612 156.77C153.879 157.01 154.012 157.34 154.012 157.76L153.792 157.55H154.012L154.002 156.5H155.072V162.1C155.072 162.627 154.905 163.04 154.572 163.34C154.239 163.647 153.775 163.8 153.182 163.8H151.482ZM152.902 160.73C153.242 160.73 153.509 160.627 153.702 160.42C153.902 160.207 154.002 159.913 154.002 159.54V158.53C154.002 158.157 153.902 157.867 153.702 157.66C153.509 157.447 153.242 157.34 152.902 157.34C152.549 157.34 152.275 157.443 152.082 157.65C151.895 157.85 151.802 158.143 151.802 158.53V159.54C151.802 159.92 151.895 160.213 152.082 160.42C152.275 160.627 152.549 160.73 152.902 160.73ZM158.908 162.1C158.248 162.1 157.721 161.91 157.328 161.53C156.935 161.143 156.738 160.62 156.738 159.96V156.5H157.818V159.96C157.818 160.34 157.915 160.637 158.108 160.85C158.301 161.057 158.568 161.16 158.908 161.16C159.255 161.16 159.525 161.057 159.718 160.85C159.918 160.637 160.018 160.34 160.018 159.96V156.5H161.098V159.96C161.098 160.62 160.898 161.143 160.498 161.53C160.105 161.91 159.575 162.1 158.908 162.1ZM165.704 162C165.364 162 165.067 161.933 164.814 161.8C164.561 161.66 164.361 161.463 164.214 161.21C164.074 160.957 164.004 160.663 164.004 160.33V155.68H162.204V154.7H165.084V160.33C165.084 160.543 165.144 160.713 165.264 160.84C165.384 160.96 165.547 161.02 165.754 161.02H167.454V162H165.704ZM170.36 162.1C169.787 162.1 169.333 161.953 169 161.66C168.673 161.36 168.51 160.953 168.51 160.44C168.51 159.92 168.683 159.513 169.03 159.22C169.383 158.92 169.867 158.77 170.48 158.77H172.01V158.26C172.01 157.96 171.917 157.727 171.73 157.56C171.543 157.393 171.28 157.31 170.94 157.31C170.64 157.31 170.39 157.377 170.19 157.51C169.99 157.637 169.873 157.807 169.84 158.02H168.78C168.84 157.527 169.067 157.133 169.46 156.84C169.86 156.547 170.363 156.4 170.97 156.4C171.623 156.4 172.14 156.567 172.52 156.9C172.9 157.227 173.09 157.673 173.09 158.24V162H172.04V160.99H171.86L172.04 160.79C172.04 161.19 171.887 161.51 171.58 161.75C171.273 161.983 170.867 162.1 170.36 162.1ZM170.68 161.27C171.067 161.27 171.383 161.173 171.63 160.98C171.883 160.78 172.01 160.527 172.01 160.22V159.5H170.5C170.22 159.5 169.997 159.577 169.83 159.73C169.67 159.883 169.59 160.093 169.59 160.36C169.59 160.64 169.687 160.863 169.88 161.03C170.073 161.19 170.34 161.27 170.68 161.27ZM174.926 162V156.5H175.966V157.55H176.226L175.896 158.2C175.896 157.607 176.026 157.16 176.286 156.86C176.546 156.553 176.933 156.4 177.446 156.4C178.033 156.4 178.496 156.583 178.836 156.95C179.183 157.31 179.356 157.807 179.356 158.44V158.81H178.246V158.53C178.246 158.137 178.146 157.837 177.946 157.63C177.753 157.417 177.48 157.31 177.126 157.31C176.773 157.31 176.496 157.417 176.296 157.63C176.103 157.843 176.006 158.143 176.006 158.53V162H174.926Z" fill="#6366F1"/>
<path d="M188.348 162.1C187.775 162.1 187.322 161.953 186.988 161.66C186.662 161.36 186.498 160.953 186.498 160.44C186.498 159.92 186.672 159.513 187.018 159.22C187.372 158.92 187.855 158.77 188.468 158.77H189.998V158.26C189.998 157.96 189.905 157.727 189.718 157.56C189.532 157.393 189.268 157.31 188.928 157.31C188.628 157.31 188.378 157.377 188.178 157.51C187.978 157.637 187.862 157.807 187.828 158.02H186.768C186.828 157.527 187.055 157.133 187.448 156.84C187.848 156.547 188.352 156.4 188.958 156.4C189.612 156.4 190.128 156.567 190.508 156.9C190.888 157.227 191.078 157.673 191.078 158.24V162H190.028V160.99H189.848L190.028 160.79C190.028 161.19 189.875 161.51 189.568 161.75C189.262 161.983 188.855 162.1 188.348 162.1ZM188.668 161.27C189.055 161.27 189.372 161.173 189.618 160.98C189.872 160.78 189.998 160.527 189.998 160.22V159.5H188.488C188.208 159.5 187.985 159.577 187.818 159.73C187.658 159.883 187.578 160.093 187.578 160.36C187.578 160.64 187.675 160.863 187.868 161.03C188.062 161.19 188.328 161.27 188.668 161.27ZM192.735 163.8V156.5H193.805V157.55H194.035L193.805 157.8C193.805 157.367 193.938 157.027 194.205 156.78C194.478 156.527 194.841 156.4 195.295 156.4C195.848 156.4 196.288 156.587 196.615 156.96C196.948 157.327 197.115 157.83 197.115 158.47V160.02C197.115 160.447 197.038 160.817 196.885 161.13C196.738 161.437 196.528 161.677 196.255 161.85C195.988 162.017 195.668 162.1 195.295 162.1C194.848 162.1 194.488 161.977 194.215 161.73C193.941 161.477 193.805 161.133 193.805 160.7L194.035 160.95H193.785L193.815 162.23V163.8H192.735ZM194.925 161.16C195.278 161.16 195.551 161.06 195.745 160.86C195.945 160.653 196.045 160.357 196.045 159.97V158.53C196.045 158.143 195.945 157.85 195.745 157.65C195.551 157.443 195.278 157.34 194.925 157.34C194.585 157.34 194.315 157.447 194.115 157.66C193.915 157.867 193.815 158.157 193.815 158.53V159.97C193.815 160.343 193.915 160.637 194.115 160.85C194.315 161.057 194.585 161.16 194.925 161.16ZM198.731 163.8V156.5H199.801V157.55H200.031L199.801 157.8C199.801 157.367 199.934 157.027 200.201 156.78C200.474 156.527 200.837 156.4 201.291 156.4C201.844 156.4 202.284 156.587 202.611 156.96C202.944 157.327 203.111 157.83 203.111 158.47V160.02C203.111 160.447 203.034 160.817 202.881 161.13C202.734 161.437 202.524 161.677 202.251 161.85C201.984 162.017 201.664 162.1 201.291 162.1C200.844 162.1 200.484 161.977 200.211 161.73C199.937 161.477 199.801 161.133 199.801 160.7L200.031 160.95H199.781L199.811 162.23V163.8H198.731ZM200.921 161.16C201.274 161.16 201.547 161.06 201.741 160.86C201.941 160.653 202.041 160.357 202.041 159.97V158.53C202.041 158.143 201.941 157.85 201.741 157.65C201.547 157.443 201.274 157.34 200.921 157.34C200.581 157.34 200.311 157.447 200.111 157.66C199.911 157.867 199.811 158.157 199.811 158.53V159.97C199.811 160.343 199.911 160.637 200.111 160.85C200.311 161.057 200.581 161.16 200.921 161.16ZM207.677 162C207.337 162 207.04 161.933 206.787 161.8C206.533 161.66 206.333 161.463 206.187 161.21C206.047 160.957 205.977 160.663 205.977 160.33V155.68H204.177V154.7H207.057V160.33C207.057 160.543 207.117 160.713 207.237 160.84C207.357 160.96 207.52 161.02 207.727 161.02H209.427V162H207.677ZM210.693 162V161.02H212.623V157.48H210.943V156.5H213.673V161.02H215.443V162H210.693ZM213.043 155.55C212.809 155.55 212.623 155.49 212.483 155.37C212.343 155.243 212.273 155.077 212.273 154.87C212.273 154.657 212.343 154.49 212.483 154.37C212.623 154.243 212.809 154.18 213.043 154.18C213.276 154.18 213.463 154.243 213.603 154.37C213.743 154.49 213.813 154.657 213.813 154.87C213.813 155.077 213.743 155.243 213.603 155.37C213.463 155.49 213.276 155.55 213.043 155.55ZM218.919 162.1C218.466 162.1 218.066 162.017 217.719 161.85C217.379 161.677 217.116 161.43 216.929 161.11C216.749 160.783 216.659 160.403 216.659 159.97V158.53C216.659 158.09 216.749 157.71 216.929 157.39C217.116 157.07 217.379 156.827 217.719 156.66C218.066 156.487 218.466 156.4 218.919 156.4C219.579 156.4 220.109 156.573 220.509 156.92C220.909 157.267 221.119 157.74 221.139 158.34H220.059C220.039 158.027 219.929 157.783 219.729 157.61C219.529 157.437 219.259 157.35 218.919 157.35C218.552 157.35 218.262 157.453 218.049 157.66C217.836 157.86 217.729 158.147 217.729 158.52V159.97C217.729 160.343 217.836 160.633 218.049 160.84C218.262 161.047 218.552 161.15 218.919 161.15C219.259 161.15 219.529 161.063 219.729 160.89C219.929 160.717 220.039 160.473 220.059 160.16H221.139C221.119 160.76 220.909 161.233 220.509 161.58C220.109 161.927 219.579 162.1 218.919 162.1ZM224.325 162.1C223.752 162.1 223.298 161.953 222.965 161.66C222.638 161.36 222.475 160.953 222.475 160.44C222.475 159.92 222.648 159.513 222.995 159.22C223.348 158.92 223.832 158.77 224.445 158.77H225.975V158.26C225.975 157.96 225.882 157.727 225.695 157.56C225.508 157.393 225.245 157.31 224.905 157.31C224.605 157.31 224.355 157.377 224.155 157.51C223.955 157.637 223.838 157.807 223.805 158.02H222.745C222.805 157.527 223.032 157.133 223.425 156.84C223.825 156.547 224.328 156.4 224.935 156.4C225.588 156.4 226.105 156.567 226.485 156.9C226.865 157.227 227.055 157.673 227.055 158.24V162H226.005V160.99H225.825L226.005 160.79C226.005 161.19 225.852 161.51 225.545 161.75C225.238 161.983 224.832 162.1 224.325 162.1ZM224.645 161.27C225.032 161.27 225.348 161.173 225.595 160.98C225.848 160.78 225.975 160.527 225.975 160.22V159.5H224.465C224.185 159.5 223.962 159.577 223.795 159.73C223.635 159.883 223.555 160.093 223.555 160.36C223.555 160.64 223.652 160.863 223.845 161.03C224.038 161.19 224.305 161.27 224.645 161.27ZM231.471 162C230.971 162 230.581 161.863 230.301 161.59C230.021 161.317 229.881 160.937 229.881 160.45V157.48H228.361V156.5H229.881V154.95H230.961V156.5H233.111V157.48H230.961V160.45C230.961 160.83 231.144 161.02 231.511 161.02H233.011V162H231.471ZM234.677 162V161.02H236.607V157.48H234.927V156.5H237.657V161.02H239.427V162H234.677ZM237.027 155.55C236.794 155.55 236.607 155.49 236.467 155.37C236.327 155.243 236.257 155.077 236.257 154.87C236.257 154.657 236.327 154.49 236.467 154.37C236.607 154.243 236.794 154.18 237.027 154.18C237.261 154.18 237.447 154.243 237.587 154.37C237.727 154.49 237.797 154.657 237.797 154.87C237.797 155.077 237.727 155.243 237.587 155.37C237.447 155.49 237.261 155.55 237.027 155.55ZM242.863 162.09C242.41 162.09 242.017 162.003 241.683 161.83C241.35 161.657 241.093 161.41 240.913 161.09C240.733 160.77 240.643 160.393 240.643 159.96V158.54C240.643 158.1 240.733 157.723 240.913 157.41C241.093 157.09 241.35 156.843 241.683 156.67C242.017 156.497 242.41 156.41 242.863 156.41C243.317 156.41 243.71 156.497 244.043 156.67C244.377 156.843 244.633 157.09 244.813 157.41C244.993 157.723 245.083 158.1 245.083 158.54V159.96C245.083 160.393 244.993 160.77 244.813 161.09C244.633 161.41 244.377 161.657 244.043 161.83C243.71 162.003 243.317 162.09 242.863 162.09ZM242.863 161.14C243.23 161.14 243.513 161.04 243.713 160.84C243.913 160.633 244.013 160.34 244.013 159.96V158.54C244.013 158.153 243.913 157.86 243.713 157.66C243.513 157.46 243.23 157.36 242.863 157.36C242.503 157.36 242.22 157.46 242.013 157.66C241.813 157.86 241.713 158.153 241.713 158.54V159.96C241.713 160.34 241.813 160.633 242.013 160.84C242.22 161.04 242.503 161.14 242.863 161.14ZM246.699 162V156.5H247.769V157.55H248.029L247.769 157.8C247.769 157.36 247.899 157.017 248.159 156.77C248.419 156.523 248.779 156.4 249.239 156.4C249.786 156.4 250.223 156.577 250.549 156.93C250.876 157.277 251.039 157.747 251.039 158.34V162H249.959V158.46C249.959 158.1 249.863 157.823 249.669 157.63C249.476 157.437 249.213 157.34 248.879 157.34C248.539 157.34 248.269 157.443 248.069 157.65C247.876 157.85 247.779 158.143 247.779 158.53V162H246.699Z" fill="#F43F5E"/>
<path d="M260.302 162.1C259.728 162.1 259.275 161.953 258.942 161.66C258.615 161.36 258.452 160.953 258.452 160.44C258.452 159.92 258.625 159.513 258.972 159.22C259.325 158.92 259.808 158.77 260.422 158.77H261.952V158.26C261.952 157.96 261.858 157.727 261.672 157.56C261.485 157.393 261.222 157.31 260.882 157.31C260.582 157.31 260.332 157.377 260.132 157.51C259.932 157.637 259.815 157.807 259.782 158.02H258.722C258.782 157.527 259.008 157.133 259.402 156.84C259.802 156.547 260.305 156.4 260.912 156.4C261.565 156.4 262.082 156.567 262.462 156.9C262.842 157.227 263.032 157.673 263.032 158.24V162H261.982V160.99H261.802L261.982 160.79C261.982 161.19 261.828 161.51 261.522 161.75C261.215 161.983 260.808 162.1 260.302 162.1ZM260.622 161.27C261.008 161.27 261.325 161.173 261.572 160.98C261.825 160.78 261.952 160.527 261.952 160.22V159.5H260.442C260.162 159.5 259.938 159.577 259.772 159.73C259.612 159.883 259.532 160.093 259.532 160.36C259.532 160.64 259.628 160.863 259.822 161.03C260.015 161.19 260.282 161.27 260.622 161.27ZM266.458 162.1C265.904 162.1 265.461 161.913 265.128 161.54C264.794 161.167 264.628 160.663 264.628 160.03V158.48C264.628 157.84 264.794 157.333 265.128 156.96C265.461 156.587 265.904 156.4 266.458 156.4C266.911 156.4 267.271 156.527 267.538 156.78C267.804 157.027 267.938 157.367 267.938 157.8L267.708 157.55H267.958L267.928 156.27V154.7H269.008V162H267.938V160.95H267.708L267.938 160.7C267.938 161.133 267.804 161.477 267.538 161.73C267.271 161.977 266.911 162.1 266.458 162.1ZM266.828 161.16C267.168 161.16 267.434 161.057 267.628 160.85C267.828 160.637 267.928 160.343 267.928 159.97V158.53C267.928 158.157 267.828 157.867 267.628 157.66C267.434 157.447 267.168 157.34 266.828 157.34C266.474 157.34 266.198 157.443 265.998 157.65C265.798 157.85 265.698 158.143 265.698 158.53V159.97C265.698 160.357 265.798 160.653 265.998 160.86C266.198 161.06 266.474 161.16 266.828 161.16ZM270.434 162V156.5H271.334V157.2H271.534L271.384 157.41C271.384 157.103 271.467 156.86 271.634 156.68C271.8 156.493 272.024 156.4 272.304 156.4C272.604 156.4 272.834 156.517 272.994 156.75C273.16 156.983 273.244 157.303 273.244 157.71L273.004 157.2H273.384L273.224 157.41C273.224 157.103 273.307 156.86 273.474 156.68C273.647 156.493 273.877 156.4 274.164 156.4C274.504 156.4 274.77 156.53 274.964 156.79C275.157 157.043 275.254 157.383 275.254 157.81V162H274.294V157.84C274.294 157.633 274.247 157.473 274.154 157.36C274.067 157.247 273.94 157.19 273.774 157.19C273.607 157.19 273.477 157.247 273.384 157.36C273.297 157.467 273.254 157.623 273.254 157.83V162H272.444V157.84C272.444 157.627 272.397 157.467 272.304 157.36C272.21 157.247 272.077 157.19 271.904 157.19C271.737 157.19 271.61 157.247 271.524 157.36C271.444 157.467 271.404 157.623 271.404 157.83V162H270.434ZM276.65 162V161.02H278.58V157.48H276.9V156.5H279.63V161.02H281.4V162H276.65ZM279 155.55C278.767 155.55 278.58 155.49 278.44 155.37C278.3 155.243 278.23 155.077 278.23 154.87C278.23 154.657 278.3 154.49 278.44 154.37C278.58 154.243 278.767 154.18 279 154.18C279.233 154.18 279.42 154.243 279.56 154.37C279.7 154.49 279.77 154.657 279.77 154.87C279.77 155.077 279.7 155.243 279.56 155.37C279.42 155.49 279.233 155.55 279 155.55ZM282.676 162V156.5H283.746V157.55H284.006L283.746 157.8C283.746 157.36 283.876 157.017 284.136 156.77C284.396 156.523 284.756 156.4 285.216 156.4C285.763 156.4 286.199 156.577 286.526 156.93C286.853 157.277 287.016 157.747 287.016 158.34V162H285.936V158.46C285.936 158.1 285.839 157.823 285.646 157.63C285.453 157.437 285.189 157.34 284.856 157.34C284.516 157.34 284.246 157.443 284.046 157.65C283.853 157.85 283.756 158.143 283.756 158.53V162H282.676Z" fill="#47BC99"/>
<path d="M300.274 159.19V158.21H304.424V159.19H300.274ZM295.224 159.19V158.21H299.374V159.19H295.224ZM308.63 162.09C308.237 162.09 307.89 162.027 307.59 161.9C307.297 161.773 307.064 161.6 306.89 161.38C306.724 161.153 306.627 160.887 306.6 160.58H307.68C307.707 160.76 307.804 160.907 307.97 161.02C308.137 161.127 308.357 161.18 308.63 161.18H309.06C309.387 161.18 309.634 161.113 309.8 160.98C309.967 160.847 310.05 160.67 310.05 160.45C310.05 160.237 309.974 160.07 309.82 159.95C309.674 159.823 309.454 159.74 309.16 159.7L308.45 159.59C307.864 159.497 307.43 159.33 307.15 159.09C306.877 158.843 306.74 158.48 306.74 158C306.74 157.493 306.904 157.103 307.23 156.83C307.564 156.55 308.054 156.41 308.7 156.41H309.08C309.654 156.41 310.11 156.543 310.45 156.81C310.797 157.07 310.994 157.42 311.04 157.86H309.96C309.934 157.7 309.844 157.57 309.69 157.47C309.544 157.37 309.34 157.32 309.08 157.32H308.7C308.387 157.32 308.157 157.38 308.01 157.5C307.87 157.613 307.8 157.783 307.8 158.01C307.8 158.21 307.864 158.36 307.99 158.46C308.117 158.56 308.314 158.63 308.58 158.67L309.31 158.79C309.93 158.877 310.384 159.05 310.67 159.31C310.964 159.563 311.11 159.933 311.11 160.42C311.11 160.947 310.937 161.357 310.59 161.65C310.25 161.943 309.74 162.09 309.06 162.09H308.63ZM315.416 162C314.916 162 314.526 161.863 314.246 161.59C313.966 161.317 313.826 160.937 313.826 160.45V157.48H312.306V156.5H313.826V154.95H314.906V156.5H317.056V157.48H314.906V160.45C314.906 160.83 315.09 161.02 315.456 161.02H316.956V162H315.416ZM319.533 163.8L320.323 161.68L318.273 156.5H319.463L320.613 159.6C320.659 159.733 320.706 159.893 320.752 160.08C320.799 160.267 320.839 160.42 320.873 160.54C320.899 160.42 320.936 160.267 320.983 160.08C321.029 159.893 321.076 159.733 321.123 159.6L322.203 156.5H323.353L320.673 163.8H319.533ZM327.599 162C327.259 162 326.962 161.933 326.709 161.8C326.455 161.66 326.255 161.463 326.109 161.21C325.969 160.957 325.899 160.663 325.899 160.33V155.68H324.099V154.7H326.979V160.33C326.979 160.543 327.039 160.713 327.159 160.84C327.279 160.96 327.442 161.02 327.649 161.02H329.349V162H327.599ZM332.805 162.1C332.358 162.1 331.965 162.013 331.625 161.84C331.291 161.66 331.035 161.41 330.855 161.09C330.675 160.77 330.585 160.397 330.585 159.97V158.53C330.585 158.097 330.675 157.723 330.855 157.41C331.035 157.09 331.291 156.843 331.625 156.67C331.965 156.49 332.358 156.4 332.805 156.4C333.258 156.4 333.651 156.49 333.985 156.67C334.318 156.843 334.575 157.09 334.755 157.41C334.935 157.723 335.025 158.097 335.025 158.53V159.51H331.625V159.97C331.625 160.377 331.725 160.687 331.925 160.9C332.131 161.113 332.428 161.22 332.815 161.22C333.128 161.22 333.381 161.167 333.575 161.06C333.768 160.947 333.888 160.783 333.935 160.57H335.005C334.925 161.037 334.685 161.41 334.285 161.69C333.885 161.963 333.391 162.1 332.805 162.1ZM333.985 158.86V158.52C333.985 158.12 333.885 157.81 333.685 157.59C333.485 157.37 333.191 157.26 332.805 157.26C332.425 157.26 332.131 157.37 331.925 157.59C331.725 157.81 331.625 158.123 331.625 158.53V158.78L334.065 158.77L333.985 158.86ZM336.641 157.97V157H340.961V157.97H336.641ZM336.641 160.4V159.43H340.961V160.4H336.641ZM344.607 162.09C344.214 162.09 343.867 162.027 343.567 161.9C343.274 161.773 343.04 161.6 342.867 161.38C342.7 161.153 342.604 160.887 342.577 160.58H343.657C343.684 160.76 343.78 160.907 343.947 161.02C344.114 161.127 344.334 161.18 344.607 161.18H345.037C345.364 161.18 345.61 161.113 345.777 160.98C345.944 160.847 346.027 160.67 346.027 160.45C346.027 160.237 345.95 160.07 345.797 159.95C345.65 159.823 345.43 159.74 345.137 159.7L344.427 159.59C343.84 159.497 343.407 159.33 343.127 159.09C342.854 158.843 342.717 158.48 342.717 158C342.717 157.493 342.88 157.103 343.207 156.83C343.54 156.55 344.03 156.41 344.677 156.41H345.057C345.63 156.41 346.087 156.543 346.427 156.81C346.774 157.07 346.97 157.42 347.017 157.86H345.937C345.91 157.7 345.82 157.57 345.667 157.47C345.52 157.37 345.317 157.32 345.057 157.32H344.677C344.364 157.32 344.134 157.38 343.987 157.5C343.847 157.613 343.777 157.783 343.777 158.01C343.777 158.21 343.84 158.36 343.967 158.46C344.094 158.56 344.29 158.63 344.557 158.67L345.287 158.79C345.907 158.877 346.36 159.05 346.647 159.31C346.94 159.563 347.087 159.933 347.087 160.42C347.087 160.947 346.914 161.357 346.567 161.65C346.227 161.943 345.717 162.09 345.037 162.09H344.607ZM350.833 162.1C350.38 162.1 349.98 162.017 349.633 161.85C349.293 161.677 349.03 161.43 348.843 161.11C348.663 160.783 348.573 160.403 348.573 159.97V158.53C348.573 158.09 348.663 157.71 348.843 157.39C349.03 157.07 349.293 156.827 349.633 156.66C349.98 156.487 350.38 156.4 350.833 156.4C351.493 156.4 352.023 156.573 352.423 156.92C352.823 157.267 353.033 157.74 353.053 158.34H351.973C351.953 158.027 351.843 157.783 351.643 157.61C351.443 157.437 351.173 157.35 350.833 157.35C350.466 157.35 350.176 157.453 349.963 157.66C349.75 157.86 349.643 158.147 349.643 158.52V159.97C349.643 160.343 349.75 160.633 349.963 160.84C350.176 161.047 350.466 161.15 350.833 161.15C351.173 161.15 351.443 161.063 351.643 160.89C351.843 160.717 351.953 160.473 351.973 160.16H353.053C353.033 160.76 352.823 161.233 352.423 161.58C352.023 161.927 351.493 162.1 350.833 162.1ZM356.599 162.09C356.206 162.09 355.859 162.027 355.559 161.9C355.266 161.773 355.032 161.6 354.859 161.38C354.692 161.153 354.596 160.887 354.569 160.58H355.649C355.676 160.76 355.772 160.907 355.939 161.02C356.106 161.127 356.326 161.18 356.599 161.18H357.029C357.356 161.18 357.602 161.113 357.769 160.98C357.936 160.847 358.019 160.67 358.019 160.45C358.019 160.237 357.942 160.07 357.789 159.95C357.642 159.823 357.422 159.74 357.129 159.7L356.419 159.59C355.832 159.497 355.399 159.33 355.119 159.09C354.846 158.843 354.709 158.48 354.709 158C354.709 157.493 354.872 157.103 355.199 156.83C355.532 156.55 356.022 156.41 356.669 156.41H357.049C357.622 156.41 358.079 156.543 358.419 156.81C358.766 157.07 358.962 157.42 359.009 157.86H357.929C357.902 157.7 357.812 157.57 357.659 157.47C357.512 157.37 357.309 157.32 357.049 157.32H356.669C356.356 157.32 356.126 157.38 355.979 157.5C355.839 157.613 355.769 157.783 355.769 158.01C355.769 158.21 355.832 158.36 355.959 158.46C356.086 158.56 356.282 158.63 356.549 158.67L357.279 158.79C357.899 158.877 358.352 159.05 358.639 159.31C358.932 159.563 359.079 159.933 359.079 160.42C359.079 160.947 358.906 161.357 358.559 161.65C358.219 161.943 357.709 162.09 357.029 162.09H356.599ZM362.595 162.09C362.202 162.09 361.855 162.027 361.555 161.9C361.262 161.773 361.028 161.6 360.855 161.38C360.688 161.153 360.592 160.887 360.565 160.58H361.645C361.672 160.76 361.768 160.907 361.935 161.02C362.102 161.127 362.322 161.18 362.595 161.18H363.025C363.352 161.18 363.598 161.113 363.765 160.98C363.932 160.847 364.015 160.67 364.015 160.45C364.015 160.237 363.938 160.07 363.785 159.95C363.638 159.823 363.418 159.74 363.125 159.7L362.415 159.59C361.828 159.497 361.395 159.33 361.115 159.09C360.842 158.843 360.705 158.48 360.705 158C360.705 157.493 360.868 157.103 361.195 156.83C361.528 156.55 362.018 156.41 362.665 156.41H363.045C363.618 156.41 364.075 156.543 364.415 156.81C364.762 157.07 364.958 157.42 365.005 157.86H363.925C363.898 157.7 363.808 157.57 363.655 157.47C363.508 157.37 363.305 157.32 363.045 157.32H362.665C362.352 157.32 362.122 157.38 361.975 157.5C361.835 157.613 361.765 157.783 361.765 158.01C361.765 158.21 361.828 158.36 361.955 158.46C362.082 158.56 362.278 158.63 362.545 158.67L363.275 158.79C363.895 158.877 364.348 159.05 364.635 159.31C364.928 159.563 365.075 159.933 365.075 160.42C365.075 160.947 364.902 161.357 364.555 161.65C364.215 161.943 363.705 162.09 363.025 162.09H362.595Z" fill="#F88C9E"/>
<path d="M144.75 80C144.75 79.7239 144.526 79.5 144.25 79.5C143.974 79.5 143.75 79.7239 143.75 80H144.75ZM134.896 146.354C135.092 146.549 135.408 146.549 135.604 146.354L138.786 143.172C138.981 142.976 138.981 142.66 138.786 142.464C138.59 142.269 138.274 142.269 138.078 142.464L135.25 145.293L132.422 142.464C132.226 142.269 131.91 142.269 131.714 142.464C131.519 142.66 131.519 142.976 131.714 143.172L134.896 146.354ZM143.75 80V106.5H144.75V80H143.75ZM134.75 115.5V146H135.75V115.5H134.75ZM139.75 110.5C136.989 110.5 134.75 112.739 134.75 115.5H135.75C135.75 113.291 137.541 111.5 139.75 111.5V110.5ZM143.75 106.5C143.75 108.709 141.959 110.5 139.75 110.5V111.5C142.511 111.5 144.75 109.261 144.75 106.5H143.75Z" fill="#6366F1"/>
<path d="M238.5 80C238.5 79.7239 238.276 79.5 238 79.5C237.724 79.5 237.5 79.7239 237.5 80H238.5ZM207.896 149.104C208.092 149.299 208.408 149.299 208.604 149.104L211.786 145.922C211.981 145.726 211.981 145.41 211.786 145.214C211.59 145.019 211.274 145.019 211.078 145.214L208.25 148.043L205.422 145.214C205.226 145.019 204.91 145.019 204.714 145.214C204.519 145.41 204.519 145.726 204.714 145.922L207.896 149.104ZM237.5 80V97.125H238.5V80H237.5ZM207.75 126.875V148.75H208.75V126.875H207.75ZM223.125 111.5C214.634 111.5 207.75 118.384 207.75 126.875H208.75C208.75 118.936 215.186 112.5 223.125 112.5V111.5ZM237.5 97.125C237.5 105.064 231.064 111.5 223.125 111.5V112.5C231.616 112.5 238.5 105.616 238.5 97.125H237.5Z" fill="#F43F5E"/>
<path d="M336.5 80.25C336.5 79.9739 336.276 79.75 336 79.75C335.724 79.75 335.5 79.9739 335.5 80.25H336.5ZM261.603 148.389C261.798 148.585 262.115 148.585 262.31 148.389L265.492 145.207C265.687 145.012 265.687 144.696 265.492 144.5C265.297 144.305 264.98 144.305 264.785 144.5L261.957 147.329L259.128 144.5C258.933 144.305 258.616 144.305 258.421 144.5C258.226 144.696 258.226 145.012 258.421 145.207L261.603 148.389ZM335.5 80.25V90H336.5V80.25H335.5ZM312 113.5H285.957V114.5H312V113.5ZM261.457 138L261.457 148.036L262.457 148.036L262.457 138L261.457 138ZM285.957 113.5C272.426 113.5 261.457 124.469 261.457 138L262.457 138C262.457 125.021 272.978 114.5 285.957 114.5V113.5ZM335.5 90C335.5 102.979 324.979 113.5 312 113.5V114.5C325.531 114.5 336.5 103.531 336.5 90H335.5Z" fill="#47BC99"/>
<path d="M431.75 79.5C431.75 79.2239 431.526 79 431.25 79C430.974 79 430.75 79.2239 430.75 79.5H431.75ZM325.646 148.39C325.842 148.585 326.158 148.585 326.354 148.39L329.536 145.208C329.731 145.012 329.731 144.696 329.536 144.501C329.34 144.305 329.024 144.305 328.828 144.501L326 147.329L323.172 144.501C322.976 144.305 322.66 144.305 322.464 144.501C322.269 144.696 322.269 145.012 322.464 145.208L325.646 148.39ZM430.75 79.5V90H431.75V79.5H430.75ZM407.25 113.5H350V114.5H407.25V113.5ZM325.5 138V148.036H326.5V138H325.5ZM350 113.5C336.469 113.5 325.5 124.469 325.5 138H326.5C326.5 125.021 337.021 114.5 350 114.5V113.5ZM430.75 90C430.75 102.979 420.229 113.5 407.25 113.5V114.5C420.781 114.5 431.75 103.531 431.75 90H430.75Z" fill="#F88C9E"/>
<path d="M25.6719 27.4929C25.6188 27.0223 25.4001 26.6577 25.0156 26.3991C24.6312 26.1373 24.1473 26.0064 23.5639 26.0064C23.1463 26.0064 22.785 26.0727 22.4801 26.2053C22.1752 26.3345 21.9382 26.5135 21.7692 26.7422C21.6035 26.9676 21.5206 27.2244 21.5206 27.5128C21.5206 27.7547 21.5769 27.9635 21.6896 28.1392C21.8056 28.3149 21.9564 28.4624 22.142 28.5817C22.331 28.6977 22.5331 28.7955 22.7486 28.875C22.964 28.9512 23.1712 29.0142 23.37 29.0639L24.3643 29.3224C24.6892 29.402 25.0223 29.5097 25.3636 29.6456C25.705 29.7815 26.0215 29.9605 26.3132 30.1825C26.6049 30.4046 26.8402 30.6797 27.0192 31.0078C27.2015 31.3359 27.2926 31.7287 27.2926 32.1861C27.2926 32.7628 27.1435 33.2749 26.8452 33.7223C26.5502 34.1697 26.121 34.5227 25.5575 34.7812C24.9974 35.0398 24.3196 35.169 23.5241 35.169C22.7618 35.169 22.1023 35.0481 21.5455 34.8061C20.9886 34.5642 20.5528 34.2211 20.2379 33.777C19.9231 33.3295 19.7491 32.7992 19.7159 32.1861H21.2571C21.2869 32.554 21.4063 32.8606 21.6151 33.1058C21.8272 33.3478 22.0973 33.5284 22.4254 33.6477C22.7569 33.7637 23.1198 33.8217 23.5142 33.8217C23.9484 33.8217 24.3345 33.7538 24.6726 33.6179C25.014 33.4787 25.2824 33.2865 25.478 33.0412C25.6735 32.7926 25.7713 32.5026 25.7713 32.1712C25.7713 31.8696 25.6851 31.6226 25.5128 31.4304C25.3438 31.2382 25.1134 31.0791 24.8217 30.9531C24.5334 30.8272 24.2069 30.7161 23.8423 30.62L22.6392 30.2919C21.8239 30.0698 21.1776 29.7434 20.7003 29.3125C20.2263 28.8816 19.9893 28.3116 19.9893 27.6023C19.9893 27.0156 20.1484 26.5036 20.4666 26.0661C20.7848 25.6286 21.2157 25.2888 21.7592 25.0469C22.3028 24.8016 22.916 24.679 23.5987 24.679C24.2881 24.679 24.8963 24.8 25.4233 25.0419C25.9536 25.2839 26.3712 25.617 26.6761 26.0412C26.9811 26.4621 27.1402 26.946 27.1534 27.4929H25.6719ZM29.9487 37.8636C29.7266 37.8636 29.5244 37.8454 29.3422 37.8089C29.1599 37.7758 29.024 37.7393 28.9345 37.6996L29.2924 36.4815C29.5642 36.5545 29.8062 36.5859 30.0183 36.576C30.2304 36.5661 30.4177 36.4865 30.5801 36.3374C30.7458 36.1882 30.8916 35.9446 31.0176 35.6065L31.2015 35.0994L28.4075 27.3636H29.9984L31.9324 33.2898H32.0119L33.9458 27.3636H35.5417L32.3947 36.0192C32.2489 36.4169 32.0633 36.7533 31.8379 37.0284C31.6125 37.3068 31.344 37.5156 31.0325 37.6548C30.7209 37.794 30.3597 37.8636 29.9487 37.8636ZM38.4252 30.4659V35H36.9387V27.3636H38.3656V28.6065H38.46C38.6357 28.2022 38.9108 27.8774 39.2853 27.6321C39.6632 27.3868 40.1388 27.2642 40.7122 27.2642C41.2325 27.2642 41.6883 27.3736 42.0794 27.5923C42.4705 27.8078 42.7737 28.1293 42.9892 28.5568C43.2046 28.9844 43.3123 29.513 43.3123 30.1428V35H41.8258V30.3217C41.8258 29.7682 41.6816 29.3357 41.3933 29.0241C41.1049 28.7093 40.7089 28.5518 40.2051 28.5518C39.8604 28.5518 39.5538 28.6264 39.2853 28.7756C39.0202 28.9247 38.8097 29.1435 38.6539 29.4318C38.5015 29.7169 38.4252 30.0616 38.4252 30.4659ZM48.8706 27.3636V28.5568H44.6994V27.3636H48.8706ZM45.818 25.5341H47.3045V32.7578C47.3045 33.0462 47.3476 33.2633 47.4338 33.4091C47.5199 33.5516 47.631 33.6494 47.7669 33.7024C47.9061 33.7521 48.0569 33.777 48.2193 33.777C48.3386 33.777 48.443 33.7687 48.5325 33.7521C48.622 33.7356 48.6916 33.7223 48.7413 33.7124L49.0098 34.9403C48.9236 34.9735 48.801 35.0066 48.6419 35.0398C48.4828 35.0762 48.2839 35.0961 48.0453 35.0994C47.6542 35.1061 47.2896 35.0365 46.9515 34.8906C46.6135 34.7448 46.34 34.5194 46.1312 34.2145C45.9224 33.9096 45.818 33.5268 45.818 33.0661V25.5341ZM52.7372 35.169C52.2533 35.169 51.8158 35.0795 51.4247 34.9006C51.0336 34.7183 50.7237 34.4548 50.495 34.1101C50.2696 33.7654 50.157 33.3428 50.157 32.8423C50.157 32.4115 50.2398 32.0568 50.4055 31.7784C50.5713 31.5 50.795 31.2796 51.0767 31.1172C51.3584 30.9548 51.6733 30.8321 52.0213 30.7493C52.3693 30.6664 52.724 30.6035 53.0852 30.5604C53.5426 30.5073 53.9138 30.4643 54.1989 30.4311C54.4839 30.3946 54.6911 30.3366 54.8203 30.2571C54.9496 30.1776 55.0142 30.0483 55.0142 29.8693V29.8345C55.0142 29.4003 54.8916 29.0639 54.6463 28.8253C54.4044 28.5866 54.0431 28.4673 53.5625 28.4673C53.062 28.4673 52.6676 28.5784 52.3793 28.8004C52.0942 29.0192 51.897 29.2628 51.7876 29.5312L50.3906 29.2131C50.5563 28.7491 50.7983 28.3745 51.1165 28.0895C51.438 27.8011 51.8075 27.5923 52.2251 27.4631C52.6428 27.3305 53.0819 27.2642 53.5426 27.2642C53.8475 27.2642 54.1707 27.3007 54.5121 27.3736C54.8568 27.4432 55.1783 27.5724 55.4766 27.7614C55.7782 27.9503 56.0251 28.2204 56.2173 28.5717C56.4096 28.9197 56.5057 29.3722 56.5057 29.929V35H55.054V33.956H54.9943C54.8982 34.1482 54.754 34.3371 54.5618 34.5227C54.3696 34.7083 54.1226 34.8625 53.821 34.9851C53.5194 35.1077 53.1581 35.169 52.7372 35.169ZM53.0604 33.9759C53.4714 33.9759 53.8227 33.8946 54.1143 33.7322C54.4093 33.5698 54.633 33.3577 54.7855 33.0959C54.9413 32.8307 55.0192 32.5473 55.0192 32.2457V31.2614C54.9661 31.3144 54.8634 31.3641 54.7109 31.4105C54.5618 31.4536 54.3911 31.4917 54.1989 31.5249C54.0066 31.5547 53.8194 31.5829 53.6371 31.6094C53.4548 31.6326 53.3023 31.6525 53.1797 31.669C52.8913 31.7055 52.6278 31.7668 52.3892 31.853C52.1539 31.9392 51.965 32.0634 51.8224 32.2259C51.6832 32.3849 51.6136 32.5971 51.6136 32.8622C51.6136 33.2301 51.7495 33.5085 52.0213 33.6974C52.2931 33.883 52.6394 33.9759 53.0604 33.9759ZM59.6589 27.3636L61.3443 30.3366L63.0446 27.3636H64.6703L62.2889 31.1818L64.6902 35H63.0645L61.3443 32.1463L59.6291 35H57.9984L60.3748 31.1818L58.0282 27.3636H59.6589ZM67.176 35.0945C66.9042 35.0945 66.6705 34.9983 66.475 34.8061C66.2794 34.6106 66.1816 34.3752 66.1816 34.1001C66.1816 33.8284 66.2794 33.5964 66.475 33.4041C66.6705 33.2086 66.9042 33.1108 67.176 33.1108C67.4477 33.1108 67.6814 33.2086 67.877 33.4041C68.0725 33.5964 68.1703 33.8284 68.1703 34.1001C68.1703 34.2824 68.1239 34.4498 68.0311 34.6023C67.9416 34.7514 67.8223 34.8707 67.6731 34.9602C67.524 35.0497 67.3583 35.0945 67.176 35.0945ZM67.176 29.5362C66.9042 29.5362 66.6705 29.4384 66.475 29.2429C66.2794 29.0473 66.1816 28.8137 66.1816 28.5419C66.1816 28.2701 66.2794 28.0381 66.475 27.8459C66.6705 27.6503 66.9042 27.5526 67.176 27.5526C67.4477 27.5526 67.6814 27.6503 67.877 27.8459C68.0725 28.0381 68.1703 28.2701 68.1703 28.5419C68.1703 28.7242 68.1239 28.8916 68.0311 29.044C67.9416 29.1932 67.8223 29.3125 67.6731 29.402C67.524 29.4915 67.3583 29.5362 67.176 29.5362Z" fill="#94A3B8"/>
<path d="M19 37.7841H69.1596V38.7386H19V37.7841Z" fill="#94A3B8"/>
<path d="M20.1186 123V112.818H26.5021V114.141H21.6548V117.243H26.169V118.56H21.6548V121.678H26.5618V123H20.1186ZM29.6081 115.364L31.2935 118.337L32.9938 115.364H34.6195L32.2381 119.182L34.6394 123H33.0137L31.2935 120.146L29.5783 123H27.9476L30.324 119.182L27.9775 115.364H29.6081ZM38.3544 123.169C37.8705 123.169 37.433 123.08 37.0419 122.901C36.6508 122.718 36.3409 122.455 36.1122 122.11C35.8868 121.765 35.7741 121.343 35.7741 120.842C35.7741 120.411 35.857 120.057 36.0227 119.778C36.1884 119.5 36.4122 119.28 36.6939 119.117C36.9756 118.955 37.2905 118.832 37.6385 118.749C37.9865 118.666 38.3411 118.603 38.7024 118.56C39.1598 118.507 39.531 118.464 39.8161 118.431C40.1011 118.395 40.3082 118.337 40.4375 118.257C40.5668 118.178 40.6314 118.048 40.6314 117.869V117.835C40.6314 117.4 40.5088 117.064 40.2635 116.825C40.0215 116.587 39.6603 116.467 39.1797 116.467C38.6792 116.467 38.2848 116.578 37.9964 116.8C37.7114 117.019 37.5142 117.263 37.4048 117.531L36.0078 117.213C36.1735 116.749 36.4155 116.375 36.7337 116.089C37.0552 115.801 37.4247 115.592 37.8423 115.463C38.2599 115.33 38.6991 115.264 39.1598 115.264C39.4647 115.264 39.7879 115.301 40.1293 115.374C40.474 115.443 40.7955 115.572 41.0938 115.761C41.3954 115.95 41.6423 116.22 41.8345 116.572C42.0268 116.92 42.1229 117.372 42.1229 117.929V123H40.6712V121.956H40.6115C40.5154 122.148 40.3712 122.337 40.179 122.523C39.9867 122.708 39.7398 122.862 39.4382 122.985C39.1366 123.108 38.7753 123.169 38.3544 123.169ZM38.6776 121.976C39.0885 121.976 39.4399 121.895 39.7315 121.732C40.0265 121.57 40.2502 121.358 40.4027 121.096C40.5585 120.831 40.6364 120.547 40.6364 120.246V119.261C40.5833 119.314 40.4806 119.364 40.3281 119.411C40.179 119.454 40.0083 119.492 39.8161 119.525C39.6238 119.555 39.4366 119.583 39.2543 119.609C39.072 119.633 38.9195 119.652 38.7969 119.669C38.5085 119.705 38.245 119.767 38.0064 119.853C37.7711 119.939 37.5821 120.063 37.4396 120.226C37.3004 120.385 37.2308 120.597 37.2308 120.862C37.2308 121.23 37.3667 121.509 37.6385 121.697C37.9103 121.883 38.2566 121.976 38.6776 121.976ZM44.1028 123V115.364H45.5297V116.607H45.6241C45.7832 116.186 46.0434 115.857 46.4047 115.622C46.7659 115.384 47.1984 115.264 47.7022 115.264C48.2127 115.264 48.6402 115.384 48.9849 115.622C49.3329 115.861 49.5898 116.189 49.7555 116.607H49.835C50.0173 116.199 50.3074 115.874 50.7051 115.632C51.1028 115.387 51.5768 115.264 52.127 115.264C52.8197 115.264 53.3848 115.481 53.8223 115.915C54.2631 116.35 54.4835 117.004 54.4835 117.879V123H52.997V118.018C52.997 117.501 52.8561 117.127 52.5744 116.895C52.2927 116.663 51.9563 116.547 51.5652 116.547C51.0813 116.547 50.7051 116.696 50.4366 116.994C50.1681 117.289 50.0339 117.669 50.0339 118.133V123H48.5524V117.924C48.5524 117.51 48.4231 117.177 48.1646 116.925C47.9061 116.673 47.5697 116.547 47.1554 116.547C46.8736 116.547 46.6135 116.621 46.3748 116.771C46.1395 116.916 45.9489 117.12 45.8031 117.382C45.6606 117.644 45.5893 117.947 45.5893 118.292V123H44.1028ZM56.4759 125.864V115.364H57.9276V116.602H58.0518C58.138 116.442 58.2623 116.259 58.4247 116.05C58.5871 115.841 58.8125 115.659 59.1009 115.503C59.3892 115.344 59.7704 115.264 60.2443 115.264C60.8608 115.264 61.411 115.42 61.8949 115.732C62.3788 116.043 62.7583 116.492 63.0334 117.079C63.3118 117.665 63.451 118.371 63.451 119.197C63.451 120.022 63.3134 120.73 63.0384 121.32C62.7633 121.906 62.3854 122.359 61.9048 122.677C61.4242 122.992 60.8757 123.149 60.2592 123.149C59.7952 123.149 59.4157 123.071 59.1207 122.915C58.8291 122.76 58.6004 122.577 58.4347 122.369C58.2689 122.16 58.1413 121.974 58.0518 121.812H57.9624V125.864H56.4759ZM57.9325 119.182C57.9325 119.719 58.0104 120.189 58.1662 120.594C58.322 120.998 58.5473 121.315 58.8423 121.543C59.1373 121.769 59.4986 121.881 59.9261 121.881C60.3703 121.881 60.7415 121.764 61.0398 121.528C61.3381 121.29 61.5634 120.967 61.7159 120.559C61.8717 120.151 61.9496 119.692 61.9496 119.182C61.9496 118.678 61.8733 118.226 61.7209 117.825C61.5717 117.424 61.3464 117.107 61.0447 116.875C60.7464 116.643 60.3736 116.527 59.9261 116.527C59.4953 116.527 59.1307 116.638 58.8324 116.86C58.5374 117.082 58.3137 117.392 58.1612 117.79C58.0088 118.187 57.9325 118.652 57.9325 119.182ZM66.603 112.818V123H65.1165V112.818H66.603ZM71.894 123.154C71.1416 123.154 70.4937 122.993 69.9501 122.672C69.4099 122.347 68.9922 121.891 68.6973 121.305C68.4056 120.715 68.2598 120.024 68.2598 119.232C68.2598 118.449 68.4056 117.76 68.6973 117.163C68.9922 116.567 69.4032 116.101 69.9302 115.766C70.4605 115.432 71.0803 115.264 71.7896 115.264C72.2205 115.264 72.6381 115.335 73.0424 115.478C73.4468 115.621 73.8097 115.844 74.1312 116.149C74.4527 116.454 74.7063 116.85 74.8919 117.337C75.0775 117.821 75.1703 118.41 75.1703 119.102V119.629H69.1V118.516H73.7136C73.7136 118.125 73.6341 117.778 73.475 117.477C73.3159 117.172 73.0922 116.931 72.8038 116.756C72.5188 116.58 72.184 116.492 71.7995 116.492C71.3819 116.492 71.0173 116.595 70.7058 116.8C70.3975 117.003 70.1589 117.268 69.9899 117.596C69.8242 117.921 69.7413 118.274 69.7413 118.655V119.525C69.7413 120.035 69.8308 120.469 70.0098 120.827C70.1921 121.185 70.4456 121.459 70.7704 121.648C71.0952 121.833 71.4747 121.926 71.9089 121.926C72.1906 121.926 72.4475 121.886 72.6795 121.807C72.9115 121.724 73.112 121.601 73.2811 121.439C73.4501 121.277 73.5794 121.076 73.6689 120.837L75.0758 121.091C74.9631 121.505 74.7609 121.868 74.4693 122.18C74.1809 122.488 73.818 122.728 73.3805 122.901C72.9463 123.07 72.4508 123.154 71.894 123.154ZM77.799 123.094C77.5272 123.094 77.2936 122.998 77.098 122.806C76.9025 122.611 76.8047 122.375 76.8047 122.1C76.8047 121.828 76.9025 121.596 77.098 121.404C77.2936 121.209 77.5272 121.111 77.799 121.111C78.0708 121.111 78.3045 121.209 78.5 121.404C78.6955 121.596 78.7933 121.828 78.7933 122.1C78.7933 122.282 78.7469 122.45 78.6541 122.602C78.5646 122.751 78.4453 122.871 78.2962 122.96C78.147 123.05 77.9813 123.094 77.799 123.094ZM77.799 117.536C77.5272 117.536 77.2936 117.438 77.098 117.243C76.9025 117.047 76.8047 116.814 76.8047 116.542C76.8047 116.27 76.9025 116.038 77.098 115.846C77.2936 115.65 77.5272 115.553 77.799 115.553C78.0708 115.553 78.3045 115.65 78.5 115.846C78.6955 116.038 78.7933 116.27 78.7933 116.542C78.7933 116.724 78.7469 116.892 78.6541 117.044C78.5646 117.193 78.4453 117.312 78.2962 117.402C78.147 117.491 77.9813 117.536 77.799 117.536Z" fill="#94A3B8"/>
<path d="M19 125.784H79.7827V126.739H19V125.784Z" fill="#94A3B8"/>
</svg>
