<svg width="500" height="350" viewBox="0 0 500 350" fill="none" xmlns="http://www.w3.org/2000/svg">
<rect x="50" y="35" width="112" height="64" rx="8" fill="#6366F1"/>
<path d="M87.5904 73H85.7267L89.9142 61.3636H91.9426L96.1301 73H94.2665L90.9767 63.4773H90.8858L87.5904 73ZM87.9029 68.4432H93.9483V69.9205H87.9029V68.4432ZM97.3222 76.2727V64.2727H98.9813V65.6875H99.1233C99.2218 65.5057 99.3638 65.2955 99.5494 65.0568C99.7351 64.8182 99.9926 64.6098 100.322 64.4318C100.652 64.25 101.087 64.1591 101.629 64.1591C102.334 64.1591 102.962 64.3371 103.515 64.6932C104.068 65.0492 104.502 65.5625 104.816 66.233C105.135 66.9034 105.294 67.7102 105.294 68.6534C105.294 69.5966 105.137 70.4053 104.822 71.0795C104.508 71.75 104.076 72.267 103.527 72.6307C102.977 72.9905 102.351 73.1705 101.646 73.1705C101.116 73.1705 100.682 73.0814 100.345 72.9034C100.012 72.7254 99.7502 72.517 99.5608 72.2784C99.3714 72.0398 99.2256 71.8277 99.1233 71.642H99.021V76.2727H97.3222ZM98.9869 68.6364C98.9869 69.25 99.076 69.7879 99.254 70.25C99.432 70.7121 99.6896 71.0739 100.027 71.3352C100.364 71.5928 100.777 71.7216 101.265 71.7216C101.773 71.7216 102.197 71.5871 102.538 71.3182C102.879 71.0455 103.137 70.6761 103.311 70.2102C103.489 69.7443 103.578 69.2197 103.578 68.6364C103.578 68.0606 103.491 67.5436 103.316 67.0852C103.146 66.6269 102.888 66.2652 102.544 66C102.203 65.7348 101.777 65.6023 101.265 65.6023C100.773 65.6023 100.356 65.7292 100.015 65.983C99.6782 66.2367 99.4226 66.5909 99.2483 67.0455C99.0741 67.5 98.9869 68.0303 98.9869 68.6364ZM106.845 76.2727V64.2727H108.504V65.6875H108.646C108.745 65.5057 108.887 65.2955 109.072 65.0568C109.258 64.8182 109.516 64.6098 109.845 64.4318C110.175 64.25 110.61 64.1591 111.152 64.1591C111.857 64.1591 112.485 64.3371 113.038 64.6932C113.591 65.0492 114.025 65.5625 114.339 66.233C114.658 66.9034 114.817 67.7102 114.817 68.6534C114.817 69.5966 114.66 70.4053 114.345 71.0795C114.031 71.75 113.599 72.267 113.05 72.6307C112.5 72.9905 111.874 73.1705 111.169 73.1705C110.639 73.1705 110.205 73.0814 109.868 72.9034C109.535 72.7254 109.273 72.517 109.084 72.2784C108.894 72.0398 108.749 71.8277 108.646 71.642H108.544V76.2727H106.845ZM108.51 68.6364C108.51 69.25 108.599 69.7879 108.777 70.25C108.955 70.7121 109.213 71.0739 109.55 71.3352C109.887 71.5928 110.3 71.7216 110.788 71.7216C111.296 71.7216 111.72 71.5871 112.061 71.3182C112.402 71.0455 112.66 70.6761 112.834 70.2102C113.012 69.7443 113.101 69.2197 113.101 68.6364C113.101 68.0606 113.014 67.5436 112.839 67.0852C112.669 66.6269 112.411 66.2652 112.067 66C111.726 65.7348 111.3 65.6023 110.788 65.6023C110.296 65.6023 109.879 65.7292 109.538 65.983C109.201 66.2367 108.946 66.5909 108.771 67.0455C108.597 67.5 108.51 68.0303 108.51 68.6364ZM124.643 61.3636V73H122.881V63.125H122.813L120.029 64.9432V63.2614L122.932 61.3636H124.643Z" fill="white"/>
<rect x="194" y="35" width="112" height="64" rx="8" fill="#6366F1"/>
<path d="M230.465 73H228.602L232.789 61.3636H234.818L239.005 73H237.142L233.852 63.4773H233.761L230.465 73ZM230.778 68.4432H236.823V69.9205H230.778V68.4432ZM240.197 76.2727V64.2727H241.856V65.6875H241.998C242.097 65.5057 242.239 65.2955 242.424 65.0568C242.61 64.8182 242.868 64.6098 243.197 64.4318C243.527 64.25 243.962 64.1591 244.504 64.1591C245.209 64.1591 245.837 64.3371 246.39 64.6932C246.943 65.0492 247.377 65.5625 247.691 66.233C248.01 66.9034 248.169 67.7102 248.169 68.6534C248.169 69.5966 248.012 70.4053 247.697 71.0795C247.383 71.75 246.951 72.267 246.402 72.6307C245.852 72.9905 245.226 73.1705 244.521 73.1705C243.991 73.1705 243.557 73.0814 243.22 72.9034C242.887 72.7254 242.625 72.517 242.436 72.2784C242.246 72.0398 242.101 71.8277 241.998 71.642H241.896V76.2727H240.197ZM241.862 68.6364C241.862 69.25 241.951 69.7879 242.129 70.25C242.307 70.7121 242.565 71.0739 242.902 71.3352C243.239 71.5928 243.652 71.7216 244.14 71.7216C244.648 71.7216 245.072 71.5871 245.413 71.3182C245.754 71.0455 246.012 70.6761 246.186 70.2102C246.364 69.7443 246.453 69.2197 246.453 68.6364C246.453 68.0606 246.366 67.5436 246.191 67.0852C246.021 66.6269 245.763 66.2652 245.419 66C245.078 65.7348 244.652 65.6023 244.14 65.6023C243.648 65.6023 243.231 65.7292 242.89 65.983C242.553 66.2367 242.298 66.5909 242.123 67.0455C241.949 67.5 241.862 68.0303 241.862 68.6364ZM249.72 76.2727V64.2727H251.379V65.6875H251.521C251.62 65.5057 251.762 65.2955 251.947 65.0568C252.133 64.8182 252.391 64.6098 252.72 64.4318C253.05 64.25 253.485 64.1591 254.027 64.1591C254.732 64.1591 255.36 64.3371 255.913 64.6932C256.466 65.0492 256.9 65.5625 257.214 66.233C257.533 66.9034 257.692 67.7102 257.692 68.6534C257.692 69.5966 257.535 70.4053 257.22 71.0795C256.906 71.75 256.474 72.267 255.925 72.6307C255.375 72.9905 254.749 73.1705 254.044 73.1705C253.514 73.1705 253.08 73.0814 252.743 72.9034C252.41 72.7254 252.148 72.517 251.959 72.2784C251.769 72.0398 251.624 71.8277 251.521 71.642H251.419V76.2727H249.72ZM251.385 68.6364C251.385 69.25 251.474 69.7879 251.652 70.25C251.83 70.7121 252.088 71.0739 252.425 71.3352C252.762 71.5928 253.175 71.7216 253.663 71.7216C254.171 71.7216 254.595 71.5871 254.936 71.3182C255.277 71.0455 255.535 70.6761 255.709 70.2102C255.887 69.7443 255.976 69.2197 255.976 68.6364C255.976 68.0606 255.889 67.5436 255.714 67.0852C255.544 66.6269 255.286 66.2652 254.942 66C254.601 65.7348 254.175 65.6023 253.663 65.6023C253.171 65.6023 252.754 65.7292 252.413 65.983C252.076 66.2367 251.821 66.5909 251.646 67.0455C251.472 67.5 251.385 68.0303 251.385 68.6364ZM263.103 73V71.7273L267.04 67.6477C267.461 67.2045 267.807 66.8163 268.08 66.483C268.357 66.1458 268.563 65.8258 268.699 65.5227C268.836 65.2197 268.904 64.8977 268.904 64.5568C268.904 64.1705 268.813 63.8371 268.631 63.5568C268.449 63.2727 268.201 63.0549 267.887 62.9034C267.573 62.7481 267.218 62.6705 266.824 62.6705C266.408 62.6705 266.044 62.7557 265.733 62.9261C265.423 63.0966 265.184 63.3371 265.018 63.6477C264.851 63.9583 264.768 64.322 264.768 64.7386H263.091C263.091 64.0303 263.254 63.411 263.58 62.8807C263.906 62.3504 264.353 61.9394 264.921 61.6477C265.489 61.3523 266.135 61.2045 266.858 61.2045C267.59 61.2045 268.233 61.3504 268.79 61.642C269.351 61.9299 269.788 62.3239 270.103 62.8239C270.417 63.3201 270.574 63.8807 270.574 64.5057C270.574 64.9375 270.493 65.3598 270.33 65.7727C270.171 66.1856 269.893 66.6458 269.495 67.1534C269.097 67.6572 268.544 68.2689 267.836 68.9886L265.523 71.4091V71.4943H270.762V73H263.103Z" fill="white"/>
<rect x="338" y="35" width="112" height="64" rx="8" fill="#6366F1"/>
<path d="M384.115 73V61.3636H385.87V71.4886H391.143V73H384.115ZM392.658 73V64.2727H394.357V73H392.658ZM393.516 62.9261C393.22 62.9261 392.966 62.8277 392.754 62.6307C392.546 62.4299 392.442 62.1913 392.442 61.9148C392.442 61.6345 392.546 61.3958 392.754 61.1989C392.966 60.9981 393.22 60.8977 393.516 60.8977C393.811 60.8977 394.063 60.9981 394.271 61.1989C394.483 61.3958 394.589 61.6345 394.589 61.9148C394.589 62.1913 394.483 62.4299 394.271 62.6307C394.063 62.8277 393.811 62.9261 393.516 62.9261ZM396.426 73V61.3636H398.125V65.6875H398.228C398.326 65.5057 398.468 65.2955 398.654 65.0568C398.839 64.8182 399.097 64.6098 399.426 64.4318C399.756 64.25 400.192 64.1591 400.733 64.1591C401.438 64.1591 402.067 64.3371 402.62 64.6932C403.173 65.0492 403.606 65.5625 403.921 66.233C404.239 66.9034 404.398 67.7102 404.398 68.6534C404.398 69.5966 404.241 70.4053 403.926 71.0795C403.612 71.75 403.18 72.267 402.631 72.6307C402.082 72.9905 401.455 73.1705 400.75 73.1705C400.22 73.1705 399.786 73.0814 399.449 72.9034C399.116 72.7254 398.854 72.517 398.665 72.2784C398.476 72.0398 398.33 71.8277 398.228 71.642H398.086V73H396.426ZM398.091 68.6364C398.091 69.25 398.18 69.7879 398.358 70.25C398.536 70.7121 398.794 71.0739 399.131 71.3352C399.468 71.5928 399.881 71.7216 400.37 71.7216C400.877 71.7216 401.301 71.5871 401.642 71.3182C401.983 71.0455 402.241 70.6761 402.415 70.2102C402.593 69.7443 402.682 69.2197 402.682 68.6364C402.682 68.0606 402.595 67.5436 402.421 67.0852C402.25 66.6269 401.993 66.2652 401.648 66C401.307 65.7348 400.881 65.6023 400.37 65.6023C399.877 65.6023 399.461 65.7292 399.12 65.983C398.782 66.2367 398.527 66.5909 398.353 67.0455C398.178 67.5 398.091 68.0303 398.091 68.6364Z" fill="white"/>
<rect x="188" y="227" width="124" height="88" rx="4" stroke="#94A3B8" stroke-width="2" stroke-miterlimit="0" stroke-linecap="round" stroke-dasharray="15 15"/>
<path d="M222.566 277H220.702L224.89 265.364H226.918L231.106 277H229.242L225.952 267.477H225.862L222.566 277ZM222.879 272.443H228.924V273.92H222.879V272.443ZM234.349 271.818V277H232.65V268.273H234.281V269.693H234.388C234.589 269.231 234.904 268.86 235.332 268.58C235.763 268.299 236.307 268.159 236.962 268.159C237.557 268.159 238.078 268.284 238.525 268.534C238.972 268.78 239.318 269.148 239.565 269.636C239.811 270.125 239.934 270.729 239.934 271.449V277H238.235V271.653C238.235 271.021 238.07 270.527 237.741 270.17C237.411 269.811 236.959 269.631 236.383 269.631C235.989 269.631 235.638 269.716 235.332 269.886C235.029 270.057 234.788 270.307 234.61 270.636C234.436 270.962 234.349 271.356 234.349 271.818ZM245.871 280.455C245.178 280.455 244.582 280.364 244.082 280.182C243.585 280 243.18 279.759 242.866 279.46C242.551 279.161 242.317 278.833 242.161 278.477L243.621 277.875C243.724 278.042 243.86 278.218 244.031 278.403C244.205 278.593 244.44 278.754 244.735 278.886C245.034 279.019 245.419 279.085 245.888 279.085C246.532 279.085 247.065 278.928 247.485 278.614C247.906 278.303 248.116 277.807 248.116 277.125V275.409H248.008C247.906 275.595 247.758 275.801 247.565 276.028C247.375 276.256 247.114 276.453 246.781 276.619C246.447 276.786 246.013 276.869 245.479 276.869C244.79 276.869 244.169 276.708 243.616 276.386C243.067 276.061 242.631 275.581 242.309 274.949C241.991 274.312 241.832 273.53 241.832 272.602C241.832 271.674 241.989 270.879 242.303 270.216C242.621 269.553 243.057 269.045 243.61 268.693C244.163 268.337 244.79 268.159 245.491 268.159C246.032 268.159 246.47 268.25 246.803 268.432C247.137 268.61 247.396 268.818 247.582 269.057C247.771 269.295 247.917 269.506 248.019 269.688H248.144V268.273H249.809V277.193C249.809 277.943 249.635 278.559 249.286 279.04C248.938 279.521 248.466 279.877 247.871 280.108C247.281 280.339 246.614 280.455 245.871 280.455ZM245.854 275.46C246.343 275.46 246.756 275.347 247.093 275.119C247.434 274.888 247.692 274.559 247.866 274.131C248.044 273.699 248.133 273.182 248.133 272.58C248.133 271.992 248.046 271.475 247.871 271.028C247.697 270.581 247.442 270.233 247.104 269.983C246.767 269.729 246.351 269.602 245.854 269.602C245.343 269.602 244.917 269.735 244.576 270C244.235 270.261 243.978 270.617 243.803 271.068C243.633 271.519 243.548 272.023 243.548 272.58C243.548 273.152 243.635 273.653 243.809 274.085C243.983 274.517 244.241 274.854 244.582 275.097C244.926 275.339 245.351 275.46 245.854 275.46ZM257.616 273.381V268.273H259.32V277H257.65V275.489H257.559C257.358 275.955 257.036 276.343 256.593 276.653C256.154 276.96 255.606 277.114 254.951 277.114C254.39 277.114 253.894 276.991 253.462 276.744C253.034 276.494 252.697 276.125 252.451 275.636C252.209 275.148 252.087 274.544 252.087 273.824V268.273H253.786V273.619C253.786 274.214 253.951 274.687 254.281 275.04C254.61 275.392 255.038 275.568 255.565 275.568C255.883 275.568 256.199 275.489 256.513 275.33C256.832 275.17 257.095 274.93 257.303 274.608C257.515 274.286 257.62 273.877 257.616 273.381ZM263.302 265.364V277H261.603V265.364H263.302ZM268.127 277.193C267.574 277.193 267.074 277.091 266.627 276.886C266.18 276.678 265.826 276.377 265.565 275.983C265.307 275.589 265.178 275.106 265.178 274.534C265.178 274.042 265.273 273.636 265.462 273.318C265.652 273 265.907 272.748 266.229 272.562C266.551 272.377 266.911 272.237 267.309 272.142C267.707 272.047 268.112 271.975 268.525 271.926C269.048 271.866 269.472 271.816 269.798 271.778C270.123 271.737 270.36 271.67 270.508 271.58C270.656 271.489 270.729 271.341 270.729 271.136V271.097C270.729 270.6 270.589 270.216 270.309 269.943C270.032 269.67 269.62 269.534 269.07 269.534C268.498 269.534 268.048 269.661 267.718 269.915C267.392 270.165 267.167 270.443 267.042 270.75L265.445 270.386C265.635 269.856 265.911 269.428 266.275 269.102C266.642 268.773 267.065 268.534 267.542 268.386C268.019 268.235 268.521 268.159 269.048 268.159C269.396 268.159 269.765 268.201 270.156 268.284C270.549 268.364 270.917 268.511 271.258 268.727C271.603 268.943 271.885 269.252 272.104 269.653C272.324 270.051 272.434 270.568 272.434 271.205V277H270.775V275.807H270.707C270.597 276.027 270.432 276.242 270.212 276.455C269.993 276.667 269.71 276.843 269.366 276.983C269.021 277.123 268.608 277.193 268.127 277.193ZM268.496 275.83C268.966 275.83 269.368 275.737 269.701 275.551C270.038 275.366 270.294 275.123 270.468 274.824C270.646 274.521 270.735 274.197 270.735 273.852V272.727C270.674 272.788 270.557 272.845 270.383 272.898C270.212 272.947 270.017 272.991 269.798 273.028C269.578 273.062 269.364 273.095 269.156 273.125C268.947 273.152 268.773 273.174 268.633 273.193C268.303 273.235 268.002 273.305 267.729 273.403C267.46 273.502 267.245 273.644 267.082 273.83C266.923 274.011 266.843 274.254 266.843 274.557C266.843 274.977 266.998 275.295 267.309 275.511C267.62 275.723 268.015 275.83 268.496 275.83ZM274.697 277V268.273H276.339V269.659H276.43C276.589 269.189 276.869 268.82 277.271 268.551C277.676 268.278 278.134 268.142 278.646 268.142C278.752 268.142 278.877 268.146 279.021 268.153C279.168 268.161 279.284 268.17 279.367 268.182V269.807C279.299 269.788 279.178 269.767 279.004 269.744C278.829 269.718 278.655 269.705 278.481 269.705C278.079 269.705 277.721 269.79 277.407 269.96C277.096 270.127 276.85 270.36 276.668 270.659C276.487 270.955 276.396 271.292 276.396 271.67V277H274.697Z" fill="#94A3B8"/>
<path d="M107.5 103C107.5 102.172 106.828 101.5 106 101.5C105.172 101.5 104.5 102.172 104.5 103H107.5ZM185.061 272.061C185.646 271.475 185.646 270.525 185.061 269.939L175.515 260.393C174.929 259.808 173.979 259.808 173.393 260.393C172.808 260.979 172.808 261.929 173.393 262.515L181.879 271L173.393 279.485C172.808 280.071 172.808 281.021 173.393 281.607C173.979 282.192 174.929 282.192 175.515 281.607L185.061 272.061ZM104.5 103V247H107.5V103H104.5ZM130 272.5H184V269.5H130V272.5ZM104.5 247C104.5 261.083 115.917 272.5 130 272.5V269.5C117.574 269.5 107.5 259.426 107.5 247H104.5Z" fill="#94A3B8"/>
<path d="M251.5 103C251.5 102.172 250.828 101.5 250 101.5C249.172 101.5 248.5 102.172 248.5 103H251.5ZM248.939 224.061C249.525 224.646 250.475 224.646 251.061 224.061L260.607 214.515C261.192 213.929 261.192 212.979 260.607 212.393C260.021 211.808 259.071 211.808 258.485 212.393L250 220.879L241.515 212.393C240.929 211.808 239.979 211.808 239.393 212.393C238.808 212.979 238.808 213.929 239.393 214.515L248.939 224.061ZM248.5 103V223H251.5V103H248.5Z" fill="#94A3B8"/>
<path d="M395.5 103C395.5 102.172 394.828 101.5 394 101.5C393.172 101.5 392.5 102.172 392.5 103H395.5ZM314.939 269.939C314.354 270.525 314.354 271.475 314.939 272.061L324.485 281.607C325.071 282.192 326.021 282.192 326.607 281.607C327.192 281.021 327.192 280.071 326.607 279.485L318.121 271L326.607 262.515C327.192 261.929 327.192 260.979 326.607 260.393C326.021 259.808 325.071 259.808 324.485 260.393L314.939 269.939ZM392.5 103V247H395.5V103H392.5ZM370 269.5H316V272.5H370V269.5ZM392.5 247C392.5 259.426 382.426 269.5 370 269.5V272.5C384.083 272.5 395.5 261.083 395.5 247H392.5Z" fill="#94A3B8"/>
</svg>
