<svg width="730" height="440" viewBox="0 0 730 440" fill="none" xmlns="http://www.w3.org/2000/svg">
<rect x="429" y="165" width="67.2" height="38.4" rx="8" fill="#6366F1"/>
<rect x="515.4" y="165" width="67.2" height="38.4" rx="8" fill="#6366F1"/>
<rect x="601.8" y="165" width="67.2" height="38.4" rx="8" fill="#6366F1"/>
<rect x="515.4" y="280.2" width="67.2" height="52.8" rx="4" stroke="#94A3B8" stroke-linecap="round" stroke-dasharray="5 5"/>
<path d="M463.1 207.399C463.1 207.123 462.876 206.899 462.6 206.899C462.324 206.899 462.1 207.123 462.1 207.399H463.1ZM511.754 306.953C511.949 306.758 511.949 306.441 511.754 306.246L508.572 303.064C508.377 302.869 508.06 302.869 507.865 303.064C507.669 303.259 507.669 303.576 507.865 303.771L510.693 306.6L507.865 309.428C507.669 309.623 507.669 309.94 507.865 310.135C508.06 310.33 508.377 310.33 508.572 310.135L511.754 306.953ZM462.1 207.399V282.6H463.1V207.399H462.1ZM486.6 307.1H511.4V306.1H486.6V307.1ZM462.1 282.6C462.1 296.131 473.069 307.1 486.6 307.1V306.1C473.621 306.1 463.1 295.578 463.1 282.6H462.1Z" fill="#94A3B8"/>
<path d="M549.5 207.399C549.5 207.123 549.276 206.899 549 206.899C548.724 206.899 548.5 207.123 548.5 207.399H549.5ZM548.647 276.553C548.842 276.748 549.159 276.748 549.354 276.553L552.536 273.371C552.731 273.176 552.731 272.859 552.536 272.664C552.341 272.469 552.024 272.469 551.829 272.664L549 275.493L546.172 272.664C545.977 272.469 545.66 272.469 545.465 272.664C545.269 272.859 545.269 273.176 545.465 273.371L548.647 276.553ZM548.5 207.399V276.2H549.5V207.399H548.5Z" fill="#94A3B8"/>
<path d="M635.9 207.399C635.9 207.123 635.676 206.899 635.4 206.899C635.124 206.899 634.9 207.123 634.9 207.399H635.9ZM586.247 306.246C586.051 306.441 586.051 306.758 586.247 306.953L589.429 310.135C589.624 310.33 589.94 310.33 590.136 310.135C590.331 309.94 590.331 309.623 590.136 309.428L587.307 306.6L590.136 303.771C590.331 303.576 590.331 303.259 590.136 303.064C589.94 302.869 589.624 302.869 589.429 303.064L586.247 306.246ZM634.9 207.399V282.6H635.9V207.399H634.9ZM611.4 306.1H586.6V307.1H611.4V306.1ZM634.9 282.6C634.9 295.578 624.379 306.1 611.4 306.1V307.1C624.931 307.1 635.9 296.131 635.9 282.6H634.9Z" fill="#94A3B8"/>
<path d="M383 221.5L247.25 299.875L247.25 143.125L383 221.5Z" fill="#F43F5E"/>
<path d="M395 221.5L259.25 299.875L259.25 143.125L395 221.5Z" fill="#F43F5E" fill-opacity="0.8"/>
<path d="M410 221.5L274.25 299.875L274.25 143.125L410 221.5Z" fill="#F43F5E" fill-opacity="0.6"/>
<path d="M270.462 224H268.598L272.786 212.364H274.814L279.002 224H277.138L273.848 214.477H273.758L270.462 224ZM270.775 219.443H276.82V220.92H270.775V219.443ZM281.893 218.818V224H280.194V215.273H281.825V216.693H281.933C282.133 216.231 282.448 215.86 282.876 215.58C283.308 215.299 283.851 215.159 284.506 215.159C285.101 215.159 285.622 215.284 286.069 215.534C286.516 215.78 286.862 216.148 287.109 216.636C287.355 217.125 287.478 217.729 287.478 218.449V224H285.779V218.653C285.779 218.021 285.614 217.527 285.285 217.17C284.955 216.811 284.503 216.631 283.927 216.631C283.533 216.631 283.183 216.716 282.876 216.886C282.573 217.057 282.332 217.307 282.154 217.636C281.98 217.962 281.893 218.356 281.893 218.818ZM291.944 224.193C291.391 224.193 290.891 224.091 290.444 223.886C289.997 223.678 289.643 223.377 289.382 222.983C289.124 222.589 288.995 222.106 288.995 221.534C288.995 221.042 289.09 220.636 289.279 220.318C289.469 220 289.724 219.748 290.046 219.562C290.368 219.377 290.728 219.237 291.126 219.142C291.524 219.047 291.929 218.975 292.342 218.926C292.865 218.866 293.289 218.816 293.615 218.778C293.94 218.737 294.177 218.67 294.325 218.58C294.473 218.489 294.546 218.341 294.546 218.136V218.097C294.546 217.6 294.406 217.216 294.126 216.943C293.849 216.67 293.437 216.534 292.887 216.534C292.315 216.534 291.865 216.661 291.535 216.915C291.209 217.165 290.984 217.443 290.859 217.75L289.262 217.386C289.452 216.856 289.728 216.428 290.092 216.102C290.459 215.773 290.882 215.534 291.359 215.386C291.836 215.235 292.338 215.159 292.865 215.159C293.213 215.159 293.582 215.201 293.973 215.284C294.367 215.364 294.734 215.511 295.075 215.727C295.42 215.943 295.702 216.252 295.921 216.653C296.141 217.051 296.251 217.568 296.251 218.205V224H294.592V222.807H294.524C294.414 223.027 294.249 223.242 294.029 223.455C293.81 223.667 293.528 223.843 293.183 223.983C292.838 224.123 292.425 224.193 291.944 224.193ZM292.314 222.83C292.783 222.83 293.185 222.737 293.518 222.551C293.855 222.366 294.111 222.123 294.285 221.824C294.463 221.521 294.552 221.197 294.552 220.852V219.727C294.492 219.788 294.374 219.845 294.2 219.898C294.029 219.947 293.834 219.991 293.615 220.028C293.395 220.062 293.181 220.095 292.973 220.125C292.764 220.152 292.59 220.174 292.45 220.193C292.12 220.235 291.819 220.305 291.546 220.403C291.278 220.502 291.062 220.644 290.899 220.83C290.74 221.011 290.66 221.254 290.66 221.557C290.66 221.977 290.815 222.295 291.126 222.511C291.437 222.723 291.832 222.83 292.314 222.83ZM299.861 212.364V224H298.162V212.364H299.861ZM302.868 227.273C302.614 227.273 302.383 227.252 302.175 227.21C301.967 227.172 301.811 227.131 301.709 227.085L302.118 225.693C302.429 225.777 302.705 225.813 302.948 225.801C303.19 225.79 303.404 225.699 303.59 225.528C303.779 225.358 303.946 225.08 304.09 224.693L304.3 224.114L301.107 215.273H302.925L305.135 222.045H305.226L307.436 215.273H309.26L305.663 225.165C305.497 225.619 305.285 226.004 305.027 226.318C304.77 226.636 304.463 226.875 304.107 227.034C303.751 227.193 303.338 227.273 302.868 227.273ZM317.044 217.403L315.505 217.676C315.44 217.479 315.338 217.292 315.198 217.114C315.061 216.936 314.876 216.79 314.641 216.676C314.406 216.562 314.113 216.506 313.76 216.506C313.279 216.506 312.878 216.614 312.556 216.83C312.234 217.042 312.073 217.316 312.073 217.653C312.073 217.945 312.181 218.18 312.397 218.358C312.613 218.536 312.961 218.682 313.442 218.795L314.829 219.114C315.632 219.299 316.23 219.585 316.624 219.972C317.018 220.358 317.215 220.86 317.215 221.477C317.215 222 317.063 222.466 316.76 222.875C316.461 223.28 316.043 223.598 315.505 223.83C314.971 224.061 314.351 224.176 313.647 224.176C312.669 224.176 311.872 223.968 311.255 223.551C310.637 223.131 310.258 222.534 310.118 221.761L311.76 221.511C311.863 221.939 312.073 222.263 312.391 222.483C312.709 222.699 313.124 222.807 313.635 222.807C314.192 222.807 314.637 222.691 314.971 222.46C315.304 222.225 315.471 221.939 315.471 221.602C315.471 221.33 315.368 221.1 315.164 220.915C314.963 220.729 314.654 220.589 314.238 220.494L312.76 220.17C311.946 219.985 311.344 219.689 310.954 219.284C310.567 218.879 310.374 218.366 310.374 217.744C310.374 217.229 310.518 216.778 310.806 216.392C311.094 216.006 311.491 215.705 311.999 215.489C312.507 215.269 313.088 215.159 313.743 215.159C314.686 215.159 315.429 215.364 315.971 215.773C316.512 216.178 316.87 216.722 317.044 217.403ZM318.731 224V215.273H320.43V224H318.731ZM319.589 213.926C319.293 213.926 319.04 213.828 318.827 213.631C318.619 213.43 318.515 213.191 318.515 212.915C318.515 212.634 318.619 212.396 318.827 212.199C319.04 211.998 319.293 211.898 319.589 211.898C319.884 211.898 320.136 211.998 320.344 212.199C320.557 212.396 320.663 212.634 320.663 212.915C320.663 213.191 320.557 213.43 320.344 213.631C320.136 213.828 319.884 213.926 319.589 213.926ZM328.903 217.403L327.363 217.676C327.299 217.479 327.197 217.292 327.056 217.114C326.92 216.936 326.734 216.79 326.5 216.676C326.265 216.562 325.971 216.506 325.619 216.506C325.138 216.506 324.736 216.614 324.414 216.83C324.092 217.042 323.931 217.316 323.931 217.653C323.931 217.945 324.039 218.18 324.255 218.358C324.471 218.536 324.82 218.682 325.301 218.795L326.687 219.114C327.49 219.299 328.089 219.585 328.482 219.972C328.876 220.358 329.073 220.86 329.073 221.477C329.073 222 328.922 222.466 328.619 222.875C328.32 223.28 327.901 223.598 327.363 223.83C326.829 224.061 326.21 224.176 325.505 224.176C324.528 224.176 323.731 223.968 323.113 223.551C322.496 223.131 322.117 222.534 321.977 221.761L323.619 221.511C323.721 221.939 323.931 222.263 324.25 222.483C324.568 222.699 324.982 222.807 325.494 222.807C326.051 222.807 326.496 222.691 326.829 222.46C327.162 222.225 327.329 221.939 327.329 221.602C327.329 221.33 327.227 221.1 327.022 220.915C326.822 220.729 326.513 220.589 326.096 220.494L324.619 220.17C323.804 219.985 323.202 219.689 322.812 219.284C322.426 218.879 322.232 218.366 322.232 217.744C322.232 217.229 322.376 216.778 322.664 216.392C322.952 216.006 323.35 215.705 323.857 215.489C324.365 215.269 324.947 215.159 325.602 215.159C326.545 215.159 327.287 215.364 327.829 215.773C328.371 216.178 328.729 216.722 328.903 217.403Z" fill="white"/>
<path d="M270.343 254.94C270.433 254.398 270.903 254 271.453 254H272.546C273.096 254 273.566 254.398 273.656 254.94L273.805 255.834C273.875 256.258 274.189 256.598 274.585 256.764C274.983 256.928 275.44 256.906 275.79 256.656L276.527 256.129C276.744 255.974 277.008 255.901 277.274 255.923C277.54 255.945 277.789 256.061 277.977 256.249L278.75 257.023C279.14 257.412 279.19 258.025 278.87 258.473L278.343 259.21C278.093 259.56 278.071 260.016 278.236 260.414C278.401 260.811 278.741 261.124 279.166 261.194L280.059 261.344C280.602 261.434 280.999 261.904 280.999 262.453V263.547C280.999 264.097 280.602 264.567 280.059 264.657L279.166 264.806C278.741 264.876 278.401 265.189 278.236 265.586C278.071 265.984 278.093 266.44 278.343 266.79L278.87 267.528C279.19 267.975 279.139 268.588 278.75 268.978L277.976 269.751C277.788 269.939 277.539 270.055 277.274 270.077C277.008 270.099 276.744 270.026 276.527 269.871L275.789 269.344C275.439 269.094 274.983 269.072 274.586 269.237C274.189 269.402 273.876 269.742 273.805 270.166L273.656 271.06C273.566 271.602 273.096 272 272.546 272H271.452C270.902 272 270.433 271.602 270.342 271.06L270.194 270.166C270.123 269.742 269.81 269.402 269.413 269.236C269.015 269.072 268.559 269.094 268.209 269.344L267.471 269.871C267.024 270.191 266.411 270.14 266.021 269.751L265.248 268.977C265.06 268.789 264.944 268.54 264.922 268.274C264.9 268.008 264.973 267.744 265.128 267.527L265.655 266.79C265.905 266.44 265.928 265.984 265.763 265.586C265.598 265.189 265.258 264.876 264.833 264.806L263.939 264.656C263.397 264.566 262.999 264.096 262.999 263.547V262.453C262.999 261.903 263.397 261.433 263.939 261.343L264.833 261.194C265.257 261.124 265.598 260.811 265.763 260.414C265.928 260.016 265.906 259.56 265.656 259.21L265.129 258.472C264.974 258.255 264.901 257.991 264.923 257.725C264.945 257.459 265.061 257.21 265.249 257.022L266.022 256.249C266.21 256.061 266.459 255.945 266.725 255.923C266.991 255.901 267.255 255.974 267.472 256.129L268.209 256.656C268.559 256.906 269.016 256.928 269.413 256.763C269.81 256.598 270.123 256.258 270.193 255.834L270.343 254.94V254.94Z" stroke="white" stroke-opacity="0.9" stroke-width="1.5" stroke-linecap="round" stroke-linejoin="round"/>
<path d="M275 263C275 263.796 274.684 264.559 274.121 265.121C273.559 265.684 272.796 266 272 266C271.204 266 270.441 265.684 269.879 265.121C269.316 264.559 269 263.796 269 263C269 262.204 269.316 261.441 269.879 260.879C270.441 260.316 271.204 260 272 260C272.796 260 273.559 260.316 274.121 260.879C274.684 261.441 275 262.204 275 263V263Z" stroke="white" stroke-opacity="0.9" stroke-width="1.5" stroke-linecap="round" stroke-linejoin="round"/>
<path d="M286.757 250.955C286.825 250.549 287.177 250.25 287.59 250.25H288.41C288.822 250.25 289.175 250.549 289.242 250.955L289.354 251.626C289.406 251.944 289.642 252.198 289.939 252.323C290.237 252.446 290.58 252.43 290.843 252.242L291.395 251.847C291.558 251.731 291.756 251.676 291.956 251.692C292.155 251.709 292.342 251.795 292.483 251.937L293.063 252.517C293.355 252.809 293.393 253.269 293.153 253.605L292.757 254.158C292.57 254.42 292.553 254.762 292.677 255.06C292.801 255.358 293.056 255.593 293.375 255.646L294.044 255.758C294.452 255.825 294.749 256.178 294.749 256.59V257.41C294.749 257.823 294.452 258.175 294.044 258.243L293.375 258.354C293.056 258.407 292.801 258.642 292.677 258.94C292.553 259.238 292.57 259.58 292.757 259.842L293.153 260.396C293.393 260.731 293.354 261.191 293.063 261.484L292.482 262.063C292.341 262.204 292.154 262.291 291.955 262.307C291.756 262.324 291.558 262.269 291.395 262.153L290.842 261.758C290.579 261.57 290.237 261.554 289.94 261.678C289.642 261.801 289.407 262.057 289.354 262.375L289.242 263.045C289.175 263.451 288.822 263.75 288.41 263.75H287.589C287.177 263.75 286.825 263.451 286.757 263.045L286.646 262.375C286.592 262.057 286.358 261.802 286.06 261.677C285.761 261.554 285.419 261.57 285.157 261.758L284.603 262.153C284.268 262.393 283.808 262.355 283.516 262.063L282.936 261.483C282.795 261.341 282.708 261.155 282.692 260.956C282.675 260.756 282.73 260.558 282.846 260.395L283.241 259.842C283.429 259.58 283.446 259.238 283.322 258.94C283.199 258.642 282.944 258.407 282.625 258.354L281.954 258.242C281.548 258.175 281.249 257.822 281.249 257.41V256.59C281.249 256.177 281.548 255.825 281.954 255.757L282.625 255.646C282.943 255.593 283.199 255.358 283.322 255.06C283.446 254.762 283.43 254.42 283.242 254.158L282.847 253.604C282.731 253.441 282.676 253.243 282.692 253.044C282.709 252.845 282.795 252.658 282.937 252.516L283.517 251.937C283.658 251.795 283.845 251.709 284.044 251.692C284.243 251.676 284.441 251.731 284.604 251.847L285.157 252.242C285.419 252.43 285.762 252.446 286.06 252.322C286.358 252.199 286.592 251.944 286.645 251.626L286.757 250.955V250.955Z" stroke="white" stroke-opacity="0.9" stroke-width="1.5" stroke-linecap="round" stroke-linejoin="round"/>
<path d="M290.25 257C290.25 257.597 290.013 258.169 289.591 258.591C289.169 259.013 288.597 259.25 288 259.25C287.403 259.25 286.831 259.013 286.409 258.591C285.987 258.169 285.75 257.597 285.75 257C285.75 256.403 285.987 255.831 286.409 255.409C286.831 254.987 287.403 254.75 288 254.75C288.597 254.75 289.169 254.987 289.591 255.409C290.013 255.831 290.25 256.403 290.25 257V257Z" stroke="white" stroke-opacity="0.9" stroke-width="1.5" stroke-linecap="round" stroke-linejoin="round"/>
<path d="M267.343 190.06C267.433 190.602 267.903 191 268.453 191H269.546C270.096 191 270.566 190.602 270.656 190.06L270.805 189.166C270.875 188.742 271.189 188.402 271.585 188.236C271.983 188.072 272.44 188.094 272.79 188.344L273.527 188.871C273.744 189.026 274.008 189.099 274.274 189.077C274.54 189.055 274.789 188.939 274.977 188.751L275.75 187.977C276.14 187.588 276.19 186.975 275.87 186.527L275.343 185.79C275.093 185.44 275.071 184.984 275.236 184.586C275.401 184.189 275.741 183.876 276.166 183.806L277.059 183.656C277.602 183.566 277.999 183.096 277.999 182.547V181.453C277.999 180.903 277.602 180.433 277.059 180.343L276.166 180.194C275.741 180.124 275.401 179.811 275.236 179.414C275.071 179.016 275.093 178.56 275.343 178.21L275.87 177.472C276.19 177.025 276.139 176.412 275.75 176.022L274.976 175.249C274.788 175.061 274.539 174.945 274.274 174.923C274.008 174.901 273.744 174.974 273.527 175.129L272.789 175.656C272.439 175.906 271.983 175.928 271.586 175.763C271.189 175.598 270.876 175.258 270.805 174.834L270.656 173.94C270.566 173.398 270.096 173 269.546 173H268.452C267.902 173 267.433 173.398 267.342 173.94L267.194 174.834C267.123 175.258 266.81 175.598 266.413 175.764C266.015 175.928 265.559 175.906 265.209 175.656L264.471 175.129C264.024 174.809 263.411 174.86 263.021 175.249L262.248 176.023C262.06 176.211 261.944 176.46 261.922 176.726C261.9 176.992 261.973 177.256 262.128 177.473L262.655 178.21C262.905 178.56 262.928 179.016 262.763 179.414C262.598 179.811 262.258 180.124 261.833 180.194L260.939 180.344C260.397 180.434 259.999 180.904 259.999 181.453V182.547C259.999 183.097 260.397 183.567 260.939 183.657L261.833 183.806C262.257 183.876 262.598 184.189 262.763 184.586C262.928 184.984 262.906 185.44 262.656 185.79L262.129 186.528C261.974 186.745 261.901 187.009 261.923 187.275C261.945 187.541 262.061 187.79 262.249 187.978L263.022 188.751C263.21 188.939 263.459 189.055 263.725 189.077C263.991 189.099 264.255 189.026 264.472 188.871L265.209 188.344C265.559 188.094 266.016 188.072 266.413 188.237C266.81 188.402 267.123 188.742 267.193 189.166L267.343 190.06V190.06Z" stroke="white" stroke-opacity="0.9" stroke-width="1.5" stroke-linecap="round" stroke-linejoin="round"/>
<path d="M272 182C272 181.204 271.684 180.441 271.121 179.879C270.559 179.316 269.796 179 269 179C268.204 179 267.441 179.316 266.879 179.879C266.316 180.441 266 181.204 266 182C266 182.796 266.316 183.559 266.879 184.121C267.441 184.684 268.204 185 269 185C269.796 185 270.559 184.684 271.121 184.121C271.684 183.559 272 182.796 272 182V182Z" stroke="white" stroke-opacity="0.9" stroke-width="1.5" stroke-linecap="round" stroke-linejoin="round"/>
<path d="M283.757 194.045C283.825 194.451 284.177 194.75 284.59 194.75H285.41C285.822 194.75 286.175 194.451 286.242 194.045L286.354 193.374C286.406 193.056 286.642 192.802 286.939 192.677C287.237 192.554 287.58 192.57 287.843 192.758L288.395 193.153C288.558 193.269 288.756 193.324 288.956 193.308C289.155 193.291 289.342 193.205 289.483 193.063L290.063 192.483C290.355 192.191 290.393 191.731 290.153 191.395L289.757 190.842C289.57 190.58 289.553 190.238 289.677 189.94C289.801 189.642 290.056 189.407 290.375 189.354L291.044 189.242C291.452 189.175 291.749 188.822 291.749 188.41V187.59C291.749 187.177 291.452 186.825 291.044 186.757L290.375 186.646C290.056 186.593 289.801 186.358 289.677 186.06C289.553 185.762 289.57 185.42 289.757 185.158L290.153 184.604C290.393 184.269 290.354 183.809 290.063 183.516L289.482 182.937C289.341 182.796 289.154 182.709 288.955 182.693C288.756 182.676 288.558 182.731 288.395 182.847L287.842 183.242C287.579 183.43 287.237 183.446 286.94 183.322C286.642 183.199 286.407 182.943 286.354 182.625L286.242 181.955C286.175 181.549 285.822 181.25 285.41 181.25H284.589C284.177 181.25 283.825 181.549 283.757 181.955L283.646 182.625C283.592 182.943 283.358 183.198 283.06 183.323C282.761 183.446 282.419 183.43 282.157 183.242L281.603 182.847C281.268 182.607 280.808 182.645 280.516 182.937L279.936 183.517C279.795 183.659 279.708 183.845 279.692 184.044C279.675 184.244 279.73 184.442 279.846 184.605L280.241 185.158C280.429 185.42 280.446 185.762 280.322 186.06C280.199 186.358 279.944 186.593 279.625 186.646L278.954 186.758C278.548 186.825 278.249 187.178 278.249 187.59V188.41C278.249 188.823 278.548 189.175 278.954 189.243L279.625 189.354C279.943 189.407 280.199 189.642 280.322 189.94C280.446 190.238 280.43 190.58 280.242 190.842L279.847 191.396C279.731 191.559 279.676 191.757 279.692 191.956C279.709 192.155 279.795 192.342 279.937 192.484L280.517 193.063C280.658 193.205 280.845 193.291 281.044 193.308C281.243 193.324 281.441 193.269 281.604 193.153L282.157 192.758C282.419 192.57 282.762 192.554 283.06 192.678C283.358 192.801 283.592 193.056 283.645 193.374L283.757 194.045V194.045Z" stroke="white" stroke-opacity="0.9" stroke-width="1.5" stroke-linecap="round" stroke-linejoin="round"/>
<path d="M287.25 188C287.25 187.403 287.013 186.831 286.591 186.409C286.169 185.987 285.597 185.75 285 185.75C284.403 185.75 283.831 185.987 283.409 186.409C282.987 186.831 282.75 187.403 282.75 188C282.75 188.597 282.987 189.169 283.409 189.591C283.831 190.013 284.403 190.25 285 190.25C285.597 190.25 286.169 190.013 286.591 189.591C287.013 189.169 287.25 188.597 287.25 188V188Z" stroke="white" stroke-opacity="0.9" stroke-width="1.5" stroke-linecap="round" stroke-linejoin="round"/>
<path d="M489.897 104.364H491.658V112.017C491.658 112.831 491.467 113.553 491.084 114.182C490.702 114.807 490.164 115.299 489.471 115.659C488.777 116.015 487.965 116.193 487.033 116.193C486.105 116.193 485.295 116.015 484.601 115.659C483.908 115.299 483.37 114.807 482.988 114.182C482.605 113.553 482.414 112.831 482.414 112.017V104.364H484.17V111.875C484.17 112.402 484.285 112.869 484.516 113.278C484.751 113.688 485.082 114.009 485.51 114.244C485.938 114.475 486.446 114.591 487.033 114.591C487.624 114.591 488.134 114.475 488.562 114.244C488.993 114.009 489.323 113.688 489.55 113.278C489.781 112.869 489.897 112.402 489.897 111.875V104.364ZM493.722 119.273V107.273H495.381V108.688H495.523C495.622 108.506 495.764 108.295 495.95 108.057C496.135 107.818 496.393 107.61 496.722 107.432C497.052 107.25 497.488 107.159 498.029 107.159C498.734 107.159 499.363 107.337 499.916 107.693C500.469 108.049 500.902 108.562 501.217 109.233C501.535 109.903 501.694 110.71 501.694 111.653C501.694 112.597 501.537 113.405 501.222 114.08C500.908 114.75 500.476 115.267 499.927 115.631C499.378 115.991 498.751 116.17 498.046 116.17C497.516 116.17 497.082 116.081 496.745 115.903C496.412 115.725 496.15 115.517 495.961 115.278C495.772 115.04 495.626 114.828 495.523 114.642H495.421V119.273H493.722ZM495.387 111.636C495.387 112.25 495.476 112.788 495.654 113.25C495.832 113.712 496.09 114.074 496.427 114.335C496.764 114.593 497.177 114.722 497.666 114.722C498.173 114.722 498.597 114.587 498.938 114.318C499.279 114.045 499.537 113.676 499.711 113.21C499.889 112.744 499.978 112.22 499.978 111.636C499.978 111.061 499.891 110.544 499.717 110.085C499.546 109.627 499.289 109.265 498.944 109C498.603 108.735 498.177 108.602 497.666 108.602C497.173 108.602 496.756 108.729 496.416 108.983C496.078 109.237 495.823 109.591 495.648 110.045C495.474 110.5 495.387 111.03 495.387 111.636ZM506.512 116.17C505.808 116.17 505.179 115.991 504.626 115.631C504.077 115.267 503.645 114.75 503.331 114.08C503.02 113.405 502.865 112.597 502.865 111.653C502.865 110.71 503.022 109.903 503.336 109.233C503.654 108.562 504.09 108.049 504.643 107.693C505.196 107.337 505.823 107.159 506.524 107.159C507.065 107.159 507.501 107.25 507.831 107.432C508.164 107.61 508.421 107.818 508.603 108.057C508.789 108.295 508.933 108.506 509.035 108.688H509.137V104.364H510.836V116H509.177V114.642H509.035C508.933 114.828 508.785 115.04 508.592 115.278C508.403 115.517 508.141 115.725 507.808 115.903C507.475 116.081 507.043 116.17 506.512 116.17ZM506.887 114.722C507.376 114.722 507.789 114.593 508.126 114.335C508.467 114.074 508.725 113.712 508.899 113.25C509.077 112.788 509.166 112.25 509.166 111.636C509.166 111.03 509.079 110.5 508.904 110.045C508.73 109.591 508.475 109.237 508.137 108.983C507.8 108.729 507.384 108.602 506.887 108.602C506.376 108.602 505.95 108.735 505.609 109C505.268 109.265 505.011 109.627 504.836 110.085C504.666 110.544 504.581 111.061 504.581 111.636C504.581 112.22 504.668 112.744 504.842 113.21C505.016 113.676 505.274 114.045 505.615 114.318C505.959 114.587 506.384 114.722 506.887 114.722ZM515.449 116.193C514.896 116.193 514.396 116.091 513.949 115.886C513.502 115.678 513.148 115.377 512.886 114.983C512.629 114.589 512.5 114.106 512.5 113.534C512.5 113.042 512.595 112.636 512.784 112.318C512.973 112 513.229 111.748 513.551 111.562C513.873 111.377 514.233 111.237 514.631 111.142C515.028 111.047 515.434 110.975 515.846 110.926C516.369 110.866 516.793 110.816 517.119 110.778C517.445 110.737 517.682 110.67 517.829 110.58C517.977 110.489 518.051 110.341 518.051 110.136V110.097C518.051 109.6 517.911 109.216 517.631 108.943C517.354 108.67 516.941 108.534 516.392 108.534C515.82 108.534 515.369 108.661 515.04 108.915C514.714 109.165 514.489 109.443 514.364 109.75L512.767 109.386C512.956 108.856 513.233 108.428 513.596 108.102C513.964 107.773 514.386 107.534 514.864 107.386C515.341 107.235 515.843 107.159 516.369 107.159C516.718 107.159 517.087 107.201 517.477 107.284C517.871 107.364 518.239 107.511 518.579 107.727C518.924 107.943 519.206 108.252 519.426 108.653C519.646 109.051 519.756 109.568 519.756 110.205V116H518.096V114.807H518.028C517.918 115.027 517.754 115.242 517.534 115.455C517.314 115.667 517.032 115.843 516.687 115.983C516.343 116.123 515.93 116.193 515.449 116.193ZM515.818 114.83C516.288 114.83 516.689 114.737 517.023 114.551C517.36 114.366 517.615 114.123 517.79 113.824C517.968 113.521 518.057 113.197 518.057 112.852V111.727C517.996 111.788 517.879 111.845 517.704 111.898C517.534 111.947 517.339 111.991 517.119 112.028C516.9 112.062 516.685 112.095 516.477 112.125C516.269 112.152 516.095 112.174 515.954 112.193C515.625 112.235 515.324 112.305 515.051 112.403C514.782 112.502 514.566 112.644 514.403 112.83C514.244 113.011 514.165 113.254 514.165 113.557C514.165 113.977 514.32 114.295 514.631 114.511C514.941 114.723 515.337 114.83 515.818 114.83ZM525.74 107.273V108.636H520.973V107.273H525.74ZM522.252 105.182H523.95V113.438C523.95 113.767 524 114.015 524.098 114.182C524.197 114.345 524.324 114.456 524.479 114.517C524.638 114.574 524.81 114.602 524.996 114.602C525.132 114.602 525.252 114.593 525.354 114.574C525.456 114.555 525.536 114.54 525.592 114.528L525.899 115.932C525.801 115.97 525.661 116.008 525.479 116.045C525.297 116.087 525.07 116.11 524.797 116.114C524.35 116.121 523.933 116.042 523.547 115.875C523.161 115.708 522.848 115.451 522.61 115.102C522.371 114.754 522.252 114.316 522.252 113.79V105.182ZM530.935 116.176C530.075 116.176 529.335 115.992 528.714 115.625C528.096 115.254 527.619 114.733 527.282 114.062C526.948 113.388 526.782 112.598 526.782 111.693C526.782 110.799 526.948 110.011 527.282 109.33C527.619 108.648 528.089 108.116 528.691 107.733C529.297 107.35 530.005 107.159 530.816 107.159C531.308 107.159 531.785 107.241 532.248 107.403C532.71 107.566 533.124 107.822 533.492 108.17C533.859 108.519 534.149 108.972 534.361 109.528C534.573 110.081 534.679 110.754 534.679 111.545V112.148H527.742V110.875H533.015C533.015 110.428 532.924 110.032 532.742 109.688C532.56 109.339 532.304 109.064 531.975 108.864C531.649 108.663 531.267 108.562 530.827 108.562C530.35 108.562 529.933 108.68 529.577 108.915C529.225 109.146 528.952 109.449 528.759 109.824C528.57 110.195 528.475 110.598 528.475 111.034V112.028C528.475 112.612 528.577 113.108 528.782 113.517C528.99 113.926 529.28 114.239 529.651 114.455C530.022 114.667 530.456 114.773 530.952 114.773C531.274 114.773 531.568 114.727 531.833 114.636C532.098 114.542 532.327 114.402 532.52 114.216C532.714 114.03 532.861 113.801 532.964 113.528L534.571 113.818C534.443 114.292 534.212 114.706 533.878 115.062C533.549 115.415 533.134 115.689 532.634 115.886C532.138 116.08 531.571 116.176 530.935 116.176ZM539.479 116.17C538.775 116.17 538.146 115.991 537.593 115.631C537.044 115.267 536.612 114.75 536.298 114.08C535.987 113.405 535.832 112.597 535.832 111.653C535.832 110.71 535.989 109.903 536.303 109.233C536.621 108.562 537.057 108.049 537.61 107.693C538.163 107.337 538.79 107.159 539.491 107.159C540.032 107.159 540.468 107.25 540.798 107.432C541.131 107.61 541.388 107.818 541.57 108.057C541.756 108.295 541.9 108.506 542.002 108.688H542.104V104.364H543.803V116H542.144V114.642H542.002C541.9 114.828 541.752 115.04 541.559 115.278C541.37 115.517 541.108 115.725 540.775 115.903C540.442 116.081 540.01 116.17 539.479 116.17ZM539.854 114.722C540.343 114.722 540.756 114.593 541.093 114.335C541.434 114.074 541.692 113.712 541.866 113.25C542.044 112.788 542.133 112.25 542.133 111.636C542.133 111.03 542.046 110.5 541.871 110.045C541.697 109.591 541.442 109.237 541.104 108.983C540.767 108.729 540.351 108.602 539.854 108.602C539.343 108.602 538.917 108.735 538.576 109C538.235 109.265 537.978 109.627 537.803 110.085C537.633 110.544 537.548 111.061 537.548 111.636C537.548 112.22 537.635 112.744 537.809 113.21C537.983 113.676 538.241 114.045 538.582 114.318C538.926 114.587 539.351 114.722 539.854 114.722ZM557.77 108.04C557.66 107.695 557.512 107.386 557.327 107.114C557.145 106.837 556.927 106.602 556.673 106.409C556.419 106.212 556.13 106.062 555.804 105.96C555.482 105.858 555.128 105.807 554.741 105.807C554.086 105.807 553.495 105.975 552.969 106.312C552.442 106.65 552.025 107.144 551.719 107.795C551.416 108.443 551.264 109.237 551.264 110.176C551.264 111.119 551.417 111.917 551.724 112.568C552.031 113.22 552.452 113.714 552.986 114.051C553.52 114.388 554.128 114.557 554.809 114.557C555.442 114.557 555.993 114.428 556.463 114.17C556.936 113.913 557.302 113.549 557.559 113.08C557.821 112.606 557.952 112.049 557.952 111.409L558.406 111.494H555.077V110.045H559.65V111.369C559.65 112.347 559.442 113.195 559.025 113.915C558.613 114.631 558.041 115.184 557.309 115.574C556.582 115.964 555.749 116.159 554.809 116.159C553.756 116.159 552.832 115.917 552.037 115.432C551.245 114.947 550.628 114.259 550.184 113.369C549.741 112.475 549.52 111.415 549.52 110.188C549.52 109.259 549.649 108.426 549.906 107.688C550.164 106.949 550.525 106.322 550.991 105.807C551.461 105.288 552.012 104.892 552.645 104.619C553.281 104.343 553.976 104.205 554.73 104.205C555.359 104.205 555.944 104.297 556.486 104.483C557.031 104.669 557.516 104.932 557.94 105.273C558.368 105.614 558.722 106.019 559.003 106.489C559.283 106.955 559.472 107.472 559.571 108.04H557.77ZM561.391 116V107.273H563.033V108.659H563.124C563.283 108.189 563.563 107.82 563.965 107.551C564.37 107.278 564.828 107.142 565.34 107.142C565.446 107.142 565.571 107.146 565.715 107.153C565.862 107.161 565.978 107.17 566.061 107.182V108.807C565.993 108.788 565.872 108.767 565.698 108.744C565.523 108.718 565.349 108.705 565.175 108.705C564.773 108.705 564.415 108.79 564.101 108.96C563.79 109.127 563.544 109.36 563.362 109.659C563.181 109.955 563.09 110.292 563.09 110.67V116H561.391ZM569.641 116.193C569.088 116.193 568.588 116.091 568.141 115.886C567.694 115.678 567.34 115.377 567.079 114.983C566.821 114.589 566.692 114.106 566.692 113.534C566.692 113.042 566.787 112.636 566.976 112.318C567.166 112 567.421 111.748 567.743 111.562C568.065 111.377 568.425 111.237 568.823 111.142C569.221 111.047 569.626 110.975 570.039 110.926C570.561 110.866 570.986 110.816 571.311 110.778C571.637 110.737 571.874 110.67 572.022 110.58C572.169 110.489 572.243 110.341 572.243 110.136V110.097C572.243 109.6 572.103 109.216 571.823 108.943C571.546 108.67 571.133 108.534 570.584 108.534C570.012 108.534 569.561 108.661 569.232 108.915C568.906 109.165 568.681 109.443 568.556 109.75L566.959 109.386C567.149 108.856 567.425 108.428 567.789 108.102C568.156 107.773 568.579 107.534 569.056 107.386C569.533 107.235 570.035 107.159 570.561 107.159C570.91 107.159 571.279 107.201 571.669 107.284C572.063 107.364 572.431 107.511 572.772 107.727C573.116 107.943 573.399 108.252 573.618 108.653C573.838 109.051 573.948 109.568 573.948 110.205V116H572.289V114.807H572.221C572.111 115.027 571.946 115.242 571.726 115.455C571.507 115.667 571.224 115.843 570.88 115.983C570.535 116.123 570.122 116.193 569.641 116.193ZM570.01 114.83C570.48 114.83 570.882 114.737 571.215 114.551C571.552 114.366 571.808 114.123 571.982 113.824C572.16 113.521 572.249 113.197 572.249 112.852V111.727C572.188 111.788 572.071 111.845 571.897 111.898C571.726 111.947 571.531 111.991 571.311 112.028C571.092 112.062 570.878 112.095 570.669 112.125C570.461 112.152 570.287 112.174 570.147 112.193C569.817 112.235 569.516 112.305 569.243 112.403C568.974 112.502 568.758 112.644 568.596 112.83C568.436 113.011 568.357 113.254 568.357 113.557C568.357 113.977 568.512 114.295 568.823 114.511C569.133 114.723 569.529 114.83 570.01 114.83ZM575.859 119.273V107.273H577.518V108.688H577.66C577.758 108.506 577.9 108.295 578.086 108.057C578.271 107.818 578.529 107.61 578.859 107.432C579.188 107.25 579.624 107.159 580.165 107.159C580.87 107.159 581.499 107.337 582.052 107.693C582.605 108.049 583.039 108.562 583.353 109.233C583.671 109.903 583.83 110.71 583.83 111.653C583.83 112.597 583.673 113.405 583.359 114.08C583.044 114.75 582.612 115.267 582.063 115.631C581.514 115.991 580.887 116.17 580.182 116.17C579.652 116.17 579.218 116.081 578.881 115.903C578.548 115.725 578.287 115.517 578.097 115.278C577.908 115.04 577.762 114.828 577.66 114.642H577.557V119.273H575.859ZM577.523 111.636C577.523 112.25 577.612 112.788 577.79 113.25C577.968 113.712 578.226 114.074 578.563 114.335C578.9 114.593 579.313 114.722 579.802 114.722C580.309 114.722 580.734 114.587 581.075 114.318C581.415 114.045 581.673 113.676 581.847 113.21C582.025 112.744 582.114 112.22 582.114 111.636C582.114 111.061 582.027 110.544 581.853 110.085C581.682 109.627 581.425 109.265 581.08 109C580.739 108.735 580.313 108.602 579.802 108.602C579.309 108.602 578.893 108.729 578.552 108.983C578.215 109.237 577.959 109.591 577.785 110.045C577.61 110.5 577.523 111.03 577.523 111.636ZM587.08 110.818V116H585.382V104.364H587.058V108.693H587.166C587.37 108.223 587.683 107.85 588.103 107.574C588.524 107.297 589.073 107.159 589.751 107.159C590.349 107.159 590.872 107.282 591.319 107.528C591.77 107.775 592.118 108.142 592.365 108.631C592.615 109.116 592.74 109.722 592.74 110.449V116H591.041V110.653C591.041 110.013 590.876 109.517 590.546 109.165C590.217 108.809 589.759 108.631 589.171 108.631C588.77 108.631 588.41 108.716 588.092 108.886C587.777 109.057 587.529 109.307 587.348 109.636C587.169 109.962 587.08 110.356 587.08 110.818Z" fill="#94A3B8"/>
<rect x="60" y="59" width="128" height="125" rx="4" stroke="#94A3B8" stroke-linecap="round"/>
<path d="M85.5421 87V75.3636H89.6898C90.5913 75.3636 91.3394 75.5189 91.9341 75.8295C92.5326 76.1402 92.9796 76.5701 93.2751 77.1193C93.5705 77.6648 93.7182 78.2955 93.7182 79.0114C93.7182 79.7235 93.5686 80.3504 93.2694 80.892C92.9739 81.4299 92.5269 81.8485 91.9285 82.1477C91.3338 82.447 90.5857 82.5966 89.6841 82.5966H86.5421V81.0852H89.5251C90.0932 81.0852 90.5554 81.0038 90.9114 80.8409C91.2713 80.678 91.5345 80.4413 91.7012 80.1307C91.8679 79.8201 91.9512 79.447 91.9512 79.0114C91.9512 78.572 91.866 78.1913 91.6955 77.8693C91.5288 77.5473 91.2656 77.3011 90.9057 77.1307C90.5497 76.9564 90.0819 76.8693 89.5023 76.8693H87.2978V87H85.5421ZM91.2864 81.75L94.1614 87H92.1614L89.3432 81.75H91.2864ZM99.0182 87.1761C98.1584 87.1761 97.4178 86.9924 96.7966 86.625C96.1792 86.2538 95.7019 85.733 95.3648 85.0625C95.0315 84.3883 94.8648 83.5985 94.8648 82.6932C94.8648 81.7992 95.0315 81.0114 95.3648 80.3295C95.7019 79.6477 96.1716 79.1155 96.7739 78.733C97.38 78.3504 98.0883 78.1591 98.8989 78.1591C99.3913 78.1591 99.8686 78.2405 100.331 78.4034C100.793 78.5663 101.208 78.822 101.575 79.1705C101.942 79.5189 102.232 79.9716 102.444 80.5284C102.656 81.0814 102.763 81.7538 102.763 82.5455V83.1477H95.825V81.875H101.098C101.098 81.428 101.007 81.0322 100.825 80.6875C100.643 80.339 100.388 80.0644 100.058 79.8636C99.7322 79.6629 99.3497 79.5625 98.9103 79.5625C98.433 79.5625 98.0163 79.6799 97.6603 79.9148C97.308 80.1458 97.0353 80.4489 96.8421 80.8239C96.6527 81.1951 96.558 81.5985 96.558 82.0341V83.0284C96.558 83.6117 96.6603 84.108 96.8648 84.517C97.0731 84.9261 97.3629 85.2386 97.7341 85.4545C98.1053 85.6667 98.5391 85.7727 99.0353 85.7727C99.3572 85.7727 99.6508 85.7273 99.9159 85.6364C100.181 85.5417 100.41 85.4015 100.603 85.2159C100.797 85.0303 100.944 84.8011 101.047 84.5284L102.655 84.8182C102.526 85.2917 102.295 85.7064 101.961 86.0625C101.632 86.4148 101.217 86.6894 100.717 86.8864C100.221 87.0795 99.6546 87.1761 99.0182 87.1761ZM104.295 90.2727V78.2727H105.955V79.6875H106.097C106.195 79.5057 106.337 79.2955 106.523 79.0568C106.708 78.8182 106.966 78.6098 107.295 78.4318C107.625 78.25 108.061 78.1591 108.602 78.1591C109.307 78.1591 109.936 78.3371 110.489 78.6932C111.042 79.0492 111.475 79.5625 111.79 80.233C112.108 80.9034 112.267 81.7102 112.267 82.6534C112.267 83.5966 112.11 84.4053 111.795 85.0795C111.481 85.75 111.049 86.267 110.5 86.6307C109.951 86.9905 109.324 87.1705 108.619 87.1705C108.089 87.1705 107.655 87.0814 107.318 86.9034C106.985 86.7254 106.724 86.517 106.534 86.2784C106.345 86.0398 106.199 85.8277 106.097 85.642H105.994V90.2727H104.295ZM105.96 82.6364C105.96 83.25 106.049 83.7879 106.227 84.25C106.405 84.7121 106.663 85.0739 107 85.3352C107.337 85.5928 107.75 85.7216 108.239 85.7216C108.746 85.7216 109.17 85.5871 109.511 85.3182C109.852 85.0455 110.11 84.6761 110.284 84.2102C110.462 83.7443 110.551 83.2197 110.551 82.6364C110.551 82.0606 110.464 81.5436 110.29 81.0852C110.119 80.6269 109.862 80.2652 109.517 80C109.176 79.7348 108.75 79.6023 108.239 79.6023C107.746 79.6023 107.33 79.7292 106.989 79.983C106.652 80.2367 106.396 80.5909 106.222 81.0455C106.047 81.5 105.96 82.0303 105.96 82.6364ZM117.495 87.1761C116.676 87.1761 115.962 86.9886 115.353 86.6136C114.743 86.2386 114.269 85.714 113.932 85.0398C113.595 84.3655 113.426 83.5777 113.426 82.6761C113.426 81.7708 113.595 80.9792 113.932 80.3011C114.269 79.6231 114.743 79.0966 115.353 78.7216C115.962 78.3466 116.676 78.1591 117.495 78.1591C118.313 78.1591 119.027 78.3466 119.637 78.7216C120.247 79.0966 120.72 79.6231 121.057 80.3011C121.394 80.9792 121.563 81.7708 121.563 82.6761C121.563 83.5777 121.394 84.3655 121.057 85.0398C120.72 85.714 120.247 86.2386 119.637 86.6136C119.027 86.9886 118.313 87.1761 117.495 87.1761ZM117.5 85.75C118.031 85.75 118.47 85.6098 118.818 85.3295C119.167 85.0492 119.425 84.6761 119.591 84.2102C119.762 83.7443 119.847 83.2311 119.847 82.6705C119.847 82.1136 119.762 81.6023 119.591 81.1364C119.425 80.6667 119.167 80.2898 118.818 80.0057C118.47 79.7216 118.031 79.5795 117.5 79.5795C116.966 79.5795 116.523 79.7216 116.171 80.0057C115.822 80.2898 115.563 80.6667 115.392 81.1364C115.226 81.6023 115.142 82.1136 115.142 82.6705C115.142 83.2311 115.226 83.7443 115.392 84.2102C115.563 84.6761 115.822 85.0492 116.171 85.3295C116.523 85.6098 116.966 85.75 117.5 85.75ZM129.647 80.4034L128.107 80.6761C128.043 80.4792 127.94 80.2917 127.8 80.1136C127.664 79.9356 127.478 79.7898 127.243 79.6761C127.009 79.5625 126.715 79.5057 126.363 79.5057C125.882 79.5057 125.48 79.6136 125.158 79.8295C124.836 80.0417 124.675 80.3163 124.675 80.6534C124.675 80.9451 124.783 81.1799 124.999 81.358C125.215 81.536 125.564 81.6818 126.045 81.7955L127.431 82.1136C128.234 82.2992 128.832 82.5852 129.226 82.9716C129.62 83.358 129.817 83.8598 129.817 84.4773C129.817 85 129.666 85.4659 129.363 85.875C129.064 86.2803 128.645 86.5985 128.107 86.8295C127.573 87.0606 126.954 87.1761 126.249 87.1761C125.272 87.1761 124.475 86.9678 123.857 86.5511C123.24 86.1307 122.861 85.5341 122.721 84.7614L124.363 84.5114C124.465 84.9394 124.675 85.2633 124.993 85.483C125.312 85.6989 125.726 85.8068 126.238 85.8068C126.795 85.8068 127.24 85.6913 127.573 85.4602C127.906 85.2254 128.073 84.9394 128.073 84.6023C128.073 84.3295 127.971 84.1004 127.766 83.9148C127.565 83.7292 127.257 83.589 126.84 83.4943L125.363 83.1705C124.548 82.9848 123.946 82.6894 123.556 82.2841C123.17 81.8788 122.976 81.3655 122.976 80.7443C122.976 80.2292 123.12 79.7784 123.408 79.392C123.696 79.0057 124.094 78.7045 124.601 78.4886C125.109 78.2689 125.69 78.1591 126.346 78.1591C127.289 78.1591 128.031 78.3636 128.573 78.7727C129.115 79.178 129.473 79.7216 129.647 80.4034ZM131.333 87V78.2727H133.032V87H131.333ZM132.191 76.9261C131.896 76.9261 131.642 76.8277 131.43 76.6307C131.221 76.4299 131.117 76.1913 131.117 75.9148C131.117 75.6345 131.221 75.3958 131.43 75.1989C131.642 74.9981 131.896 74.8977 132.191 74.8977C132.487 74.8977 132.739 74.9981 132.947 75.1989C133.159 75.3958 133.265 75.6345 133.265 75.9148C133.265 76.1913 133.159 76.4299 132.947 76.6307C132.739 76.8277 132.487 76.9261 132.191 76.9261ZM139.039 78.2727V79.6364H134.272V78.2727H139.039ZM135.551 76.1818H137.25V84.4375C137.25 84.767 137.299 85.0152 137.397 85.1818C137.496 85.3447 137.623 85.4564 137.778 85.517C137.937 85.5739 138.11 85.6023 138.295 85.6023C138.432 85.6023 138.551 85.5928 138.653 85.5739C138.755 85.5549 138.835 85.5398 138.892 85.5284L139.199 86.9318C139.1 86.9697 138.96 87.0076 138.778 87.0455C138.596 87.0871 138.369 87.1098 138.096 87.1136C137.649 87.1212 137.233 87.0417 136.846 86.875C136.46 86.7083 136.147 86.4508 135.909 86.1023C135.67 85.7538 135.551 85.3163 135.551 84.7898V76.1818ZM144.149 87.1761C143.331 87.1761 142.617 86.9886 142.007 86.6136C141.397 86.2386 140.924 85.714 140.587 85.0398C140.249 84.3655 140.081 83.5777 140.081 82.6761C140.081 81.7708 140.249 80.9792 140.587 80.3011C140.924 79.6231 141.397 79.0966 142.007 78.7216C142.617 78.3466 143.331 78.1591 144.149 78.1591C144.967 78.1591 145.681 78.3466 146.291 78.7216C146.901 79.0966 147.374 79.6231 147.712 80.3011C148.049 80.9792 148.217 81.7708 148.217 82.6761C148.217 83.5777 148.049 84.3655 147.712 85.0398C147.374 85.714 146.901 86.2386 146.291 86.6136C145.681 86.9886 144.967 87.1761 144.149 87.1761ZM144.155 85.75C144.685 85.75 145.124 85.6098 145.473 85.3295C145.821 85.0492 146.079 84.6761 146.246 84.2102C146.416 83.7443 146.501 83.2311 146.501 82.6705C146.501 82.1136 146.416 81.6023 146.246 81.1364C146.079 80.6667 145.821 80.2898 145.473 80.0057C145.124 79.7216 144.685 79.5795 144.155 79.5795C143.621 79.5795 143.178 79.7216 142.825 80.0057C142.477 80.2898 142.217 80.6667 142.047 81.1364C141.88 81.6023 141.797 82.1136 141.797 82.6705C141.797 83.2311 141.88 83.7443 142.047 84.2102C142.217 84.6761 142.477 85.0492 142.825 85.3295C143.178 85.6098 143.621 85.75 144.155 85.75ZM149.762 87V78.2727H151.404V79.6591H151.495C151.654 79.1894 151.934 78.8201 152.335 78.5511C152.741 78.2784 153.199 78.142 153.71 78.142C153.817 78.142 153.942 78.1458 154.085 78.1534C154.233 78.161 154.349 78.1705 154.432 78.1818V79.8068C154.364 79.7879 154.243 79.767 154.068 79.7443C153.894 79.7178 153.72 79.7045 153.546 79.7045C153.144 79.7045 152.786 79.7898 152.472 79.9602C152.161 80.1269 151.915 80.3598 151.733 80.6591C151.551 80.9545 151.46 81.2917 151.46 81.6705V87H149.762ZM156.89 90.2727C156.636 90.2727 156.405 90.2519 156.197 90.2102C155.988 90.1723 155.833 90.1307 155.731 90.0852L156.14 88.6932C156.45 88.7765 156.727 88.8125 156.969 88.8011C157.212 88.7898 157.426 88.6989 157.611 88.5284C157.801 88.358 157.967 88.0795 158.111 87.6932L158.322 87.1136L155.128 78.2727H156.947L159.157 85.0455H159.248L161.458 78.2727H163.282L159.685 88.1648C159.519 88.6193 159.306 89.0038 159.049 89.3182C158.791 89.6364 158.484 89.875 158.128 90.0341C157.772 90.1932 157.359 90.2727 156.89 90.2727Z" fill="#94A3B8"/>
<path d="M110.761 131.145C110.347 131.145 109.972 131.068 109.636 130.915C109.301 130.759 109.036 130.533 108.839 130.237C108.646 129.942 108.55 129.58 108.55 129.151C108.55 128.781 108.621 128.477 108.763 128.239C108.905 128 109.097 127.811 109.338 127.672C109.58 127.533 109.849 127.428 110.148 127.357C110.446 127.286 110.75 127.232 111.06 127.195C111.452 127.149 111.77 127.112 112.014 127.084C112.259 127.053 112.436 127.003 112.547 126.935C112.658 126.866 112.713 126.756 112.713 126.602V126.572C112.713 126.2 112.608 125.912 112.398 125.707C112.19 125.503 111.881 125.401 111.469 125.401C111.04 125.401 110.702 125.496 110.455 125.686C110.21 125.874 110.041 126.082 109.947 126.312L108.75 126.04C108.892 125.642 109.099 125.321 109.372 125.077C109.648 124.83 109.964 124.651 110.322 124.54C110.68 124.426 111.057 124.369 111.452 124.369C111.713 124.369 111.99 124.401 112.283 124.463C112.578 124.523 112.854 124.634 113.109 124.795C113.368 124.957 113.58 125.189 113.744 125.49C113.909 125.788 113.991 126.176 113.991 126.653V131H112.747V130.105H112.696C112.614 130.27 112.49 130.432 112.325 130.591C112.161 130.75 111.949 130.882 111.69 130.987C111.432 131.092 111.122 131.145 110.761 131.145ZM111.038 130.122C111.391 130.122 111.692 130.053 111.942 129.913C112.195 129.774 112.386 129.592 112.517 129.368C112.651 129.141 112.717 128.898 112.717 128.639V127.795C112.672 127.841 112.584 127.884 112.453 127.923C112.325 127.96 112.179 127.993 112.014 128.021C111.849 128.047 111.689 128.071 111.533 128.094C111.376 128.114 111.246 128.131 111.141 128.145C110.893 128.176 110.668 128.229 110.463 128.303C110.261 128.376 110.099 128.483 109.977 128.622C109.858 128.759 109.798 128.94 109.798 129.168C109.798 129.483 109.915 129.722 110.148 129.884C110.381 130.043 110.678 130.122 111.038 130.122ZM115.425 133.455V124.455H116.669V125.516H116.775C116.849 125.379 116.956 125.222 117.095 125.043C117.234 124.864 117.427 124.707 117.675 124.574C117.922 124.438 118.248 124.369 118.655 124.369C119.183 124.369 119.655 124.503 120.069 124.77C120.484 125.037 120.81 125.422 121.045 125.925C121.284 126.428 121.403 127.033 121.403 127.74C121.403 128.447 121.285 129.054 121.05 129.56C120.814 130.062 120.49 130.45 120.078 130.723C119.666 130.993 119.196 131.128 118.667 131.128C118.27 131.128 117.944 131.061 117.692 130.928C117.442 130.794 117.246 130.638 117.104 130.459C116.961 130.28 116.852 130.121 116.775 129.982H116.699V133.455H115.425ZM116.673 127.727C116.673 128.187 116.74 128.591 116.873 128.938C117.007 129.284 117.2 129.555 117.453 129.751C117.706 129.945 118.015 130.041 118.382 130.041C118.763 130.041 119.081 129.94 119.336 129.739C119.592 129.534 119.785 129.257 119.916 128.908C120.05 128.558 120.116 128.165 120.116 127.727C120.116 127.295 120.051 126.908 119.92 126.564C119.792 126.22 119.599 125.949 119.341 125.75C119.085 125.551 118.765 125.452 118.382 125.452C118.013 125.452 117.7 125.547 117.444 125.737C117.192 125.928 117 126.193 116.869 126.534C116.738 126.875 116.673 127.273 116.673 127.727ZM122.567 133.455V124.455H123.811V125.516H123.918C123.992 125.379 124.098 125.222 124.237 125.043C124.376 124.864 124.57 124.707 124.817 124.574C125.064 124.438 125.391 124.369 125.797 124.369C126.325 124.369 126.797 124.503 127.212 124.77C127.626 125.037 127.952 125.422 128.188 125.925C128.426 126.428 128.546 127.033 128.546 127.74C128.546 128.447 128.428 129.054 128.192 129.56C127.956 130.062 127.632 130.45 127.22 130.723C126.808 130.993 126.338 131.128 125.81 131.128C125.412 131.128 125.087 131.061 124.834 130.928C124.584 130.794 124.388 130.638 124.246 130.459C124.104 130.28 123.994 130.121 123.918 129.982H123.841V133.455H122.567ZM123.815 127.727C123.815 128.187 123.882 128.591 124.016 128.938C124.149 129.284 124.342 129.555 124.595 129.751C124.848 129.945 125.158 130.041 125.524 130.041C125.905 130.041 126.223 129.94 126.479 129.739C126.734 129.534 126.928 129.257 127.058 128.908C127.192 128.558 127.259 128.165 127.259 127.727C127.259 127.295 127.193 126.908 127.063 126.564C126.935 126.22 126.742 125.949 126.483 125.75C126.227 125.551 125.908 125.452 125.524 125.452C125.155 125.452 124.842 125.547 124.587 125.737C124.334 125.928 124.142 126.193 124.011 126.534C123.881 126.875 123.815 127.273 123.815 127.727ZM134.614 126.053L133.459 126.257C133.411 126.109 133.334 125.969 133.229 125.835C133.127 125.702 132.987 125.592 132.811 125.507C132.635 125.422 132.415 125.379 132.151 125.379C131.79 125.379 131.489 125.46 131.247 125.622C131.006 125.781 130.885 125.987 130.885 126.24C130.885 126.459 130.966 126.635 131.128 126.768C131.29 126.902 131.551 127.011 131.912 127.097L132.952 127.335C133.554 127.474 134.003 127.689 134.299 127.979C134.594 128.268 134.742 128.645 134.742 129.108C134.742 129.5 134.628 129.849 134.401 130.156C134.176 130.46 133.862 130.699 133.459 130.872C133.058 131.045 132.594 131.132 132.066 131.132C131.333 131.132 130.735 130.976 130.272 130.663C129.808 130.348 129.524 129.901 129.419 129.321L130.651 129.134C130.728 129.455 130.885 129.697 131.124 129.862C131.362 130.024 131.674 130.105 132.057 130.105C132.475 130.105 132.808 130.018 133.058 129.845C133.308 129.669 133.433 129.455 133.433 129.202C133.433 128.997 133.357 128.825 133.203 128.686C133.053 128.547 132.821 128.442 132.509 128.371L131.401 128.128C130.79 127.989 130.338 127.767 130.046 127.463C129.756 127.159 129.611 126.774 129.611 126.308C129.611 125.922 129.719 125.584 129.935 125.294C130.151 125.004 130.449 124.778 130.83 124.616C131.21 124.452 131.647 124.369 132.138 124.369C132.845 124.369 133.402 124.523 133.808 124.83C134.215 125.134 134.483 125.541 134.614 126.053ZM139.203 121.864L136.39 132.312H135.252L138.065 121.864H139.203ZM110.131 137.273V146H108.857V137.273H110.131ZM111.581 146V139.455H112.855V146H111.581ZM112.224 138.445C112.003 138.445 111.812 138.371 111.653 138.223C111.497 138.072 111.419 137.893 111.419 137.686C111.419 137.476 111.497 137.297 111.653 137.149C111.812 136.999 112.003 136.923 112.224 136.923C112.446 136.923 112.635 136.999 112.791 137.149C112.95 137.297 113.03 137.476 113.03 137.686C113.03 137.893 112.95 138.072 112.791 138.223C112.635 138.371 112.446 138.445 112.224 138.445ZM114.407 146V137.273H115.682V140.516H115.758C115.832 140.379 115.939 140.222 116.078 140.043C116.217 139.864 116.41 139.707 116.657 139.574C116.905 139.438 117.231 139.369 117.637 139.369C118.166 139.369 118.637 139.503 119.052 139.77C119.467 140.037 119.792 140.422 120.028 140.925C120.267 141.428 120.386 142.033 120.386 142.74C120.386 143.447 120.268 144.054 120.032 144.56C119.797 145.062 119.473 145.45 119.061 145.723C118.649 145.993 118.179 146.128 117.65 146.128C117.253 146.128 116.927 146.061 116.674 145.928C116.424 145.794 116.228 145.638 116.086 145.459C115.944 145.28 115.835 145.121 115.758 144.982H115.652V146H114.407ZM115.656 142.727C115.656 143.187 115.723 143.591 115.856 143.938C115.99 144.284 116.183 144.555 116.436 144.751C116.689 144.945 116.998 145.041 117.365 145.041C117.745 145.041 118.064 144.94 118.319 144.739C118.575 144.534 118.768 144.257 118.899 143.908C119.032 143.558 119.099 143.165 119.099 142.727C119.099 142.295 119.034 141.908 118.903 141.564C118.775 141.22 118.582 140.949 118.324 140.75C118.068 140.551 117.748 140.452 117.365 140.452C116.995 140.452 116.683 140.547 116.427 140.737C116.174 140.928 115.983 141.193 115.852 141.534C115.721 141.875 115.656 142.273 115.656 142.727ZM126.458 141.053L125.303 141.257C125.255 141.109 125.178 140.969 125.073 140.835C124.97 140.702 124.831 140.592 124.655 140.507C124.479 140.422 124.259 140.379 123.995 140.379C123.634 140.379 123.333 140.46 123.091 140.622C122.85 140.781 122.729 140.987 122.729 141.24C122.729 141.459 122.81 141.635 122.972 141.768C123.134 141.902 123.395 142.011 123.756 142.097L124.796 142.335C125.398 142.474 125.847 142.689 126.142 142.979C126.438 143.268 126.585 143.645 126.585 144.108C126.585 144.5 126.472 144.849 126.245 145.156C126.02 145.46 125.706 145.699 125.303 145.872C124.902 146.045 124.438 146.132 123.909 146.132C123.176 146.132 122.578 145.976 122.115 145.663C121.652 145.348 121.368 144.901 121.263 144.321L122.495 144.134C122.571 144.455 122.729 144.697 122.968 144.862C123.206 145.024 123.517 145.105 123.901 145.105C124.318 145.105 124.652 145.018 124.902 144.845C125.152 144.669 125.277 144.455 125.277 144.202C125.277 143.997 125.201 143.825 125.047 143.686C124.897 143.547 124.665 143.442 124.353 143.371L123.245 143.128C122.634 142.989 122.182 142.767 121.889 142.463C121.6 142.159 121.455 141.774 121.455 141.308C121.455 140.922 121.563 140.584 121.779 140.294C121.995 140.004 122.293 139.778 122.674 139.616C123.054 139.452 123.49 139.369 123.982 139.369C124.689 139.369 125.246 139.523 125.652 139.83C126.058 140.134 126.327 140.541 126.458 141.053ZM131.046 136.864L128.234 147.312H127.096L129.908 136.864H131.046ZM111.912 154.455V155.477H108.337V154.455H111.912ZM109.295 152.886H110.57V159.078C110.57 159.325 110.607 159.511 110.68 159.636C110.754 159.759 110.849 159.842 110.966 159.888C111.085 159.93 111.214 159.952 111.354 159.952C111.456 159.952 111.545 159.945 111.622 159.93C111.699 159.916 111.759 159.905 111.801 159.896L112.031 160.949C111.957 160.977 111.852 161.006 111.716 161.034C111.58 161.065 111.409 161.082 111.205 161.085C110.869 161.091 110.557 161.031 110.267 160.906C109.977 160.781 109.743 160.588 109.564 160.327C109.385 160.065 109.295 159.737 109.295 159.342V152.886ZM115.744 161.132C115.131 161.132 114.595 160.991 114.138 160.71C113.68 160.429 113.325 160.036 113.072 159.53C112.819 159.024 112.693 158.433 112.693 157.757C112.693 157.078 112.819 156.484 113.072 155.976C113.325 155.467 113.68 155.072 114.138 154.791C114.595 154.51 115.131 154.369 115.744 154.369C116.358 154.369 116.893 154.51 117.351 154.791C117.808 155.072 118.163 155.467 118.416 155.976C118.669 156.484 118.795 157.078 118.795 157.757C118.795 158.433 118.669 159.024 118.416 159.53C118.163 160.036 117.808 160.429 117.351 160.71C116.893 160.991 116.358 161.132 115.744 161.132ZM115.748 160.062C116.146 160.062 116.476 159.957 116.737 159.747C116.998 159.537 117.192 159.257 117.317 158.908C117.444 158.558 117.508 158.173 117.508 157.753C117.508 157.335 117.444 156.952 117.317 156.602C117.192 156.25 116.998 155.967 116.737 155.754C116.476 155.541 116.146 155.435 115.748 155.435C115.348 155.435 115.015 155.541 114.751 155.754C114.49 155.967 114.295 156.25 114.167 156.602C114.042 156.952 113.98 157.335 113.98 157.753C113.98 158.173 114.042 158.558 114.167 158.908C114.295 159.257 114.49 159.537 114.751 159.747C115.015 159.957 115.348 160.062 115.748 160.062ZM122.711 161.132C122.097 161.132 121.561 160.991 121.104 160.71C120.647 160.429 120.292 160.036 120.039 159.53C119.786 159.024 119.66 158.433 119.66 157.757C119.66 157.078 119.786 156.484 120.039 155.976C120.292 155.467 120.647 155.072 121.104 154.791C121.561 154.51 122.097 154.369 122.711 154.369C123.324 154.369 123.86 154.51 124.317 154.791C124.775 155.072 125.13 155.467 125.383 155.976C125.635 156.484 125.762 157.078 125.762 157.757C125.762 158.433 125.635 159.024 125.383 159.53C125.13 160.036 124.775 160.429 124.317 160.71C123.86 160.991 123.324 161.132 122.711 161.132ZM122.715 160.062C123.113 160.062 123.442 159.957 123.704 159.747C123.965 159.537 124.158 159.257 124.283 158.908C124.411 158.558 124.475 158.173 124.475 157.753C124.475 157.335 124.411 156.952 124.283 156.602C124.158 156.25 123.965 155.967 123.704 155.754C123.442 155.541 123.113 155.435 122.715 155.435C122.314 155.435 121.982 155.541 121.718 155.754C121.456 155.967 121.262 156.25 121.134 156.602C121.009 156.952 120.946 157.335 120.946 157.753C120.946 158.173 121.009 158.558 121.134 158.908C121.262 159.257 121.456 159.537 121.718 159.747C121.982 159.957 122.314 160.062 122.715 160.062ZM128.194 152.273V161H126.92V152.273H128.194ZM134.549 156.053L133.394 156.257C133.346 156.109 133.269 155.969 133.164 155.835C133.062 155.702 132.923 155.592 132.747 155.507C132.57 155.422 132.35 155.379 132.086 155.379C131.725 155.379 131.424 155.46 131.183 155.622C130.941 155.781 130.82 155.987 130.82 156.24C130.82 156.459 130.901 156.635 131.063 156.768C131.225 156.902 131.487 157.011 131.847 157.097L132.887 157.335C133.489 157.474 133.938 157.689 134.234 157.979C134.529 158.268 134.677 158.645 134.677 159.108C134.677 159.5 134.563 159.849 134.336 160.156C134.112 160.46 133.798 160.699 133.394 160.872C132.994 161.045 132.529 161.132 132.001 161.132C131.268 161.132 130.67 160.976 130.207 160.663C129.744 160.348 129.46 159.901 129.355 159.321L130.586 159.134C130.663 159.455 130.82 159.697 131.059 159.862C131.298 160.024 131.609 160.105 131.992 160.105C132.41 160.105 132.744 160.018 132.994 159.845C133.244 159.669 133.369 159.455 133.369 159.202C133.369 158.997 133.292 158.825 133.139 158.686C132.988 158.547 132.757 158.442 132.444 158.371L131.336 158.128C130.725 157.989 130.274 157.767 129.981 157.463C129.691 157.159 129.546 156.774 129.546 156.308C129.546 155.922 129.654 155.584 129.87 155.294C130.086 155.004 130.384 154.778 130.765 154.616C131.146 154.452 131.582 154.369 132.073 154.369C132.781 154.369 133.337 154.523 133.744 154.83C134.15 155.134 134.418 155.541 134.549 156.053ZM139.138 151.864L136.325 162.312H135.187L138 151.864H139.138Z" fill="#94A3B8"/>
<rect x="60" y="257" width="128" height="125" rx="4" stroke="#94A3B8" stroke-linecap="round"/>
<path d="M82.4417 277.148H80.669C80.6008 276.769 80.4739 276.436 80.2883 276.148C80.1027 275.86 79.8754 275.616 79.6065 275.415C79.3375 275.214 79.0364 275.062 78.703 274.96C78.3735 274.858 78.0231 274.807 77.6519 274.807C76.9815 274.807 76.3811 274.975 75.8508 275.312C75.3243 275.65 74.9076 276.144 74.6008 276.795C74.2977 277.447 74.1462 278.242 74.1462 279.182C74.1462 280.129 74.2977 280.928 74.6008 281.58C74.9076 282.231 75.3262 282.723 75.8565 283.057C76.3868 283.39 76.9833 283.557 77.6462 283.557C78.0137 283.557 78.3621 283.508 78.6917 283.409C79.025 283.307 79.3262 283.157 79.5951 282.96C79.864 282.763 80.0913 282.523 80.2769 282.239C80.4663 281.951 80.597 281.621 80.669 281.25L82.4417 281.256C82.347 281.828 82.1633 282.354 81.8905 282.835C81.6216 283.312 81.275 283.725 80.8508 284.074C80.4303 284.419 79.9493 284.686 79.4076 284.875C78.8659 285.064 78.275 285.159 77.6349 285.159C76.6273 285.159 75.7296 284.92 74.9417 284.443C74.1538 283.962 73.5326 283.275 73.078 282.381C72.6273 281.487 72.4019 280.42 72.4019 279.182C72.4019 277.939 72.6292 276.873 73.0837 275.983C73.5383 275.089 74.1595 274.403 74.9474 273.926C75.7352 273.445 76.6311 273.205 77.6349 273.205C78.2523 273.205 78.828 273.294 79.3621 273.472C79.9 273.646 80.383 273.903 80.811 274.244C81.239 274.581 81.5932 274.994 81.8735 275.483C82.1538 275.968 82.3432 276.523 82.4417 277.148ZM86.5939 285.193C86.0409 285.193 85.5409 285.091 85.0939 284.886C84.647 284.678 84.2928 284.377 84.0314 283.983C83.7739 283.589 83.6451 283.106 83.6451 282.534C83.6451 282.042 83.7398 281.636 83.9292 281.318C84.1186 281 84.3742 280.748 84.6962 280.562C85.0182 280.377 85.378 280.237 85.7758 280.142C86.1735 280.047 86.5788 279.975 86.9917 279.926C87.5144 279.866 87.9386 279.816 88.2644 279.778C88.5902 279.737 88.8269 279.67 88.9746 279.58C89.1224 279.489 89.1962 279.341 89.1962 279.136V279.097C89.1962 278.6 89.0561 278.216 88.7758 277.943C88.4992 277.67 88.0864 277.534 87.5371 277.534C86.9652 277.534 86.5144 277.661 86.1849 277.915C85.8591 278.165 85.6337 278.443 85.5087 278.75L83.9121 278.386C84.1015 277.856 84.378 277.428 84.7417 277.102C85.1091 276.773 85.5314 276.534 86.0087 276.386C86.486 276.235 86.9879 276.159 87.5144 276.159C87.8629 276.159 88.2322 276.201 88.6224 276.284C89.0163 276.364 89.3837 276.511 89.7246 276.727C90.0693 276.943 90.3515 277.252 90.5712 277.653C90.7909 278.051 90.9008 278.568 90.9008 279.205V285H89.2417V283.807H89.1735C89.0636 284.027 88.8989 284.242 88.6792 284.455C88.4595 284.667 88.1773 284.843 87.8326 284.983C87.4879 285.123 87.075 285.193 86.5939 285.193ZM86.9633 283.83C87.433 283.83 87.8345 283.737 88.1678 283.551C88.5049 283.366 88.7606 283.123 88.9349 282.824C89.1129 282.521 89.2019 282.197 89.2019 281.852V280.727C89.1413 280.788 89.0239 280.845 88.8496 280.898C88.6792 280.947 88.4841 280.991 88.2644 281.028C88.0447 281.062 87.8307 281.095 87.6224 281.125C87.414 281.152 87.2398 281.174 87.0996 281.193C86.7701 281.235 86.4689 281.305 86.1962 281.403C85.9273 281.502 85.7114 281.644 85.5485 281.83C85.3894 282.011 85.3099 282.254 85.3099 282.557C85.3099 282.977 85.4652 283.295 85.7758 283.511C86.0864 283.723 86.4822 283.83 86.9633 283.83ZM96.4877 285.176C95.643 285.176 94.9157 284.985 94.3059 284.602C93.6998 284.216 93.2339 283.684 92.9081 283.006C92.5824 282.328 92.4195 281.551 92.4195 280.676C92.4195 279.79 92.5862 279.008 92.9195 278.33C93.2528 277.648 93.7225 277.116 94.3286 276.733C94.9347 276.35 95.6487 276.159 96.4706 276.159C97.1335 276.159 97.7244 276.282 98.2434 276.528C98.7623 276.771 99.1809 277.112 99.499 277.551C99.821 277.991 100.012 278.504 100.073 279.091H98.4195C98.3286 278.682 98.1203 278.33 97.7945 278.034C97.4725 277.739 97.0407 277.591 96.499 277.591C96.0256 277.591 95.6108 277.716 95.2547 277.966C94.9025 278.212 94.6278 278.564 94.4309 279.023C94.2339 279.477 94.1354 280.015 94.1354 280.636C94.1354 281.273 94.232 281.822 94.4252 282.284C94.6184 282.746 94.8911 283.104 95.2434 283.358C95.5994 283.612 96.018 283.739 96.499 283.739C96.821 283.739 97.1127 283.68 97.374 283.562C97.6392 283.441 97.8608 283.269 98.0388 283.045C98.2206 282.822 98.3475 282.553 98.4195 282.239H100.073C100.012 282.803 99.8286 283.307 99.5218 283.75C99.215 284.193 98.804 284.542 98.2888 284.795C97.7775 285.049 97.1771 285.176 96.4877 285.176ZM103.237 279.818V285H101.538V273.364H103.214V277.693H103.322C103.526 277.223 103.839 276.85 104.259 276.574C104.68 276.297 105.229 276.159 105.907 276.159C106.505 276.159 107.028 276.282 107.475 276.528C107.926 276.775 108.274 277.142 108.521 277.631C108.771 278.116 108.896 278.722 108.896 279.449V285H107.197V279.653C107.197 279.013 107.032 278.517 106.702 278.165C106.373 277.809 105.915 277.631 105.327 277.631C104.926 277.631 104.566 277.716 104.248 277.886C103.934 278.057 103.685 278.307 103.504 278.636C103.326 278.962 103.237 279.356 103.237 279.818ZM114.572 285.176C113.712 285.176 112.972 284.992 112.35 284.625C111.733 284.254 111.256 283.733 110.919 283.062C110.585 282.388 110.419 281.598 110.419 280.693C110.419 279.799 110.585 279.011 110.919 278.33C111.256 277.648 111.725 277.116 112.328 276.733C112.934 276.35 113.642 276.159 114.453 276.159C114.945 276.159 115.422 276.241 115.885 276.403C116.347 276.566 116.761 276.822 117.129 277.17C117.496 277.519 117.786 277.972 117.998 278.528C118.21 279.081 118.316 279.754 118.316 280.545V281.148H111.379V279.875H116.652C116.652 279.428 116.561 279.032 116.379 278.688C116.197 278.339 115.941 278.064 115.612 277.864C115.286 277.663 114.903 277.562 114.464 277.562C113.987 277.562 113.57 277.68 113.214 277.915C112.862 278.146 112.589 278.449 112.396 278.824C112.207 279.195 112.112 279.598 112.112 280.034V281.028C112.112 281.612 112.214 282.108 112.419 282.517C112.627 282.926 112.917 283.239 113.288 283.455C113.659 283.667 114.093 283.773 114.589 283.773C114.911 283.773 115.205 283.727 115.47 283.636C115.735 283.542 115.964 283.402 116.157 283.216C116.35 283.03 116.498 282.801 116.6 282.528L118.208 282.818C118.08 283.292 117.849 283.706 117.515 284.062C117.186 284.415 116.771 284.689 116.271 284.886C115.775 285.08 115.208 285.176 114.572 285.176ZM123.116 285.17C122.412 285.17 121.783 284.991 121.23 284.631C120.681 284.267 120.249 283.75 119.935 283.08C119.624 282.405 119.469 281.597 119.469 280.653C119.469 279.71 119.626 278.903 119.94 278.233C120.258 277.562 120.694 277.049 121.247 276.693C121.8 276.337 122.427 276.159 123.128 276.159C123.669 276.159 124.105 276.25 124.435 276.432C124.768 276.61 125.025 276.818 125.207 277.057C125.393 277.295 125.537 277.506 125.639 277.688H125.741V273.364H127.44V285H125.781V283.642H125.639C125.537 283.828 125.389 284.04 125.196 284.278C125.006 284.517 124.745 284.725 124.412 284.903C124.078 285.081 123.647 285.17 123.116 285.17ZM123.491 283.722C123.98 283.722 124.393 283.593 124.73 283.335C125.071 283.074 125.328 282.712 125.503 282.25C125.681 281.788 125.77 281.25 125.77 280.636C125.77 280.03 125.683 279.5 125.508 279.045C125.334 278.591 125.078 278.237 124.741 277.983C124.404 277.729 123.988 277.602 123.491 277.602C122.98 277.602 122.554 277.735 122.213 278C121.872 278.265 121.614 278.627 121.44 279.085C121.27 279.544 121.185 280.061 121.185 280.636C121.185 281.22 121.272 281.744 121.446 282.21C121.62 282.676 121.878 283.045 122.219 283.318C122.563 283.587 122.988 283.722 123.491 283.722ZM141.407 277.04C141.297 276.695 141.149 276.386 140.963 276.114C140.782 275.837 140.564 275.602 140.31 275.409C140.056 275.212 139.767 275.062 139.441 274.96C139.119 274.858 138.765 274.807 138.378 274.807C137.723 274.807 137.132 274.975 136.606 275.312C136.079 275.65 135.662 276.144 135.356 276.795C135.052 277.443 134.901 278.237 134.901 279.176C134.901 280.119 135.054 280.917 135.361 281.568C135.668 282.22 136.088 282.714 136.623 283.051C137.157 283.388 137.765 283.557 138.446 283.557C139.079 283.557 139.63 283.428 140.1 283.17C140.573 282.913 140.939 282.549 141.196 282.08C141.458 281.606 141.588 281.049 141.588 280.409L142.043 280.494H138.713V279.045H143.287V280.369C143.287 281.347 143.079 282.195 142.662 282.915C142.249 283.631 141.677 284.184 140.946 284.574C140.219 284.964 139.386 285.159 138.446 285.159C137.393 285.159 136.469 284.917 135.674 284.432C134.882 283.947 134.265 283.259 133.821 282.369C133.378 281.475 133.157 280.415 133.157 279.188C133.157 278.259 133.285 277.426 133.543 276.688C133.801 275.949 134.162 275.322 134.628 274.807C135.098 274.288 135.649 273.892 136.282 273.619C136.918 273.343 137.613 273.205 138.367 273.205C138.996 273.205 139.581 273.297 140.123 273.483C140.668 273.669 141.153 273.932 141.577 274.273C142.005 274.614 142.359 275.019 142.64 275.489C142.92 275.955 143.109 276.472 143.208 277.04H141.407ZM145.028 285V276.273H146.67V277.659H146.761C146.92 277.189 147.2 276.82 147.602 276.551C148.007 276.278 148.465 276.142 148.977 276.142C149.083 276.142 149.208 276.146 149.352 276.153C149.499 276.161 149.615 276.17 149.698 276.182V277.807C149.63 277.788 149.509 277.767 149.334 277.744C149.16 277.718 148.986 277.705 148.812 277.705C148.41 277.705 148.052 277.79 147.738 277.96C147.427 278.127 147.181 278.36 146.999 278.659C146.817 278.955 146.727 279.292 146.727 279.67V285H145.028ZM153.278 285.193C152.725 285.193 152.225 285.091 151.778 284.886C151.331 284.678 150.977 284.377 150.715 283.983C150.458 283.589 150.329 283.106 150.329 282.534C150.329 282.042 150.424 281.636 150.613 281.318C150.803 281 151.058 280.748 151.38 280.562C151.702 280.377 152.062 280.237 152.46 280.142C152.857 280.047 153.263 279.975 153.676 279.926C154.198 279.866 154.623 279.816 154.948 279.778C155.274 279.737 155.511 279.67 155.659 279.58C155.806 279.489 155.88 279.341 155.88 279.136V279.097C155.88 278.6 155.74 278.216 155.46 277.943C155.183 277.67 154.77 277.534 154.221 277.534C153.649 277.534 153.198 277.661 152.869 277.915C152.543 278.165 152.318 278.443 152.193 278.75L150.596 278.386C150.786 277.856 151.062 277.428 151.426 277.102C151.793 276.773 152.215 276.534 152.693 276.386C153.17 276.235 153.672 276.159 154.198 276.159C154.547 276.159 154.916 276.201 155.306 276.284C155.7 276.364 156.068 276.511 156.409 276.727C156.753 276.943 157.036 277.252 157.255 277.653C157.475 278.051 157.585 278.568 157.585 279.205V285H155.926V283.807H155.857C155.748 284.027 155.583 284.242 155.363 284.455C155.143 284.667 154.861 284.843 154.517 284.983C154.172 285.123 153.759 285.193 153.278 285.193ZM153.647 283.83C154.117 283.83 154.518 283.737 154.852 283.551C155.189 283.366 155.445 283.123 155.619 282.824C155.797 282.521 155.886 282.197 155.886 281.852V280.727C155.825 280.788 155.708 280.845 155.534 280.898C155.363 280.947 155.168 280.991 154.948 281.028C154.729 281.062 154.515 281.095 154.306 281.125C154.098 281.152 153.924 281.174 153.784 281.193C153.454 281.235 153.153 281.305 152.88 281.403C152.611 281.502 152.395 281.644 152.232 281.83C152.073 282.011 151.994 282.254 151.994 282.557C151.994 282.977 152.149 283.295 152.46 283.511C152.77 283.723 153.166 283.83 153.647 283.83ZM159.496 288.273V276.273H161.155V277.688H161.297C161.395 277.506 161.537 277.295 161.723 277.057C161.908 276.818 162.166 276.61 162.496 276.432C162.825 276.25 163.261 276.159 163.802 276.159C164.507 276.159 165.136 276.337 165.689 276.693C166.242 277.049 166.675 277.562 166.99 278.233C167.308 278.903 167.467 279.71 167.467 280.653C167.467 281.597 167.31 282.405 166.996 283.08C166.681 283.75 166.249 284.267 165.7 284.631C165.151 284.991 164.524 285.17 163.819 285.17C163.289 285.17 162.855 285.081 162.518 284.903C162.185 284.725 161.924 284.517 161.734 284.278C161.545 284.04 161.399 283.828 161.297 283.642H161.194V288.273H159.496ZM161.16 280.636C161.16 281.25 161.249 281.788 161.427 282.25C161.605 282.712 161.863 283.074 162.2 283.335C162.537 283.593 162.95 283.722 163.439 283.722C163.946 283.722 164.371 283.587 164.711 283.318C165.052 283.045 165.31 282.676 165.484 282.21C165.662 281.744 165.751 281.22 165.751 280.636C165.751 280.061 165.664 279.544 165.49 279.085C165.319 278.627 165.062 278.265 164.717 278C164.376 277.735 163.95 277.602 163.439 277.602C162.946 277.602 162.53 277.729 162.189 277.983C161.852 278.237 161.596 278.591 161.422 279.045C161.247 279.5 161.16 280.03 161.16 280.636ZM170.717 279.818V285H169.019V273.364H170.695V277.693H170.803C171.007 277.223 171.32 276.85 171.74 276.574C172.161 276.297 172.71 276.159 173.388 276.159C173.986 276.159 174.509 276.282 174.956 276.528C175.407 276.775 175.755 277.142 176.001 277.631C176.251 278.116 176.376 278.722 176.376 279.449V285H174.678V279.653C174.678 279.013 174.513 278.517 174.183 278.165C173.854 277.809 173.395 277.631 172.808 277.631C172.407 277.631 172.047 277.716 171.729 277.886C171.414 278.057 171.166 278.307 170.984 278.636C170.806 278.962 170.717 279.356 170.717 279.818Z" fill="#94A3B8"/>
<rect x="77" y="313.432" width="29.9091" height="17.0909" rx="4" stroke="#94A3B8" stroke-linecap="round"/>
<rect x="141.091" y="313.432" width="29.9091" height="17.0909" rx="4" stroke="#94A3B8" stroke-linecap="round"/>
<rect x="111.182" y="347.614" width="29.9091" height="23.5" rx="4" stroke="#94A3B8" stroke-linecap="round"/>
<path d="M92.4548 334.522C92.4548 334.246 92.231 334.022 91.9548 334.022C91.6787 334.022 91.4548 334.246 91.4548 334.522H92.4548ZM107.536 359.718C107.731 359.522 107.731 359.206 107.536 359.011L104.354 355.829C104.158 355.633 103.842 355.633 103.647 355.829C103.451 356.024 103.451 356.34 103.647 356.536L106.475 359.364L103.647 362.193C103.451 362.388 103.451 362.704 103.647 362.9C103.842 363.095 104.158 363.095 104.354 362.9L107.536 359.718ZM91.4548 334.522V349.364H92.4548V334.522H91.4548ZM101.955 359.864H107.182V358.864H101.955V359.864ZM91.4548 349.364C91.4548 355.163 96.1558 359.864 101.955 359.864V358.864C96.7081 358.864 92.4548 354.611 92.4548 349.364H91.4548Z" fill="#94A3B8"/>
<path d="M156.545 334.522C156.545 334.246 156.321 334.022 156.045 334.022C155.769 334.022 155.545 334.246 155.545 334.522H156.545ZM144.737 359.011C144.542 359.206 144.542 359.522 144.737 359.718L147.919 362.9C148.115 363.095 148.431 363.095 148.626 362.9C148.822 362.704 148.822 362.388 148.626 362.193L145.798 359.364L148.626 356.536C148.822 356.34 148.822 356.024 148.626 355.829C148.431 355.633 148.115 355.633 147.919 355.829L144.737 359.011ZM155.545 334.522V349.364H156.545V334.522H155.545ZM146.045 358.864H145.091V359.864H146.045V358.864ZM155.545 349.364C155.545 354.611 151.292 358.864 146.045 358.864V359.864C151.844 359.864 156.545 355.163 156.545 349.364H155.545Z" fill="#94A3B8"/>
</svg>
