<svg width="103" height="62" viewBox="0 0 103 62" fill="none" xmlns="http://www.w3.org/2000/svg">
<rect x="18" y="12" width="67.2" height="38.4" rx="8" fill="#94A3B8"/>
<path d="M34.6433 26.2727V35H33.3692V26.2727H34.6433ZM36.0934 35V28.4545H37.3676V35H36.0934ZM36.7369 27.4446C36.5153 27.4446 36.325 27.3707 36.1659 27.223C36.0096 27.0724 35.9315 26.8935 35.9315 26.6861C35.9315 26.4759 36.0096 26.2969 36.1659 26.1491C36.325 25.9986 36.5153 25.9233 36.7369 25.9233C36.9585 25.9233 37.1474 25.9986 37.3037 26.1491C37.4628 26.2969 37.5423 26.4759 37.5423 26.6861C37.5423 26.8935 37.4628 27.0724 37.3037 27.223C37.1474 27.3707 36.9585 27.4446 36.7369 27.4446ZM38.92 35V26.2727H40.1941V29.5156H40.2708C40.3447 29.3793 40.4512 29.2216 40.5904 29.0426C40.7297 28.8636 40.9228 28.7074 41.17 28.5739C41.4172 28.4375 41.7439 28.3693 42.1501 28.3693C42.6785 28.3693 43.1501 28.5028 43.5649 28.7699C43.9797 29.0369 44.3049 29.4219 44.5407 29.9247C44.7794 30.4276 44.8987 31.0327 44.8987 31.7401C44.8987 32.4474 44.7808 33.054 44.545 33.5597C44.3092 34.0625 43.9853 34.4503 43.5734 34.723C43.1615 34.9929 42.6913 35.1278 42.1629 35.1278C41.7652 35.1278 41.4399 35.0611 41.187 34.9276C40.937 34.794 40.741 34.6378 40.599 34.4588C40.4569 34.2798 40.3475 34.1207 40.2708 33.9815H40.1643V35H38.92ZM40.1686 31.7273C40.1686 32.1875 40.2353 32.5909 40.3689 32.9375C40.5024 33.2841 40.6956 33.5554 40.9484 33.7514C41.2012 33.9446 41.5109 34.0412 41.8774 34.0412C42.2581 34.0412 42.5762 33.9403 42.8319 33.7386C43.0876 33.5341 43.2808 33.2571 43.4115 32.9077C43.545 32.5582 43.6118 32.1648 43.6118 31.7273C43.6118 31.2955 43.5464 30.9077 43.4157 30.5639C43.2879 30.2202 43.0947 29.9489 42.8362 29.75C42.5805 29.5511 42.2609 29.4517 41.8774 29.4517C41.5081 29.4517 41.1956 29.5469 40.9399 29.7372C40.687 29.9276 40.4953 30.1932 40.3646 30.5341C40.2339 30.875 40.1686 31.2727 40.1686 31.7273ZM46.9049 35.081C46.672 35.081 46.4717 34.9986 46.3041 34.8338C46.1365 34.6662 46.0527 34.4645 46.0527 34.2287C46.0527 33.9957 46.1365 33.7969 46.3041 33.6321C46.4717 33.4645 46.672 33.3807 46.9049 33.3807C47.1379 33.3807 47.3382 33.4645 47.5058 33.6321C47.6734 33.7969 47.7572 33.9957 47.7572 34.2287C47.7572 34.3849 47.7174 34.5284 47.6379 34.6591C47.5612 34.7869 47.4589 34.8892 47.3311 34.9659C47.2032 35.0426 47.0612 35.081 46.9049 35.081ZM46.9049 30.3168C46.672 30.3168 46.4717 30.233 46.3041 30.0653C46.1365 29.8977 46.0527 29.6974 46.0527 29.4645C46.0527 29.2315 46.1365 29.0327 46.3041 28.8679C46.4717 28.7003 46.672 28.6165 46.9049 28.6165C47.1379 28.6165 47.3382 28.7003 47.5058 28.8679C47.6734 29.0327 47.7572 29.2315 47.7572 29.4645C47.7572 29.6207 47.7174 29.7642 47.6379 29.8949C47.5612 30.0227 47.4589 30.125 47.3311 30.2017C47.2032 30.2784 47.0612 30.3168 46.9049 30.3168ZM52.2553 28.4545V29.4773H48.68V28.4545H52.2553ZM49.6388 26.8864H50.9129V33.0781C50.9129 33.3253 50.9499 33.5114 51.0237 33.6364C51.0976 33.7585 51.1928 33.8423 51.3093 33.8878C51.4286 33.9304 51.5578 33.9517 51.697 33.9517C51.7993 33.9517 51.8888 33.9446 51.9655 33.9304C52.0422 33.9162 52.1019 33.9048 52.1445 33.8963L52.3746 34.9489C52.3007 34.9773 52.1956 35.0057 52.0593 35.0341C51.9229 35.0653 51.7524 35.0824 51.5479 35.0852C51.2127 35.0909 50.9002 35.0312 50.6104 34.9062C50.3206 34.7812 50.0862 34.5881 49.9073 34.3267C49.7283 34.0653 49.6388 33.7372 49.6388 33.3423V26.8864ZM56.1514 35.1321C55.5065 35.1321 54.9511 34.9943 54.4852 34.7188C54.0222 34.4403 53.6642 34.0497 53.4114 33.5469C53.1614 33.0412 53.0364 32.4489 53.0364 31.7699C53.0364 31.0994 53.1614 30.5085 53.4114 29.9972C53.6642 29.4858 54.0165 29.0866 54.4682 28.7997C54.9227 28.5128 55.454 28.3693 56.0619 28.3693C56.4313 28.3693 56.7892 28.4304 57.1358 28.5526C57.4824 28.6747 57.7935 28.8665 58.069 29.1278C58.3446 29.3892 58.5619 29.7287 58.721 30.1463C58.8801 30.5611 58.9597 31.0653 58.9597 31.6591V32.1108H53.7565V31.1562H57.7111C57.7111 30.821 57.6429 30.5241 57.5065 30.2656C57.3702 30.0043 57.1784 29.7983 56.9313 29.6477C56.6869 29.4972 56.4 29.4219 56.0705 29.4219C55.7125 29.4219 55.4 29.5099 55.133 29.6861C54.8688 29.8594 54.6642 30.0866 54.5193 30.3679C54.3773 30.6463 54.3063 30.9489 54.3063 31.2756V32.0213C54.3063 32.4588 54.383 32.831 54.5364 33.1378C54.6926 33.4446 54.91 33.679 55.1884 33.8409C55.4668 34 55.7921 34.0795 56.1642 34.0795C56.4057 34.0795 56.6259 34.0455 56.8247 33.9773C57.0236 33.9062 57.1955 33.8011 57.3404 33.6619C57.4852 33.5227 57.596 33.3509 57.6727 33.1463L58.8787 33.3636C58.7821 33.7187 58.6088 34.0298 58.3588 34.2969C58.1117 34.5611 57.8006 34.767 57.4256 34.9148C57.0534 35.0597 56.6287 35.1321 56.1514 35.1321ZM65.0142 30.0526L63.8594 30.2571C63.8111 30.1094 63.7344 29.9687 63.6293 29.8352C63.527 29.7017 63.3878 29.5923 63.2116 29.5071C63.0355 29.4219 62.8153 29.3793 62.5511 29.3793C62.1903 29.3793 61.8892 29.4602 61.6477 29.6222C61.4063 29.7812 61.2855 29.9872 61.2855 30.2401C61.2855 30.4588 61.3665 30.6349 61.5284 30.7685C61.6903 30.902 61.9517 31.0114 62.3125 31.0966L63.3523 31.3352C63.9545 31.4744 64.4034 31.6889 64.6989 31.9787C64.9943 32.2685 65.142 32.6449 65.142 33.108C65.142 33.5 65.0284 33.8494 64.8011 34.1562C64.5767 34.4602 64.2628 34.6989 63.8594 34.8722C63.4588 35.0455 62.9943 35.1321 62.4659 35.1321C61.733 35.1321 61.1349 34.9759 60.6719 34.6634C60.2088 34.348 59.9247 33.9006 59.8196 33.321L61.0511 33.1335C61.1278 33.4545 61.2855 33.6974 61.5241 33.8622C61.7628 34.0241 62.0739 34.1051 62.4574 34.1051C62.875 34.1051 63.2088 34.0185 63.4588 33.8452C63.7088 33.669 63.8338 33.4545 63.8338 33.2017C63.8338 32.9972 63.7571 32.8253 63.6037 32.6861C63.4531 32.5469 63.2216 32.4418 62.9091 32.3707L61.8011 32.1278C61.1903 31.9886 60.7386 31.767 60.446 31.4631C60.1563 31.1591 60.0114 30.7741 60.0114 30.3082C60.0114 29.9219 60.1193 29.5838 60.3352 29.294C60.5511 29.0043 60.8494 28.7784 61.2301 28.6165C61.6108 28.4517 62.0469 28.3693 62.5384 28.3693C63.2457 28.3693 63.8026 28.5227 64.2088 28.8295C64.6151 29.1335 64.8835 29.5412 65.0142 30.0526ZM69.3344 28.4545V29.4773H65.7591V28.4545H69.3344ZM66.7179 26.8864H67.992V33.0781C67.992 33.3253 68.029 33.5114 68.1028 33.6364C68.1767 33.7585 68.2719 33.8423 68.3883 33.8878C68.5077 33.9304 68.6369 33.9517 68.7761 33.9517C68.8784 33.9517 68.9679 33.9446 69.0446 33.9304C69.1213 33.9162 69.181 33.9048 69.2236 33.8963L69.4537 34.9489C69.3798 34.9773 69.2747 35.0057 69.1383 35.0341C69.002 35.0653 68.8315 35.0824 68.627 35.0852C68.2918 35.0909 67.9793 35.0312 67.6895 34.9062C67.3997 34.7812 67.1653 34.5881 66.9864 34.3267C66.8074 34.0653 66.7179 33.7372 66.7179 33.3423V26.8864Z" fill="white"/>
</svg>
