<svg width="730" height="260" viewBox="0 0 730 260" fill="none" xmlns="http://www.w3.org/2000/svg">
<rect x="53" y="89" width="67.2" height="38.4" rx="8" fill="#6366F1"/>
<rect x="225.8" y="89" width="67.2" height="38.4" rx="8" fill="#6366F1"/>
<rect x="135" y="161" width="67.2" height="38.4" rx="8" fill="#6366F1"/>
<path d="M87.1 131.4C87.1 131.124 86.8761 130.9 86.6 130.9C86.3238 130.9 86.1 131.124 86.1 131.4H87.1ZM131.354 180.554C131.549 180.359 131.549 180.042 131.354 179.847L128.172 176.665C127.976 176.47 127.66 176.47 127.464 176.665C127.269 176.86 127.269 177.177 127.464 177.372L130.293 180.2L127.464 183.029C127.269 183.224 127.269 183.541 127.464 183.736C127.66 183.931 127.976 183.931 128.172 183.736L131.354 180.554ZM86.1 131.4V156.2H87.1V131.4H86.1ZM110.6 180.7H131V179.7H110.6V180.7ZM86.1 156.2C86.1 169.731 97.069 180.7 110.6 180.7V179.7C97.6213 179.7 87.1 169.179 87.1 156.2H86.1Z" fill="#94A3B8"/>
<path d="M259.9 131.4C259.9 131.124 259.676 130.9 259.4 130.9C259.124 130.9 258.9 131.124 258.9 131.4H259.9ZM205.847 179.847C205.651 180.042 205.651 180.359 205.847 180.554L209.029 183.736C209.224 183.931 209.54 183.931 209.736 183.736C209.931 183.541 209.931 183.224 209.736 183.029L206.907 180.2L209.736 177.372C209.931 177.177 209.931 176.86 209.736 176.665C209.54 176.47 209.224 176.47 209.029 176.665L205.847 179.847ZM258.9 131.4V156.2H259.9V131.4H258.9ZM235.4 179.7H206.2V180.7H235.4V179.7ZM258.9 156.2C258.9 169.179 248.379 179.7 235.4 179.7V180.7C248.931 180.7 259.9 169.731 259.9 156.2H258.9Z" fill="#94A3B8"/>
<path d="M241.291 113H239.661L243.325 102.818H245.099L248.763 113H247.133L244.254 104.668H244.175L241.291 113ZM241.565 109.013H246.854V110.305H241.565V109.013ZM250.115 115.864V105.364H251.566V106.602H251.691C251.777 106.442 251.901 106.259 252.063 106.05C252.226 105.841 252.451 105.659 252.74 105.503C253.028 105.344 253.409 105.264 253.883 105.264C254.499 105.264 255.05 105.42 255.534 105.732C256.017 106.043 256.397 106.492 256.672 107.079C256.95 107.665 257.09 108.371 257.09 109.197C257.09 110.022 256.952 110.73 256.677 111.32C256.402 111.906 256.024 112.359 255.544 112.677C255.063 112.992 254.514 113.149 253.898 113.149C253.434 113.149 253.054 113.071 252.759 112.915C252.468 112.76 252.239 112.577 252.073 112.369C251.908 112.16 251.78 111.974 251.691 111.812H251.601V115.864H250.115ZM251.571 109.182C251.571 109.719 251.649 110.189 251.805 110.594C251.961 110.998 252.186 111.315 252.481 111.543C252.776 111.769 253.137 111.881 253.565 111.881C254.009 111.881 254.38 111.764 254.678 111.528C254.977 111.29 255.202 110.967 255.355 110.559C255.51 110.151 255.588 109.692 255.588 109.182C255.588 108.678 255.512 108.226 255.36 107.825C255.21 107.424 254.985 107.107 254.683 106.875C254.385 106.643 254.012 106.527 253.565 106.527C253.134 106.527 252.769 106.638 252.471 106.86C252.176 107.082 251.952 107.392 251.8 107.79C251.647 108.187 251.571 108.652 251.571 109.182ZM258.755 115.864V105.364H260.207V106.602H260.331C260.417 106.442 260.542 106.259 260.704 106.05C260.866 105.841 261.092 105.659 261.38 105.503C261.669 105.344 262.05 105.264 262.524 105.264C263.14 105.264 263.69 105.42 264.174 105.732C264.658 106.043 265.038 106.492 265.313 107.079C265.591 107.665 265.73 108.371 265.73 109.197C265.73 110.022 265.593 110.73 265.318 111.32C265.043 111.906 264.665 112.359 264.184 112.677C263.704 112.992 263.155 113.149 262.539 113.149C262.075 113.149 261.695 113.071 261.4 112.915C261.108 112.76 260.88 112.577 260.714 112.369C260.548 112.16 260.421 111.974 260.331 111.812H260.242V115.864H258.755ZM260.212 109.182C260.212 109.719 260.29 110.189 260.445 110.594C260.601 110.998 260.827 111.315 261.122 111.543C261.417 111.769 261.778 111.881 262.205 111.881C262.65 111.881 263.021 111.764 263.319 111.528C263.617 111.29 263.843 110.967 263.995 110.559C264.151 110.151 264.229 109.692 264.229 109.182C264.229 108.678 264.153 108.226 264 107.825C263.851 107.424 263.626 107.107 263.324 106.875C263.026 106.643 262.653 106.527 262.205 106.527C261.775 106.527 261.41 106.638 261.112 106.86C260.817 107.082 260.593 107.392 260.441 107.79C260.288 108.187 260.212 108.652 260.212 109.182ZM271.081 113V111.886L274.526 108.317C274.894 107.929 275.197 107.589 275.436 107.298C275.678 107.003 275.859 106.723 275.978 106.457C276.097 106.192 276.157 105.911 276.157 105.612C276.157 105.274 276.077 104.982 275.918 104.737C275.759 104.489 275.542 104.298 275.267 104.165C274.992 104.03 274.682 103.962 274.337 103.962C273.973 103.962 273.655 104.036 273.383 104.185C273.111 104.335 272.902 104.545 272.756 104.817C272.611 105.089 272.538 105.407 272.538 105.771H271.071C271.071 105.152 271.214 104.61 271.499 104.146C271.784 103.682 272.175 103.322 272.672 103.067C273.169 102.808 273.734 102.679 274.367 102.679C275.007 102.679 275.57 102.807 276.058 103.062C276.548 103.314 276.931 103.658 277.206 104.096C277.481 104.53 277.619 105.021 277.619 105.567C277.619 105.945 277.547 106.315 277.405 106.676C277.266 107.037 277.022 107.44 276.674 107.884C276.326 108.325 275.842 108.86 275.222 109.49L273.199 111.608V111.683H277.783V113H271.081Z" fill="white"/>
<path d="M160.542 185V174.818H162.079V183.678H166.692V185H160.542ZM168.325 185V177.364H169.812V185H168.325ZM169.076 176.185C168.818 176.185 168.596 176.099 168.41 175.927C168.228 175.751 168.137 175.542 168.137 175.3C168.137 175.055 168.228 174.846 168.41 174.674C168.596 174.498 168.818 174.411 169.076 174.411C169.335 174.411 169.555 174.498 169.737 174.674C169.923 174.846 170.016 175.055 170.016 175.3C170.016 175.542 169.923 175.751 169.737 175.927C169.555 176.099 169.335 176.185 169.076 176.185ZM171.931 185V174.818H173.418V178.602H173.507C173.593 178.442 173.718 178.259 173.88 178.05C174.042 177.841 174.268 177.659 174.556 177.503C174.844 177.344 175.226 177.264 175.7 177.264C176.316 177.264 176.866 177.42 177.35 177.732C177.834 178.043 178.214 178.492 178.489 179.079C178.767 179.665 178.906 180.371 178.906 181.197C178.906 182.022 178.769 182.73 178.494 183.32C178.219 183.906 177.841 184.359 177.36 184.677C176.879 184.992 176.331 185.149 175.714 185.149C175.25 185.149 174.871 185.071 174.576 184.915C174.284 184.76 174.056 184.577 173.89 184.369C173.724 184.16 173.597 183.974 173.507 183.812H173.383V185H171.931ZM173.388 181.182C173.388 181.719 173.466 182.189 173.621 182.594C173.777 182.998 174.003 183.315 174.298 183.543C174.593 183.769 174.954 183.881 175.381 183.881C175.826 183.881 176.197 183.764 176.495 183.528C176.793 183.29 177.019 182.967 177.171 182.559C177.327 182.151 177.405 181.692 177.405 181.182C177.405 180.678 177.329 180.226 177.176 179.825C177.027 179.424 176.802 179.107 176.5 178.875C176.202 178.643 175.829 178.527 175.381 178.527C174.951 178.527 174.586 178.638 174.288 178.86C173.993 179.082 173.769 179.392 173.616 179.79C173.464 180.187 173.388 180.652 173.388 181.182Z" fill="white"/>
<path d="M70.2756 113H68.6449L72.3089 102.818H74.0838L77.7479 113H76.1172L73.2386 104.668H73.1591L70.2756 113ZM70.549 109.013H75.8388V110.305H70.549V109.013ZM79.0989 115.864V105.364H80.5506V106.602H80.6749C80.7611 106.442 80.8854 106.259 81.0478 106.05C81.2102 105.841 81.4355 105.659 81.7239 105.503C82.0123 105.344 82.3934 105.264 82.8674 105.264C83.4838 105.264 84.034 105.42 84.5179 105.732C85.0018 106.043 85.3813 106.492 85.6564 107.079C85.9348 107.665 86.074 108.371 86.074 109.197C86.074 110.022 85.9365 110.73 85.6614 111.32C85.3863 111.906 85.0085 112.359 84.5279 112.677C84.0473 112.992 83.4988 113.149 82.8823 113.149C82.4183 113.149 82.0388 113.071 81.7438 112.915C81.4521 112.76 81.2234 112.577 81.0577 112.369C80.892 112.16 80.7644 111.974 80.6749 111.812H80.5854V115.864H79.0989ZM80.5556 109.182C80.5556 109.719 80.6335 110.189 80.7892 110.594C80.945 110.998 81.1704 111.315 81.4654 111.543C81.7604 111.769 82.1216 111.881 82.5492 111.881C82.9933 111.881 83.3645 111.764 83.6628 111.528C83.9611 111.29 84.1865 110.967 84.339 110.559C84.4947 110.151 84.5726 109.692 84.5726 109.182C84.5726 108.678 84.4964 108.226 84.3439 107.825C84.1948 107.424 83.9694 107.107 83.6678 106.875C83.3695 106.643 82.9966 106.527 82.5492 106.527C82.1183 106.527 81.7537 106.638 81.4554 106.86C81.1605 107.082 80.9367 107.392 80.7843 107.79C80.6318 108.187 80.5556 108.652 80.5556 109.182ZM87.7395 115.864V105.364H89.1912V106.602H89.3155C89.4017 106.442 89.526 106.259 89.6884 106.05C89.8508 105.841 90.0762 105.659 90.3645 105.503C90.6529 105.344 91.034 105.264 91.508 105.264C92.1245 105.264 92.6747 105.42 93.1586 105.732C93.6425 106.043 94.022 106.492 94.2971 107.079C94.5755 107.665 94.7147 108.371 94.7147 109.197C94.7147 110.022 94.5771 110.73 94.302 111.32C94.0269 111.906 93.6491 112.359 93.1685 112.677C92.6879 112.992 92.1394 113.149 91.5229 113.149C91.0589 113.149 90.6794 113.071 90.3844 112.915C90.0927 112.76 89.8641 112.577 89.6983 112.369C89.5326 112.16 89.405 111.974 89.3155 111.812H89.226V115.864H87.7395ZM89.1962 109.182C89.1962 109.719 89.2741 110.189 89.4299 110.594C89.5856 110.998 89.811 111.315 90.106 111.543C90.401 111.769 90.7623 111.881 91.1898 111.881C91.6339 111.881 92.0051 111.764 92.3034 111.528C92.6017 111.29 92.8271 110.967 92.9796 110.559C93.1354 110.151 93.2132 109.692 93.2132 109.182C93.2132 108.678 93.137 108.226 92.9846 107.825C92.8354 107.424 92.61 107.107 92.3084 106.875C92.0101 106.643 91.6373 106.527 91.1898 106.527C90.7589 106.527 90.3944 106.638 90.0961 106.86C89.8011 107.082 89.5774 107.392 89.4249 107.79C89.2724 108.187 89.1962 108.652 89.1962 109.182ZM103.928 102.818V113H102.387V104.359H102.327L99.8913 105.95V104.479L102.432 102.818H103.928Z" fill="white"/>
<path d="M118.39 71V59.3636H122.538C123.443 59.3636 124.193 59.5284 124.788 59.858C125.383 60.1875 125.828 60.6383 126.123 61.2102C126.419 61.7784 126.567 62.4186 126.567 63.1307C126.567 63.8466 126.417 64.4905 126.118 65.0625C125.822 65.6307 125.375 66.0814 124.777 66.4148C124.182 66.7443 123.434 66.9091 122.532 66.9091H119.68V65.4205H122.373C122.945 65.4205 123.409 65.322 123.765 65.125C124.121 64.9242 124.383 64.6515 124.549 64.3068C124.716 63.9621 124.799 63.5701 124.799 63.1307C124.799 62.6913 124.716 62.3011 124.549 61.9602C124.383 61.6193 124.12 61.3523 123.76 61.1591C123.404 60.9659 122.934 60.8693 122.351 60.8693H120.146V71H118.39ZM128.136 71V62.2727H129.778V63.6591H129.869C130.028 63.1894 130.309 62.8201 130.71 62.5511C131.116 62.2784 131.574 62.142 132.085 62.142C132.191 62.142 132.316 62.1458 132.46 62.1534C132.608 62.161 132.724 62.1705 132.807 62.1818V63.8068C132.739 63.7879 132.617 63.767 132.443 63.7443C132.269 63.7178 132.095 63.7045 131.921 63.7045C131.519 63.7045 131.161 63.7898 130.847 63.9602C130.536 64.1269 130.29 64.3598 130.108 64.6591C129.926 64.9545 129.835 65.2917 129.835 65.6705V71H128.136ZM137.289 71.1761C136.47 71.1761 135.756 70.9886 135.147 70.6136C134.537 70.2386 134.063 69.714 133.726 69.0398C133.389 68.3655 133.22 67.5777 133.22 66.6761C133.22 65.7708 133.389 64.9792 133.726 64.3011C134.063 63.6231 134.537 63.0966 135.147 62.7216C135.756 62.3466 136.47 62.1591 137.289 62.1591C138.107 62.1591 138.821 62.3466 139.431 62.7216C140.041 63.0966 140.514 63.6231 140.851 64.3011C141.188 64.9792 141.357 65.7708 141.357 66.6761C141.357 67.5777 141.188 68.3655 140.851 69.0398C140.514 69.714 140.041 70.2386 139.431 70.6136C138.821 70.9886 138.107 71.1761 137.289 71.1761ZM137.294 69.75C137.825 69.75 138.264 69.6098 138.613 69.3295C138.961 69.0492 139.219 68.6761 139.385 68.2102C139.556 67.7443 139.641 67.2311 139.641 66.6705C139.641 66.1136 139.556 65.6023 139.385 65.1364C139.219 64.6667 138.961 64.2898 138.613 64.0057C138.264 63.7216 137.825 63.5795 137.294 63.5795C136.76 63.5795 136.317 63.7216 135.965 64.0057C135.616 64.2898 135.357 64.6667 135.186 65.1364C135.02 65.6023 134.936 66.1136 134.936 66.6705C134.936 67.2311 135.02 67.7443 135.186 68.2102C135.357 68.6761 135.616 69.0492 135.965 69.3295C136.317 69.6098 136.76 69.75 137.294 69.75ZM142.901 62.2727H144.6V71.5682C144.6 72.1515 144.494 72.6439 144.282 73.0455C144.074 73.447 143.763 73.7519 143.35 73.9602C142.941 74.1686 142.435 74.2727 141.833 74.2727C141.772 74.2727 141.716 74.2727 141.663 74.2727C141.606 74.2727 141.547 74.2708 141.486 74.267V72.8068C141.539 72.8068 141.587 72.8068 141.628 72.8068C141.666 72.8068 141.71 72.8068 141.759 72.8068C142.161 72.8068 142.45 72.6989 142.628 72.483C142.81 72.2708 142.901 71.9621 142.901 71.5568V62.2727ZM143.742 60.9261C143.447 60.9261 143.193 60.8277 142.981 60.6307C142.772 60.4299 142.668 60.1913 142.668 59.9148C142.668 59.6345 142.772 59.3958 142.981 59.1989C143.193 58.9981 143.447 58.8977 143.742 58.8977C144.038 58.8977 144.289 58.9981 144.498 59.1989C144.71 59.3958 144.816 59.6345 144.816 59.9148C144.816 60.1913 144.71 60.4299 144.498 60.6307C144.289 60.8277 144.038 60.9261 143.742 60.9261ZM150.295 71.1761C149.435 71.1761 148.695 70.9924 148.073 70.625C147.456 70.2538 146.979 69.733 146.641 69.0625C146.308 68.3883 146.141 67.5985 146.141 66.6932C146.141 65.7992 146.308 65.0114 146.641 64.3295C146.979 63.6477 147.448 63.1155 148.051 62.733C148.657 62.3504 149.365 62.1591 150.176 62.1591C150.668 62.1591 151.145 62.2405 151.607 62.4034C152.07 62.5663 152.484 62.822 152.852 63.1705C153.219 63.5189 153.509 63.9716 153.721 64.5284C153.933 65.0814 154.039 65.7538 154.039 66.5455V67.1477H147.102V65.875H152.374C152.374 65.428 152.284 65.0322 152.102 64.6875C151.92 64.339 151.664 64.0644 151.335 63.8636C151.009 63.6629 150.626 63.5625 150.187 63.5625C149.71 63.5625 149.293 63.6799 148.937 63.9148C148.585 64.1458 148.312 64.4489 148.119 64.8239C147.929 65.1951 147.835 65.5985 147.835 66.0341V67.0284C147.835 67.6117 147.937 68.108 148.141 68.517C148.35 68.9261 148.64 69.2386 149.011 69.4545C149.382 69.6667 149.816 69.7727 150.312 69.7727C150.634 69.7727 150.927 69.7273 151.193 69.6364C151.458 69.5417 151.687 69.4015 151.88 69.2159C152.073 69.0303 152.221 68.8011 152.323 68.5284L153.931 68.8182C153.802 69.2917 153.571 69.7064 153.238 70.0625C152.909 70.4148 152.494 70.6894 151.994 70.8864C151.498 71.0795 150.931 71.1761 150.295 71.1761ZM159.248 71.1761C158.404 71.1761 157.676 70.9848 157.066 70.6023C156.46 70.2159 155.995 69.6837 155.669 69.0057C155.343 68.3277 155.18 67.5511 155.18 66.6761C155.18 65.7898 155.347 65.0076 155.68 64.3295C156.013 63.6477 156.483 63.1155 157.089 62.733C157.695 62.3504 158.409 62.1591 159.231 62.1591C159.894 62.1591 160.485 62.2822 161.004 62.5284C161.523 62.7708 161.941 63.1117 162.26 63.5511C162.582 63.9905 162.773 64.5038 162.834 65.0909H161.18C161.089 64.6818 160.881 64.3295 160.555 64.0341C160.233 63.7386 159.801 63.5909 159.26 63.5909C158.786 63.5909 158.371 63.7159 158.015 63.9659C157.663 64.2121 157.388 64.5644 157.191 65.0227C156.995 65.4773 156.896 66.0152 156.896 66.6364C156.896 67.2727 156.993 67.822 157.186 68.2841C157.379 68.7462 157.652 69.1042 158.004 69.358C158.36 69.6117 158.779 69.7386 159.26 69.7386C159.582 69.7386 159.873 69.6799 160.135 69.5625C160.4 69.4413 160.621 69.2689 160.799 69.0455C160.981 68.822 161.108 68.553 161.18 68.2386H162.834C162.773 68.803 162.589 69.3068 162.282 69.75C161.976 70.1932 161.565 70.5417 161.049 70.7955C160.538 71.0492 159.938 71.1761 159.248 71.1761ZM168.372 62.2727V63.6364H163.605V62.2727H168.372ZM164.884 60.1818H166.582V68.4375C166.582 68.767 166.632 69.0152 166.73 69.1818C166.829 69.3447 166.955 69.4564 167.111 69.517C167.27 69.5739 167.442 69.6023 167.628 69.6023C167.764 69.6023 167.884 69.5928 167.986 69.5739C168.088 69.5549 168.168 69.5398 168.224 69.5284L168.531 70.9318C168.433 70.9697 168.293 71.0076 168.111 71.0455C167.929 71.0871 167.702 71.1098 167.429 71.1136C166.982 71.1212 166.565 71.0417 166.179 70.875C165.793 70.7083 165.48 70.4508 165.241 70.1023C165.003 69.7538 164.884 69.3163 164.884 68.7898V60.1818ZM181.793 63.0398C181.683 62.6951 181.536 62.3864 181.35 62.1136C181.168 61.8371 180.95 61.6023 180.697 61.4091C180.443 61.2121 180.153 61.0625 179.827 60.9602C179.505 60.858 179.151 60.8068 178.765 60.8068C178.109 60.8068 177.519 60.9754 176.992 61.3125C176.466 61.6496 176.049 62.1439 175.742 62.7955C175.439 63.4432 175.287 64.2367 175.287 65.1761C175.287 66.1193 175.441 66.9167 175.748 67.5682C176.055 68.2197 176.475 68.714 177.009 69.0511C177.543 69.3883 178.151 69.5568 178.833 69.5568C179.466 69.5568 180.017 69.428 180.486 69.1705C180.96 68.9129 181.325 68.5492 181.583 68.0795C181.844 67.6061 181.975 67.0492 181.975 66.4091L182.43 66.4943H179.1V65.0455H183.674V66.3693C183.674 67.3466 183.466 68.1951 183.049 68.9148C182.636 69.6307 182.064 70.1837 181.333 70.5739C180.606 70.964 179.772 71.1591 178.833 71.1591C177.78 71.1591 176.856 70.9167 176.06 70.4318C175.269 69.947 174.651 69.2595 174.208 68.3693C173.765 67.4754 173.543 66.4148 173.543 65.1875C173.543 64.2595 173.672 63.4261 173.93 62.6875C174.187 61.9489 174.549 61.322 175.015 60.8068C175.484 60.2879 176.036 59.892 176.668 59.6193C177.305 59.3428 178 59.2045 178.753 59.2045C179.382 59.2045 179.967 59.2973 180.509 59.483C181.055 59.6686 181.539 59.9318 181.964 60.2727C182.392 60.6136 182.746 61.0189 183.026 61.4886C183.306 61.9545 183.496 62.4716 183.594 63.0398H181.793ZM185.414 71V62.2727H187.056V63.6591H187.147C187.306 63.1894 187.587 62.8201 187.988 62.5511C188.393 62.2784 188.852 62.142 189.363 62.142C189.469 62.142 189.594 62.1458 189.738 62.1534C189.886 62.161 190.001 62.1705 190.085 62.1818V63.8068C190.016 63.7879 189.895 63.767 189.721 63.7443C189.547 63.7178 189.373 63.7045 189.198 63.7045C188.797 63.7045 188.439 63.7898 188.124 63.9602C187.814 64.1269 187.568 64.3598 187.386 64.6591C187.204 64.9545 187.113 65.2917 187.113 65.6705V71H185.414ZM193.664 71.1932C193.111 71.1932 192.611 71.0909 192.164 70.8864C191.717 70.678 191.363 70.3769 191.102 69.983C190.844 69.589 190.716 69.1061 190.716 68.5341C190.716 68.0417 190.81 67.6364 191 67.3182C191.189 67 191.445 66.7481 191.767 66.5625C192.089 66.3769 192.449 66.2367 192.846 66.142C193.244 66.0473 193.649 65.9754 194.062 65.9261C194.585 65.8655 195.009 65.8163 195.335 65.7784C195.661 65.7367 195.897 65.6705 196.045 65.5795C196.193 65.4886 196.267 65.3409 196.267 65.1364V65.0966C196.267 64.6004 196.127 64.2159 195.846 63.9432C195.57 63.6705 195.157 63.5341 194.608 63.5341C194.036 63.5341 193.585 63.661 193.255 63.9148C192.93 64.1648 192.704 64.4432 192.579 64.75L190.983 64.3864C191.172 63.8561 191.449 63.428 191.812 63.1023C192.18 62.7727 192.602 62.5341 193.079 62.3864C193.556 62.2348 194.058 62.1591 194.585 62.1591C194.933 62.1591 195.303 62.2008 195.693 62.2841C196.087 62.3636 196.454 62.5114 196.795 62.7273C197.14 62.9432 197.422 63.2519 197.642 63.6534C197.861 64.0511 197.971 64.5682 197.971 65.2045V71H196.312V69.8068H196.244C196.134 70.0265 195.969 70.2424 195.75 70.4545C195.53 70.6667 195.248 70.8428 194.903 70.983C194.558 71.1231 194.146 71.1932 193.664 71.1932ZM194.034 69.8295C194.503 69.8295 194.905 69.7367 195.238 69.5511C195.575 69.3655 195.831 69.1231 196.005 68.8239C196.183 68.5208 196.272 68.197 196.272 67.8523V66.7273C196.212 66.7879 196.094 66.8447 195.92 66.8977C195.75 66.947 195.555 66.9905 195.335 67.0284C195.115 67.0625 194.901 67.0947 194.693 67.125C194.485 67.1515 194.31 67.1742 194.17 67.1932C193.841 67.2348 193.539 67.3049 193.267 67.4034C192.998 67.5019 192.782 67.6439 192.619 67.8295C192.46 68.0114 192.38 68.2538 192.38 68.5568C192.38 68.9773 192.536 69.2955 192.846 69.5114C193.157 69.7235 193.553 69.8295 194.034 69.8295ZM199.882 74.2727V62.2727H201.541V63.6875H201.683C201.782 63.5057 201.924 63.2955 202.109 63.0568C202.295 62.8182 202.552 62.6098 202.882 62.4318C203.212 62.25 203.647 62.1591 204.189 62.1591C204.893 62.1591 205.522 62.3371 206.075 62.6932C206.628 63.0492 207.062 63.5625 207.376 64.233C207.695 64.9034 207.854 65.7102 207.854 66.6534C207.854 67.5966 207.696 68.4053 207.382 69.0795C207.068 69.75 206.636 70.267 206.087 70.6307C205.537 70.9905 204.91 71.1705 204.206 71.1705C203.676 71.1705 203.242 71.0814 202.905 70.9034C202.571 70.7254 202.31 70.517 202.121 70.2784C201.931 70.0398 201.785 69.8277 201.683 69.642H201.581V74.2727H199.882ZM201.547 66.6364C201.547 67.25 201.636 67.7879 201.814 68.25C201.992 68.7121 202.249 69.0739 202.587 69.3352C202.924 69.5928 203.337 69.7216 203.825 69.7216C204.333 69.7216 204.757 69.5871 205.098 69.3182C205.439 69.0455 205.696 68.6761 205.871 68.2102C206.049 67.7443 206.138 67.2197 206.138 66.6364C206.138 66.0606 206.051 65.5436 205.876 65.0852C205.706 64.6269 205.448 64.2652 205.104 64C204.763 63.7348 204.337 63.6023 203.825 63.6023C203.333 63.6023 202.916 63.7292 202.575 63.983C202.238 64.2367 201.982 64.5909 201.808 65.0455C201.634 65.5 201.547 66.0303 201.547 66.6364ZM211.104 65.8182V71H209.405V59.3636H211.081V63.6932H211.189C211.394 63.2235 211.706 62.8504 212.127 62.5739C212.547 62.2973 213.096 62.1591 213.774 62.1591C214.373 62.1591 214.896 62.2822 215.343 62.5284C215.793 62.7746 216.142 63.142 216.388 63.6307C216.638 64.1155 216.763 64.7216 216.763 65.4489V71H215.064V65.6534C215.064 65.0133 214.899 64.517 214.57 64.1648C214.24 63.8087 213.782 63.6307 213.195 63.6307C212.793 63.6307 212.433 63.7159 212.115 63.8864C211.801 64.0568 211.553 64.3068 211.371 64.6364C211.193 64.9621 211.104 65.3561 211.104 65.8182Z" fill="#94A3B8"/>
<rect x="413" y="139" width="67.2" height="38.4" rx="8" fill="#94A3B8"/>
<rect x="499.4" y="139" width="67.2" height="38.4" rx="8" fill="#94A3B8"/>
<rect x="585.8" y="139" width="67.2" height="38.4" rx="8" fill="#94A3B8"/>
<path d="M424.792 162.145C424.377 162.145 424.002 162.068 423.667 161.915C423.332 161.759 423.066 161.533 422.87 161.237C422.677 160.942 422.58 160.58 422.58 160.151C422.58 159.781 422.651 159.477 422.793 159.239C422.935 159 423.127 158.811 423.369 158.672C423.61 158.533 423.88 158.428 424.178 158.357C424.477 158.286 424.781 158.232 425.09 158.195C425.482 158.149 425.8 158.112 426.045 158.084C426.289 158.053 426.467 158.003 426.577 157.935C426.688 157.866 426.744 157.756 426.744 157.602V157.572C426.744 157.2 426.639 156.912 426.428 156.707C426.221 156.503 425.911 156.401 425.499 156.401C425.07 156.401 424.732 156.496 424.485 156.686C424.241 156.874 424.072 157.082 423.978 157.312L422.781 157.04C422.923 156.642 423.13 156.321 423.403 156.077C423.678 155.83 423.995 155.651 424.353 155.54C424.711 155.426 425.087 155.369 425.482 155.369C425.744 155.369 426.021 155.401 426.313 155.463C426.609 155.523 426.884 155.634 427.14 155.795C427.399 155.957 427.61 156.189 427.775 156.49C427.94 156.788 428.022 157.176 428.022 157.653V162H426.778V161.105H426.727C426.644 161.27 426.521 161.432 426.356 161.591C426.191 161.75 425.979 161.882 425.721 161.987C425.462 162.092 425.153 162.145 424.792 162.145ZM425.069 161.122C425.421 161.122 425.722 161.053 425.972 160.913C426.225 160.774 426.417 160.592 426.548 160.368C426.681 160.141 426.748 159.898 426.748 159.639V158.795C426.702 158.841 426.614 158.884 426.484 158.923C426.356 158.96 426.21 158.993 426.045 159.021C425.88 159.047 425.72 159.071 425.563 159.094C425.407 159.114 425.276 159.131 425.171 159.145C424.924 159.176 424.698 159.229 424.494 159.303C424.292 159.376 424.13 159.483 424.008 159.622C423.889 159.759 423.829 159.94 423.829 160.168C423.829 160.483 423.945 160.722 424.178 160.884C424.411 161.043 424.708 161.122 425.069 161.122ZM429.455 164.455V155.455H430.699V156.516H430.806C430.88 156.379 430.986 156.222 431.126 156.043C431.265 155.864 431.458 155.707 431.705 155.574C431.952 155.438 432.279 155.369 432.685 155.369C433.214 155.369 433.685 155.503 434.1 155.77C434.515 156.037 434.84 156.422 435.076 156.925C435.315 157.428 435.434 158.033 435.434 158.74C435.434 159.447 435.316 160.054 435.08 160.56C434.844 161.062 434.521 161.45 434.109 161.723C433.697 161.993 433.226 162.128 432.698 162.128C432.3 162.128 431.975 162.061 431.722 161.928C431.472 161.794 431.276 161.638 431.134 161.459C430.992 161.28 430.883 161.121 430.806 160.982H430.729V164.455H429.455ZM430.704 158.727C430.704 159.187 430.771 159.591 430.904 159.938C431.038 160.284 431.231 160.555 431.484 160.751C431.736 160.945 432.046 161.041 432.413 161.041C432.793 161.041 433.111 160.94 433.367 160.739C433.623 160.534 433.816 160.257 433.947 159.908C434.08 159.558 434.147 159.165 434.147 158.727C434.147 158.295 434.082 157.908 433.951 157.564C433.823 157.22 433.63 156.949 433.371 156.75C433.116 156.551 432.796 156.452 432.413 156.452C432.043 156.452 431.731 156.547 431.475 156.737C431.222 156.928 431.03 157.193 430.9 157.534C430.769 157.875 430.704 158.273 430.704 158.727ZM436.597 164.455V155.455H437.842V156.516H437.948C438.022 156.379 438.129 156.222 438.268 156.043C438.407 155.864 438.6 155.707 438.847 155.574C439.095 155.438 439.421 155.369 439.828 155.369C440.356 155.369 440.828 155.503 441.242 155.77C441.657 156.037 441.982 156.422 442.218 156.925C442.457 157.428 442.576 158.033 442.576 158.74C442.576 159.447 442.458 160.054 442.222 160.56C441.987 161.062 441.663 161.45 441.251 161.723C440.839 161.993 440.369 162.128 439.84 162.128C439.443 162.128 439.117 162.061 438.864 161.928C438.614 161.794 438.418 161.638 438.276 161.459C438.134 161.28 438.025 161.121 437.948 160.982H437.872V164.455H436.597ZM437.846 158.727C437.846 159.187 437.913 159.591 438.046 159.938C438.18 160.284 438.373 160.555 438.626 160.751C438.879 160.945 439.188 161.041 439.555 161.041C439.935 161.041 440.254 160.94 440.509 160.739C440.765 160.534 440.958 160.257 441.089 159.908C441.222 159.558 441.289 159.165 441.289 158.727C441.289 158.295 441.224 157.908 441.093 157.564C440.965 157.22 440.772 156.949 440.514 156.75C440.258 156.551 439.938 156.452 439.555 156.452C439.185 156.452 438.873 156.547 438.617 156.737C438.364 156.928 438.173 157.193 438.042 157.534C437.911 157.875 437.846 158.273 437.846 158.727ZM447.034 153.273V162H445.713V154.594H445.662L443.573 155.957V154.696L445.751 153.273H447.034ZM449.987 162.081C449.754 162.081 449.554 161.999 449.386 161.834C449.219 161.666 449.135 161.464 449.135 161.229C449.135 160.996 449.219 160.797 449.386 160.632C449.554 160.464 449.754 160.381 449.987 160.381C450.22 160.381 450.42 160.464 450.588 160.632C450.756 160.797 450.839 160.996 450.839 161.229C450.839 161.385 450.8 161.528 450.72 161.659C450.643 161.787 450.541 161.889 450.413 161.966C450.285 162.043 450.143 162.081 449.987 162.081ZM449.987 157.317C449.754 157.317 449.554 157.233 449.386 157.065C449.219 156.898 449.135 156.697 449.135 156.464C449.135 156.232 449.219 156.033 449.386 155.868C449.554 155.7 449.754 155.616 449.987 155.616C450.22 155.616 450.42 155.7 450.588 155.868C450.756 156.033 450.839 156.232 450.839 156.464C450.839 156.621 450.8 156.764 450.72 156.895C450.643 157.023 450.541 157.125 450.413 157.202C450.285 157.278 450.143 157.317 449.987 157.317ZM455.337 155.455V156.477H451.762V155.455H455.337ZM452.721 153.886H453.995V160.078C453.995 160.325 454.032 160.511 454.106 160.636C454.18 160.759 454.275 160.842 454.391 160.888C454.511 160.93 454.64 160.952 454.779 160.952C454.881 160.952 454.971 160.945 455.048 160.93C455.124 160.916 455.184 160.905 455.227 160.896L455.457 161.949C455.383 161.977 455.278 162.006 455.141 162.034C455.005 162.065 454.835 162.082 454.63 162.085C454.295 162.091 453.982 162.031 453.692 161.906C453.403 161.781 453.168 161.588 452.989 161.327C452.81 161.065 452.721 160.737 452.721 160.342V153.886ZM459.234 162.132C458.589 162.132 458.033 161.994 457.567 161.719C457.104 161.44 456.746 161.05 456.493 160.547C456.243 160.041 456.118 159.449 456.118 158.77C456.118 158.099 456.243 157.509 456.493 156.997C456.746 156.486 457.099 156.087 457.55 155.8C458.005 155.513 458.536 155.369 459.144 155.369C459.513 155.369 459.871 155.43 460.218 155.553C460.565 155.675 460.876 155.866 461.151 156.128C461.427 156.389 461.644 156.729 461.803 157.146C461.962 157.561 462.042 158.065 462.042 158.659V159.111H456.839V158.156H460.793C460.793 157.821 460.725 157.524 460.589 157.266C460.452 157.004 460.261 156.798 460.013 156.648C459.769 156.497 459.482 156.422 459.153 156.422C458.795 156.422 458.482 156.51 458.215 156.686C457.951 156.859 457.746 157.087 457.601 157.368C457.459 157.646 457.388 157.949 457.388 158.276V159.021C457.388 159.459 457.465 159.831 457.618 160.138C457.775 160.445 457.992 160.679 458.27 160.841C458.549 161 458.874 161.08 459.246 161.08C459.488 161.08 459.708 161.045 459.907 160.977C460.106 160.906 460.278 160.801 460.422 160.662C460.567 160.523 460.678 160.351 460.755 160.146L461.961 160.364C461.864 160.719 461.691 161.03 461.441 161.297C461.194 161.561 460.883 161.767 460.508 161.915C460.136 162.06 459.711 162.132 459.234 162.132ZM468.096 157.053L466.941 157.257C466.893 157.109 466.816 156.969 466.711 156.835C466.609 156.702 466.47 156.592 466.294 156.507C466.118 156.422 465.897 156.379 465.633 156.379C465.272 156.379 464.971 156.46 464.73 156.622C464.488 156.781 464.368 156.987 464.368 157.24C464.368 157.459 464.449 157.635 464.611 157.768C464.772 157.902 465.034 158.011 465.395 158.097L466.434 158.335C467.037 158.474 467.486 158.689 467.781 158.979C468.076 159.268 468.224 159.645 468.224 160.108C468.224 160.5 468.111 160.849 467.883 161.156C467.659 161.46 467.345 161.699 466.941 161.872C466.541 162.045 466.076 162.132 465.548 162.132C464.815 162.132 464.217 161.976 463.754 161.663C463.291 161.348 463.007 160.901 462.902 160.321L464.133 160.134C464.21 160.455 464.368 160.697 464.606 160.862C464.845 161.024 465.156 161.105 465.539 161.105C465.957 161.105 466.291 161.018 466.541 160.845C466.791 160.669 466.916 160.455 466.916 160.202C466.916 159.997 466.839 159.825 466.686 159.686C466.535 159.547 466.304 159.442 465.991 159.371L464.883 159.128C464.272 158.989 463.821 158.767 463.528 158.463C463.238 158.159 463.093 157.774 463.093 157.308C463.093 156.922 463.201 156.584 463.417 156.294C463.633 156.004 463.932 155.778 464.312 155.616C464.693 155.452 465.129 155.369 465.62 155.369C466.328 155.369 466.885 155.523 467.291 155.83C467.697 156.134 467.966 156.541 468.096 157.053ZM472.416 155.455V156.477H468.841V155.455H472.416ZM469.8 153.886H471.074V160.078C471.074 160.325 471.111 160.511 471.185 160.636C471.259 160.759 471.354 160.842 471.47 160.888C471.59 160.93 471.719 160.952 471.858 160.952C471.961 160.952 472.05 160.945 472.127 160.93C472.203 160.916 472.263 160.905 472.306 160.896L472.536 161.949C472.462 161.977 472.357 162.006 472.22 162.034C472.084 162.065 471.914 162.082 471.709 162.085C471.374 162.091 471.061 162.031 470.772 161.906C470.482 161.781 470.247 161.588 470.068 161.327C469.889 161.065 469.8 160.737 469.8 160.342V153.886Z" fill="white"/>
<path d="M509.948 162.145C509.533 162.145 509.158 162.068 508.823 161.915C508.488 161.759 508.222 161.533 508.026 161.237C507.833 160.942 507.737 160.58 507.737 160.151C507.737 159.781 507.808 159.477 507.95 159.239C508.092 159 508.283 158.811 508.525 158.672C508.766 158.533 509.036 158.428 509.335 158.357C509.633 158.286 509.937 158.232 510.247 158.195C510.639 158.149 510.957 158.112 511.201 158.084C511.445 158.053 511.623 158.003 511.734 157.935C511.845 157.866 511.9 157.756 511.9 157.602V157.572C511.9 157.2 511.795 156.912 511.585 156.707C511.377 156.503 511.068 156.401 510.656 156.401C510.227 156.401 509.889 156.496 509.641 156.686C509.397 156.874 509.228 157.082 509.134 157.312L507.937 157.04C508.079 156.642 508.286 156.321 508.559 156.077C508.835 155.83 509.151 155.651 509.509 155.54C509.867 155.426 510.244 155.369 510.639 155.369C510.9 155.369 511.177 155.401 511.47 155.463C511.765 155.523 512.041 155.634 512.296 155.795C512.555 155.957 512.766 156.189 512.931 156.49C513.096 156.788 513.178 157.176 513.178 157.653V162H511.934V161.105H511.883C511.8 161.27 511.677 161.432 511.512 161.591C511.347 161.75 511.136 161.882 510.877 161.987C510.619 162.092 510.309 162.145 509.948 162.145ZM510.225 161.122C510.577 161.122 510.879 161.053 511.129 160.913C511.381 160.774 511.573 160.592 511.704 160.368C511.837 160.141 511.904 159.898 511.904 159.639V158.795C511.859 158.841 511.771 158.884 511.64 158.923C511.512 158.96 511.366 158.993 511.201 159.021C511.036 159.047 510.876 159.071 510.72 159.094C510.563 159.114 510.433 159.131 510.327 159.145C510.08 159.176 509.854 159.229 509.65 159.303C509.448 159.376 509.286 159.483 509.164 159.622C509.045 159.759 508.985 159.94 508.985 160.168C508.985 160.483 509.102 160.722 509.335 160.884C509.568 161.043 509.864 161.122 510.225 161.122ZM514.611 164.455V155.455H515.856V156.516H515.962C516.036 156.379 516.143 156.222 516.282 156.043C516.421 155.864 516.614 155.707 516.861 155.574C517.109 155.438 517.435 155.369 517.842 155.369C518.37 155.369 518.842 155.503 519.256 155.77C519.671 156.037 519.996 156.422 520.232 156.925C520.471 157.428 520.59 158.033 520.59 158.74C520.59 159.447 520.472 160.054 520.236 160.56C520.001 161.062 519.677 161.45 519.265 161.723C518.853 161.993 518.383 162.128 517.854 162.128C517.457 162.128 517.131 162.061 516.878 161.928C516.628 161.794 516.432 161.638 516.29 161.459C516.148 161.28 516.039 161.121 515.962 160.982H515.886V164.455H514.611ZM515.86 158.727C515.86 159.187 515.927 159.591 516.06 159.938C516.194 160.284 516.387 160.555 516.64 160.751C516.893 160.945 517.202 161.041 517.569 161.041C517.949 161.041 518.268 160.94 518.523 160.739C518.779 160.534 518.972 160.257 519.103 159.908C519.236 159.558 519.303 159.165 519.303 158.727C519.303 158.295 519.238 157.908 519.107 157.564C518.979 157.22 518.786 156.949 518.528 156.75C518.272 156.551 517.952 156.452 517.569 156.452C517.199 156.452 516.887 156.547 516.631 156.737C516.378 156.928 516.187 157.193 516.056 157.534C515.925 157.875 515.86 158.273 515.86 158.727ZM521.754 164.455V155.455H522.998V156.516H523.105C523.178 156.379 523.285 156.222 523.424 156.043C523.563 155.864 523.757 155.707 524.004 155.574C524.251 155.438 524.578 155.369 524.984 155.369C525.512 155.369 525.984 155.503 526.399 155.77C526.813 156.037 527.139 156.422 527.374 156.925C527.613 157.428 527.732 158.033 527.732 158.74C527.732 159.447 527.614 160.054 527.379 160.56C527.143 161.062 526.819 161.45 526.407 161.723C525.995 161.993 525.525 162.128 524.997 162.128C524.599 162.128 524.274 162.061 524.021 161.928C523.771 161.794 523.575 161.638 523.433 161.459C523.291 161.28 523.181 161.121 523.105 160.982H523.028V164.455H521.754ZM523.002 158.727C523.002 159.187 523.069 159.591 523.203 159.938C523.336 160.284 523.529 160.555 523.782 160.751C524.035 160.945 524.345 161.041 524.711 161.041C525.092 161.041 525.41 160.94 525.666 160.739C525.921 160.534 526.114 160.257 526.245 159.908C526.379 159.558 526.445 159.165 526.445 158.727C526.445 158.295 526.38 157.908 526.249 157.564C526.122 157.22 525.928 156.949 525.67 156.75C525.414 156.551 525.095 156.452 524.711 156.452C524.342 156.452 524.029 156.547 523.774 156.737C523.521 156.928 523.329 157.193 523.198 157.534C523.068 157.875 523.002 158.273 523.002 158.727ZM528.879 162V161.045L531.832 157.986C532.147 157.653 532.407 157.362 532.612 157.112C532.819 156.859 532.974 156.619 533.076 156.392C533.179 156.165 533.23 155.923 533.23 155.668C533.23 155.378 533.162 155.128 533.025 154.918C532.889 154.705 532.703 154.541 532.467 154.428C532.231 154.311 531.966 154.253 531.67 154.253C531.358 154.253 531.085 154.317 530.852 154.445C530.619 154.572 530.44 154.753 530.315 154.986C530.19 155.219 530.127 155.491 530.127 155.804H528.87C528.87 155.273 528.993 154.808 529.237 154.411C529.481 154.013 529.816 153.705 530.243 153.486C530.669 153.264 531.153 153.153 531.696 153.153C532.244 153.153 532.727 153.263 533.145 153.482C533.565 153.697 533.893 153.993 534.129 154.368C534.365 154.74 534.483 155.161 534.483 155.629C534.483 155.953 534.421 156.27 534.299 156.58C534.18 156.889 533.971 157.234 533.673 157.615C533.375 157.993 532.96 158.452 532.429 158.991L530.694 160.807V160.871H534.623V162H528.879ZM536.831 162.081C536.598 162.081 536.398 161.999 536.23 161.834C536.062 161.666 535.979 161.464 535.979 161.229C535.979 160.996 536.062 160.797 536.23 160.632C536.398 160.464 536.598 160.381 536.831 160.381C537.064 160.381 537.264 160.464 537.432 160.632C537.599 160.797 537.683 160.996 537.683 161.229C537.683 161.385 537.643 161.528 537.564 161.659C537.487 161.787 537.385 161.889 537.257 161.966C537.129 162.043 536.987 162.081 536.831 162.081ZM536.831 157.317C536.598 157.317 536.398 157.233 536.23 157.065C536.062 156.898 535.979 156.697 535.979 156.464C535.979 156.232 536.062 156.033 536.23 155.868C536.398 155.7 536.598 155.616 536.831 155.616C537.064 155.616 537.264 155.7 537.432 155.868C537.599 156.033 537.683 156.232 537.683 156.464C537.683 156.621 537.643 156.764 537.564 156.895C537.487 157.023 537.385 157.125 537.257 157.202C537.129 157.278 536.987 157.317 536.831 157.317ZM542.181 155.455V156.477H538.606V155.455H542.181ZM539.565 153.886H540.839V160.078C540.839 160.325 540.876 160.511 540.95 160.636C541.023 160.759 541.119 160.842 541.235 160.888C541.354 160.93 541.484 160.952 541.623 160.952C541.725 160.952 541.815 160.945 541.891 160.93C541.968 160.916 542.028 160.905 542.07 160.896L542.3 161.949C542.227 161.977 542.121 162.006 541.985 162.034C541.849 162.065 541.678 162.082 541.474 162.085C541.139 162.091 540.826 162.031 540.536 161.906C540.246 161.781 540.012 161.588 539.833 161.327C539.654 161.065 539.565 160.737 539.565 160.342V153.886ZM546.077 162.132C545.432 162.132 544.877 161.994 544.411 161.719C543.948 161.44 543.59 161.05 543.337 160.547C543.087 160.041 542.962 159.449 542.962 158.77C542.962 158.099 543.087 157.509 543.337 156.997C543.59 156.486 543.942 156.087 544.394 155.8C544.849 155.513 545.38 155.369 545.988 155.369C546.357 155.369 546.715 155.43 547.062 155.553C547.408 155.675 547.719 155.866 547.995 156.128C548.27 156.389 548.488 156.729 548.647 157.146C548.806 157.561 548.886 158.065 548.886 158.659V159.111H543.682V158.156H547.637C547.637 157.821 547.569 157.524 547.432 157.266C547.296 157.004 547.104 156.798 546.857 156.648C546.613 156.497 546.326 156.422 545.996 156.422C545.638 156.422 545.326 156.51 545.059 156.686C544.795 156.859 544.59 157.087 544.445 157.368C544.303 157.646 544.232 157.949 544.232 158.276V159.021C544.232 159.459 544.309 159.831 544.462 160.138C544.618 160.445 544.836 160.679 545.114 160.841C545.393 161 545.718 161.08 546.09 161.08C546.332 161.08 546.552 161.045 546.751 160.977C546.949 160.906 547.121 160.801 547.266 160.662C547.411 160.523 547.522 160.351 547.599 160.146L548.805 160.364C548.708 160.719 548.535 161.03 548.285 161.297C548.038 161.561 547.726 161.767 547.351 161.915C546.979 162.06 546.555 162.132 546.077 162.132ZM554.94 157.053L553.785 157.257C553.737 157.109 553.66 156.969 553.555 156.835C553.453 156.702 553.314 156.592 553.138 156.507C552.961 156.422 552.741 156.379 552.477 156.379C552.116 156.379 551.815 156.46 551.574 156.622C551.332 156.781 551.211 156.987 551.211 157.24C551.211 157.459 551.292 157.635 551.454 157.768C551.616 157.902 551.878 158.011 552.238 158.097L553.278 158.335C553.88 158.474 554.329 158.689 554.625 158.979C554.92 159.268 555.068 159.645 555.068 160.108C555.068 160.5 554.954 160.849 554.727 161.156C554.503 161.46 554.189 161.699 553.785 161.872C553.385 162.045 552.92 162.132 552.392 162.132C551.659 162.132 551.061 161.976 550.598 161.663C550.135 161.348 549.851 160.901 549.745 160.321L550.977 160.134C551.054 160.455 551.211 160.697 551.45 160.862C551.689 161.024 552 161.105 552.383 161.105C552.801 161.105 553.135 161.018 553.385 160.845C553.635 160.669 553.76 160.455 553.76 160.202C553.76 159.997 553.683 159.825 553.53 159.686C553.379 159.547 553.147 159.442 552.835 159.371L551.727 159.128C551.116 158.989 550.664 158.767 550.372 158.463C550.082 158.159 549.937 157.774 549.937 157.308C549.937 156.922 550.045 156.584 550.261 156.294C550.477 156.004 550.775 155.778 551.156 155.616C551.537 155.452 551.973 155.369 552.464 155.369C553.172 155.369 553.728 155.523 554.135 155.83C554.541 156.134 554.809 156.541 554.94 157.053ZM559.26 155.455V156.477H555.685V155.455H559.26ZM556.644 153.886H557.918V160.078C557.918 160.325 557.955 160.511 558.029 160.636C558.103 160.759 558.198 160.842 558.314 160.888C558.434 160.93 558.563 160.952 558.702 160.952C558.804 160.952 558.894 160.945 558.97 160.93C559.047 160.916 559.107 160.905 559.149 160.896L559.38 161.949C559.306 161.977 559.201 162.006 559.064 162.034C558.928 162.065 558.757 162.082 558.553 162.085C558.218 162.091 557.905 162.031 557.615 161.906C557.326 161.781 557.091 161.588 556.912 161.327C556.733 161.065 556.644 160.737 556.644 160.342V153.886Z" fill="white"/>
<path d="M602.443 153.273V162H601.169V153.273H602.443ZM603.893 162V155.455H605.168V162H603.893ZM604.537 154.445C604.315 154.445 604.125 154.371 603.966 154.223C603.81 154.072 603.732 153.893 603.732 153.686C603.732 153.476 603.81 153.297 603.966 153.149C604.125 152.999 604.315 152.923 604.537 152.923C604.759 152.923 604.947 152.999 605.104 153.149C605.263 153.297 605.342 153.476 605.342 153.686C605.342 153.893 605.263 154.072 605.104 154.223C604.947 154.371 604.759 154.445 604.537 154.445ZM606.72 162V153.273H607.994V156.516H608.071C608.145 156.379 608.251 156.222 608.39 156.043C608.53 155.864 608.723 155.707 608.97 155.574C609.217 155.438 609.544 155.369 609.95 155.369C610.479 155.369 610.95 155.503 611.365 155.77C611.78 156.037 612.105 156.422 612.341 156.925C612.579 157.428 612.699 158.033 612.699 158.74C612.699 159.447 612.581 160.054 612.345 160.56C612.109 161.062 611.785 161.45 611.373 161.723C610.962 161.993 610.491 162.128 609.963 162.128C609.565 162.128 609.24 162.061 608.987 161.928C608.737 161.794 608.541 161.638 608.399 161.459C608.257 161.28 608.148 161.121 608.071 160.982H607.964V162H606.72ZM607.969 158.727C607.969 159.187 608.035 159.591 608.169 159.938C608.302 160.284 608.496 160.555 608.748 160.751C609.001 160.945 609.311 161.041 609.677 161.041C610.058 161.041 610.376 160.94 610.632 160.739C610.888 160.534 611.081 160.257 611.212 159.908C611.345 159.558 611.412 159.165 611.412 158.727C611.412 158.295 611.346 157.908 611.216 157.564C611.088 157.22 610.895 156.949 610.636 156.75C610.381 156.551 610.061 156.452 609.677 156.452C609.308 156.452 608.996 156.547 608.74 156.737C608.487 156.928 608.295 157.193 608.165 157.534C608.034 157.875 607.969 158.273 607.969 158.727ZM614.705 162.081C614.472 162.081 614.272 161.999 614.104 161.834C613.937 161.666 613.853 161.464 613.853 161.229C613.853 160.996 613.937 160.797 614.104 160.632C614.272 160.464 614.472 160.381 614.705 160.381C614.938 160.381 615.138 160.464 615.306 160.632C615.473 160.797 615.557 160.996 615.557 161.229C615.557 161.385 615.517 161.528 615.438 161.659C615.361 161.787 615.259 161.889 615.131 161.966C615.003 162.043 614.861 162.081 614.705 162.081ZM614.705 157.317C614.472 157.317 614.272 157.233 614.104 157.065C613.937 156.898 613.853 156.697 613.853 156.464C613.853 156.232 613.937 156.033 614.104 155.868C614.272 155.7 614.472 155.616 614.705 155.616C614.938 155.616 615.138 155.7 615.306 155.868C615.473 156.033 615.557 156.232 615.557 156.464C615.557 156.621 615.517 156.764 615.438 156.895C615.361 157.023 615.259 157.125 615.131 157.202C615.003 157.278 614.861 157.317 614.705 157.317ZM620.055 155.455V156.477H616.48V155.455H620.055ZM617.439 153.886H618.713V160.078C618.713 160.325 618.75 160.511 618.824 160.636C618.898 160.759 618.993 160.842 619.109 160.888C619.229 160.93 619.358 160.952 619.497 160.952C619.599 160.952 619.689 160.945 619.766 160.93C619.842 160.916 619.902 160.905 619.945 160.896L620.175 161.949C620.101 161.977 619.996 162.006 619.859 162.034C619.723 162.065 619.552 162.082 619.348 162.085C619.013 162.091 618.7 162.031 618.41 161.906C618.121 161.781 617.886 161.588 617.707 161.327C617.528 161.065 617.439 160.737 617.439 160.342V153.886ZM623.951 162.132C623.307 162.132 622.751 161.994 622.285 161.719C621.822 161.44 621.464 161.05 621.211 160.547C620.961 160.041 620.836 159.449 620.836 158.77C620.836 158.099 620.961 157.509 621.211 156.997C621.464 156.486 621.817 156.087 622.268 155.8C622.723 155.513 623.254 155.369 623.862 155.369C624.231 155.369 624.589 155.43 624.936 155.553C625.282 155.675 625.594 155.866 625.869 156.128C626.145 156.389 626.362 156.729 626.521 157.146C626.68 157.561 626.76 158.065 626.76 158.659V159.111H621.557V158.156H625.511C625.511 157.821 625.443 157.524 625.307 157.266C625.17 157.004 624.978 156.798 624.731 156.648C624.487 156.497 624.2 156.422 623.871 156.422C623.513 156.422 623.2 156.51 622.933 156.686C622.669 156.859 622.464 157.087 622.319 157.368C622.177 157.646 622.106 157.949 622.106 158.276V159.021C622.106 159.459 622.183 159.831 622.336 160.138C622.493 160.445 622.71 160.679 622.988 160.841C623.267 161 623.592 161.08 623.964 161.08C624.206 161.08 624.426 161.045 624.625 160.977C624.824 160.906 624.996 160.801 625.14 160.662C625.285 160.523 625.396 160.351 625.473 160.146L626.679 160.364C626.582 160.719 626.409 161.03 626.159 161.297C625.912 161.561 625.601 161.767 625.226 161.915C624.853 162.06 624.429 162.132 623.951 162.132ZM632.814 157.053L631.659 157.257C631.611 157.109 631.534 156.969 631.429 156.835C631.327 156.702 631.188 156.592 631.012 156.507C630.836 156.422 630.615 156.379 630.351 156.379C629.99 156.379 629.689 156.46 629.448 156.622C629.206 156.781 629.086 156.987 629.086 157.24C629.086 157.459 629.167 157.635 629.328 157.768C629.49 157.902 629.752 158.011 630.113 158.097L631.152 158.335C631.755 158.474 632.203 158.689 632.499 158.979C632.794 159.268 632.942 159.645 632.942 160.108C632.942 160.5 632.828 160.849 632.601 161.156C632.377 161.46 632.063 161.699 631.659 161.872C631.259 162.045 630.794 162.132 630.266 162.132C629.533 162.132 628.935 161.976 628.472 161.663C628.009 161.348 627.725 160.901 627.62 160.321L628.851 160.134C628.928 160.455 629.086 160.697 629.324 160.862C629.563 161.024 629.874 161.105 630.257 161.105C630.675 161.105 631.009 161.018 631.259 160.845C631.509 160.669 631.634 160.455 631.634 160.202C631.634 159.997 631.557 159.825 631.404 159.686C631.253 159.547 631.022 159.442 630.709 159.371L629.601 159.128C628.99 158.989 628.539 158.767 628.246 158.463C627.956 158.159 627.811 157.774 627.811 157.308C627.811 156.922 627.919 156.584 628.135 156.294C628.351 156.004 628.649 155.778 629.03 155.616C629.411 155.452 629.847 155.369 630.338 155.369C631.046 155.369 631.603 155.523 632.009 155.83C632.415 156.134 632.684 156.541 632.814 157.053ZM637.134 155.455V156.477H633.559V155.455H637.134ZM634.518 153.886H635.792V160.078C635.792 160.325 635.829 160.511 635.903 160.636C635.977 160.759 636.072 160.842 636.188 160.888C636.308 160.93 636.437 160.952 636.576 160.952C636.678 160.952 636.768 160.945 636.845 160.93C636.921 160.916 636.981 160.905 637.024 160.896L637.254 161.949C637.18 161.977 637.075 162.006 636.938 162.034C636.802 162.065 636.632 162.082 636.427 162.085C636.092 162.091 635.779 162.031 635.49 161.906C635.2 161.781 634.965 161.588 634.786 161.327C634.607 161.065 634.518 160.737 634.518 160.342V153.886Z" fill="white"/>
<path d="M477.754 60.875V59.3636H486.76V60.875H483.129V71H481.379V60.875H477.754ZM489.614 71.1932C489.061 71.1932 488.561 71.0909 488.114 70.8864C487.667 70.678 487.313 70.3769 487.052 69.983C486.794 69.589 486.665 69.1061 486.665 68.5341C486.665 68.0417 486.76 67.6364 486.949 67.3182C487.139 67 487.394 66.7481 487.716 66.5625C488.038 66.3769 488.398 66.2367 488.796 66.142C489.194 66.0473 489.599 65.9754 490.012 65.9261C490.535 65.8655 490.959 65.8163 491.285 65.7784C491.61 65.7367 491.847 65.6705 491.995 65.5795C492.143 65.4886 492.216 65.3409 492.216 65.1364V65.0966C492.216 64.6004 492.076 64.2159 491.796 63.9432C491.519 63.6705 491.107 63.5341 490.557 63.5341C489.985 63.5341 489.535 63.661 489.205 63.9148C488.879 64.1648 488.654 64.4432 488.529 64.75L486.932 64.3864C487.122 63.8561 487.398 63.428 487.762 63.1023C488.129 62.7727 488.552 62.5341 489.029 62.3864C489.506 62.2348 490.008 62.1591 490.535 62.1591C490.883 62.1591 491.252 62.2008 491.643 62.2841C492.036 62.3636 492.404 62.5114 492.745 62.7273C493.09 62.9432 493.372 63.2519 493.591 63.6534C493.811 64.0511 493.921 64.5682 493.921 65.2045V71H492.262V69.8068H492.194C492.084 70.0265 491.919 70.2424 491.699 70.4545C491.48 70.6667 491.197 70.8428 490.853 70.983C490.508 71.1231 490.095 71.1932 489.614 71.1932ZM489.983 69.8295C490.453 69.8295 490.855 69.7367 491.188 69.5511C491.525 69.3655 491.781 69.1231 491.955 68.8239C492.133 68.5208 492.222 68.197 492.222 67.8523V66.7273C492.161 66.7879 492.044 66.8447 491.87 66.8977C491.699 66.947 491.504 66.9905 491.285 67.0284C491.065 67.0625 490.851 67.0947 490.643 67.125C490.434 67.1515 490.26 67.1742 490.12 67.1932C489.79 67.2348 489.489 67.3049 489.216 67.4034C488.947 67.5019 488.732 67.6439 488.569 67.8295C488.41 68.0114 488.33 68.2538 488.33 68.5568C488.33 68.9773 488.485 69.2955 488.796 69.5114C489.107 69.7235 489.502 69.8295 489.983 69.8295ZM502.372 64.4034L500.832 64.6761C500.767 64.4792 500.665 64.2917 500.525 64.1136C500.389 63.9356 500.203 63.7898 499.968 63.6761C499.733 63.5625 499.44 63.5057 499.087 63.5057C498.606 63.5057 498.205 63.6136 497.883 63.8295C497.561 64.0417 497.4 64.3163 497.4 64.6534C497.4 64.9451 497.508 65.1799 497.724 65.358C497.94 65.536 498.288 65.6818 498.769 65.7955L500.156 66.1136C500.959 66.2992 501.557 66.5852 501.951 66.9716C502.345 67.358 502.542 67.8598 502.542 68.4773C502.542 69 502.39 69.4659 502.087 69.875C501.788 70.2803 501.37 70.5985 500.832 70.8295C500.298 71.0606 499.678 71.1761 498.974 71.1761C497.997 71.1761 497.199 70.9678 496.582 70.5511C495.964 70.1307 495.586 69.5341 495.445 68.7614L497.087 68.5114C497.19 68.9394 497.4 69.2633 497.718 69.483C498.036 69.6989 498.451 69.8068 498.962 69.8068C499.519 69.8068 499.964 69.6913 500.298 69.4602C500.631 69.2254 500.798 68.9394 500.798 68.6023C500.798 68.3295 500.695 68.1004 500.491 67.9148C500.29 67.7292 499.981 67.589 499.565 67.4943L498.087 67.1705C497.273 66.9848 496.671 66.6894 496.281 66.2841C495.894 65.8788 495.701 65.3655 495.701 64.7443C495.701 64.2292 495.845 63.7784 496.133 63.392C496.421 63.0057 496.818 62.7045 497.326 62.4886C497.834 62.2689 498.415 62.1591 499.07 62.1591C500.014 62.1591 500.756 62.3636 501.298 62.7727C501.839 63.178 502.197 63.7216 502.372 64.4034ZM505.62 68.0398L505.609 65.9659H505.904L509.382 62.2727H511.416L507.45 66.4773H507.183L505.62 68.0398ZM504.058 71V59.3636H505.757V71H504.058ZM509.569 71L506.444 66.8523L507.615 65.6648L511.654 71H509.569ZM524.506 63.0398C524.396 62.6951 524.248 62.3864 524.063 62.1136C523.881 61.8371 523.663 61.6023 523.409 61.4091C523.155 61.2121 522.866 61.0625 522.54 60.9602C522.218 60.858 521.864 60.8068 521.477 60.8068C520.822 60.8068 520.231 60.9754 519.705 61.3125C519.178 61.6496 518.762 62.1439 518.455 62.7955C518.152 63.4432 518 64.2367 518 65.1761C518 66.1193 518.154 66.9167 518.46 67.5682C518.767 68.2197 519.188 68.714 519.722 69.0511C520.256 69.3883 520.864 69.5568 521.546 69.5568C522.178 69.5568 522.729 69.428 523.199 69.1705C523.673 68.9129 524.038 68.5492 524.296 68.0795C524.557 67.6061 524.688 67.0492 524.688 66.4091L525.142 66.4943H521.813V65.0455H526.387V66.3693C526.387 67.3466 526.178 68.1951 525.762 68.9148C525.349 69.6307 524.777 70.1837 524.046 70.5739C523.318 70.964 522.485 71.1591 521.546 71.1591C520.493 71.1591 519.568 70.9167 518.773 70.4318C517.981 69.947 517.364 69.2595 516.921 68.3693C516.477 67.4754 516.256 66.4148 516.256 65.1875C516.256 64.2595 516.385 63.4261 516.642 62.6875C516.9 61.9489 517.262 61.322 517.727 60.8068C518.197 60.2879 518.748 59.892 519.381 59.6193C520.017 59.3428 520.712 59.2045 521.466 59.2045C522.095 59.2045 522.68 59.2973 523.222 59.483C523.767 59.6686 524.252 59.9318 524.676 60.2727C525.104 60.6136 525.459 61.0189 525.739 61.4886C526.019 61.9545 526.209 62.4716 526.307 63.0398H524.506ZM528.127 71V62.2727H529.769V63.6591H529.86C530.019 63.1894 530.299 62.8201 530.701 62.5511C531.106 62.2784 531.564 62.142 532.076 62.142C532.182 62.142 532.307 62.1458 532.451 62.1534C532.598 62.161 532.714 62.1705 532.797 62.1818V63.8068C532.729 63.7879 532.608 63.767 532.434 63.7443C532.259 63.7178 532.085 63.7045 531.911 63.7045C531.509 63.7045 531.151 63.7898 530.837 63.9602C530.526 64.1269 530.28 64.3598 530.098 64.6591C529.917 64.9545 529.826 65.2917 529.826 65.6705V71H528.127ZM536.377 71.1932C535.824 71.1932 535.324 71.0909 534.877 70.8864C534.43 70.678 534.076 70.3769 533.815 69.983C533.557 69.589 533.428 69.1061 533.428 68.5341C533.428 68.0417 533.523 67.6364 533.712 67.3182C533.902 67 534.157 66.7481 534.479 66.5625C534.801 66.3769 535.161 66.2367 535.559 66.142C535.957 66.0473 536.362 65.9754 536.775 65.9261C537.298 65.8655 537.722 65.8163 538.048 65.7784C538.373 65.7367 538.61 65.6705 538.758 65.5795C538.906 65.4886 538.979 65.3409 538.979 65.1364V65.0966C538.979 64.6004 538.839 64.2159 538.559 63.9432C538.282 63.6705 537.87 63.5341 537.32 63.5341C536.748 63.5341 536.298 63.661 535.968 63.9148C535.642 64.1648 535.417 64.4432 535.292 64.75L533.695 64.3864C533.885 63.8561 534.161 63.428 534.525 63.1023C534.892 62.7727 535.315 62.5341 535.792 62.3864C536.269 62.2348 536.771 62.1591 537.298 62.1591C537.646 62.1591 538.015 62.2008 538.406 62.2841C538.799 62.3636 539.167 62.5114 539.508 62.7273C539.853 62.9432 540.135 63.2519 540.354 63.6534C540.574 64.0511 540.684 64.5682 540.684 65.2045V71H539.025V69.8068H538.957C538.847 70.0265 538.682 70.2424 538.462 70.4545C538.243 70.6667 537.96 70.8428 537.616 70.983C537.271 71.1231 536.858 71.1932 536.377 71.1932ZM536.746 69.8295C537.216 69.8295 537.618 69.7367 537.951 69.5511C538.288 69.3655 538.544 69.1231 538.718 68.8239C538.896 68.5208 538.985 68.197 538.985 67.8523V66.7273C538.924 66.7879 538.807 66.8447 538.633 66.8977C538.462 66.947 538.267 66.9905 538.048 67.0284C537.828 67.0625 537.614 67.0947 537.406 67.125C537.197 67.1515 537.023 67.1742 536.883 67.1932C536.553 67.2348 536.252 67.3049 535.979 67.4034C535.71 67.5019 535.495 67.6439 535.332 67.8295C535.173 68.0114 535.093 68.2538 535.093 68.5568C535.093 68.9773 535.248 69.2955 535.559 69.5114C535.87 69.7235 536.265 69.8295 536.746 69.8295ZM542.595 74.2727V62.2727H544.254V63.6875H544.396C544.494 63.5057 544.636 63.2955 544.822 63.0568C545.008 62.8182 545.265 62.6098 545.595 62.4318C545.924 62.25 546.36 62.1591 546.902 62.1591C547.606 62.1591 548.235 62.3371 548.788 62.6932C549.341 63.0492 549.775 63.5625 550.089 64.233C550.407 64.9034 550.566 65.7102 550.566 66.6534C550.566 67.5966 550.409 68.4053 550.095 69.0795C549.78 69.75 549.349 70.267 548.799 70.6307C548.25 70.9905 547.623 71.1705 546.919 71.1705C546.388 71.1705 545.955 71.0814 545.617 70.9034C545.284 70.7254 545.023 70.517 544.833 70.2784C544.644 70.0398 544.498 69.8277 544.396 69.642H544.294V74.2727H542.595ZM544.26 66.6364C544.26 67.25 544.349 67.7879 544.527 68.25C544.705 68.7121 544.962 69.0739 545.299 69.3352C545.636 69.5928 546.049 69.7216 546.538 69.7216C547.045 69.7216 547.47 69.5871 547.811 69.3182C548.152 69.0455 548.409 68.6761 548.583 68.2102C548.761 67.7443 548.85 67.2197 548.85 66.6364C548.85 66.0606 548.763 65.5436 548.589 65.0852C548.419 64.6269 548.161 64.2652 547.816 64C547.475 63.7348 547.049 63.6023 546.538 63.6023C546.045 63.6023 545.629 63.7292 545.288 63.983C544.951 64.2367 544.695 64.5909 544.521 65.0455C544.347 65.5 544.26 66.0303 544.26 66.6364ZM553.817 65.8182V71H552.118V59.3636H553.794V63.6932H553.902C554.106 63.2235 554.419 62.8504 554.839 62.5739C555.26 62.2973 555.809 62.1591 556.487 62.1591C557.086 62.1591 557.608 62.2822 558.055 62.5284C558.506 62.7746 558.854 63.142 559.101 63.6307C559.351 64.1155 559.476 64.7216 559.476 65.4489V71H557.777V65.6534C557.777 65.0133 557.612 64.517 557.283 64.1648C556.953 63.8087 556.495 63.6307 555.908 63.6307C555.506 63.6307 555.146 63.7159 554.828 63.8864C554.514 64.0568 554.265 64.3068 554.084 64.6364C553.906 64.9621 553.817 65.3561 553.817 65.8182ZM569.427 62.2727V63.6364H564.495V62.2727H569.427ZM565.847 71V61.2614C565.847 60.7159 565.966 60.2633 566.205 59.9034C566.444 59.5398 566.76 59.2689 567.154 59.0909C567.548 58.9091 567.976 58.8182 568.438 58.8182C568.779 58.8182 569.07 58.8466 569.313 58.9034C569.555 58.9564 569.735 59.0057 569.853 59.0511L569.455 60.4261C569.375 60.4034 569.273 60.3769 569.148 60.3466C569.023 60.3125 568.872 60.2955 568.694 60.2955C568.281 60.2955 567.985 60.3977 567.807 60.6023C567.633 60.8068 567.546 61.1023 567.546 61.4886V71H565.847ZM574.16 71.1761C573.342 71.1761 572.628 70.9886 572.018 70.6136C571.408 70.2386 570.934 69.714 570.597 69.0398C570.26 68.3655 570.092 67.5777 570.092 66.6761C570.092 65.7708 570.26 64.9792 570.597 64.3011C570.934 63.6231 571.408 63.0966 572.018 62.7216C572.628 62.3466 573.342 62.1591 574.16 62.1591C574.978 62.1591 575.692 62.3466 576.302 62.7216C576.912 63.0966 577.385 63.6231 577.722 64.3011C578.059 64.9792 578.228 65.7708 578.228 66.6761C578.228 67.5777 578.059 68.3655 577.722 69.0398C577.385 69.714 576.912 70.2386 576.302 70.6136C575.692 70.9886 574.978 71.1761 574.16 71.1761ZM574.165 69.75C574.696 69.75 575.135 69.6098 575.484 69.3295C575.832 69.0492 576.09 68.6761 576.256 68.2102C576.427 67.7443 576.512 67.2311 576.512 66.6705C576.512 66.1136 576.427 65.6023 576.256 65.1364C576.09 64.6667 575.832 64.2898 575.484 64.0057C575.135 63.7216 574.696 63.5795 574.165 63.5795C573.631 63.5795 573.188 63.7216 572.836 64.0057C572.487 64.2898 572.228 64.6667 572.057 65.1364C571.891 65.6023 571.807 66.1136 571.807 66.6705C571.807 67.2311 571.891 67.7443 572.057 68.2102C572.228 68.6761 572.487 69.0492 572.836 69.3295C573.188 69.6098 573.631 69.75 574.165 69.75ZM579.772 71V62.2727H581.414V63.6591H581.505C581.664 63.1894 581.945 62.8201 582.346 62.5511C582.751 62.2784 583.21 62.142 583.721 62.142C583.827 62.142 583.952 62.1458 584.096 62.1534C584.244 62.161 584.359 62.1705 584.443 62.1818V63.8068C584.375 63.7879 584.253 63.767 584.079 63.7443C583.905 63.7178 583.731 63.7045 583.556 63.7045C583.155 63.7045 582.797 63.7898 582.482 63.9602C582.172 64.1269 581.926 64.3598 581.744 64.6591C581.562 64.9545 581.471 65.2917 581.471 65.6705V71H579.772ZM586.68 71.108C586.37 71.108 586.103 70.9981 585.879 70.7784C585.656 70.5549 585.544 70.286 585.544 69.9716C585.544 69.661 585.656 69.3958 585.879 69.1761C586.103 68.9527 586.37 68.8409 586.68 68.8409C586.991 68.8409 587.258 68.9527 587.481 69.1761C587.705 69.3958 587.817 69.661 587.817 69.9716C587.817 70.1799 587.764 70.3712 587.657 70.5455C587.555 70.7159 587.419 70.8523 587.248 70.9545C587.078 71.0568 586.889 71.108 586.68 71.108ZM586.68 64.7557C586.37 64.7557 586.103 64.6439 585.879 64.4205C585.656 64.197 585.544 63.9299 585.544 63.6193C585.544 63.3087 585.656 63.0436 585.879 62.8239C586.103 62.6004 586.37 62.4886 586.68 62.4886C586.991 62.4886 587.258 62.6004 587.481 62.8239C587.705 63.0436 587.817 63.3087 587.817 63.6193C587.817 63.8277 587.764 64.0189 587.657 64.1932C587.555 64.3636 587.419 64.5 587.248 64.6023C587.078 64.7045 586.889 64.7557 586.68 64.7557Z" fill="#94A3B8"/>
<path d="M390.32 103.588C390.68 103.5 391.036 103.432 391.388 103.384C391.748 103.336 392.084 103.312 392.396 103.312C393.14 103.312 393.7 103.504 394.076 103.888C394.46 104.272 394.652 104.888 394.652 105.736V109H393.668V105.916C393.668 105.556 393.636 105.264 393.572 105.04C393.508 104.816 393.416 104.644 393.296 104.524C393.184 104.396 393.044 104.308 392.876 104.26C392.716 104.212 392.54 104.188 392.348 104.188C392.188 104.188 392.016 104.2 391.832 104.224C391.656 104.24 391.484 104.264 391.316 104.296V109H390.32V103.588ZM399.764 109C399.684 108.84 399.584 108.664 399.464 108.472C399.352 108.28 399.228 108.084 399.092 107.884C398.956 107.676 398.812 107.472 398.66 107.272C398.516 107.072 398.372 106.884 398.228 106.708C398.084 106.892 397.932 107.084 397.772 107.284C397.612 107.484 397.456 107.688 397.304 107.896C397.16 108.096 397.024 108.292 396.896 108.484C396.768 108.676 396.66 108.848 396.572 109H395.552C395.816 108.52 396.136 108.028 396.512 107.524C396.896 107.012 397.272 106.528 397.64 106.072L395.636 103.432H396.752L398.252 105.376L399.632 103.432H400.688L398.852 106.012C399.212 106.484 399.572 106.976 399.932 107.488C400.3 108 400.612 108.504 400.868 109H399.764ZM407.96 109V103.732C408.776 103.452 409.6 103.312 410.432 103.312C410.688 103.312 410.932 103.324 411.164 103.348C411.396 103.364 411.652 103.404 411.932 103.468L411.752 104.344C411.496 104.272 411.268 104.228 411.068 104.212C410.876 104.188 410.664 104.176 410.432 104.176C409.944 104.176 409.448 104.244 408.944 104.38V109H407.96ZM417.56 108.844C417.344 108.9 417.056 108.96 416.696 109.024C416.344 109.088 415.928 109.12 415.448 109.12C415.024 109.12 414.672 109.06 414.392 108.94C414.112 108.812 413.884 108.636 413.708 108.412C413.532 108.18 413.408 107.908 413.336 107.596C413.264 107.284 413.228 106.94 413.228 106.564V103.432H414.212V106.348C414.212 107.036 414.312 107.524 414.512 107.812C414.72 108.1 415.064 108.244 415.544 108.244C415.648 108.244 415.752 108.24 415.856 108.232C415.968 108.224 416.072 108.216 416.168 108.208C416.264 108.192 416.348 108.18 416.42 108.172C416.492 108.156 416.54 108.144 416.564 108.136V103.432H417.56V108.844ZM419 103.588C419.36 103.5 419.716 103.432 420.068 103.384C420.428 103.336 420.764 103.312 421.076 103.312C421.82 103.312 422.38 103.504 422.756 103.888C423.14 104.272 423.332 104.888 423.332 105.736V109H422.348V105.916C422.348 105.556 422.316 105.264 422.252 105.04C422.188 104.816 422.096 104.644 421.976 104.524C421.864 104.396 421.724 104.308 421.556 104.26C421.396 104.212 421.22 104.188 421.028 104.188C420.868 104.188 420.696 104.2 420.512 104.224C420.336 104.24 420.164 104.264 419.996 104.296V109H419V103.588ZM425.564 105.484H428.204V106.42H425.564V105.484ZM430.112 103.588C430.592 103.404 431.044 103.312 431.468 103.312C431.7 103.312 431.916 103.348 432.116 103.42C432.324 103.484 432.5 103.588 432.644 103.732C432.988 103.452 433.356 103.312 433.748 103.312C433.94 103.312 434.12 103.348 434.288 103.42C434.464 103.492 434.616 103.6 434.744 103.744C434.88 103.888 434.988 104.068 435.068 104.284C435.148 104.5 435.188 104.752 435.188 105.04V109H434.288V105.016C434.288 104.728 434.224 104.508 434.096 104.356C433.968 104.204 433.808 104.128 433.616 104.128C433.52 104.128 433.42 104.152 433.316 104.2C433.212 104.248 433.116 104.324 433.028 104.428C433.076 104.612 433.1 104.816 433.1 105.04V106.852H432.2V105.028C432.2 104.748 432.156 104.528 432.068 104.368C431.98 104.208 431.808 104.128 431.552 104.128C431.392 104.128 431.212 104.164 431.012 104.236V109H430.112V103.588ZM438.416 108.292C438.664 108.292 438.884 108.284 439.076 108.268C439.276 108.252 439.44 108.232 439.568 108.208V106.552C439.44 106.512 439.284 106.48 439.1 106.456C438.924 106.432 438.736 106.42 438.536 106.42C438.352 106.42 438.172 106.436 437.996 106.468C437.82 106.492 437.664 106.54 437.528 106.612C437.392 106.684 437.28 106.78 437.192 106.9C437.104 107.012 437.06 107.156 437.06 107.332C437.06 107.692 437.18 107.944 437.42 108.088C437.668 108.224 438 108.292 438.416 108.292ZM438.32 103.3C438.736 103.3 439.084 103.352 439.364 103.456C439.652 103.56 439.884 103.704 440.06 103.888C440.236 104.072 440.36 104.296 440.432 104.56C440.504 104.824 440.54 105.112 440.54 105.424V108.904C440.308 108.944 440 108.992 439.616 109.048C439.24 109.104 438.852 109.132 438.452 109.132C438.148 109.132 437.852 109.104 437.564 109.048C437.276 109 437.02 108.912 436.796 108.784C436.572 108.648 436.392 108.464 436.256 108.232C436.12 108 436.052 107.704 436.052 107.344C436.052 107.024 436.12 106.756 436.256 106.54C436.4 106.316 436.58 106.136 436.796 106C437.02 105.864 437.272 105.768 437.552 105.712C437.84 105.648 438.128 105.616 438.416 105.616C438.808 105.616 439.192 105.66 439.568 105.748V105.472C439.568 105.304 439.548 105.144 439.508 104.992C439.476 104.832 439.408 104.688 439.304 104.56C439.208 104.432 439.072 104.332 438.896 104.26C438.728 104.18 438.508 104.14 438.236 104.14C437.892 104.14 437.592 104.164 437.336 104.212C437.08 104.26 436.884 104.308 436.748 104.356L436.628 103.54C436.764 103.476 436.988 103.42 437.3 103.372C437.62 103.324 437.96 103.3 438.32 103.3ZM441.944 103.588C442.304 103.5 442.66 103.432 443.012 103.384C443.372 103.336 443.708 103.312 444.02 103.312C444.764 103.312 445.324 103.504 445.7 103.888C446.084 104.272 446.276 104.888 446.276 105.736V109H445.292V105.916C445.292 105.556 445.26 105.264 445.196 105.04C445.132 104.816 445.04 104.644 444.92 104.524C444.808 104.396 444.668 104.308 444.5 104.26C444.34 104.212 444.164 104.188 443.972 104.188C443.812 104.188 443.64 104.2 443.456 104.224C443.28 104.24 443.108 104.264 442.94 104.296V109H441.944V103.588ZM447.44 110.044C447.512 110.084 447.612 110.116 447.74 110.14C447.876 110.164 448 110.176 448.112 110.176C448.504 110.176 448.808 110.088 449.024 109.912C449.248 109.744 449.452 109.464 449.636 109.072C449.188 108.224 448.768 107.316 448.376 106.348C447.984 105.372 447.66 104.4 447.404 103.432H448.484C448.564 103.752 448.656 104.1 448.76 104.476C448.872 104.844 448.996 105.224 449.132 105.616C449.268 106.008 449.412 106.404 449.564 106.804C449.724 107.196 449.892 107.572 450.068 107.932C450.196 107.564 450.316 107.2 450.428 106.84C450.54 106.48 450.644 106.12 450.74 105.76C450.836 105.392 450.932 105.02 451.028 104.644C451.124 104.26 451.224 103.856 451.328 103.432H452.36C452.104 104.472 451.816 105.48 451.496 106.456C451.184 107.432 450.848 108.336 450.488 109.168C450.352 109.488 450.204 109.764 450.044 109.996C449.892 110.228 449.724 110.42 449.54 110.572C449.356 110.724 449.148 110.836 448.916 110.908C448.684 110.98 448.42 111.016 448.124 111.016C447.972 111.016 447.804 110.996 447.62 110.956C447.444 110.916 447.324 110.88 447.26 110.848L447.44 110.044ZM459.98 105.484H462.62V106.42H459.98V105.484ZM465.716 105.484H468.356V106.42H465.716V105.484ZM472.688 103.432H475.04V104.26H472.688V106.852C472.688 107.132 472.708 107.36 472.748 107.536C472.788 107.712 472.852 107.856 472.94 107.968C473.036 108.072 473.156 108.144 473.3 108.184C473.444 108.224 473.62 108.244 473.828 108.244C474.116 108.244 474.348 108.22 474.524 108.172C474.7 108.124 474.868 108.06 475.028 107.98L475.172 108.82C475.06 108.868 474.88 108.932 474.632 109.012C474.392 109.092 474.092 109.132 473.732 109.132C473.316 109.132 472.976 109.084 472.712 108.988C472.448 108.892 472.24 108.748 472.088 108.556C471.944 108.364 471.844 108.128 471.788 107.848C471.732 107.56 471.704 107.228 471.704 106.852V104.26H470.528V103.432H471.704V101.872L472.688 101.704V103.432ZM478.568 108.292C478.816 108.292 479.036 108.284 479.228 108.268C479.428 108.252 479.592 108.232 479.72 108.208V106.552C479.592 106.512 479.436 106.48 479.252 106.456C479.076 106.432 478.888 106.42 478.688 106.42C478.504 106.42 478.324 106.436 478.148 106.468C477.972 106.492 477.816 106.54 477.68 106.612C477.544 106.684 477.432 106.78 477.344 106.9C477.256 107.012 477.212 107.156 477.212 107.332C477.212 107.692 477.332 107.944 477.572 108.088C477.82 108.224 478.152 108.292 478.568 108.292ZM478.472 103.3C478.888 103.3 479.236 103.352 479.516 103.456C479.804 103.56 480.036 103.704 480.212 103.888C480.388 104.072 480.512 104.296 480.584 104.56C480.656 104.824 480.692 105.112 480.692 105.424V108.904C480.46 108.944 480.152 108.992 479.768 109.048C479.392 109.104 479.004 109.132 478.604 109.132C478.3 109.132 478.004 109.104 477.716 109.048C477.428 109 477.172 108.912 476.948 108.784C476.724 108.648 476.544 108.464 476.408 108.232C476.272 108 476.204 107.704 476.204 107.344C476.204 107.024 476.272 106.756 476.408 106.54C476.552 106.316 476.732 106.136 476.948 106C477.172 105.864 477.424 105.768 477.704 105.712C477.992 105.648 478.28 105.616 478.568 105.616C478.96 105.616 479.344 105.66 479.72 105.748V105.472C479.72 105.304 479.7 105.144 479.66 104.992C479.628 104.832 479.56 104.688 479.456 104.56C479.36 104.432 479.224 104.332 479.048 104.26C478.88 104.18 478.66 104.14 478.388 104.14C478.044 104.14 477.744 104.164 477.488 104.212C477.232 104.26 477.036 104.308 476.9 104.356L476.78 103.54C476.916 103.476 477.14 103.42 477.452 103.372C477.772 103.324 478.112 103.3 478.472 103.3ZM482.528 109V103.732C483.344 103.452 484.168 103.312 485 103.312C485.256 103.312 485.5 103.324 485.732 103.348C485.964 103.364 486.22 103.404 486.5 103.468L486.32 104.344C486.064 104.272 485.836 104.228 485.636 104.212C485.444 104.188 485.232 104.176 485 104.176C484.512 104.176 484.016 104.244 483.512 104.38V109H482.528ZM491.132 108.484C491.02 108.548 490.848 108.616 490.616 108.688C490.384 108.76 490.116 108.796 489.812 108.796C489.484 108.796 489.176 108.744 488.888 108.64C488.608 108.528 488.36 108.364 488.144 108.148C487.936 107.924 487.768 107.644 487.64 107.308C487.52 106.964 487.46 106.56 487.46 106.096C487.46 105.688 487.516 105.316 487.628 104.98C487.748 104.636 487.916 104.34 488.132 104.092C488.356 103.844 488.628 103.652 488.948 103.516C489.268 103.372 489.632 103.3 490.04 103.3C490.52 103.3 490.928 103.336 491.264 103.408C491.608 103.472 491.896 103.536 492.128 103.6V108.568C492.128 109.432 491.908 110.056 491.468 110.44C491.036 110.824 490.38 111.016 489.5 111.016C489.14 111.016 488.812 110.988 488.516 110.932C488.228 110.876 487.972 110.808 487.748 110.728L487.928 109.852C488.136 109.94 488.372 110.012 488.636 110.068C488.908 110.124 489.204 110.152 489.524 110.152C490.1 110.152 490.512 110.036 490.76 109.804C491.008 109.572 491.132 109.196 491.132 108.676V108.484ZM491.132 104.308C491.036 104.276 490.904 104.248 490.736 104.224C490.568 104.192 490.34 104.176 490.052 104.176C489.54 104.176 489.148 104.352 488.876 104.704C488.612 105.056 488.48 105.524 488.48 106.108C488.48 106.428 488.516 106.704 488.588 106.936C488.668 107.16 488.772 107.348 488.9 107.5C489.036 107.644 489.188 107.752 489.356 107.824C489.524 107.888 489.704 107.92 489.896 107.92C490.144 107.92 490.376 107.884 490.592 107.812C490.816 107.74 490.996 107.656 491.132 107.56V104.308ZM495.824 103.3C496.576 103.3 497.156 103.536 497.564 104.008C497.972 104.472 498.176 105.18 498.176 106.132V106.48H494.192C494.232 107.056 494.42 107.496 494.756 107.8C495.1 108.096 495.58 108.244 496.196 108.244C496.548 108.244 496.848 108.216 497.096 108.16C497.344 108.104 497.532 108.044 497.66 107.98L497.792 108.82C497.672 108.884 497.456 108.952 497.144 109.024C496.832 109.096 496.48 109.132 496.088 109.132C495.608 109.132 495.184 109.06 494.816 108.916C494.456 108.764 494.156 108.56 493.916 108.304C493.676 108.048 493.496 107.744 493.376 107.392C493.256 107.032 493.196 106.644 493.196 106.228C493.196 105.732 493.272 105.3 493.424 104.932C493.576 104.564 493.776 104.26 494.024 104.02C494.272 103.78 494.552 103.6 494.864 103.48C495.176 103.36 495.496 103.3 495.824 103.3ZM497.168 105.676C497.168 105.204 497.044 104.832 496.796 104.56C496.548 104.28 496.22 104.14 495.812 104.14C495.58 104.14 495.368 104.184 495.176 104.272C494.992 104.36 494.832 104.476 494.696 104.62C494.56 104.764 494.452 104.928 494.372 105.112C494.292 105.296 494.24 105.484 494.216 105.676H497.168ZM501.368 103.432H503.72V104.26H501.368V106.852C501.368 107.132 501.388 107.36 501.428 107.536C501.468 107.712 501.532 107.856 501.62 107.968C501.716 108.072 501.836 108.144 501.98 108.184C502.124 108.224 502.3 108.244 502.508 108.244C502.796 108.244 503.028 108.22 503.204 108.172C503.38 108.124 503.548 108.06 503.708 107.98L503.852 108.82C503.74 108.868 503.56 108.932 503.312 109.012C503.072 109.092 502.772 109.132 502.412 109.132C501.996 109.132 501.656 109.084 501.392 108.988C501.128 108.892 500.92 108.748 500.768 108.556C500.624 108.364 500.524 108.128 500.468 107.848C500.412 107.56 500.384 107.228 500.384 106.852V104.26H499.208V103.432H500.384V101.872L501.368 101.704V103.432ZM504.74 106.564H509.648V107.416H504.74V106.564ZM504.74 104.284H509.648V105.136H504.74V104.284ZM512.84 103.432H515.192V104.26H512.84V106.852C512.84 107.132 512.86 107.36 512.9 107.536C512.94 107.712 513.004 107.856 513.092 107.968C513.188 108.072 513.308 108.144 513.452 108.184C513.596 108.224 513.772 108.244 513.98 108.244C514.268 108.244 514.5 108.22 514.676 108.172C514.852 108.124 515.02 108.06 515.18 107.98L515.324 108.82C515.212 108.868 515.032 108.932 514.784 109.012C514.544 109.092 514.244 109.132 513.884 109.132C513.468 109.132 513.128 109.084 512.864 108.988C512.6 108.892 512.392 108.748 512.24 108.556C512.096 108.364 511.996 108.128 511.94 107.848C511.884 107.56 511.856 107.228 511.856 106.852V104.26H510.68V103.432H511.856V101.872L512.84 101.704V103.432ZM518.768 103.3C519.52 103.3 520.1 103.536 520.508 104.008C520.916 104.472 521.12 105.18 521.12 106.132V106.48H517.136C517.176 107.056 517.364 107.496 517.7 107.8C518.044 108.096 518.524 108.244 519.14 108.244C519.492 108.244 519.792 108.216 520.04 108.16C520.288 108.104 520.476 108.044 520.604 107.98L520.736 108.82C520.616 108.884 520.4 108.952 520.088 109.024C519.776 109.096 519.424 109.132 519.032 109.132C518.552 109.132 518.128 109.06 517.76 108.916C517.4 108.764 517.1 108.56 516.86 108.304C516.62 108.048 516.44 107.744 516.32 107.392C516.2 107.032 516.14 106.644 516.14 106.228C516.14 105.732 516.216 105.3 516.368 104.932C516.52 104.564 516.72 104.26 516.968 104.02C517.216 103.78 517.496 103.6 517.808 103.48C518.12 103.36 518.44 103.3 518.768 103.3ZM520.112 105.676C520.112 105.204 519.988 104.832 519.74 104.56C519.492 104.28 519.164 104.14 518.756 104.14C518.524 104.14 518.312 104.184 518.12 104.272C517.936 104.36 517.776 104.476 517.64 104.62C517.504 104.764 517.396 104.928 517.316 105.112C517.236 105.296 517.184 105.484 517.16 105.676H520.112ZM525.608 107.608C525.608 107.408 525.524 107.244 525.356 107.116C525.196 106.988 524.992 106.876 524.744 106.78C524.504 106.684 524.24 106.592 523.952 106.504C523.664 106.408 523.396 106.292 523.148 106.156C522.908 106.02 522.704 105.852 522.536 105.652C522.376 105.452 522.296 105.192 522.296 104.872C522.296 104.424 522.476 104.052 522.836 103.756C523.204 103.452 523.776 103.3 524.552 103.3C524.856 103.3 525.168 103.324 525.488 103.372C525.816 103.412 526.096 103.468 526.328 103.54L526.148 104.428C526.084 104.396 525.996 104.364 525.884 104.332C525.772 104.292 525.644 104.26 525.5 104.236C525.356 104.204 525.2 104.18 525.032 104.164C524.872 104.148 524.716 104.14 524.564 104.14C523.7 104.14 523.268 104.376 523.268 104.848C523.268 105.016 523.348 105.16 523.508 105.28C523.676 105.392 523.884 105.496 524.132 105.592C524.38 105.688 524.648 105.788 524.936 105.892C525.224 105.988 525.492 106.108 525.74 106.252C525.988 106.396 526.192 106.572 526.352 106.78C526.52 106.98 526.604 107.236 526.604 107.548C526.604 108.052 526.408 108.444 526.016 108.724C525.624 108.996 525.004 109.132 524.156 109.132C523.772 109.132 523.42 109.1 523.1 109.036C522.78 108.972 522.476 108.876 522.188 108.748L522.38 107.848C522.66 107.976 522.952 108.084 523.256 108.172C523.568 108.252 523.9 108.292 524.252 108.292C525.156 108.292 525.608 108.064 525.608 107.608ZM530.048 103.432H532.4V104.26H530.048V106.852C530.048 107.132 530.068 107.36 530.108 107.536C530.148 107.712 530.212 107.856 530.3 107.968C530.396 108.072 530.516 108.144 530.66 108.184C530.804 108.224 530.98 108.244 531.188 108.244C531.476 108.244 531.708 108.22 531.884 108.172C532.06 108.124 532.228 108.06 532.388 107.98L532.532 108.82C532.42 108.868 532.24 108.932 531.992 109.012C531.752 109.092 531.452 109.132 531.092 109.132C530.676 109.132 530.336 109.084 530.072 108.988C529.808 108.892 529.6 108.748 529.448 108.556C529.304 108.364 529.204 108.128 529.148 107.848C529.092 107.56 529.064 107.228 529.064 106.852V104.26H527.888V103.432H529.064V101.872L530.048 101.704V103.432ZM540.284 105.484H542.924V106.42H540.284V105.484ZM546.02 105.484H548.66V106.42H546.02V105.484ZM554.576 106.228C554.576 105.58 554.424 105.08 554.12 104.728C553.816 104.368 553.42 104.188 552.932 104.188C552.66 104.188 552.444 104.2 552.284 104.224C552.132 104.248 552.012 104.276 551.924 104.308V107.824C552.036 107.928 552.2 108.024 552.416 108.112C552.632 108.2 552.856 108.244 553.088 108.244C553.352 108.244 553.576 108.192 553.76 108.088C553.952 107.984 554.108 107.844 554.228 107.668C554.348 107.484 554.436 107.272 554.492 107.032C554.548 106.784 554.576 106.516 554.576 106.228ZM555.596 106.228C555.596 106.652 555.54 107.044 555.428 107.404C555.324 107.756 555.168 108.06 554.96 108.316C554.76 108.572 554.512 108.772 554.216 108.916C553.92 109.06 553.584 109.132 553.208 109.132C552.912 109.132 552.652 109.096 552.428 109.024C552.204 108.952 552.036 108.872 551.924 108.784V110.98H550.928V103.6C551.144 103.536 551.42 103.472 551.756 103.408C552.1 103.344 552.492 103.312 552.932 103.312C553.332 103.312 553.696 103.38 554.024 103.516C554.352 103.652 554.632 103.848 554.864 104.104C555.096 104.352 555.276 104.656 555.404 105.016C555.532 105.376 555.596 105.78 555.596 106.228ZM557.096 109V103.732C557.912 103.452 558.736 103.312 559.568 103.312C559.824 103.312 560.068 103.324 560.3 103.348C560.532 103.364 560.788 103.404 561.068 103.468L560.888 104.344C560.632 104.272 560.404 104.228 560.204 104.212C560.012 104.188 559.8 104.176 559.568 104.176C559.08 104.176 558.584 104.244 558.08 104.38V109H557.096ZM567.068 106.216C567.068 106.656 567.004 107.056 566.876 107.416C566.756 107.768 566.584 108.072 566.36 108.328C566.136 108.584 565.868 108.784 565.556 108.928C565.244 109.064 564.904 109.132 564.536 109.132C564.176 109.132 563.84 109.064 563.528 108.928C563.224 108.784 562.96 108.584 562.736 108.328C562.512 108.072 562.336 107.768 562.208 107.416C562.088 107.056 562.028 106.656 562.028 106.216C562.028 105.776 562.088 105.376 562.208 105.016C562.336 104.656 562.512 104.352 562.736 104.104C562.96 103.848 563.224 103.652 563.528 103.516C563.84 103.372 564.176 103.3 564.536 103.3C564.904 103.3 565.244 103.372 565.556 103.516C565.868 103.652 566.136 103.848 566.36 104.104C566.584 104.352 566.756 104.656 566.876 105.016C567.004 105.376 567.068 105.776 567.068 106.216ZM566.048 106.216C566.048 105.584 565.912 105.088 565.64 104.728C565.368 104.36 565 104.176 564.536 104.176C564.08 104.176 563.716 104.36 563.444 104.728C563.18 105.088 563.048 105.584 563.048 106.216C563.048 106.84 563.18 107.336 563.444 107.704C563.716 108.064 564.08 108.244 564.536 108.244C565 108.244 565.368 108.064 565.64 107.704C565.912 107.336 566.048 106.84 566.048 106.216ZM570.98 102.568C570.772 102.568 570.592 102.496 570.44 102.352C570.288 102.208 570.212 102.012 570.212 101.764C570.212 101.516 570.288 101.32 570.44 101.176C570.592 101.032 570.772 100.96 570.98 100.96C571.196 100.96 571.376 101.032 571.52 101.176C571.672 101.32 571.748 101.516 571.748 101.764C571.748 102.012 571.672 102.208 571.52 102.352C571.376 102.496 571.196 102.568 570.98 102.568ZM568.652 104.26V103.432H571.892V108.94C571.892 109.324 571.836 109.648 571.724 109.912C571.62 110.184 571.476 110.404 571.292 110.572C571.116 110.74 570.908 110.86 570.668 110.932C570.436 111.004 570.188 111.04 569.924 111.04C569.62 111.04 569.312 111.008 569 110.944C568.696 110.88 568.408 110.78 568.136 110.644L568.436 109.804C568.636 109.9 568.856 109.98 569.096 110.044C569.344 110.116 569.58 110.152 569.804 110.152C570.124 110.152 570.388 110.068 570.596 109.9C570.804 109.74 570.908 109.424 570.908 108.952V104.26H568.652ZM576.128 103.3C576.88 103.3 577.46 103.536 577.868 104.008C578.276 104.472 578.48 105.18 578.48 106.132V106.48H574.496C574.536 107.056 574.724 107.496 575.06 107.8C575.404 108.096 575.884 108.244 576.5 108.244C576.852 108.244 577.152 108.216 577.4 108.16C577.648 108.104 577.836 108.044 577.964 107.98L578.096 108.82C577.976 108.884 577.76 108.952 577.448 109.024C577.136 109.096 576.784 109.132 576.392 109.132C575.912 109.132 575.488 109.06 575.12 108.916C574.76 108.764 574.46 108.56 574.22 108.304C573.98 108.048 573.8 107.744 573.68 107.392C573.56 107.032 573.5 106.644 573.5 106.228C573.5 105.732 573.576 105.3 573.728 104.932C573.88 104.564 574.08 104.26 574.328 104.02C574.576 103.78 574.856 103.6 575.168 103.48C575.48 103.36 575.8 103.3 576.128 103.3ZM577.472 105.676C577.472 105.204 577.348 104.832 577.1 104.56C576.852 104.28 576.524 104.14 576.116 104.14C575.884 104.14 575.672 104.184 575.48 104.272C575.296 104.36 575.136 104.476 575 104.62C574.864 104.764 574.756 104.928 574.676 105.112C574.596 105.296 574.544 105.484 574.52 105.676H577.472ZM579.344 106.228C579.344 105.724 579.424 105.288 579.584 104.92C579.744 104.552 579.964 104.248 580.244 104.008C580.524 103.768 580.848 103.592 581.216 103.48C581.592 103.36 581.992 103.3 582.416 103.3C582.688 103.3 582.956 103.32 583.22 103.36C583.492 103.392 583.78 103.456 584.084 103.552L583.856 104.404C583.592 104.308 583.348 104.248 583.124 104.224C582.908 104.192 582.688 104.176 582.464 104.176C582.176 104.176 581.904 104.216 581.648 104.296C581.392 104.368 581.168 104.488 580.976 104.656C580.792 104.816 580.644 105.028 580.532 105.292C580.42 105.548 580.364 105.86 580.364 106.228C580.364 106.58 580.416 106.884 580.52 107.14C580.624 107.388 580.768 107.596 580.952 107.764C581.144 107.924 581.372 108.044 581.636 108.124C581.9 108.204 582.192 108.244 582.512 108.244C582.768 108.244 583.012 108.232 583.244 108.208C583.484 108.176 583.744 108.112 584.024 108.016L584.168 108.844C583.888 108.948 583.604 109.02 583.316 109.06C583.028 109.108 582.716 109.132 582.38 109.132C581.932 109.132 581.52 109.072 581.144 108.952C580.776 108.824 580.456 108.64 580.184 108.4C579.92 108.16 579.712 107.86 579.56 107.5C579.416 107.132 579.344 106.708 579.344 106.228ZM587.408 103.432H589.76V104.26H587.408V106.852C587.408 107.132 587.428 107.36 587.468 107.536C587.508 107.712 587.572 107.856 587.66 107.968C587.756 108.072 587.876 108.144 588.02 108.184C588.164 108.224 588.34 108.244 588.548 108.244C588.836 108.244 589.068 108.22 589.244 108.172C589.42 108.124 589.588 108.06 589.748 107.98L589.892 108.82C589.78 108.868 589.6 108.932 589.352 109.012C589.112 109.092 588.812 109.132 588.452 109.132C588.036 109.132 587.696 109.084 587.432 108.988C587.168 108.892 586.96 108.748 586.808 108.556C586.664 108.364 586.564 108.128 586.508 107.848C586.452 107.56 586.424 107.228 586.424 106.852V104.26H585.248V103.432H586.424V101.872L587.408 101.704V103.432ZM594.44 107.608C594.44 107.408 594.356 107.244 594.188 107.116C594.028 106.988 593.824 106.876 593.576 106.78C593.336 106.684 593.072 106.592 592.784 106.504C592.496 106.408 592.228 106.292 591.98 106.156C591.74 106.02 591.536 105.852 591.368 105.652C591.208 105.452 591.128 105.192 591.128 104.872C591.128 104.424 591.308 104.052 591.668 103.756C592.036 103.452 592.608 103.3 593.384 103.3C593.688 103.3 594 103.324 594.32 103.372C594.648 103.412 594.928 103.468 595.16 103.54L594.98 104.428C594.916 104.396 594.828 104.364 594.716 104.332C594.604 104.292 594.476 104.26 594.332 104.236C594.188 104.204 594.032 104.18 593.864 104.164C593.704 104.148 593.548 104.14 593.396 104.14C592.532 104.14 592.1 104.376 592.1 104.848C592.1 105.016 592.18 105.16 592.34 105.28C592.508 105.392 592.716 105.496 592.964 105.592C593.212 105.688 593.48 105.788 593.768 105.892C594.056 105.988 594.324 106.108 594.572 106.252C594.82 106.396 595.024 106.572 595.184 106.78C595.352 106.98 595.436 107.236 595.436 107.548C595.436 108.052 595.24 108.444 594.848 108.724C594.456 108.996 593.836 109.132 592.988 109.132C592.604 109.132 592.252 109.1 591.932 109.036C591.612 108.972 591.308 108.876 591.02 108.748L591.212 107.848C591.492 107.976 591.784 108.084 592.088 108.172C592.4 108.252 592.732 108.292 593.084 108.292C593.988 108.292 594.44 108.064 594.44 107.608ZM596.516 106.564H601.424V107.416H596.516V106.564ZM596.516 104.284H601.424V105.136H596.516V104.284ZM604.76 108.292C605.008 108.292 605.228 108.284 605.42 108.268C605.62 108.252 605.784 108.232 605.912 108.208V106.552C605.784 106.512 605.628 106.48 605.444 106.456C605.268 106.432 605.08 106.42 604.88 106.42C604.696 106.42 604.516 106.436 604.34 106.468C604.164 106.492 604.008 106.54 603.872 106.612C603.736 106.684 603.624 106.78 603.536 106.9C603.448 107.012 603.404 107.156 603.404 107.332C603.404 107.692 603.524 107.944 603.764 108.088C604.012 108.224 604.344 108.292 604.76 108.292ZM604.664 103.3C605.08 103.3 605.428 103.352 605.708 103.456C605.996 103.56 606.228 103.704 606.404 103.888C606.58 104.072 606.704 104.296 606.776 104.56C606.848 104.824 606.884 105.112 606.884 105.424V108.904C606.652 108.944 606.344 108.992 605.96 109.048C605.584 109.104 605.196 109.132 604.796 109.132C604.492 109.132 604.196 109.104 603.908 109.048C603.62 109 603.364 108.912 603.14 108.784C602.916 108.648 602.736 108.464 602.6 108.232C602.464 108 602.396 107.704 602.396 107.344C602.396 107.024 602.464 106.756 602.6 106.54C602.744 106.316 602.924 106.136 603.14 106C603.364 105.864 603.616 105.768 603.896 105.712C604.184 105.648 604.472 105.616 604.76 105.616C605.152 105.616 605.536 105.66 605.912 105.748V105.472C605.912 105.304 605.892 105.144 605.852 104.992C605.82 104.832 605.752 104.688 605.648 104.56C605.552 104.432 605.416 104.332 605.24 104.26C605.072 104.18 604.852 104.14 604.58 104.14C604.236 104.14 603.936 104.164 603.68 104.212C603.424 104.26 603.228 104.308 603.092 104.356L602.972 103.54C603.108 103.476 603.332 103.42 603.644 103.372C603.964 103.324 604.304 103.3 604.664 103.3ZM611.936 106.228C611.936 105.58 611.784 105.08 611.48 104.728C611.176 104.368 610.78 104.188 610.292 104.188C610.02 104.188 609.804 104.2 609.644 104.224C609.492 104.248 609.372 104.276 609.284 104.308V107.824C609.396 107.928 609.56 108.024 609.776 108.112C609.992 108.2 610.216 108.244 610.448 108.244C610.712 108.244 610.936 108.192 611.12 108.088C611.312 107.984 611.468 107.844 611.588 107.668C611.708 107.484 611.796 107.272 611.852 107.032C611.908 106.784 611.936 106.516 611.936 106.228ZM612.956 106.228C612.956 106.652 612.9 107.044 612.788 107.404C612.684 107.756 612.528 108.06 612.32 108.316C612.12 108.572 611.872 108.772 611.576 108.916C611.28 109.06 610.944 109.132 610.568 109.132C610.272 109.132 610.012 109.096 609.788 109.024C609.564 108.952 609.396 108.872 609.284 108.784V110.98H608.288V103.6C608.504 103.536 608.78 103.472 609.116 103.408C609.46 103.344 609.852 103.312 610.292 103.312C610.692 103.312 611.056 103.38 611.384 103.516C611.712 103.652 611.992 103.848 612.224 104.104C612.456 104.352 612.636 104.656 612.764 105.016C612.892 105.376 612.956 105.78 612.956 106.228ZM617.672 106.228C617.672 105.58 617.52 105.08 617.216 104.728C616.912 104.368 616.516 104.188 616.028 104.188C615.756 104.188 615.54 104.2 615.38 104.224C615.228 104.248 615.108 104.276 615.02 104.308V107.824C615.132 107.928 615.296 108.024 615.512 108.112C615.728 108.2 615.952 108.244 616.184 108.244C616.448 108.244 616.672 108.192 616.856 108.088C617.048 107.984 617.204 107.844 617.324 107.668C617.444 107.484 617.532 107.272 617.588 107.032C617.644 106.784 617.672 106.516 617.672 106.228ZM618.692 106.228C618.692 106.652 618.636 107.044 618.524 107.404C618.42 107.756 618.264 108.06 618.056 108.316C617.856 108.572 617.608 108.772 617.312 108.916C617.016 109.06 616.68 109.132 616.304 109.132C616.008 109.132 615.748 109.096 615.524 109.024C615.3 108.952 615.132 108.872 615.02 108.784V110.98H614.024V103.6C614.24 103.536 614.516 103.472 614.852 103.408C615.196 103.344 615.588 103.312 616.028 103.312C616.428 103.312 616.792 103.38 617.12 103.516C617.448 103.652 617.728 103.848 617.96 104.104C618.192 104.352 618.372 104.656 618.5 105.016C618.628 105.376 618.692 105.78 618.692 106.228ZM619.808 103.108C620.216 102.948 620.612 102.748 620.996 102.508C621.38 102.26 621.736 101.948 622.064 101.572H622.76V108.16H624.164V109H620.168V108.16H621.776V102.952C621.688 103.032 621.58 103.116 621.452 103.204C621.332 103.284 621.196 103.364 621.044 103.444C620.9 103.524 620.748 103.6 620.588 103.672C620.428 103.744 620.272 103.804 620.12 103.852L619.808 103.108ZM626.432 109.948C626.576 109.916 626.716 109.884 626.852 109.852C626.996 109.82 627.128 109.772 627.248 109.708C627.368 109.652 627.476 109.576 627.572 109.48C627.668 109.392 627.744 109.268 627.8 109.108C627.544 109.084 627.356 108.988 627.236 108.82C627.124 108.644 627.068 108.472 627.068 108.304C627.068 107.984 627.156 107.744 627.332 107.584C627.516 107.416 627.724 107.332 627.956 107.332C628.252 107.332 628.476 107.44 628.628 107.656C628.78 107.864 628.856 108.12 628.856 108.424C628.856 108.656 628.808 108.896 628.712 109.144C628.624 109.4 628.484 109.636 628.292 109.852C628.108 110.076 627.876 110.264 627.596 110.416C627.316 110.576 626.984 110.68 626.6 110.728L626.432 109.948ZM633.44 108.292C633.688 108.292 633.908 108.284 634.1 108.268C634.3 108.252 634.464 108.232 634.592 108.208V106.552C634.464 106.512 634.308 106.48 634.124 106.456C633.948 106.432 633.76 106.42 633.56 106.42C633.376 106.42 633.196 106.436 633.02 106.468C632.844 106.492 632.688 106.54 632.552 106.612C632.416 106.684 632.304 106.78 632.216 106.9C632.128 107.012 632.084 107.156 632.084 107.332C632.084 107.692 632.204 107.944 632.444 108.088C632.692 108.224 633.024 108.292 633.44 108.292ZM633.344 103.3C633.76 103.3 634.108 103.352 634.388 103.456C634.676 103.56 634.908 103.704 635.084 103.888C635.26 104.072 635.384 104.296 635.456 104.56C635.528 104.824 635.564 105.112 635.564 105.424V108.904C635.332 108.944 635.024 108.992 634.64 109.048C634.264 109.104 633.876 109.132 633.476 109.132C633.172 109.132 632.876 109.104 632.588 109.048C632.3 109 632.044 108.912 631.82 108.784C631.596 108.648 631.416 108.464 631.28 108.232C631.144 108 631.076 107.704 631.076 107.344C631.076 107.024 631.144 106.756 631.28 106.54C631.424 106.316 631.604 106.136 631.82 106C632.044 105.864 632.296 105.768 632.576 105.712C632.864 105.648 633.152 105.616 633.44 105.616C633.832 105.616 634.216 105.66 634.592 105.748V105.472C634.592 105.304 634.572 105.144 634.532 104.992C634.5 104.832 634.432 104.688 634.328 104.56C634.232 104.432 634.096 104.332 633.92 104.26C633.752 104.18 633.532 104.14 633.26 104.14C632.916 104.14 632.616 104.164 632.36 104.212C632.104 104.26 631.908 104.308 631.772 104.356L631.652 103.54C631.788 103.476 632.012 103.42 632.324 103.372C632.644 103.324 632.984 103.3 633.344 103.3ZM640.616 106.228C640.616 105.58 640.464 105.08 640.16 104.728C639.856 104.368 639.46 104.188 638.972 104.188C638.7 104.188 638.484 104.2 638.324 104.224C638.172 104.248 638.052 104.276 637.964 104.308V107.824C638.076 107.928 638.24 108.024 638.456 108.112C638.672 108.2 638.896 108.244 639.128 108.244C639.392 108.244 639.616 108.192 639.8 108.088C639.992 107.984 640.148 107.844 640.268 107.668C640.388 107.484 640.476 107.272 640.532 107.032C640.588 106.784 640.616 106.516 640.616 106.228ZM641.636 106.228C641.636 106.652 641.58 107.044 641.468 107.404C641.364 107.756 641.208 108.06 641 108.316C640.8 108.572 640.552 108.772 640.256 108.916C639.96 109.06 639.624 109.132 639.248 109.132C638.952 109.132 638.692 109.096 638.468 109.024C638.244 108.952 638.076 108.872 637.964 108.784V110.98H636.968V103.6C637.184 103.536 637.46 103.472 637.796 103.408C638.14 103.344 638.532 103.312 638.972 103.312C639.372 103.312 639.736 103.38 640.064 103.516C640.392 103.652 640.672 103.848 640.904 104.104C641.136 104.352 641.316 104.656 641.444 105.016C641.572 105.376 641.636 105.78 641.636 106.228ZM646.352 106.228C646.352 105.58 646.2 105.08 645.896 104.728C645.592 104.368 645.196 104.188 644.708 104.188C644.436 104.188 644.22 104.2 644.06 104.224C643.908 104.248 643.788 104.276 643.7 104.308V107.824C643.812 107.928 643.976 108.024 644.192 108.112C644.408 108.2 644.632 108.244 644.864 108.244C645.128 108.244 645.352 108.192 645.536 108.088C645.728 107.984 645.884 107.844 646.004 107.668C646.124 107.484 646.212 107.272 646.268 107.032C646.324 106.784 646.352 106.516 646.352 106.228ZM647.372 106.228C647.372 106.652 647.316 107.044 647.204 107.404C647.1 107.756 646.944 108.06 646.736 108.316C646.536 108.572 646.288 108.772 645.992 108.916C645.696 109.06 645.36 109.132 644.984 109.132C644.688 109.132 644.428 109.096 644.204 109.024C643.98 108.952 643.812 108.872 643.7 108.784V110.98H642.704V103.6C642.92 103.536 643.196 103.472 643.532 103.408C643.876 103.344 644.268 103.312 644.708 103.312C645.108 103.312 645.472 103.38 645.8 103.516C646.128 103.652 646.408 103.848 646.64 104.104C646.872 104.352 647.052 104.656 647.18 105.016C647.308 105.376 647.372 105.78 647.372 106.228ZM652.628 103.468C652.628 103.724 652.576 103.972 652.472 104.212C652.376 104.452 652.244 104.688 652.076 104.92C651.916 105.152 651.732 105.38 651.524 105.604C651.316 105.828 651.104 106.048 650.888 106.264C650.768 106.384 650.628 106.528 650.468 106.696C650.308 106.864 650.156 107.036 650.012 107.212C649.868 107.388 649.748 107.56 649.652 107.728C649.556 107.896 649.508 108.04 649.508 108.16H652.928V109H648.428C648.42 108.96 648.416 108.92 648.416 108.88C648.416 108.832 648.416 108.788 648.416 108.748C648.416 108.412 648.472 108.1 648.584 107.812C648.696 107.524 648.84 107.252 649.016 106.996C649.192 106.74 649.388 106.5 649.604 106.276C649.828 106.044 650.048 105.82 650.264 105.604C650.44 105.428 650.608 105.256 650.768 105.088C650.936 104.92 651.08 104.752 651.2 104.584C651.328 104.416 651.428 104.244 651.5 104.068C651.58 103.884 651.62 103.696 651.62 103.504C651.62 103.288 651.584 103.104 651.512 102.952C651.448 102.8 651.356 102.676 651.236 102.58C651.124 102.476 650.992 102.4 650.84 102.352C650.688 102.304 650.524 102.28 650.348 102.28C650.14 102.28 649.948 102.308 649.772 102.364C649.604 102.42 649.452 102.488 649.316 102.568C649.188 102.648 649.076 102.728 648.98 102.808C648.884 102.88 648.812 102.94 648.764 102.988L648.272 102.292C648.336 102.22 648.432 102.132 648.56 102.028C648.688 101.924 648.84 101.828 649.016 101.74C649.2 101.644 649.404 101.564 649.628 101.5C649.852 101.436 650.092 101.404 650.348 101.404C651.124 101.404 651.696 101.584 652.064 101.944C652.44 102.296 652.628 102.804 652.628 103.468ZM655.112 109.948C655.256 109.916 655.396 109.884 655.532 109.852C655.676 109.82 655.808 109.772 655.928 109.708C656.048 109.652 656.156 109.576 656.252 109.48C656.348 109.392 656.424 109.268 656.48 109.108C656.224 109.084 656.036 108.988 655.916 108.82C655.804 108.644 655.748 108.472 655.748 108.304C655.748 107.984 655.836 107.744 656.012 107.584C656.196 107.416 656.404 107.332 656.636 107.332C656.932 107.332 657.156 107.44 657.308 107.656C657.46 107.864 657.536 108.12 657.536 108.424C657.536 108.656 657.488 108.896 657.392 109.144C657.304 109.4 657.164 109.636 656.972 109.852C656.788 110.076 656.556 110.264 656.276 110.416C655.996 110.576 655.664 110.68 655.28 110.728L655.112 109.948ZM663.116 109.132C662.764 109.132 662.472 109.084 662.24 108.988C662.008 108.892 661.824 108.748 661.688 108.556C661.552 108.364 661.456 108.128 661.4 107.848C661.344 107.56 661.316 107.228 661.316 106.852V101.584H659.708V100.744H662.3V106.852C662.3 107.132 662.316 107.36 662.348 107.536C662.388 107.712 662.444 107.856 662.516 107.968C662.596 108.072 662.692 108.144 662.804 108.184C662.916 108.224 663.048 108.244 663.2 108.244C663.432 108.244 663.648 108.216 663.848 108.16C664.048 108.104 664.204 108.044 664.316 107.98L664.46 108.82C664.412 108.844 664.344 108.876 664.256 108.916C664.168 108.948 664.064 108.98 663.944 109.012C663.824 109.044 663.692 109.072 663.548 109.096C663.412 109.12 663.268 109.132 663.116 109.132ZM667.304 102.568C667.096 102.568 666.916 102.496 666.764 102.352C666.612 102.208 666.536 102.012 666.536 101.764C666.536 101.516 666.612 101.32 666.764 101.176C666.916 101.032 667.096 100.96 667.304 100.96C667.52 100.96 667.7 101.032 667.844 101.176C667.996 101.32 668.072 101.516 668.072 101.764C668.072 102.012 667.996 102.208 667.844 102.352C667.7 102.496 667.52 102.568 667.304 102.568ZM667.052 104.26H665.444V103.432H668.036V106.852C668.036 107.404 668.112 107.776 668.264 107.968C668.416 108.152 668.644 108.244 668.948 108.244C669.18 108.244 669.392 108.216 669.584 108.16C669.784 108.104 669.94 108.044 670.052 107.98L670.196 108.82C670.148 108.844 670.08 108.876 669.992 108.916C669.904 108.948 669.8 108.98 669.68 109.012C669.568 109.044 669.44 109.072 669.296 109.096C669.16 109.12 669.016 109.132 668.864 109.132C668.512 109.132 668.22 109.084 667.988 108.988C667.756 108.892 667.568 108.748 667.424 108.556C667.288 108.364 667.192 108.128 667.136 107.848C667.08 107.56 667.052 107.228 667.052 106.852V104.26ZM672.38 103.636C672.5 103.564 672.672 103.492 672.896 103.42C673.128 103.34 673.384 103.3 673.664 103.3C674.04 103.3 674.376 103.372 674.672 103.516C674.968 103.66 675.216 103.86 675.416 104.116C675.624 104.372 675.78 104.68 675.884 105.04C675.996 105.392 676.052 105.784 676.052 106.216C676.052 106.664 675.988 107.068 675.86 107.428C675.732 107.788 675.552 108.096 675.32 108.352C675.088 108.6 674.808 108.792 674.48 108.928C674.152 109.064 673.788 109.132 673.388 109.132C672.948 109.132 672.556 109.1 672.212 109.036C671.868 108.972 671.592 108.908 671.384 108.844V100.852L672.38 100.684V103.636ZM672.38 108.136C672.532 108.176 672.684 108.208 672.836 108.232C672.988 108.248 673.132 108.256 673.268 108.256C673.82 108.256 674.252 108.088 674.564 107.752C674.876 107.408 675.032 106.896 675.032 106.216C675.032 105.928 675.004 105.66 674.948 105.412C674.892 105.156 674.804 104.94 674.684 104.764C674.564 104.58 674.408 104.436 674.216 104.332C674.032 104.228 673.808 104.176 673.544 104.176C673.312 104.176 673.088 104.224 672.872 104.32C672.656 104.408 672.492 104.504 672.38 104.608V108.136Z" fill="#F43F5E"/>
</svg>
