<svg width="730" height="260" viewBox="0 0 730 260" fill="none" xmlns="http://www.w3.org/2000/svg">
<rect x="58" y="88" width="67.2" height="38.4" rx="8" fill="#6366F1"/>
<rect x="230.8" y="88" width="67.2" height="38.4" rx="8" fill="#6366F1"/>
<rect x="140" y="160" width="67.2" height="38.4" rx="8" fill="#6366F1"/>
<path d="M92.1 130.399C92.1 130.123 91.8761 129.899 91.6 129.899C91.3238 129.899 91.1 130.123 91.1 130.399H92.1ZM136.354 179.553C136.549 179.358 136.549 179.041 136.354 178.846L133.172 175.664C132.976 175.469 132.66 175.469 132.464 175.664C132.269 175.859 132.269 176.176 132.464 176.371L135.293 179.199L132.464 182.028C132.269 182.223 132.269 182.54 132.464 182.735C132.66 182.93 132.976 182.93 133.172 182.735L136.354 179.553ZM91.1 130.399V155.199H92.1V130.399H91.1ZM115.6 179.699H136V178.699H115.6V179.699ZM91.1 155.199C91.1 168.73 102.069 179.699 115.6 179.699V178.699C102.621 178.699 92.1 168.178 92.1 155.199H91.1Z" fill="#94A3B8"/>
<path d="M264.9 130.399C264.9 130.123 264.676 129.899 264.4 129.899C264.124 129.899 263.9 130.123 263.9 130.399H264.9ZM210.847 178.846C210.651 179.041 210.651 179.358 210.847 179.553L214.029 182.735C214.224 182.93 214.54 182.93 214.736 182.735C214.931 182.54 214.931 182.223 214.736 182.028L211.907 179.199L214.736 176.371C214.931 176.176 214.931 175.859 214.736 175.664C214.54 175.469 214.224 175.469 214.029 175.664L210.847 178.846ZM263.9 130.399V155.199H264.9V130.399H263.9ZM240.4 178.699H211.2V179.699H240.4V178.699ZM263.9 155.199C263.9 168.178 253.379 178.699 240.4 178.699V179.699C253.931 179.699 264.9 168.73 264.9 155.199H263.9Z" fill="#94A3B8"/>
<path d="M248.821 111H247.423L250.564 102.273H252.085L255.226 111H253.828L251.361 103.858H251.293L248.821 111ZM249.055 107.582H253.589V108.69H249.055V107.582ZM256.384 113.455V104.455H257.628V105.516H257.735C257.809 105.379 257.915 105.222 258.054 105.043C258.194 104.864 258.387 104.707 258.634 104.574C258.881 104.438 259.208 104.369 259.614 104.369C260.142 104.369 260.614 104.503 261.029 104.77C261.444 105.037 261.769 105.422 262.005 105.925C262.243 106.428 262.363 107.033 262.363 107.74C262.363 108.447 262.245 109.054 262.009 109.56C261.773 110.062 261.449 110.45 261.037 110.723C260.625 110.993 260.155 111.128 259.627 111.128C259.229 111.128 258.904 111.061 258.651 110.928C258.401 110.794 258.205 110.638 258.063 110.459C257.921 110.28 257.811 110.121 257.735 109.982H257.658V113.455H256.384ZM257.632 107.727C257.632 108.187 257.699 108.591 257.833 108.938C257.966 109.284 258.159 109.555 258.412 109.751C258.665 109.945 258.975 110.041 259.341 110.041C259.722 110.041 260.04 109.94 260.296 109.739C260.551 109.534 260.745 109.257 260.875 108.908C261.009 108.558 261.076 108.165 261.076 107.727C261.076 107.295 261.01 106.908 260.88 106.564C260.752 106.22 260.559 105.949 260.3 105.75C260.044 105.551 259.725 105.452 259.341 105.452C258.972 105.452 258.659 105.547 258.404 105.737C258.151 105.928 257.959 106.193 257.828 106.534C257.698 106.875 257.632 107.273 257.632 107.727ZM263.79 113.455V104.455H265.034V105.516H265.141C265.215 105.379 265.321 105.222 265.461 105.043C265.6 104.864 265.793 104.707 266.04 104.574C266.287 104.438 266.614 104.369 267.02 104.369C267.549 104.369 268.02 104.503 268.435 104.77C268.85 105.037 269.175 105.422 269.411 105.925C269.65 106.428 269.769 107.033 269.769 107.74C269.769 108.447 269.651 109.054 269.415 109.56C269.179 110.062 268.855 110.45 268.444 110.723C268.032 110.993 267.561 111.128 267.033 111.128C266.635 111.128 266.31 111.061 266.057 110.928C265.807 110.794 265.611 110.638 265.469 110.459C265.327 110.28 265.218 110.121 265.141 109.982H265.064V113.455H263.79ZM265.039 107.727C265.039 108.187 265.105 108.591 265.239 108.938C265.373 109.284 265.566 109.555 265.819 109.751C266.071 109.945 266.381 110.041 266.748 110.041C267.128 110.041 267.446 109.94 267.702 109.739C267.958 109.534 268.151 109.257 268.282 108.908C268.415 108.558 268.482 108.165 268.482 107.727C268.482 107.295 268.417 106.908 268.286 106.564C268.158 106.22 267.965 105.949 267.706 105.75C267.451 105.551 267.131 105.452 266.748 105.452C266.378 105.452 266.066 105.547 265.81 105.737C265.557 105.928 265.365 106.193 265.235 106.534C265.104 106.875 265.039 107.273 265.039 107.727ZM274.355 111V110.045L277.308 106.986C277.624 106.653 277.884 106.362 278.088 106.112C278.295 105.859 278.45 105.619 278.553 105.392C278.655 105.165 278.706 104.923 278.706 104.668C278.706 104.378 278.638 104.128 278.501 103.918C278.365 103.705 278.179 103.541 277.943 103.428C277.707 103.311 277.442 103.253 277.146 103.253C276.834 103.253 276.561 103.317 276.328 103.445C276.095 103.572 275.916 103.753 275.791 103.986C275.666 104.219 275.604 104.491 275.604 104.804H274.347C274.347 104.273 274.469 103.808 274.713 103.411C274.957 103.013 275.293 102.705 275.719 102.486C276.145 102.264 276.629 102.153 277.172 102.153C277.72 102.153 278.203 102.263 278.621 102.482C279.041 102.697 279.369 102.993 279.605 103.368C279.841 103.74 279.959 104.161 279.959 104.629C279.959 104.953 279.898 105.27 279.776 105.58C279.656 105.889 279.447 106.234 279.149 106.615C278.851 106.993 278.436 107.452 277.905 107.991L276.17 109.807V109.871H280.099V111H274.355Z" fill="white"/>
<path d="M166.322 183V174.273H167.639V181.866H171.593V183H166.322ZM172.993 183V176.455H174.267V183H172.993ZM173.637 175.445C173.415 175.445 173.225 175.371 173.066 175.223C172.909 175.072 172.831 174.893 172.831 174.686C172.831 174.476 172.909 174.297 173.066 174.149C173.225 173.999 173.415 173.923 173.637 173.923C173.858 173.923 174.047 173.999 174.203 174.149C174.363 174.297 174.442 174.476 174.442 174.686C174.442 174.893 174.363 175.072 174.203 175.223C174.047 175.371 173.858 175.445 173.637 175.445ZM176.084 183V174.273H177.358V177.516H177.435C177.509 177.379 177.615 177.222 177.754 177.043C177.893 176.864 178.087 176.707 178.334 176.574C178.581 176.438 178.908 176.369 179.314 176.369C179.842 176.369 180.314 176.503 180.729 176.77C181.143 177.037 181.469 177.422 181.705 177.925C181.943 178.428 182.062 179.033 182.062 179.74C182.062 180.447 181.945 181.054 181.709 181.56C181.473 182.062 181.149 182.45 180.737 182.723C180.325 182.993 179.855 183.128 179.327 183.128C178.929 183.128 178.604 183.061 178.351 182.928C178.101 182.794 177.905 182.638 177.763 182.459C177.621 182.28 177.511 182.121 177.435 181.982H177.328V183H176.084ZM177.332 179.727C177.332 180.187 177.399 180.591 177.533 180.938C177.666 181.284 177.859 181.555 178.112 181.751C178.365 181.945 178.675 182.041 179.041 182.041C179.422 182.041 179.74 181.94 179.996 181.739C180.251 181.534 180.445 181.257 180.575 180.908C180.709 180.558 180.776 180.165 180.776 179.727C180.776 179.295 180.71 178.908 180.58 178.564C180.452 178.22 180.259 177.949 180 177.75C179.744 177.551 179.425 177.452 179.041 177.452C178.672 177.452 178.359 177.547 178.104 177.737C177.851 177.928 177.659 178.193 177.528 178.534C177.398 178.875 177.332 179.273 177.332 179.727Z" fill="white"/>
<path d="M78.1648 111H76.767L79.9077 102.273H81.429L84.5696 111H83.1719L80.7045 103.858H80.6364L78.1648 111ZM78.3991 107.582H82.9332V108.69H78.3991V107.582ZM85.7276 113.455V104.455H86.9719V105.516H87.0785C87.1523 105.379 87.2589 105.222 87.3981 105.043C87.5373 104.864 87.7305 104.707 87.9776 104.574C88.2248 104.438 88.5515 104.369 88.9577 104.369C89.4862 104.369 89.9577 104.503 90.3725 104.77C90.7873 105.037 91.1126 105.422 91.3484 105.925C91.587 106.428 91.7063 107.033 91.7063 107.74C91.7063 108.447 91.5884 109.054 91.3526 109.56C91.1168 110.062 90.793 110.45 90.381 110.723C89.9691 110.993 89.4989 111.128 88.9705 111.128C88.5728 111.128 88.2475 111.061 87.9947 110.928C87.7447 110.794 87.5487 110.638 87.4066 110.459C87.2646 110.28 87.1552 110.121 87.0785 109.982H87.0018V113.455H85.7276ZM86.9762 107.727C86.9762 108.187 87.043 108.591 87.1765 108.938C87.31 109.284 87.5032 109.555 87.756 109.751C88.0089 109.945 88.3185 110.041 88.685 110.041C89.0657 110.041 89.3839 109.94 89.6396 109.739C89.8952 109.534 90.0884 109.257 90.2191 108.908C90.3526 108.558 90.4194 108.165 90.4194 107.727C90.4194 107.295 90.354 106.908 90.2234 106.564C90.0955 106.22 89.9023 105.949 89.6438 105.75C89.3881 105.551 89.0685 105.452 88.685 105.452C88.3157 105.452 88.0032 105.547 87.7475 105.737C87.4947 105.928 87.3029 106.193 87.1722 106.534C87.0415 106.875 86.9762 107.273 86.9762 107.727ZM93.1339 113.455V104.455H94.3782V105.516H94.4847C94.5586 105.379 94.6651 105.222 94.8043 105.043C94.9435 104.864 95.1367 104.707 95.3839 104.574C95.631 104.438 95.9577 104.369 96.364 104.369C96.8924 104.369 97.364 104.503 97.7788 104.77C98.1935 105.037 98.5188 105.422 98.7546 105.925C98.9933 106.428 99.1126 107.033 99.1126 107.74C99.1126 108.447 98.9947 109.054 98.7589 109.56C98.5231 110.062 98.1992 110.45 97.7873 110.723C97.3754 110.993 96.9052 111.128 96.3768 111.128C95.979 111.128 95.6538 111.061 95.4009 110.928C95.1509 110.794 94.9549 110.638 94.8129 110.459C94.6708 110.28 94.5614 110.121 94.4847 109.982H94.408V113.455H93.1339ZM94.3825 107.727C94.3825 108.187 94.4492 108.591 94.5827 108.938C94.7163 109.284 94.9094 109.555 95.1623 109.751C95.4151 109.945 95.7248 110.041 96.0913 110.041C96.4719 110.041 96.7901 109.94 97.0458 109.739C97.3015 109.534 97.4947 109.257 97.6254 108.908C97.7589 108.558 97.8256 108.165 97.8256 107.727C97.8256 107.295 97.7603 106.908 97.6296 106.564C97.5018 106.22 97.3086 105.949 97.0501 105.75C96.7944 105.551 96.4748 105.452 96.0913 105.452C95.7219 105.452 95.4094 105.547 95.1538 105.737C94.9009 105.928 94.7092 106.193 94.5785 106.534C94.4478 106.875 94.3825 107.273 94.3825 107.727ZM107.01 102.273V111H105.689V103.594H105.638L103.55 104.957V103.696L105.727 102.273H107.01Z" fill="white"/>
<path d="M123.39 70V58.3636H127.538C128.443 58.3636 129.193 58.5284 129.788 58.858C130.383 59.1875 130.828 59.6383 131.123 60.2102C131.419 60.7784 131.567 61.4186 131.567 62.1307C131.567 62.8466 131.417 63.4905 131.118 64.0625C130.822 64.6307 130.375 65.0814 129.777 65.4148C129.182 65.7443 128.434 65.9091 127.532 65.9091H124.68V64.4205H127.373C127.945 64.4205 128.409 64.322 128.765 64.125C129.121 63.9242 129.383 63.6515 129.549 63.3068C129.716 62.9621 129.799 62.5701 129.799 62.1307C129.799 61.6913 129.716 61.3011 129.549 60.9602C129.383 60.6193 129.12 60.3523 128.76 60.1591C128.404 59.9659 127.934 59.8693 127.351 59.8693H125.146V70H123.39ZM133.136 70V61.2727H134.778V62.6591H134.869C135.028 62.1894 135.309 61.8201 135.71 61.5511C136.116 61.2784 136.574 61.142 137.085 61.142C137.191 61.142 137.316 61.1458 137.46 61.1534C137.608 61.161 137.724 61.1705 137.807 61.1818V62.8068C137.739 62.7879 137.617 62.767 137.443 62.7443C137.269 62.7178 137.095 62.7045 136.921 62.7045C136.519 62.7045 136.161 62.7898 135.847 62.9602C135.536 63.1269 135.29 63.3598 135.108 63.6591C134.926 63.9545 134.835 64.2917 134.835 64.6705V70H133.136ZM142.289 70.1761C141.47 70.1761 140.756 69.9886 140.147 69.6136C139.537 69.2386 139.063 68.714 138.726 68.0398C138.389 67.3655 138.22 66.5777 138.22 65.6761C138.22 64.7708 138.389 63.9792 138.726 63.3011C139.063 62.6231 139.537 62.0966 140.147 61.7216C140.756 61.3466 141.47 61.1591 142.289 61.1591C143.107 61.1591 143.821 61.3466 144.431 61.7216C145.041 62.0966 145.514 62.6231 145.851 63.3011C146.188 63.9792 146.357 64.7708 146.357 65.6761C146.357 66.5777 146.188 67.3655 145.851 68.0398C145.514 68.714 145.041 69.2386 144.431 69.6136C143.821 69.9886 143.107 70.1761 142.289 70.1761ZM142.294 68.75C142.825 68.75 143.264 68.6098 143.613 68.3295C143.961 68.0492 144.219 67.6761 144.385 67.2102C144.556 66.7443 144.641 66.2311 144.641 65.6705C144.641 65.1136 144.556 64.6023 144.385 64.1364C144.219 63.6667 143.961 63.2898 143.613 63.0057C143.264 62.7216 142.825 62.5795 142.294 62.5795C141.76 62.5795 141.317 62.7216 140.965 63.0057C140.616 63.2898 140.357 63.6667 140.186 64.1364C140.02 64.6023 139.936 65.1136 139.936 65.6705C139.936 66.2311 140.02 66.7443 140.186 67.2102C140.357 67.6761 140.616 68.0492 140.965 68.3295C141.317 68.6098 141.76 68.75 142.294 68.75ZM147.901 61.2727H149.6V70.5682C149.6 71.1515 149.494 71.6439 149.282 72.0455C149.074 72.447 148.763 72.7519 148.35 72.9602C147.941 73.1686 147.435 73.2727 146.833 73.2727C146.772 73.2727 146.716 73.2727 146.663 73.2727C146.606 73.2727 146.547 73.2708 146.486 73.267V71.8068C146.539 71.8068 146.587 71.8068 146.628 71.8068C146.666 71.8068 146.71 71.8068 146.759 71.8068C147.161 71.8068 147.45 71.6989 147.628 71.483C147.81 71.2708 147.901 70.9621 147.901 70.5568V61.2727ZM148.742 59.9261C148.447 59.9261 148.193 59.8277 147.981 59.6307C147.772 59.4299 147.668 59.1913 147.668 58.9148C147.668 58.6345 147.772 58.3958 147.981 58.1989C148.193 57.9981 148.447 57.8977 148.742 57.8977C149.038 57.8977 149.289 57.9981 149.498 58.1989C149.71 58.3958 149.816 58.6345 149.816 58.9148C149.816 59.1913 149.71 59.4299 149.498 59.6307C149.289 59.8277 149.038 59.9261 148.742 59.9261ZM155.295 70.1761C154.435 70.1761 153.695 69.9924 153.073 69.625C152.456 69.2538 151.979 68.733 151.641 68.0625C151.308 67.3883 151.141 66.5985 151.141 65.6932C151.141 64.7992 151.308 64.0114 151.641 63.3295C151.979 62.6477 152.448 62.1155 153.051 61.733C153.657 61.3504 154.365 61.1591 155.176 61.1591C155.668 61.1591 156.145 61.2405 156.607 61.4034C157.07 61.5663 157.484 61.822 157.852 62.1705C158.219 62.5189 158.509 62.9716 158.721 63.5284C158.933 64.0814 159.039 64.7538 159.039 65.5455V66.1477H152.102V64.875H157.374C157.374 64.428 157.284 64.0322 157.102 63.6875C156.92 63.339 156.664 63.0644 156.335 62.8636C156.009 62.6629 155.626 62.5625 155.187 62.5625C154.71 62.5625 154.293 62.6799 153.937 62.9148C153.585 63.1458 153.312 63.4489 153.119 63.8239C152.929 64.1951 152.835 64.5985 152.835 65.0341V66.0284C152.835 66.6117 152.937 67.108 153.141 67.517C153.35 67.9261 153.64 68.2386 154.011 68.4545C154.382 68.6667 154.816 68.7727 155.312 68.7727C155.634 68.7727 155.927 68.7273 156.193 68.6364C156.458 68.5417 156.687 68.4015 156.88 68.2159C157.073 68.0303 157.221 67.8011 157.323 67.5284L158.931 67.8182C158.802 68.2917 158.571 68.7064 158.238 69.0625C157.909 69.4148 157.494 69.6894 156.994 69.8864C156.498 70.0795 155.931 70.1761 155.295 70.1761ZM164.248 70.1761C163.404 70.1761 162.676 69.9848 162.066 69.6023C161.46 69.2159 160.995 68.6837 160.669 68.0057C160.343 67.3277 160.18 66.5511 160.18 65.6761C160.18 64.7898 160.347 64.0076 160.68 63.3295C161.013 62.6477 161.483 62.1155 162.089 61.733C162.695 61.3504 163.409 61.1591 164.231 61.1591C164.894 61.1591 165.485 61.2822 166.004 61.5284C166.523 61.7708 166.941 62.1117 167.26 62.5511C167.582 62.9905 167.773 63.5038 167.834 64.0909H166.18C166.089 63.6818 165.881 63.3295 165.555 63.0341C165.233 62.7386 164.801 62.5909 164.26 62.5909C163.786 62.5909 163.371 62.7159 163.015 62.9659C162.663 63.2121 162.388 63.5644 162.191 64.0227C161.995 64.4773 161.896 65.0152 161.896 65.6364C161.896 66.2727 161.993 66.822 162.186 67.2841C162.379 67.7462 162.652 68.1042 163.004 68.358C163.36 68.6117 163.779 68.7386 164.26 68.7386C164.582 68.7386 164.873 68.6799 165.135 68.5625C165.4 68.4413 165.621 68.2689 165.799 68.0455C165.981 67.822 166.108 67.553 166.18 67.2386H167.834C167.773 67.803 167.589 68.3068 167.282 68.75C166.976 69.1932 166.565 69.5417 166.049 69.7955C165.538 70.0492 164.938 70.1761 164.248 70.1761ZM173.372 61.2727V62.6364H168.605V61.2727H173.372ZM169.884 59.1818H171.582V67.4375C171.582 67.767 171.632 68.0152 171.73 68.1818C171.829 68.3447 171.955 68.4564 172.111 68.517C172.27 68.5739 172.442 68.6023 172.628 68.6023C172.764 68.6023 172.884 68.5928 172.986 68.5739C173.088 68.5549 173.168 68.5398 173.224 68.5284L173.531 69.9318C173.433 69.9697 173.293 70.0076 173.111 70.0455C172.929 70.0871 172.702 70.1098 172.429 70.1136C171.982 70.1212 171.565 70.0417 171.179 69.875C170.793 69.7083 170.48 69.4508 170.241 69.1023C170.003 68.7538 169.884 68.3163 169.884 67.7898V59.1818ZM186.793 62.0398C186.683 61.6951 186.536 61.3864 186.35 61.1136C186.168 60.8371 185.95 60.6023 185.697 60.4091C185.443 60.2121 185.153 60.0625 184.827 59.9602C184.505 59.858 184.151 59.8068 183.765 59.8068C183.109 59.8068 182.519 59.9754 181.992 60.3125C181.466 60.6496 181.049 61.1439 180.742 61.7955C180.439 62.4432 180.287 63.2367 180.287 64.1761C180.287 65.1193 180.441 65.9167 180.748 66.5682C181.055 67.2197 181.475 67.714 182.009 68.0511C182.543 68.3883 183.151 68.5568 183.833 68.5568C184.466 68.5568 185.017 68.428 185.486 68.1705C185.96 67.9129 186.325 67.5492 186.583 67.0795C186.844 66.6061 186.975 66.0492 186.975 65.4091L187.43 65.4943H184.1V64.0455H188.674V65.3693C188.674 66.3466 188.466 67.1951 188.049 67.9148C187.636 68.6307 187.064 69.1837 186.333 69.5739C185.606 69.964 184.772 70.1591 183.833 70.1591C182.78 70.1591 181.856 69.9167 181.06 69.4318C180.269 68.947 179.651 68.2595 179.208 67.3693C178.765 66.4754 178.543 65.4148 178.543 64.1875C178.543 63.2595 178.672 62.4261 178.93 61.6875C179.187 60.9489 179.549 60.322 180.015 59.8068C180.484 59.2879 181.036 58.892 181.668 58.6193C182.305 58.3428 183 58.2045 183.753 58.2045C184.382 58.2045 184.967 58.2973 185.509 58.483C186.055 58.6686 186.539 58.9318 186.964 59.2727C187.392 59.6136 187.746 60.0189 188.026 60.4886C188.306 60.9545 188.496 61.4716 188.594 62.0398H186.793ZM190.414 70V61.2727H192.056V62.6591H192.147C192.306 62.1894 192.587 61.8201 192.988 61.5511C193.393 61.2784 193.852 61.142 194.363 61.142C194.469 61.142 194.594 61.1458 194.738 61.1534C194.886 61.161 195.001 61.1705 195.085 61.1818V62.8068C195.016 62.7879 194.895 62.767 194.721 62.7443C194.547 62.7178 194.373 62.7045 194.198 62.7045C193.797 62.7045 193.439 62.7898 193.124 62.9602C192.814 63.1269 192.568 63.3598 192.386 63.6591C192.204 63.9545 192.113 64.2917 192.113 64.6705V70H190.414ZM198.664 70.1932C198.111 70.1932 197.611 70.0909 197.164 69.8864C196.717 69.678 196.363 69.3769 196.102 68.983C195.844 68.589 195.716 68.1061 195.716 67.5341C195.716 67.0417 195.81 66.6364 196 66.3182C196.189 66 196.445 65.7481 196.767 65.5625C197.089 65.3769 197.449 65.2367 197.846 65.142C198.244 65.0473 198.649 64.9754 199.062 64.9261C199.585 64.8655 200.009 64.8163 200.335 64.7784C200.661 64.7367 200.897 64.6705 201.045 64.5795C201.193 64.4886 201.267 64.3409 201.267 64.1364V64.0966C201.267 63.6004 201.127 63.2159 200.846 62.9432C200.57 62.6705 200.157 62.5341 199.608 62.5341C199.036 62.5341 198.585 62.661 198.255 62.9148C197.93 63.1648 197.704 63.4432 197.579 63.75L195.983 63.3864C196.172 62.8561 196.449 62.428 196.812 62.1023C197.18 61.7727 197.602 61.5341 198.079 61.3864C198.556 61.2348 199.058 61.1591 199.585 61.1591C199.933 61.1591 200.303 61.2008 200.693 61.2841C201.087 61.3636 201.454 61.5114 201.795 61.7273C202.14 61.9432 202.422 62.2519 202.642 62.6534C202.861 63.0511 202.971 63.5682 202.971 64.2045V70H201.312V68.8068H201.244C201.134 69.0265 200.969 69.2424 200.75 69.4545C200.53 69.6667 200.248 69.8428 199.903 69.983C199.558 70.1231 199.146 70.1932 198.664 70.1932ZM199.034 68.8295C199.503 68.8295 199.905 68.7367 200.238 68.5511C200.575 68.3655 200.831 68.1231 201.005 67.8239C201.183 67.5208 201.272 67.197 201.272 66.8523V65.7273C201.212 65.7879 201.094 65.8447 200.92 65.8977C200.75 65.947 200.555 65.9905 200.335 66.0284C200.115 66.0625 199.901 66.0947 199.693 66.125C199.485 66.1515 199.31 66.1742 199.17 66.1932C198.841 66.2348 198.539 66.3049 198.267 66.4034C197.998 66.5019 197.782 66.6439 197.619 66.8295C197.46 67.0114 197.38 67.2538 197.38 67.5568C197.38 67.9773 197.536 68.2955 197.846 68.5114C198.157 68.7235 198.553 68.8295 199.034 68.8295ZM204.882 73.2727V61.2727H206.541V62.6875H206.683C206.782 62.5057 206.924 62.2955 207.109 62.0568C207.295 61.8182 207.552 61.6098 207.882 61.4318C208.212 61.25 208.647 61.1591 209.189 61.1591C209.893 61.1591 210.522 61.3371 211.075 61.6932C211.628 62.0492 212.062 62.5625 212.376 63.233C212.695 63.9034 212.854 64.7102 212.854 65.6534C212.854 66.5966 212.696 67.4053 212.382 68.0795C212.068 68.75 211.636 69.267 211.087 69.6307C210.537 69.9905 209.91 70.1705 209.206 70.1705C208.676 70.1705 208.242 70.0814 207.905 69.9034C207.571 69.7254 207.31 69.517 207.121 69.2784C206.931 69.0398 206.785 68.8277 206.683 68.642H206.581V73.2727H204.882ZM206.547 65.6364C206.547 66.25 206.636 66.7879 206.814 67.25C206.992 67.7121 207.249 68.0739 207.587 68.3352C207.924 68.5928 208.337 68.7216 208.825 68.7216C209.333 68.7216 209.757 68.5871 210.098 68.3182C210.439 68.0455 210.696 67.6761 210.871 67.2102C211.049 66.7443 211.138 66.2197 211.138 65.6364C211.138 65.0606 211.051 64.5436 210.876 64.0852C210.706 63.6269 210.448 63.2652 210.104 63C209.763 62.7348 209.337 62.6023 208.825 62.6023C208.333 62.6023 207.916 62.7292 207.575 62.983C207.238 63.2367 206.982 63.5909 206.808 64.0455C206.634 64.5 206.547 65.0303 206.547 65.6364ZM216.104 64.8182V70H214.405V58.3636H216.081V62.6932H216.189C216.394 62.2235 216.706 61.8504 217.127 61.5739C217.547 61.2973 218.096 61.1591 218.774 61.1591C219.373 61.1591 219.896 61.2822 220.343 61.5284C220.793 61.7746 221.142 62.142 221.388 62.6307C221.638 63.1155 221.763 63.7216 221.763 64.4489V70H220.064V64.6534C220.064 64.0133 219.899 63.517 219.57 63.1648C219.24 62.8087 218.782 62.6307 218.195 62.6307C217.793 62.6307 217.433 62.7159 217.115 62.8864C216.801 63.0568 216.553 63.3068 216.371 63.6364C216.193 63.9621 216.104 64.3561 216.104 64.8182Z" fill="#94A3B8"/>
<rect x="431" y="89" width="67.2" height="38.4" rx="8" fill="#94A3B8"/>
<rect x="603.8" y="89" width="67.2" height="38.4" rx="8" fill="#94A3B8"/>
<rect x="513" y="161" width="67.2" height="38.4" rx="8" fill="#94A3B8"/>
<path d="M465.1 131.4C465.1 131.124 464.876 130.9 464.6 130.9C464.324 130.9 464.1 131.124 464.1 131.4H465.1ZM509.354 180.554C509.549 180.359 509.549 180.042 509.354 179.847L506.172 176.665C505.976 176.47 505.66 176.47 505.464 176.665C505.269 176.86 505.269 177.177 505.464 177.372L508.293 180.2L505.464 183.029C505.269 183.224 505.269 183.541 505.464 183.736C505.66 183.931 505.976 183.931 506.172 183.736L509.354 180.554ZM464.1 131.4V156.2H465.1V131.4H464.1ZM488.6 180.7H509V179.7H488.6V180.7ZM464.1 156.2C464.1 169.731 475.069 180.7 488.6 180.7V179.7C475.621 179.7 465.1 169.179 465.1 156.2H464.1Z" fill="#94A3B8"/>
<path d="M637.9 131.4C637.9 131.124 637.676 130.9 637.4 130.9C637.124 130.9 636.9 131.124 636.9 131.4H637.9ZM583.846 179.847C583.651 180.042 583.651 180.359 583.846 180.554L587.028 183.736C587.224 183.931 587.54 183.931 587.736 183.736C587.931 183.541 587.931 183.224 587.736 183.029L584.907 180.2L587.736 177.372C587.931 177.177 587.931 176.86 587.736 176.665C587.54 176.47 587.224 176.47 587.028 176.665L583.846 179.847ZM636.9 131.4V156.2H637.9V131.4H636.9ZM613.4 179.7H584.2V180.7H613.4V179.7ZM636.9 156.2C636.9 169.179 626.379 179.7 613.4 179.7V180.7C626.931 180.7 637.9 169.731 637.9 156.2H636.9Z" fill="#94A3B8"/>
<path d="M612.892 112.145C612.477 112.145 612.102 112.068 611.767 111.915C611.432 111.759 611.166 111.533 610.97 111.237C610.777 110.942 610.681 110.58 610.681 110.151C610.681 109.781 610.752 109.477 610.894 109.239C611.036 109 611.227 108.811 611.469 108.672C611.71 108.533 611.98 108.428 612.279 108.357C612.577 108.286 612.881 108.232 613.191 108.195C613.583 108.149 613.901 108.112 614.145 108.084C614.389 108.053 614.567 108.003 614.678 107.935C614.789 107.866 614.844 107.756 614.844 107.602V107.572C614.844 107.2 614.739 106.912 614.529 106.707C614.321 106.503 614.012 106.401 613.6 106.401C613.171 106.401 612.833 106.496 612.585 106.686C612.341 106.874 612.172 107.082 612.078 107.312L610.881 107.04C611.023 106.642 611.23 106.321 611.503 106.077C611.779 105.83 612.095 105.651 612.453 105.54C612.811 105.426 613.188 105.369 613.583 105.369C613.844 105.369 614.121 105.401 614.414 105.463C614.709 105.523 614.985 105.634 615.24 105.795C615.499 105.957 615.71 106.189 615.875 106.49C616.04 106.788 616.122 107.176 616.122 107.653V112H614.878V111.105H614.827C614.744 111.27 614.621 111.432 614.456 111.591C614.291 111.75 614.08 111.882 613.821 111.987C613.563 112.092 613.253 112.145 612.892 112.145ZM613.169 111.122C613.521 111.122 613.823 111.053 614.073 110.913C614.325 110.774 614.517 110.592 614.648 110.368C614.781 110.141 614.848 109.898 614.848 109.639V108.795C614.803 108.841 614.715 108.884 614.584 108.923C614.456 108.96 614.31 108.993 614.145 109.021C613.98 109.047 613.82 109.071 613.664 109.094C613.507 109.114 613.377 109.131 613.271 109.145C613.024 109.176 612.798 109.229 612.594 109.303C612.392 109.376 612.23 109.483 612.108 109.622C611.989 109.759 611.929 109.94 611.929 110.168C611.929 110.483 612.046 110.722 612.279 110.884C612.512 111.043 612.808 111.122 613.169 111.122ZM617.819 114.455V105.455H619.064V106.516H619.17C619.244 106.379 619.351 106.222 619.49 106.043C619.629 105.864 619.822 105.707 620.069 105.574C620.317 105.438 620.643 105.369 621.05 105.369C621.578 105.369 622.05 105.503 622.464 105.77C622.879 106.037 623.204 106.422 623.44 106.925C623.679 107.428 623.798 108.033 623.798 108.74C623.798 109.447 623.68 110.054 623.444 110.56C623.209 111.062 622.885 111.45 622.473 111.723C622.061 111.993 621.591 112.128 621.062 112.128C620.665 112.128 620.339 112.061 620.086 111.928C619.836 111.794 619.64 111.638 619.498 111.459C619.356 111.28 619.247 111.121 619.17 110.982H619.094V114.455H617.819ZM619.068 108.727C619.068 109.187 619.135 109.591 619.268 109.938C619.402 110.284 619.595 110.555 619.848 110.751C620.101 110.945 620.41 111.041 620.777 111.041C621.157 111.041 621.476 110.94 621.731 110.739C621.987 110.534 622.18 110.257 622.311 109.908C622.444 109.558 622.511 109.165 622.511 108.727C622.511 108.295 622.446 107.908 622.315 107.564C622.187 107.22 621.994 106.949 621.736 106.75C621.48 106.551 621.16 106.452 620.777 106.452C620.407 106.452 620.095 106.547 619.839 106.737C619.586 106.928 619.395 107.193 619.264 107.534C619.133 107.875 619.068 108.273 619.068 108.727ZM625.226 114.455V105.455H626.47V106.516H626.577C626.65 106.379 626.757 106.222 626.896 106.043C627.035 105.864 627.229 105.707 627.476 105.574C627.723 105.438 628.05 105.369 628.456 105.369C628.984 105.369 629.456 105.503 629.871 105.77C630.285 106.037 630.611 106.422 630.846 106.925C631.085 107.428 631.204 108.033 631.204 108.74C631.204 109.447 631.086 110.054 630.851 110.56C630.615 111.062 630.291 111.45 629.879 111.723C629.467 111.993 628.997 112.128 628.469 112.128C628.071 112.128 627.746 112.061 627.493 111.928C627.243 111.794 627.047 111.638 626.905 111.459C626.763 111.28 626.653 111.121 626.577 110.982H626.5V114.455H625.226ZM626.474 108.727C626.474 109.187 626.541 109.591 626.675 109.938C626.808 110.284 627.001 110.555 627.254 110.751C627.507 110.945 627.817 111.041 628.183 111.041C628.564 111.041 628.882 110.94 629.138 110.739C629.393 110.534 629.586 110.257 629.717 109.908C629.851 109.558 629.917 109.165 629.917 108.727C629.917 108.295 629.852 107.908 629.721 107.564C629.594 107.22 629.4 106.949 629.142 106.75C628.886 106.551 628.567 106.452 628.183 106.452C627.814 106.452 627.501 106.547 627.246 106.737C626.993 106.928 626.801 107.193 626.67 107.534C626.54 107.875 626.474 108.273 626.474 108.727ZM632.615 112V111.045L635.568 107.986C635.883 107.653 636.143 107.362 636.348 107.112C636.555 106.859 636.71 106.619 636.812 106.392C636.915 106.165 636.966 105.923 636.966 105.668C636.966 105.378 636.898 105.128 636.761 104.918C636.625 104.705 636.439 104.541 636.203 104.428C635.967 104.311 635.702 104.253 635.406 104.253C635.094 104.253 634.821 104.317 634.588 104.445C634.355 104.572 634.176 104.753 634.051 104.986C633.926 105.219 633.863 105.491 633.863 105.804H632.606C632.606 105.273 632.729 104.808 632.973 104.411C633.217 104.013 633.552 103.705 633.979 103.486C634.405 103.264 634.889 103.153 635.432 103.153C635.98 103.153 636.463 103.263 636.881 103.482C637.301 103.697 637.629 103.993 637.865 104.368C638.101 104.74 638.219 105.161 638.219 105.629C638.219 105.953 638.157 106.27 638.035 106.58C637.916 106.889 637.707 107.234 637.409 107.615C637.111 107.993 636.696 108.452 636.165 108.991L634.43 110.807V110.871H638.359V112H632.615ZM640.831 112.081C640.598 112.081 640.398 111.999 640.23 111.834C640.062 111.666 639.979 111.464 639.979 111.229C639.979 110.996 640.062 110.797 640.23 110.632C640.398 110.464 640.598 110.381 640.831 110.381C641.064 110.381 641.264 110.464 641.432 110.632C641.599 110.797 641.683 110.996 641.683 111.229C641.683 111.385 641.643 111.528 641.564 111.659C641.487 111.787 641.385 111.889 641.257 111.966C641.129 112.043 640.987 112.081 640.831 112.081ZM640.831 107.317C640.598 107.317 640.398 107.233 640.23 107.065C640.062 106.898 639.979 106.697 639.979 106.464C639.979 106.232 640.062 106.033 640.23 105.868C640.398 105.7 640.598 105.616 640.831 105.616C641.064 105.616 641.264 105.7 641.432 105.868C641.599 106.033 641.683 106.232 641.683 106.464C641.683 106.621 641.643 106.764 641.564 106.895C641.487 107.023 641.385 107.125 641.257 107.202C641.129 107.278 640.987 107.317 640.831 107.317ZM646.445 105.455V106.477H642.87V105.455H646.445ZM643.829 103.886H645.103V110.078C645.103 110.325 645.14 110.511 645.214 110.636C645.287 110.759 645.383 110.842 645.499 110.888C645.618 110.93 645.748 110.952 645.887 110.952C645.989 110.952 646.079 110.945 646.155 110.93C646.232 110.916 646.292 110.905 646.334 110.896L646.564 111.949C646.491 111.977 646.385 112.006 646.249 112.034C646.113 112.065 645.942 112.082 645.738 112.085C645.403 112.091 645.09 112.031 644.8 111.906C644.51 111.781 644.276 111.588 644.097 111.327C643.918 111.065 643.829 110.737 643.829 110.342V103.886ZM650.605 112.132C649.96 112.132 649.405 111.994 648.939 111.719C648.476 111.44 648.118 111.05 647.865 110.547C647.615 110.041 647.49 109.449 647.49 108.77C647.49 108.099 647.615 107.509 647.865 106.997C648.118 106.486 648.47 106.087 648.922 105.8C649.377 105.513 649.908 105.369 650.516 105.369C650.885 105.369 651.243 105.43 651.59 105.553C651.936 105.675 652.247 105.866 652.523 106.128C652.798 106.389 653.016 106.729 653.175 107.146C653.334 107.561 653.414 108.065 653.414 108.659V109.111H648.21V108.156H652.165C652.165 107.821 652.097 107.524 651.96 107.266C651.824 107.004 651.632 106.798 651.385 106.648C651.141 106.497 650.854 106.422 650.524 106.422C650.166 106.422 649.854 106.51 649.587 106.686C649.323 106.859 649.118 107.087 648.973 107.368C648.831 107.646 648.76 107.949 648.76 108.276V109.021C648.76 109.459 648.837 109.831 648.99 110.138C649.146 110.445 649.364 110.679 649.642 110.841C649.921 111 650.246 111.08 650.618 111.08C650.86 111.08 651.08 111.045 651.279 110.977C651.477 110.906 651.649 110.801 651.794 110.662C651.939 110.523 652.05 110.351 652.127 110.146L653.333 110.364C653.236 110.719 653.063 111.03 652.813 111.297C652.566 111.561 652.254 111.767 651.879 111.915C651.507 112.06 651.083 112.132 650.605 112.132ZM659.732 107.053L658.577 107.257C658.529 107.109 658.452 106.969 658.347 106.835C658.245 106.702 658.106 106.592 657.93 106.507C657.753 106.422 657.533 106.379 657.269 106.379C656.908 106.379 656.607 106.46 656.366 106.622C656.124 106.781 656.003 106.987 656.003 107.24C656.003 107.459 656.084 107.635 656.246 107.768C656.408 107.902 656.67 108.011 657.03 108.097L658.07 108.335C658.672 108.474 659.121 108.689 659.417 108.979C659.712 109.268 659.86 109.645 659.86 110.108C659.86 110.5 659.746 110.849 659.519 111.156C659.295 111.46 658.981 111.699 658.577 111.872C658.177 112.045 657.712 112.132 657.184 112.132C656.451 112.132 655.853 111.976 655.39 111.663C654.927 111.348 654.643 110.901 654.537 110.321L655.769 110.134C655.846 110.455 656.003 110.697 656.242 110.862C656.481 111.024 656.792 111.105 657.175 111.105C657.593 111.105 657.927 111.018 658.177 110.845C658.427 110.669 658.552 110.455 658.552 110.202C658.552 109.997 658.475 109.825 658.322 109.686C658.171 109.547 657.939 109.442 657.627 109.371L656.519 109.128C655.908 108.989 655.456 108.767 655.164 108.463C654.874 108.159 654.729 107.774 654.729 107.308C654.729 106.922 654.837 106.584 655.053 106.294C655.269 106.004 655.567 105.778 655.948 105.616C656.329 105.452 656.765 105.369 657.256 105.369C657.964 105.369 658.52 105.523 658.927 105.83C659.333 106.134 659.601 106.541 659.732 107.053ZM664.316 105.455V106.477H660.741V105.455H664.316ZM661.7 103.886H662.974V110.078C662.974 110.325 663.011 110.511 663.085 110.636C663.159 110.759 663.254 110.842 663.37 110.888C663.49 110.93 663.619 110.952 663.758 110.952C663.86 110.952 663.95 110.945 664.026 110.93C664.103 110.916 664.163 110.905 664.205 110.896L664.436 111.949C664.362 111.977 664.257 112.006 664.12 112.034C663.984 112.065 663.813 112.082 663.609 112.085C663.274 112.091 662.961 112.031 662.671 111.906C662.382 111.781 662.147 111.588 661.968 111.327C661.789 111.065 661.7 110.737 661.7 110.342V103.886Z" fill="white"/>
<path d="M529.519 175.273V184H528.245V175.273H529.519ZM531.233 184V177.455H532.508V184H531.233ZM531.877 176.445C531.655 176.445 531.465 176.371 531.306 176.223C531.15 176.072 531.072 175.893 531.072 175.686C531.072 175.476 531.15 175.297 531.306 175.149C531.465 174.999 531.655 174.923 531.877 174.923C532.099 174.923 532.287 174.999 532.444 175.149C532.603 175.297 532.682 175.476 532.682 175.686C532.682 175.893 532.603 176.072 532.444 176.223C532.287 176.371 532.099 176.445 531.877 176.445ZM534.324 184V175.273H535.598V178.516H535.675C535.749 178.379 535.855 178.222 535.994 178.043C536.134 177.864 536.327 177.707 536.574 177.574C536.821 177.438 537.148 177.369 537.554 177.369C538.083 177.369 538.554 177.503 538.969 177.77C539.384 178.037 539.709 178.422 539.945 178.925C540.183 179.428 540.303 180.033 540.303 180.74C540.303 181.447 540.185 182.054 539.949 182.56C539.713 183.062 539.389 183.45 538.977 183.723C538.566 183.993 538.095 184.128 537.567 184.128C537.169 184.128 536.844 184.061 536.591 183.928C536.341 183.794 536.145 183.638 536.003 183.459C535.861 183.28 535.752 183.121 535.675 182.982H535.568V184H534.324ZM535.573 180.727C535.573 181.187 535.639 181.591 535.773 181.938C535.906 182.284 536.1 182.555 536.352 182.751C536.605 182.945 536.915 183.041 537.281 183.041C537.662 183.041 537.98 182.94 538.236 182.739C538.492 182.534 538.685 182.257 538.816 181.908C538.949 181.558 539.016 181.165 539.016 180.727C539.016 180.295 538.95 179.908 538.82 179.564C538.692 179.22 538.499 178.949 538.24 178.75C537.985 178.551 537.665 178.452 537.281 178.452C536.912 178.452 536.6 178.547 536.344 178.737C536.091 178.928 535.899 179.193 535.769 179.534C535.638 179.875 535.573 180.273 535.573 180.727ZM542.573 184.081C542.34 184.081 542.14 183.999 541.972 183.834C541.805 183.666 541.721 183.464 541.721 183.229C541.721 182.996 541.805 182.797 541.972 182.632C542.14 182.464 542.34 182.381 542.573 182.381C542.806 182.381 543.006 182.464 543.174 182.632C543.341 182.797 543.425 182.996 543.425 183.229C543.425 183.385 543.385 183.528 543.306 183.659C543.229 183.787 543.127 183.889 542.999 183.966C542.871 184.043 542.729 184.081 542.573 184.081ZM542.573 179.317C542.34 179.317 542.14 179.233 541.972 179.065C541.805 178.898 541.721 178.697 541.721 178.464C541.721 178.232 541.805 178.033 541.972 177.868C542.14 177.7 542.34 177.616 542.573 177.616C542.806 177.616 543.006 177.7 543.174 177.868C543.341 178.033 543.425 178.232 543.425 178.464C543.425 178.621 543.385 178.764 543.306 178.895C543.229 179.023 543.127 179.125 542.999 179.202C542.871 179.278 542.729 179.317 542.573 179.317ZM548.187 177.455V178.477H544.612V177.455H548.187ZM545.571 175.886H546.845V182.078C546.845 182.325 546.882 182.511 546.956 182.636C547.03 182.759 547.125 182.842 547.241 182.888C547.361 182.93 547.49 182.952 547.629 182.952C547.731 182.952 547.821 182.945 547.898 182.93C547.974 182.916 548.034 182.905 548.077 182.896L548.307 183.949C548.233 183.977 548.128 184.006 547.991 184.034C547.855 184.065 547.684 184.082 547.48 184.085C547.145 184.091 546.832 184.031 546.542 183.906C546.253 183.781 546.018 183.588 545.839 183.327C545.66 183.065 545.571 182.737 545.571 182.342V175.886ZM552.347 184.132C551.703 184.132 551.147 183.994 550.681 183.719C550.218 183.44 549.86 183.05 549.607 182.547C549.357 182.041 549.232 181.449 549.232 180.77C549.232 180.099 549.357 179.509 549.607 178.997C549.86 178.486 550.213 178.087 550.664 177.8C551.119 177.513 551.65 177.369 552.258 177.369C552.627 177.369 552.985 177.43 553.332 177.553C553.678 177.675 553.99 177.866 554.265 178.128C554.541 178.389 554.758 178.729 554.917 179.146C555.076 179.561 555.156 180.065 555.156 180.659V181.111H549.953V180.156H553.907C553.907 179.821 553.839 179.524 553.703 179.266C553.566 179.004 553.374 178.798 553.127 178.648C552.883 178.497 552.596 178.422 552.267 178.422C551.909 178.422 551.596 178.51 551.329 178.686C551.065 178.859 550.86 179.087 550.715 179.368C550.573 179.646 550.502 179.949 550.502 180.276V181.021C550.502 181.459 550.579 181.831 550.732 182.138C550.889 182.445 551.106 182.679 551.384 182.841C551.663 183 551.988 183.08 552.36 183.08C552.602 183.08 552.822 183.045 553.021 182.977C553.22 182.906 553.392 182.801 553.536 182.662C553.681 182.523 553.792 182.351 553.869 182.146L555.075 182.364C554.978 182.719 554.805 183.03 554.555 183.297C554.308 183.561 553.997 183.767 553.622 183.915C553.249 184.06 552.825 184.132 552.347 184.132ZM561.474 179.053L560.319 179.257C560.271 179.109 560.194 178.969 560.089 178.835C559.987 178.702 559.848 178.592 559.672 178.507C559.496 178.422 559.275 178.379 559.011 178.379C558.65 178.379 558.349 178.46 558.108 178.622C557.866 178.781 557.746 178.987 557.746 179.24C557.746 179.459 557.827 179.635 557.988 179.768C558.15 179.902 558.412 180.011 558.773 180.097L559.812 180.335C560.415 180.474 560.863 180.689 561.159 180.979C561.454 181.268 561.602 181.645 561.602 182.108C561.602 182.5 561.488 182.849 561.261 183.156C561.037 183.46 560.723 183.699 560.319 183.872C559.919 184.045 559.454 184.132 558.926 184.132C558.193 184.132 557.595 183.976 557.132 183.663C556.669 183.348 556.385 182.901 556.28 182.321L557.511 182.134C557.588 182.455 557.746 182.697 557.984 182.862C558.223 183.024 558.534 183.105 558.917 183.105C559.335 183.105 559.669 183.018 559.919 182.845C560.169 182.669 560.294 182.455 560.294 182.202C560.294 181.997 560.217 181.825 560.064 181.686C559.913 181.547 559.682 181.442 559.369 181.371L558.261 181.128C557.65 180.989 557.199 180.767 556.906 180.463C556.616 180.159 556.471 179.774 556.471 179.308C556.471 178.922 556.579 178.584 556.795 178.294C557.011 178.004 557.309 177.778 557.69 177.616C558.071 177.452 558.507 177.369 558.998 177.369C559.706 177.369 560.263 177.523 560.669 177.83C561.075 178.134 561.344 178.541 561.474 179.053ZM566.058 177.455V178.477H562.483V177.455H566.058ZM563.442 175.886H564.716V182.078C564.716 182.325 564.753 182.511 564.827 182.636C564.901 182.759 564.996 182.842 565.112 182.888C565.232 182.93 565.361 182.952 565.5 182.952C565.602 182.952 565.692 182.945 565.769 182.93C565.845 182.916 565.905 182.905 565.948 182.896L566.178 183.949C566.104 183.977 565.999 184.006 565.862 184.034C565.726 184.065 565.556 184.082 565.351 184.085C565.016 184.091 564.703 184.031 564.414 183.906C564.124 183.781 563.889 183.588 563.71 183.327C563.531 183.065 563.442 182.737 563.442 182.342V175.886Z" fill="white"/>
<path d="M441.236 112.145C440.821 112.145 440.446 112.068 440.111 111.915C439.776 111.759 439.51 111.533 439.314 111.237C439.121 110.942 439.024 110.58 439.024 110.151C439.024 109.781 439.095 109.477 439.237 109.239C439.379 109 439.571 108.811 439.813 108.672C440.054 108.533 440.324 108.428 440.622 108.357C440.921 108.286 441.225 108.232 441.534 108.195C441.926 108.149 442.244 108.112 442.489 108.084C442.733 108.053 442.911 108.003 443.021 107.935C443.132 107.866 443.188 107.756 443.188 107.602V107.572C443.188 107.2 443.083 106.912 442.872 106.707C442.665 106.503 442.355 106.401 441.943 106.401C441.514 106.401 441.176 106.496 440.929 106.686C440.685 106.874 440.516 107.082 440.422 107.312L439.225 107.04C439.367 106.642 439.574 106.321 439.847 106.077C440.122 105.83 440.439 105.651 440.797 105.54C441.155 105.426 441.531 105.369 441.926 105.369C442.188 105.369 442.465 105.401 442.757 105.463C443.053 105.523 443.328 105.634 443.584 105.795C443.843 105.957 444.054 106.189 444.219 106.49C444.384 106.788 444.466 107.176 444.466 107.653V112H443.222V111.105H443.171C443.088 111.27 442.965 111.432 442.8 111.591C442.635 111.75 442.423 111.882 442.165 111.987C441.906 112.092 441.597 112.145 441.236 112.145ZM441.513 111.122C441.865 111.122 442.166 111.053 442.416 110.913C442.669 110.774 442.861 110.592 442.992 110.368C443.125 110.141 443.192 109.898 443.192 109.639V108.795C443.146 108.841 443.058 108.884 442.928 108.923C442.8 108.96 442.654 108.993 442.489 109.021C442.324 109.047 442.164 109.071 442.007 109.094C441.851 109.114 441.72 109.131 441.615 109.145C441.368 109.176 441.142 109.229 440.938 109.303C440.736 109.376 440.574 109.483 440.452 109.622C440.333 109.759 440.273 109.94 440.273 110.168C440.273 110.483 440.389 110.722 440.622 110.884C440.855 111.043 441.152 111.122 441.513 111.122ZM446.163 114.455V105.455H447.407V106.516H447.514C447.588 106.379 447.694 106.222 447.834 106.043C447.973 105.864 448.166 105.707 448.413 105.574C448.66 105.438 448.987 105.369 449.393 105.369C449.922 105.369 450.393 105.503 450.808 105.77C451.223 106.037 451.548 106.422 451.784 106.925C452.023 107.428 452.142 108.033 452.142 108.74C452.142 109.447 452.024 110.054 451.788 110.56C451.552 111.062 451.229 111.45 450.817 111.723C450.405 111.993 449.934 112.128 449.406 112.128C449.008 112.128 448.683 112.061 448.43 111.928C448.18 111.794 447.984 111.638 447.842 111.459C447.7 111.28 447.591 111.121 447.514 110.982H447.437V114.455H446.163ZM447.412 108.727C447.412 109.187 447.479 109.591 447.612 109.938C447.746 110.284 447.939 110.555 448.192 110.751C448.444 110.945 448.754 111.041 449.121 111.041C449.501 111.041 449.819 110.94 450.075 110.739C450.331 110.534 450.524 110.257 450.655 109.908C450.788 109.558 450.855 109.165 450.855 108.727C450.855 108.295 450.79 107.908 450.659 107.564C450.531 107.22 450.338 106.949 450.079 106.75C449.824 106.551 449.504 106.452 449.121 106.452C448.751 106.452 448.439 106.547 448.183 106.737C447.93 106.928 447.738 107.193 447.608 107.534C447.477 107.875 447.412 108.273 447.412 108.727ZM453.569 114.455V105.455H454.814V106.516H454.92C454.994 106.379 455.101 106.222 455.24 106.043C455.379 105.864 455.572 105.707 455.819 105.574C456.067 105.438 456.393 105.369 456.8 105.369C457.328 105.369 457.8 105.503 458.214 105.77C458.629 106.037 458.954 106.422 459.19 106.925C459.429 107.428 459.548 108.033 459.548 108.74C459.548 109.447 459.43 110.054 459.194 110.56C458.959 111.062 458.635 111.45 458.223 111.723C457.811 111.993 457.341 112.128 456.812 112.128C456.415 112.128 456.089 112.061 455.836 111.928C455.586 111.794 455.39 111.638 455.248 111.459C455.106 111.28 454.997 111.121 454.92 110.982H454.844V114.455H453.569ZM454.818 108.727C454.818 109.187 454.885 109.591 455.018 109.938C455.152 110.284 455.345 110.555 455.598 110.751C455.851 110.945 456.16 111.041 456.527 111.041C456.907 111.041 457.226 110.94 457.481 110.739C457.737 110.534 457.93 110.257 458.061 109.908C458.194 109.558 458.261 109.165 458.261 108.727C458.261 108.295 458.196 107.908 458.065 107.564C457.937 107.22 457.744 106.949 457.486 106.75C457.23 106.551 456.91 106.452 456.527 106.452C456.157 106.452 455.845 106.547 455.589 106.737C455.336 106.928 455.145 107.193 455.014 107.534C454.883 107.875 454.818 108.273 454.818 108.727ZM464.27 103.273V112H462.949V104.594H462.898L460.809 105.957V104.696L462.987 103.273H464.27ZM467.487 112.081C467.254 112.081 467.054 111.999 466.886 111.834C466.719 111.666 466.635 111.464 466.635 111.229C466.635 110.996 466.719 110.797 466.886 110.632C467.054 110.464 467.254 110.381 467.487 110.381C467.72 110.381 467.92 110.464 468.088 110.632C468.256 110.797 468.339 110.996 468.339 111.229C468.339 111.385 468.3 111.528 468.22 111.659C468.143 111.787 468.041 111.889 467.913 111.966C467.785 112.043 467.643 112.081 467.487 112.081ZM467.487 107.317C467.254 107.317 467.054 107.233 466.886 107.065C466.719 106.898 466.635 106.697 466.635 106.464C466.635 106.232 466.719 106.033 466.886 105.868C467.054 105.7 467.254 105.616 467.487 105.616C467.72 105.616 467.92 105.7 468.088 105.868C468.256 106.033 468.339 106.232 468.339 106.464C468.339 106.621 468.3 106.764 468.22 106.895C468.143 107.023 468.041 107.125 467.913 107.202C467.785 107.278 467.643 107.317 467.487 107.317ZM473.101 105.455V106.477H469.526V105.455H473.101ZM470.485 103.886H471.759V110.078C471.759 110.325 471.796 110.511 471.87 110.636C471.944 110.759 472.039 110.842 472.155 110.888C472.275 110.93 472.404 110.952 472.543 110.952C472.645 110.952 472.735 110.945 472.812 110.93C472.888 110.916 472.948 110.905 472.991 110.896L473.221 111.949C473.147 111.977 473.042 112.006 472.905 112.034C472.769 112.065 472.599 112.082 472.394 112.085C472.059 112.091 471.746 112.031 471.456 111.906C471.167 111.781 470.932 111.588 470.753 111.327C470.574 111.065 470.485 110.737 470.485 110.342V103.886ZM477.262 112.132C476.617 112.132 476.061 111.994 475.595 111.719C475.132 111.44 474.774 111.05 474.521 110.547C474.271 110.041 474.146 109.449 474.146 108.77C474.146 108.099 474.271 107.509 474.521 106.997C474.774 106.486 475.127 106.087 475.578 105.8C476.033 105.513 476.564 105.369 477.172 105.369C477.541 105.369 477.899 105.43 478.246 105.553C478.593 105.675 478.904 105.866 479.179 106.128C479.455 106.389 479.672 106.729 479.831 107.146C479.99 107.561 480.07 108.065 480.07 108.659V109.111H474.867V108.156H478.821C478.821 107.821 478.753 107.524 478.617 107.266C478.48 107.004 478.289 106.798 478.041 106.648C477.797 106.497 477.51 106.422 477.181 106.422C476.823 106.422 476.51 106.51 476.243 106.686C475.979 106.859 475.774 107.087 475.629 107.368C475.487 107.646 475.416 107.949 475.416 108.276V109.021C475.416 109.459 475.493 109.831 475.646 110.138C475.803 110.445 476.02 110.679 476.298 110.841C476.577 111 476.902 111.08 477.274 111.08C477.516 111.08 477.736 111.045 477.935 110.977C478.134 110.906 478.306 110.801 478.45 110.662C478.595 110.523 478.706 110.351 478.783 110.146L479.989 110.364C479.892 110.719 479.719 111.03 479.469 111.297C479.222 111.561 478.911 111.767 478.536 111.915C478.164 112.06 477.739 112.132 477.262 112.132ZM486.388 107.053L485.233 107.257C485.185 107.109 485.108 106.969 485.003 106.835C484.901 106.702 484.762 106.592 484.586 106.507C484.41 106.422 484.189 106.379 483.925 106.379C483.564 106.379 483.263 106.46 483.022 106.622C482.78 106.781 482.66 106.987 482.66 107.24C482.66 107.459 482.741 107.635 482.903 107.768C483.064 107.902 483.326 108.011 483.687 108.097L484.726 108.335C485.329 108.474 485.778 108.689 486.073 108.979C486.368 109.268 486.516 109.645 486.516 110.108C486.516 110.5 486.403 110.849 486.175 111.156C485.951 111.46 485.637 111.699 485.233 111.872C484.833 112.045 484.368 112.132 483.84 112.132C483.107 112.132 482.509 111.976 482.046 111.663C481.583 111.348 481.299 110.901 481.194 110.321L482.425 110.134C482.502 110.455 482.66 110.697 482.898 110.862C483.137 111.024 483.448 111.105 483.831 111.105C484.249 111.105 484.583 111.018 484.833 110.845C485.083 110.669 485.208 110.455 485.208 110.202C485.208 109.997 485.131 109.825 484.978 109.686C484.827 109.547 484.596 109.442 484.283 109.371L483.175 109.128C482.564 108.989 482.113 108.767 481.82 108.463C481.53 108.159 481.385 107.774 481.385 107.308C481.385 106.922 481.493 106.584 481.709 106.294C481.925 106.004 482.224 105.778 482.604 105.616C482.985 105.452 483.421 105.369 483.912 105.369C484.62 105.369 485.177 105.523 485.583 105.83C485.989 106.134 486.258 106.541 486.388 107.053ZM490.972 105.455V106.477H487.397V105.455H490.972ZM488.356 103.886H489.63V110.078C489.63 110.325 489.667 110.511 489.741 110.636C489.815 110.759 489.91 110.842 490.026 110.888C490.146 110.93 490.275 110.952 490.414 110.952C490.517 110.952 490.606 110.945 490.683 110.93C490.759 110.916 490.819 110.905 490.862 110.896L491.092 111.949C491.018 111.977 490.913 112.006 490.776 112.034C490.64 112.065 490.47 112.082 490.265 112.085C489.93 112.091 489.617 112.031 489.328 111.906C489.038 111.781 488.803 111.588 488.624 111.327C488.445 111.065 488.356 110.737 488.356 110.342V103.886Z" fill="white"/>
<path d="M503.929 60.875V59.3636H512.935V60.875H509.304V71H507.554V60.875H503.929ZM515.789 71.1932C515.236 71.1932 514.736 71.0909 514.289 70.8864C513.842 70.678 513.488 70.3769 513.226 69.983C512.969 69.589 512.84 69.1061 512.84 68.5341C512.84 68.0417 512.935 67.6364 513.124 67.3182C513.313 67 513.569 66.7481 513.891 66.5625C514.213 66.3769 514.573 66.2367 514.971 66.142C515.368 66.0473 515.774 65.9754 516.187 65.9261C516.709 65.8655 517.134 65.8163 517.459 65.7784C517.785 65.7367 518.022 65.6705 518.169 65.5795C518.317 65.4886 518.391 65.3409 518.391 65.1364V65.0966C518.391 64.6004 518.251 64.2159 517.971 63.9432C517.694 63.6705 517.281 63.5341 516.732 63.5341C516.16 63.5341 515.709 63.661 515.38 63.9148C515.054 64.1648 514.829 64.4432 514.704 64.75L513.107 64.3864C513.296 63.8561 513.573 63.428 513.937 63.1023C514.304 62.7727 514.726 62.5341 515.204 62.3864C515.681 62.2348 516.183 62.1591 516.709 62.1591C517.058 62.1591 517.427 62.2008 517.817 62.2841C518.211 62.3636 518.579 62.5114 518.919 62.7273C519.264 62.9432 519.546 63.2519 519.766 63.6534C519.986 64.0511 520.096 64.5682 520.096 65.2045V71H518.437V69.8068H518.368C518.259 70.0265 518.094 70.2424 517.874 70.4545C517.654 70.6667 517.372 70.8428 517.027 70.983C516.683 71.1231 516.27 71.1932 515.789 71.1932ZM516.158 69.8295C516.628 69.8295 517.029 69.7367 517.363 69.5511C517.7 69.3655 517.955 69.1231 518.13 68.8239C518.308 68.5208 518.397 68.197 518.397 67.8523V66.7273C518.336 66.7879 518.219 66.8447 518.044 66.8977C517.874 66.947 517.679 66.9905 517.459 67.0284C517.24 67.0625 517.026 67.0947 516.817 67.125C516.609 67.1515 516.435 67.1742 516.294 67.1932C515.965 67.2348 515.664 67.3049 515.391 67.4034C515.122 67.5019 514.906 67.6439 514.743 67.8295C514.584 68.0114 514.505 68.2538 514.505 68.5568C514.505 68.9773 514.66 69.2955 514.971 69.5114C515.281 69.7235 515.677 69.8295 516.158 69.8295ZM528.546 64.4034L527.006 64.6761C526.942 64.4792 526.84 64.2917 526.7 64.1136C526.563 63.9356 526.378 63.7898 526.143 63.6761C525.908 63.5625 525.614 63.5057 525.262 63.5057C524.781 63.5057 524.38 63.6136 524.058 63.8295C523.736 64.0417 523.575 64.3163 523.575 64.6534C523.575 64.9451 523.683 65.1799 523.898 65.358C524.114 65.536 524.463 65.6818 524.944 65.7955L526.33 66.1136C527.133 66.2992 527.732 66.5852 528.126 66.9716C528.52 67.358 528.717 67.8598 528.717 68.4773C528.717 69 528.565 69.4659 528.262 69.875C527.963 70.2803 527.544 70.5985 527.006 70.8295C526.472 71.0606 525.853 71.1761 525.148 71.1761C524.171 71.1761 523.374 70.9678 522.756 70.5511C522.139 70.1307 521.76 69.5341 521.62 68.7614L523.262 68.5114C523.364 68.9394 523.575 69.2633 523.893 69.483C524.211 69.6989 524.626 69.8068 525.137 69.8068C525.694 69.8068 526.139 69.6913 526.472 69.4602C526.806 69.2254 526.972 68.9394 526.972 68.6023C526.972 68.3295 526.87 68.1004 526.666 67.9148C526.465 67.7292 526.156 67.589 525.739 67.4943L524.262 67.1705C523.448 66.9848 522.845 66.6894 522.455 66.2841C522.069 65.8788 521.876 65.3655 521.876 64.7443C521.876 64.2292 522.02 63.7784 522.308 63.392C522.595 63.0057 522.993 62.7045 523.501 62.4886C524.008 62.2689 524.59 62.1591 525.245 62.1591C526.188 62.1591 526.931 62.3636 527.472 62.7727C528.014 63.178 528.372 63.7216 528.546 64.4034ZM531.795 68.0398L531.784 65.9659H532.079L535.556 62.2727H537.59L533.625 66.4773H533.358L531.795 68.0398ZM530.233 71V59.3636H531.931V71H530.233ZM535.744 71L532.619 66.8523L533.789 65.6648L537.829 71H535.744ZM550.681 63.0398C550.571 62.6951 550.423 62.3864 550.237 62.1136C550.056 61.8371 549.838 61.6023 549.584 61.4091C549.33 61.2121 549.04 61.0625 548.715 60.9602C548.393 60.858 548.038 60.8068 547.652 60.8068C546.997 60.8068 546.406 60.9754 545.879 61.3125C545.353 61.6496 544.936 62.1439 544.629 62.7955C544.326 63.4432 544.175 64.2367 544.175 65.1761C544.175 66.1193 544.328 66.9167 544.635 67.5682C544.942 68.2197 545.362 68.714 545.896 69.0511C546.431 69.3883 547.038 69.5568 547.72 69.5568C548.353 69.5568 548.904 69.428 549.374 69.1705C549.847 68.9129 550.213 68.5492 550.47 68.0795C550.732 67.6061 550.862 67.0492 550.862 66.4091L551.317 66.4943H547.987V65.0455H552.561V66.3693C552.561 67.3466 552.353 68.1951 551.936 68.9148C551.523 69.6307 550.951 70.1837 550.22 70.5739C549.493 70.964 548.66 71.1591 547.72 71.1591C546.667 71.1591 545.743 70.9167 544.948 70.4318C544.156 69.947 543.538 69.2595 543.095 68.3693C542.652 67.4754 542.431 66.4148 542.431 65.1875C542.431 64.2595 542.559 63.4261 542.817 62.6875C543.074 61.9489 543.436 61.322 543.902 60.8068C544.372 60.2879 544.923 59.892 545.556 59.6193C546.192 59.3428 546.887 59.2045 547.641 59.2045C548.27 59.2045 548.855 59.2973 549.396 59.483C549.942 59.6686 550.427 59.9318 550.851 60.2727C551.279 60.6136 551.633 61.0189 551.913 61.4886C552.194 61.9545 552.383 62.4716 552.482 63.0398H550.681ZM554.302 71V62.2727H555.944V63.6591H556.035C556.194 63.1894 556.474 62.8201 556.875 62.5511C557.281 62.2784 557.739 62.142 558.25 62.142C558.356 62.142 558.481 62.1458 558.625 62.1534C558.773 62.161 558.889 62.1705 558.972 62.1818V63.8068C558.904 63.7879 558.783 63.767 558.608 63.7443C558.434 63.7178 558.26 63.7045 558.086 63.7045C557.684 63.7045 557.326 63.7898 557.012 63.9602C556.701 64.1269 556.455 64.3598 556.273 64.6591C556.091 64.9545 556 65.2917 556 65.6705V71H554.302ZM562.552 71.1932C561.999 71.1932 561.499 71.0909 561.052 70.8864C560.605 70.678 560.251 70.3769 559.989 69.983C559.732 69.589 559.603 69.1061 559.603 68.5341C559.603 68.0417 559.698 67.6364 559.887 67.3182C560.076 67 560.332 66.7481 560.654 66.5625C560.976 66.3769 561.336 66.2367 561.734 66.142C562.131 66.0473 562.537 65.9754 562.95 65.9261C563.472 65.8655 563.897 65.8163 564.222 65.7784C564.548 65.7367 564.785 65.6705 564.932 65.5795C565.08 65.4886 565.154 65.3409 565.154 65.1364V65.0966C565.154 64.6004 565.014 64.2159 564.734 63.9432C564.457 63.6705 564.044 63.5341 563.495 63.5341C562.923 63.5341 562.472 63.661 562.143 63.9148C561.817 64.1648 561.592 64.4432 561.467 64.75L559.87 64.3864C560.059 63.8561 560.336 63.428 560.7 63.1023C561.067 62.7727 561.489 62.5341 561.967 62.3864C562.444 62.2348 562.946 62.1591 563.472 62.1591C563.821 62.1591 564.19 62.2008 564.58 62.2841C564.974 62.3636 565.342 62.5114 565.682 62.7273C566.027 62.9432 566.309 63.2519 566.529 63.6534C566.749 64.0511 566.859 64.5682 566.859 65.2045V71H565.2V69.8068H565.131C565.022 70.0265 564.857 70.2424 564.637 70.4545C564.417 70.6667 564.135 70.8428 563.79 70.983C563.446 71.1231 563.033 71.1932 562.552 71.1932ZM562.921 69.8295C563.391 69.8295 563.792 69.7367 564.126 69.5511C564.463 69.3655 564.718 69.1231 564.893 68.8239C565.071 68.5208 565.16 68.197 565.16 67.8523V66.7273C565.099 66.7879 564.982 66.8447 564.807 66.8977C564.637 66.947 564.442 66.9905 564.222 67.0284C564.003 67.0625 563.789 67.0947 563.58 67.125C563.372 67.1515 563.198 67.1742 563.057 67.1932C562.728 67.2348 562.427 67.3049 562.154 67.4034C561.885 67.5019 561.669 67.6439 561.506 67.8295C561.347 68.0114 561.268 68.2538 561.268 68.5568C561.268 68.9773 561.423 69.2955 561.734 69.5114C562.044 69.7235 562.44 69.8295 562.921 69.8295ZM568.769 74.2727V62.2727H570.429V63.6875H570.571C570.669 63.5057 570.811 63.2955 570.997 63.0568C571.182 62.8182 571.44 62.6098 571.769 62.4318C572.099 62.25 572.535 62.1591 573.076 62.1591C573.781 62.1591 574.41 62.3371 574.963 62.6932C575.516 63.0492 575.949 63.5625 576.264 64.233C576.582 64.9034 576.741 65.7102 576.741 66.6534C576.741 67.5966 576.584 68.4053 576.269 69.0795C575.955 69.75 575.523 70.267 574.974 70.6307C574.425 70.9905 573.798 71.1705 573.093 71.1705C572.563 71.1705 572.129 71.0814 571.792 70.9034C571.459 70.7254 571.197 70.517 571.008 70.2784C570.819 70.0398 570.673 69.8277 570.571 69.642H570.468V74.2727H568.769ZM570.434 66.6364C570.434 67.25 570.523 67.7879 570.701 68.25C570.879 68.7121 571.137 69.0739 571.474 69.3352C571.811 69.5928 572.224 69.7216 572.713 69.7216C573.22 69.7216 573.644 69.5871 573.985 69.3182C574.326 69.0455 574.584 68.6761 574.758 68.2102C574.936 67.7443 575.025 67.2197 575.025 66.6364C575.025 66.0606 574.938 65.5436 574.764 65.0852C574.593 64.6269 574.336 64.2652 573.991 64C573.65 63.7348 573.224 63.6023 572.713 63.6023C572.22 63.6023 571.804 63.7292 571.463 63.983C571.125 64.2367 570.87 64.5909 570.696 65.0455C570.521 65.5 570.434 66.0303 570.434 66.6364ZM579.991 65.8182V71H578.292V59.3636H579.969V63.6932H580.077C580.281 63.2235 580.594 62.8504 581.014 62.5739C581.434 62.2973 581.984 62.1591 582.662 62.1591C583.26 62.1591 583.783 62.2822 584.23 62.5284C584.681 62.7746 585.029 63.142 585.275 63.6307C585.525 64.1155 585.65 64.7216 585.65 65.4489V71H583.952V65.6534C583.952 65.0133 583.787 64.517 583.457 64.1648C583.128 63.8087 582.669 63.6307 582.082 63.6307C581.681 63.6307 581.321 63.7159 581.003 63.8864C580.688 64.0568 580.44 64.3068 580.258 64.6364C580.08 64.9621 579.991 65.3561 579.991 65.8182Z" fill="#94A3B8"/>
</svg>
