<svg width="621" height="471" viewBox="0 0 621 471" fill="none" xmlns="http://www.w3.org/2000/svg">
<rect x="279" y="25" width="67.2" height="38.4" rx="8" fill="#94A3B8"/>
<path d="M289.172 48.1449C288.757 48.1449 288.382 48.0682 288.047 47.9148C287.711 47.7585 287.446 47.5327 287.25 47.2372C287.056 46.9418 286.96 46.5795 286.96 46.1506C286.96 45.7812 287.031 45.4773 287.173 45.2386C287.315 45 287.507 44.8111 287.748 44.6719C287.99 44.5327 288.26 44.4276 288.558 44.3565C288.856 44.2855 289.16 44.2315 289.47 44.1946C289.862 44.1491 290.18 44.1122 290.424 44.0838C290.669 44.0526 290.846 44.0028 290.957 43.9347C291.068 43.8665 291.123 43.7557 291.123 43.6023V43.5724C291.123 43.2003 291.018 42.9119 290.808 42.7074C290.6 42.5028 290.291 42.4006 289.879 42.4006C289.45 42.4006 289.112 42.4957 288.865 42.6861C288.62 42.8736 288.451 43.0824 288.358 43.3125L287.16 43.0398C287.302 42.642 287.51 42.321 287.782 42.0767C288.058 41.8295 288.375 41.6506 288.733 41.5398C289.091 41.4261 289.467 41.3693 289.862 41.3693C290.123 41.3693 290.4 41.4006 290.693 41.4631C290.988 41.5227 291.264 41.6335 291.52 41.7955C291.778 41.9574 291.99 42.1889 292.154 42.4901C292.319 42.7884 292.402 43.1761 292.402 43.6534V48H291.157V47.1051H291.106C291.024 47.2699 290.9 47.4318 290.735 47.5909C290.571 47.75 290.359 47.8821 290.1 47.9872C289.842 48.0923 289.532 48.1449 289.172 48.1449ZM289.449 47.1222C289.801 47.1222 290.102 47.0526 290.352 46.9134C290.605 46.7741 290.797 46.5923 290.927 46.3679C291.061 46.1406 291.127 45.8977 291.127 45.6392V44.7955C291.082 44.8409 290.994 44.8835 290.863 44.9233C290.735 44.9602 290.589 44.9929 290.424 45.0213C290.26 45.0469 290.099 45.071 289.943 45.0938C289.787 45.1136 289.656 45.1307 289.551 45.1449C289.304 45.1761 289.078 45.2287 288.873 45.3026C288.672 45.3764 288.51 45.483 288.387 45.6222C288.268 45.7585 288.208 45.9403 288.208 46.1676C288.208 46.483 288.325 46.7216 288.558 46.8835C288.791 47.0426 289.088 47.1222 289.449 47.1222ZM294.099 50.4545V41.4545H295.343V42.5156H295.45C295.523 42.3793 295.63 42.2216 295.769 42.0426C295.908 41.8636 296.102 41.7074 296.349 41.5739C296.596 41.4375 296.923 41.3693 297.329 41.3693C297.857 41.3693 298.329 41.5028 298.744 41.7699C299.158 42.0369 299.484 42.4219 299.719 42.9247C299.958 43.4276 300.077 44.0327 300.077 44.7401C300.077 45.4474 299.96 46.054 299.724 46.5597C299.488 47.0625 299.164 47.4503 298.752 47.723C298.34 47.9929 297.87 48.1278 297.342 48.1278C296.944 48.1278 296.619 48.0611 296.366 47.9276C296.116 47.794 295.92 47.6378 295.778 47.4588C295.636 47.2798 295.526 47.1207 295.45 46.9815H295.373V50.4545H294.099ZM295.347 44.7273C295.347 45.1875 295.414 45.5909 295.548 45.9375C295.681 46.2841 295.874 46.5554 296.127 46.7514C296.38 46.9446 296.69 47.0412 297.056 47.0412C297.437 47.0412 297.755 46.9403 298.011 46.7386C298.266 46.5341 298.46 46.2571 298.59 45.9077C298.724 45.5582 298.79 45.1648 298.79 44.7273C298.79 44.2955 298.725 43.9077 298.594 43.5639C298.467 43.2202 298.273 42.9489 298.015 42.75C297.759 42.5511 297.44 42.4517 297.056 42.4517C296.687 42.4517 296.374 42.5469 296.119 42.7372C295.866 42.9276 295.674 43.1932 295.543 43.5341C295.413 43.875 295.347 44.2727 295.347 44.7273ZM301.505 50.4545V41.4545H302.749V42.5156H302.856C302.93 42.3793 303.036 42.2216 303.175 42.0426C303.315 41.8636 303.508 41.7074 303.755 41.5739C304.002 41.4375 304.329 41.3693 304.735 41.3693C305.263 41.3693 305.735 41.5028 306.15 41.7699C306.565 42.0369 306.89 42.4219 307.126 42.9247C307.364 43.4276 307.484 44.0327 307.484 44.7401C307.484 45.4474 307.366 46.054 307.13 46.5597C306.894 47.0625 306.57 47.4503 306.158 47.723C305.746 47.9929 305.276 48.1278 304.748 48.1278C304.35 48.1278 304.025 48.0611 303.772 47.9276C303.522 47.794 303.326 47.6378 303.184 47.4588C303.042 47.2798 302.933 47.1207 302.856 46.9815H302.779V50.4545H301.505ZM302.754 44.7273C302.754 45.1875 302.82 45.5909 302.954 45.9375C303.087 46.2841 303.281 46.5554 303.533 46.7514C303.786 46.9446 304.096 47.0412 304.462 47.0412C304.843 47.0412 305.161 46.9403 305.417 46.7386C305.673 46.5341 305.866 46.2571 305.996 45.9077C306.13 45.5582 306.197 45.1648 306.197 44.7273C306.197 44.2955 306.131 43.9077 306.001 43.5639C305.873 43.2202 305.68 42.9489 305.421 42.75C305.165 42.5511 304.846 42.4517 304.462 42.4517C304.093 42.4517 303.781 42.5469 303.525 42.7372C303.272 42.9276 303.08 43.1932 302.95 43.5341C302.819 43.875 302.754 44.2727 302.754 44.7273ZM309.751 48.081C309.518 48.081 309.317 47.9986 309.15 47.8338C308.982 47.6662 308.898 47.4645 308.898 47.2287C308.898 46.9957 308.982 46.7969 309.15 46.6321C309.317 46.4645 309.518 46.3807 309.751 46.3807C309.984 46.3807 310.184 46.4645 310.352 46.6321C310.519 46.7969 310.603 46.9957 310.603 47.2287C310.603 47.3849 310.563 47.5284 310.484 47.6591C310.407 47.7869 310.305 47.8892 310.177 47.9659C310.049 48.0426 309.907 48.081 309.751 48.081ZM309.751 43.3168C309.518 43.3168 309.317 43.233 309.15 43.0653C308.982 42.8977 308.898 42.6974 308.898 42.4645C308.898 42.2315 308.982 42.0327 309.15 41.8679C309.317 41.7003 309.518 41.6165 309.751 41.6165C309.984 41.6165 310.184 41.7003 310.352 41.8679C310.519 42.0327 310.603 42.2315 310.603 42.4645C310.603 42.6207 310.563 42.7642 310.484 42.8949C310.407 43.0227 310.305 43.125 310.177 43.2017C310.049 43.2784 309.907 43.3168 309.751 43.3168ZM312.412 48V39.2727H313.686V42.5156H313.763C313.837 42.3793 313.943 42.2216 314.082 42.0426C314.222 41.8636 314.415 41.7074 314.662 41.5739C314.909 41.4375 315.236 41.3693 315.642 41.3693C316.17 41.3693 316.642 41.5028 317.057 41.7699C317.472 42.0369 317.797 42.4219 318.033 42.9247C318.271 43.4276 318.391 44.0327 318.391 44.7401C318.391 45.4474 318.273 46.054 318.037 46.5597C317.801 47.0625 317.477 47.4503 317.065 47.723C316.653 47.9929 316.183 48.1278 315.655 48.1278C315.257 48.1278 314.932 48.0611 314.679 47.9276C314.429 47.794 314.233 47.6378 314.091 47.4588C313.949 47.2798 313.839 47.1207 313.763 46.9815H313.656V48H312.412ZM313.661 44.7273C313.661 45.1875 313.727 45.5909 313.861 45.9375C313.994 46.2841 314.188 46.5554 314.44 46.7514C314.693 46.9446 315.003 47.0412 315.369 47.0412C315.75 47.0412 316.068 46.9403 316.324 46.7386C316.58 46.5341 316.773 46.2571 316.903 45.9077C317.037 45.5582 317.104 45.1648 317.104 44.7273C317.104 44.2955 317.038 43.9077 316.908 43.5639C316.78 43.2202 316.587 42.9489 316.328 42.75C316.072 42.5511 315.753 42.4517 315.369 42.4517C315 42.4517 314.688 42.5469 314.432 42.7372C314.179 42.9276 313.987 43.1932 313.857 43.5341C313.726 43.875 313.661 44.2727 313.661 44.7273ZM323.968 45.2855V41.4545H325.246V48H323.993V46.8665H323.925C323.775 47.2159 323.533 47.5071 323.201 47.7401C322.871 47.9702 322.461 48.0852 321.969 48.0852C321.549 48.0852 321.176 47.9929 320.853 47.8082C320.532 47.6207 320.279 47.3438 320.094 46.9773C319.912 46.6108 319.821 46.1577 319.821 45.6179V41.4545H321.096V45.4645C321.096 45.9105 321.219 46.2656 321.466 46.5298C321.713 46.794 322.034 46.9261 322.429 46.9261C322.668 46.9261 322.905 46.8665 323.141 46.7472C323.38 46.6278 323.577 46.4474 323.733 46.206C323.892 45.9645 323.971 45.6577 323.968 45.2855ZM326.958 48V41.4545H328.232V48H326.958ZM327.602 40.4446C327.38 40.4446 327.19 40.3707 327.031 40.223C326.874 40.0724 326.796 39.8935 326.796 39.6861C326.796 39.4759 326.874 39.2969 327.031 39.1491C327.19 38.9986 327.38 38.9233 327.602 38.9233C327.823 38.9233 328.012 38.9986 328.168 39.1491C328.327 39.2969 328.407 39.4759 328.407 39.6861C328.407 39.8935 328.327 40.0724 328.168 40.223C328.012 40.3707 327.823 40.4446 327.602 40.4446ZM331.221 39.2727V48H329.946V39.2727H331.221ZM335.385 48.1278C334.857 48.1278 334.385 47.9929 333.97 47.723C333.558 47.4503 333.234 47.0625 332.999 46.5597C332.766 46.054 332.649 45.4474 332.649 44.7401C332.649 44.0327 332.767 43.4276 333.003 42.9247C333.241 42.4219 333.568 42.0369 333.983 41.7699C334.398 41.5028 334.868 41.3693 335.393 41.3693C335.8 41.3693 336.126 41.4375 336.374 41.5739C336.624 41.7074 336.817 41.8636 336.953 42.0426C337.092 42.2216 337.2 42.3793 337.277 42.5156H337.354V39.2727H338.628V48H337.384V46.9815H337.277C337.2 47.1207 337.089 47.2798 336.945 47.4588C336.803 47.6378 336.607 47.794 336.357 47.9276C336.107 48.0611 335.783 48.1278 335.385 48.1278ZM335.666 47.0412C336.033 47.0412 336.342 46.9446 336.595 46.7514C336.851 46.5554 337.044 46.2841 337.175 45.9375C337.308 45.5909 337.375 45.1875 337.375 44.7273C337.375 44.2727 337.31 43.875 337.179 43.5341C337.048 43.1932 336.857 42.9276 336.604 42.7372C336.351 42.5469 336.038 42.4517 335.666 42.4517C335.283 42.4517 334.963 42.5511 334.707 42.75C334.452 42.9489 334.259 43.2202 334.128 43.5639C334 43.9077 333.936 44.2955 333.936 44.7273C333.936 45.1648 334.001 45.5582 334.132 45.9077C334.263 46.2571 334.456 46.5341 334.712 46.7386C334.97 46.9403 335.288 47.0412 335.666 47.0412Z" fill="white"/>
<rect x="318" y="279" width="29" height="16" rx="4" fill="#94A3B8"/>
<rect x="164" y="183" width="29" height="16" rx="4" fill="#94A3B8"/>
<rect x="110" y="137" width="29" height="16" rx="4" fill="#94A3B8"/>
<rect x="52" y="179" width="29" height="16" rx="4" fill="#94A3B8"/>
<rect x="125" y="228" width="29" height="16" rx="4" fill="#94A3B8"/>
<rect x="55" y="233" width="29" height="16" rx="4" fill="#94A3B8"/>
<rect x="139" y="283" width="29" height="16" rx="4" fill="#94A3B8"/>
<rect x="57" y="375" width="29" height="16" rx="4" fill="#94A3B8"/>
<rect x="98" y="375" width="29" height="16" rx="4" fill="#94A3B8"/>
<rect x="139" y="375" width="29" height="16" rx="4" fill="#94A3B8"/>
<rect x="180" y="375" width="29" height="16" rx="4" fill="#94A3B8"/>
<rect x="234" y="229" width="29" height="16" rx="4" fill="#94A3B8"/>
<rect x="203" y="212" width="29" height="16" rx="4" fill="#94A3B8"/>
<rect x="346" y="212" width="29" height="16" rx="4" fill="#94A3B8"/>
<rect x="423" y="225" width="29" height="16" rx="4" fill="#94A3B8"/>
<rect x="423" y="225" width="29" height="16" rx="4" fill="#94A3B8"/>
<rect x="248" y="171" width="29" height="16" rx="4" fill="#94A3B8"/>
<rect x="304" y="225" width="29" height="16" rx="4" fill="#94A3B8"/>
<rect x="346" y="312" width="29" height="16" rx="4" fill="#94A3B8"/>
<rect x="234" y="300" width="29" height="16" rx="4" fill="#94A3B8"/>
<rect x="66" y="308" width="29" height="16" rx="4" fill="#94A3B8"/>
<rect x="311" y="150" width="29" height="16" rx="4" fill="#94A3B8"/>
<rect x="355" y="121" width="29" height="16" rx="4" fill="#94A3B8"/>
<rect x="446" y="158" width="29" height="16" rx="4" fill="#94A3B8"/>
<rect x="461" y="251" width="29" height="16" rx="4" fill="#94A3B8"/>
<rect x="414" y="332" width="29" height="16" rx="4" fill="#94A3B8"/>
<rect x="214" y="427" width="29" height="16" rx="4" fill="#94A3B8"/>
<rect x="174" y="123" width="29" height="16" rx="4" fill="#94A3B8"/>
<rect x="303" y="383" width="29" height="16" rx="4" fill="#94A3B8"/>
<rect x="512" y="431" width="29" height="16" rx="4" fill="#94A3B8"/>
<rect x="358" y="355" width="29" height="16" rx="4" fill="#94A3B8"/>
<rect x="539" y="204" width="29" height="16" rx="4" fill="#94A3B8"/>
<rect x="260" y="355" width="29" height="16" rx="4" fill="#94A3B8"/>
<path d="M249 249C249 248.724 248.776 248.5 248.5 248.5C248.224 248.5 248 248.724 248 249H249ZM228.146 423.354C228.342 423.549 228.658 423.549 228.854 423.354L232.036 420.172C232.231 419.976 232.231 419.66 232.036 419.464C231.84 419.269 231.524 419.269 231.328 419.464L228.5 422.293L225.672 419.464C225.476 419.269 225.16 419.269 224.964 419.464C224.769 419.66 224.769 419.976 224.964 420.172L228.146 423.354ZM248 249V265.001H249V249H248ZM228 285.001V423H229V285.001H228ZM238.5 274.501C232.701 274.501 228 279.202 228 285.001H229C229 279.754 233.253 275.501 238.5 275.501V274.501ZM248 265.001C248 270.247 243.747 274.501 238.5 274.501V275.501C244.299 275.501 249 270.8 249 265.001H248Z" fill="#94A3B8"/>
<path d="M249 320C249 319.724 248.776 319.5 248.5 319.5C248.224 319.5 248 319.724 248 320H249ZM228.146 423.354C228.342 423.549 228.658 423.549 228.854 423.354L232.036 420.172C232.231 419.976 232.231 419.66 232.036 419.464C231.84 419.269 231.524 419.269 231.328 419.464L228.5 422.293L225.672 419.464C225.476 419.269 225.16 419.269 224.964 419.464C224.769 419.66 224.769 419.976 224.964 420.172L228.146 423.354ZM248 320V344H249V320H248ZM228 364V423H229V364H228ZM238.5 353.5C232.701 353.5 228 358.201 228 364H229C229 358.753 233.253 354.5 238.5 354.5V353.5ZM248 344C248 349.247 243.747 353.5 238.5 353.5V354.5C244.299 354.5 249 349.799 249 344H248Z" fill="#94A3B8"/>
<path d="M319 245C319 244.724 318.776 244.5 318.5 244.5C318.224 244.5 318 244.724 318 245H319ZM332.146 275.354C332.342 275.549 332.658 275.549 332.854 275.354L336.036 272.172C336.231 271.976 336.231 271.66 336.036 271.464C335.84 271.269 335.524 271.269 335.328 271.464L332.5 274.293L329.672 271.464C329.476 271.269 329.16 271.269 328.964 271.464C328.769 271.66 328.769 271.976 328.964 272.172L332.146 275.354ZM318 245V253H319V245H318ZM332 267V275H333V267H332ZM325.5 260.5C329.09 260.5 332 263.41 332 267H333C333 262.858 329.642 259.5 325.5 259.5V260.5ZM318 253C318 257.142 321.358 260.5 325.5 260.5V259.5C321.91 259.5 319 256.59 319 253H318Z" fill="#94A3B8"/>
<path d="M319 245C319 244.724 318.776 244.5 318.5 244.5C318.224 244.5 318 244.724 318 245H319ZM248.146 296.354C248.342 296.549 248.658 296.549 248.854 296.354L252.036 293.172C252.231 292.976 252.231 292.66 252.036 292.464C251.84 292.269 251.524 292.269 251.328 292.464L248.5 295.293L245.672 292.464C245.476 292.269 245.16 292.269 244.964 292.464C244.769 292.66 244.769 292.976 244.964 293.172L248.146 296.354ZM318 245V246.5H319V245H318ZM294.5 270H272.5V271H294.5V270ZM248 294.5V296H249V294.5H248ZM272.5 270C258.969 270 248 280.969 248 294.5H249C249 281.521 259.521 271 272.5 271V270ZM318 246.5C318 259.479 307.479 270 294.5 270V271C308.031 271 319 260.031 319 246.5H318Z" fill="#94A3B8"/>
<path d="M361 232C361 231.724 360.776 231.5 360.5 231.5C360.224 231.5 360 231.724 360 232H361ZM332.146 275.354C332.342 275.549 332.658 275.549 332.854 275.354L336.036 272.172C336.231 271.976 336.231 271.66 336.036 271.464C335.84 271.269 335.524 271.269 335.328 271.464L332.5 274.293L329.672 271.464C329.476 271.269 329.16 271.269 328.964 271.464C328.769 271.66 328.769 271.976 328.964 272.172L332.146 275.354ZM360 232V239.5H361V232H360ZM332 267.5V275H333V267.5H332ZM346.5 253C338.492 253 332 259.492 332 267.5H333C333 260.044 339.044 254 346.5 254V253ZM360 239.5C360 246.956 353.956 253 346.5 253V254C354.508 254 361 247.508 361 239.5H360Z" fill="#94A3B8"/>
<path d="M333 299C333 298.724 332.776 298.5 332.5 298.5C332.224 298.5 332 298.724 332 299H333ZM274.146 351.354C274.342 351.549 274.658 351.549 274.854 351.354L278.036 348.172C278.231 347.976 278.231 347.66 278.036 347.464C277.84 347.269 277.524 347.269 277.328 347.464L274.5 350.293L271.672 347.464C271.476 347.269 271.16 347.269 270.964 347.464C270.769 347.66 270.769 347.976 270.964 348.172L274.146 351.354ZM332 299V301H333V299H332ZM308.5 324.5H298.5V325.5H308.5V324.5ZM274 349V351H275V349H274ZM298.5 324.5C284.969 324.5 274 335.469 274 349H275C275 336.021 285.521 325.5 298.5 325.5V324.5ZM332 301C332 313.979 321.479 324.5 308.5 324.5V325.5C322.031 325.5 333 314.531 333 301H332Z" fill="#94A3B8"/>
<path d="M438 245C438 244.724 437.776 244.5 437.5 244.5C437.224 244.5 437 244.724 437 245H438ZM274.146 351.354C274.342 351.549 274.658 351.549 274.854 351.354L278.036 348.172C278.231 347.976 278.231 347.66 278.036 347.464C277.84 347.269 277.524 347.269 277.328 347.464L274.5 350.293L271.672 347.464C271.476 347.269 271.16 347.269 270.964 347.464C270.769 347.66 270.769 347.976 270.964 348.172L274.146 351.354ZM437 245V274H438V245H437ZM413.5 297.5H298.5V298.5H413.5V297.5ZM274 322V351H275V322H274ZM298.5 297.5C284.969 297.5 274 308.469 274 322H275C275 309.021 285.521 298.5 298.5 298.5V297.5ZM437 274C437 286.979 426.479 297.5 413.5 297.5V298.5C427.031 298.5 438 287.531 438 274H437Z" fill="#94A3B8"/>
<path d="M438 245C438 244.724 437.776 244.5 437.5 244.5C437.224 244.5 437 244.724 437 245H438ZM360.146 308.354C360.342 308.549 360.658 308.549 360.854 308.354L364.036 305.172C364.231 304.976 364.231 304.66 364.036 304.464C363.84 304.269 363.524 304.269 363.328 304.464L360.5 307.293L357.672 304.464C357.476 304.269 357.16 304.269 356.964 304.464C356.769 304.66 356.769 304.976 356.964 305.172L360.146 308.354ZM437 245V252.5H438V245H437ZM413.5 276H384.5V277H413.5V276ZM360 300.5V308H361V300.5H360ZM384.5 276C370.969 276 360 286.969 360 300.5H361C361 287.521 371.521 277 384.5 277V276ZM437 252.5C437 265.479 426.479 276 413.5 276V277C427.031 277 438 266.031 438 252.5H437Z" fill="#94A3B8"/>
<path d="M361 332C361 331.724 360.776 331.5 360.5 331.5C360.224 331.5 360 331.724 360 332H361ZM317.146 379.354C317.342 379.549 317.658 379.549 317.854 379.354L321.036 376.172C321.231 375.976 321.231 375.66 321.036 375.464C320.84 375.269 320.524 375.269 320.328 375.464L317.5 378.293L314.672 375.464C314.476 375.269 314.16 375.269 313.964 375.464C313.769 375.66 313.769 375.976 313.964 376.172L317.146 379.354ZM360 332V334H361V332H360ZM317 377V379H318V377H317ZM339 355C326.85 355 317 364.85 317 377H318C318 365.402 327.402 356 339 356V355ZM360 334C360 345.598 350.598 355 339 355V356C351.15 356 361 346.15 361 334H360Z" fill="#94A3B8"/>
<path d="M361 332C361 331.724 360.776 331.5 360.5 331.5C360.224 331.5 360 331.724 360 332H361ZM372.146 351.354C372.342 351.549 372.658 351.549 372.854 351.354L376.036 348.172C376.231 347.976 376.231 347.66 376.036 347.464C375.84 347.269 375.524 347.269 375.328 347.464L372.5 350.293L369.672 347.464C369.476 347.269 369.16 347.269 368.964 347.464C368.769 347.66 368.769 347.976 368.964 348.172L372.146 351.354ZM360 332V335.5H361V332H360ZM372 347.5V351H373V347.5H372ZM366.5 342C369.538 342 372 344.462 372 347.5H373C373 343.91 370.09 341 366.5 341V342ZM360 335.5C360 339.09 362.91 342 366.5 342V341C363.462 341 361 338.538 361 335.5H360Z" fill="#94A3B8"/>
<path d="M373 375C373 374.724 372.776 374.5 372.5 374.5C372.224 374.5 372 374.724 372 375H373ZM526.146 427.354C526.342 427.549 526.658 427.549 526.854 427.354L530.036 424.172C530.231 423.976 530.231 423.66 530.036 423.464C529.84 423.269 529.524 423.269 529.328 423.464L526.5 426.293L523.672 423.464C523.476 423.269 523.16 423.269 522.964 423.464C522.769 423.66 522.769 423.976 522.964 424.172L526.146 427.354ZM372 375V377H373V375H372ZM396.5 401.5H502.5V400.5H396.5V401.5ZM526 425V427H527V425H526ZM502.5 401.5C515.479 401.5 526 412.021 526 425H527C527 411.469 516.031 400.5 502.5 400.5V401.5ZM372 377C372 390.531 382.969 401.5 396.5 401.5V400.5C383.521 400.5 373 389.979 373 377H372Z" fill="#94A3B8"/>
<path d="M313.1 67.3994C313.1 67.1233 312.876 66.8994 312.6 66.8994C312.324 66.8994 312.1 67.1233 312.1 67.3994H313.1ZM188.146 119.353C188.342 119.548 188.658 119.548 188.854 119.353L192.036 116.171C192.231 115.976 192.231 115.659 192.036 115.464C191.84 115.269 191.524 115.269 191.328 115.464L188.5 118.292L185.672 115.464C185.476 115.269 185.16 115.269 184.964 115.464C184.769 115.659 184.769 115.976 184.964 116.171L188.146 119.353ZM312.1 67.3994V69.1994H313.1V67.3994H312.1ZM288.6 92.6994H212.5V93.6994H288.6V92.6994ZM188 117.199V118.999H189V117.199H188ZM212.5 92.6994C198.969 92.6994 188 103.668 188 117.199H189C189 104.221 199.521 93.6994 212.5 93.6994V92.6994ZM312.1 69.1994C312.1 82.1781 301.579 92.6994 288.6 92.6994V93.6994C302.131 93.6994 313.1 82.7304 313.1 69.1994H312.1Z" fill="#94A3B8"/>
<path d="M313.1 67.3994C313.1 67.1233 312.876 66.8994 312.6 66.8994C312.324 66.8994 312.1 67.1233 312.1 67.3994H313.1ZM369.146 117.353C369.342 117.548 369.658 117.548 369.854 117.353L373.036 114.171C373.231 113.976 373.231 113.659 373.036 113.464C372.84 113.269 372.524 113.269 372.328 113.464L369.5 116.292L366.672 113.464C366.476 113.269 366.16 113.269 365.965 113.464C365.769 113.659 365.769 113.976 365.965 114.171L369.146 117.353ZM312.1 67.3994V68.1994H313.1V67.3994H312.1ZM336.6 92.6994H345.5V91.6994H336.6V92.6994ZM369 116.199V116.999H370V116.199H369ZM345.5 92.6994C358.479 92.6994 369 103.221 369 116.199H370C370 102.668 359.031 91.6994 345.5 91.6994V92.6994ZM312.1 68.1994C312.1 81.7304 323.069 92.6994 336.6 92.6994V91.6994C323.621 91.6994 313.1 81.1781 313.1 68.1994H312.1Z" fill="#94A3B8"/>
<path d="M313.1 67.3994C313.1 67.1233 312.876 66.8994 312.6 66.8994C312.324 66.8994 312.1 67.1233 312.1 67.3994H313.1ZM325.146 146.353C325.342 146.548 325.658 146.548 325.854 146.353L329.036 143.171C329.231 142.976 329.231 142.659 329.036 142.464C328.84 142.269 328.524 142.269 328.328 142.464L325.5 145.292L322.672 142.464C322.476 142.269 322.16 142.269 321.965 142.464C321.769 142.659 321.769 142.976 321.965 143.171L325.146 146.353ZM312.1 67.3994V100.249H313.1V67.3994H312.1ZM325 113.149V145.999H326V113.149H325ZM319.05 107.199C322.336 107.199 325 109.863 325 113.149H326C326 109.311 322.888 106.199 319.05 106.199V107.199ZM312.1 100.249C312.1 104.088 315.212 107.199 319.05 107.199V106.199C315.764 106.199 313.1 103.536 313.1 100.249H312.1Z" fill="#94A3B8"/>
<path d="M313.1 67.4004C313.1 67.1242 312.876 66.9004 312.6 66.9004C312.324 66.9004 312.1 67.1242 312.1 67.4004H313.1ZM460.146 154.354C460.342 154.549 460.658 154.549 460.854 154.354L464.036 151.172C464.231 150.977 464.231 150.66 464.036 150.465C463.84 150.27 463.524 150.27 463.328 150.465L460.5 153.293L457.672 150.465C457.476 150.27 457.16 150.27 456.964 150.465C456.769 150.66 456.769 150.977 456.964 151.172L460.146 154.354ZM312.1 67.4004V86.7004H313.1V67.4004H312.1ZM336.6 111.2H436.5V110.2H336.6V111.2ZM460 134.7V154H461V134.7H460ZM436.5 111.2C449.479 111.2 460 121.722 460 134.7H461C461 121.169 450.031 110.2 436.5 110.2V111.2ZM312.1 86.7004C312.1 100.231 323.069 111.2 336.6 111.2V110.2C323.621 110.2 313.1 99.6791 313.1 86.7004H312.1Z" fill="#94A3B8"/>
<path d="M553.146 200.354C553.342 200.549 553.658 200.549 553.854 200.354L557.036 197.172C557.231 196.977 557.231 196.66 557.036 196.465C556.84 196.27 556.524 196.27 556.328 196.465L553.5 199.293L550.672 196.465C550.476 196.27 550.16 196.27 549.964 196.465C549.769 196.66 549.769 196.977 549.964 197.172L553.146 200.354ZM326.199 81.4996H529.5V80.4996H326.199V81.4996ZM553 105V200H554V105H553ZM529.5 81.4996C542.479 81.4996 553 92.0209 553 105H554C554 91.4686 543.031 80.4996 529.5 80.4996V81.4996ZM312.1 67.4004C312.1 75.1872 318.412 81.4996 326.199 81.4996V80.4996C318.965 80.4996 313.1 74.6349 313.1 67.4004H312.1Z" fill="#94A3B8"/>
<path d="M554 224C554 223.724 553.776 223.5 553.5 223.5C553.224 223.5 553 223.724 553 224H554ZM526.146 427.354C526.342 427.549 526.658 427.549 526.854 427.354L530.036 424.172C530.231 423.976 530.231 423.66 530.036 423.464C529.84 423.269 529.524 423.269 529.328 423.464L526.5 426.293L523.672 423.464C523.476 423.269 523.16 423.269 522.964 423.464C522.769 423.66 522.769 423.976 522.964 424.172L526.146 427.354ZM553 224V312H554V224H553ZM526 339V427H527V339H526ZM540 325C532.268 325 526 331.268 526 339H527C527 331.82 532.82 326 540 326V325ZM553 312C553 319.18 547.18 325 540 325V326C547.732 326 554 319.732 554 312H553Z" fill="#94A3B8"/>
<path d="M461 178C461 177.724 460.776 177.5 460.5 177.5C460.224 177.5 460 177.724 460 178H461ZM475.146 247.354C475.342 247.549 475.658 247.549 475.854 247.354L479.036 244.172C479.231 243.976 479.231 243.66 479.036 243.464C478.84 243.269 478.524 243.269 478.328 243.464L475.5 246.293L472.672 243.464C472.476 243.269 472.16 243.269 471.964 243.464C471.769 243.66 471.769 243.976 471.964 244.172L475.146 247.354ZM460 178V205H461V178H460ZM475 220V247H476V220H475ZM468 213C471.866 213 475 216.134 475 220H476C476 215.582 472.418 212 468 212V213ZM460 205C460 209.418 463.582 213 468 213V212C464.134 212 461 208.866 461 205H460Z" fill="#94A3B8"/>
<path d="M476 271C476 270.724 475.776 270.5 475.5 270.5C475.224 270.5 475 270.724 475 271H476ZM428.146 328.354C428.342 328.549 428.658 328.549 428.854 328.354L432.036 325.172C432.231 324.976 432.231 324.66 432.036 324.464C431.84 324.269 431.524 324.269 431.328 324.464L428.5 327.293L425.672 324.464C425.476 324.269 425.16 324.269 424.964 324.464C424.769 324.66 424.769 324.976 424.964 325.172L428.146 328.354ZM475 271V276H476V271H475ZM428 323V328H429V323H428ZM452 299C438.745 299 428 309.745 428 323H429C429 310.297 439.297 300 452 300V299ZM475 276C475 288.703 464.703 299 452 299V300C465.255 300 476 289.255 476 276H475Z" fill="#94A3B8"/>
<path d="M461 178C461 177.724 460.776 177.5 460.5 177.5C460.224 177.5 460 177.724 460 178H461ZM437.146 221.354C437.342 221.549 437.658 221.549 437.854 221.354L441.036 218.172C441.231 217.976 441.231 217.66 441.036 217.464C440.84 217.269 440.524 217.269 440.328 217.464L437.5 220.293L434.672 217.464C434.476 217.269 434.16 217.269 433.964 217.464C433.769 217.66 433.769 217.976 433.964 218.172L437.146 221.354ZM460 178V188H461V178H460ZM437 211V221H438V211H437ZM449 199C442.373 199 437 204.373 437 211H438C438 204.925 442.925 200 449 200V199ZM460 188C460 194.075 455.075 199 449 199V200C455.627 200 461 194.627 461 188H460Z" fill="#94A3B8"/>
<path d="M313.1 67.3994C313.1 67.1233 312.876 66.8994 312.6 66.8994C312.324 66.8994 312.1 67.1233 312.1 67.3994H313.1ZM124.146 133.353C124.342 133.548 124.658 133.548 124.854 133.353L128.036 130.171C128.231 129.976 128.231 129.659 128.036 129.464C127.84 129.269 127.524 129.269 127.328 129.464L124.5 132.292L121.672 129.464C121.476 129.269 121.16 129.269 120.964 129.464C120.769 129.659 120.769 129.976 120.964 130.171L124.146 133.353ZM312.1 67.3994V76.1994H313.1V67.3994H312.1ZM288.6 99.6994H148.5V100.699H288.6V99.6994ZM124 124.199V132.999H125V124.199H124ZM148.5 99.6994C134.969 99.6994 124 110.668 124 124.199H125C125 111.221 135.521 100.699 148.5 100.699V99.6994ZM312.1 76.1994C312.1 89.1781 301.579 99.6994 288.6 99.6994V100.699C302.131 100.699 313.1 89.7304 313.1 76.1994H312.1Z" fill="#94A3B8"/>
<path d="M135.5 168.5H167.5V167.5H135.5V168.5ZM167.5 168.5C173.299 168.5 178 173.201 178 179H179C179 172.649 173.851 167.5 167.5 167.5V168.5ZM124 157C124 163.351 129.149 168.5 135.5 168.5V167.5C129.701 167.5 125 162.799 125 157H124Z" fill="#94A3B8"/>
<path d="M115.5 165.5H75.5V166.5H115.5V165.5ZM75.5 165.5C70.2533 165.5 66 169.753 66 175H67C67 170.306 70.8056 166.5 75.5 166.5V165.5ZM124 157C124 161.694 120.194 165.5 115.5 165.5V166.5C120.747 166.5 125 162.247 125 157H124Z" fill="#94A3B8"/>
<path d="M172.5 158.5H82.5V159.5H172.5V158.5ZM82.5 158.5C73.3873 158.5 66 165.887 66 175H67C67 166.44 73.9396 159.5 82.5 159.5V158.5ZM188 143C188 151.56 181.06 158.5 172.5 158.5V159.5C181.613 159.5 189 152.113 189 143H188Z" fill="#94A3B8"/>
<path d="M189 143C189 142.724 188.776 142.5 188.5 142.5C188.224 142.5 188 142.724 188 143H189ZM217.146 208.354C217.342 208.549 217.658 208.549 217.854 208.354L221.036 205.172C221.231 204.976 221.231 204.66 221.036 204.464C220.84 204.269 220.524 204.269 220.328 204.464L217.5 207.293L214.672 204.464C214.476 204.269 214.16 204.269 213.964 204.464C213.769 204.66 213.769 204.976 213.964 205.172L217.146 208.354ZM188 143V161H189V143H188ZM217 190V208H218V190H217ZM203 176C210.732 176 217 182.268 217 190H218C218 181.716 211.284 175 203 175V176ZM188 161C188 169.284 194.716 176 203 176V175C195.268 175 189 168.732 189 161H188Z" fill="#94A3B8"/>
<path d="M200.5 155.5H250.5V154.5H200.5V155.5ZM250.5 155.5C256.851 155.5 262 160.649 262 167H263C263 160.096 257.404 154.5 250.5 154.5V155.5ZM188 143C188 149.904 193.596 155.5 200.5 155.5V154.5C194.149 154.5 189 149.351 189 143H188Z" fill="#94A3B8"/>
<path d="M175.22 199.5C175.496 199.5 175.72 199.276 175.72 199C175.72 198.724 175.496 198.5 175.22 198.5V199.5ZM139.146 224.354C139.342 224.549 139.658 224.549 139.854 224.354L143.036 221.172C143.231 220.976 143.231 220.66 143.036 220.464C142.84 220.269 142.524 220.269 142.328 220.464L139.5 223.293L136.672 220.464C136.476 220.269 136.16 220.269 135.964 220.464C135.769 220.66 135.769 220.976 135.964 221.172L139.146 224.354ZM175.22 198.5H163.5V199.5H175.22V198.5ZM139 223V224H140V223H139ZM163.5 198.5C149.969 198.5 139 209.469 139 223H140C140 210.021 150.521 199.5 163.5 199.5V198.5Z" fill="#94A3B8"/>
<path d="M67 199C67 198.724 66.7761 198.5 66.5 198.5C66.2239 198.5 66 198.724 66 199H67ZM69.1464 229.354C69.3417 229.549 69.6583 229.549 69.8536 229.354L73.0355 226.172C73.2308 225.976 73.2308 225.66 73.0355 225.464C72.8403 225.269 72.5237 225.269 72.3284 225.464L69.5 228.293L66.6716 225.464C66.4763 225.269 66.1597 225.269 65.9645 225.464C65.7692 225.66 65.7692 225.976 65.9645 226.172L69.1464 229.354ZM66 199V212.5H67V199H66ZM69 215.5V229H70V215.5H69ZM68 214.5C68.5523 214.5 69 214.948 69 215.5H70C70 214.395 69.1046 213.5 68 213.5V214.5ZM66 212.5C66 213.605 66.8954 214.5 68 214.5V213.5C67.4477 213.5 67 213.052 67 212.5H66Z" fill="#94A3B8"/>
<path d="M70 253C70 252.724 69.7761 252.5 69.5 252.5C69.2239 252.5 69 252.724 69 253H70ZM80.1464 304.354C80.3417 304.549 80.6583 304.549 80.8536 304.354L84.0355 301.172C84.2308 300.976 84.2308 300.66 84.0355 300.464C83.8403 300.269 83.5237 300.269 83.3284 300.464L80.5 303.293L77.6716 300.464C77.4763 300.269 77.1597 300.269 76.9645 300.464C76.7692 300.66 76.7692 300.976 76.9645 301.172L80.1464 304.354ZM69 253V273H70V253H69ZM80 284V304H81V284H80ZM75 279C77.7614 279 80 281.239 80 284H81C81 280.686 78.3137 278 75 278V279ZM69 273C69 276.314 71.6863 279 75 279V278C72.2386 278 70 275.761 70 273H69Z" fill="#94A3B8"/>
<path d="M140 248C140 247.724 139.776 247.5 139.5 247.5C139.224 247.5 139 247.724 139 248H140ZM153.146 279.354C153.342 279.549 153.658 279.549 153.854 279.354L157.036 276.172C157.231 275.976 157.231 275.66 157.036 275.464C156.84 275.269 156.524 275.269 156.328 275.464L153.5 278.293L150.672 275.464C150.476 275.269 150.16 275.269 149.964 275.464C149.769 275.66 149.769 275.976 149.964 276.172L153.146 279.354ZM139 248V256.5H140V248H139ZM153 270.5V279H154V270.5H153ZM146.5 264C150.09 264 153 266.91 153 270.5H154C154 266.358 150.642 263 146.5 263V264ZM139 256.5C139 260.642 142.358 264 146.5 264V263C142.91 263 140 260.09 140 256.5H139Z" fill="#94A3B8"/>
<path d="M154 303C154 302.724 153.776 302.5 153.5 302.5C153.224 302.5 153 302.724 153 303H154ZM71.1464 371.354C71.3417 371.549 71.6583 371.549 71.8536 371.354L75.0355 368.172C75.2308 367.976 75.2308 367.66 75.0355 367.464C74.8403 367.269 74.5237 367.269 74.3284 367.464L71.5 370.293L68.6716 367.464C68.4763 367.269 68.1597 367.269 67.9645 367.464C67.7692 367.66 67.7692 367.976 67.9645 368.172L71.1464 371.354ZM153 303V313H154V303H153ZM129.5 336.5H95.5V337.5H129.5V336.5ZM71 361V371H72V361H71ZM95.5 336.5C81.969 336.5 71 347.469 71 361H72C72 348.021 82.5213 337.5 95.5 337.5V336.5ZM153 313C153 325.979 142.479 336.5 129.5 336.5V337.5C143.031 337.5 154 326.531 154 313H153Z" fill="#94A3B8"/>
<path d="M154 303C154 302.724 153.776 302.5 153.5 302.5C153.224 302.5 153 302.724 153 303H154ZM112.146 371.354C112.342 371.549 112.658 371.549 112.854 371.354L116.036 368.172C116.231 367.976 116.231 367.66 116.036 367.464C115.84 367.269 115.524 367.269 115.328 367.464L112.5 370.293L109.672 367.464C109.476 367.269 109.16 367.269 108.964 367.464C108.769 367.66 108.769 367.976 108.964 368.172L112.146 371.354ZM153 303V316.5H154V303H153ZM112 357.5V371H113V357.5H112ZM133 336.5C121.402 336.5 112 345.902 112 357.5H113C113 346.454 121.954 337.5 133 337.5V336.5ZM153 316.5C153 327.546 144.046 336.5 133 336.5V337.5C144.598 337.5 154 328.098 154 316.5H153Z" fill="#94A3B8"/>
<path d="M154 303C154 302.724 153.776 302.5 153.5 302.5C153.224 302.5 153 302.724 153 303H154ZM153.146 371.354C153.342 371.549 153.658 371.549 153.854 371.354L157.036 368.172C157.231 367.976 157.231 367.66 157.036 367.464C156.84 367.269 156.524 367.269 156.328 367.464L153.5 370.293L150.672 367.464C150.476 367.269 150.16 367.269 149.964 367.464C149.769 367.66 149.769 367.976 149.964 368.172L153.146 371.354ZM153 303V371H154V303H153Z" fill="#94A3B8"/>
<path d="M154 303C154 302.724 153.776 302.5 153.5 302.5C153.224 302.5 153 302.724 153 303H154ZM194.146 371.354C194.342 371.549 194.658 371.549 194.854 371.354L198.036 368.172C198.231 367.976 198.231 367.66 198.036 367.464C197.84 367.269 197.524 367.269 197.328 367.464L194.5 370.293L191.672 367.464C191.476 367.269 191.16 367.269 190.964 367.464C190.769 367.66 190.769 367.976 190.964 368.172L194.146 371.354ZM153 303V316.5H154V303H153ZM194 357.5V371H195V357.5H194ZM174 337.5C185.046 337.5 194 346.454 194 357.5H195C195 345.902 185.598 336.5 174 336.5V337.5ZM153 316.5C153 328.098 162.402 337.5 174 337.5V336.5C162.954 336.5 154 327.546 154 316.5H153Z" fill="#94A3B8"/>
<path d="M208.5 409.5H214.5V408.5H208.5V409.5ZM214.5 409.5C221.956 409.5 228 415.544 228 423H229C229 414.992 222.508 408.5 214.5 408.5V409.5ZM194 395C194 403.008 200.492 409.5 208.5 409.5V408.5C201.044 408.5 195 402.456 195 395H194Z" fill="#94A3B8"/>
<path d="M167.5 409.5H214.5V408.5H167.5V409.5ZM214.5 409.5C221.956 409.5 228 415.544 228 423H229C229 414.992 222.508 408.5 214.5 408.5V409.5ZM153 395C153 403.008 159.492 409.5 167.5 409.5V408.5C160.044 408.5 154 402.456 154 395H153Z" fill="#94A3B8"/>
<path d="M126.5 409.5H214.5V408.5H126.5V409.5ZM214.5 409.5C221.956 409.5 228 415.544 228 423H229C229 414.992 222.508 408.5 214.5 408.5V409.5ZM112 395C112 403.008 118.492 409.5 126.5 409.5V408.5C119.044 408.5 113 402.456 113 395H112Z" fill="#94A3B8"/>
<path d="M194 255H177V256H194V255ZM177 255C163.745 255 153 265.745 153 279H154C154 266.297 164.297 256 177 256V255ZM217 232C217 244.703 206.703 255 194 255V256C207.255 256 218 245.255 218 232H217Z" fill="#94A3B8"/>
<path d="M263 191C263 190.724 262.776 190.5 262.5 190.5C262.224 190.5 262 190.724 262 191H263ZM248.146 225.354C248.342 225.549 248.658 225.549 248.854 225.354L252.036 222.172C252.231 221.976 252.231 221.66 252.036 221.464C251.84 221.269 251.524 221.269 251.328 221.464L248.5 224.293L245.672 221.464C245.476 221.269 245.16 221.269 244.964 221.464C244.769 221.66 244.769 221.976 244.964 222.172L248.146 225.354ZM262 191V201H263V191H262ZM248 215V225H249V215H248ZM255.5 207.5C251.358 207.5 248 210.858 248 215H249C249 211.41 251.91 208.5 255.5 208.5V207.5ZM262 201C262 204.59 259.09 207.5 255.5 207.5V208.5C259.642 208.5 263 205.142 263 201H262Z" fill="#94A3B8"/>
<path d="M326 170C326 169.724 325.776 169.5 325.5 169.5C325.224 169.5 325 169.724 325 170H326ZM318.146 221.354C318.342 221.549 318.658 221.549 318.854 221.354L322.036 218.172C322.231 217.976 322.231 217.66 322.036 217.464C321.84 217.269 321.524 217.269 321.328 217.464L318.5 220.293L315.672 217.464C315.476 217.269 315.16 217.269 314.964 217.464C314.769 217.66 314.769 217.976 314.964 218.172L318.146 221.354ZM325 170V192H326V170H325ZM318 199V221H319V199H318ZM322 195C319.791 195 318 196.791 318 199H319C319 197.343 320.343 196 322 196V195ZM325 192C325 193.657 323.657 195 322 195V196C324.209 196 326 194.209 326 192H325Z" fill="#94A3B8"/>
<path d="M326 170C326 169.724 325.776 169.5 325.5 169.5C325.224 169.5 325 169.724 325 170H326ZM360.146 208.354C360.342 208.549 360.658 208.549 360.854 208.354L364.036 205.172C364.231 204.976 364.231 204.66 364.036 204.464C363.84 204.269 363.524 204.269 363.328 204.464L360.5 207.293L357.672 204.464C357.476 204.269 357.16 204.269 356.964 204.464C356.769 204.66 356.769 204.976 356.964 205.172L360.146 208.354ZM325 170V171.5H326V170H325ZM360 206.5V208H361V206.5H360ZM343 189.5C352.389 189.5 360 197.111 360 206.5H361C361 196.559 352.941 188.5 343 188.5V189.5ZM325 171.5C325 181.441 333.059 189.5 343 189.5V188.5C333.611 188.5 326 180.889 326 171.5H325Z" fill="#94A3B8"/>
</svg>
