<svg xmlns="http://www.w3.org/2000/svg" fill="none" viewBox="0 0 1250 600">
  <rect width="220" height="69" x="450" y="229" fill="#3B82F6" rx="8"/>
  <rect width="348" height="35" x="24.5" y="528.5" stroke="#94A3B8" stroke-opacity=".2" rx="8.5"/>
  <path stroke="#94A3B8" stroke-linecap="round" stroke-linejoin="round" stroke-width="1.5" d="m43.4688 540.438 6 6-6 6"/>
  <path fill="#94A3B8" d="M59.386 552v-9.9h2.196v1.89h.612l-.612.522c0-.816.234-1.452.702-1.908.48-.456 1.134-.684 1.962-.684.972 0 1.746.324 2.322.972.588.648.882 1.518.882 2.61V552H65.2v-6.264c0-.6-.156-1.062-.468-1.386-.312-.324-.75-.486-1.314-.486-.552 0-.99.168-1.314.504-.312.336-.468.816-.468 1.44V552h-2.25Zm10.055 0 3.456-5.112-3.222-4.788h2.538l1.53 2.43c.096.144.18.306.252.486.084.18.15.324.198.432.048-.108.114-.252.198-.432a6.02 6.02 0 0 1 .252-.486l1.548-2.43h2.538l-3.222 4.788L78.945 552h-2.556l-1.71-2.718a4.9754 4.9754 0 0 1-.27-.504c-.084-.18-.156-.324-.216-.432-.048.108-.114.252-.198.432s-.174.348-.27.504L71.979 552h-2.538Zm27.1839.18c-.816 0-1.464-.228-1.944-.684-.48-.468-.72-1.104-.72-1.908l.504.522h-.504V552h-2.196v-13.14h2.25v2.772l-.072 2.358h.522l-.504.522c0-.804.24-1.434.72-1.89.48-.468 1.128-.702 1.944-.702.996 0 1.794.342 2.394 1.026.6.684.9 1.608.9 2.772v2.682c0 1.152-.3 2.07-.9 2.754-.6.684-1.398 1.026-2.394 1.026Zm-.792-1.944c.576 0 1.026-.168 1.35-.504.324-.336.486-.816.486-1.44v-2.484c0-.624-.162-1.104-.486-1.44-.324-.336-.774-.504-1.35-.504-.564 0-1.008.174-1.332.522-.324.336-.486.81-.486 1.422v2.484c0 .612.162 1.092.486 1.44.324.336.768.504 1.332.504Zm10.7391 1.944c-1.26 0-2.25-.348-2.97-1.044-.72-.708-1.08-1.668-1.08-2.88V542.1h2.25v6.138c0 .636.156 1.128.468 1.476.312.336.756.504 1.332.504.564 0 1.002-.168 1.314-.504.324-.348.486-.84.486-1.476V542.1h2.25v6.156c0 1.212-.366 2.172-1.098 2.88-.732.696-1.716 1.044-2.952 1.044Zm6.761-.18v-2.052h3.456v-5.814h-3.006V542.1h5.166v7.848h3.06V552h-8.676Zm4.356-11.556c-.456 0-.816-.114-1.08-.342-.264-.24-.396-.558-.396-.954 0-.396.132-.708.396-.936.264-.24.624-.36 1.08-.36.456 0 .816.12 1.08.36.264.228.396.54.396.936s-.132.714-.396.954c-.264.228-.624.342-1.08.342ZM129.67 552c-.648 0-1.218-.132-1.71-.396-.48-.264-.858-.636-1.134-1.116-.276-.492-.414-1.056-.414-1.692v-7.902h-3.168v-2.034h5.418v9.936c0 .36.102.648.306.864.216.204.504.306.864.306h2.988V552h-3.15Zm8.435.18c-.984 0-1.782-.342-2.394-1.026-.6-.684-.9-1.602-.9-2.754v-2.682c0-1.164.3-2.088.9-2.772.6-.684 1.398-1.026 2.394-1.026.816 0 1.464.234 1.944.702.48.456.72 1.086.72 1.89l-.504-.522h.522l-.072-2.358v-2.772h2.25V552h-2.196v-1.89h-.504l.504-.522c0 .804-.24 1.44-.72 1.908-.48.456-1.128.684-1.944.684Zm.792-1.944c.576 0 1.02-.168 1.332-.504.324-.348.486-.828.486-1.44v-2.484c0-.612-.162-1.086-.486-1.422-.312-.348-.756-.522-1.332-.522-.576 0-1.026.168-1.35.504-.324.336-.486.816-.486 1.44v2.484c0 .624.162 1.104.486 1.44.324.336.774.504 1.35.504Zm24.97 3.924c-1.824-.48-3.234-1.326-4.23-2.538-.996-1.224-1.494-2.712-1.494-4.464V543.9c0-1.152.228-2.196.684-3.132.468-.948 1.128-1.752 1.98-2.412.864-.672 1.884-1.164 3.06-1.476v2.214c-.708.168-1.326.474-1.854.918-.516.444-.912.996-1.188 1.656-.276.66-.414 1.404-.414 2.232v3.258c0 .804.138 1.536.414 2.196.276.648.672 1.194 1.188 1.638.528.432 1.146.732 1.854.9v2.268Zm7.445-1.98c-1.212 0-2.184-.3-2.916-.9-.732-.612-1.134-1.44-1.206-2.484h2.25c.048.456.228.81.54 1.062.324.24.768.36 1.332.36.624 0 1.098-.162 1.422-.486.324-.336.486-.798.486-1.386v-1.278c0-.6-.162-1.056-.486-1.368-.324-.324-.798-.486-1.422-.486-.384 0-.714.078-.99.234-.276.156-.486.372-.63.648h-2.196l.09-7.236h7.398v2.034h-5.274l-.036 3.816h.522l-.54.45c0-.552.216-.984.648-1.296.444-.324 1.038-.486 1.782-.486 1.068-.012 1.896.312 2.484.972.6.648.9 1.554.9 2.718v1.278c0 1.188-.372 2.124-1.116 2.808-.732.684-1.746 1.026-3.042 1.026Zm10.433-.018c-.756 0-1.416-.12-1.98-.36-.564-.24-1.008-.57-1.332-.99-.312-.432-.48-.936-.504-1.512h2.25c.024.312.174.564.45.756.288.192.66.288 1.116.288h.792c.552 0 .966-.108 1.242-.324.276-.216.414-.51.414-.882 0-.348-.126-.618-.378-.81-.24-.204-.618-.336-1.134-.396l-1.224-.18c-1.128-.156-1.956-.456-2.484-.9s-.792-1.11-.792-1.998c0-.924.312-1.638.936-2.142.624-.516 1.542-.774 2.754-.774h.684c1.104 0 1.986.246 2.646.738.66.492 1.014 1.152 1.062 1.98h-2.25c-.036-.264-.186-.48-.45-.648-.252-.168-.588-.252-1.008-.252h-.684c-.516 0-.894.096-1.134.288-.228.18-.342.45-.342.81 0 .336.102.588.306.756.204.156.534.27.99.342l1.278.18c1.176.168 2.04.486 2.592.954.564.456.846 1.134.846 2.034 0 .96-.33 1.71-.99 2.25-.648.528-1.608.792-2.88.792h-.792Zm7.841 1.998v-2.268c.72-.168 1.338-.468 1.854-.9.516-.444.912-.99 1.188-1.638.276-.66.414-1.392.414-2.196V543.9c0-.828-.138-1.572-.414-2.232-.276-.66-.672-1.212-1.188-1.656-.516-.444-1.134-.75-1.854-.918v-2.214c1.188.312 2.208.804 3.06 1.476.852.66 1.506 1.464 1.962 2.412.468.936.702 1.98.702 3.132v3.258c0 1.752-.498 3.24-1.494 4.464-.996 1.212-2.406 2.058-4.23 2.538Z"/>
  <g filter="url(#a)">
    <rect width="75" height="23" x="290" y="535" fill="#475569" fill-opacity=".4" rx="4"/>
    <path fill="#fff" d="M318.773 541.614v-1.25h8.727v1.25h-3.659V552h-1.409v-10.386h-3.659Zm13.113 10.568c-.841 0-1.566-.186-2.176-.557-.606-.375-1.074-.898-1.403-1.568-.326-.674-.489-1.459-.489-2.352 0-.894.163-1.682.489-2.364.329-.686.788-1.22 1.375-1.602.591-.387 1.28-.58 2.068-.58.455 0 .903.076 1.347.227.443.152.846.398 1.21.739.363.337.653.784.869 1.341.216.557.324 1.242.324 2.057v.568h-6.727v-1.159h5.363c0-.493-.098-.932-.295-1.318-.193-.387-.47-.692-.83-.915-.356-.224-.776-.335-1.261-.335-.534 0-.996.132-1.386.397-.387.262-.684.603-.892 1.023-.209.421-.313.871-.313 1.352v.773c0 .659.114 1.218.341 1.676.231.455.551.801.96 1.04.409.235.885.352 1.426.352.353 0 .671-.049.955-.147.288-.103.536-.254.744-.455.209-.205.37-.458.483-.761l1.296.363c-.137.44-.366.826-.688 1.159-.322.33-.72.587-1.193.773-.474.182-1.006.273-1.597.273Zm5.654-.182v-8.727h1.341V552h-1.341Zm.682-10.182c-.262 0-.487-.089-.677-.267-.185-.178-.278-.392-.278-.642s.093-.464.278-.642c.19-.178.415-.267.677-.267.261 0 .484.089.67.267.189.178.284.392.284.642s-.095.464-.284.642c-.186.178-.409.267-.67.267Zm4.365 7-.023-1.659h.273l3.818-3.886h1.659l-4.068 4.113h-.114l-1.545 1.432Zm-1.25 3.182v-11.636h1.341V552h-1.341Zm5.545 0-3.409-4.318.955-.932 4.159 5.25h-1.705Zm5.726.205c-.553 0-1.055-.105-1.506-.313-.45-.212-.808-.517-1.074-.915-.265-.401-.397-.886-.397-1.454 0-.5.098-.906.295-1.216.197-.315.46-.561.79-.739.329-.178.693-.31 1.091-.398.401-.09.805-.162 1.21-.215.53-.069.96-.12 1.29-.154.333-.038.576-.1.727-.187.155-.087.233-.239.233-.455v-.045c0-.561-.153-.997-.46-1.307-.303-.311-.763-.466-1.381-.466-.64 0-1.142.14-1.506.42-.363.281-.619.58-.767.898l-1.272-.454c.227-.531.53-.944.909-1.239.382-.299.799-.508 1.25-.625.454-.121.901-.182 1.341-.182.28 0 .602.034.966.102.367.065.721.199 1.062.404.345.204.631.513.858.926.227.413.341.966.341 1.659V552h-1.341v-1.182h-.068c-.091.19-.243.392-.455.608-.212.216-.494.4-.846.551-.353.152-.782.228-1.29.228Zm.204-1.205c.531 0 .978-.104 1.341-.312.368-.209.644-.478.83-.807.189-.33.284-.676.284-1.04v-1.227c-.057.068-.182.13-.375.187-.189.053-.409.101-.659.142-.246.038-.487.072-.722.102-.231.027-.418.05-.562.069-.349.045-.674.119-.977.221-.3.099-.542.248-.728.449-.181.197-.272.466-.272.807 0 .466.172.818.517 1.057.348.235.789.352 1.323.352Z"/>
    <path stroke="#fff" stroke-linecap="round" stroke-linejoin="round" d="M301 550.5v.671c0 .263-.052.523-.152.766-.101.243-.248.463-.434.649L300 553h6l-.414-.414a2.0045 2.0045 0 0 1-.434-.649c-.1-.243-.152-.503-.152-.766v-.671m4-8v6.5c0 .398-.158.779-.439 1.061-.282.281-.663.439-1.061.439h-9c-.398 0-.779-.158-1.061-.439A1.5027 1.5027 0 0 1 297 549v-6.5m12 0c0-.398-.158-.779-.439-1.061A1.5027 1.5027 0 0 0 307.5 541h-9c-.398 0-.779.158-1.061.439-.281.282-.439.663-.439 1.061m12 0v4.5c0 .398-.158.779-.439 1.061-.282.281-.663.439-1.061.439h-9c-.398 0-.779-.158-1.061-.439A1.5027 1.5027 0 0 1 297 547v-4.5"/>
  </g>
  <path fill="#94A3B8" d="M447.061 264.561c.585-.586.585-1.536 0-2.122l-9.546-9.546c-.586-.585-1.536-.585-2.122 0-.585.586-.585 1.536 0 2.122l8.486 8.485-8.486 8.485c-.585.586-.585 1.536 0 2.122.586.585 1.536.585 2.122 0l9.546-9.546ZM200 525V287.5h-3V525h3Zm22.5-260H446v-3H222.5v3ZM200 287.5c0-12.426 10.074-22.5 22.5-22.5v-3c-14.083 0-25.5 11.417-25.5 25.5h3Z"/>
  <path stroke="#94A3B8" stroke-linecap="round" stroke-linejoin="round" stroke-width="1.5" d="M230 499.5v-6.75m0 0 3 3m-3-3-3 3m-2.25 6.75a4.4963 4.4963 0 0 1-2.922-1.073 4.5024 4.5024 0 0 1-1.526-2.713 4.497 4.497 0 0 1 .6-3.054c.556-.914 1.421-1.6 2.438-1.935a5.254 5.254 0 0 1 .753-3.87 5.2494 5.2494 0 0 1 3.234-2.254 5.2519 5.2519 0 0 1 3.892.632 5.2466 5.2466 0 0 1 2.354 3.162 3.0072 3.0072 0 0 1 1.645-.06 3.0003 3.0003 0 0 1 2.113 3.908c.819.313 1.502.903 1.932 1.666.429.764.578 1.654.42 2.516a3.748 3.748 0 0 1-1.286 2.203 3.747 3.747 0 0 1-2.397.872h-11.25Z"/>
  <g stroke="#fff" stroke-width="3" clip-path="url(#b)">
    <path d="M499.5 251.625v4.125c-4.554 0-8.25 3.696-8.25 8.25s-3.696 8.25-8.25 8.25-8.25 3.696-8.25 8.25h-4.125c-2.277 0-4.125-1.848-4.125-4.125v-24.75c0-2.277 1.848-4.125 4.125-4.125h24.75c2.277 0 4.125 1.848 4.125 4.125Z"/>
    <path d="M499.5 255v21.25c0 2.346-1.904 4.25-4.25 4.25H474c0-4.692 3.808-8.5 8.5-8.5s8.5-3.808 8.5-8.5 3.808-8.5 8.5-8.5Z"/>
  </g>
  <path fill="#fff" d="M536.273 251.727V275h-2.728l-12.681-18.273h-.228V275h-2.818v-23.273h2.727l12.728 18.318h.227v-18.318h2.773Zm7.275 5.818 4.182 7.137 4.182-7.137h3.091l-5.637 8.728 5.637 8.727h-3.091l-4.182-6.773-4.182 6.773h-3.091l5.546-8.727-5.546-8.728h3.091ZM586.92 259h-2.818c-.166-.811-.458-1.523-.875-2.136-.409-.614-.909-1.129-1.5-1.546-.583-.424-1.231-.742-1.943-.954-.712-.212-1.454-.319-2.227-.319-1.409 0-2.686.357-3.83 1.069-1.136.712-2.041 1.761-2.716 3.147-.666 1.387-1 3.087-1 5.103 0 2.015.334 3.716 1 5.102.675 1.386 1.58 2.436 2.716 3.148 1.144.712 2.421 1.068 3.83 1.068.773 0 1.515-.106 2.227-.318.712-.212 1.36-.527 1.943-.944.591-.424 1.091-.943 1.5-1.556.417-.622.709-1.334.875-2.137h2.818c-.212 1.19-.598 2.254-1.159 3.193-.56.94-1.257 1.739-2.091 2.398-.833.652-1.768 1.148-2.806 1.489-1.031.341-2.133.511-3.307.511-1.985 0-3.75-.485-5.296-1.454-1.545-.97-2.761-2.349-3.647-4.137-.887-1.788-1.33-3.909-1.33-6.363 0-2.455.443-4.576 1.33-6.364.886-1.788 2.102-3.167 3.647-4.136 1.546-.97 3.311-1.455 5.296-1.455 1.174 0 2.276.171 3.307.511 1.038.341 1.973.841 2.806 1.5.834.652 1.531 1.447 2.091 2.387.561.932.947 1.996 1.159 3.193Zm6.873-7.273V275h-2.682v-23.273h2.682Zm12.002 23.637c-1.575 0-2.958-.375-4.147-1.125-1.182-.75-2.106-1.8-2.773-3.148-.659-1.349-.989-2.924-.989-4.727 0-1.819.33-3.406.989-4.762.667-1.356 1.591-2.409 2.773-3.159 1.189-.75 2.572-1.125 4.147-1.125 1.576 0 2.955.375 4.137 1.125 1.189.75 2.113 1.803 2.773 3.159.666 1.356 1 2.943 1 4.762 0 1.803-.334 3.378-1 4.727-.66 1.348-1.584 2.398-2.773 3.148-1.182.75-2.561 1.125-4.137 1.125Zm0-2.409c1.197 0 2.182-.307 2.955-.921.773-.614 1.345-1.42 1.716-2.42s.557-2.084.557-3.25c0-1.167-.186-2.254-.557-3.262-.371-1.007-.943-1.822-1.716-2.443s-1.758-.932-2.955-.932-2.181.311-2.954.932c-.773.621-1.345 1.436-1.716 2.443-.371 1.008-.557 2.095-.557 3.262 0 1.166.186 2.25.557 3.25.371 1 .943 1.806 1.716 2.42.773.614 1.757.921 2.954.921Zm23.003-5.091v-10.319h2.682V275h-2.682v-2.955h-.182c-.409.887-1.045 1.641-1.909 2.262-.863.613-1.954.92-3.272.92-1.091 0-2.061-.238-2.909-.716-.849-.484-1.516-1.212-2-2.181-.485-.978-.728-2.209-.728-3.694v-11.091h2.682v10.91c0 1.272.356 2.287 1.068 3.045.72.758 1.637 1.136 2.75 1.136.667 0 1.345-.17 2.034-.511.697-.341 1.281-.864 1.75-1.568.478-.705.716-1.602.716-2.693Zm14.185 7.5c-1.455 0-2.739-.368-3.852-1.103-1.114-.742-1.985-1.788-2.614-3.136-.629-1.356-.943-2.958-.943-4.807 0-1.833.314-3.424.943-4.773.629-1.348 1.504-2.39 2.625-3.125 1.121-.734 2.417-1.102 3.886-1.102 1.137 0 2.035.19 2.694.568.666.372 1.174.796 1.522 1.273.356.47.633.856.83 1.159h.227v-8.591h2.682V275h-2.591v-2.682h-.318c-.197.318-.477.72-.841 1.205-.364.477-.883.905-1.557 1.284-.674.371-1.572.557-2.693.557Zm.364-2.409c1.075 0 1.984-.281 2.727-.841.742-.569 1.307-1.353 1.693-2.353.386-1.007.58-2.17.58-3.488 0-1.303-.19-2.443-.569-3.421-.378-.985-.939-1.75-1.681-2.295-.743-.553-1.659-.83-2.75-.83-1.137 0-2.084.292-2.841.875-.75.576-1.315 1.36-1.694 2.353-.371.984-.556 2.09-.556 3.318 0 1.242.189 2.371.568 3.386.386 1.008.954 1.811 1.704 2.409.758.591 1.697.887 2.819.887Z"/>
  <path stroke="#3B82F6" stroke-linecap="round" stroke-linejoin="round" stroke-width="1.5" d="M834 532.75v6.75m0 0-3-3m3 3 3-3m-8.25 6a4.4963 4.4963 0 0 1-2.922-1.073 4.5024 4.5024 0 0 1-1.526-2.713 4.497 4.497 0 0 1 .6-3.054c.556-.914 1.421-1.6 2.438-1.935a5.254 5.254 0 0 1 .753-3.87 5.2494 5.2494 0 0 1 3.234-2.254 5.2519 5.2519 0 0 1 3.892.632 5.2466 5.2466 0 0 1 2.354 3.162 3.0072 3.0072 0 0 1 1.645-.06 3.0003 3.0003 0 0 1 2.113 3.908c.819.313 1.502.903 1.932 1.666.429.764.578 1.654.42 2.516a3.748 3.748 0 0 1-1.286 2.203 3.747 3.747 0 0 1-2.397.872h-11.25Z"/>
  <rect width="348" height="35" x="878.5" y="540.5" stroke="#94A3B8" stroke-opacity=".2" rx="8.5"/>
  <path stroke="#94A3B8" stroke-linecap="round" stroke-linejoin="round" stroke-width="1.5" d="m897.469 551.438 6 6-6 6"/>
  <path fill="#94A3B8" d="M913.386 564v-9.9h2.196v1.89h.612l-.612.522c0-.816.234-1.452.702-1.908.48-.456 1.134-.684 1.962-.684.972 0 1.746.324 2.322.972.588.648.882 1.518.882 2.61V564h-2.25v-6.264c0-.6-.156-1.062-.468-1.386-.312-.324-.75-.486-1.314-.486-.552 0-.99.168-1.314.504-.312.336-.468.816-.468 1.44V564h-2.25Zm10.055 0 3.456-5.112-3.222-4.788h2.538l1.53 2.43c.096.144.18.306.252.486.084.18.15.324.198.432.048-.108.114-.252.198-.432a6.02 6.02 0 0 1 .252-.486l1.548-2.43h2.538l-3.222 4.788 3.438 5.112h-2.556l-1.71-2.718a4.9754 4.9754 0 0 1-.27-.504c-.084-.18-.156-.324-.216-.432-.048.108-.114.252-.198.432s-.174.348-.27.504L925.979 564h-2.538Zm27.184.18c-.816 0-1.464-.228-1.944-.684-.48-.468-.72-1.104-.72-1.908l.504.522h-.504V564h-2.196v-13.14h2.25v2.772l-.072 2.358h.522l-.504.522c0-.804.24-1.434.72-1.89.48-.468 1.128-.702 1.944-.702.996 0 1.794.342 2.394 1.026.6.684.9 1.608.9 2.772v2.682c0 1.152-.3 2.07-.9 2.754-.6.684-1.398 1.026-2.394 1.026Zm-.792-1.944c.576 0 1.026-.168 1.35-.504.324-.336.486-.816.486-1.44v-2.484c0-.624-.162-1.104-.486-1.44-.324-.336-.774-.504-1.35-.504-.564 0-1.008.174-1.332.522-.324.336-.486.81-.486 1.422v2.484c0 .612.162 1.092.486 1.44.324.336.768.504 1.332.504Zm10.739 1.944c-1.26 0-2.25-.348-2.97-1.044-.72-.708-1.08-1.668-1.08-2.88V554.1h2.25v6.138c0 .636.156 1.128.468 1.476.312.336.756.504 1.332.504.564 0 1.002-.168 1.314-.504.324-.348.486-.84.486-1.476V554.1h2.25v6.156c0 1.212-.366 2.172-1.098 2.88-.732.696-1.716 1.044-2.952 1.044Zm6.761-.18v-2.052h3.456v-5.814h-3.006V554.1h5.166v7.848h3.06V564h-8.676Zm4.356-11.556c-.456 0-.816-.114-1.08-.342-.264-.24-.396-.558-.396-.954 0-.396.132-.708.396-.936.264-.24.624-.36 1.08-.36.456 0 .816.12 1.08.36.264.228.396.54.396.936s-.132.714-.396.954c-.264.228-.624.342-1.08.342ZM983.67 564c-.648 0-1.218-.132-1.71-.396-.48-.264-.858-.636-1.134-1.116-.276-.492-.414-1.056-.414-1.692v-7.902h-3.168v-2.034h5.418v9.936c0 .36.102.648.306.864.216.204.504.306.864.306h2.988V564h-3.15Zm8.435.18c-.984 0-1.782-.342-2.394-1.026-.6-.684-.9-1.602-.9-2.754v-2.682c0-1.164.3-2.088.9-2.772.6-.684 1.398-1.026 2.394-1.026.816 0 1.464.234 1.944.702.48.456.72 1.086.72 1.89l-.504-.522h.522l-.072-2.358v-2.772h2.25V564h-2.196v-1.89h-.504l.504-.522c0 .804-.24 1.44-.72 1.908-.48.456-1.128.684-1.944.684Zm.792-1.944c.576 0 1.02-.168 1.332-.504.324-.348.486-.828.486-1.44v-2.484c0-.612-.162-1.086-.486-1.422-.312-.348-.756-.522-1.332-.522-.576 0-1.026.168-1.35.504-.324.336-.486.816-.486 1.44v2.484c0 .624.162 1.104.486 1.44.324.336.774.504 1.35.504Z"/>
  <path fill="#3B82F6" d="M1017.87 566.16c-1.83-.48-3.24-1.326-4.23-2.538-1-1.224-1.5-2.712-1.5-4.464V555.9c0-1.152.23-2.196.69-3.132.46-.948 1.12-1.752 1.98-2.412.86-.672 1.88-1.164 3.06-1.476v2.214c-.71.168-1.33.474-1.86.918-.51.444-.91.996-1.19 1.656-.27.66-.41 1.404-.41 2.232v3.258c0 .804.14 1.536.41 2.196.28.648.68 1.194 1.19 1.638.53.432 1.15.732 1.86.9v2.268Zm7.44-1.98c-1.21 0-2.18-.3-2.91-.9-.74-.612-1.14-1.44-1.21-2.484h2.25c.05.456.23.81.54 1.062.32.24.77.36 1.33.36.63 0 1.1-.162 1.42-.486.33-.336.49-.798.49-1.386v-1.278c0-.6-.16-1.056-.49-1.368-.32-.324-.79-.486-1.42-.486-.38 0-.71.078-.99.234-.27.156-.48.372-.63.648h-2.19l.09-7.236h7.39v2.034h-5.27l-.04 3.816h.53l-.54.45c0-.552.21-.984.64-1.296.45-.324 1.04-.486 1.79-.486 1.06-.012 1.89.312 2.48.972.6.648.9 1.554.9 2.718v1.278c0 1.188-.37 2.124-1.12 2.808-.73.684-1.74 1.026-3.04 1.026Zm12.43-.18v-2.61h-5.85v-3.258l5.06-7.272h2.52l-5.42 7.866v.684h3.69v-2.97h2.25V564h-2.25Zm4.71 0v-9.9h1.84v1.332h.38l-.31.324c0-.552.16-.996.47-1.332.31-.336.71-.504 1.2-.504.53 0 .94.216 1.23.648.3.432.45 1.014.45 1.746l-.4-.882h.61l-.23.324c0-.552.16-.996.47-1.332.31-.336.72-.504 1.24-.504.61 0 1.1.228 1.46.684.36.456.54 1.074.54 1.854V564h-1.98v-7.452c0-.324-.07-.576-.22-.756-.14-.192-.35-.288-.63-.288-.26 0-.47.09-.63.27-.14.18-.21.438-.21.774V564h-1.62v-7.452c0-.336-.08-.594-.22-.774-.14-.18-.35-.27-.63-.27s-.49.09-.63.27c-.13.18-.2.438-.2.774V564h-1.98Zm14.88.162c-.76 0-1.42-.12-1.98-.36s-1.01-.57-1.33-.99c-.31-.432-.48-.936-.51-1.512h2.25c.03.312.18.564.45.756.29.192.66.288 1.12.288h.79c.55 0 .97-.108 1.24-.324.28-.216.42-.51.42-.882 0-.348-.13-.618-.38-.81-.24-.204-.62-.336-1.13-.396l-1.23-.18c-1.13-.156-1.95-.456-2.48-.9s-.79-1.11-.79-1.998c0-.924.31-1.638.93-2.142.63-.516 1.54-.774 2.76-.774h.68c1.1 0 1.99.246 2.65.738.66.492 1.01 1.152 1.06 1.98h-2.25c-.04-.264-.19-.48-.45-.648-.25-.168-.59-.252-1.01-.252h-.68c-.52 0-.9.096-1.14.288-.23.18-.34.45-.34.81 0 .336.1.588.31.756.2.156.53.27.99.342l1.27.18c1.18.168 2.04.486 2.6.954.56.456.84 1.134.84 2.034 0 .96-.33 1.71-.99 2.25-.65.528-1.61.792-2.88.792h-.79Zm7.84 1.998v-2.268c.72-.168 1.34-.468 1.86-.9.51-.444.91-.99 1.18-1.638.28-.66.42-1.392.42-2.196V555.9c0-.828-.14-1.572-.42-2.232-.27-.66-.67-1.212-1.18-1.656-.52-.444-1.14-.75-1.86-.918v-2.214c1.19.312 2.21.804 3.06 1.476.85.66 1.51 1.464 1.96 2.412.47.936.71 1.98.71 3.132v3.258c0 1.752-.5 3.24-1.5 4.464-.99 1.212-2.4 2.058-4.23 2.538Z"/>
  <g filter="url(#c)">
    <rect width="82" height="23" x="1137" y="547" fill="#475569" fill-opacity=".4" rx="4"/>
    <path fill="#fff" d="M1169.86 552.364h1.41v8.318c0 .742-.13 1.373-.41 1.892-.27.519-.65.913-1.15 1.182-.5.269-1.08.403-1.76.403-.63 0-1.2-.115-1.69-.347-.5-.234-.89-.568-1.17-1-.29-.431-.43-.945-.43-1.539h1.39c0 .329.08.617.24.863.17.243.39.432.68.569.29.136.62.204.98.204.41 0 .75-.085 1.04-.256.28-.17.5-.42.65-.75.15-.333.22-.74.22-1.221v-8.318Zm6.62 11.841c-.55 0-1.05-.105-1.5-.313-.45-.212-.81-.517-1.08-.915-.26-.401-.39-.886-.39-1.454 0-.5.09-.906.29-1.216.2-.315.46-.561.79-.739.33-.178.69-.31 1.09-.398.4-.09.81-.162 1.21-.215.53-.069.96-.12 1.29-.154.34-.038.58-.1.73-.187.15-.087.23-.239.23-.455v-.045c0-.561-.15-.997-.46-1.307-.3-.311-.76-.466-1.38-.466-.64 0-1.14.14-1.5.42-.37.281-.62.58-.77.898l-1.27-.454c.22-.531.53-.944.9-1.239.39-.299.8-.508 1.25-.625.46-.121.91-.182 1.35-.182.28 0 .6.034.96.102.37.065.72.199 1.06.404.35.204.63.513.86.926.23.413.34.966.34 1.659V564h-1.34v-1.182h-.07c-.09.19-.24.392-.45.608-.21.216-.49.4-.85.551-.35.152-.78.228-1.29.228Zm.21-1.205c.53 0 .97-.104 1.34-.312.37-.209.64-.478.83-.807.19-.33.28-.676.28-1.04v-1.227c-.05.068-.18.13-.37.187-.19.053-.41.101-.66.142-.25.038-.49.072-.72.102-.23.027-.42.05-.57.069-.34.045-.67.119-.97.221-.3.099-.55.248-.73.449-.18.197-.27.466-.27.807 0 .466.17.818.51 1.057.35.235.79.352 1.33.352Zm6.24 1v-8.727h1.3v1.363h.11c.18-.466.47-.827.88-1.085.41-.261.89-.392 1.46-.392.58 0 1.06.131 1.44.392.38.258.69.619.9 1.085h.09c.23-.45.56-.808 1.01-1.074.44-.268.98-.403 1.61-.403.78 0 1.41.244 1.91.733.5.485.74 1.241.74 2.267V564h-1.34v-5.841c0-.644-.17-1.104-.52-1.381-.36-.276-.77-.414-1.25-.414-.61 0-1.09.185-1.42.556-.34.368-.51.834-.51 1.398V564h-1.36v-5.977c0-.496-.17-.896-.49-1.199-.32-.307-.73-.46-1.24-.46-.35 0-.68.092-.98.278-.3.186-.54.443-.73.773-.18.326-.27.702-.27 1.13V564h-1.34Zm17.57.182c-.85 0-1.57-.186-2.18-.557-.61-.375-1.07-.898-1.4-1.568-.33-.674-.49-1.459-.49-2.352 0-.894.16-1.682.49-2.364.33-.686.78-1.22 1.37-1.602.59-.387 1.28-.58 2.07-.58.45 0 .9.076 1.35.227.44.152.84.398 1.21.739.36.337.65.784.87 1.341.21.557.32 1.242.32 2.057v.568h-6.73v-1.159h5.37c0-.493-.1-.932-.3-1.318-.19-.387-.47-.692-.83-.915-.36-.224-.78-.335-1.26-.335-.53 0-1 .132-1.39.397-.38.262-.68.603-.89 1.023-.21.421-.31.871-.31 1.352v.773c0 .659.11 1.218.34 1.676.23.455.55.801.96 1.04.41.235.88.352 1.43.352.35 0 .67-.049.95-.147.29-.103.54-.254.74-.455.21-.205.37-.458.49-.761l1.29.363c-.13.44-.36.826-.68 1.159-.33.33-.72.587-1.2.773-.47.182-1 .273-1.59.273Zm11.83-6.955-1.2.341c-.08-.201-.19-.396-.34-.585-.14-.193-.34-.352-.59-.477-.25-.125-.57-.188-.96-.188-.53 0-.98.123-1.34.37-.35.242-.52.551-.52.926 0 .333.12.596.36.789.24.194.62.355 1.14.483l1.29.319c.78.189 1.36.479 1.75.869.38.386.57.884.57 1.494 0 .5-.14.947-.43 1.341s-.68.705-1.19.932c-.52.227-1.11.341-1.79.341-.89 0-1.63-.193-2.21-.58-.58-.386-.95-.95-1.11-1.693l1.28-.318c.12.47.35.822.68 1.057.34.235.79.352 1.34.352.62 0 1.12-.133 1.49-.398.37-.269.55-.591.55-.966 0-.303-.1-.556-.31-.761-.22-.208-.54-.364-.98-.466l-1.46-.341c-.8-.189-1.38-.483-1.76-.88-.37-.402-.55-.904-.55-1.506 0-.493.13-.928.41-1.307.28-.379.66-.676 1.14-.892.49-.216 1.04-.324 1.65-.324.86 0 1.54.189 2.03.568.5.379.85.879 1.06 1.5Z"/>
    <path stroke="#fff" stroke-linecap="round" stroke-linejoin="round" d="M1147 562.5v.671c0 .263-.05.523-.15.766-.1.243-.25.463-.44.649l-.41.414h6l-.41-.414c-.19-.186-.34-.406-.44-.649-.1-.243-.15-.503-.15-.766v-.671m4-8v6.5c0 .398-.16.779-.44 1.061-.28.281-.66.439-1.06.439h-9c-.4 0-.78-.158-1.06-.439-.28-.282-.44-.663-.44-1.061v-6.5m12 0c0-.398-.16-.779-.44-1.061-.28-.281-.66-.439-1.06-.439h-9c-.4 0-.78.158-1.06.439-.28.282-.44.663-.44 1.061m12 0v4.5c0 .398-.16.779-.44 1.061-.28.281-.66.439-1.06.439h-9c-.4 0-.78-.158-1.06-.439-.28-.282-.44-.663-.44-1.061v-4.5"/>
  </g>
  <path fill="#3B82F6" d="M876.061 559.061c.585-.586.585-1.536 0-2.122l-9.546-9.546c-.586-.585-1.536-.585-2.122 0-.585.586-.585 1.536 0 2.122l8.486 8.485-8.486 8.485c-.585.586-.585 1.536 0 2.122.586.585 1.536.585 2.122 0l9.546-9.546ZM558.5 302v232h3V302h-3ZM584 559.5h291v-3H584v3ZM558.5 534c0 14.083 11.417 25.5 25.5 25.5v-3c-12.426 0-22.5-10.074-22.5-22.5h-3Z"/>
  <path stroke="#3B82F6" stroke-linecap="round" stroke-linejoin="round" stroke-width="1.5" d="M832 421.75v6.75m0 0-3-3m3 3 3-3m-8.25 6a4.4963 4.4963 0 0 1-2.922-1.073 4.5024 4.5024 0 0 1-1.526-2.713 4.497 4.497 0 0 1 .6-3.054c.556-.914 1.421-1.6 2.438-1.935a5.254 5.254 0 0 1 .753-3.87 5.2494 5.2494 0 0 1 3.234-2.254 5.2519 5.2519 0 0 1 3.892.632 5.2466 5.2466 0 0 1 2.354 3.162 3.0072 3.0072 0 0 1 1.645-.06 3.0003 3.0003 0 0 1 2.113 3.908c.819.313 1.502.903 1.932 1.666.429.764.578 1.654.42 2.516a3.748 3.748 0 0 1-1.286 2.203 3.747 3.747 0 0 1-2.397.872h-11.25Z"/>
  <rect width="348" height="35" x="878.5" y="429.5" stroke="#94A3B8" stroke-opacity=".2" rx="8.5"/>
  <path stroke="#94A3B8" stroke-linecap="round" stroke-linejoin="round" stroke-width="1.5" d="m897.469 440.438 6 6-6 6"/>
  <path fill="#94A3B8" d="M913.386 453v-9.9h2.196v1.89h.612l-.612.522c0-.816.234-1.452.702-1.908.48-.456 1.134-.684 1.962-.684.972 0 1.746.324 2.322.972.588.648.882 1.518.882 2.61V453h-2.25v-6.264c0-.6-.156-1.062-.468-1.386-.312-.324-.75-.486-1.314-.486-.552 0-.99.168-1.314.504-.312.336-.468.816-.468 1.44V453h-2.25Zm10.055 0 3.456-5.112-3.222-4.788h2.538l1.53 2.43c.096.144.18.306.252.486.084.18.15.324.198.432.048-.108.114-.252.198-.432a6.02 6.02 0 0 1 .252-.486l1.548-2.43h2.538l-3.222 4.788 3.438 5.112h-2.556l-1.71-2.718a4.9754 4.9754 0 0 1-.27-.504c-.084-.18-.156-.324-.216-.432-.048.108-.114.252-.198.432s-.174.348-.27.504L925.979 453h-2.538Zm27.184.18c-.816 0-1.464-.228-1.944-.684-.48-.468-.72-1.104-.72-1.908l.504.522h-.504V453h-2.196v-13.14h2.25v2.772l-.072 2.358h.522l-.504.522c0-.804.24-1.434.72-1.89.48-.468 1.128-.702 1.944-.702.996 0 1.794.342 2.394 1.026.6.684.9 1.608.9 2.772v2.682c0 1.152-.3 2.07-.9 2.754-.6.684-1.398 1.026-2.394 1.026Zm-.792-1.944c.576 0 1.026-.168 1.35-.504.324-.336.486-.816.486-1.44v-2.484c0-.624-.162-1.104-.486-1.44-.324-.336-.774-.504-1.35-.504-.564 0-1.008.174-1.332.522-.324.336-.486.81-.486 1.422v2.484c0 .612.162 1.092.486 1.44.324.336.768.504 1.332.504Zm10.739 1.944c-1.26 0-2.25-.348-2.97-1.044-.72-.708-1.08-1.668-1.08-2.88V443.1h2.25v6.138c0 .636.156 1.128.468 1.476.312.336.756.504 1.332.504.564 0 1.002-.168 1.314-.504.324-.348.486-.84.486-1.476V443.1h2.25v6.156c0 1.212-.366 2.172-1.098 2.88-.732.696-1.716 1.044-2.952 1.044Zm6.761-.18v-2.052h3.456v-5.814h-3.006V443.1h5.166v7.848h3.06V453h-8.676Zm4.356-11.556c-.456 0-.816-.114-1.08-.342-.264-.24-.396-.558-.396-.954 0-.396.132-.708.396-.936.264-.24.624-.36 1.08-.36.456 0 .816.12 1.08.36.264.228.396.54.396.936s-.132.714-.396.954c-.264.228-.624.342-1.08.342ZM983.67 453c-.648 0-1.218-.132-1.71-.396-.48-.264-.858-.636-1.134-1.116-.276-.492-.414-1.056-.414-1.692v-7.902h-3.168v-2.034h5.418v9.936c0 .36.102.648.306.864.216.204.504.306.864.306h2.988V453h-3.15Zm8.435.18c-.984 0-1.782-.342-2.394-1.026-.6-.684-.9-1.602-.9-2.754v-2.682c0-1.164.3-2.088.9-2.772.6-.684 1.398-1.026 2.394-1.026.816 0 1.464.234 1.944.702.48.456.72 1.086.72 1.89l-.504-.522h.522l-.072-2.358v-2.772h2.25V453h-2.196v-1.89h-.504l.504-.522c0 .804-.24 1.44-.72 1.908-.48.456-1.128.684-1.944.684Zm.792-1.944c.576 0 1.02-.168 1.332-.504.324-.348.486-.828.486-1.44v-2.484c0-.612-.162-1.086-.486-1.422-.312-.348-.756-.522-1.332-.522-.576 0-1.026.168-1.35.504-.324.336-.486.816-.486 1.44v2.484c0 .624.162 1.104.486 1.44.324.336.774.504 1.35.504Z"/>
  <path fill="#3B82F6" d="M1017.87 455.16c-1.83-.48-3.24-1.326-4.23-2.538-1-1.224-1.5-2.712-1.5-4.464V444.9c0-1.152.23-2.196.69-3.132.46-.948 1.12-1.752 1.98-2.412.86-.672 1.88-1.164 3.06-1.476v2.214c-.71.168-1.33.474-1.86.918-.51.444-.91.996-1.19 1.656-.27.66-.41 1.404-.41 2.232v3.258c0 .804.14 1.536.41 2.196.28.648.68 1.194 1.19 1.638.53.432 1.15.732 1.86.9v2.268Zm7.46-1.98c-.88 0-1.65-.18-2.32-.54-.66-.372-1.18-.888-1.55-1.548-.36-.672-.54-1.446-.54-2.322 0-.624.1-1.278.31-1.962.21-.684.51-1.326.88-1.926l3.09-5.022h2.51l-3.89 6.12.11.072c.24-.372.56-.654.97-.846.41-.192.86-.288 1.37-.288.7 0 1.32.168 1.83.504.52.336.92.804 1.21 1.404.29.6.43 1.302.43 2.106 0 .852-.19 1.596-.56 2.232-.36.636-.87 1.134-1.53 1.494-.65.348-1.42.522-2.32.522Zm0-1.908c.66 0 1.19-.21 1.6-.63.41-.432.61-.99.61-1.674 0-.708-.2-1.272-.61-1.692-.41-.432-.94-.648-1.6-.648-.66 0-1.19.216-1.6.648-.41.42-.61.984-.61 1.692 0 .684.2 1.242.61 1.674.41.42.94.63 1.6.63Zm10.67 1.908c-.86 0-1.6-.156-2.24-.468-.62-.312-1.11-.75-1.45-1.314-.35-.564-.53-1.23-.53-1.998h2.27c0 .588.17 1.05.51 1.386.34.324.83.486 1.45.486.63 0 1.11-.168 1.44-.504.34-.336.51-.792.51-1.368v-1.026c0-.588-.17-1.044-.51-1.368-.33-.336-.81-.504-1.44-.504h-1.47v-2.034l2.9-2.682h-5.06v-1.926h7.34v2.034l-3.71 3.402v-.72c1.3 0 2.33.342 3.08 1.026.76.684 1.14 1.608 1.14 2.772v1.026c0 .768-.18 1.434-.53 1.998-.34.564-.84 1.002-1.47 1.314-.64.312-1.38.468-2.23.468Zm6.45-.18v-9.9h1.84v1.332h.38l-.31.324c0-.552.16-.996.47-1.332.31-.336.71-.504 1.2-.504.53 0 .94.216 1.23.648.3.432.45 1.014.45 1.746l-.4-.882h.61l-.23.324c0-.552.16-.996.47-1.332.31-.336.72-.504 1.24-.504.61 0 1.1.228 1.46.684.36.456.54 1.074.54 1.854V453h-1.98v-7.452c0-.324-.07-.576-.22-.756-.14-.192-.35-.288-.63-.288-.26 0-.47.09-.63.27-.14.18-.21.438-.21.774V453h-1.62v-7.452c0-.336-.08-.594-.22-.774-.14-.18-.35-.27-.63-.27s-.49.09-.63.27c-.13.18-.2.438-.2.774V453h-1.98Zm14.88.162c-.76 0-1.42-.12-1.98-.36s-1.01-.57-1.33-.99c-.31-.432-.48-.936-.51-1.512h2.25c.03.312.18.564.45.756.29.192.66.288 1.12.288h.79c.55 0 .97-.108 1.24-.324.28-.216.42-.51.42-.882 0-.348-.13-.618-.38-.81-.24-.204-.62-.336-1.13-.396l-1.23-.18c-1.13-.156-1.95-.456-2.48-.9s-.79-1.11-.79-1.998c0-.924.31-1.638.93-2.142.63-.516 1.54-.774 2.76-.774h.68c1.1 0 1.99.246 2.65.738.66.492 1.01 1.152 1.06 1.98h-2.25c-.04-.264-.19-.48-.45-.648-.25-.168-.59-.252-1.01-.252h-.68c-.52 0-.9.096-1.14.288-.23.18-.34.45-.34.81 0 .336.1.588.31.756.2.156.53.27.99.342l1.27.18c1.18.168 2.04.486 2.6.954.56.456.84 1.134.84 2.034 0 .96-.33 1.71-.99 2.25-.65.528-1.61.792-2.88.792h-.79Zm7.84 1.998v-2.268c.72-.168 1.34-.468 1.86-.9.51-.444.91-.99 1.18-1.638.28-.66.42-1.392.42-2.196V444.9c0-.828-.14-1.572-.42-2.232-.27-.66-.67-1.212-1.18-1.656-.52-.444-1.14-.75-1.86-.918v-2.214c1.19.312 2.21.804 3.06 1.476.85.66 1.51 1.464 1.96 2.412.47.936.71 1.98.71 3.132v3.258c0 1.752-.5 3.24-1.5 4.464-.99 1.212-2.4 2.058-4.23 2.538Z"/>
  <g filter="url(#d)">
    <rect width="82" height="23" x="1137" y="436" fill="#475569" fill-opacity=".4" rx="4"/>
    <path fill="#fff" d="M1165.41 453v-11.636h1.41v5.772h.13l5.23-5.772h1.84l-4.88 5.25 4.88 6.386h-1.7l-4.05-5.409-1.45 1.636V453h-1.41Zm10.8 0v-8.727h1.34V453h-1.34Zm.68-10.182c-.26 0-.48-.089-.67-.267-.19-.178-.28-.392-.28-.642s.09-.464.28-.642c.19-.178.41-.267.67-.267.26 0 .49.089.67.267.19.178.29.392.29.642s-.1.464-.29.642c-.18.178-.41.267-.67.267Zm3.12 10.182v-8.727h1.29v1.363h.12c.18-.466.47-.827.88-1.085.4-.261.89-.392 1.46-.392s1.05.131 1.44.392c.38.258.68.619.9 1.085h.09c.22-.45.56-.808 1.01-1.074.44-.268.98-.403 1.6-.403.78 0 1.42.244 1.92.733.49.485.74 1.241.74 2.267V453h-1.34v-5.841c0-.644-.17-1.104-.53-1.381-.35-.276-.76-.414-1.24-.414-.61 0-1.09.185-1.43.556-.33.368-.5.834-.5 1.398V453h-1.37v-5.977c0-.496-.16-.896-.48-1.199-.32-.307-.74-.46-1.24-.46-.35 0-.68.092-.98.278-.3.186-.54.443-.73.773-.18.326-.27.702-.27 1.13V453h-1.34Zm13.9 0v-8.727h1.35V453h-1.35Zm.69-10.182c-.26 0-.49-.089-.68-.267-.19-.178-.28-.392-.28-.642s.09-.464.28-.642c.19-.178.42-.267.68-.267.26 0 .48.089.67.267.19.178.28.392.28.642s-.09.464-.28.642c-.19.178-.41.267-.67.267Zm4.36 7-.02-1.659h.27l3.82-3.886h1.66l-4.07 4.113h-.11l-1.55 1.432Zm-1.25 3.182v-11.636h1.34V453h-1.34Zm5.55 0-3.41-4.318.95-.932 4.16 5.25h-1.7Zm6.34.182c-.79 0-1.48-.188-2.07-.563-.59-.375-1.06-.899-1.39-1.574-.33-.674-.49-1.462-.49-2.363 0-.909.16-1.703.49-2.381.33-.678.8-1.204 1.39-1.579.59-.375 1.28-.563 2.07-.563.79 0 1.48.188 2.07.563.59.375 1.06.901 1.39 1.579.33.678.5 1.472.5 2.381 0 .901-.17 1.689-.5 2.363-.33.675-.8 1.199-1.39 1.574-.59.375-1.28.563-2.07.563Zm0-1.205c.6 0 1.09-.153 1.48-.46.38-.307.67-.71.86-1.21.18-.5.27-1.042.27-1.625 0-.584-.09-1.127-.27-1.631-.19-.504-.48-.911-.86-1.221-.39-.311-.88-.466-1.48-.466s-1.09.155-1.48.466c-.38.31-.67.717-.85 1.221-.19.504-.28 1.047-.28 1.631 0 .583.09 1.125.28 1.625.18.5.47.903.85 1.21.39.307.88.46 1.48.46Z"/>
    <path stroke="#fff" stroke-linecap="round" stroke-linejoin="round" d="M1147 451.5v.671c0 .263-.05.523-.15.766-.1.243-.25.463-.44.649l-.41.414h6l-.41-.414c-.19-.186-.34-.406-.44-.649-.1-.243-.15-.503-.15-.766v-.671m4-8v6.5c0 .398-.16.779-.44 1.061-.28.281-.66.439-1.06.439h-9c-.4 0-.78-.158-1.06-.439-.28-.282-.44-.663-.44-1.061v-6.5m12 0c0-.398-.16-.779-.44-1.061-.28-.281-.66-.439-1.06-.439h-9c-.4 0-.78.158-1.06.439-.28.282-.44.663-.44 1.061m12 0v4.5c0 .398-.16.779-.44 1.061-.28.281-.66.439-1.06.439h-9c-.4 0-.78-.158-1.06-.439-.28-.282-.44-.663-.44-1.061v-4.5"/>
  </g>
  <path fill="#3B82F6" d="M876.061 448.061c.585-.586.585-1.536 0-2.122l-9.546-9.546c-.586-.585-1.536-.585-2.122 0-.585.586-.585 1.536 0 2.122l8.486 8.485-8.486 8.485c-.585.586-.585 1.536 0 2.122.586.585 1.536.585 2.122 0l9.546-9.546ZM674 265h76.5v-3H674v3Zm99 22.5V423h3V287.5h-3Zm25.5 161H875v-3h-76.5v3ZM773 423c0 14.083 11.417 25.5 25.5 25.5v-3c-12.426 0-22.5-10.074-22.5-22.5h-3Zm-22.5-158c12.426 0 22.5 10.074 22.5 22.5h3c0-14.083-11.417-25.5-25.5-25.5v3Z"/>
  <path stroke="#3B82F6" stroke-linecap="round" stroke-linejoin="round" stroke-width="1.5" d="M836 34.7504v6.75m0 0-3-3m3 3 3-3m-8.25 6a4.5014 4.5014 0 0 1-2.922-1.0733 4.5017 4.5017 0 0 1-1.526-2.7128 4.4982 4.4982 0 0 1 .6-3.0543 4.4965 4.4965 0 0 1 2.438-1.9346 5.2525 5.2525 0 0 1 .753-3.87 5.2487 5.2487 0 0 1 3.234-2.2546 5.251 5.251 0 0 1 3.892.6321 5.2485 5.2485 0 0 1 2.354 3.1625 3.0006 3.0006 0 0 1 1.645-.0601 3.0006 3.0006 0 0 1 2.113 3.9081 3.7532 3.7532 0 0 1 1.932 1.666c.429.7638.578 1.6539.42 2.5159A3.753 3.753 0 0 1 842 44.5004h-11.25Z"/>
  <rect width="348" height="35" x="878.5" y="42.5" stroke="#94A3B8" stroke-opacity=".2" rx="8.5"/>
  <path stroke="#94A3B8" stroke-linecap="round" stroke-linejoin="round" stroke-width="1.5" d="m897.469 53.4375 6 6-6 6"/>
  <path fill="#94A3B8" d="M913.386 66v-9.9h2.196v1.89h.612l-.612.522c0-.816.234-1.452.702-1.908.48-.456 1.134-.684 1.962-.684.972 0 1.746.324 2.322.972.588.648.882 1.518.882 2.61V66h-2.25v-6.264c0-.6-.156-1.062-.468-1.386-.312-.324-.75-.486-1.314-.486-.552 0-.99.168-1.314.504-.312.336-.468.816-.468 1.44V66h-2.25Zm10.055 0 3.456-5.112-3.222-4.788h2.538l1.53 2.43c.096.144.18.306.252.486.084.18.15.324.198.432.048-.108.114-.252.198-.432a6.02 6.02 0 0 1 .252-.486l1.548-2.43h2.538l-3.222 4.788L932.945 66h-2.556l-1.71-2.718a4.9754 4.9754 0 0 1-.27-.504c-.084-.18-.156-.324-.216-.432-.048.108-.114.252-.198.432s-.174.348-.27.504L925.979 66h-2.538Zm27.184.18c-.816 0-1.464-.228-1.944-.684-.48-.468-.72-1.104-.72-1.908l.504.522h-.504V66h-2.196V52.86h2.25v2.772l-.072 2.358h.522l-.504.522c0-.804.24-1.434.72-1.89.48-.468 1.128-.702 1.944-.702.996 0 1.794.342 2.394 1.026.6.684.9 1.608.9 2.772V62.4c0 1.152-.3 2.07-.9 2.754-.6.684-1.398 1.026-2.394 1.026Zm-.792-1.944c.576 0 1.026-.168 1.35-.504.324-.336.486-.816.486-1.44v-2.484c0-.624-.162-1.104-.486-1.44-.324-.336-.774-.504-1.35-.504-.564 0-1.008.174-1.332.522-.324.336-.486.81-.486 1.422v2.484c0 .612.162 1.092.486 1.44.324.336.768.504 1.332.504Zm10.739 1.944c-1.26 0-2.25-.348-2.97-1.044-.72-.708-1.08-1.668-1.08-2.88V56.1h2.25v6.138c0 .636.156 1.128.468 1.476.312.336.756.504 1.332.504.564 0 1.002-.168 1.314-.504.324-.348.486-.84.486-1.476V56.1h2.25v6.156c0 1.212-.366 2.172-1.098 2.88-.732.696-1.716 1.044-2.952 1.044Zm6.761-.18v-2.052h3.456v-5.814h-3.006V56.1h5.166v7.848h3.06V66h-8.676Zm4.356-11.556c-.456 0-.816-.114-1.08-.342-.264-.24-.396-.558-.396-.954 0-.396.132-.708.396-.936.264-.24.624-.36 1.08-.36.456 0 .816.12 1.08.36.264.228.396.54.396.936s-.132.714-.396.954c-.264.228-.624.342-1.08.342ZM983.67 66c-.648 0-1.218-.132-1.71-.396-.48-.264-.858-.636-1.134-1.116-.276-.492-.414-1.056-.414-1.692v-7.902h-3.168V52.86h5.418v9.936c0 .36.102.648.306.864.216.204.504.306.864.306h2.988V66h-3.15Zm8.435.18c-.984 0-1.782-.342-2.394-1.026-.6-.684-.9-1.602-.9-2.754v-2.682c0-1.164.3-2.088.9-2.772.6-.684 1.398-1.026 2.394-1.026.816 0 1.464.234 1.944.702.48.456.72 1.086.72 1.89l-.504-.522h.522l-.072-2.358V52.86h2.25V66h-2.196v-1.89h-.504l.504-.522c0 .804-.24 1.44-.72 1.908-.48.456-1.128.684-1.944.684Zm.792-1.944c.576 0 1.02-.168 1.332-.504.324-.348.486-.828.486-1.44v-2.484c0-.612-.162-1.086-.486-1.422-.312-.348-.756-.522-1.332-.522-.576 0-1.026.168-1.35.504-.324.336-.486.816-.486 1.44v2.484c0 .624.162 1.104.486 1.44.324.336.774.504 1.35.504Z"/>
  <path fill="#EAB308" d="M1017.87 68.16c-1.83-.48-3.24-1.326-4.23-2.538-1-1.224-1.5-2.712-1.5-4.464V57.9c0-1.152.23-2.196.69-3.132.46-.948 1.12-1.752 1.98-2.412.86-.672 1.88-1.164 3.06-1.476v2.214c-.71.168-1.33.474-1.86.918-.51.444-.91.996-1.19 1.656-.27.66-.41 1.404-.41 2.232v3.258c0 .804.14 1.536.41 2.196.28.648.68 1.194 1.19 1.638.53.432 1.15.732 1.86.9v2.268Zm9.08-2.16v-2.61h-5.85v-3.258l5.06-7.272h2.52l-5.42 7.866v.684h3.69v-2.97h2.25V66h-2.25Zm9.17.18c-.86 0-1.61-.144-2.25-.432-.63-.3-1.13-.72-1.47-1.26-.35-.54-.53-1.17-.53-1.89 0-.792.23-1.47.67-2.034.44-.564 1.1-1.044 1.98-1.44l2.02-.918c.43-.204.76-.48 1-.828.26-.348.38-.738.38-1.17 0-.492-.16-.882-.48-1.17-.33-.3-.77-.45-1.32-.45s-.99.15-1.33.45c-.32.3-.49.696-.49 1.188 0 .42.13.804.38 1.152.25.348.59.618 1.01.81l2 .918c.95.42 1.63.918 2.05 1.494.42.564.63 1.23.63 1.998 0 1.104-.38 1.98-1.15 2.628-.76.636-1.79.954-3.1.954Zm0-1.926c.63 0 1.12-.162 1.48-.486.37-.336.56-.774.56-1.314 0-.42-.13-.816-.38-1.188-.25-.384-.6-.678-1.05-.882l-2.14-.99c-.81-.384-1.44-.84-1.87-1.368-.42-.54-.63-1.182-.63-1.926 0-.672.16-1.266.49-1.782.32-.516.78-.918 1.38-1.206.61-.288 1.33-.432 2.16-.432.83 0 1.54.144 2.13.432.6.288 1.06.69 1.38 1.206.34.516.51 1.11.51 1.782 0 .756-.21 1.398-.63 1.926-.42.528-1.04.984-1.86 1.368l-2.16 1.008c-.43.192-.77.474-1.02.846-.26.372-.38.768-.38 1.188 0 .54.18.978.54 1.314.37.336.87.504 1.49.504Zm6.33 1.746v-9.9h1.84v1.332h.38l-.31.324c0-.552.16-.996.47-1.332.31-.336.71-.504 1.2-.504.53 0 .94.216 1.23.648.3.432.45 1.014.45 1.746l-.4-.882h.61l-.23.324c0-.552.16-.996.47-1.332.31-.336.72-.504 1.24-.504.61 0 1.1.228 1.46.684.36.456.54 1.074.54 1.854V66h-1.98v-7.452c0-.324-.07-.576-.22-.756-.14-.192-.35-.288-.63-.288-.26 0-.47.09-.63.27-.14.18-.21.438-.21.774V66h-1.62v-7.452c0-.336-.08-.594-.22-.774-.14-.18-.35-.27-.63-.27s-.49.09-.63.27c-.13.18-.2.438-.2.774V66h-1.98Zm14.88.162c-.76 0-1.42-.12-1.98-.36s-1.01-.57-1.33-.99c-.31-.432-.48-.936-.51-1.512h2.25c.03.312.18.564.45.756.29.192.66.288 1.12.288h.79c.55 0 .97-.108 1.24-.324.28-.216.42-.51.42-.882 0-.348-.13-.618-.38-.81-.24-.204-.62-.336-1.13-.396l-1.23-.18c-1.13-.156-1.95-.456-2.48-.9s-.79-1.11-.79-1.998c0-.924.31-1.638.93-2.142.63-.516 1.54-.774 2.76-.774h.68c1.1 0 1.99.246 2.65.738.66.492 1.01 1.152 1.06 1.98h-2.25c-.04-.264-.19-.48-.45-.648-.25-.168-.59-.252-1.01-.252h-.68c-.52 0-.9.096-1.14.288-.23.18-.34.45-.34.81 0 .336.1.588.31.756.2.156.53.27.99.342l1.27.18c1.18.168 2.04.486 2.6.954.56.456.84 1.134.84 2.034 0 .96-.33 1.71-.99 2.25-.65.528-1.61.792-2.88.792h-.79Zm7.84 1.998v-2.268c.72-.168 1.34-.468 1.86-.9.51-.444.91-.99 1.18-1.638.28-.66.42-1.392.42-2.196V57.9c0-.828-.14-1.572-.42-2.232-.27-.66-.67-1.212-1.18-1.656-.52-.444-1.14-.75-1.86-.918V50.88c1.19.312 2.21.804 3.06 1.476.85.66 1.51 1.464 1.96 2.412.47.936.71 1.98.71 3.132v3.258c0 1.752-.5 3.24-1.5 4.464-.99 1.212-2.4 2.058-4.23 2.538Z"/>
  <g filter="url(#e)">
    <rect width="51" height="23" x="1168" y="49" fill="#EAB308" rx="4"/>
    <path fill="#fff" d="M1206.77 58h-1.41c-.08-.4053-.23-.7614-.43-1.0682-.21-.3068-.46-.5644-.75-.7727-.3-.2121-.62-.3712-.98-.4773-.35-.106-.72-.1591-1.11-.1591-.7 0-1.34.1781-1.91.5341-.57.3561-1.02.8807-1.36 1.5739-.34.6932-.5 1.5435-.5 2.5511 0 1.0076.16 1.858.5 2.5512.34.6931.79 1.2178 1.36 1.5738.57.3561 1.21.5341 1.91.5341.39 0 .76-.053 1.11-.1591.36-.106.68-.2632.98-.4716.29-.2121.54-.4716.75-.7784.2-.3106.35-.6666.43-1.0682h1.41c-.1.5947-.3 1.1269-.58 1.5966-.28.4697-.63.8693-1.04 1.1989-.42.3257-.89.5739-1.41.7443-.51.1705-1.06.2557-1.65.2557-.99 0-1.87-.2424-2.65-.7273-.77-.4848-1.38-1.1742-1.82-2.0682-.44-.8939-.67-1.9545-.67-3.1818s.23-2.2879.67-3.1818c.44-.8939 1.05-1.5833 1.82-2.0682.78-.4848 1.66-.7273 2.65-.7273.59 0 1.14.0853 1.65.2557.52.1705.99.4205 1.41.75.41.3258.76.7235 1.04 1.1932.28.4659.48.9981.58 1.5966Zm3.69-3.6364V66h-1.41V54.3636h1.41Z"/>
    <path stroke="#fff" stroke-linecap="round" stroke-linejoin="round" d="M1179 64.5v.6713c0 .2628-.05.5229-.15.7657-.1.2427-.25.4632-.44.649L1178 67h6l-.41-.414a1.9456 1.9456 0 0 1-.44-.649 2.009 2.009 0 0 1-.15-.7657V64.5m4-8V63c0 .3978-.16.7794-.44 1.0607s-.66.4393-1.06.4393h-9c-.4 0-.78-.158-1.06-.4393A1.5063 1.5063 0 0 1 1175 63v-6.5m12 0c0-.3978-.16-.7794-.44-1.0607A1.4924 1.4924 0 0 0 1185.5 55h-9c-.4 0-.78.158-1.06.4393s-.44.6629-.44 1.0607m12 0V61c0 .3978-.16.7794-.44 1.0607s-.66.4393-1.06.4393h-9c-.4 0-.78-.158-1.06-.4393A1.5063 1.5063 0 0 1 1175 61v-4.5"/>
  </g>
  <path fill="#3B82F6" d="M876.061 61.0607c.585-.5858.585-1.5356 0-2.1214l-9.546-9.5459c-.586-.5858-1.536-.5858-2.122 0-.585.5858-.585 1.5355 0 2.1213L872.879 60l-8.486 8.4853c-.585.5858-.585 1.5355 0 2.1213.586.5858 1.536.5858 2.122 0l9.546-9.5459ZM561.5 225V84h-3v141h3ZM584 61.5h291v-3H584v3ZM561.5 84c0-12.4264 10.074-22.5 22.5-22.5v-3c-14.083 0-25.5 11.4167-25.5 25.5h3Z"/>
  <defs>
    <filter id="a" width="79" height="27" x="288" y="535" color-interpolation-filters="sRGB" filterUnits="userSpaceOnUse">
      <feFlood flood-opacity="0" result="BackgroundImageFix"/>
      <feColorMatrix in="SourceAlpha" result="hardAlpha" values="0 0 0 0 0 0 0 0 0 0 0 0 0 0 0 0 0 0 127 0"/>
      <feOffset dy="2"/>
      <feGaussianBlur stdDeviation="1"/>
      <feComposite in2="hardAlpha" operator="out"/>
      <feColorMatrix values="0 0 0 0 0 0 0 0 0 0 0 0 0 0 0 0 0 0 0.1 0"/>
      <feBlend in2="BackgroundImageFix" result="effect1_dropShadow_1283_941"/>
      <feBlend in="SourceGraphic" in2="effect1_dropShadow_1283_941" result="shape"/>
    </filter>
    <filter id="c" width="86" height="27" x="1135" y="547" color-interpolation-filters="sRGB" filterUnits="userSpaceOnUse">
      <feFlood flood-opacity="0" result="BackgroundImageFix"/>
      <feColorMatrix in="SourceAlpha" result="hardAlpha" values="0 0 0 0 0 0 0 0 0 0 0 0 0 0 0 0 0 0 127 0"/>
      <feOffset dy="2"/>
      <feGaussianBlur stdDeviation="1"/>
      <feComposite in2="hardAlpha" operator="out"/>
      <feColorMatrix values="0 0 0 0 0 0 0 0 0 0 0 0 0 0 0 0 0 0 0.1 0"/>
      <feBlend in2="BackgroundImageFix" result="effect1_dropShadow_1283_941"/>
      <feBlend in="SourceGraphic" in2="effect1_dropShadow_1283_941" result="shape"/>
    </filter>
    <filter id="d" width="86" height="27" x="1135" y="436" color-interpolation-filters="sRGB" filterUnits="userSpaceOnUse">
      <feFlood flood-opacity="0" result="BackgroundImageFix"/>
      <feColorMatrix in="SourceAlpha" result="hardAlpha" values="0 0 0 0 0 0 0 0 0 0 0 0 0 0 0 0 0 0 127 0"/>
      <feOffset dy="2"/>
      <feGaussianBlur stdDeviation="1"/>
      <feComposite in2="hardAlpha" operator="out"/>
      <feColorMatrix values="0 0 0 0 0 0 0 0 0 0 0 0 0 0 0 0 0 0 0.1 0"/>
      <feBlend in2="BackgroundImageFix" result="effect1_dropShadow_1283_941"/>
      <feBlend in="SourceGraphic" in2="effect1_dropShadow_1283_941" result="shape"/>
    </filter>
    <filter id="e" width="55" height="27" x="1166" y="49" color-interpolation-filters="sRGB" filterUnits="userSpaceOnUse">
      <feFlood flood-opacity="0" result="BackgroundImageFix"/>
      <feColorMatrix in="SourceAlpha" result="hardAlpha" values="0 0 0 0 0 0 0 0 0 0 0 0 0 0 0 0 0 0 127 0"/>
      <feOffset dy="2"/>
      <feGaussianBlur stdDeviation="1"/>
      <feComposite in2="hardAlpha" operator="out"/>
      <feColorMatrix values="0 0 0 0 0 0 0 0 0 0 0 0 0 0 0 0 0 0 0.1 0"/>
      <feBlend in2="BackgroundImageFix" result="effect1_dropShadow_1283_941"/>
      <feBlend in="SourceGraphic" in2="effect1_dropShadow_1283_941" result="shape"/>
    </filter>
    <clipPath id="b">
      <path fill="#fff" d="M501 246h-36v36h36z"/>
    </clipPath>
  </defs>
</svg>
