<svg width="1256" height="500" viewBox="0 0 1256 500" fill="none" xmlns="http://www.w3.org/2000/svg">
  <path fill-rule="evenodd" clip-rule="evenodd"
    d="M889 0C883.477 0 879 4.47717 879 10V484C879 489.523 883.477 494 889 494H1246C1251.52 494 1256 489.523 1256 484V10C1256 4.47714 1251.52 0 1246 0H889ZM895 59C889.477 59 885 63.4771 885 69V478C885 483.523 889.477 488 895 488H1240C1245.52 488 1250 483.523 1250 478V69C1250 63.4772 1245.52 59 1240 59H895Z"
    fill="#475569" fill-opacity="0.4" />
  <path
    d="M682 241H478C473.582 241 470 244.582 470 249V302C470 306.418 473.582 310 478 310H682C686.418 310 690 306.418 690 302V249C690 244.582 686.418 241 682 241Z"
    fill="#3B82F6" />
  <path
    d="M321 201.5H29C24.3056 201.5 20.5 205.306 20.5 210V341C20.5 345.694 24.3056 349.5 29 349.5H321C325.694 349.5 329.5 345.694 329.5 341V210C329.5 205.306 325.694 201.5 321 201.5Z"
    stroke="#94A3B8" stroke-opacity="0.2" />
  <path d="M39.4688 218.438L45.4688 224.438L39.4688 230.438" stroke="#94A3B8" stroke-width="1.5"
    stroke-linecap="round" stroke-linejoin="round" />
  <path
    d="M55.386 231V221.1H57.582V222.99H58.194L57.582 223.512C57.582 222.696 57.816 222.06 58.284 221.604C58.764 221.148 59.418 220.92 60.246 220.92C61.218 220.92 61.992 221.244 62.568 221.892C63.156 222.54 63.45 223.41 63.45 224.502V231H61.2V224.736C61.2 224.136 61.044 223.674 60.732 223.35C60.42 223.026 59.982 222.864 59.418 222.864C58.866 222.864 58.428 223.032 58.104 223.368C57.792 223.704 57.636 224.184 57.636 224.808V231H55.386ZM65.441 231L68.897 225.888L65.675 221.1H68.213L69.743 223.53C69.839 223.674 69.923 223.836 69.995 224.016C70.079 224.196 70.145 224.34 70.193 224.448C70.241 224.34 70.307 224.196 70.391 224.016C70.4676 223.85 70.5517 223.688 70.643 223.53L72.191 221.1H74.729L71.507 225.888L74.945 231H72.389L70.679 228.282C70.5794 228.119 70.4892 227.951 70.409 227.778C70.325 227.598 70.253 227.454 70.193 227.346C70.145 227.454 70.079 227.598 69.995 227.778C69.911 227.958 69.821 228.126 69.725 228.282L67.979 231H65.441ZM90.6809 231.18C89.6609 231.18 88.8569 230.91 88.2689 230.37C87.6809 229.83 87.3869 229.104 87.3869 228.192C87.3869 227.22 87.7109 226.47 88.3589 225.942C89.0069 225.414 89.9249 225.15 91.1129 225.15H93.5789V224.304C93.5789 223.824 93.4229 223.452 93.1109 223.188C92.7989 222.912 92.3729 222.774 91.8329 222.774C91.3409 222.774 90.9329 222.882 90.6089 223.098C90.2849 223.314 90.0929 223.608 90.0329 223.98H87.8369C87.9449 223.044 88.3649 222.3 89.0969 221.748C89.8289 221.196 90.7649 220.92 91.9049 220.92C93.1169 220.92 94.0709 221.226 94.7669 221.838C95.4749 222.438 95.8289 223.254 95.8289 224.286V231H93.6509V229.272H93.2909L93.6509 228.786C93.6509 229.518 93.3809 230.1 92.8409 230.532C92.3009 230.964 91.5809 231.18 90.6809 231.18ZM91.4189 229.488C92.0549 229.488 92.5709 229.326 92.9669 229.002C93.3749 228.678 93.5789 228.258 93.5789 227.742V226.536H91.1489C90.6929 226.536 90.3269 226.668 90.0509 226.932C89.7749 227.196 89.6369 227.544 89.6369 227.976C89.6369 228.444 89.7929 228.816 90.1049 229.092C90.4289 229.356 90.8669 229.488 91.4189 229.488ZM100.862 231V224.232H98.1439V222.198H100.862V220.704C100.862 219.84 101.15 219.15 101.726 218.634C102.302 218.118 103.064 217.86 104.012 217.86H106.91V219.84H104.066C103.778 219.84 103.544 219.924 103.364 220.092C103.196 220.248 103.112 220.464 103.112 220.74V222.198H106.91V224.232H103.112V231H100.862ZM111.655 231V224.232H108.937V222.198H111.655V220.704C111.655 219.84 111.943 219.15 112.519 218.634C113.095 218.118 113.857 217.86 114.805 217.86H117.703V219.84H114.859C114.571 219.84 114.337 219.924 114.157 220.092C113.989 220.248 113.905 220.464 113.905 220.74V222.198H117.703V224.232H113.905V231H111.655ZM124.176 231.18C123.336 231.18 122.604 231.018 121.98 230.694C121.356 230.37 120.87 229.92 120.522 229.344C120.186 228.756 120.018 228.072 120.018 227.292V224.808C120.018 224.028 120.186 223.35 120.522 222.774C120.87 222.186 121.356 221.73 121.98 221.406C122.604 221.082 123.336 220.92 124.176 220.92C125.004 220.92 125.724 221.082 126.336 221.406C126.96 221.73 127.44 222.186 127.776 222.774C128.124 223.35 128.298 224.028 128.298 224.808V226.59H122.196V227.292C122.196 227.988 122.364 228.516 122.7 228.876C123.036 229.224 123.534 229.398 124.194 229.398C124.698 229.398 125.106 229.314 125.418 229.146C125.73 228.966 125.928 228.708 126.012 228.372H128.226C128.058 229.224 127.602 229.908 126.858 230.424C126.126 230.928 125.232 231.18 124.176 231.18ZM126.12 225.33V224.79C126.12 224.106 125.958 223.584 125.634 223.224C125.31 222.852 124.824 222.666 124.176 222.666C123.528 222.666 123.036 222.852 122.7 223.224C122.364 223.596 122.196 224.124 122.196 224.808V225.186L126.282 225.15L126.12 225.33ZM135.005 231.18C134.165 231.18 133.427 231.024 132.791 230.712C132.167 230.388 131.681 229.938 131.333 229.362C130.985 228.774 130.811 228.084 130.811 227.292V224.808C130.811 224.004 130.985 223.314 131.333 222.738C131.681 222.162 132.167 221.718 132.791 221.406C133.427 221.082 134.165 220.92 135.005 220.92C136.253 220.92 137.249 221.244 137.993 221.892C138.737 222.528 139.127 223.398 139.163 224.502H136.913C136.877 223.986 136.691 223.59 136.355 223.314C136.031 223.026 135.581 222.882 135.005 222.882C134.405 222.882 133.931 223.05 133.583 223.386C133.235 223.71 133.061 224.178 133.061 224.79V227.292C133.061 227.904 133.235 228.378 133.583 228.714C133.931 229.05 134.405 229.218 135.005 229.218C135.581 229.218 136.031 229.08 136.355 228.804C136.691 228.516 136.877 228.114 136.913 227.598H139.163C139.127 228.702 138.737 229.578 137.993 230.226C137.249 230.862 136.253 231.18 135.005 231.18ZM146.824 231C145.876 231 145.132 230.736 144.592 230.208C144.064 229.68 143.8 228.954 143.8 228.03V223.134H141.118V221.1H143.8V218.31H146.068V221.1H149.866V223.134H146.068V228.03C146.068 228.654 146.374 228.966 146.986 228.966H149.686V231H146.824ZM156.555 231.18C155.715 231.18 154.983 231.018 154.359 230.694C153.735 230.37 153.249 229.92 152.901 229.344C152.565 228.756 152.397 228.072 152.397 227.292V224.808C152.397 224.028 152.565 223.35 152.901 222.774C153.249 222.186 153.735 221.73 154.359 221.406C154.983 221.082 155.715 220.92 156.555 220.92C157.383 220.92 158.103 221.082 158.715 221.406C159.339 221.73 159.819 222.186 160.155 222.774C160.503 223.35 160.677 224.028 160.677 224.808V226.59H154.575V227.292C154.575 227.988 154.743 228.516 155.079 228.876C155.415 229.224 155.913 229.398 156.573 229.398C157.077 229.398 157.485 229.314 157.797 229.146C158.109 228.966 158.307 228.708 158.391 228.372H160.605C160.437 229.224 159.981 229.908 159.237 230.424C158.505 230.928 157.611 231.18 156.555 231.18ZM158.499 225.33V224.79C158.499 224.106 158.337 223.584 158.013 223.224C157.689 222.852 157.203 222.666 156.555 222.666C155.907 222.666 155.415 222.852 155.079 223.224C154.743 223.596 154.575 224.124 154.575 224.808V225.186L158.661 225.15L158.499 225.33ZM166.484 231.18C165.5 231.18 164.702 230.838 164.09 230.154C163.49 229.47 163.19 228.552 163.19 227.4V224.718C163.19 223.554 163.49 222.63 164.09 221.946C164.69 221.262 165.488 220.92 166.484 220.92C167.3 220.92 167.948 221.154 168.428 221.622C168.908 222.078 169.148 222.708 169.148 223.512L168.644 222.99H169.166L169.094 220.632V217.86H171.344V231H169.148V229.11H168.644L169.148 228.588C169.148 229.392 168.908 230.028 168.428 230.496C167.948 230.952 167.3 231.18 166.484 231.18ZM167.276 229.236C167.852 229.236 168.296 229.068 168.608 228.732C168.932 228.384 169.094 227.904 169.094 227.292V224.808C169.094 224.196 168.932 223.722 168.608 223.386C168.296 223.038 167.852 222.864 167.276 222.864C166.7 222.864 166.25 223.032 165.926 223.368C165.602 223.704 165.44 224.184 165.44 224.808V227.292C165.44 227.916 165.602 228.396 165.926 228.732C166.25 229.068 166.7 229.236 167.276 229.236ZM178.123 223.944C177.619 223.944 177.211 223.806 176.899 223.53C176.599 223.242 176.449 222.876 176.449 222.432C176.449 221.976 176.599 221.61 176.899 221.334C177.211 221.058 177.619 220.92 178.123 220.92C178.627 220.92 179.029 221.058 179.329 221.334C179.641 221.61 179.797 221.976 179.797 222.432C179.797 222.876 179.641 223.242 179.329 223.53C179.029 223.806 178.627 223.944 178.123 223.944ZM178.123 231.18C177.619 231.18 177.211 231.042 176.899 230.766C176.599 230.49 176.449 230.124 176.449 229.668C176.449 229.212 176.599 228.846 176.899 228.57C177.211 228.294 177.619 228.156 178.123 228.156C178.627 228.156 179.029 228.294 179.329 228.57C179.641 228.846 179.797 229.212 179.797 229.668C179.797 230.124 179.641 230.49 179.329 230.766C179.029 231.042 178.627 231.18 178.123 231.18ZM189.762 231.18C188.946 231.18 188.298 230.952 187.818 230.496C187.338 230.028 187.098 229.392 187.098 228.588L187.602 229.11H187.098V231H184.902V217.86H187.152V220.632L187.08 222.99H187.602L187.098 223.512C187.098 222.708 187.338 222.078 187.818 221.622C188.298 221.154 188.946 220.92 189.762 220.92C190.758 220.92 191.556 221.262 192.156 221.946C192.756 222.63 193.056 223.554 193.056 224.718V227.4C193.056 228.552 192.756 229.47 192.156 230.154C191.556 230.838 190.758 231.18 189.762 231.18ZM188.97 229.236C189.546 229.236 189.996 229.068 190.32 228.732C190.644 228.396 190.806 227.916 190.806 227.292V224.808C190.806 224.184 190.644 223.704 190.32 223.368C189.996 223.032 189.546 222.864 188.97 222.864C188.406 222.864 187.962 223.038 187.638 223.386C187.314 223.722 187.152 224.196 187.152 224.808V227.292C187.152 227.904 187.314 228.384 187.638 228.732C187.962 229.068 188.406 229.236 188.97 229.236ZM199.709 231.18C198.449 231.18 197.459 230.832 196.739 230.136C196.019 229.428 195.659 228.468 195.659 227.256V221.1H197.909V227.238C197.909 227.874 198.065 228.366 198.377 228.714C198.689 229.05 199.133 229.218 199.709 229.218C200.273 229.218 200.711 229.05 201.023 228.714C201.347 228.366 201.509 227.874 201.509 227.238V221.1H203.759V227.256C203.759 228.468 203.393 229.428 202.661 230.136C201.929 230.832 200.945 231.18 199.709 231.18ZM206.47 231V228.948H209.926V223.134H206.92V221.1H212.086V228.948H215.146V231H206.47ZM210.826 219.444C210.37 219.444 210.01 219.33 209.746 219.102C209.482 218.862 209.35 218.544 209.35 218.148C209.35 217.752 209.482 217.44 209.746 217.212C210.01 216.972 210.37 216.852 210.826 216.852C211.282 216.852 211.642 216.972 211.906 217.212C212.17 217.44 212.302 217.752 212.302 218.148C212.302 218.544 212.17 218.862 211.906 219.102C211.642 219.33 211.282 219.444 210.826 219.444ZM222.807 231C222.159 231 221.589 230.868 221.097 230.604C220.617 230.34 220.239 229.968 219.963 229.488C219.687 228.996 219.549 228.432 219.549 227.796V219.894H216.381V217.86H221.799V227.796C221.799 228.156 221.901 228.444 222.105 228.66C222.321 228.864 222.609 228.966 222.969 228.966H225.957V231H222.807ZM231.242 231.18C230.258 231.18 229.46 230.838 228.848 230.154C228.248 229.47 227.948 228.552 227.948 227.4V224.718C227.948 223.554 228.248 222.63 228.848 221.946C229.448 221.262 230.246 220.92 231.242 220.92C232.058 220.92 232.706 221.154 233.186 221.622C233.666 222.078 233.906 222.708 233.906 223.512L233.402 222.99H233.924L233.852 220.632V217.86H236.102V231H233.906V229.11H233.402L233.906 228.588C233.906 229.392 233.666 230.028 233.186 230.496C232.706 230.952 232.058 231.18 231.242 231.18ZM232.034 229.236C232.61 229.236 233.054 229.068 233.366 228.732C233.69 228.384 233.852 227.904 233.852 227.292V224.808C233.852 224.196 233.69 223.722 233.366 223.386C233.054 223.038 232.61 222.864 232.034 222.864C231.458 222.864 231.008 223.032 230.684 223.368C230.36 223.704 230.198 224.184 230.198 224.808V227.292C230.198 227.916 230.36 228.396 230.684 228.732C231.008 229.068 231.458 229.236 232.034 229.236Z"
    fill="#FFC562" />
  <path d="M39.4688 252.438L45.4688 258.438L39.4688 264.438" stroke="#94A3B8" stroke-width="1.5"
    stroke-linecap="round" stroke-linejoin="round" />
  <path
    d="M55.386 265V255.1H57.582V256.99H58.194L57.582 257.512C57.582 256.696 57.816 256.06 58.284 255.604C58.764 255.148 59.418 254.92 60.246 254.92C61.218 254.92 61.992 255.244 62.568 255.892C63.156 256.54 63.45 257.41 63.45 258.502V265H61.2V258.736C61.2 258.136 61.044 257.674 60.732 257.35C60.42 257.026 59.982 256.864 59.418 256.864C58.866 256.864 58.428 257.032 58.104 257.368C57.792 257.704 57.636 258.184 57.636 258.808V265H55.386ZM65.441 265L68.897 259.888L65.675 255.1H68.213L69.743 257.53C69.839 257.674 69.923 257.836 69.995 258.016C70.079 258.196 70.145 258.34 70.193 258.448C70.241 258.34 70.307 258.196 70.391 258.016C70.4676 257.85 70.5517 257.688 70.643 257.53L72.191 255.1H74.729L71.507 259.888L74.945 265H72.389L70.679 262.282C70.5794 262.119 70.4892 261.951 70.409 261.778C70.325 261.598 70.253 261.454 70.193 261.346C70.145 261.454 70.079 261.598 69.995 261.778C69.911 261.958 69.821 262.126 69.725 262.282L67.979 265H65.441ZM90.6809 265.18C89.6609 265.18 88.8569 264.91 88.2689 264.37C87.6809 263.83 87.3869 263.104 87.3869 262.192C87.3869 261.22 87.7109 260.47 88.3589 259.942C89.0069 259.414 89.9249 259.15 91.1129 259.15H93.5789V258.304C93.5789 257.824 93.4229 257.452 93.1109 257.188C92.7989 256.912 92.3729 256.774 91.8329 256.774C91.3409 256.774 90.9329 256.882 90.6089 257.098C90.2849 257.314 90.0929 257.608 90.0329 257.98H87.8369C87.9449 257.044 88.3649 256.3 89.0969 255.748C89.8289 255.196 90.7649 254.92 91.9049 254.92C93.1169 254.92 94.0709 255.226 94.7669 255.838C95.4749 256.438 95.8289 257.254 95.8289 258.286V265H93.6509V263.272H93.2909L93.6509 262.786C93.6509 263.518 93.3809 264.1 92.8409 264.532C92.3009 264.964 91.5809 265.18 90.6809 265.18ZM91.4189 263.488C92.0549 263.488 92.5709 263.326 92.9669 263.002C93.3749 262.678 93.5789 262.258 93.5789 261.742V260.536H91.1489C90.6929 260.536 90.3269 260.668 90.0509 260.932C89.7749 261.196 89.6369 261.544 89.6369 261.976C89.6369 262.444 89.7929 262.816 90.1049 263.092C90.4289 263.356 90.8669 263.488 91.4189 263.488ZM100.862 265V258.232H98.1439V256.198H100.862V254.704C100.862 253.84 101.15 253.15 101.726 252.634C102.302 252.118 103.064 251.86 104.012 251.86H106.91V253.84H104.066C103.778 253.84 103.544 253.924 103.364 254.092C103.196 254.248 103.112 254.464 103.112 254.74V256.198H106.91V258.232H103.112V265H100.862ZM111.655 265V258.232H108.937V256.198H111.655V254.704C111.655 253.84 111.943 253.15 112.519 252.634C113.095 252.118 113.857 251.86 114.805 251.86H117.703V253.84H114.859C114.571 253.84 114.337 253.924 114.157 254.092C113.989 254.248 113.905 254.464 113.905 254.74V256.198H117.703V258.232H113.905V265H111.655ZM124.176 265.18C123.336 265.18 122.604 265.018 121.98 264.694C121.356 264.37 120.87 263.92 120.522 263.344C120.186 262.756 120.018 262.072 120.018 261.292V258.808C120.018 258.028 120.186 257.35 120.522 256.774C120.87 256.186 121.356 255.73 121.98 255.406C122.604 255.082 123.336 254.92 124.176 254.92C125.004 254.92 125.724 255.082 126.336 255.406C126.96 255.73 127.44 256.186 127.776 256.774C128.124 257.35 128.298 258.028 128.298 258.808V260.59H122.196V261.292C122.196 261.988 122.364 262.516 122.7 262.876C123.036 263.224 123.534 263.398 124.194 263.398C124.698 263.398 125.106 263.314 125.418 263.146C125.73 262.966 125.928 262.708 126.012 262.372H128.226C128.058 263.224 127.602 263.908 126.858 264.424C126.126 264.928 125.232 265.18 124.176 265.18ZM126.12 259.33V258.79C126.12 258.106 125.958 257.584 125.634 257.224C125.31 256.852 124.824 256.666 124.176 256.666C123.528 256.666 123.036 256.852 122.7 257.224C122.364 257.596 122.196 258.124 122.196 258.808V259.186L126.282 259.15L126.12 259.33ZM135.005 265.18C134.165 265.18 133.427 265.024 132.791 264.712C132.167 264.388 131.681 263.938 131.333 263.362C130.985 262.774 130.811 262.084 130.811 261.292V258.808C130.811 258.004 130.985 257.314 131.333 256.738C131.681 256.162 132.167 255.718 132.791 255.406C133.427 255.082 134.165 254.92 135.005 254.92C136.253 254.92 137.249 255.244 137.993 255.892C138.737 256.528 139.127 257.398 139.163 258.502H136.913C136.877 257.986 136.691 257.59 136.355 257.314C136.031 257.026 135.581 256.882 135.005 256.882C134.405 256.882 133.931 257.05 133.583 257.386C133.235 257.71 133.061 258.178 133.061 258.79V261.292C133.061 261.904 133.235 262.378 133.583 262.714C133.931 263.05 134.405 263.218 135.005 263.218C135.581 263.218 136.031 263.08 136.355 262.804C136.691 262.516 136.877 262.114 136.913 261.598H139.163C139.127 262.702 138.737 263.578 137.993 264.226C137.249 264.862 136.253 265.18 135.005 265.18ZM146.824 265C145.876 265 145.132 264.736 144.592 264.208C144.064 263.68 143.8 262.954 143.8 262.03V257.134H141.118V255.1H143.8V252.31H146.068V255.1H149.866V257.134H146.068V262.03C146.068 262.654 146.374 262.966 146.986 262.966H149.686V265H146.824ZM156.555 265.18C155.715 265.18 154.983 265.018 154.359 264.694C153.735 264.37 153.249 263.92 152.901 263.344C152.565 262.756 152.397 262.072 152.397 261.292V258.808C152.397 258.028 152.565 257.35 152.901 256.774C153.249 256.186 153.735 255.73 154.359 255.406C154.983 255.082 155.715 254.92 156.555 254.92C157.383 254.92 158.103 255.082 158.715 255.406C159.339 255.73 159.819 256.186 160.155 256.774C160.503 257.35 160.677 258.028 160.677 258.808V260.59H154.575V261.292C154.575 261.988 154.743 262.516 155.079 262.876C155.415 263.224 155.913 263.398 156.573 263.398C157.077 263.398 157.485 263.314 157.797 263.146C158.109 262.966 158.307 262.708 158.391 262.372H160.605C160.437 263.224 159.981 263.908 159.237 264.424C158.505 264.928 157.611 265.18 156.555 265.18ZM158.499 259.33V258.79C158.499 258.106 158.337 257.584 158.013 257.224C157.689 256.852 157.203 256.666 156.555 256.666C155.907 256.666 155.415 256.852 155.079 257.224C154.743 257.596 154.575 258.124 154.575 258.808V259.186L158.661 259.15L158.499 259.33ZM166.484 265.18C165.5 265.18 164.702 264.838 164.09 264.154C163.49 263.47 163.19 262.552 163.19 261.4V258.718C163.19 257.554 163.49 256.63 164.09 255.946C164.69 255.262 165.488 254.92 166.484 254.92C167.3 254.92 167.948 255.154 168.428 255.622C168.908 256.078 169.148 256.708 169.148 257.512L168.644 256.99H169.166L169.094 254.632V251.86H171.344V265H169.148V263.11H168.644L169.148 262.588C169.148 263.392 168.908 264.028 168.428 264.496C167.948 264.952 167.3 265.18 166.484 265.18ZM167.276 263.236C167.852 263.236 168.296 263.068 168.608 262.732C168.932 262.384 169.094 261.904 169.094 261.292V258.808C169.094 258.196 168.932 257.722 168.608 257.386C168.296 257.038 167.852 256.864 167.276 256.864C166.7 256.864 166.25 257.032 165.926 257.368C165.602 257.704 165.44 258.184 165.44 258.808V261.292C165.44 261.916 165.602 262.396 165.926 262.732C166.25 263.068 166.7 263.236 167.276 263.236ZM178.123 257.944C177.619 257.944 177.211 257.806 176.899 257.53C176.599 257.242 176.449 256.876 176.449 256.432C176.449 255.976 176.599 255.61 176.899 255.334C177.211 255.058 177.619 254.92 178.123 254.92C178.627 254.92 179.029 255.058 179.329 255.334C179.641 255.61 179.797 255.976 179.797 256.432C179.797 256.876 179.641 257.242 179.329 257.53C179.029 257.806 178.627 257.944 178.123 257.944ZM178.123 265.18C177.619 265.18 177.211 265.042 176.899 264.766C176.599 264.49 176.449 264.124 176.449 263.668C176.449 263.212 176.599 262.846 176.899 262.57C177.211 262.294 177.619 262.156 178.123 262.156C178.627 262.156 179.029 262.294 179.329 262.57C179.641 262.846 179.797 263.212 179.797 263.668C179.797 264.124 179.641 264.49 179.329 264.766C179.029 265.042 178.627 265.18 178.123 265.18ZM189.996 265C189.048 265 188.304 264.736 187.764 264.208C187.236 263.68 186.972 262.954 186.972 262.03V257.134H184.29V255.1H186.972V252.31H189.24V255.1H193.038V257.134H189.24V262.03C189.24 262.654 189.546 262.966 190.158 262.966H192.858V265H189.996ZM199.727 265.18C198.887 265.18 198.155 265.018 197.531 264.694C196.907 264.37 196.421 263.92 196.073 263.344C195.737 262.756 195.569 262.072 195.569 261.292V258.808C195.569 258.028 195.737 257.35 196.073 256.774C196.421 256.186 196.907 255.73 197.531 255.406C198.155 255.082 198.887 254.92 199.727 254.92C200.555 254.92 201.275 255.082 201.887 255.406C202.511 255.73 202.991 256.186 203.327 256.774C203.675 257.35 203.849 258.028 203.849 258.808V260.59H197.747V261.292C197.747 261.988 197.915 262.516 198.251 262.876C198.587 263.224 199.085 263.398 199.745 263.398C200.249 263.398 200.657 263.314 200.969 263.146C201.281 262.966 201.479 262.708 201.563 262.372H203.777C203.609 263.224 203.153 263.908 202.409 264.424C201.677 264.928 200.783 265.18 199.727 265.18ZM201.671 259.33V258.79C201.671 258.106 201.509 257.584 201.185 257.224C200.861 256.852 200.375 256.666 199.727 256.666C199.079 256.666 198.587 256.852 198.251 257.224C197.915 257.596 197.747 258.124 197.747 258.808V259.186L201.833 259.15L201.671 259.33ZM210.124 265.162C209.368 265.162 208.708 265.042 208.144 264.802C207.58 264.562 207.136 264.232 206.812 263.812C206.5 263.38 206.332 262.876 206.308 262.3H208.558C208.582 262.612 208.732 262.864 209.008 263.056C209.296 263.248 209.668 263.344 210.124 263.344H210.916C211.468 263.344 211.882 263.236 212.158 263.02C212.434 262.804 212.572 262.51 212.572 262.138C212.572 261.79 212.446 261.52 212.194 261.328C211.954 261.124 211.576 260.992 211.06 260.932L209.836 260.752C208.708 260.596 207.88 260.296 207.352 259.852C206.824 259.408 206.56 258.742 206.56 257.854C206.56 256.93 206.872 256.216 207.496 255.712C208.12 255.196 209.038 254.938 210.25 254.938H210.934C212.038 254.938 212.92 255.184 213.58 255.676C214.24 256.168 214.594 256.828 214.642 257.656H212.392C212.356 257.392 212.206 257.176 211.942 257.008C211.69 256.84 211.354 256.756 210.934 256.756H210.25C209.734 256.756 209.356 256.852 209.116 257.044C208.888 257.224 208.774 257.494 208.774 257.854C208.774 258.19 208.876 258.442 209.08 258.61C209.284 258.766 209.614 258.88 210.07 258.952L211.348 259.132C212.524 259.3 213.388 259.618 213.94 260.086C214.504 260.542 214.786 261.22 214.786 262.12C214.786 263.08 214.456 263.83 213.796 264.37C213.148 264.898 212.188 265.162 210.916 265.162H210.124ZM222.375 265C221.427 265 220.683 264.736 220.143 264.208C219.615 263.68 219.351 262.954 219.351 262.03V257.134H216.669V255.1H219.351V252.31H221.619V255.1H225.417V257.134H221.619V262.03C221.619 262.654 221.925 262.966 222.537 262.966H225.237V265H222.375Z"
    fill="#47BC99" />
  <path d="M39.4688 286.438L45.4688 292.438L39.4688 298.438" stroke="#94A3B8" stroke-width="1.5"
    stroke-linecap="round" stroke-linejoin="round" />
  <path
    d="M55.386 299V289.1H57.582V290.99H58.194L57.582 291.512C57.582 290.696 57.816 290.06 58.284 289.604C58.764 289.148 59.418 288.92 60.246 288.92C61.218 288.92 61.992 289.244 62.568 289.892C63.156 290.54 63.45 291.41 63.45 292.502V299H61.2V292.736C61.2 292.136 61.044 291.674 60.732 291.35C60.42 291.026 59.982 290.864 59.418 290.864C58.866 290.864 58.428 291.032 58.104 291.368C57.792 291.704 57.636 292.184 57.636 292.808V299H55.386ZM65.441 299L68.897 293.888L65.675 289.1H68.213L69.743 291.53C69.839 291.674 69.923 291.836 69.995 292.016C70.079 292.196 70.145 292.34 70.193 292.448C70.241 292.34 70.307 292.196 70.391 292.016C70.4676 291.85 70.5517 291.688 70.643 291.53L72.191 289.1H74.729L71.507 293.888L74.945 299H72.389L70.679 296.282C70.5794 296.119 70.4892 295.951 70.409 295.778C70.325 295.598 70.253 295.454 70.193 295.346C70.145 295.454 70.079 295.598 69.995 295.778C69.911 295.958 69.821 296.126 69.725 296.282L67.979 299H65.441ZM90.6809 299.18C89.6609 299.18 88.8569 298.91 88.2689 298.37C87.6809 297.83 87.3869 297.104 87.3869 296.192C87.3869 295.22 87.7109 294.47 88.3589 293.942C89.0069 293.414 89.9249 293.15 91.1129 293.15H93.5789V292.304C93.5789 291.824 93.4229 291.452 93.1109 291.188C92.7989 290.912 92.3729 290.774 91.8329 290.774C91.3409 290.774 90.9329 290.882 90.6089 291.098C90.2849 291.314 90.0929 291.608 90.0329 291.98H87.8369C87.9449 291.044 88.3649 290.3 89.0969 289.748C89.8289 289.196 90.7649 288.92 91.9049 288.92C93.1169 288.92 94.0709 289.226 94.7669 289.838C95.4749 290.438 95.8289 291.254 95.8289 292.286V299H93.6509V297.272H93.2909L93.6509 296.786C93.6509 297.518 93.3809 298.1 92.8409 298.532C92.3009 298.964 91.5809 299.18 90.6809 299.18ZM91.4189 297.488C92.0549 297.488 92.5709 297.326 92.9669 297.002C93.3749 296.678 93.5789 296.258 93.5789 295.742V294.536H91.1489C90.6929 294.536 90.3269 294.668 90.0509 294.932C89.7749 295.196 89.6369 295.544 89.6369 295.976C89.6369 296.444 89.7929 296.816 90.1049 297.092C90.4289 297.356 90.8669 297.488 91.4189 297.488ZM100.862 299V292.232H98.1439V290.198H100.862V288.704C100.862 287.84 101.15 287.15 101.726 286.634C102.302 286.118 103.064 285.86 104.012 285.86H106.91V287.84H104.066C103.778 287.84 103.544 287.924 103.364 288.092C103.196 288.248 103.112 288.464 103.112 288.74V290.198H106.91V292.232H103.112V299H100.862ZM111.655 299V292.232H108.937V290.198H111.655V288.704C111.655 287.84 111.943 287.15 112.519 286.634C113.095 286.118 113.857 285.86 114.805 285.86H117.703V287.84H114.859C114.571 287.84 114.337 287.924 114.157 288.092C113.989 288.248 113.905 288.464 113.905 288.74V290.198H117.703V292.232H113.905V299H111.655ZM124.176 299.18C123.336 299.18 122.604 299.018 121.98 298.694C121.356 298.37 120.87 297.92 120.522 297.344C120.186 296.756 120.018 296.072 120.018 295.292V292.808C120.018 292.028 120.186 291.35 120.522 290.774C120.87 290.186 121.356 289.73 121.98 289.406C122.604 289.082 123.336 288.92 124.176 288.92C125.004 288.92 125.724 289.082 126.336 289.406C126.96 289.73 127.44 290.186 127.776 290.774C128.124 291.35 128.298 292.028 128.298 292.808V294.59H122.196V295.292C122.196 295.988 122.364 296.516 122.7 296.876C123.036 297.224 123.534 297.398 124.194 297.398C124.698 297.398 125.106 297.314 125.418 297.146C125.73 296.966 125.928 296.708 126.012 296.372H128.226C128.058 297.224 127.602 297.908 126.858 298.424C126.126 298.928 125.232 299.18 124.176 299.18ZM126.12 293.33V292.79C126.12 292.106 125.958 291.584 125.634 291.224C125.31 290.852 124.824 290.666 124.176 290.666C123.528 290.666 123.036 290.852 122.7 291.224C122.364 291.596 122.196 292.124 122.196 292.808V293.186L126.282 293.15L126.12 293.33ZM135.005 299.18C134.165 299.18 133.427 299.024 132.791 298.712C132.167 298.388 131.681 297.938 131.333 297.362C130.985 296.774 130.811 296.084 130.811 295.292V292.808C130.811 292.004 130.985 291.314 131.333 290.738C131.681 290.162 132.167 289.718 132.791 289.406C133.427 289.082 134.165 288.92 135.005 288.92C136.253 288.92 137.249 289.244 137.993 289.892C138.737 290.528 139.127 291.398 139.163 292.502H136.913C136.877 291.986 136.691 291.59 136.355 291.314C136.031 291.026 135.581 290.882 135.005 290.882C134.405 290.882 133.931 291.05 133.583 291.386C133.235 291.71 133.061 292.178 133.061 292.79V295.292C133.061 295.904 133.235 296.378 133.583 296.714C133.931 297.05 134.405 297.218 135.005 297.218C135.581 297.218 136.031 297.08 136.355 296.804C136.691 296.516 136.877 296.114 136.913 295.598H139.163C139.127 296.702 138.737 297.578 137.993 298.226C137.249 298.862 136.253 299.18 135.005 299.18ZM146.824 299C145.876 299 145.132 298.736 144.592 298.208C144.064 297.68 143.8 296.954 143.8 296.03V291.134H141.118V289.1H143.8V286.31H146.068V289.1H149.866V291.134H146.068V296.03C146.068 296.654 146.374 296.966 146.986 296.966H149.686V299H146.824ZM156.555 299.18C155.715 299.18 154.983 299.018 154.359 298.694C153.735 298.37 153.249 297.92 152.901 297.344C152.565 296.756 152.397 296.072 152.397 295.292V292.808C152.397 292.028 152.565 291.35 152.901 290.774C153.249 290.186 153.735 289.73 154.359 289.406C154.983 289.082 155.715 288.92 156.555 288.92C157.383 288.92 158.103 289.082 158.715 289.406C159.339 289.73 159.819 290.186 160.155 290.774C160.503 291.35 160.677 292.028 160.677 292.808V294.59H154.575V295.292C154.575 295.988 154.743 296.516 155.079 296.876C155.415 297.224 155.913 297.398 156.573 297.398C157.077 297.398 157.485 297.314 157.797 297.146C158.109 296.966 158.307 296.708 158.391 296.372H160.605C160.437 297.224 159.981 297.908 159.237 298.424C158.505 298.928 157.611 299.18 156.555 299.18ZM158.499 293.33V292.79C158.499 292.106 158.337 291.584 158.013 291.224C157.689 290.852 157.203 290.666 156.555 290.666C155.907 290.666 155.415 290.852 155.079 291.224C154.743 291.596 154.575 292.124 154.575 292.808V293.186L158.661 293.15L158.499 293.33ZM166.484 299.18C165.5 299.18 164.702 298.838 164.09 298.154C163.49 297.47 163.19 296.552 163.19 295.4V292.718C163.19 291.554 163.49 290.63 164.09 289.946C164.69 289.262 165.488 288.92 166.484 288.92C167.3 288.92 167.948 289.154 168.428 289.622C168.908 290.078 169.148 290.708 169.148 291.512L168.644 290.99H169.166L169.094 288.632V285.86H171.344V299H169.148V297.11H168.644L169.148 296.588C169.148 297.392 168.908 298.028 168.428 298.496C167.948 298.952 167.3 299.18 166.484 299.18ZM167.276 297.236C167.852 297.236 168.296 297.068 168.608 296.732C168.932 296.384 169.094 295.904 169.094 295.292V292.808C169.094 292.196 168.932 291.722 168.608 291.386C168.296 291.038 167.852 290.864 167.276 290.864C166.7 290.864 166.25 291.032 165.926 291.368C165.602 291.704 165.44 292.184 165.44 292.808V295.292C165.44 295.916 165.602 296.396 165.926 296.732C166.25 297.068 166.7 297.236 167.276 297.236ZM178.123 291.944C177.619 291.944 177.211 291.806 176.899 291.53C176.599 291.242 176.449 290.876 176.449 290.432C176.449 289.976 176.599 289.61 176.899 289.334C177.211 289.058 177.619 288.92 178.123 288.92C178.627 288.92 179.029 289.058 179.329 289.334C179.641 289.61 179.797 289.976 179.797 290.432C179.797 290.876 179.641 291.242 179.329 291.53C179.029 291.806 178.627 291.944 178.123 291.944ZM178.123 299.18C177.619 299.18 177.211 299.042 176.899 298.766C176.599 298.49 176.449 298.124 176.449 297.668C176.449 297.212 176.599 296.846 176.899 296.57C177.211 296.294 177.619 296.156 178.123 296.156C178.627 296.156 179.029 296.294 179.329 296.57C179.641 296.846 179.797 297.212 179.797 297.668C179.797 298.124 179.641 298.49 179.329 298.766C179.029 299.042 178.627 299.18 178.123 299.18ZM190.428 299C189.78 299 189.21 298.868 188.718 298.604C188.238 298.34 187.86 297.968 187.584 297.488C187.308 296.996 187.17 296.432 187.17 295.796V287.894H184.002V285.86H189.42V295.796C189.42 296.156 189.522 296.444 189.726 296.66C189.942 296.864 190.23 296.966 190.59 296.966H193.578V299H190.428ZM195.677 299V296.948H199.133V291.134H196.127V289.1H201.293V296.948H204.353V299H195.677ZM200.033 287.444C199.577 287.444 199.217 287.33 198.953 287.102C198.689 286.862 198.557 286.544 198.557 286.148C198.557 285.752 198.689 285.44 198.953 285.212C199.217 284.972 199.577 284.852 200.033 284.852C200.489 284.852 200.849 284.972 201.113 285.212C201.377 285.44 201.509 285.752 201.509 286.148C201.509 286.544 201.377 286.862 201.113 287.102C200.849 287.33 200.489 287.444 200.033 287.444ZM206.488 299V289.1H208.684V290.99H209.296L208.684 291.512C208.684 290.696 208.918 290.06 209.386 289.604C209.866 289.148 210.52 288.92 211.348 288.92C212.32 288.92 213.094 289.244 213.67 289.892C214.258 290.54 214.552 291.41 214.552 292.502V299H212.302V292.736C212.302 292.136 212.146 291.674 211.834 291.35C211.522 291.026 211.084 290.864 210.52 290.864C209.968 290.864 209.53 291.032 209.206 291.368C208.894 291.704 208.738 292.184 208.738 292.808V299H206.488ZM222.375 299C221.427 299 220.683 298.736 220.143 298.208C219.615 297.68 219.351 296.954 219.351 296.03V291.134H216.669V289.1H219.351V286.31H221.619V289.1H225.417V291.134H221.619V296.03C221.619 296.654 221.925 296.966 222.537 296.966H225.237V299H222.375Z"
    fill="#D946EF" />
  <path d="M39.4688 320.438L45.4688 326.438L39.4688 332.438" stroke="#94A3B8" stroke-width="1.5"
    stroke-linecap="round" stroke-linejoin="round" />
  <path
    d="M55.386 333V323.1H57.582V324.99H58.194L57.582 325.512C57.582 324.696 57.816 324.06 58.284 323.604C58.764 323.148 59.418 322.92 60.246 322.92C61.218 322.92 61.992 323.244 62.568 323.892C63.156 324.54 63.45 325.41 63.45 326.502V333H61.2V326.736C61.2 326.136 61.044 325.674 60.732 325.35C60.42 325.026 59.982 324.864 59.418 324.864C58.866 324.864 58.428 325.032 58.104 325.368C57.792 325.704 57.636 326.184 57.636 326.808V333H55.386ZM65.441 333L68.897 327.888L65.675 323.1H68.213L69.743 325.53C69.839 325.674 69.923 325.836 69.995 326.016C70.079 326.196 70.145 326.34 70.193 326.448C70.241 326.34 70.307 326.196 70.391 326.016C70.4676 325.85 70.5517 325.688 70.643 325.53L72.191 323.1H74.729L71.507 327.888L74.945 333H72.389L70.679 330.282C70.5794 330.119 70.4892 329.951 70.409 329.778C70.325 329.598 70.253 329.454 70.193 329.346C70.145 329.454 70.079 329.598 69.995 329.778C69.911 329.958 69.821 330.126 69.725 330.282L67.979 333H65.441ZM90.6809 333.18C89.6609 333.18 88.8569 332.91 88.2689 332.37C87.6809 331.83 87.3869 331.104 87.3869 330.192C87.3869 329.22 87.7109 328.47 88.3589 327.942C89.0069 327.414 89.9249 327.15 91.1129 327.15H93.5789V326.304C93.5789 325.824 93.4229 325.452 93.1109 325.188C92.7989 324.912 92.3729 324.774 91.8329 324.774C91.3409 324.774 90.9329 324.882 90.6089 325.098C90.2849 325.314 90.0929 325.608 90.0329 325.98H87.8369C87.9449 325.044 88.3649 324.3 89.0969 323.748C89.8289 323.196 90.7649 322.92 91.9049 322.92C93.1169 322.92 94.0709 323.226 94.7669 323.838C95.4749 324.438 95.8289 325.254 95.8289 326.286V333H93.6509V331.272H93.2909L93.6509 330.786C93.6509 331.518 93.3809 332.1 92.8409 332.532C92.3009 332.964 91.5809 333.18 90.6809 333.18ZM91.4189 331.488C92.0549 331.488 92.5709 331.326 92.9669 331.002C93.3749 330.678 93.5789 330.258 93.5789 329.742V328.536H91.1489C90.6929 328.536 90.3269 328.668 90.0509 328.932C89.7749 329.196 89.6369 329.544 89.6369 329.976C89.6369 330.444 89.7929 330.816 90.1049 331.092C90.4289 331.356 90.8669 331.488 91.4189 331.488ZM100.862 333V326.232H98.1439V324.198H100.862V322.704C100.862 321.84 101.15 321.15 101.726 320.634C102.302 320.118 103.064 319.86 104.012 319.86H106.91V321.84H104.066C103.778 321.84 103.544 321.924 103.364 322.092C103.196 322.248 103.112 322.464 103.112 322.74V324.198H106.91V326.232H103.112V333H100.862ZM111.655 333V326.232H108.937V324.198H111.655V322.704C111.655 321.84 111.943 321.15 112.519 320.634C113.095 320.118 113.857 319.86 114.805 319.86H117.703V321.84H114.859C114.571 321.84 114.337 321.924 114.157 322.092C113.989 322.248 113.905 322.464 113.905 322.74V324.198H117.703V326.232H113.905V333H111.655ZM124.176 333.18C123.336 333.18 122.604 333.018 121.98 332.694C121.356 332.37 120.87 331.92 120.522 331.344C120.186 330.756 120.018 330.072 120.018 329.292V326.808C120.018 326.028 120.186 325.35 120.522 324.774C120.87 324.186 121.356 323.73 121.98 323.406C122.604 323.082 123.336 322.92 124.176 322.92C125.004 322.92 125.724 323.082 126.336 323.406C126.96 323.73 127.44 324.186 127.776 324.774C128.124 325.35 128.298 326.028 128.298 326.808V328.59H122.196V329.292C122.196 329.988 122.364 330.516 122.7 330.876C123.036 331.224 123.534 331.398 124.194 331.398C124.698 331.398 125.106 331.314 125.418 331.146C125.73 330.966 125.928 330.708 126.012 330.372H128.226C128.058 331.224 127.602 331.908 126.858 332.424C126.126 332.928 125.232 333.18 124.176 333.18ZM126.12 327.33V326.79C126.12 326.106 125.958 325.584 125.634 325.224C125.31 324.852 124.824 324.666 124.176 324.666C123.528 324.666 123.036 324.852 122.7 325.224C122.364 325.596 122.196 326.124 122.196 326.808V327.186L126.282 327.15L126.12 327.33ZM135.005 333.18C134.165 333.18 133.427 333.024 132.791 332.712C132.167 332.388 131.681 331.938 131.333 331.362C130.985 330.774 130.811 330.084 130.811 329.292V326.808C130.811 326.004 130.985 325.314 131.333 324.738C131.681 324.162 132.167 323.718 132.791 323.406C133.427 323.082 134.165 322.92 135.005 322.92C136.253 322.92 137.249 323.244 137.993 323.892C138.737 324.528 139.127 325.398 139.163 326.502H136.913C136.877 325.986 136.691 325.59 136.355 325.314C136.031 325.026 135.581 324.882 135.005 324.882C134.405 324.882 133.931 325.05 133.583 325.386C133.235 325.71 133.061 326.178 133.061 326.79V329.292C133.061 329.904 133.235 330.378 133.583 330.714C133.931 331.05 134.405 331.218 135.005 331.218C135.581 331.218 136.031 331.08 136.355 330.804C136.691 330.516 136.877 330.114 136.913 329.598H139.163C139.127 330.702 138.737 331.578 137.993 332.226C137.249 332.862 136.253 333.18 135.005 333.18ZM146.824 333C145.876 333 145.132 332.736 144.592 332.208C144.064 331.68 143.8 330.954 143.8 330.03V325.134H141.118V323.1H143.8V320.31H146.068V323.1H149.866V325.134H146.068V330.03C146.068 330.654 146.374 330.966 146.986 330.966H149.686V333H146.824ZM156.555 333.18C155.715 333.18 154.983 333.018 154.359 332.694C153.735 332.37 153.249 331.92 152.901 331.344C152.565 330.756 152.397 330.072 152.397 329.292V326.808C152.397 326.028 152.565 325.35 152.901 324.774C153.249 324.186 153.735 323.73 154.359 323.406C154.983 323.082 155.715 322.92 156.555 322.92C157.383 322.92 158.103 323.082 158.715 323.406C159.339 323.73 159.819 324.186 160.155 324.774C160.503 325.35 160.677 326.028 160.677 326.808V328.59H154.575V329.292C154.575 329.988 154.743 330.516 155.079 330.876C155.415 331.224 155.913 331.398 156.573 331.398C157.077 331.398 157.485 331.314 157.797 331.146C158.109 330.966 158.307 330.708 158.391 330.372H160.605C160.437 331.224 159.981 331.908 159.237 332.424C158.505 332.928 157.611 333.18 156.555 333.18ZM158.499 327.33V326.79C158.499 326.106 158.337 325.584 158.013 325.224C157.689 324.852 157.203 324.666 156.555 324.666C155.907 324.666 155.415 324.852 155.079 325.224C154.743 325.596 154.575 326.124 154.575 326.808V327.186L158.661 327.15L158.499 327.33ZM166.484 333.18C165.5 333.18 164.702 332.838 164.09 332.154C163.49 331.47 163.19 330.552 163.19 329.4V326.718C163.19 325.554 163.49 324.63 164.09 323.946C164.69 323.262 165.488 322.92 166.484 322.92C167.3 322.92 167.948 323.154 168.428 323.622C168.908 324.078 169.148 324.708 169.148 325.512L168.644 324.99H169.166L169.094 322.632V319.86H171.344V333H169.148V331.11H168.644L169.148 330.588C169.148 331.392 168.908 332.028 168.428 332.496C167.948 332.952 167.3 333.18 166.484 333.18ZM167.276 331.236C167.852 331.236 168.296 331.068 168.608 330.732C168.932 330.384 169.094 329.904 169.094 329.292V326.808C169.094 326.196 168.932 325.722 168.608 325.386C168.296 325.038 167.852 324.864 167.276 324.864C166.7 324.864 166.25 325.032 165.926 325.368C165.602 325.704 165.44 326.184 165.44 326.808V329.292C165.44 329.916 165.602 330.396 165.926 330.732C166.25 331.068 166.7 331.236 167.276 331.236ZM178.123 325.944C177.619 325.944 177.211 325.806 176.899 325.53C176.599 325.242 176.449 324.876 176.449 324.432C176.449 323.976 176.599 323.61 176.899 323.334C177.211 323.058 177.619 322.92 178.123 322.92C178.627 322.92 179.029 323.058 179.329 323.334C179.641 323.61 179.797 323.976 179.797 324.432C179.797 324.876 179.641 325.242 179.329 325.53C179.029 325.806 178.627 325.944 178.123 325.944ZM178.123 333.18C177.619 333.18 177.211 333.042 176.899 332.766C176.599 332.49 176.449 332.124 176.449 331.668C176.449 331.212 176.599 330.846 176.899 330.57C177.211 330.294 177.619 330.156 178.123 330.156C178.627 330.156 179.029 330.294 179.329 330.57C179.641 330.846 179.797 331.212 179.797 331.668C179.797 332.124 179.641 332.49 179.329 332.766C179.029 333.042 178.627 333.18 178.123 333.18ZM188.934 333.18C188.094 333.18 187.362 333.018 186.738 332.694C186.114 332.37 185.628 331.92 185.28 331.344C184.944 330.756 184.776 330.072 184.776 329.292V326.808C184.776 326.028 184.944 325.35 185.28 324.774C185.628 324.186 186.114 323.73 186.738 323.406C187.362 323.082 188.094 322.92 188.934 322.92C189.762 322.92 190.482 323.082 191.094 323.406C191.718 323.73 192.198 324.186 192.534 324.774C192.882 325.35 193.056 326.028 193.056 326.808V328.59H186.954V329.292C186.954 329.988 187.122 330.516 187.458 330.876C187.794 331.224 188.292 331.398 188.952 331.398C189.456 331.398 189.864 331.314 190.176 331.146C190.488 330.966 190.686 330.708 190.77 330.372H192.984C192.816 331.224 192.36 331.908 191.616 332.424C190.884 332.928 189.99 333.18 188.934 333.18ZM190.878 327.33V326.79C190.878 326.106 190.716 325.584 190.392 325.224C190.068 324.852 189.582 324.666 188.934 324.666C188.286 324.666 187.794 324.852 187.458 325.224C187.122 325.596 186.954 326.124 186.954 326.808V327.186L191.04 327.15L190.878 327.33ZM195.731 333V330.822L199.835 326.7C200.411 326.112 200.837 325.584 201.113 325.116C201.389 324.636 201.527 324.144 201.527 323.64C201.527 323.028 201.359 322.554 201.023 322.218C200.687 321.87 200.231 321.696 199.655 321.696C199.019 321.696 198.521 321.882 198.161 322.254C197.801 322.614 197.621 323.118 197.621 323.766H195.371C195.383 322.926 195.563 322.206 195.911 321.606C196.271 320.994 196.775 320.52 197.423 320.184C198.071 319.848 198.827 319.68 199.691 319.68C200.519 319.68 201.239 319.836 201.851 320.148C202.463 320.46 202.937 320.898 203.273 321.462C203.609 322.026 203.777 322.698 203.777 323.478C203.777 324.282 203.567 325.068 203.147 325.836C202.739 326.592 202.079 327.408 201.167 328.284L198.431 330.966H203.939V333H195.731ZM210.52 333.18C209.68 333.18 208.948 333.018 208.324 332.694C207.7 332.37 207.214 331.92 206.866 331.344C206.53 330.756 206.362 330.072 206.362 329.292V326.808C206.362 326.028 206.53 325.35 206.866 324.774C207.214 324.186 207.7 323.73 208.324 323.406C208.948 323.082 209.68 322.92 210.52 322.92C211.348 322.92 212.068 323.082 212.68 323.406C213.304 323.73 213.784 324.186 214.12 324.774C214.468 325.35 214.642 326.028 214.642 326.808V328.59H208.54V329.292C208.54 329.988 208.708 330.516 209.044 330.876C209.38 331.224 209.878 331.398 210.538 331.398C211.042 331.398 211.45 331.314 211.762 331.146C212.074 330.966 212.272 330.708 212.356 330.372H214.57C214.402 331.224 213.946 331.908 213.202 332.424C212.47 332.928 211.576 333.18 210.52 333.18ZM212.464 327.33V326.79C212.464 326.106 212.302 325.584 211.978 325.224C211.654 324.852 211.168 324.666 210.52 324.666C209.872 324.666 209.38 324.852 209.044 325.224C208.708 325.596 208.54 326.124 208.54 326.808V327.186L212.626 327.15L212.464 327.33Z"
    fill="#EF4444" />
  <g filter="url(#filter0_d_0_1)">
    <path
      d="M319 208H277C274.791 208 273 209.791 273 212V227C273 229.209 274.791 231 277 231H319C321.209 231 323 229.209 323 227V212C323 209.791 321.209 208 319 208Z"
      fill="#475569" fill-opacity="0.4" />
    <path
      d="M310.773 217H309.364C309.28 216.595 309.134 216.239 308.926 215.932C308.722 215.625 308.472 215.367 308.176 215.159C307.884 214.947 307.561 214.788 307.205 214.682C306.848 214.576 306.477 214.523 306.091 214.523C305.386 214.523 304.748 214.701 304.176 215.057C303.608 215.413 303.155 215.938 302.818 216.631C302.485 217.324 302.318 218.174 302.318 219.182C302.318 220.189 302.485 221.04 302.818 221.733C303.155 222.426 303.608 222.951 304.176 223.307C304.748 223.663 305.386 223.841 306.091 223.841C306.477 223.841 306.848 223.788 307.205 223.682C307.561 223.576 307.884 223.419 308.176 223.21C308.471 222.999 308.726 222.735 308.926 222.432C309.134 222.121 309.28 221.765 309.364 221.364H310.773C310.667 221.958 310.473 222.491 310.193 222.96C309.913 223.43 309.564 223.83 309.148 224.159C308.731 224.485 308.263 224.733 307.744 224.903C307.229 225.074 306.678 225.159 306.091 225.159C305.098 225.159 304.216 224.917 303.443 224.432C302.67 223.947 302.063 223.258 301.619 222.364C301.176 221.47 300.955 220.409 300.955 219.182C300.955 217.955 301.176 216.894 301.619 216C302.063 215.106 302.67 214.417 303.443 213.932C304.216 213.447 305.098 213.205 306.091 213.205C306.678 213.205 307.229 213.29 307.744 213.46C308.263 213.631 308.731 213.881 309.148 214.21C309.564 214.536 309.913 214.934 310.193 215.403C310.473 215.869 310.667 216.402 310.773 217ZM314.459 213.364V225H313.05V213.364H314.459Z"
      fill="white" />
    <path
      d="M283 223.5V224.171C283 224.434 282.948 224.694 282.848 224.937C282.747 225.18 282.6 225.4 282.414 225.586L282 226H288L287.586 225.586C287.4 225.4 287.253 225.18 287.152 224.937C287.052 224.694 287 224.434 287 224.171V223.5M291 215.5V222C291 222.398 290.842 222.779 290.561 223.061C290.279 223.342 289.898 223.5 289.5 223.5H280.5C280.102 223.5 279.721 223.342 279.439 223.061C279.158 222.779 279 222.398 279 222V215.5M291 215.5C291 215.102 290.842 214.721 290.561 214.439C290.279 214.158 289.898 214 289.5 214H280.5C280.102 214 279.721 214.158 279.439 214.439C279.158 214.721 279 215.102 279 215.5M291 215.5V220C291 220.398 290.842 220.779 290.561 221.061C290.279 221.342 289.898 221.5 289.5 221.5H280.5C280.102 221.5 279.721 221.342 279.439 221.061C279.158 220.779 279 220.398 279 220V215.5"
      stroke="white" stroke-linecap="round" stroke-linejoin="round" />
  </g>
  <mask id="mask0_0_1" style="mask-type:luminance" maskUnits="userSpaceOnUse" x="485" y="258"
    width="36" height="36">
    <path d="M521 258H485V294H521V258Z" fill="white" />
  </mask>
  <g mask="url(#mask0_0_1)">
    <path
      d="M519.5 263.625V267.75C514.946 267.75 511.25 271.446 511.25 276C511.25 280.554 507.554 284.25 503 284.25C498.446 284.25 494.75 287.946 494.75 292.5H490.625C488.348 292.5 486.5 290.652 486.5 288.375V263.625C486.5 261.348 488.348 259.5 490.625 259.5H515.375C517.652 259.5 519.5 261.348 519.5 263.625Z"
      stroke="white" stroke-width="3" />
    <path
      d="M519.5 267V288.25C519.5 290.596 517.596 292.5 515.25 292.5H494C494 287.808 497.808 284 502.5 284C507.192 284 511 280.192 511 275.5C511 270.808 514.808 267 519.5 267Z"
      stroke="white" stroke-width="3" />
  </g>
  <path
    d="M556.273 263.727V287H553.545L540.864 268.727H540.636V287H537.818V263.727H540.545L553.273 282.045H553.5V263.727H556.273ZM563.548 269.545L567.73 276.682L571.912 269.545H575.003L569.366 278.273L575.003 287H571.912L567.73 280.227L563.548 287H560.457L566.003 278.273L560.457 269.545H563.548ZM606.92 271H604.102C603.936 270.189 603.644 269.477 603.227 268.864C602.818 268.25 602.318 267.735 601.727 267.318C601.144 266.894 600.496 266.576 599.784 266.364C599.072 266.152 598.33 266.045 597.557 266.045C596.148 266.045 594.871 266.402 593.727 267.114C592.591 267.826 591.686 268.875 591.011 270.261C590.345 271.648 590.011 273.348 590.011 275.364C590.011 277.379 590.345 279.08 591.011 280.466C591.686 281.852 592.591 282.902 593.727 283.614C594.871 284.326 596.148 284.682 597.557 284.682C598.33 284.682 599.072 284.576 599.784 284.364C600.496 284.152 601.144 283.837 601.727 283.42C602.318 282.996 602.818 282.477 603.227 281.864C603.644 281.242 603.936 280.53 604.102 279.727H606.92C606.708 280.917 606.322 281.981 605.761 282.92C605.201 283.86 604.504 284.659 603.67 285.318C602.837 285.97 601.902 286.466 600.864 286.807C599.833 287.148 598.731 287.318 597.557 287.318C595.572 287.318 593.807 286.833 592.261 285.864C590.716 284.894 589.5 283.515 588.614 281.727C587.727 279.939 587.284 277.818 587.284 275.364C587.284 272.909 587.727 270.788 588.614 269C589.5 267.212 590.716 265.833 592.261 264.864C593.807 263.894 595.572 263.409 597.557 263.409C598.731 263.409 599.833 263.58 600.864 263.92C601.902 264.261 602.837 264.761 603.67 265.42C604.504 266.072 605.201 266.867 605.761 267.807C606.322 268.739 606.708 269.803 606.92 271ZM613.793 263.727V287H611.111V263.727H613.793ZM625.795 287.364C624.22 287.364 622.837 286.989 621.648 286.239C620.466 285.489 619.542 284.439 618.875 283.091C618.216 281.742 617.886 280.167 617.886 278.364C617.886 276.545 618.216 274.958 618.875 273.602C619.542 272.246 620.466 271.193 621.648 270.443C622.837 269.693 624.22 269.318 625.795 269.318C627.371 269.318 628.75 269.693 629.932 270.443C631.121 271.193 632.045 272.246 632.705 273.602C633.371 274.958 633.705 276.545 633.705 278.364C633.705 280.167 633.371 281.742 632.705 283.091C632.045 284.439 631.121 285.489 629.932 286.239C628.75 286.989 627.371 287.364 625.795 287.364ZM625.795 284.955C626.992 284.955 627.977 284.648 628.75 284.034C629.523 283.42 630.095 282.614 630.466 281.614C630.837 280.614 631.023 279.53 631.023 278.364C631.023 277.197 630.837 276.11 630.466 275.102C630.095 274.095 629.523 273.28 628.75 272.659C627.977 272.038 626.992 271.727 625.795 271.727C624.598 271.727 623.614 272.038 622.841 272.659C622.068 273.28 621.496 274.095 621.125 275.102C620.754 276.11 620.568 277.197 620.568 278.364C620.568 279.53 620.754 280.614 621.125 281.614C621.496 282.614 622.068 283.42 622.841 284.034C623.614 284.648 624.598 284.955 625.795 284.955ZM648.798 279.864V269.545H651.48V287H648.798V284.045H648.616C648.207 284.932 647.571 285.686 646.707 286.307C645.844 286.92 644.753 287.227 643.435 287.227C642.344 287.227 641.374 286.989 640.526 286.511C639.677 286.027 639.01 285.299 638.526 284.33C638.041 283.352 637.798 282.121 637.798 280.636V269.545H640.48V280.455C640.48 281.727 640.836 282.742 641.548 283.5C642.268 284.258 643.185 284.636 644.298 284.636C644.965 284.636 645.643 284.466 646.332 284.125C647.029 283.784 647.613 283.261 648.082 282.557C648.56 281.852 648.798 280.955 648.798 279.864ZM662.983 287.364C661.528 287.364 660.244 286.996 659.131 286.261C658.017 285.519 657.146 284.473 656.517 283.125C655.888 281.769 655.574 280.167 655.574 278.318C655.574 276.485 655.888 274.894 656.517 273.545C657.146 272.197 658.021 271.155 659.142 270.42C660.263 269.686 661.559 269.318 663.028 269.318C664.165 269.318 665.063 269.508 665.722 269.886C666.388 270.258 666.896 270.682 667.244 271.159C667.6 271.629 667.877 272.015 668.074 272.318H668.301V263.727H670.983V287H668.392V284.318H668.074C667.877 284.636 667.597 285.038 667.233 285.523C666.869 286 666.35 286.428 665.676 286.807C665.002 287.178 664.104 287.364 662.983 287.364ZM663.347 284.955C664.422 284.955 665.331 284.674 666.074 284.114C666.816 283.545 667.381 282.761 667.767 281.761C668.153 280.754 668.347 279.591 668.347 278.273C668.347 276.97 668.157 275.83 667.778 274.852C667.4 273.867 666.839 273.102 666.097 272.557C665.354 272.004 664.438 271.727 663.347 271.727C662.21 271.727 661.263 272.019 660.506 272.602C659.756 273.178 659.191 273.962 658.812 274.955C658.441 275.939 658.256 277.045 658.256 278.273C658.256 279.515 658.445 280.644 658.824 281.659C659.21 282.667 659.778 283.47 660.528 284.068C661.286 284.659 662.225 284.955 663.347 284.955Z"
    fill="white" />
  <path
    d="M467.061 276.561C467.646 275.975 467.646 275.025 467.061 274.439L457.515 264.893C456.929 264.308 455.979 264.308 455.393 264.893C454.808 265.479 454.808 266.429 455.393 267.015L463.879 275.5L455.393 283.985C454.808 284.571 454.808 285.521 455.393 286.107C455.979 286.692 456.929 286.692 457.515 286.107L467.061 276.561ZM333 277H466V274H333V277Z"
    fill="#94A3B8" />
  <path
    d="M1233 70.5H902C897.306 70.5 893.5 74.3056 893.5 79V97C893.5 101.694 897.306 105.5 902 105.5H1233C1237.69 105.5 1241.5 101.694 1241.5 97V79C1241.5 74.3056 1237.69 70.5 1233 70.5Z"
    stroke="#94A3B8" stroke-opacity="0.2" />
  <path
    d="M967 75H905C902.791 75 901 76.7909 901 79V97C901 99.2091 902.791 101 905 101H967C969.209 101 971 99.2091 971 97V79C971 76.7909 969.209 75 967 75Z"
    fill="#FFC562" />
  <path
    d="M1093 75H977C974.791 75 973 76.7909 973 79V97C973 99.2091 974.791 101 977 101H1093C1095.21 101 1097 99.2091 1097 97V79C1097 76.7909 1095.21 75 1093 75Z"
    fill="#47BC99" />
  <g filter="url(#filter1_d_0_1)">
    <path
      d="M1231 77H1150C1147.79 77 1146 78.7909 1146 81V96C1146 98.2091 1147.79 100 1150 100H1231C1233.21 100 1235 98.2091 1235 96V81C1235 78.7909 1233.21 77 1231 77Z"
      fill="#475569" fill-opacity="0.4" />
    <path
      d="M1174.89 94H1173.41L1177.68 82.3636H1179.14L1183.41 94H1181.93L1178.45 84.2045H1178.36L1174.89 94ZM1175.43 89.4545H1181.39V90.7045H1175.43V89.4545ZM1188.56 97.4545C1187.91 97.4545 1187.36 97.3712 1186.89 97.2045C1186.43 97.0417 1186.04 96.8258 1185.73 96.5568C1185.42 96.2917 1185.18 96.0076 1184.99 95.7045L1186.06 94.9545C1186.18 95.1136 1186.34 95.2955 1186.52 95.5C1186.71 95.7083 1186.96 95.8883 1187.28 96.0398C1187.61 96.1951 1188.04 96.2727 1188.56 96.2727C1189.27 96.2727 1189.85 96.1023 1190.31 95.7614C1190.77 95.4205 1190.99 94.8864 1190.99 94.1591V92.3864H1190.88C1190.78 92.5455 1190.64 92.7424 1190.46 92.9773C1190.28 93.2083 1190.02 93.4148 1189.69 93.5966C1189.35 93.7746 1188.9 93.8636 1188.34 93.8636C1187.63 93.8636 1187 93.697 1186.44 93.3636C1185.88 93.0303 1185.44 92.5455 1185.11 91.9091C1184.79 91.2727 1184.63 90.5 1184.63 89.5909C1184.63 88.697 1184.79 87.9186 1185.1 87.2557C1185.42 86.589 1185.85 86.0739 1186.41 85.7102C1186.98 85.3428 1187.62 85.1591 1188.36 85.1591C1188.93 85.1591 1189.38 85.2538 1189.71 85.4432C1190.05 85.6288 1190.3 85.8409 1190.48 86.0795C1190.66 86.3144 1190.8 86.5076 1190.9 86.6591H1191.04V85.2727H1192.34V94.25C1192.34 95 1192.16 95.6098 1191.82 96.0795C1191.49 96.553 1191.03 96.8996 1190.46 97.1193C1189.89 97.3428 1189.26 97.4545 1188.56 97.4545ZM1188.52 92.6591C1189.05 92.6591 1189.51 92.536 1189.88 92.2898C1190.25 92.0436 1190.53 91.6894 1190.73 91.2273C1190.92 90.7652 1191.02 90.2121 1191.02 89.5682C1191.02 88.9394 1190.92 88.3845 1190.73 87.9034C1190.54 87.4223 1190.26 87.0455 1189.89 86.7727C1189.52 86.5 1189.06 86.3636 1188.52 86.3636C1187.95 86.3636 1187.48 86.5076 1187.1 86.7955C1186.72 87.0833 1186.44 87.4697 1186.25 87.9545C1186.06 88.4394 1185.97 88.9773 1185.97 89.5682C1185.97 90.1742 1186.07 90.7102 1186.26 91.1761C1186.45 91.6383 1186.73 92.0019 1187.11 92.267C1187.49 92.5284 1187.96 92.6591 1188.52 92.6591ZM1198.45 94.1818C1197.61 94.1818 1196.88 93.9962 1196.27 93.625C1195.67 93.25 1195.2 92.7273 1194.87 92.0568C1194.54 91.3826 1194.38 90.5985 1194.38 89.7045C1194.38 88.8106 1194.54 88.0227 1194.87 87.3409C1195.2 86.6553 1195.66 86.1212 1196.24 85.7386C1196.84 85.3523 1197.52 85.1591 1198.31 85.1591C1198.77 85.1591 1199.22 85.2348 1199.66 85.3864C1200.1 85.5379 1200.51 85.7841 1200.87 86.125C1201.23 86.4621 1201.52 86.9091 1201.74 87.4659C1201.95 88.0227 1202.06 88.7083 1202.06 89.5227V90.0909H1195.34V88.9318H1200.7C1200.7 88.4394 1200.6 88 1200.4 87.6136C1200.21 87.2273 1199.93 86.9223 1199.57 86.6989C1199.22 86.4754 1198.8 86.3636 1198.31 86.3636C1197.78 86.3636 1197.32 86.4962 1196.93 86.7614C1196.54 87.0227 1196.24 87.3636 1196.03 87.7841C1195.83 88.2045 1195.72 88.6553 1195.72 89.1364V89.9091C1195.72 90.5682 1195.84 91.1269 1196.06 91.5852C1196.29 92.0398 1196.61 92.3864 1197.02 92.625C1197.43 92.8598 1197.91 92.9773 1198.45 92.9773C1198.8 92.9773 1199.12 92.928 1199.4 92.8295C1199.69 92.7273 1199.94 92.5758 1200.15 92.375C1200.36 92.1705 1200.52 91.9167 1200.63 91.6136L1201.93 91.9773C1201.79 92.4167 1201.56 92.803 1201.24 93.1364C1200.92 93.4659 1200.52 93.7235 1200.05 93.9091C1199.57 94.0909 1199.04 94.1818 1198.45 94.1818ZM1205.44 88.75V94H1204.1V85.2727H1205.4V86.6364H1205.51C1205.72 86.1932 1206.03 85.8371 1206.44 85.5682C1206.86 85.2955 1207.4 85.1591 1208.06 85.1591C1208.65 85.1591 1209.16 85.2803 1209.61 85.5227C1210.05 85.7614 1210.4 86.125 1210.64 86.6136C1210.89 87.0985 1211.01 87.7121 1211.01 88.4545V94H1209.67V88.5455C1209.67 87.8598 1209.49 87.3258 1209.14 86.9432C1208.78 86.5568 1208.29 86.3636 1207.67 86.3636C1207.24 86.3636 1206.86 86.4564 1206.52 86.642C1206.19 86.8277 1205.93 87.0985 1205.73 87.4545C1205.54 87.8106 1205.44 88.2424 1205.44 88.75ZM1217.26 85.2727V86.4091H1212.73V85.2727H1217.26ZM1214.05 83.1818H1215.39V91.5C1215.39 91.8788 1215.45 92.1629 1215.56 92.3523C1215.67 92.5379 1215.82 92.6629 1215.99 92.7273C1216.17 92.7879 1216.36 92.8182 1216.55 92.8182C1216.7 92.8182 1216.82 92.8106 1216.92 92.7955C1217.01 92.7765 1217.09 92.7614 1217.14 92.75L1217.42 93.9545C1217.33 93.9886 1217.2 94.0227 1217.04 94.0568C1216.87 94.0947 1216.67 94.1136 1216.42 94.1136C1216.04 94.1136 1215.67 94.0322 1215.3 93.8693C1214.94 93.7064 1214.64 93.4583 1214.4 93.125C1214.17 92.7917 1214.05 92.3712 1214.05 91.8636V83.1818ZM1227.84 82.3636V94H1226.43V83.8409H1226.37L1223.52 85.7273V84.2955L1226.43 82.3636H1227.84Z"
      fill="white" />
    <path
      d="M1156 92.5V93.1713C1156 93.4341 1155.95 93.6942 1155.85 93.937C1155.75 94.1797 1155.6 94.4002 1155.41 94.586L1155 95H1161L1160.59 94.586C1160.4 94.4018 1160.25 94.181 1160.15 93.937C1160.05 93.694 1160 93.4339 1160 93.1713V92.5M1164 84.5V91C1164 91.3978 1163.84 91.7794 1163.56 92.0607C1163.28 92.342 1162.9 92.5 1162.5 92.5H1153.5C1153.1 92.5 1152.72 92.342 1152.44 92.0607C1152.16 91.7791 1152 91.3978 1152 91V84.5M1164 84.5C1164 84.1022 1163.84 83.7206 1163.56 83.4393C1163.42 83.2998 1163.26 83.1891 1163.07 83.1137C1162.89 83.0383 1162.7 82.9997 1162.5 83H1153.5C1153.1 83 1152.72 83.158 1152.44 83.4393C1152.16 83.7206 1152 84.1022 1152 84.5M1164 84.5V89C1164 89.3978 1163.84 89.7794 1163.56 90.0607C1163.28 90.342 1162.9 90.5 1162.5 90.5H1153.5C1153.1 90.5 1152.72 90.342 1152.44 90.0607C1152.16 89.7791 1152 89.3978 1152 89V84.5"
      stroke="white" stroke-linecap="round" stroke-linejoin="round" />
  </g>
  <path
    d="M1233 195.5H902C897.306 195.5 893.5 199.306 893.5 204V222C893.5 226.694 897.306 230.5 902 230.5H1233C1237.69 230.5 1241.5 226.694 1241.5 222V204C1241.5 199.306 1237.69 195.5 1233 195.5Z"
    stroke="#94A3B8" stroke-opacity="0.2" />
  <g filter="url(#filter2_d_0_1)">
    <path
      d="M1231 202H1150C1147.79 202 1146 203.791 1146 206V221C1146 223.209 1147.79 225 1150 225H1231C1233.21 225 1235 223.209 1235 221V206C1235 203.791 1233.21 202 1231 202Z"
      fill="#475569" fill-opacity="0.4" />
    <path
      d="M1174.89 219H1173.41L1177.68 207.364H1179.14L1183.41 219H1181.93L1178.45 209.205H1178.36L1174.89 219ZM1175.43 214.455H1181.39V215.705H1175.43V214.455ZM1188.56 222.455C1187.91 222.455 1187.36 222.371 1186.89 222.205C1186.43 222.042 1186.04 221.826 1185.73 221.557C1185.42 221.292 1185.18 221.008 1184.99 220.705L1186.06 219.955C1186.18 220.114 1186.34 220.295 1186.52 220.5C1186.71 220.708 1186.96 220.888 1187.28 221.04C1187.61 221.195 1188.04 221.273 1188.56 221.273C1189.27 221.273 1189.85 221.102 1190.31 220.761C1190.77 220.42 1190.99 219.886 1190.99 219.159V217.386H1190.88C1190.78 217.545 1190.64 217.742 1190.46 217.977C1190.28 218.208 1190.02 218.415 1189.69 218.597C1189.35 218.775 1188.9 218.864 1188.34 218.864C1187.63 218.864 1187 218.697 1186.44 218.364C1185.88 218.03 1185.44 217.545 1185.11 216.909C1184.79 216.273 1184.63 215.5 1184.63 214.591C1184.63 213.697 1184.79 212.919 1185.1 212.256C1185.42 211.589 1185.85 211.074 1186.41 210.71C1186.98 210.343 1187.62 210.159 1188.36 210.159C1188.93 210.159 1189.38 210.254 1189.71 210.443C1190.05 210.629 1190.3 210.841 1190.48 211.08C1190.66 211.314 1190.8 211.508 1190.9 211.659H1191.04V210.273H1192.34V219.25C1192.34 220 1192.16 220.61 1191.82 221.08C1191.49 221.553 1191.03 221.9 1190.46 222.119C1189.89 222.343 1189.26 222.455 1188.56 222.455ZM1188.52 217.659C1189.05 217.659 1189.51 217.536 1189.88 217.29C1190.25 217.044 1190.53 216.689 1190.73 216.227C1190.92 215.765 1191.02 215.212 1191.02 214.568C1191.02 213.939 1190.92 213.384 1190.73 212.903C1190.54 212.422 1190.26 212.045 1189.89 211.773C1189.52 211.5 1189.06 211.364 1188.52 211.364C1187.95 211.364 1187.48 211.508 1187.1 211.795C1186.72 212.083 1186.44 212.47 1186.25 212.955C1186.06 213.439 1185.97 213.977 1185.97 214.568C1185.97 215.174 1186.07 215.71 1186.26 216.176C1186.45 216.638 1186.73 217.002 1187.11 217.267C1187.49 217.528 1187.96 217.659 1188.52 217.659ZM1198.45 219.182C1197.61 219.182 1196.88 218.996 1196.27 218.625C1195.67 218.25 1195.2 217.727 1194.87 217.057C1194.54 216.383 1194.38 215.598 1194.38 214.705C1194.38 213.811 1194.54 213.023 1194.87 212.341C1195.2 211.655 1195.66 211.121 1196.24 210.739C1196.84 210.352 1197.52 210.159 1198.31 210.159C1198.77 210.159 1199.22 210.235 1199.66 210.386C1200.1 210.538 1200.51 210.784 1200.87 211.125C1201.23 211.462 1201.52 211.909 1201.74 212.466C1201.95 213.023 1202.06 213.708 1202.06 214.523V215.091H1195.34V213.932H1200.7C1200.7 213.439 1200.6 213 1200.4 212.614C1200.21 212.227 1199.93 211.922 1199.57 211.699C1199.22 211.475 1198.8 211.364 1198.31 211.364C1197.78 211.364 1197.32 211.496 1196.93 211.761C1196.54 212.023 1196.24 212.364 1196.03 212.784C1195.83 213.205 1195.72 213.655 1195.72 214.136V214.909C1195.72 215.568 1195.84 216.127 1196.06 216.585C1196.29 217.04 1196.61 217.386 1197.02 217.625C1197.43 217.86 1197.91 217.977 1198.45 217.977C1198.8 217.977 1199.12 217.928 1199.4 217.83C1199.69 217.727 1199.94 217.576 1200.15 217.375C1200.36 217.17 1200.52 216.917 1200.63 216.614L1201.93 216.977C1201.79 217.417 1201.56 217.803 1201.24 218.136C1200.92 218.466 1200.52 218.723 1200.05 218.909C1199.57 219.091 1199.04 219.182 1198.45 219.182ZM1205.44 213.75V219H1204.1V210.273H1205.4V211.636H1205.51C1205.72 211.193 1206.03 210.837 1206.44 210.568C1206.86 210.295 1207.4 210.159 1208.06 210.159C1208.65 210.159 1209.16 210.28 1209.61 210.523C1210.05 210.761 1210.4 211.125 1210.64 211.614C1210.89 212.098 1211.01 212.712 1211.01 213.455V219H1209.67V213.545C1209.67 212.86 1209.49 212.326 1209.14 211.943C1208.78 211.557 1208.29 211.364 1207.67 211.364C1207.24 211.364 1206.86 211.456 1206.52 211.642C1206.19 211.828 1205.93 212.098 1205.73 212.455C1205.54 212.811 1205.44 213.242 1205.44 213.75ZM1217.26 210.273V211.409H1212.73V210.273H1217.26ZM1214.05 208.182H1215.39V216.5C1215.39 216.879 1215.45 217.163 1215.56 217.352C1215.67 217.538 1215.82 217.663 1215.99 217.727C1216.17 217.788 1216.36 217.818 1216.55 217.818C1216.7 217.818 1216.82 217.811 1216.92 217.795C1217.01 217.777 1217.09 217.761 1217.14 217.75L1217.42 218.955C1217.33 218.989 1217.2 219.023 1217.04 219.057C1216.87 219.095 1216.67 219.114 1216.42 219.114C1216.04 219.114 1215.67 219.032 1215.3 218.869C1214.94 218.706 1214.64 218.458 1214.4 218.125C1214.17 217.792 1214.05 217.371 1214.05 216.864V208.182ZM1223.75 219V217.977L1227.59 213.773C1228.04 213.28 1228.41 212.852 1228.71 212.489C1229 212.121 1229.21 211.777 1229.35 211.455C1229.5 211.129 1229.57 210.788 1229.57 210.432C1229.57 210.023 1229.47 209.669 1229.27 209.369C1229.08 209.07 1228.82 208.839 1228.48 208.676C1228.14 208.513 1227.76 208.432 1227.34 208.432C1226.9 208.432 1226.51 208.525 1226.17 208.71C1225.84 208.892 1225.59 209.148 1225.4 209.477C1225.23 209.807 1225.14 210.193 1225.14 210.636H1223.8C1223.8 209.955 1223.95 209.356 1224.27 208.841C1224.58 208.326 1225.01 207.924 1225.55 207.636C1226.1 207.348 1226.71 207.205 1227.39 207.205C1228.07 207.205 1228.67 207.348 1229.2 207.636C1229.73 207.924 1230.14 208.312 1230.44 208.801C1230.74 209.29 1230.89 209.833 1230.89 210.432C1230.89 210.86 1230.81 211.278 1230.65 211.688C1230.5 212.093 1230.24 212.545 1229.86 213.045C1229.48 213.542 1228.96 214.148 1228.3 214.864L1225.68 217.659V217.75H1231.09V219H1223.75Z"
      fill="white" />
    <path
      d="M1156 217.5V218.171C1156 218.434 1155.95 218.694 1155.85 218.937C1155.75 219.18 1155.6 219.4 1155.41 219.586L1155 220H1161L1160.59 219.586C1160.4 219.4 1160.25 219.18 1160.15 218.937C1160.05 218.694 1160 218.434 1160 218.171V217.5M1164 209.5V216C1164 216.398 1163.84 216.779 1163.56 217.061C1163.28 217.342 1162.9 217.5 1162.5 217.5H1153.5C1153.1 217.5 1152.72 217.342 1152.44 217.061C1152.16 216.779 1152 216.398 1152 216V209.5M1164 209.5C1164 209.102 1163.84 208.721 1163.56 208.439C1163.28 208.158 1162.9 208 1162.5 208H1153.5C1153.1 208 1152.72 208.158 1152.44 208.439C1152.16 208.721 1152 209.102 1152 209.5M1164 209.5V214C1164 214.398 1163.84 214.779 1163.56 215.061C1163.28 215.342 1162.9 215.5 1162.5 215.5H1153.5C1153.1 215.5 1152.72 215.342 1152.44 215.061C1152.16 214.779 1152 214.398 1152 214V209.5"
      stroke="white" stroke-linecap="round" stroke-linejoin="round" />
  </g>
  <path
    d="M923 200H905C902.791 200 901 201.791 901 204V222C901 224.209 902.791 226 905 226H923C925.209 226 927 224.209 927 222V204C927 201.791 925.209 200 923 200Z"
    fill="#47BC99" />
  <path
    d="M969 200H933C930.791 200 929 201.791 929 204V222C929 224.209 930.791 226 933 226H969C971.209 226 973 224.209 973 222V204C973 201.791 971.209 200 969 200Z"
    fill="#D946EF" />
  <path
    d="M1005 200H1001C998.791 200 997 201.791 997 204V222C997 224.209 998.791 226 1001 226H1005C1007.21 226 1009 224.209 1009 222V204C1009 201.791 1007.21 200 1005 200Z"
    fill="#D946EF" />
  <path
    d="M1125 200H1015C1012.79 200 1011 201.791 1011 204V222C1011 224.209 1012.79 226 1015 226H1125C1127.21 226 1129 224.209 1129 222V204C1129 201.791 1127.21 200 1125 200Z"
    fill="#EF4444" />
  <path
    d="M991 200H979C976.791 200 975 201.791 975 204V222C975 224.209 976.791 226 979 226H991C993.209 226 995 224.209 995 222V204C995 201.791 993.209 200 991 200Z"
    fill="#47BC99" />
  <path
    d="M1233 320.5H902C897.306 320.5 893.5 324.306 893.5 329V347C893.5 351.694 897.306 355.5 902 355.5H1233C1237.69 355.5 1241.5 351.694 1241.5 347V329C1241.5 324.306 1237.69 320.5 1233 320.5Z"
    stroke="#94A3B8" stroke-opacity="0.2" />
  <g filter="url(#filter3_d_0_1)">
    <path
      d="M1231 327H1150C1147.79 327 1146 328.791 1146 331V346C1146 348.209 1147.79 350 1150 350H1231C1233.21 350 1235 348.209 1235 346V331C1235 328.791 1233.21 327 1231 327Z"
      fill="#475569" fill-opacity="0.4" />
    <path
      d="M1174.89 344H1173.41L1177.68 332.364H1179.14L1183.41 344H1181.93L1178.45 334.205H1178.36L1174.89 344ZM1175.43 339.455H1181.39V340.705H1175.43V339.455ZM1188.56 347.455C1187.91 347.455 1187.36 347.371 1186.89 347.205C1186.43 347.042 1186.04 346.826 1185.73 346.557C1185.42 346.292 1185.18 346.008 1184.99 345.705L1186.06 344.955C1186.18 345.114 1186.34 345.295 1186.52 345.5C1186.71 345.708 1186.96 345.888 1187.28 346.04C1187.61 346.195 1188.04 346.273 1188.56 346.273C1189.27 346.273 1189.85 346.102 1190.31 345.761C1190.77 345.42 1190.99 344.886 1190.99 344.159V342.386H1190.88C1190.78 342.545 1190.64 342.742 1190.46 342.977C1190.28 343.208 1190.02 343.415 1189.69 343.597C1189.35 343.775 1188.9 343.864 1188.34 343.864C1187.63 343.864 1187 343.697 1186.44 343.364C1185.88 343.03 1185.44 342.545 1185.11 341.909C1184.79 341.273 1184.63 340.5 1184.63 339.591C1184.63 338.697 1184.79 337.919 1185.1 337.256C1185.42 336.589 1185.85 336.074 1186.41 335.71C1186.98 335.343 1187.62 335.159 1188.36 335.159C1188.93 335.159 1189.38 335.254 1189.71 335.443C1190.05 335.629 1190.3 335.841 1190.48 336.08C1190.66 336.314 1190.8 336.508 1190.9 336.659H1191.04V335.273H1192.34V344.25C1192.34 345 1192.16 345.61 1191.82 346.08C1191.49 346.553 1191.03 346.9 1190.46 347.119C1189.89 347.343 1189.26 347.455 1188.56 347.455ZM1188.52 342.659C1189.05 342.659 1189.51 342.536 1189.88 342.29C1190.25 342.044 1190.53 341.689 1190.73 341.227C1190.92 340.765 1191.02 340.212 1191.02 339.568C1191.02 338.939 1190.92 338.384 1190.73 337.903C1190.54 337.422 1190.26 337.045 1189.89 336.773C1189.52 336.5 1189.06 336.364 1188.52 336.364C1187.95 336.364 1187.48 336.508 1187.1 336.795C1186.72 337.083 1186.44 337.47 1186.25 337.955C1186.06 338.439 1185.97 338.977 1185.97 339.568C1185.97 340.174 1186.07 340.71 1186.26 341.176C1186.45 341.638 1186.73 342.002 1187.11 342.267C1187.49 342.528 1187.96 342.659 1188.52 342.659ZM1198.45 344.182C1197.61 344.182 1196.88 343.996 1196.27 343.625C1195.67 343.25 1195.2 342.727 1194.87 342.057C1194.54 341.383 1194.38 340.598 1194.38 339.705C1194.38 338.811 1194.54 338.023 1194.87 337.341C1195.2 336.655 1195.66 336.121 1196.24 335.739C1196.84 335.352 1197.52 335.159 1198.31 335.159C1198.77 335.159 1199.22 335.235 1199.66 335.386C1200.1 335.538 1200.51 335.784 1200.87 336.125C1201.23 336.462 1201.52 336.909 1201.74 337.466C1201.95 338.023 1202.06 338.708 1202.06 339.523V340.091H1195.34V338.932H1200.7C1200.7 338.439 1200.6 338 1200.4 337.614C1200.21 337.227 1199.93 336.922 1199.57 336.699C1199.22 336.475 1198.8 336.364 1198.31 336.364C1197.78 336.364 1197.32 336.496 1196.93 336.761C1196.54 337.023 1196.24 337.364 1196.03 337.784C1195.83 338.205 1195.72 338.655 1195.72 339.136V339.909C1195.72 340.568 1195.84 341.127 1196.06 341.585C1196.29 342.04 1196.61 342.386 1197.02 342.625C1197.43 342.86 1197.91 342.977 1198.45 342.977C1198.8 342.977 1199.12 342.928 1199.4 342.83C1199.69 342.727 1199.94 342.576 1200.15 342.375C1200.36 342.17 1200.52 341.917 1200.63 341.614L1201.93 341.977C1201.79 342.417 1201.56 342.803 1201.24 343.136C1200.92 343.466 1200.52 343.723 1200.05 343.909C1199.57 344.091 1199.04 344.182 1198.45 344.182ZM1205.44 338.75V344H1204.1V335.273H1205.4V336.636H1205.51C1205.72 336.193 1206.03 335.837 1206.44 335.568C1206.86 335.295 1207.4 335.159 1208.06 335.159C1208.65 335.159 1209.16 335.28 1209.61 335.523C1210.05 335.761 1210.4 336.125 1210.64 336.614C1210.89 337.098 1211.01 337.712 1211.01 338.455V344H1209.67V338.545C1209.67 337.86 1209.49 337.326 1209.14 336.943C1208.78 336.557 1208.29 336.364 1207.67 336.364C1207.24 336.364 1206.86 336.456 1206.52 336.642C1206.19 336.828 1205.93 337.098 1205.73 337.455C1205.54 337.811 1205.44 338.242 1205.44 338.75ZM1217.26 335.273V336.409H1212.73V335.273H1217.26ZM1214.05 333.182H1215.39V341.5C1215.39 341.879 1215.45 342.163 1215.56 342.352C1215.67 342.538 1215.82 342.663 1215.99 342.727C1216.17 342.788 1216.36 342.818 1216.55 342.818C1216.7 342.818 1216.82 342.811 1216.92 342.795C1217.01 342.777 1217.09 342.761 1217.14 342.75L1217.42 343.955C1217.33 343.989 1217.2 344.023 1217.04 344.057C1216.87 344.095 1216.67 344.114 1216.42 344.114C1216.04 344.114 1215.67 344.032 1215.3 343.869C1214.94 343.706 1214.64 343.458 1214.4 343.125C1214.17 342.792 1214.05 342.371 1214.05 341.864V333.182ZM1227.68 344.159C1226.93 344.159 1226.26 344.03 1225.68 343.773C1225.09 343.515 1224.63 343.157 1224.29 342.699C1223.94 342.237 1223.76 341.701 1223.73 341.091H1225.16C1225.19 341.466 1225.32 341.79 1225.55 342.062C1225.77 342.331 1226.07 342.54 1226.44 342.688C1226.81 342.835 1227.21 342.909 1227.66 342.909C1228.16 342.909 1228.6 342.822 1228.99 342.648C1229.38 342.473 1229.68 342.231 1229.9 341.92C1230.12 341.61 1230.23 341.25 1230.23 340.841C1230.23 340.413 1230.12 340.036 1229.91 339.71C1229.7 339.381 1229.39 339.123 1228.98 338.938C1228.57 338.752 1228.07 338.659 1227.48 338.659H1226.55V337.409H1227.48C1227.94 337.409 1228.35 337.326 1228.69 337.159C1229.05 336.992 1229.32 336.758 1229.52 336.455C1229.72 336.152 1229.82 335.795 1229.82 335.386C1229.82 334.992 1229.73 334.65 1229.56 334.358C1229.38 334.066 1229.14 333.839 1228.82 333.676C1228.51 333.513 1228.13 333.432 1227.71 333.432C1227.3 333.432 1226.93 333.506 1226.57 333.653C1226.22 333.797 1225.93 334.008 1225.71 334.284C1225.48 334.557 1225.36 334.886 1225.34 335.273H1223.98C1224 334.663 1224.19 334.129 1224.53 333.67C1224.87 333.208 1225.33 332.848 1225.88 332.591C1226.44 332.333 1227.06 332.205 1227.73 332.205C1228.45 332.205 1229.07 332.35 1229.58 332.642C1230.1 332.93 1230.49 333.311 1230.77 333.784C1231.04 334.258 1231.18 334.769 1231.18 335.318C1231.18 335.973 1231.01 336.532 1230.67 336.994C1230.33 337.456 1229.86 337.777 1229.27 337.955V338.045C1230.01 338.167 1230.58 338.479 1231 338.983C1231.41 339.483 1231.62 340.102 1231.62 340.841C1231.62 341.473 1231.44 342.042 1231.1 342.545C1230.76 343.045 1230.29 343.439 1229.7 343.727C1229.11 344.015 1228.44 344.159 1227.68 344.159Z"
      fill="white" />
    <path
      d="M1156 342.5V343.171C1156 343.434 1155.95 343.694 1155.85 343.937C1155.75 344.18 1155.6 344.4 1155.41 344.586L1155 345H1161L1160.59 344.586C1160.4 344.4 1160.25 344.18 1160.15 343.937C1160.05 343.694 1160 343.434 1160 343.171V342.5M1164 334.5V341C1164 341.398 1163.84 341.779 1163.56 342.061C1163.28 342.342 1162.9 342.5 1162.5 342.5H1153.5C1153.1 342.5 1152.72 342.342 1152.44 342.061C1152.16 341.779 1152 341.398 1152 341V334.5M1164 334.5C1164 334.102 1163.84 333.721 1163.56 333.439C1163.28 333.158 1162.9 333 1162.5 333H1153.5C1153.1 333 1152.72 333.158 1152.44 333.439C1152.16 333.721 1152 334.102 1152 334.5M1164 334.5V339C1164 339.398 1163.84 339.779 1163.56 340.061C1163.28 340.342 1162.9 340.5 1162.5 340.5H1153.5C1153.1 340.5 1152.72 340.342 1152.44 340.061C1152.16 339.779 1152 339.398 1152 339V334.5"
      stroke="white" stroke-linecap="round" stroke-linejoin="round" />
  </g>
  <path
    d="M959 325H905C902.791 325 901 326.791 901 329V347C901 349.209 902.791 351 905 351H959C961.209 351 963 349.209 963 347V329C963 326.791 961.209 325 959 325Z"
    fill="#FFC562" />
  <path
    d="M999 325H969C966.791 325 965 326.791 965 329V347C965 349.209 966.791 351 969 351H999C1001.21 351 1003 349.209 1003 347V329C1003 326.791 1001.21 325 999 325Z"
    fill="#D946EF" />
  <path
    d="M1093 325H1009C1006.79 325 1005 326.791 1005 329V347C1005 349.209 1006.79 351 1009 351H1093C1095.21 351 1097 349.209 1097 347V329C1097 326.791 1095.21 325 1093 325Z"
    fill="#EF4444" />
  <path
    d="M1233 445.5H902C897.306 445.5 893.5 449.306 893.5 454V472C893.5 476.694 897.306 480.5 902 480.5H1233C1237.69 480.5 1241.5 476.694 1241.5 472V454C1241.5 449.306 1237.69 445.5 1233 445.5Z"
    stroke="#94A3B8" stroke-opacity="0.2" />
  <g filter="url(#filter4_d_0_1)">
    <path
      d="M1231 452H1150C1147.79 452 1146 453.791 1146 456V471C1146 473.209 1147.79 475 1150 475H1231C1233.21 475 1235 473.209 1235 471V456C1235 453.791 1233.21 452 1231 452Z"
      fill="#475569" fill-opacity="0.4" />
    <path
      d="M1174.89 469H1173.41L1177.68 457.364H1179.14L1183.41 469H1181.93L1178.45 459.205H1178.36L1174.89 469ZM1175.43 464.455H1181.39V465.705H1175.43V464.455ZM1188.56 472.455C1187.91 472.455 1187.36 472.371 1186.89 472.205C1186.43 472.042 1186.04 471.826 1185.73 471.557C1185.42 471.292 1185.18 471.008 1184.99 470.705L1186.06 469.955C1186.18 470.114 1186.34 470.295 1186.52 470.5C1186.71 470.708 1186.96 470.888 1187.28 471.04C1187.61 471.195 1188.04 471.273 1188.56 471.273C1189.27 471.273 1189.85 471.102 1190.31 470.761C1190.77 470.42 1190.99 469.886 1190.99 469.159V467.386H1190.88C1190.78 467.545 1190.64 467.742 1190.46 467.977C1190.28 468.208 1190.02 468.415 1189.69 468.597C1189.35 468.775 1188.9 468.864 1188.34 468.864C1187.63 468.864 1187 468.697 1186.44 468.364C1185.88 468.03 1185.44 467.545 1185.11 466.909C1184.79 466.273 1184.63 465.5 1184.63 464.591C1184.63 463.697 1184.79 462.919 1185.1 462.256C1185.42 461.589 1185.85 461.074 1186.41 460.71C1186.98 460.343 1187.62 460.159 1188.36 460.159C1188.93 460.159 1189.38 460.254 1189.71 460.443C1190.05 460.629 1190.3 460.841 1190.48 461.08C1190.66 461.314 1190.8 461.508 1190.9 461.659H1191.04V460.273H1192.34V469.25C1192.34 470 1192.16 470.61 1191.82 471.08C1191.49 471.553 1191.03 471.9 1190.46 472.119C1189.89 472.343 1189.26 472.455 1188.56 472.455ZM1188.52 467.659C1189.05 467.659 1189.51 467.536 1189.88 467.29C1190.25 467.044 1190.53 466.689 1190.73 466.227C1190.92 465.765 1191.02 465.212 1191.02 464.568C1191.02 463.939 1190.92 463.384 1190.73 462.903C1190.54 462.422 1190.26 462.045 1189.89 461.773C1189.52 461.5 1189.06 461.364 1188.52 461.364C1187.95 461.364 1187.48 461.508 1187.1 461.795C1186.72 462.083 1186.44 462.47 1186.25 462.955C1186.06 463.439 1185.97 463.977 1185.97 464.568C1185.97 465.174 1186.07 465.71 1186.26 466.176C1186.45 466.638 1186.73 467.002 1187.11 467.267C1187.49 467.528 1187.96 467.659 1188.52 467.659ZM1198.45 469.182C1197.61 469.182 1196.88 468.996 1196.27 468.625C1195.67 468.25 1195.2 467.727 1194.87 467.057C1194.54 466.383 1194.38 465.598 1194.38 464.705C1194.38 463.811 1194.54 463.023 1194.87 462.341C1195.2 461.655 1195.66 461.121 1196.24 460.739C1196.84 460.352 1197.52 460.159 1198.31 460.159C1198.77 460.159 1199.22 460.235 1199.66 460.386C1200.1 460.538 1200.51 460.784 1200.87 461.125C1201.23 461.462 1201.52 461.909 1201.74 462.466C1201.95 463.023 1202.06 463.708 1202.06 464.523V465.091H1195.34V463.932H1200.7C1200.7 463.439 1200.6 463 1200.4 462.614C1200.21 462.227 1199.93 461.922 1199.57 461.699C1199.22 461.475 1198.8 461.364 1198.31 461.364C1197.78 461.364 1197.32 461.496 1196.93 461.761C1196.54 462.023 1196.24 462.364 1196.03 462.784C1195.83 463.205 1195.72 463.655 1195.72 464.136V464.909C1195.72 465.568 1195.84 466.127 1196.06 466.585C1196.29 467.04 1196.61 467.386 1197.02 467.625C1197.43 467.86 1197.91 467.977 1198.45 467.977C1198.8 467.977 1199.12 467.928 1199.4 467.83C1199.69 467.727 1199.94 467.576 1200.15 467.375C1200.36 467.17 1200.52 466.917 1200.63 466.614L1201.93 466.977C1201.79 467.417 1201.56 467.803 1201.24 468.136C1200.92 468.466 1200.52 468.723 1200.05 468.909C1199.57 469.091 1199.04 469.182 1198.45 469.182ZM1205.44 463.75V469H1204.1V460.273H1205.4V461.636H1205.51C1205.72 461.193 1206.03 460.837 1206.44 460.568C1206.86 460.295 1207.4 460.159 1208.06 460.159C1208.65 460.159 1209.16 460.28 1209.61 460.523C1210.05 460.761 1210.4 461.125 1210.64 461.614C1210.89 462.098 1211.01 462.712 1211.01 463.455V469H1209.67V463.545C1209.67 462.86 1209.49 462.326 1209.14 461.943C1208.78 461.557 1208.29 461.364 1207.67 461.364C1207.24 461.364 1206.86 461.456 1206.52 461.642C1206.19 461.828 1205.93 462.098 1205.73 462.455C1205.54 462.811 1205.44 463.242 1205.44 463.75ZM1217.26 460.273V461.409H1212.73V460.273H1217.26ZM1214.05 458.182H1215.39V466.5C1215.39 466.879 1215.45 467.163 1215.56 467.352C1215.67 467.538 1215.82 467.663 1215.99 467.727C1216.17 467.788 1216.36 467.818 1216.55 467.818C1216.7 467.818 1216.82 467.811 1216.92 467.795C1217.01 467.777 1217.09 467.761 1217.14 467.75L1217.42 468.955C1217.33 468.989 1217.2 469.023 1217.04 469.057C1216.87 469.095 1216.67 469.114 1216.42 469.114C1216.04 469.114 1215.67 469.032 1215.3 468.869C1214.94 468.706 1214.64 468.458 1214.4 468.125C1214.17 467.792 1214.05 467.371 1214.05 466.864V458.182ZM1223.48 466.614V465.455L1228.59 457.364H1229.43V459.159H1228.87L1225 465.273V465.364H1231.89V466.614H1223.48ZM1228.96 469V457.364H1230.3V469H1228.96Z"
      fill="white" />
    <path
      d="M1156 467.5V468.171C1156 468.434 1155.95 468.694 1155.85 468.937C1155.75 469.18 1155.6 469.4 1155.41 469.586L1155 470H1161L1160.59 469.586C1160.4 469.4 1160.25 469.18 1160.15 468.937C1160.05 468.694 1160 468.434 1160 468.171V467.5M1164 459.5V466C1164 466.398 1163.84 466.779 1163.56 467.061C1163.28 467.342 1162.9 467.5 1162.5 467.5H1153.5C1153.1 467.5 1152.72 467.342 1152.44 467.061C1152.16 466.779 1152 466.398 1152 466V459.5M1164 459.5C1164 459.102 1163.84 458.721 1163.56 458.439C1163.28 458.158 1162.9 458 1162.5 458H1153.5C1153.1 458 1152.72 458.158 1152.44 458.439C1152.16 458.721 1152 459.102 1152 459.5M1164 459.5V464C1164 464.398 1163.84 464.779 1163.56 465.061C1163.28 465.342 1162.9 465.5 1162.5 465.5H1153.5C1153.1 465.5 1152.72 465.342 1152.44 465.061C1152.16 464.779 1152 464.398 1152 464V459.5"
      stroke="white" stroke-linecap="round" stroke-linejoin="round" />
  </g>
  <path
    d="M999 450H905C902.791 450 901 451.791 901 454V472C901 474.209 902.791 476 905 476H999C1001.21 476 1003 474.209 1003 472V454C1003 451.791 1001.21 450 999 450Z"
    fill="#FFC562" />
  <path
    d="M1023 450H1009C1006.79 450 1005 451.791 1005 454V472C1005 474.209 1006.79 476 1009 476H1023C1025.21 476 1027 474.209 1027 472V454C1027 451.791 1025.21 450 1023 450Z"
    fill="#47BC99" />
  <path
    d="M1037 450H1033C1030.79 450 1029 451.791 1029 454V472C1029 474.209 1030.79 476 1033 476H1037C1039.21 476 1041 474.209 1041 472V454C1041 451.791 1039.21 450 1037 450Z"
    fill="#47BC99" />
  <path
    d="M1057 450H1047C1044.79 450 1043 451.791 1043 454V472C1043 474.209 1044.79 476 1047 476H1057C1059.21 476 1061 474.209 1061 472V454C1061 451.791 1059.21 450 1057 450Z"
    fill="#47BC99" />
  <path
    d="M878.061 89.0607C878.646 88.4749 878.646 87.5251 878.061 86.9393L868.515 77.3934C867.929 76.8076 866.979 76.8076 866.393 77.3934C865.808 77.9792 865.808 78.9289 866.393 79.5147L874.879 88L866.393 96.4853C865.808 97.0711 865.808 98.0208 866.393 98.6066C866.979 99.1924 867.929 99.1924 868.515 98.6066L878.061 89.0607ZM694 277H761.5V274H694V277ZM787 251.5V112H784V251.5H787ZM809.5 89.5H877V86.5H809.5V89.5ZM787 112C787 99.5736 797.074 89.5 809.5 89.5V86.5C795.417 86.5 784 97.9167 784 112H787ZM761.5 277C775.583 277 787 265.583 787 251.5H784C784 263.926 773.926 274 761.5 274V277Z"
    fill="#3B82F6" />
  <path
    d="M878.061 214.061C878.646 213.475 878.646 212.525 878.061 211.939L868.515 202.393C867.929 201.808 866.979 201.808 866.393 202.393C865.808 202.979 865.808 203.929 866.393 204.515L874.879 213L866.393 221.485C865.808 222.071 865.808 223.021 866.393 223.607C866.979 224.192 867.929 224.192 868.515 223.607L878.061 214.061ZM694 277H761.5V274H694V277ZM787 251.5V237H784V251.5H787ZM809.5 214.5H877V211.5H809.5V214.5ZM787 237C787 224.574 797.074 214.5 809.5 214.5V211.5C795.417 211.5 784 222.917 784 237H787ZM761.5 277C775.583 277 787 265.583 787 251.5H784C784 263.926 773.926 274 761.5 274V277Z"
    fill="#3B82F6" />
  <path
    d="M878.061 339.061C878.646 338.475 878.646 337.525 878.061 336.939L868.515 327.393C867.929 326.808 866.979 326.808 866.393 327.393C865.808 327.979 865.808 328.929 866.393 329.515L874.879 338L866.393 346.485C865.808 347.071 865.808 348.021 866.393 348.607C866.979 349.192 867.929 349.192 868.515 348.607L878.061 339.061ZM694 277H761.5V274H694V277ZM784 299.5V314H787V299.5H784ZM809.5 339.5H877V336.5H809.5V339.5ZM784 314C784 328.083 795.417 339.5 809.5 339.5V336.5C797.074 336.5 787 326.426 787 314H784ZM761.5 277C773.926 277 784 287.074 784 299.5H787C787 285.417 775.583 274 761.5 274V277Z"
    fill="#3B82F6" />
  <path
    d="M878.061 464.061C878.646 463.475 878.646 462.525 878.061 461.939L868.515 452.393C867.929 451.808 866.979 451.808 866.393 452.393C865.808 452.979 865.808 453.929 866.393 454.515L874.879 463L866.393 471.485C865.808 472.071 865.808 473.021 866.393 473.607C866.979 474.192 867.929 474.192 868.515 473.607L878.061 464.061ZM694 277H761.5V274H694V277ZM784 299.5V439H787V299.5H784ZM809.5 464.5H877V461.5H809.5V464.5ZM784 439C784 453.083 795.417 464.5 809.5 464.5V461.5C797.074 461.5 787 451.426 787 439H784ZM761.5 277C773.926 277 784 287.074 784 299.5H787C787 285.417 775.583 274 761.5 274V277Z"
    fill="#3B82F6" />
  <path
    d="M951 117V129.5C951 140.546 959.954 149.5 971 149.5H996C1007.05 149.5 1016 158.454 1016 169.5V182"
    stroke="#9CB0C0" stroke-width="4" stroke-linecap="round" stroke-dasharray="1 8" />
  <path fill-rule="evenodd" clip-rule="evenodd"
    d="M1020.23 177C1021.01 177 1021.49 177.848 1021.09 178.514L1016.86 185.571C1016.47 186.218 1015.53 186.218 1015.14 185.571L1010.91 178.514C1010.51 177.848 1010.99 177 1011.77 177H1020.23Z"
    fill="#9CB0C0" />
  <path
    d="M956.5 117C956.5 120.038 954.038 122.5 951 122.5C947.962 122.5 945.5 120.038 945.5 117C945.5 113.962 947.962 111.5 951 111.5C954.038 111.5 956.5 113.962 956.5 117Z"
    fill="#9CB0C0" />
  <path
    d="M1041 162.75V169.5M1041 169.5L1038 166.5M1041 169.5L1044 166.5M1041 384.75V391.5M1041 391.5L1038 388.5M1041 391.5L1044 388.5M1035.75 172.5C1034.68 172.502 1033.64 172.121 1032.83 171.427C1032.01 170.735 1031.47 169.772 1031.3 168.714C1031.13 167.657 1031.34 166.574 1031.9 165.66C1032.46 164.746 1033.32 164.06 1034.34 163.725C1034.08 162.387 1034.35 161 1035.09 159.855C1035.84 158.712 1037 157.904 1038.33 157.601C1039.66 157.298 1041.05 157.525 1042.22 158.233C1043.38 158.941 1044.23 160.075 1044.57 161.395C1045.11 161.222 1045.67 161.202 1046.22 161.335C1046.76 161.469 1047.26 161.752 1047.65 162.152C1048.04 162.552 1048.31 163.054 1048.43 163.6C1048.55 164.147 1048.52 164.716 1048.33 165.243C1049.15 165.556 1049.83 166.146 1050.26 166.909C1050.69 167.673 1050.84 168.563 1050.68 169.425C1050.52 170.287 1050.07 171.067 1049.4 171.628C1048.72 172.19 1047.88 172.499 1047 172.5H1035.75ZM1035.75 394.5C1034.68 394.502 1033.64 394.121 1032.83 393.427C1032.01 392.735 1031.47 391.772 1031.3 390.714C1031.13 389.657 1031.34 388.574 1031.9 387.66C1032.46 386.746 1033.32 386.06 1034.34 385.725C1034.08 384.387 1034.35 383 1035.09 381.855C1035.84 380.712 1037 379.904 1038.33 379.601C1039.66 379.298 1041.05 379.525 1042.22 380.233C1043.38 380.941 1044.23 382.075 1044.57 383.395C1045.11 383.222 1045.67 383.202 1046.22 383.335C1046.76 383.469 1047.26 383.752 1047.65 384.152C1048.04 384.552 1048.31 385.054 1048.43 385.6C1048.55 386.147 1048.52 386.716 1048.33 387.243C1049.15 387.556 1049.83 388.146 1050.26 388.909C1050.69 389.673 1050.84 390.563 1050.68 391.425C1050.52 392.287 1050.07 393.067 1049.4 393.628C1048.72 394.19 1047.88 394.499 1047 394.5H1035.75Z"
    stroke="#94A3B8" stroke-width="1.5" stroke-linecap="round" stroke-linejoin="round" />
  <path
    d="M943 434V421.5C943 410.454 951.954 401.5 963 401.5H988C999.046 401.5 1008 392.546 1008 381.5V369"
    stroke="#9CB0C0" stroke-width="4" stroke-linecap="round" stroke-dasharray="1 8" />
  <path fill-rule="evenodd" clip-rule="evenodd"
    d="M1003.77 374C1002.99 374 1002.51 373.152 1002.91 372.486L1007.14 365.429C1007.53 364.782 1008.47 364.782 1008.86 365.429L1013.09 372.486C1013.49 373.152 1013.01 374 1012.23 374H1003.77Z"
    fill="#9CB0C0" />
  <path
    d="M937.5 434C937.5 430.962 939.962 428.5 943 428.5C946.038 428.5 948.5 430.962 948.5 434C948.5 437.038 946.038 439.5 943 439.5C939.962 439.5 937.5 437.038 937.5 434Z"
    fill="#9CB0C0" />
  <path
    d="M953.767 21.1818H956.793L962.844 31.3665H963.099L969.151 21.1818H972.176L964.293 34.0085V43H961.651V34.0085L953.767 21.1818ZM979.586 43.3409C978.108 43.3409 976.812 42.9893 975.697 42.2862C974.589 41.5831 973.723 40.5994 973.098 39.3352C972.48 38.071 972.171 36.5937 972.171 34.9034C972.171 33.1989 972.48 31.7109 973.098 30.4396C973.723 29.1683 974.589 28.1811 975.697 27.478C976.812 26.7749 978.108 26.4233 979.586 26.4233C981.063 26.4233 982.355 26.7749 983.463 27.478C984.578 28.1811 985.445 29.1683 986.063 30.4396C986.688 31.7109 987 33.1989 987 34.9034C987 36.5937 986.688 38.071 986.063 39.3352C985.445 40.5994 984.578 41.5831 983.463 42.2862C982.355 42.9893 981.063 43.3409 979.586 43.3409ZM979.586 41.0824C980.708 41.0824 981.631 40.7947 982.355 40.2195C983.08 39.6442 983.616 38.8878 983.964 37.9503C984.312 37.0128 984.486 35.9972 984.486 34.9034C984.486 33.8097 984.312 32.7905 983.964 31.8459C983.616 30.9013 983.08 30.1378 982.355 29.5554C981.631 28.973 980.708 28.6818 979.586 28.6818C978.463 28.6818 977.54 28.973 976.816 29.5554C976.091 30.1378 975.555 30.9013 975.207 31.8459C974.859 32.7905 974.685 33.8097 974.685 34.9034C974.685 35.9972 974.859 37.0128 975.207 37.9503C975.555 38.8878 976.091 39.6442 976.816 40.2195C977.54 40.7947 978.463 41.0824 979.586 41.0824ZM1001.15 36.3097V26.6364H1003.66V43H1001.15V40.2301H1000.98C1000.6 41.0611 1000 41.7678 999.191 42.3501C998.381 42.9254 997.358 43.2131 996.122 43.2131C995.1 43.2131 994.191 42.9893 993.395 42.5419C992.6 42.0874 991.975 41.4055 991.52 40.4964C991.066 39.5803 990.838 38.4261 990.838 37.0341V26.6364H993.352V36.8636C993.352 38.0568 993.686 39.0085 994.354 39.7188C995.029 40.429 995.888 40.7841 996.932 40.7841C997.557 40.7841 998.193 40.6243 998.839 40.3047C999.492 39.9851 1000.04 39.495 1000.48 38.8345C1000.93 38.174 1001.15 37.3324 1001.15 36.3097ZM1008.27 43V26.6364H1010.7V29.108H1010.87C1011.17 28.2983 1011.71 27.6413 1012.49 27.1371C1013.27 26.6328 1014.15 26.3807 1015.13 26.3807C1015.32 26.3807 1015.55 26.3842 1015.82 26.3913C1016.1 26.3984 1016.31 26.4091 1016.45 26.4233V28.9801C1016.37 28.9588 1016.17 28.9268 1015.87 28.8842C1015.57 28.8345 1015.25 28.8097 1014.92 28.8097C1014.12 28.8097 1013.41 28.9766 1012.79 29.3104C1012.17 29.6371 1011.68 30.0916 1011.32 30.674C1010.96 31.2493 1010.78 31.9062 1010.78 32.6449V43H1008.27ZM1045.77 28H1043.13C1042.97 27.2401 1042.7 26.5724 1042.3 25.9972C1041.92 25.4219 1041.45 24.9389 1040.9 24.5483C1040.35 24.1506 1039.74 23.8523 1039.08 23.6534C1038.41 23.4545 1037.71 23.3551 1036.99 23.3551C1035.67 23.3551 1034.47 23.6889 1033.4 24.3565C1032.33 25.0241 1031.48 26.0078 1030.85 27.3075C1030.23 28.6072 1029.91 30.2017 1029.91 32.0909C1029.91 33.9801 1030.23 35.5746 1030.85 36.8743C1031.48 38.174 1032.33 39.1577 1033.4 39.8253C1034.47 40.4929 1035.67 40.8267 1036.99 40.8267C1037.71 40.8267 1038.41 40.7273 1039.08 40.5284C1039.74 40.3295 1040.35 40.0348 1040.9 39.6442C1041.45 39.2464 1041.92 38.7599 1042.3 38.1847C1042.7 37.6023 1042.97 36.9347 1043.13 36.1818H1045.77C1045.57 37.2969 1045.21 38.2947 1044.68 39.1754C1044.16 40.0561 1043.5 40.8054 1042.72 41.4233C1041.94 42.0341 1041.06 42.4993 1040.09 42.8189C1039.12 43.1385 1038.09 43.2983 1036.99 43.2983C1035.13 43.2983 1033.47 42.8438 1032.02 41.9347C1030.58 41.0256 1029.44 39.733 1028.6 38.0568C1027.77 36.3807 1027.36 34.392 1027.36 32.0909C1027.36 29.7898 1027.77 27.8011 1028.6 26.125C1029.44 24.4489 1030.58 23.1562 1032.02 22.2472C1033.47 21.3381 1035.13 20.8835 1036.99 20.8835C1038.09 20.8835 1039.12 21.0433 1040.09 21.3629C1041.06 21.6825 1041.94 22.1513 1042.72 22.7692C1043.5 23.38 1044.16 24.1257 1044.68 25.0064C1045.21 25.88 1045.57 26.8778 1045.77 28ZM1052.68 21.1818V43H1050.04V21.1818H1052.68ZM1066.41 43V21.1818H1073.79C1075.5 21.1818 1076.9 21.4908 1077.98 22.1087C1079.08 22.7195 1079.89 23.5469 1080.41 24.5909C1080.94 25.6349 1081.2 26.7997 1081.2 28.0852C1081.2 29.3707 1080.94 30.5391 1080.41 31.5902C1079.89 32.6413 1079.09 33.4794 1078 34.1044C1076.92 34.7223 1075.53 35.0312 1073.83 35.0312H1068.54V32.6875H1073.74C1074.91 32.6875 1075.86 32.4851 1076.57 32.0803C1077.28 31.6754 1077.79 31.1286 1078.11 30.4396C1078.44 29.7436 1078.6 28.9588 1078.6 28.0852C1078.6 27.2116 1078.44 26.4304 1078.11 25.7415C1077.79 25.0526 1077.27 24.5128 1076.56 24.1222C1075.84 23.7244 1074.89 23.5256 1073.7 23.5256H1069.06V43H1066.41ZM1085.12 43V26.6364H1087.54V29.108H1087.72C1088.01 28.2983 1088.55 27.6413 1089.33 27.1371C1090.12 26.6328 1091 26.3807 1091.98 26.3807C1092.16 26.3807 1092.39 26.3842 1092.67 26.3913C1092.95 26.3984 1093.16 26.4091 1093.3 26.4233V28.9801C1093.21 28.9588 1093.02 28.9268 1092.71 28.8842C1092.41 28.8345 1092.1 28.8097 1091.76 28.8097C1090.97 28.8097 1090.26 28.9766 1089.63 29.3104C1089.01 29.6371 1088.52 30.0916 1088.16 30.674C1087.81 31.2493 1087.63 31.9062 1087.63 32.6449V43H1085.12ZM1102.43 43.3409C1100.95 43.3409 1099.65 42.9893 1098.54 42.2862C1097.43 41.5831 1096.56 40.5994 1095.94 39.3352C1095.32 38.071 1095.01 36.5937 1095.01 34.9034C1095.01 33.1989 1095.32 31.7109 1095.94 30.4396C1096.56 29.1683 1097.43 28.1811 1098.54 27.478C1099.65 26.7749 1100.95 26.4233 1102.43 26.4233C1103.9 26.4233 1105.2 26.7749 1106.31 27.478C1107.42 28.1811 1108.29 29.1683 1108.9 30.4396C1109.53 31.7109 1109.84 33.1989 1109.84 34.9034C1109.84 36.5937 1109.53 38.071 1108.9 39.3352C1108.29 40.5994 1107.42 41.5831 1106.31 42.2862C1105.2 42.9893 1103.9 43.3409 1102.43 43.3409ZM1102.43 41.0824C1103.55 41.0824 1104.47 40.7947 1105.2 40.2195C1105.92 39.6442 1106.46 38.8878 1106.81 37.9503C1107.15 37.0128 1107.33 35.9972 1107.33 34.9034C1107.33 33.8097 1107.15 32.7905 1106.81 31.8459C1106.46 30.9013 1105.92 30.1378 1105.2 29.5554C1104.47 28.973 1103.55 28.6818 1102.43 28.6818C1101.31 28.6818 1100.38 28.973 1099.66 29.5554C1098.93 30.1378 1098.4 30.9013 1098.05 31.8459C1097.7 32.7905 1097.53 33.8097 1097.53 34.9034C1097.53 35.9972 1097.7 37.0128 1098.05 37.9503C1098.4 38.8878 1098.93 39.6442 1099.66 40.2195C1100.38 40.7947 1101.31 41.0824 1102.43 41.0824ZM1126.47 26.6364L1120.42 43H1117.87L1111.82 26.6364H1114.54L1119.06 39.6761H1119.23L1123.75 26.6364H1126.47ZM1129.79 43V26.6364H1132.31V43H1129.79ZM1131.07 23.9091C1130.58 23.9091 1130.16 23.7422 1129.8 23.4084C1129.46 23.0746 1129.28 22.6733 1129.28 22.2045C1129.28 21.7358 1129.46 21.3345 1129.8 21.0007C1130.16 20.6669 1130.58 20.5 1131.07 20.5C1131.56 20.5 1131.98 20.6669 1132.33 21.0007C1132.68 21.3345 1132.86 21.7358 1132.86 22.2045C1132.86 22.6733 1132.68 23.0746 1132.33 23.4084C1131.98 23.7422 1131.56 23.9091 1131.07 23.9091ZM1143.09 43.3409C1141.73 43.3409 1140.52 42.9964 1139.48 42.3075C1138.44 41.6115 1137.62 40.6314 1137.03 39.3672C1136.44 38.0959 1136.15 36.5938 1136.15 34.8608C1136.15 33.142 1136.44 31.6506 1137.03 30.3864C1137.62 29.1222 1138.44 28.1456 1139.49 27.4567C1140.54 26.7678 1141.76 26.4233 1143.13 26.4233C1144.2 26.4233 1145.04 26.6009 1145.66 26.956C1146.28 27.304 1146.76 27.7017 1147.09 28.1491C1147.42 28.5895 1147.68 28.9517 1147.86 29.2358H1148.08V21.1818H1150.59V43H1148.16V40.4858H1147.86C1147.68 40.7841 1147.42 41.1605 1147.08 41.6151C1146.73 42.0625 1146.25 42.4638 1145.62 42.8189C1144.98 43.1669 1144.14 43.3409 1143.09 43.3409ZM1143.43 41.0824C1144.44 41.0824 1145.29 40.8196 1145.99 40.294C1146.69 39.7614 1147.21 39.0263 1147.58 38.0888C1147.94 37.1442 1148.12 36.054 1148.12 34.8182C1148.12 33.5966 1147.94 32.5277 1147.59 31.6115C1147.23 30.6882 1146.71 29.9709 1146.01 29.4595C1145.31 28.9411 1144.46 28.6818 1143.43 28.6818C1142.37 28.6818 1141.48 28.9553 1140.77 29.5021C1140.07 30.0419 1139.54 30.777 1139.18 31.7074C1138.83 32.6307 1138.66 33.6676 1138.66 34.8182C1138.66 35.983 1138.84 37.0412 1139.19 37.9929C1139.55 38.9375 1140.09 39.6903 1140.79 40.2514C1141.5 40.8054 1142.38 41.0824 1143.43 41.0824ZM1162.41 43.3409C1160.83 43.3409 1159.47 42.9929 1158.33 42.2969C1157.19 41.5938 1156.31 40.6136 1155.69 39.3565C1155.08 38.0923 1154.78 36.6222 1154.78 34.946C1154.78 33.2699 1155.08 31.7926 1155.69 30.5142C1156.31 29.2287 1157.17 28.2273 1158.27 27.5099C1159.38 26.7855 1160.67 26.4233 1162.15 26.4233C1163 26.4233 1163.84 26.5653 1164.68 26.8494C1165.51 27.1335 1166.26 27.5952 1166.94 28.2344C1167.63 28.8665 1168.17 29.7045 1168.57 30.7486C1168.98 31.7926 1169.18 33.0781 1169.18 34.6051V35.6705H1156.57V33.4972H1166.62C1166.62 32.5739 1166.44 31.75 1166.07 31.0256C1165.71 30.3011 1165.19 29.7294 1164.52 29.3104C1163.85 28.8913 1163.06 28.6818 1162.15 28.6818C1161.15 28.6818 1160.28 28.9304 1159.55 29.4276C1158.83 29.9176 1158.27 30.5568 1157.88 31.3452C1157.49 32.1335 1157.29 32.9787 1157.29 33.8807V35.3295C1157.29 36.5653 1157.51 37.6129 1157.93 38.4723C1158.36 39.3246 1158.97 39.9744 1159.73 40.4219C1160.5 40.8622 1161.39 41.0824 1162.41 41.0824C1163.07 41.0824 1163.66 40.9901 1164.2 40.8054C1164.74 40.6136 1165.2 40.3295 1165.59 39.9531C1165.98 39.5696 1166.28 39.0937 1166.5 38.5256L1168.93 39.2074C1168.67 40.0312 1168.24 40.7557 1167.64 41.3807C1167.03 41.9986 1166.29 42.4815 1165.4 42.8295C1164.51 43.1705 1163.51 43.3409 1162.41 43.3409ZM1173.01 43V26.6364H1175.44V29.108H1175.61C1175.9 28.2983 1176.44 27.6413 1177.22 27.1371C1178.01 26.6328 1178.89 26.3807 1179.87 26.3807C1180.05 26.3807 1180.28 26.3842 1180.56 26.3913C1180.84 26.3984 1181.05 26.4091 1181.19 26.4233V28.9801C1181.1 28.9588 1180.91 28.9268 1180.6 28.8842C1180.3 28.8345 1179.99 28.8097 1179.65 28.8097C1178.86 28.8097 1178.15 28.9766 1177.52 29.3104C1176.91 29.6371 1176.42 30.0916 1176.05 30.674C1175.7 31.2493 1175.52 31.9062 1175.52 32.6449V43H1173.01Z"
    fill="white" />
  <defs>
    <filter id="filter0_d_0_1" x="271" y="208" width="54" height="27" filterUnits="userSpaceOnUse"
      color-interpolation-filters="sRGB">
      <feFlood flood-opacity="0" result="BackgroundImageFix" />
      <feColorMatrix in="SourceAlpha" type="matrix"
        values="0 0 0 0 0 0 0 0 0 0 0 0 0 0 0 0 0 0 127 0" result="hardAlpha" />
      <feOffset dy="2" />
      <feGaussianBlur stdDeviation="1" />
      <feComposite in2="hardAlpha" operator="out" />
      <feColorMatrix type="matrix" values="0 0 0 0 0 0 0 0 0 0 0 0 0 0 0 0 0 0 0.1 0" />
      <feBlend mode="normal" in2="BackgroundImageFix" result="effect1_dropShadow_0_1" />
      <feBlend mode="normal" in="SourceGraphic" in2="effect1_dropShadow_0_1" result="shape" />
    </filter>
    <filter id="filter1_d_0_1" x="1144" y="77" width="93" height="27" filterUnits="userSpaceOnUse"
      color-interpolation-filters="sRGB">
      <feFlood flood-opacity="0" result="BackgroundImageFix" />
      <feColorMatrix in="SourceAlpha" type="matrix"
        values="0 0 0 0 0 0 0 0 0 0 0 0 0 0 0 0 0 0 127 0" result="hardAlpha" />
      <feOffset dy="2" />
      <feGaussianBlur stdDeviation="1" />
      <feComposite in2="hardAlpha" operator="out" />
      <feColorMatrix type="matrix" values="0 0 0 0 0 0 0 0 0 0 0 0 0 0 0 0 0 0 0.1 0" />
      <feBlend mode="normal" in2="BackgroundImageFix" result="effect1_dropShadow_0_1" />
      <feBlend mode="normal" in="SourceGraphic" in2="effect1_dropShadow_0_1" result="shape" />
    </filter>
    <filter id="filter2_d_0_1" x="1144" y="202" width="93" height="27" filterUnits="userSpaceOnUse"
      color-interpolation-filters="sRGB">
      <feFlood flood-opacity="0" result="BackgroundImageFix" />
      <feColorMatrix in="SourceAlpha" type="matrix"
        values="0 0 0 0 0 0 0 0 0 0 0 0 0 0 0 0 0 0 127 0" result="hardAlpha" />
      <feOffset dy="2" />
      <feGaussianBlur stdDeviation="1" />
      <feComposite in2="hardAlpha" operator="out" />
      <feColorMatrix type="matrix" values="0 0 0 0 0 0 0 0 0 0 0 0 0 0 0 0 0 0 0.1 0" />
      <feBlend mode="normal" in2="BackgroundImageFix" result="effect1_dropShadow_0_1" />
      <feBlend mode="normal" in="SourceGraphic" in2="effect1_dropShadow_0_1" result="shape" />
    </filter>
    <filter id="filter3_d_0_1" x="1144" y="327" width="93" height="27" filterUnits="userSpaceOnUse"
      color-interpolation-filters="sRGB">
      <feFlood flood-opacity="0" result="BackgroundImageFix" />
      <feColorMatrix in="SourceAlpha" type="matrix"
        values="0 0 0 0 0 0 0 0 0 0 0 0 0 0 0 0 0 0 127 0" result="hardAlpha" />
      <feOffset dy="2" />
      <feGaussianBlur stdDeviation="1" />
      <feComposite in2="hardAlpha" operator="out" />
      <feColorMatrix type="matrix" values="0 0 0 0 0 0 0 0 0 0 0 0 0 0 0 0 0 0 0.1 0" />
      <feBlend mode="normal" in2="BackgroundImageFix" result="effect1_dropShadow_0_1" />
      <feBlend mode="normal" in="SourceGraphic" in2="effect1_dropShadow_0_1" result="shape" />
    </filter>
    <filter id="filter4_d_0_1" x="1144" y="452" width="93" height="27" filterUnits="userSpaceOnUse"
      color-interpolation-filters="sRGB">
      <feFlood flood-opacity="0" result="BackgroundImageFix" />
      <feColorMatrix in="SourceAlpha" type="matrix"
        values="0 0 0 0 0 0 0 0 0 0 0 0 0 0 0 0 0 0 127 0" result="hardAlpha" />
      <feOffset dy="2" />
      <feGaussianBlur stdDeviation="1" />
      <feComposite in2="hardAlpha" operator="out" />
      <feColorMatrix type="matrix" values="0 0 0 0 0 0 0 0 0 0 0 0 0 0 0 0 0 0 0.1 0" />
      <feBlend mode="normal" in2="BackgroundImageFix" result="effect1_dropShadow_0_1" />
      <feBlend mode="normal" in="SourceGraphic" in2="effect1_dropShadow_0_1" result="shape" />
    </filter>
  </defs>
</svg>
  