<svg xmlns="http://www.w3.org/2000/svg" fill="none" viewBox="0 0 1250 450">
  <rect width="220" height="69" x="470" y="191" fill="#3B82F6" rx="8"/>
  <rect width="309" height="148" x="20.5" y="151.5" stroke="#94A3B8" stroke-opacity=".2" rx="8.5"/>
  <path stroke="#94A3B8" stroke-linecap="round" stroke-linejoin="round" stroke-width="1.5" d="m39.4688 168.438 6 6-6 6"/>
  <path fill="#FFC562" d="M55.386 181v-9.9h2.196v1.89h.612l-.612.522c0-.816.234-1.452.702-1.908.48-.456 1.134-.684 1.962-.684.972 0 1.746.324 2.322.972.588.648.882 1.518.882 2.61V181H61.2v-6.264c0-.6-.156-1.062-.468-1.386-.312-.324-.75-.486-1.314-.486-.552 0-.99.168-1.314.504-.312.336-.468.816-.468 1.44V181h-2.25Zm10.055 0 3.456-5.112-3.222-4.788h2.538l1.53 2.43c.096.144.18.306.252.486.084.18.15.324.198.432.048-.108.114-.252.198-.432a6.02 6.02 0 0 1 .252-.486l1.548-2.43h2.538l-3.222 4.788L74.945 181h-2.556l-1.71-2.718a4.9754 4.9754 0 0 1-.27-.504c-.084-.18-.156-.324-.216-.432-.048.108-.114.252-.198.432s-.174.348-.27.504L67.979 181h-2.538Zm25.2399.18c-1.02 0-1.824-.27-2.412-.81-.588-.54-.882-1.266-.882-2.178 0-.972.324-1.722.972-2.25.648-.528 1.566-.792 2.754-.792h2.466v-.846c0-.48-.156-.852-.468-1.116-.312-.276-.738-.414-1.278-.414-.492 0-.9.108-1.224.324-.324.216-.516.51-.576.882h-2.196c.108-.936.528-1.68 1.26-2.232.732-.552 1.668-.828 2.808-.828 1.212 0 2.166.306 2.862.918.708.6 1.062 1.416 1.062 2.448V181h-2.178v-1.728h-.36l.36-.486c0 .732-.27 1.314-.81 1.746-.54.432-1.26.648-2.16.648Zm.738-1.692c.636 0 1.152-.162 1.548-.486.408-.324.612-.744.612-1.26v-1.206h-2.43c-.456 0-.822.132-1.098.396-.276.264-.414.612-.414 1.044 0 .468.156.84.468 1.116.324.264.762.396 1.314.396ZM100.862 181v-6.768h-2.7181v-2.034h2.7181v-1.494c0-.864.288-1.554.864-2.07.576-.516 1.338-.774 2.286-.774h2.898v1.98h-2.844c-.288 0-.522.084-.702.252-.168.156-.252.372-.252.648v1.458h3.798v2.034h-3.798V181h-2.25Zm10.793 0v-6.768h-2.718v-2.034h2.718v-1.494c0-.864.288-1.554.864-2.07.576-.516 1.338-.774 2.286-.774h2.898v1.98h-2.844c-.288 0-.522.084-.702.252-.168.156-.252.372-.252.648v1.458h3.798v2.034h-3.798V181h-2.25Zm12.521.18c-.84 0-1.572-.162-2.196-.486-.624-.324-1.11-.774-1.458-1.35-.336-.588-.504-1.272-.504-2.052v-2.484c0-.78.168-1.458.504-2.034.348-.588.834-1.044 1.458-1.368.624-.324 1.356-.486 2.196-.486.828 0 1.548.162 2.16.486.624.324 1.104.78 1.44 1.368.348.576.522 1.254.522 2.034v1.782h-6.102v.702c0 .696.168 1.224.504 1.584.336.348.834.522 1.494.522.504 0 .912-.084 1.224-.252.312-.18.51-.438.594-.774h2.214c-.168.852-.624 1.536-1.368 2.052-.732.504-1.626.756-2.682.756Zm1.944-5.85v-.54c0-.684-.162-1.206-.486-1.566-.324-.372-.81-.558-1.458-.558-.648 0-1.14.186-1.476.558-.336.372-.504.9-.504 1.584v.378l4.086-.036-.162.18Zm8.885 5.85c-.84 0-1.578-.156-2.214-.468-.624-.324-1.11-.774-1.458-1.35-.348-.588-.522-1.278-.522-2.07v-2.484c0-.804.174-1.494.522-2.07.348-.576.834-1.02 1.458-1.332.636-.324 1.374-.486 2.214-.486 1.248 0 2.244.324 2.988.972.744.636 1.134 1.506 1.17 2.61h-2.25c-.036-.516-.222-.912-.558-1.188-.324-.288-.774-.432-1.35-.432-.6 0-1.074.168-1.422.504-.348.324-.522.792-.522 1.404v2.502c0 .612.174 1.086.522 1.422.348.336.822.504 1.422.504.576 0 1.026-.138 1.35-.414.336-.288.522-.69.558-1.206h2.25c-.036 1.104-.426 1.98-1.17 2.628-.744.636-1.74.954-2.988.954Zm11.819-.18c-.948 0-1.692-.264-2.232-.792-.528-.528-.792-1.254-.792-2.178v-4.896h-2.682V171.1h2.682v-2.79h2.268v2.79h3.798v2.034h-3.798v4.896c0 .624.306.936.918.936h2.7V181h-2.862Zm9.731.18c-.84 0-1.572-.162-2.196-.486-.624-.324-1.11-.774-1.458-1.35-.336-.588-.504-1.272-.504-2.052v-2.484c0-.78.168-1.458.504-2.034.348-.588.834-1.044 1.458-1.368.624-.324 1.356-.486 2.196-.486.828 0 1.548.162 2.16.486.624.324 1.104.78 1.44 1.368.348.576.522 1.254.522 2.034v1.782h-6.102v.702c0 .696.168 1.224.504 1.584.336.348.834.522 1.494.522.504 0 .912-.084 1.224-.252.312-.18.51-.438.594-.774h2.214c-.168.852-.624 1.536-1.368 2.052-.732.504-1.626.756-2.682.756Zm1.944-5.85v-.54c0-.684-.162-1.206-.486-1.566-.324-.372-.81-.558-1.458-.558-.648 0-1.14.186-1.476.558-.336.372-.504.9-.504 1.584v.378l4.086-.036-.162.18Zm7.985 5.85c-.984 0-1.782-.342-2.394-1.026-.6-.684-.9-1.602-.9-2.754v-2.682c0-1.164.3-2.088.9-2.772.6-.684 1.398-1.026 2.394-1.026.816 0 1.464.234 1.944.702.48.456.72 1.086.72 1.89l-.504-.522h.522l-.072-2.358v-2.772h2.25V181h-2.196v-1.89h-.504l.504-.522c0 .804-.24 1.44-.72 1.908-.48.456-1.128.684-1.944.684Zm.792-1.944c.576 0 1.02-.168 1.332-.504.324-.348.486-.828.486-1.44v-2.484c0-.612-.162-1.086-.486-1.422-.312-.348-.756-.522-1.332-.522-.576 0-1.026.168-1.35.504-.324.336-.486.816-.486 1.44v2.484c0 .624.162 1.104.486 1.44.324.336.774.504 1.35.504Zm10.847-5.292c-.504 0-.912-.138-1.224-.414-.3-.288-.45-.654-.45-1.098 0-.456.15-.822.45-1.098.312-.276.72-.414 1.224-.414s.906.138 1.206.414c.312.276.468.642.468 1.098 0 .444-.156.81-.468 1.098-.3.276-.702.414-1.206.414Zm0 7.236c-.504 0-.912-.138-1.224-.414-.3-.276-.45-.642-.45-1.098 0-.456.15-.822.45-1.098.312-.276.72-.414 1.224-.414s.906.138 1.206.414c.312.276.468.642.468 1.098 0 .456-.156.822-.468 1.098-.3.276-.702.414-1.206.414Zm11.639 0c-.816 0-1.464-.228-1.944-.684-.48-.468-.72-1.104-.72-1.908l.504.522h-.504V181h-2.196v-13.14h2.25v2.772l-.072 2.358h.522l-.504.522c0-.804.24-1.434.72-1.89.48-.468 1.128-.702 1.944-.702.996 0 1.794.342 2.394 1.026.6.684.9 1.608.9 2.772v2.682c0 1.152-.3 2.07-.9 2.754-.6.684-1.398 1.026-2.394 1.026Zm-.792-1.944c.576 0 1.026-.168 1.35-.504.324-.336.486-.816.486-1.44v-2.484c0-.624-.162-1.104-.486-1.44-.324-.336-.774-.504-1.35-.504-.564 0-1.008.174-1.332.522-.324.336-.486.81-.486 1.422v2.484c0 .612.162 1.092.486 1.44.324.336.768.504 1.332.504Zm10.739 1.944c-1.26 0-2.25-.348-2.97-1.044-.72-.708-1.08-1.668-1.08-2.88V171.1h2.25v6.138c0 .636.156 1.128.468 1.476.312.336.756.504 1.332.504.564 0 1.002-.168 1.314-.504.324-.348.486-.84.486-1.476V171.1h2.25v6.156c0 1.212-.366 2.172-1.098 2.88-.732.696-1.716 1.044-2.952 1.044Zm6.761-.18v-2.052h3.456v-5.814h-3.006V171.1h5.166v7.848h3.06V181h-8.676Zm4.356-11.556c-.456 0-.816-.114-1.08-.342-.264-.24-.396-.558-.396-.954 0-.396.132-.708.396-.936.264-.24.624-.36 1.08-.36.456 0 .816.12 1.08.36.264.228.396.54.396.936s-.132.714-.396.954c-.264.228-.624.342-1.08.342ZM222.807 181c-.648 0-1.218-.132-1.71-.396-.48-.264-.858-.636-1.134-1.116-.276-.492-.414-1.056-.414-1.692v-7.902h-3.168v-2.034h5.418v9.936c0 .36.102.648.306.864.216.204.504.306.864.306h2.988V181h-3.15Zm8.435.18c-.984 0-1.782-.342-2.394-1.026-.6-.684-.9-1.602-.9-2.754v-2.682c0-1.164.3-2.088.9-2.772.6-.684 1.398-1.026 2.394-1.026.816 0 1.464.234 1.944.702.48.456.72 1.086.72 1.89l-.504-.522h.522l-.072-2.358v-2.772h2.25V181h-2.196v-1.89h-.504l.504-.522c0 .804-.24 1.44-.72 1.908-.48.456-1.128.684-1.944.684Zm.792-1.944c.576 0 1.02-.168 1.332-.504.324-.348.486-.828.486-1.44v-2.484c0-.612-.162-1.086-.486-1.422-.312-.348-.756-.522-1.332-.522-.576 0-1.026.168-1.35.504-.324.336-.486.816-.486 1.44v2.484c0 .624.162 1.104.486 1.44.324.336.774.504 1.35.504Z"/>
  <path stroke="#94A3B8" stroke-linecap="round" stroke-linejoin="round" stroke-width="1.5" d="m39.4688 202.438 6 6-6 6"/>
  <path fill="#47BC99" d="M55.386 215v-9.9h2.196v1.89h.612l-.612.522c0-.816.234-1.452.702-1.908.48-.456 1.134-.684 1.962-.684.972 0 1.746.324 2.322.972.588.648.882 1.518.882 2.61V215H61.2v-6.264c0-.6-.156-1.062-.468-1.386-.312-.324-.75-.486-1.314-.486-.552 0-.99.168-1.314.504-.312.336-.468.816-.468 1.44V215h-2.25Zm10.055 0 3.456-5.112-3.222-4.788h2.538l1.53 2.43c.096.144.18.306.252.486.084.18.15.324.198.432.048-.108.114-.252.198-.432a6.02 6.02 0 0 1 .252-.486l1.548-2.43h2.538l-3.222 4.788L74.945 215h-2.556l-1.71-2.718a4.9754 4.9754 0 0 1-.27-.504c-.084-.18-.156-.324-.216-.432-.048.108-.114.252-.198.432s-.174.348-.27.504L67.979 215h-2.538Zm25.2399.18c-1.02 0-1.824-.27-2.412-.81-.588-.54-.882-1.266-.882-2.178 0-.972.324-1.722.972-2.25.648-.528 1.566-.792 2.754-.792h2.466v-.846c0-.48-.156-.852-.468-1.116-.312-.276-.738-.414-1.278-.414-.492 0-.9.108-1.224.324-.324.216-.516.51-.576.882h-2.196c.108-.936.528-1.68 1.26-2.232.732-.552 1.668-.828 2.808-.828 1.212 0 2.166.306 2.862.918.708.6 1.062 1.416 1.062 2.448V215h-2.178v-1.728h-.36l.36-.486c0 .732-.27 1.314-.81 1.746-.54.432-1.26.648-2.16.648Zm.738-1.692c.636 0 1.152-.162 1.548-.486.408-.324.612-.744.612-1.26v-1.206h-2.43c-.456 0-.822.132-1.098.396-.276.264-.414.612-.414 1.044 0 .468.156.84.468 1.116.324.264.762.396 1.314.396ZM100.862 215v-6.768h-2.7181v-2.034h2.7181v-1.494c0-.864.288-1.554.864-2.07.576-.516 1.338-.774 2.286-.774h2.898v1.98h-2.844c-.288 0-.522.084-.702.252-.168.156-.252.372-.252.648v1.458h3.798v2.034h-3.798V215h-2.25Zm10.793 0v-6.768h-2.718v-2.034h2.718v-1.494c0-.864.288-1.554.864-2.07.576-.516 1.338-.774 2.286-.774h2.898v1.98h-2.844c-.288 0-.522.084-.702.252-.168.156-.252.372-.252.648v1.458h3.798v2.034h-3.798V215h-2.25Zm12.521.18c-.84 0-1.572-.162-2.196-.486-.624-.324-1.11-.774-1.458-1.35-.336-.588-.504-1.272-.504-2.052v-2.484c0-.78.168-1.458.504-2.034.348-.588.834-1.044 1.458-1.368.624-.324 1.356-.486 2.196-.486.828 0 1.548.162 2.16.486.624.324 1.104.78 1.44 1.368.348.576.522 1.254.522 2.034v1.782h-6.102v.702c0 .696.168 1.224.504 1.584.336.348.834.522 1.494.522.504 0 .912-.084 1.224-.252.312-.18.51-.438.594-.774h2.214c-.168.852-.624 1.536-1.368 2.052-.732.504-1.626.756-2.682.756Zm1.944-5.85v-.54c0-.684-.162-1.206-.486-1.566-.324-.372-.81-.558-1.458-.558-.648 0-1.14.186-1.476.558-.336.372-.504.9-.504 1.584v.378l4.086-.036-.162.18Zm8.885 5.85c-.84 0-1.578-.156-2.214-.468-.624-.324-1.11-.774-1.458-1.35-.348-.588-.522-1.278-.522-2.07v-2.484c0-.804.174-1.494.522-2.07.348-.576.834-1.02 1.458-1.332.636-.324 1.374-.486 2.214-.486 1.248 0 2.244.324 2.988.972.744.636 1.134 1.506 1.17 2.61h-2.25c-.036-.516-.222-.912-.558-1.188-.324-.288-.774-.432-1.35-.432-.6 0-1.074.168-1.422.504-.348.324-.522.792-.522 1.404v2.502c0 .612.174 1.086.522 1.422.348.336.822.504 1.422.504.576 0 1.026-.138 1.35-.414.336-.288.522-.69.558-1.206h2.25c-.036 1.104-.426 1.98-1.17 2.628-.744.636-1.74.954-2.988.954Zm11.819-.18c-.948 0-1.692-.264-2.232-.792-.528-.528-.792-1.254-.792-2.178v-4.896h-2.682V205.1h2.682v-2.79h2.268v2.79h3.798v2.034h-3.798v4.896c0 .624.306.936.918.936h2.7V215h-2.862Zm9.731.18c-.84 0-1.572-.162-2.196-.486-.624-.324-1.11-.774-1.458-1.35-.336-.588-.504-1.272-.504-2.052v-2.484c0-.78.168-1.458.504-2.034.348-.588.834-1.044 1.458-1.368.624-.324 1.356-.486 2.196-.486.828 0 1.548.162 2.16.486.624.324 1.104.78 1.44 1.368.348.576.522 1.254.522 2.034v1.782h-6.102v.702c0 .696.168 1.224.504 1.584.336.348.834.522 1.494.522.504 0 .912-.084 1.224-.252.312-.18.51-.438.594-.774h2.214c-.168.852-.624 1.536-1.368 2.052-.732.504-1.626.756-2.682.756Zm1.944-5.85v-.54c0-.684-.162-1.206-.486-1.566-.324-.372-.81-.558-1.458-.558-.648 0-1.14.186-1.476.558-.336.372-.504.9-.504 1.584v.378l4.086-.036-.162.18Zm7.985 5.85c-.984 0-1.782-.342-2.394-1.026-.6-.684-.9-1.602-.9-2.754v-2.682c0-1.164.3-2.088.9-2.772.6-.684 1.398-1.026 2.394-1.026.816 0 1.464.234 1.944.702.48.456.72 1.086.72 1.89l-.504-.522h.522l-.072-2.358v-2.772h2.25V215h-2.196v-1.89h-.504l.504-.522c0 .804-.24 1.44-.72 1.908-.48.456-1.128.684-1.944.684Zm.792-1.944c.576 0 1.02-.168 1.332-.504.324-.348.486-.828.486-1.44v-2.484c0-.612-.162-1.086-.486-1.422-.312-.348-.756-.522-1.332-.522-.576 0-1.026.168-1.35.504-.324.336-.486.816-.486 1.44v2.484c0 .624.162 1.104.486 1.44.324.336.774.504 1.35.504Zm10.847-5.292c-.504 0-.912-.138-1.224-.414-.3-.288-.45-.654-.45-1.098 0-.456.15-.822.45-1.098.312-.276.72-.414 1.224-.414s.906.138 1.206.414c.312.276.468.642.468 1.098 0 .444-.156.81-.468 1.098-.3.276-.702.414-1.206.414Zm0 7.236c-.504 0-.912-.138-1.224-.414-.3-.276-.45-.642-.45-1.098 0-.456.15-.822.45-1.098.312-.276.72-.414 1.224-.414s.906.138 1.206.414c.312.276.468.642.468 1.098 0 .456-.156.822-.468 1.098-.3.276-.702.414-1.206.414Zm11.873-.18c-.948 0-1.692-.264-2.232-.792-.528-.528-.792-1.254-.792-2.178v-4.896h-2.682V205.1h2.682v-2.79h2.268v2.79h3.798v2.034h-3.798v4.896c0 .624.306.936.918.936h2.7V215h-2.862Zm9.731.18c-.84 0-1.572-.162-2.196-.486-.624-.324-1.11-.774-1.458-1.35-.336-.588-.504-1.272-.504-2.052v-2.484c0-.78.168-1.458.504-2.034.348-.588.834-1.044 1.458-1.368.624-.324 1.356-.486 2.196-.486.828 0 1.548.162 2.16.486.624.324 1.104.78 1.44 1.368.348.576.522 1.254.522 2.034v1.782h-6.102v.702c0 .696.168 1.224.504 1.584.336.348.834.522 1.494.522.504 0 .912-.084 1.224-.252.312-.18.51-.438.594-.774h2.214c-.168.852-.624 1.536-1.368 2.052-.732.504-1.626.756-2.682.756Zm1.944-5.85v-.54c0-.684-.162-1.206-.486-1.566-.324-.372-.81-.558-1.458-.558-.648 0-1.14.186-1.476.558-.336.372-.504.9-.504 1.584v.378l4.086-.036-.162.18Zm8.453 5.832c-.756 0-1.416-.12-1.98-.36-.564-.24-1.008-.57-1.332-.99-.312-.432-.48-.936-.504-1.512h2.25c.024.312.174.564.45.756.288.192.66.288 1.116.288h.792c.552 0 .966-.108 1.242-.324.276-.216.414-.51.414-.882 0-.348-.126-.618-.378-.81-.24-.204-.618-.336-1.134-.396l-1.224-.18c-1.128-.156-1.956-.456-2.484-.9s-.792-1.11-.792-1.998c0-.924.312-1.638.936-2.142.624-.516 1.542-.774 2.754-.774h.684c1.104 0 1.986.246 2.646.738.66.492 1.014 1.152 1.062 1.98h-2.25c-.036-.264-.186-.48-.45-.648-.252-.168-.588-.252-1.008-.252h-.684c-.516 0-.894.096-1.134.288-.228.18-.342.45-.342.81 0 .336.102.588.306.756.204.156.534.27.99.342l1.278.18c1.176.168 2.04.486 2.592.954.564.456.846 1.134.846 2.034 0 .96-.33 1.71-.99 2.25-.648.528-1.608.792-2.88.792h-.792Zm12.251-.162c-.948 0-1.692-.264-2.232-.792-.528-.528-.792-1.254-.792-2.178v-4.896h-2.682V205.1h2.682v-2.79h2.268v2.79h3.798v2.034h-3.798v4.896c0 .624.306.936.918.936h2.7V215h-2.862Z"/>
  <path stroke="#94A3B8" stroke-linecap="round" stroke-linejoin="round" stroke-width="1.5" d="m39.4688 236.438 6 6-6 6"/>
  <path fill="#D946EF" d="M55.386 249v-9.9h2.196v1.89h.612l-.612.522c0-.816.234-1.452.702-1.908.48-.456 1.134-.684 1.962-.684.972 0 1.746.324 2.322.972.588.648.882 1.518.882 2.61V249H61.2v-6.264c0-.6-.156-1.062-.468-1.386-.312-.324-.75-.486-1.314-.486-.552 0-.99.168-1.314.504-.312.336-.468.816-.468 1.44V249h-2.25Zm10.055 0 3.456-5.112-3.222-4.788h2.538l1.53 2.43c.096.144.18.306.252.486.084.18.15.324.198.432.048-.108.114-.252.198-.432a6.02 6.02 0 0 1 .252-.486l1.548-2.43h2.538l-3.222 4.788L74.945 249h-2.556l-1.71-2.718a4.9754 4.9754 0 0 1-.27-.504c-.084-.18-.156-.324-.216-.432-.048.108-.114.252-.198.432s-.174.348-.27.504L67.979 249h-2.538Zm25.2399.18c-1.02 0-1.824-.27-2.412-.81-.588-.54-.882-1.266-.882-2.178 0-.972.324-1.722.972-2.25.648-.528 1.566-.792 2.754-.792h2.466v-.846c0-.48-.156-.852-.468-1.116-.312-.276-.738-.414-1.278-.414-.492 0-.9.108-1.224.324-.324.216-.516.51-.576.882h-2.196c.108-.936.528-1.68 1.26-2.232.732-.552 1.668-.828 2.808-.828 1.212 0 2.166.306 2.862.918.708.6 1.062 1.416 1.062 2.448V249h-2.178v-1.728h-.36l.36-.486c0 .732-.27 1.314-.81 1.746-.54.432-1.26.648-2.16.648Zm.738-1.692c.636 0 1.152-.162 1.548-.486.408-.324.612-.744.612-1.26v-1.206h-2.43c-.456 0-.822.132-1.098.396-.276.264-.414.612-.414 1.044 0 .468.156.84.468 1.116.324.264.762.396 1.314.396ZM100.862 249v-6.768h-2.7181v-2.034h2.7181v-1.494c0-.864.288-1.554.864-2.07.576-.516 1.338-.774 2.286-.774h2.898v1.98h-2.844c-.288 0-.522.084-.702.252-.168.156-.252.372-.252.648v1.458h3.798v2.034h-3.798V249h-2.25Zm10.793 0v-6.768h-2.718v-2.034h2.718v-1.494c0-.864.288-1.554.864-2.07.576-.516 1.338-.774 2.286-.774h2.898v1.98h-2.844c-.288 0-.522.084-.702.252-.168.156-.252.372-.252.648v1.458h3.798v2.034h-3.798V249h-2.25Zm12.521.18c-.84 0-1.572-.162-2.196-.486-.624-.324-1.11-.774-1.458-1.35-.336-.588-.504-1.272-.504-2.052v-2.484c0-.78.168-1.458.504-2.034.348-.588.834-1.044 1.458-1.368.624-.324 1.356-.486 2.196-.486.828 0 1.548.162 2.16.486.624.324 1.104.78 1.44 1.368.348.576.522 1.254.522 2.034v1.782h-6.102v.702c0 .696.168 1.224.504 1.584.336.348.834.522 1.494.522.504 0 .912-.084 1.224-.252.312-.18.51-.438.594-.774h2.214c-.168.852-.624 1.536-1.368 2.052-.732.504-1.626.756-2.682.756Zm1.944-5.85v-.54c0-.684-.162-1.206-.486-1.566-.324-.372-.81-.558-1.458-.558-.648 0-1.14.186-1.476.558-.336.372-.504.9-.504 1.584v.378l4.086-.036-.162.18Zm8.885 5.85c-.84 0-1.578-.156-2.214-.468-.624-.324-1.11-.774-1.458-1.35-.348-.588-.522-1.278-.522-2.07v-2.484c0-.804.174-1.494.522-2.07.348-.576.834-1.02 1.458-1.332.636-.324 1.374-.486 2.214-.486 1.248 0 2.244.324 2.988.972.744.636 1.134 1.506 1.17 2.61h-2.25c-.036-.516-.222-.912-.558-1.188-.324-.288-.774-.432-1.35-.432-.6 0-1.074.168-1.422.504-.348.324-.522.792-.522 1.404v2.502c0 .612.174 1.086.522 1.422.348.336.822.504 1.422.504.576 0 1.026-.138 1.35-.414.336-.288.522-.69.558-1.206h2.25c-.036 1.104-.426 1.98-1.17 2.628-.744.636-1.74.954-2.988.954Zm11.819-.18c-.948 0-1.692-.264-2.232-.792-.528-.528-.792-1.254-.792-2.178v-4.896h-2.682V239.1h2.682v-2.79h2.268v2.79h3.798v2.034h-3.798v4.896c0 .624.306.936.918.936h2.7V249h-2.862Zm9.731.18c-.84 0-1.572-.162-2.196-.486-.624-.324-1.11-.774-1.458-1.35-.336-.588-.504-1.272-.504-2.052v-2.484c0-.78.168-1.458.504-2.034.348-.588.834-1.044 1.458-1.368.624-.324 1.356-.486 2.196-.486.828 0 1.548.162 2.16.486.624.324 1.104.78 1.44 1.368.348.576.522 1.254.522 2.034v1.782h-6.102v.702c0 .696.168 1.224.504 1.584.336.348.834.522 1.494.522.504 0 .912-.084 1.224-.252.312-.18.51-.438.594-.774h2.214c-.168.852-.624 1.536-1.368 2.052-.732.504-1.626.756-2.682.756Zm1.944-5.85v-.54c0-.684-.162-1.206-.486-1.566-.324-.372-.81-.558-1.458-.558-.648 0-1.14.186-1.476.558-.336.372-.504.9-.504 1.584v.378l4.086-.036-.162.18Zm7.985 5.85c-.984 0-1.782-.342-2.394-1.026-.6-.684-.9-1.602-.9-2.754v-2.682c0-1.164.3-2.088.9-2.772.6-.684 1.398-1.026 2.394-1.026.816 0 1.464.234 1.944.702.48.456.72 1.086.72 1.89l-.504-.522h.522l-.072-2.358v-2.772h2.25V249h-2.196v-1.89h-.504l.504-.522c0 .804-.24 1.44-.72 1.908-.48.456-1.128.684-1.944.684Zm.792-1.944c.576 0 1.02-.168 1.332-.504.324-.348.486-.828.486-1.44v-2.484c0-.612-.162-1.086-.486-1.422-.312-.348-.756-.522-1.332-.522-.576 0-1.026.168-1.35.504-.324.336-.486.816-.486 1.44v2.484c0 .624.162 1.104.486 1.44.324.336.774.504 1.35.504Zm10.847-5.292c-.504 0-.912-.138-1.224-.414-.3-.288-.45-.654-.45-1.098 0-.456.15-.822.45-1.098.312-.276.72-.414 1.224-.414s.906.138 1.206.414c.312.276.468.642.468 1.098 0 .444-.156.81-.468 1.098-.3.276-.702.414-1.206.414Zm0 7.236c-.504 0-.912-.138-1.224-.414-.3-.276-.45-.642-.45-1.098 0-.456.15-.822.45-1.098.312-.276.72-.414 1.224-.414s.906.138 1.206.414c.312.276.468.642.468 1.098 0 .456-.156.822-.468 1.098-.3.276-.702.414-1.206.414Zm12.305-.18c-.648 0-1.218-.132-1.71-.396-.48-.264-.858-.636-1.134-1.116-.276-.492-.414-1.056-.414-1.692v-7.902h-3.168v-2.034h5.418v9.936c0 .36.102.648.306.864.216.204.504.306.864.306h2.988V249h-3.15Zm5.249 0v-2.052h3.456v-5.814h-3.006V239.1h5.166v7.848h3.06V249h-8.676Zm4.356-11.556c-.456 0-.816-.114-1.08-.342-.264-.24-.396-.558-.396-.954 0-.396.132-.708.396-.936.264-.24.624-.36 1.08-.36.456 0 .816.12 1.08.36.264.228.396.54.396.936s-.132.714-.396.954c-.264.228-.624.342-1.08.342ZM206.488 249v-9.9h2.196v1.89h.612l-.612.522c0-.816.234-1.452.702-1.908.48-.456 1.134-.684 1.962-.684.972 0 1.746.324 2.322.972.588.648.882 1.518.882 2.61V249h-2.25v-6.264c0-.6-.156-1.062-.468-1.386-.312-.324-.75-.486-1.314-.486-.552 0-.99.168-1.314.504-.312.336-.468.816-.468 1.44V249h-2.25Zm15.887 0c-.948 0-1.692-.264-2.232-.792-.528-.528-.792-1.254-.792-2.178v-4.896h-2.682V239.1h2.682v-2.79h2.268v2.79h3.798v2.034h-3.798v4.896c0 .624.306.936.918.936h2.7V249h-2.862Z"/>
  <path stroke="#94A3B8" stroke-linecap="round" stroke-linejoin="round" stroke-width="1.5" d="m39.4688 270.438 6 6-6 6"/>
  <path fill="#EF4444" d="M55.386 283v-9.9h2.196v1.89h.612l-.612.522c0-.816.234-1.452.702-1.908.48-.456 1.134-.684 1.962-.684.972 0 1.746.324 2.322.972.588.648.882 1.518.882 2.61V283H61.2v-6.264c0-.6-.156-1.062-.468-1.386-.312-.324-.75-.486-1.314-.486-.552 0-.99.168-1.314.504-.312.336-.468.816-.468 1.44V283h-2.25Zm10.055 0 3.456-5.112-3.222-4.788h2.538l1.53 2.43c.096.144.18.306.252.486.084.18.15.324.198.432.048-.108.114-.252.198-.432a6.02 6.02 0 0 1 .252-.486l1.548-2.43h2.538l-3.222 4.788L74.945 283h-2.556l-1.71-2.718a4.9754 4.9754 0 0 1-.27-.504c-.084-.18-.156-.324-.216-.432-.048.108-.114.252-.198.432s-.174.348-.27.504L67.979 283h-2.538Zm25.2399.18c-1.02 0-1.824-.27-2.412-.81-.588-.54-.882-1.266-.882-2.178 0-.972.324-1.722.972-2.25.648-.528 1.566-.792 2.754-.792h2.466v-.846c0-.48-.156-.852-.468-1.116-.312-.276-.738-.414-1.278-.414-.492 0-.9.108-1.224.324-.324.216-.516.51-.576.882h-2.196c.108-.936.528-1.68 1.26-2.232.732-.552 1.668-.828 2.808-.828 1.212 0 2.166.306 2.862.918.708.6 1.062 1.416 1.062 2.448V283h-2.178v-1.728h-.36l.36-.486c0 .732-.27 1.314-.81 1.746-.54.432-1.26.648-2.16.648Zm.738-1.692c.636 0 1.152-.162 1.548-.486.408-.324.612-.744.612-1.26v-1.206h-2.43c-.456 0-.822.132-1.098.396-.276.264-.414.612-.414 1.044 0 .468.156.84.468 1.116.324.264.762.396 1.314.396ZM100.862 283v-6.768h-2.7181v-2.034h2.7181v-1.494c0-.864.288-1.554.864-2.07.576-.516 1.338-.774 2.286-.774h2.898v1.98h-2.844c-.288 0-.522.084-.702.252-.168.156-.252.372-.252.648v1.458h3.798v2.034h-3.798V283h-2.25Zm10.793 0v-6.768h-2.718v-2.034h2.718v-1.494c0-.864.288-1.554.864-2.07.576-.516 1.338-.774 2.286-.774h2.898v1.98h-2.844c-.288 0-.522.084-.702.252-.168.156-.252.372-.252.648v1.458h3.798v2.034h-3.798V283h-2.25Zm12.521.18c-.84 0-1.572-.162-2.196-.486-.624-.324-1.11-.774-1.458-1.35-.336-.588-.504-1.272-.504-2.052v-2.484c0-.78.168-1.458.504-2.034.348-.588.834-1.044 1.458-1.368.624-.324 1.356-.486 2.196-.486.828 0 1.548.162 2.16.486.624.324 1.104.78 1.44 1.368.348.576.522 1.254.522 2.034v1.782h-6.102v.702c0 .696.168 1.224.504 1.584.336.348.834.522 1.494.522.504 0 .912-.084 1.224-.252.312-.18.51-.438.594-.774h2.214c-.168.852-.624 1.536-1.368 2.052-.732.504-1.626.756-2.682.756Zm1.944-5.85v-.54c0-.684-.162-1.206-.486-1.566-.324-.372-.81-.558-1.458-.558-.648 0-1.14.186-1.476.558-.336.372-.504.9-.504 1.584v.378l4.086-.036-.162.18Zm8.885 5.85c-.84 0-1.578-.156-2.214-.468-.624-.324-1.11-.774-1.458-1.35-.348-.588-.522-1.278-.522-2.07v-2.484c0-.804.174-1.494.522-2.07.348-.576.834-1.02 1.458-1.332.636-.324 1.374-.486 2.214-.486 1.248 0 2.244.324 2.988.972.744.636 1.134 1.506 1.17 2.61h-2.25c-.036-.516-.222-.912-.558-1.188-.324-.288-.774-.432-1.35-.432-.6 0-1.074.168-1.422.504-.348.324-.522.792-.522 1.404v2.502c0 .612.174 1.086.522 1.422.348.336.822.504 1.422.504.576 0 1.026-.138 1.35-.414.336-.288.522-.69.558-1.206h2.25c-.036 1.104-.426 1.98-1.17 2.628-.744.636-1.74.954-2.988.954Zm11.819-.18c-.948 0-1.692-.264-2.232-.792-.528-.528-.792-1.254-.792-2.178v-4.896h-2.682V273.1h2.682v-2.79h2.268v2.79h3.798v2.034h-3.798v4.896c0 .624.306.936.918.936h2.7V283h-2.862Zm9.731.18c-.84 0-1.572-.162-2.196-.486-.624-.324-1.11-.774-1.458-1.35-.336-.588-.504-1.272-.504-2.052v-2.484c0-.78.168-1.458.504-2.034.348-.588.834-1.044 1.458-1.368.624-.324 1.356-.486 2.196-.486.828 0 1.548.162 2.16.486.624.324 1.104.78 1.44 1.368.348.576.522 1.254.522 2.034v1.782h-6.102v.702c0 .696.168 1.224.504 1.584.336.348.834.522 1.494.522.504 0 .912-.084 1.224-.252.312-.18.51-.438.594-.774h2.214c-.168.852-.624 1.536-1.368 2.052-.732.504-1.626.756-2.682.756Zm1.944-5.85v-.54c0-.684-.162-1.206-.486-1.566-.324-.372-.81-.558-1.458-.558-.648 0-1.14.186-1.476.558-.336.372-.504.9-.504 1.584v.378l4.086-.036-.162.18Zm7.985 5.85c-.984 0-1.782-.342-2.394-1.026-.6-.684-.9-1.602-.9-2.754v-2.682c0-1.164.3-2.088.9-2.772.6-.684 1.398-1.026 2.394-1.026.816 0 1.464.234 1.944.702.48.456.72 1.086.72 1.89l-.504-.522h.522l-.072-2.358v-2.772h2.25V283h-2.196v-1.89h-.504l.504-.522c0 .804-.24 1.44-.72 1.908-.48.456-1.128.684-1.944.684Zm.792-1.944c.576 0 1.02-.168 1.332-.504.324-.348.486-.828.486-1.44v-2.484c0-.612-.162-1.086-.486-1.422-.312-.348-.756-.522-1.332-.522-.576 0-1.026.168-1.35.504-.324.336-.486.816-.486 1.44v2.484c0 .624.162 1.104.486 1.44.324.336.774.504 1.35.504Zm10.847-5.292c-.504 0-.912-.138-1.224-.414-.3-.288-.45-.654-.45-1.098 0-.456.15-.822.45-1.098.312-.276.72-.414 1.224-.414s.906.138 1.206.414c.312.276.468.642.468 1.098 0 .444-.156.81-.468 1.098-.3.276-.702.414-1.206.414Zm0 7.236c-.504 0-.912-.138-1.224-.414-.3-.276-.45-.642-.45-1.098 0-.456.15-.822.45-1.098.312-.276.72-.414 1.224-.414s.906.138 1.206.414c.312.276.468.642.468 1.098 0 .456-.156.822-.468 1.098-.3.276-.702.414-1.206.414Zm10.811 0c-.84 0-1.572-.162-2.196-.486-.624-.324-1.11-.774-1.458-1.35-.336-.588-.504-1.272-.504-2.052v-2.484c0-.78.168-1.458.504-2.034.348-.588.834-1.044 1.458-1.368.624-.324 1.356-.486 2.196-.486.828 0 1.548.162 2.16.486.624.324 1.104.78 1.44 1.368.348.576.522 1.254.522 2.034v1.782h-6.102v.702c0 .696.168 1.224.504 1.584.336.348.834.522 1.494.522.504 0 .912-.084 1.224-.252.312-.18.51-.438.594-.774h2.214c-.168.852-.624 1.536-1.368 2.052-.732.504-1.626.756-2.682.756Zm1.944-5.85v-.54c0-.684-.162-1.206-.486-1.566-.324-.372-.81-.558-1.458-.558-.648 0-1.14.186-1.476.558-.336.372-.504.9-.504 1.584v.378l4.086-.036-.162.18Zm4.853 5.67v-2.178l4.104-4.122c.576-.588 1.002-1.116 1.278-1.584.276-.48.414-.972.414-1.476 0-.612-.168-1.086-.504-1.422-.336-.348-.792-.522-1.368-.522-.636 0-1.134.186-1.494.558-.36.36-.54.864-.54 1.512h-2.25c.012-.84.192-1.56.54-2.16.36-.612.864-1.086 1.512-1.422.648-.336 1.404-.504 2.268-.504.828 0 1.548.156 2.16.468.612.312 1.086.75 1.422 1.314.336.564.504 1.236.504 2.016 0 .804-.21 1.59-.63 2.358-.408.756-1.068 1.572-1.98 2.448l-2.736 2.682h5.508V283h-8.208Zm14.789.18c-.84 0-1.572-.162-2.196-.486-.624-.324-1.11-.774-1.458-1.35-.336-.588-.504-1.272-.504-2.052v-2.484c0-.78.168-1.458.504-2.034.348-.588.834-1.044 1.458-1.368.624-.324 1.356-.486 2.196-.486.828 0 1.548.162 2.16.486.624.324 1.104.78 1.44 1.368.348.576.522 1.254.522 2.034v1.782h-6.102v.702c0 .696.168 1.224.504 1.584.336.348.834.522 1.494.522.504 0 .912-.084 1.224-.252.312-.18.51-.438.594-.774h2.214c-.168.852-.624 1.536-1.368 2.052-.732.504-1.626.756-2.682.756Zm1.944-5.85v-.54c0-.684-.162-1.206-.486-1.566-.324-.372-.81-.558-1.458-.558-.648 0-1.14.186-1.476.558-.336.372-.504.9-.504 1.584v.378l4.086-.036-.162.18Z"/>
  <g filter="url(#a)">
    <rect width="50" height="23" x="273" y="158" fill="#475569" fill-opacity=".4" rx="4"/>
    <path fill="#fff" d="M310.773 167h-1.409c-.084-.405-.23-.761-.438-1.068-.204-.307-.454-.565-.75-.773-.292-.212-.615-.371-.971-.477-.357-.106-.728-.159-1.114-.159-.705 0-1.343.178-1.915.534-.568.356-1.021.881-1.358 1.574-.333.693-.5 1.543-.5 2.551 0 1.007.167 1.858.5 2.551.337.693.79 1.218 1.358 1.574.572.356 1.21.534 1.915.534.386 0 .757-.053 1.114-.159.356-.106.679-.263.971-.472a2.97 2.97 0 0 0 .75-.778c.208-.311.354-.667.438-1.068h1.409c-.106.594-.3 1.127-.58 1.596-.28.47-.629.87-1.045 1.199-.417.326-.885.574-1.404.744-.515.171-1.066.256-1.653.256-.993 0-1.875-.242-2.648-.727-.773-.485-1.38-1.174-1.824-2.068-.443-.894-.664-1.955-.664-3.182 0-1.227.221-2.288.664-3.182.444-.894 1.051-1.583 1.824-2.068.773-.485 1.655-.727 2.648-.727.587 0 1.138.085 1.653.255.519.171.987.421 1.404.75.416.326.765.724 1.045 1.193.28.466.474.999.58 1.597Zm3.686-3.636V175h-1.409v-11.636h1.409Z"/>
    <path stroke="#fff" stroke-linecap="round" stroke-linejoin="round" d="M283 173.5v.671c0 .263-.052.523-.152.766-.101.243-.248.463-.434.649L282 176h6l-.414-.414a2.0045 2.0045 0 0 1-.434-.649c-.1-.243-.152-.503-.152-.766v-.671m4-8v6.5c0 .398-.158.779-.439 1.061-.282.281-.663.439-1.061.439h-9c-.398 0-.779-.158-1.061-.439A1.5027 1.5027 0 0 1 279 172v-6.5m12 0c0-.398-.158-.779-.439-1.061A1.5027 1.5027 0 0 0 289.5 164h-9c-.398 0-.779.158-1.061.439-.281.282-.439.663-.439 1.061m12 0v4.5c0 .398-.158.779-.439 1.061-.282.281-.663.439-1.061.439h-9c-.398 0-.779-.158-1.061-.439A1.5027 1.5027 0 0 1 279 170v-4.5"/>
  </g>
  <g stroke="#fff" stroke-width="3" clip-path="url(#b)">
    <path d="M519.5 213.625v4.125c-4.554 0-8.25 3.696-8.25 8.25s-3.696 8.25-8.25 8.25-8.25 3.696-8.25 8.25h-4.125c-2.277 0-4.125-1.848-4.125-4.125v-24.75c0-2.277 1.848-4.125 4.125-4.125h24.75c2.277 0 4.125 1.848 4.125 4.125Z"/>
    <path d="M519.5 217v21.25c0 2.346-1.904 4.25-4.25 4.25H494c0-4.692 3.808-8.5 8.5-8.5s8.5-3.808 8.5-8.5 3.808-8.5 8.5-8.5Z"/>
  </g>
  <path fill="#fff" d="M556.273 213.727V237h-2.728l-12.681-18.273h-.228V237h-2.818v-23.273h2.727l12.728 18.318h.227v-18.318h2.773Zm7.275 5.818 4.182 7.137 4.182-7.137h3.091l-5.637 8.728 5.637 8.727h-3.091l-4.182-6.773-4.182 6.773h-3.091l5.546-8.727-5.546-8.728h3.091ZM606.92 221h-2.818c-.166-.811-.458-1.523-.875-2.136-.409-.614-.909-1.129-1.5-1.546-.583-.424-1.231-.742-1.943-.954-.712-.212-1.454-.319-2.227-.319-1.409 0-2.686.357-3.83 1.069-1.136.712-2.041 1.761-2.716 3.147-.666 1.387-1 3.087-1 5.103 0 2.015.334 3.716 1 5.102.675 1.386 1.58 2.436 2.716 3.148 1.144.712 2.421 1.068 3.83 1.068.773 0 1.515-.106 2.227-.318.712-.212 1.36-.527 1.943-.944.591-.424 1.091-.943 1.5-1.556.417-.622.709-1.334.875-2.137h2.818c-.212 1.19-.598 2.254-1.159 3.193-.56.94-1.257 1.739-2.091 2.398-.833.652-1.768 1.148-2.806 1.489-1.031.341-2.133.511-3.307.511-1.985 0-3.75-.485-5.296-1.454-1.545-.97-2.761-2.349-3.647-4.137-.887-1.788-1.33-3.909-1.33-6.363 0-2.455.443-4.576 1.33-6.364.886-1.788 2.102-3.167 3.647-4.136 1.546-.97 3.311-1.455 5.296-1.455 1.174 0 2.276.171 3.307.511 1.038.341 1.973.841 2.806 1.5.834.652 1.531 1.447 2.091 2.387.561.932.947 1.996 1.159 3.193Zm6.873-7.273V237h-2.682v-23.273h2.682Zm12.002 23.637c-1.575 0-2.958-.375-4.147-1.125-1.182-.75-2.106-1.8-2.773-3.148-.659-1.349-.989-2.924-.989-4.727 0-1.819.33-3.406.989-4.762.667-1.356 1.591-2.409 2.773-3.159 1.189-.75 2.572-1.125 4.147-1.125 1.576 0 2.955.375 4.137 1.125 1.189.75 2.113 1.803 2.773 3.159.666 1.356 1 2.943 1 4.762 0 1.803-.334 3.378-1 4.727-.66 1.348-1.584 2.398-2.773 3.148-1.182.75-2.561 1.125-4.137 1.125Zm0-2.409c1.197 0 2.182-.307 2.955-.921.773-.614 1.345-1.42 1.716-2.42s.557-2.084.557-3.25c0-1.167-.186-2.254-.557-3.262-.371-1.007-.943-1.822-1.716-2.443s-1.758-.932-2.955-.932-2.181.311-2.954.932c-.773.621-1.345 1.436-1.716 2.443-.371 1.008-.557 2.095-.557 3.262 0 1.166.186 2.25.557 3.25.371 1 .943 1.806 1.716 2.42.773.614 1.757.921 2.954.921Zm23.003-5.091v-10.319h2.682V237h-2.682v-2.955h-.182c-.409.887-1.045 1.641-1.909 2.262-.863.613-1.954.92-3.272.92-1.091 0-2.061-.238-2.909-.716-.849-.484-1.516-1.212-2-2.181-.485-.978-.728-2.209-.728-3.694v-11.091h2.682v10.91c0 1.272.356 2.287 1.068 3.045.72.758 1.637 1.136 2.75 1.136.667 0 1.345-.17 2.034-.511.697-.341 1.281-.864 1.75-1.568.478-.705.716-1.602.716-2.693Zm14.185 7.5c-1.455 0-2.739-.368-3.852-1.103-1.114-.742-1.985-1.788-2.614-3.136-.629-1.356-.943-2.958-.943-4.807 0-1.833.314-3.424.943-4.773.629-1.348 1.504-2.39 2.625-3.125 1.121-.734 2.417-1.102 3.886-1.102 1.137 0 2.035.19 2.694.568.666.372 1.174.796 1.522 1.273.356.47.633.856.83 1.159h.227v-8.591h2.682V237h-2.591v-2.682h-.318c-.197.318-.477.72-.841 1.205-.364.477-.883.905-1.557 1.284-.674.371-1.572.557-2.693.557Zm.364-2.409c1.075 0 1.984-.281 2.727-.841.742-.569 1.307-1.353 1.693-2.353.386-1.007.58-2.17.58-3.488 0-1.303-.19-2.443-.569-3.421-.378-.985-.939-1.75-1.681-2.295-.743-.553-1.659-.83-2.75-.83-1.137 0-2.084.292-2.841.875-.75.576-1.315 1.36-1.694 2.353-.371.984-.556 2.09-.556 3.318 0 1.242.189 2.371.568 3.386.386 1.008.954 1.811 1.704 2.409.758.591 1.697.887 2.819.887Z"/>
  <path fill="#94A3B8" d="M467.061 226.561c.585-.586.585-1.536 0-2.122l-9.546-9.546c-.586-.585-1.536-.585-2.122 0-.585.586-.585 1.536 0 2.122l8.486 8.485-8.486 8.485c-.585.586-.585 1.536 0 2.122.586.585 1.536.585 2.122 0l9.546-9.546ZM333 227h133v-3H333v3Z"/>
  <rect width="348" height="35" x="880.5" y="20.5" stroke="#94A3B8" stroke-opacity=".2" rx="8.5"/>
  <rect width="70" height="26" x="888" y="25" fill="#FFC562" rx="4"/>
  <rect width="124" height="26" x="960" y="25" fill="#47BC99" rx="4"/>
  <g filter="url(#c)">
    <rect width="89" height="23" x="1133" y="27" fill="#475569" fill-opacity=".4" rx="4"/>
    <path fill="#fff" d="M1161.89 44h-1.48l4.27-11.6364h1.46L1170.41 44h-1.48l-3.48-9.7955h-.09L1161.89 44Zm.54-4.5455h5.96v1.25h-5.96v-1.25Zm13.13 8c-.65 0-1.2-.0833-1.67-.25-.46-.1628-.85-.3787-1.16-.6477-.31-.2651-.55-.5492-.74-.8523l1.07-.75c.12.1591.28.341.46.5455.19.2083.44.3883.76.5398.33.1553.76.2329 1.28.2329.71 0 1.29-.1704 1.75-.5113.46-.3409.68-.875.68-1.6023v-1.7727h-.11c-.1.1591-.24.356-.42.5909-.18.231-.44.4375-.77.6193-.34.178-.79.267-1.35.267-.71 0-1.34-.1666-1.9-.5-.56-.3333-1-.8181-1.33-1.4545-.32-.6364-.48-1.4091-.48-2.3182 0-.8939.16-1.6723.47-2.3352.32-.6667.75-1.1818 1.31-1.5455.57-.3674 1.21-.5511 1.95-.5511.57 0 1.02.0947 1.35.2841.34.1856.59.3977.77.6363.18.2349.32.4281.42.5796h.14v-1.3864h1.3V44.25c0 .75-.18 1.3598-.52 1.8295-.33.4735-.79.8201-1.36 1.0398-.57.2235-1.2.3352-1.9.3352Zm-.04-4.7954c.53 0 .99-.1231 1.36-.3693.37-.2462.65-.6004.85-1.0625.19-.4621.29-1.0152.29-1.6591 0-.6288-.1-1.1837-.29-1.6648-.19-.4811-.47-.8579-.84-1.1307-.37-.2727-.83-.4091-1.37-.4091-.57 0-1.04.144-1.42.4319-.38.2878-.66.6742-.85 1.159-.19.4849-.28 1.0228-.28 1.6137 0 .606.1 1.142.29 1.6079.19.4622.47.8258.85 1.0909.38.2614.85.3921 1.41.3921Zm9.93 1.5227c-.84 0-1.57-.1856-2.18-.5568-.6-.375-1.07-.8977-1.4-1.5682-.33-.6742-.49-1.4583-.49-2.3523 0-.8939.16-1.6818.49-2.3636.33-.6856.79-1.2197 1.37-1.6023.6-.3863 1.28-.5795 2.07-.5795.46 0 .91.0757 1.35.2273.44.1515.85.3977 1.21.7386.36.3371.65.7841.87 1.3409.21.5568.32 1.2424.32 2.0568v.5682h-6.72v-1.1591h5.36c0-.4924-.1-.9318-.3-1.3182-.19-.3863-.47-.6913-.83-.9147-.35-.2235-.77-.3353-1.26-.3353-.53 0-.99.1326-1.38.3978-.39.2613-.69.6022-.9 1.0227-.2.4204-.31.8712-.31 1.3523v.7727c0 .6591.12 1.2178.34 1.6761.23.4546.55.8012.96 1.0398.41.2348.89.3523 1.43.3523.35 0 .67-.0493.95-.1478.29-.1022.54-.2537.75-.4545.21-.2045.37-.4583.48-.7614l1.3.3637c-.14.4394-.37.8257-.69 1.1591-.32.3295-.72.5871-1.19.7727-.48.1818-1.01.2727-1.6.2727Zm6.99-5.4318V44h-1.34v-8.7273h1.3v1.3637h.11c.21-.4432.52-.7993.93-1.0682.42-.2727.96-.4091 1.62-.4091.59 0 1.1.1212 1.55.3636.44.2387.79.6023 1.03 1.0909.25.4849.37 1.0985.37 1.8409V44h-1.34v-5.4545c0-.6857-.18-1.2197-.53-1.6023-.36-.3864-.85-.5796-1.47-.5796-.43 0-.81.0928-1.15.2784-.33.1857-.59.4565-.79.8125-.19.3561-.29.7879-.29 1.2955Zm11.82-3.4773v1.1364h-4.53v-1.1364h4.53Zm-3.21-2.0909h1.34V41.5c0 .3788.06.6629.17.8523.11.1856.26.3106.43.375.18.0606.37.0909.56.0909.15 0 .27-.0076.37-.0227.09-.019.17-.0341.22-.0455l.28 1.2045c-.09.0341-.22.0682-.38.1023-.17.0379-.37.0568-.62.0568-.38 0-.75-.0814-1.12-.2443-.36-.1629-.66-.411-.9-.7443-.23-.3333-.35-.7538-.35-1.2614v-8.6818Zm13.79-.8182V44h-1.41V33.8409h-.06l-2.85 1.8864v-1.4318l2.91-1.9319h1.41Z"/>
    <path stroke="#fff" stroke-linecap="round" stroke-linejoin="round" d="M1143 42.5v.6713c0 .2628-.05.5229-.15.7657-.1.2427-.25.4632-.44.649L1142 45h6l-.41-.414a1.9456 1.9456 0 0 1-.44-.649 2.009 2.009 0 0 1-.15-.7657V42.5m4-8V41c0 .3978-.16.7794-.44 1.0607s-.66.4393-1.06.4393h-9c-.4 0-.78-.158-1.06-.4393A1.5063 1.5063 0 0 1 1139 41v-6.5m12 0c0-.3978-.16-.7794-.44-1.0607A1.4924 1.4924 0 0 0 1149.5 33h-9c-.4 0-.78.158-1.06.4393s-.44.6629-.44 1.0607m12 0V39c0 .3978-.16.7794-.44 1.0607s-.66.4393-1.06.4393h-9c-.4 0-.78-.158-1.06-.4393A1.5063 1.5063 0 0 1 1139 39v-4.5"/>
  </g>
  <rect width="348" height="35" x="880.5" y="145.5" stroke="#94A3B8" stroke-opacity=".2" rx="8.5"/>
  <g filter="url(#d)">
    <rect width="89" height="23" x="1133" y="152" fill="#475569" fill-opacity=".4" rx="4"/>
    <path fill="#fff" d="M1161.89 169h-1.48l4.27-11.636h1.46l4.27 11.636h-1.48l-3.48-9.795h-.09l-3.47 9.795Zm.54-4.545h5.96v1.25h-5.96v-1.25Zm13.13 8c-.65 0-1.2-.084-1.67-.25-.46-.163-.85-.379-1.16-.648-.31-.265-.55-.549-.74-.852l1.07-.75c.12.159.28.34.46.545.19.208.44.388.76.54.33.155.76.233 1.28.233.71 0 1.29-.171 1.75-.512.46-.341.68-.875.68-1.602v-1.773h-.11c-.1.159-.24.356-.42.591-.18.231-.44.438-.77.62-.34.178-.79.267-1.35.267-.71 0-1.34-.167-1.9-.5-.56-.334-1-.819-1.33-1.455-.32-.636-.48-1.409-.48-2.318 0-.894.16-1.672.47-2.335.32-.667.75-1.182 1.31-1.546.57-.367 1.21-.551 1.95-.551.57 0 1.02.095 1.35.284.34.186.59.398.77.637.18.234.32.428.42.579h.14v-1.386h1.3v8.977c0 .75-.18 1.36-.52 1.83-.33.473-.79.82-1.36 1.039-.57.224-1.2.336-1.9.336Zm-.04-4.796c.53 0 .99-.123 1.36-.369.37-.246.65-.601.85-1.063.19-.462.29-1.015.29-1.659 0-.629-.1-1.184-.29-1.665-.19-.481-.47-.858-.84-1.13-.37-.273-.83-.409-1.37-.409-.57 0-1.04.144-1.42.431-.38.288-.66.675-.85 1.16-.19.484-.28 1.022-.28 1.613 0 .606.1 1.142.29 1.608.19.462.47.826.85 1.091.38.261.85.392 1.41.392Zm9.93 1.523c-.84 0-1.57-.186-2.18-.557-.6-.375-1.07-.898-1.4-1.568-.33-.674-.49-1.459-.49-2.352 0-.894.16-1.682.49-2.364.33-.686.79-1.22 1.37-1.602.6-.387 1.28-.58 2.07-.58.46 0 .91.076 1.35.227.44.152.85.398 1.21.739.36.337.65.784.87 1.341.21.557.32 1.242.32 2.057v.568h-6.72v-1.159h5.36c0-.493-.1-.932-.3-1.318-.19-.387-.47-.692-.83-.915-.35-.224-.77-.335-1.26-.335-.53 0-.99.132-1.38.397-.39.262-.69.603-.9 1.023-.2.421-.31.871-.31 1.352v.773c0 .659.12 1.218.34 1.676.23.455.55.801.96 1.04.41.235.89.352 1.43.352.35 0 .67-.049.95-.147.29-.103.54-.254.75-.455.21-.205.37-.458.48-.761l1.3.363c-.14.44-.37.826-.69 1.159-.32.33-.72.587-1.19.773-.48.182-1.01.273-1.6.273Zm6.99-5.432V169h-1.34v-8.727h1.3v1.363h.11c.21-.443.52-.799.93-1.068.42-.273.96-.409 1.62-.409.59 0 1.1.121 1.55.364.44.238.79.602 1.03 1.091.25.484.37 1.098.37 1.841V169h-1.34v-5.455c0-.685-.18-1.219-.53-1.602-.36-.386-.85-.579-1.47-.579-.43 0-.81.092-1.15.278-.33.186-.59.456-.79.813-.19.356-.29.787-.29 1.295Zm11.82-3.477v1.136h-4.53v-1.136h4.53Zm-3.21-2.091h1.34v8.318c0 .379.06.663.17.852.11.186.26.311.43.375.18.061.37.091.56.091.15 0 .27-.007.37-.023.09-.018.17-.034.22-.045l.28 1.205c-.09.034-.22.068-.38.102-.17.038-.37.057-.62.057-.38 0-.75-.082-1.12-.245-.36-.163-.66-.411-.9-.744-.23-.333-.35-.754-.35-1.261v-8.682Zm9.7 10.818v-1.023l3.84-4.204c.45-.493.82-.921 1.12-1.284.29-.368.5-.712.64-1.034.15-.326.22-.667.22-1.023 0-.409-.1-.763-.3-1.063-.19-.299-.45-.53-.79-.693-.34-.163-.72-.244-1.14-.244-.44 0-.83.093-1.17.278-.33.182-.58.438-.77.767-.17.33-.26.716-.26 1.159h-1.34c0-.681.15-1.28.47-1.795.31-.515.74-.917 1.28-1.205.55-.288 1.16-.431 1.84-.431.68 0 1.28.143 1.81.431.53.288.94.676 1.24 1.165.3.489.45 1.032.45 1.631 0 .428-.08.846-.24 1.256-.15.405-.41.857-.79 1.357-.38.497-.9 1.103-1.56 1.819l-2.62 2.795v.091h5.41V169h-7.34Z"/>
    <path stroke="#fff" stroke-linecap="round" stroke-linejoin="round" d="M1143 167.5v.671c0 .263-.05.523-.15.766-.1.243-.25.463-.44.649l-.41.414h6l-.41-.414c-.19-.186-.34-.406-.44-.649-.1-.243-.15-.503-.15-.766v-.671m4-8v6.5c0 .398-.16.779-.44 1.061-.28.281-.66.439-1.06.439h-9c-.4 0-.78-.158-1.06-.439-.28-.282-.44-.663-.44-1.061v-6.5m12 0c0-.398-.16-.779-.44-1.061-.28-.281-.66-.439-1.06-.439h-9c-.4 0-.78.158-1.06.439-.28.282-.44.663-.44 1.061m12 0v4.5c0 .398-.16.779-.44 1.061-.28.281-.66.439-1.06.439h-9c-.4 0-.78-.158-1.06-.439-.28-.282-.44-.663-.44-1.061v-4.5"/>
  </g>
  <rect width="26" height="26" x="888" y="150" fill="#47BC99" rx="4"/>
  <rect width="44" height="26" x="916" y="150" fill="#D946EF" rx="4"/>
  <rect width="12" height="26" x="984" y="150" fill="#D946EF" rx="4"/>
  <rect width="118" height="26" x="998" y="150" fill="#EF4444" rx="4"/>
  <rect width="20" height="26" x="962" y="150" fill="#47BC99" rx="4"/>
  <rect width="348" height="35" x="880.5" y="270.5" stroke="#94A3B8" stroke-opacity=".2" rx="8.5"/>
  <g filter="url(#e)">
    <rect width="89" height="23" x="1133" y="277" fill="#475569" fill-opacity=".4" rx="4"/>
    <path fill="#fff" d="M1161.89 294h-1.48l4.27-11.636h1.46l4.27 11.636h-1.48l-3.48-9.795h-.09l-3.47 9.795Zm.54-4.545h5.96v1.25h-5.96v-1.25Zm13.13 8c-.65 0-1.2-.084-1.67-.25-.46-.163-.85-.379-1.16-.648-.31-.265-.55-.549-.74-.852l1.07-.75c.12.159.28.34.46.545.19.208.44.388.76.54.33.155.76.233 1.28.233.71 0 1.29-.171 1.75-.512.46-.341.68-.875.68-1.602v-1.773h-.11c-.1.159-.24.356-.42.591-.18.231-.44.438-.77.62-.34.178-.79.267-1.35.267-.71 0-1.34-.167-1.9-.5-.56-.334-1-.819-1.33-1.455-.32-.636-.48-1.409-.48-2.318 0-.894.16-1.672.47-2.335.32-.667.75-1.182 1.31-1.546.57-.367 1.21-.551 1.95-.551.57 0 1.02.095 1.35.284.34.186.59.398.77.637.18.234.32.428.42.579h.14v-1.386h1.3v8.977c0 .75-.18 1.36-.52 1.83-.33.473-.79.82-1.36 1.039-.57.224-1.2.336-1.9.336Zm-.04-4.796c.53 0 .99-.123 1.36-.369.37-.246.65-.601.85-1.063.19-.462.29-1.015.29-1.659 0-.629-.1-1.184-.29-1.665-.19-.481-.47-.858-.84-1.13-.37-.273-.83-.409-1.37-.409-.57 0-1.04.144-1.42.431-.38.288-.66.675-.85 1.16-.19.484-.28 1.022-.28 1.613 0 .606.1 1.142.29 1.608.19.462.47.826.85 1.091.38.261.85.392 1.41.392Zm9.93 1.523c-.84 0-1.57-.186-2.18-.557-.6-.375-1.07-.898-1.4-1.568-.33-.674-.49-1.459-.49-2.352 0-.894.16-1.682.49-2.364.33-.686.79-1.22 1.37-1.602.6-.387 1.28-.58 2.07-.58.46 0 .91.076 1.35.227.44.152.85.398 1.21.739.36.337.65.784.87 1.341.21.557.32 1.242.32 2.057v.568h-6.72v-1.159h5.36c0-.493-.1-.932-.3-1.318-.19-.387-.47-.692-.83-.915-.35-.224-.77-.335-1.26-.335-.53 0-.99.132-1.38.397-.39.262-.69.603-.9 1.023-.2.421-.31.871-.31 1.352v.773c0 .659.12 1.218.34 1.676.23.455.55.801.96 1.04.41.235.89.352 1.43.352.35 0 .67-.049.95-.147.29-.103.54-.254.75-.455.21-.205.37-.458.48-.761l1.3.363c-.14.44-.37.826-.69 1.159-.32.33-.72.587-1.19.773-.48.182-1.01.273-1.6.273Zm6.99-5.432V294h-1.34v-8.727h1.3v1.363h.11c.21-.443.52-.799.93-1.068.42-.273.96-.409 1.62-.409.59 0 1.1.121 1.55.364.44.238.79.602 1.03 1.091.25.484.37 1.098.37 1.841V294h-1.34v-5.455c0-.685-.18-1.219-.53-1.602-.36-.386-.85-.579-1.47-.579-.43 0-.81.092-1.15.278-.33.186-.59.456-.79.813-.19.356-.29.787-.29 1.295Zm11.82-3.477v1.136h-4.53v-1.136h4.53Zm-3.21-2.091h1.34v8.318c0 .379.06.663.17.852.11.186.26.311.43.375.18.061.37.091.56.091.15 0 .27-.007.37-.023.09-.018.17-.034.22-.045l.28 1.205c-.09.034-.22.068-.38.102-.17.038-.37.057-.62.057-.38 0-.75-.082-1.12-.245-.36-.163-.66-.411-.9-.744-.23-.333-.35-.754-.35-1.261v-8.682Zm13.63 10.977c-.75 0-1.42-.129-2-.386-.59-.258-1.05-.616-1.39-1.074-.35-.462-.53-.998-.56-1.608h1.43c.03.375.16.699.39.971.22.269.52.478.89.626.37.147.77.221 1.22.221.5 0 .94-.087 1.33-.261.39-.175.69-.417.91-.728.22-.31.33-.67.33-1.079 0-.428-.11-.805-.32-1.131-.21-.329-.52-.587-.93-.772-.41-.186-.91-.279-1.5-.279h-.93v-1.25h.93c.46 0 .87-.083 1.21-.25.36-.167.63-.401.83-.704.2-.303.3-.66.3-1.069 0-.394-.09-.736-.26-1.028-.18-.292-.42-.519-.74-.682-.31-.163-.69-.244-1.11-.244-.41 0-.78.074-1.14.221-.35.144-.64.355-.86.631-.23.273-.35.602-.37.989h-1.36c.02-.61.21-1.144.55-1.603.34-.462.8-.822 1.35-1.079.56-.258 1.18-.386 1.85-.386.72 0 1.34.145 1.85.437.52.288.91.669 1.19 1.142.27.474.41.985.41 1.534 0 .655-.17 1.214-.51 1.676-.34.462-.81.783-1.4.961v.09c.74.122 1.31.434 1.73.938.41.5.62 1.119.62 1.858 0 .632-.18 1.201-.52 1.704-.34.5-.81.894-1.4 1.182-.59.288-1.26.432-2.02.432Z"/>
    <path stroke="#fff" stroke-linecap="round" stroke-linejoin="round" d="M1143 292.5v.671c0 .263-.05.523-.15.766-.1.243-.25.463-.44.649l-.41.414h6l-.41-.414c-.19-.186-.34-.406-.44-.649-.1-.243-.15-.503-.15-.766v-.671m4-8v6.5c0 .398-.16.779-.44 1.061-.28.281-.66.439-1.06.439h-9c-.4 0-.78-.158-1.06-.439-.28-.282-.44-.663-.44-1.061v-6.5m12 0c0-.398-.16-.779-.44-1.061-.28-.281-.66-.439-1.06-.439h-9c-.4 0-.78.158-1.06.439-.28.282-.44.663-.44 1.061m12 0v4.5c0 .398-.16.779-.44 1.061-.28.281-.66.439-1.06.439h-9c-.4 0-.78-.158-1.06-.439-.28-.282-.44-.663-.44-1.061v-4.5"/>
  </g>
  <rect width="62" height="26" x="888" y="275" fill="#FFC562" rx="4"/>
  <rect width="38" height="26" x="952" y="275" fill="#D946EF" rx="4"/>
  <rect width="92" height="26" x="992" y="275" fill="#EF4444" rx="4"/>
  <rect width="348" height="35" x="880.5" y="395.5" stroke="#94A3B8" stroke-opacity=".2" rx="8.5"/>
  <g filter="url(#f)">
    <rect width="89" height="23" x="1133" y="402" fill="#475569" fill-opacity=".4" rx="4"/>
    <path fill="#fff" d="M1161.89 419h-1.48l4.27-11.636h1.46l4.27 11.636h-1.48l-3.48-9.795h-.09l-3.47 9.795Zm.54-4.545h5.96v1.25h-5.96v-1.25Zm13.13 8c-.65 0-1.2-.084-1.67-.25-.46-.163-.85-.379-1.16-.648-.31-.265-.55-.549-.74-.852l1.07-.75c.12.159.28.34.46.545.19.208.44.388.76.54.33.155.76.233 1.28.233.71 0 1.29-.171 1.75-.512.46-.341.68-.875.68-1.602v-1.773h-.11c-.1.159-.24.356-.42.591-.18.231-.44.438-.77.62-.34.178-.79.267-1.35.267-.71 0-1.34-.167-1.9-.5-.56-.334-1-.819-1.33-1.455-.32-.636-.48-1.409-.48-2.318 0-.894.16-1.672.47-2.335.32-.667.75-1.182 1.31-1.546.57-.367 1.21-.551 1.95-.551.57 0 1.02.095 1.35.284.34.186.59.398.77.637.18.234.32.428.42.579h.14v-1.386h1.3v8.977c0 .75-.18 1.36-.52 1.83-.33.473-.79.82-1.36 1.039-.57.224-1.2.336-1.9.336Zm-.04-4.796c.53 0 .99-.123 1.36-.369.37-.246.65-.601.85-1.063.19-.462.29-1.015.29-1.659 0-.629-.1-1.184-.29-1.665-.19-.481-.47-.858-.84-1.13-.37-.273-.83-.409-1.37-.409-.57 0-1.04.144-1.42.431-.38.288-.66.675-.85 1.16-.19.484-.28 1.022-.28 1.613 0 .606.1 1.142.29 1.608.19.462.47.826.85 1.091.38.261.85.392 1.41.392Zm9.93 1.523c-.84 0-1.57-.186-2.18-.557-.6-.375-1.07-.898-1.4-1.568-.33-.674-.49-1.459-.49-2.352 0-.894.16-1.682.49-2.364.33-.686.79-1.22 1.37-1.602.6-.387 1.28-.58 2.07-.58.46 0 .91.076 1.35.227.44.152.85.398 1.21.739.36.337.65.784.87 1.341.21.557.32 1.242.32 2.057v.568h-6.72v-1.159h5.36c0-.493-.1-.932-.3-1.318-.19-.387-.47-.692-.83-.915-.35-.224-.77-.335-1.26-.335-.53 0-.99.132-1.38.397-.39.262-.69.603-.9 1.023-.2.421-.31.871-.31 1.352v.773c0 .659.12 1.218.34 1.676.23.455.55.801.96 1.04.41.235.89.352 1.43.352.35 0 .67-.049.95-.147.29-.103.54-.254.75-.455.21-.205.37-.458.48-.761l1.3.363c-.14.44-.37.826-.69 1.159-.32.33-.72.587-1.19.773-.48.182-1.01.273-1.6.273Zm6.99-5.432V419h-1.34v-8.727h1.3v1.363h.11c.21-.443.52-.799.93-1.068.42-.273.96-.409 1.62-.409.59 0 1.1.121 1.55.364.44.238.79.602 1.03 1.091.25.484.37 1.098.37 1.841V419h-1.34v-5.455c0-.685-.18-1.219-.53-1.602-.36-.386-.85-.579-1.47-.579-.43 0-.81.092-1.15.278-.33.186-.59.456-.79.813-.19.356-.29.787-.29 1.295Zm11.82-3.477v1.136h-4.53v-1.136h4.53Zm-3.21-2.091h1.34v8.318c0 .379.06.663.17.852.11.186.26.311.43.375.18.061.37.091.56.091.15 0 .27-.007.37-.023.09-.018.17-.034.22-.045l.28 1.205c-.09.034-.22.068-.38.102-.17.038-.37.057-.62.057-.38 0-.75-.082-1.12-.245-.36-.163-.66-.411-.9-.744-.23-.333-.35-.754-.35-1.261v-8.682Zm9.43 8.432v-1.159l5.11-8.091h.84v1.795h-.56l-3.87 6.114v.091h6.89v1.25h-8.41Zm5.48 2.386v-11.636h1.34V419h-1.34Z"/>
    <path stroke="#fff" stroke-linecap="round" stroke-linejoin="round" d="M1143 417.5v.671c0 .263-.05.523-.15.766-.1.243-.25.463-.44.649l-.41.414h6l-.41-.414c-.19-.186-.34-.406-.44-.649-.1-.243-.15-.503-.15-.766v-.671m4-8v6.5c0 .398-.16.779-.44 1.061-.28.281-.66.439-1.06.439h-9c-.4 0-.78-.158-1.06-.439-.28-.282-.44-.663-.44-1.061v-6.5m12 0c0-.398-.16-.779-.44-1.061-.28-.281-.66-.439-1.06-.439h-9c-.4 0-.78.158-1.06.439-.28.282-.44.663-.44 1.061m12 0v4.5c0 .398-.16.779-.44 1.061-.28.281-.66.439-1.06.439h-9c-.4 0-.78-.158-1.06-.439-.28-.282-.44-.663-.44-1.061v-4.5"/>
  </g>
  <rect width="102" height="26" x="888" y="400" fill="#FFC562" rx="4"/>
  <rect width="22" height="26" x="992" y="400" fill="#47BC99" rx="4"/>
  <rect width="12" height="26" x="1016" y="400" fill="#47BC99" rx="4"/>
  <rect width="18" height="26" x="1030" y="400" fill="#47BC99" rx="4"/>
  <path fill="#3B82F6" d="M878.061 39.0607c.585-.5858.585-1.5356 0-2.1214l-9.546-9.5459c-.586-.5858-1.536-.5858-2.122 0-.585.5858-.585 1.5355 0 2.1213L874.879 38l-8.486 8.4853c-.585.5858-.585 1.5355 0 2.1213.586.5858 1.536.5858 2.122 0l9.546-9.5459ZM694 227h67.5v-3H694v3Zm93-25.5V62h-3v139.5h3Zm22.5-162H877v-3h-67.5v3ZM787 62c0-12.4264 10.074-22.5 22.5-22.5v-3C795.417 36.5 784 47.9167 784 62h3Zm-25.5 165c14.083 0 25.5-11.417 25.5-25.5h-3c0 12.426-10.074 22.5-22.5 22.5v3Z"/>
  <path fill="#3B82F6" d="M878.061 164.061c.585-.586.585-1.536 0-2.122l-9.546-9.546c-.586-.585-1.536-.585-2.122 0-.585.586-.585 1.536 0 2.122l8.486 8.485-8.486 8.485c-.585.586-.585 1.536 0 2.122.586.585 1.536.585 2.122 0l9.546-9.546ZM694 227h67.5v-3H694v3Zm93-25.5V187h-3v14.5h3Zm22.5-37H877v-3h-67.5v3ZM787 187c0-12.426 10.074-22.5 22.5-22.5v-3c-14.083 0-25.5 11.417-25.5 25.5h3Zm-25.5 40c14.083 0 25.5-11.417 25.5-25.5h-3c0 12.426-10.074 22.5-22.5 22.5v3Z"/>
  <path fill="#3B82F6" d="M878.061 289.061c.585-.586.585-1.536 0-2.122l-9.546-9.546c-.586-.585-1.536-.585-2.122 0-.585.586-.585 1.536 0 2.122l8.486 8.485-8.486 8.485c-.585.586-.585 1.536 0 2.122.586.585 1.536.585 2.122 0l9.546-9.546ZM694 227h67.5v-3H694v3Zm90 22.5V264h3v-14.5h-3Zm25.5 40H877v-3h-67.5v3ZM784 264c0 14.083 11.417 25.5 25.5 25.5v-3c-12.426 0-22.5-10.074-22.5-22.5h-3Zm-22.5-37c12.426 0 22.5 10.074 22.5 22.5h3c0-14.083-11.417-25.5-25.5-25.5v3Z"/>
  <path fill="#3B82F6" d="M878.061 414.061c.585-.586.585-1.536 0-2.122l-9.546-9.546c-.586-.585-1.536-.585-2.122 0-.585.586-.585 1.536 0 2.122l8.486 8.485-8.486 8.485c-.585.586-.585 1.536 0 2.122.586.585 1.536.585 2.122 0l9.546-9.546ZM694 227h67.5v-3H694v3Zm90 22.5V389h3V249.5h-3Zm25.5 165H877v-3h-67.5v3ZM784 389c0 14.083 11.417 25.5 25.5 25.5v-3c-12.426 0-22.5-10.074-22.5-22.5h-3Zm-22.5-162c12.426 0 22.5 10.074 22.5 22.5h3c0-14.083-11.417-25.5-25.5-25.5v3Z"/>
  <path stroke="#9CB0C0" stroke-dasharray="1 8" stroke-linecap="round" stroke-width="4" d="M938 67v12.5c0 11.0457 8.954 20 20 20h25c11.046 0 20 8.954 20 20V132"/>
  <path fill="#9CB0C0" fill-rule="evenodd" d="M1007.23 127c.78 0 1.26.848.86 1.514l-4.23 7.057c-.39.647-1.33.647-1.72 0l-4.231-7.057c-.4-.666.08-1.514.857-1.514h8.464Z" clip-rule="evenodd"/>
  <path fill="#9CB0C0" d="M943.5 67c0 3.0376-2.462 5.5-5.5 5.5s-5.5-2.4624-5.5-5.5 2.462-5.5 5.5-5.5 5.5 2.4624 5.5 5.5Z"/>
  <path stroke="#94A3B8" stroke-linecap="round" stroke-linejoin="round" stroke-width="1.5" d="M1028 112.75v6.75m0 0-3-3m3 3 3-3m-8.25 6c-1.07.002-2.11-.379-2.92-1.073a4.4832 4.4832 0 0 1-1.53-2.713c-.17-1.057.04-2.14.6-3.054.56-.914 1.42-1.6 2.44-1.935a5.276 5.276 0 0 1 .75-3.87c.75-1.143 1.91-1.951 3.24-2.254 1.33-.303 2.72-.076 3.89.632 1.16.708 2.01 1.842 2.35 3.162.54-.173 1.1-.193 1.65-.06.54.134 1.04.417 1.43.817.39.4.66.902.78 1.448.12.547.09 1.116-.1 1.643.82.313 1.5.903 1.93 1.666.43.764.58 1.654.42 2.516-.16.862-.61 1.642-1.28 2.203-.68.562-1.52.871-2.4.872h-11.25Zm5.25 212.25v6.75m0 0-3-3m3 3 3-3m-8.25 6c-1.07.002-2.11-.379-2.92-1.073a4.4832 4.4832 0 0 1-1.53-2.713c-.17-1.057.04-2.14.6-3.054.56-.914 1.42-1.6 2.44-1.935a5.276 5.276 0 0 1 .75-3.87c.75-1.143 1.91-1.951 3.24-2.254 1.33-.303 2.72-.076 3.89.632 1.16.708 2.01 1.842 2.35 3.162.54-.173 1.1-.193 1.65-.06.54.134 1.04.417 1.43.817.39.4.66.902.78 1.448.12.547.09 1.116-.1 1.643.82.313 1.5.903 1.93 1.666.43.764.58 1.654.42 2.516-.16.862-.61 1.642-1.28 2.203-.68.562-1.52.871-2.4.872h-11.25Z"/>
  <path stroke="#9CB0C0" stroke-dasharray="1 8" stroke-linecap="round" stroke-width="4" d="M930 384v-12.5c0-11.046 8.954-20 20-20h25c11.046 0 20-8.954 20-20V319"/>
  <path fill="#9CB0C0" fill-rule="evenodd" d="M990.766 324c-.777 0-1.257-.848-.857-1.514l4.234-7.057c.388-.647 1.326-.647 1.714 0l4.233 7.057c.4.666-.08 1.514-.856 1.514h-8.468Z" clip-rule="evenodd"/>
  <path fill="#9CB0C0" d="M924.5 384c0-3.038 2.462-5.5 5.5-5.5s5.5 2.462 5.5 5.5-2.462 5.5-5.5 5.5-5.5-2.462-5.5-5.5Z"/>
  <defs>
    <filter id="a" width="54" height="27" x="271" y="158" color-interpolation-filters="sRGB" filterUnits="userSpaceOnUse">
      <feFlood flood-opacity="0" result="BackgroundImageFix"/>
      <feColorMatrix in="SourceAlpha" result="hardAlpha" values="0 0 0 0 0 0 0 0 0 0 0 0 0 0 0 0 0 0 127 0"/>
      <feOffset dy="2"/>
      <feGaussianBlur stdDeviation="1"/>
      <feComposite in2="hardAlpha" operator="out"/>
      <feColorMatrix values="0 0 0 0 0 0 0 0 0 0 0 0 0 0 0 0 0 0 0.1 0"/>
      <feBlend in2="BackgroundImageFix" result="effect1_dropShadow_1288_1013"/>
      <feBlend in="SourceGraphic" in2="effect1_dropShadow_1288_1013" result="shape"/>
    </filter>
    <filter id="c" width="93" height="27" x="1131" y="27" color-interpolation-filters="sRGB" filterUnits="userSpaceOnUse">
      <feFlood flood-opacity="0" result="BackgroundImageFix"/>
      <feColorMatrix in="SourceAlpha" result="hardAlpha" values="0 0 0 0 0 0 0 0 0 0 0 0 0 0 0 0 0 0 127 0"/>
      <feOffset dy="2"/>
      <feGaussianBlur stdDeviation="1"/>
      <feComposite in2="hardAlpha" operator="out"/>
      <feColorMatrix values="0 0 0 0 0 0 0 0 0 0 0 0 0 0 0 0 0 0 0.1 0"/>
      <feBlend in2="BackgroundImageFix" result="effect1_dropShadow_1288_1013"/>
      <feBlend in="SourceGraphic" in2="effect1_dropShadow_1288_1013" result="shape"/>
    </filter>
    <filter id="d" width="93" height="27" x="1131" y="152" color-interpolation-filters="sRGB" filterUnits="userSpaceOnUse">
      <feFlood flood-opacity="0" result="BackgroundImageFix"/>
      <feColorMatrix in="SourceAlpha" result="hardAlpha" values="0 0 0 0 0 0 0 0 0 0 0 0 0 0 0 0 0 0 127 0"/>
      <feOffset dy="2"/>
      <feGaussianBlur stdDeviation="1"/>
      <feComposite in2="hardAlpha" operator="out"/>
      <feColorMatrix values="0 0 0 0 0 0 0 0 0 0 0 0 0 0 0 0 0 0 0.1 0"/>
      <feBlend in2="BackgroundImageFix" result="effect1_dropShadow_1288_1013"/>
      <feBlend in="SourceGraphic" in2="effect1_dropShadow_1288_1013" result="shape"/>
    </filter>
    <filter id="e" width="93" height="27" x="1131" y="277" color-interpolation-filters="sRGB" filterUnits="userSpaceOnUse">
      <feFlood flood-opacity="0" result="BackgroundImageFix"/>
      <feColorMatrix in="SourceAlpha" result="hardAlpha" values="0 0 0 0 0 0 0 0 0 0 0 0 0 0 0 0 0 0 127 0"/>
      <feOffset dy="2"/>
      <feGaussianBlur stdDeviation="1"/>
      <feComposite in2="hardAlpha" operator="out"/>
      <feColorMatrix values="0 0 0 0 0 0 0 0 0 0 0 0 0 0 0 0 0 0 0.1 0"/>
      <feBlend in2="BackgroundImageFix" result="effect1_dropShadow_1288_1013"/>
      <feBlend in="SourceGraphic" in2="effect1_dropShadow_1288_1013" result="shape"/>
    </filter>
    <filter id="f" width="93" height="27" x="1131" y="402" color-interpolation-filters="sRGB" filterUnits="userSpaceOnUse">
      <feFlood flood-opacity="0" result="BackgroundImageFix"/>
      <feColorMatrix in="SourceAlpha" result="hardAlpha" values="0 0 0 0 0 0 0 0 0 0 0 0 0 0 0 0 0 0 127 0"/>
      <feOffset dy="2"/>
      <feGaussianBlur stdDeviation="1"/>
      <feComposite in2="hardAlpha" operator="out"/>
      <feColorMatrix values="0 0 0 0 0 0 0 0 0 0 0 0 0 0 0 0 0 0 0.1 0"/>
      <feBlend in2="BackgroundImageFix" result="effect1_dropShadow_1288_1013"/>
      <feBlend in="SourceGraphic" in2="effect1_dropShadow_1288_1013" result="shape"/>
    </filter>
    <clipPath id="b">
      <path fill="#fff" d="M521 208h-36v36h36z"/>
    </clipPath>
  </defs>
</svg>
