<svg xmlns="http://www.w3.org/2000/svg" viewBox="0 0 420 340" width="420" height="340" font-family="system-ui, -apple-system, sans-serif" font-size="13">
  <marker id="arrow" viewBox="0 0 10 10" refX="9" refY="5" markerWidth="7" markerHeight="7" orient="auto-start-reverse">
    <path d="M 0 0 L 10 5 L 0 10 z" fill="#555"/>
  </marker>

  <!-- Row 1: e2e apps -->
  <rect x="60" y="10" width="110" height="36" rx="3" fill="#f5f5f5" stroke="#888" stroke-width="1"/>
  <text x="115" y="33" text-anchor="middle">agent-e2e</text>

  <rect x="260" y="10" width="110" height="36" rx="3" fill="#f5f5f5" stroke="#888" stroke-width="1"/>
  <text x="315" y="33" text-anchor="middle">tickets-e2e</text>

  <!-- Row 2: apps -->
  <rect x="80" y="90" width="90" height="36" rx="3" fill="#f5f5f5" stroke="#888" stroke-width="1"/>
  <text x="125" y="113" text-anchor="middle">agent</text>

  <rect x="270" y="90" width="90" height="36" rx="3" fill="#f5f5f5" stroke="#888" stroke-width="1"/>
  <text x="315" y="113" text-anchor="middle">tickets</text>

  <!-- Row 3: libs -->
  <rect x="10" y="180" width="90" height="36" rx="3" fill="#f5f5f5" stroke="#888" stroke-width="1"/>
  <text x="55" y="203" text-anchor="middle">agent-api</text>

  <rect x="140" y="180" width="90" height="36" rx="3" fill="#f5f5f5" stroke="#888" stroke-width="1"/>
  <text x="185" y="203" text-anchor="middle">api</text>

  <ellipse cx="320" cy="198" rx="60" ry="20" fill="#e8e8e8" stroke="#888" stroke-width="1"/>
  <text x="320" y="203" text-anchor="middle">ticket-list</text>

  <!-- Row 4: data lib -->
  <ellipse cx="210" cy="295" rx="55" ry="20" fill="#e8e8e8" stroke="#888" stroke-width="1"/>
  <text x="210" y="300" text-anchor="middle">data</text>

  <!-- Arrows: e2e -> apps -->
  <line x1="115" y1="46" x2="122" y2="88" stroke="#555" stroke-width="1.2" marker-end="url(#arrow)"/>
  <line x1="315" y1="46" x2="315" y2="88" stroke="#555" stroke-width="1.2" marker-end="url(#arrow)"/>

  <!-- Arrows: agent -> agent-api, api -->
  <line x1="105" y1="126" x2="70" y2="178" stroke="#555" stroke-width="1.2" marker-end="url(#arrow)"/>
  <line x1="145" y1="126" x2="175" y2="178" stroke="#555" stroke-width="1.2" marker-end="url(#arrow)"/>

  <!-- Arrows: tickets -> api, ticket-list -->
  <line x1="295" y1="126" x2="205" y2="178" stroke="#555" stroke-width="1.2" marker-end="url(#arrow)"/>
  <line x1="320" y1="126" x2="320" y2="176" stroke="#555" stroke-width="1.2" marker-end="url(#arrow)"/>

  <!-- Arrows: agent-api -> data -->
  <line x1="75" y1="216" x2="170" y2="285" stroke="#555" stroke-width="1.2" marker-end="url(#arrow)"/>

  <!-- Arrows: api -> data -->
  <line x1="190" y1="216" x2="205" y2="273" stroke="#555" stroke-width="1.2" marker-end="url(#arrow)"/>

  <!-- Arrows: ticket-list -> data -->
  <line x1="295" y1="215" x2="248" y2="282" stroke="#555" stroke-width="1.2" marker-end="url(#arrow)"/>

  <!-- Arrows: tickets -> data (wide curve around ticket-list) -->
  <path d="M 355,126 C 415,160 415,280 262,293" stroke="#555" stroke-width="1.2" fill="none" marker-end="url(#arrow)"/>
</svg>
