<svg width="543" height="151" viewBox="0 0 543 151" fill="none" xmlns="http://www.w3.org/2000/svg">
<path d="M113.717 43.9273V36.3773H115.185V37.8187H115.542L115.185 38.1618C115.185 37.5578 115.364 37.0866 115.721 36.7479C116.078 36.4093 116.572 36.24 117.203 36.24C117.954 36.24 118.553 36.4826 119.002 36.9676C119.45 37.4435 119.674 38.0887 119.674 38.9031V43.9273H118.192V39.0678C118.192 38.5737 118.059 38.1938 117.794 37.9285C117.528 37.6631 117.167 37.5304 116.709 37.5304C116.242 37.5304 115.872 37.6722 115.597 37.9559C115.332 38.2305 115.199 38.6331 115.199 39.1639V43.9273H113.717ZM121.385 43.9273L124.034 40.0287L121.55 36.3773H123.252L124.583 38.4638C124.647 38.5737 124.711 38.6927 124.775 38.8207C124.84 38.9398 124.89 39.0404 124.926 39.1227C124.954 39.0404 125 38.9398 125.064 38.8207C125.128 38.6927 125.192 38.5737 125.256 38.4638L126.587 36.3773H128.29L125.805 40.0425L128.441 43.9273H126.738L125.27 41.6623C125.206 41.5525 125.142 41.4289 125.077 41.2917C125.013 41.1544 124.963 41.0446 124.926 40.9622C124.89 41.0446 124.835 41.1544 124.762 41.2917C124.698 41.4289 124.629 41.5525 124.556 41.6623L123.073 43.9273H121.385Z" fill="#94A3B8"/>
<path d="M144.381 43.1036L138.368 40.1797V38.6285L144.381 35.7046V37.0911L140.276 39.0541C140.094 39.1365 139.919 39.2096 139.755 39.2737C139.59 39.3286 139.466 39.3653 139.384 39.3835C139.476 39.4018 139.604 39.4385 139.768 39.4934C139.943 39.5483 140.111 39.6169 140.276 39.6993L144.381 41.676V43.1036ZM150.429 43.9273C149.742 43.9273 149.207 43.7396 148.823 43.3645C148.438 42.9893 148.246 42.4677 148.246 41.7995V37.7225H146.16V36.3773H148.246V34.2495H149.729V36.3773H152.68V37.7225H149.729V41.7995C149.729 42.3212 149.981 42.582 150.484 42.582H152.543V43.9273H150.429ZM157.081 44.0645C156.295 44.0645 155.673 43.8632 155.214 43.4605C154.767 43.0487 154.542 42.4904 154.542 41.7858C154.542 41.072 154.78 40.5137 155.255 40.1111C155.741 39.6993 156.404 39.4934 157.246 39.4934H159.346V38.7933C159.346 38.3815 159.218 38.0612 158.962 37.8324C158.706 37.6035 158.344 37.4892 157.877 37.4892C157.465 37.4892 157.122 37.5807 156.848 37.7637C156.573 37.9377 156.414 38.171 156.367 38.4638H154.912C154.995 37.7867 155.306 37.2466 155.846 36.844C156.395 36.4414 157.087 36.24 157.918 36.24C158.816 36.24 159.525 36.4688 160.046 36.9264C160.568 37.3748 160.829 37.9879 160.829 38.7658V43.9273H159.387V42.5408H159.14L159.387 42.2663C159.387 42.8154 159.177 43.2546 158.756 43.5841C158.336 43.9044 157.777 44.0645 157.081 44.0645ZM157.52 42.9252C158.052 42.9252 158.487 42.7924 158.824 42.5271C159.173 42.2525 159.346 41.9048 159.346 41.4838V40.4955H157.273C156.889 40.4955 156.583 40.6007 156.354 40.8112C156.134 41.0216 156.024 41.3099 156.024 41.676C156.024 42.0604 156.157 42.3669 156.422 42.5957C156.688 42.8154 157.054 42.9252 157.52 42.9252ZM163.35 43.9273V36.3773H164.778V37.8186H165.135L164.682 38.7109C164.682 37.8965 164.86 37.2833 165.217 36.8715C165.574 36.4504 166.104 36.24 166.81 36.24C167.614 36.24 168.251 36.4916 168.718 36.995C169.193 37.4892 169.432 38.171 169.432 39.0404V39.5483H167.908V39.1639C167.908 38.624 167.771 38.2122 167.496 37.9285C167.23 37.6356 166.855 37.4892 166.37 37.4892C165.884 37.4892 165.505 37.6356 165.231 37.9285C164.965 38.2213 164.833 38.6331 164.833 39.1639V43.9273H163.35ZM172.322 46.3982V45.1216H174.642C175.027 45.1216 175.31 45.03 175.493 44.847C175.686 44.664 175.782 44.394 175.782 44.0371V43.2821L175.809 41.8819H175.493L175.795 41.6074C175.795 42.1839 175.612 42.6369 175.246 42.9664C174.889 43.2958 174.404 43.4605 173.791 43.4605C173.013 43.4605 172.399 43.2043 171.952 42.6918C171.503 42.1794 171.279 41.4884 171.279 40.619V39.0815C171.279 38.2122 171.503 37.5212 171.952 37.0087C172.399 36.4963 173.013 36.24 173.791 36.24C174.404 36.24 174.889 36.4093 175.246 36.7479C175.612 37.0774 175.795 37.5304 175.795 38.1069L175.493 37.8186H175.795L175.782 36.3773H177.251V44.0645C177.251 44.7876 177.021 45.3549 176.564 45.7667C176.106 46.1878 175.47 46.3982 174.656 46.3982H172.322ZM174.272 42.1839C174.738 42.1839 175.104 42.0421 175.37 41.7584C175.644 41.4656 175.782 41.0628 175.782 40.5504V39.1639C175.782 38.6515 175.644 38.2534 175.37 37.9696C175.104 37.6768 174.738 37.5304 174.272 37.5304C173.786 37.5304 173.411 37.6722 173.146 37.9559C172.889 38.2305 172.762 38.6331 172.762 39.1639V40.5504C172.762 41.072 172.889 41.4746 173.146 41.7584C173.411 42.0421 173.786 42.1839 174.272 42.1839ZM182.53 44.0645C181.916 44.0645 181.377 43.9455 180.91 43.7076C180.452 43.4606 180.1 43.1174 179.853 42.6781C179.606 42.2388 179.483 41.7264 179.483 41.1406V39.1639C179.483 38.5691 179.606 38.0565 179.853 37.6265C180.1 37.1872 180.452 36.8485 180.91 36.6106C181.377 36.3635 181.916 36.24 182.53 36.24C183.152 36.24 183.691 36.3635 184.15 36.6106C184.607 36.8485 184.96 37.1872 185.207 37.6265C185.454 38.0565 185.578 38.5691 185.578 39.1639V40.5092H180.91V41.1406C180.91 41.6989 181.048 42.1245 181.322 42.4173C181.605 42.7101 182.013 42.8565 182.544 42.8565C182.973 42.8565 183.321 42.7834 183.587 42.6369C183.852 42.4814 184.017 42.2571 184.081 41.9643H185.55C185.44 42.6049 185.111 43.1174 184.562 43.5017C184.013 43.8769 183.334 44.0645 182.53 44.0645ZM184.15 39.6169V39.1502C184.15 38.6011 184.013 38.1755 183.738 37.8735C183.464 37.5715 183.06 37.4205 182.53 37.4205C182.008 37.4205 181.605 37.5715 181.322 37.8735C181.048 38.1755 180.91 38.6056 180.91 39.1639V39.5071L184.26 39.4934L184.15 39.6169ZM191.585 43.9273C190.898 43.9273 190.363 43.7396 189.979 43.3645C189.594 42.9893 189.402 42.4677 189.402 41.7995V37.7225H187.315V36.3773H189.402V34.2495H190.884V36.3773H193.836V37.7225H190.884V41.7995C190.884 42.3212 191.136 42.582 191.639 42.582H193.699V43.9273H191.585ZM204.258 43.9273V36.3773H205.726V37.8186H206.083L205.726 38.1618C205.726 37.5578 205.905 37.0866 206.262 36.7479C206.619 36.4093 207.113 36.24 207.744 36.24C208.495 36.24 209.094 36.4826 209.543 36.9675C209.992 37.4435 210.215 38.0887 210.215 38.9031V43.9273H208.733V39.0678C208.733 38.5736 208.6 38.1938 208.335 37.9285C208.07 37.6631 207.707 37.5304 207.25 37.5304C206.783 37.5304 206.413 37.6722 206.138 37.9559C205.873 38.2305 205.74 38.6331 205.74 39.1639V43.9273H204.258ZM214.699 44.0645C213.912 44.0645 213.289 43.8632 212.832 43.4605C212.383 43.0487 212.159 42.4904 212.159 41.7858C212.159 41.072 212.397 40.5137 212.873 40.1111C213.357 39.6993 214.022 39.4934 214.863 39.4934H216.964V38.7933C216.964 38.3815 216.836 38.0612 216.579 37.8324C216.323 37.6035 215.961 37.4892 215.495 37.4892C215.083 37.4892 214.74 37.5807 214.465 37.7637C214.191 37.9377 214.03 38.171 213.985 38.4638H212.53C212.612 37.7867 212.924 37.2466 213.463 36.844C214.012 36.4414 214.703 36.24 215.536 36.24C216.432 36.24 217.142 36.4688 217.664 36.9264C218.185 37.3748 218.446 37.9879 218.446 38.7658V43.9273H217.005V42.5408H216.758L217.005 42.2663C217.005 42.8154 216.795 43.2546 216.373 43.5841C215.952 43.9044 215.395 44.0645 214.699 44.0645ZM215.138 42.9252C215.669 42.9252 216.103 42.7924 216.442 42.5271C216.789 42.2525 216.964 41.9048 216.964 41.4838V40.4955H214.891C214.506 40.4955 214.2 40.6007 213.971 40.8112C213.751 41.0216 213.642 41.3099 213.642 41.676C213.642 42.0604 213.775 42.3669 214.04 42.5957C214.305 42.8154 214.671 42.9252 215.138 42.9252ZM220.376 43.9273V36.3773H221.612V37.3382H221.886L221.68 37.6265C221.68 37.2054 221.796 36.8715 222.023 36.6244C222.253 36.3681 222.559 36.24 222.943 36.24C223.355 36.24 223.671 36.4002 223.89 36.7205C224.12 37.0407 224.234 37.48 224.234 38.0383L223.904 37.3382H224.426L224.206 37.6265C224.206 37.2054 224.321 36.8715 224.549 36.6244C224.788 36.3681 225.104 36.24 225.496 36.24C225.963 36.24 226.33 36.4185 226.595 36.7754C226.861 37.1231 226.993 37.5898 226.993 38.1755V43.9273H225.675V38.2167C225.675 37.933 225.612 37.7133 225.483 37.5578C225.365 37.4023 225.19 37.3245 224.961 37.3245C224.733 37.3245 224.555 37.4023 224.426 37.5578C224.308 37.7043 224.247 37.9193 224.247 38.203V43.9273H223.135V38.2167C223.135 37.9239 223.072 37.7043 222.943 37.5578C222.816 37.4023 222.633 37.3245 222.394 37.3245C222.166 37.3245 221.992 37.4023 221.872 37.5578C221.763 37.7043 221.708 37.9193 221.708 38.203V43.9273H220.376ZM231.915 44.0645C231.303 44.0645 230.762 43.9455 230.296 43.7076C229.838 43.4606 229.486 43.1174 229.239 42.6781C228.991 42.2388 228.868 41.7264 228.868 41.1406V39.1639C228.868 38.5691 228.991 38.0565 229.239 37.6265C229.486 37.1872 229.838 36.8485 230.296 36.6106C230.762 36.3635 231.303 36.24 231.915 36.24C232.539 36.24 233.078 36.3635 233.535 36.6106C233.994 36.8485 234.345 37.1872 234.592 37.6265C234.839 38.0565 234.963 38.5691 234.963 39.1639V40.5092H230.296V41.1406C230.296 41.6989 230.433 42.1245 230.707 42.4173C230.991 42.7101 231.399 42.8565 231.929 42.8565C232.36 42.8565 232.707 42.7834 232.972 42.6369C233.239 42.4814 233.403 42.2571 233.467 41.9643H234.935C234.826 42.6049 234.496 43.1174 233.947 43.5017C233.398 43.8769 232.721 44.0645 231.915 44.0645ZM233.535 39.6169V39.1502C233.535 38.6011 233.398 38.1755 233.123 37.8735C232.849 37.5715 232.447 37.4205 231.915 37.4205C231.394 37.4205 230.991 37.5715 230.707 37.8735C230.433 38.1755 230.296 38.6056 230.296 39.1639V39.5071L233.645 39.4934L233.535 39.6169ZM237.14 43.1036V41.7035L241.244 39.7405C241.428 39.6581 241.601 39.5895 241.766 39.5345C241.931 39.4796 242.054 39.443 242.137 39.4247C242.046 39.4065 241.913 39.3698 241.739 39.3149C241.574 39.2508 241.409 39.1776 241.244 39.0953L237.14 37.1323V35.7046L243.152 38.6285V40.1797L237.14 43.1036Z" fill="#6366F1"/>
<path d="M259.615 43.1036L253.603 40.1797V38.6285L259.615 35.7046V37.0911L255.511 39.0541C255.327 39.1364 255.154 39.2096 254.989 39.2737C254.825 39.3286 254.701 39.3653 254.619 39.3835C254.709 39.4018 254.838 39.4384 255.003 39.4934C255.176 39.5483 255.346 39.6169 255.511 39.6993L259.615 41.676V43.1036ZM261.875 46.3982V36.3773H263.344V37.8186H263.66L263.344 38.1618C263.344 37.567 263.526 37.1003 263.893 36.7616C264.268 36.4139 264.766 36.24 265.389 36.24C266.148 36.24 266.752 36.4963 267.201 37.0087C267.658 37.5121 267.887 38.203 267.887 39.0815V41.2093C267.887 41.795 267.782 42.3029 267.572 42.733C267.37 43.154 267.082 43.4835 266.707 43.7214C266.34 43.9502 265.901 44.0645 265.389 44.0645C264.776 44.0645 264.281 43.8953 263.907 43.5566C263.53 43.2089 263.344 42.7375 263.344 42.1427L263.66 42.4859H263.316L263.358 44.243V46.3982H261.875ZM264.881 42.7742C265.366 42.7742 265.741 42.6369 266.007 42.3624C266.281 42.0786 266.419 41.6715 266.419 41.1406V39.1639C266.419 38.6331 266.281 38.2304 266.007 37.9559C265.741 37.6722 265.366 37.5304 264.881 37.5304C264.415 37.5304 264.044 37.6768 263.769 37.9696C263.495 38.2534 263.358 38.6515 263.358 39.1639V41.1406C263.358 41.6531 263.495 42.0558 263.769 42.3486C264.044 42.6324 264.415 42.7742 264.881 42.7742ZM270.353 43.9273V36.3773H271.781V37.8186H272.137L271.684 38.7109C271.684 37.8965 271.863 37.2833 272.22 36.8714C272.577 36.4504 273.107 36.24 273.812 36.24C274.617 36.24 275.254 36.4916 275.72 36.995C276.195 37.4892 276.434 38.171 276.434 39.0404V39.5483H274.91V39.1639C274.91 38.624 274.773 38.2122 274.499 37.9284C274.232 37.6356 273.857 37.4892 273.373 37.4892C272.887 37.4892 272.508 37.6356 272.234 37.9284C271.967 38.2212 271.835 38.6331 271.835 39.1639V43.9273H270.353ZM281.302 44.0508C280.68 44.0508 280.139 43.9318 279.682 43.6939C279.225 43.456 278.872 43.1174 278.625 42.6781C278.378 42.2388 278.254 41.7217 278.254 41.1269V39.1776C278.254 38.5736 278.378 38.0565 278.625 37.6264C278.872 37.1872 279.225 36.8485 279.682 36.6106C280.139 36.3727 280.68 36.2537 281.302 36.2537C281.924 36.2537 282.464 36.3727 282.922 36.6106C283.379 36.8485 283.731 37.1872 283.979 37.6264C284.226 38.0565 284.349 38.5736 284.349 39.1776V41.1269C284.349 41.7217 284.226 42.2388 283.979 42.6781C283.731 43.1174 283.379 43.456 282.922 43.6939C282.464 43.9318 281.924 44.0508 281.302 44.0508ZM281.302 42.7467C281.806 42.7467 282.194 42.6095 282.469 42.3349C282.743 42.0512 282.88 41.6485 282.88 41.1269V39.1776C282.88 38.6468 282.743 38.2442 282.469 37.9696C282.194 37.6951 281.806 37.5578 281.302 37.5578C280.808 37.5578 280.419 37.6951 280.135 37.9696C279.86 38.2442 279.723 38.6468 279.723 39.1776V41.1269C279.723 41.6485 279.86 42.0512 280.135 42.3349C280.419 42.6095 280.808 42.7467 281.302 42.7467ZM286.568 46.3982V45.0255H288.462C288.966 45.0255 289.358 44.8882 289.642 44.6136C289.927 44.3391 290.068 43.9502 290.068 43.4468V37.7363H286.979V36.3773H291.551V43.4605C291.551 44.3665 291.276 45.0804 290.727 45.602C290.178 46.1328 289.437 46.3982 288.503 46.3982H286.568ZM290.741 35.0732C290.421 35.0732 290.164 34.9908 289.972 34.8261C289.78 34.6522 289.684 34.4235 289.684 34.1397C289.684 33.8469 289.78 33.6181 289.972 33.4534C290.164 33.2794 290.421 33.1925 290.741 33.1925C291.06 33.1925 291.317 33.2794 291.509 33.4534C291.702 33.6181 291.798 33.8469 291.798 34.1397C291.798 34.4235 291.702 34.6522 291.509 34.8261C291.317 34.9908 291.06 35.0732 290.741 35.0732ZM297.763 44.0645C297.15 44.0645 296.61 43.9455 296.144 43.7076C295.687 43.4605 295.334 43.1174 295.087 42.6781C294.84 42.2388 294.716 41.7264 294.716 41.1406V39.1639C294.716 38.5691 294.84 38.0565 295.087 37.6264C295.334 37.1872 295.687 36.8485 296.144 36.6106C296.61 36.3635 297.15 36.24 297.763 36.24C298.385 36.24 298.926 36.3635 299.383 36.6106C299.84 36.8485 300.193 37.1872 300.44 37.6264C300.687 38.0565 300.811 38.5691 300.811 39.1639V40.5092H296.144V41.1406C296.144 41.6989 296.281 42.1245 296.555 42.4173C296.84 42.7101 297.246 42.8565 297.777 42.8565C298.207 42.8565 298.556 42.7834 298.821 42.6369C299.085 42.4814 299.25 42.2571 299.315 41.9643H300.783C300.674 42.6049 300.344 43.1174 299.795 43.5017C299.246 43.8769 298.569 44.0645 297.763 44.0645ZM299.383 39.6169V39.1502C299.383 38.6011 299.246 38.1755 298.972 37.8735C298.697 37.5715 298.295 37.4205 297.763 37.4205C297.242 37.4205 296.84 37.5715 296.555 37.8735C296.281 38.1755 296.144 38.6056 296.144 39.1639V39.5071L299.493 39.4934L299.383 39.6169ZM306.049 44.0645C305.427 44.0645 304.878 43.9502 304.402 43.7214C303.935 43.4835 303.574 43.1448 303.318 42.7055C303.07 42.2571 302.947 41.7354 302.947 41.1406V39.1639C302.947 38.5599 303.07 38.0383 303.318 37.599C303.574 37.1597 303.935 36.8257 304.402 36.5969C304.878 36.359 305.427 36.24 306.049 36.24C306.955 36.24 307.683 36.4779 308.232 36.9538C308.781 37.4297 309.069 38.0794 309.097 38.9031H307.614C307.587 38.473 307.436 38.1389 307.161 37.901C306.887 37.6631 306.516 37.5441 306.049 37.5441C305.545 37.5441 305.147 37.6859 304.855 37.9696C304.563 38.2442 304.416 38.6377 304.416 39.1502V41.1406C304.416 41.6531 304.563 42.0512 304.855 42.3349C305.147 42.6186 305.545 42.7605 306.049 42.7605C306.516 42.7605 306.887 42.6414 307.161 42.4035C307.436 42.1656 307.587 41.8315 307.614 41.4015H309.097C309.069 42.2251 308.781 42.8748 308.232 43.3507C307.683 43.8266 306.955 44.0645 306.049 44.0645ZM315.049 43.9273C314.362 43.9273 313.827 43.7396 313.443 43.3645C313.058 42.9893 312.866 42.4676 312.866 41.7995V37.7225H310.78V36.3773H312.866V34.2495H314.349V36.3773H317.3V37.7225H314.349V41.7995C314.349 42.3212 314.601 42.582 315.104 42.582H317.163V43.9273H315.049ZM327.722 43.9273V36.3773H329.191V37.8186H329.548L329.191 38.1618C329.191 37.5578 329.369 37.0866 329.726 36.7479C330.083 36.4092 330.577 36.24 331.209 36.24C331.959 36.24 332.559 36.4826 333.007 36.9675C333.456 37.4435 333.679 38.0886 333.679 38.9031V43.9273H332.197V39.0678C332.197 38.5736 332.065 38.1938 331.799 37.9284C331.534 37.6631 331.173 37.5304 330.714 37.5304C330.248 37.5304 329.877 37.6722 329.602 37.9559C329.338 38.2304 329.204 38.6331 329.204 39.1639V43.9273H327.722ZM338.164 44.0645C337.376 44.0645 336.754 43.8632 336.297 43.4605C335.848 43.0487 335.625 42.4904 335.625 41.7858C335.625 41.072 335.862 40.5137 336.338 40.1111C336.823 39.6993 337.486 39.4934 338.329 39.4934H340.429V38.7933C340.429 38.3814 340.3 38.0612 340.045 37.8324C339.788 37.6035 339.427 37.4892 338.96 37.4892C338.549 37.4892 338.205 37.5807 337.931 37.7637C337.656 37.9376 337.496 38.171 337.45 38.4638H335.995C336.078 37.7866 336.388 37.2466 336.929 36.844C337.478 36.4414 338.168 36.24 339.002 36.24C339.898 36.24 340.608 36.4688 341.129 36.9264C341.651 37.3748 341.912 37.9879 341.912 38.7658V43.9273H340.47V42.5408H340.223L340.47 42.2663C340.47 42.8154 340.259 43.2546 339.839 43.5841C339.417 43.9043 338.859 44.0645 338.164 44.0645ZM338.603 42.9252C339.133 42.9252 339.568 42.7924 339.908 42.5271C340.255 42.2525 340.429 41.9048 340.429 41.4838V40.4954H338.356C337.972 40.4954 337.665 40.6007 337.437 40.8112C337.217 41.0216 337.107 41.3099 337.107 41.676C337.107 42.0604 337.239 42.3669 337.505 42.5957C337.77 42.8154 338.137 42.9252 338.603 42.9252ZM343.842 43.9273V36.3773H345.077V37.3382H345.352L345.146 37.6264C345.146 37.2054 345.26 36.8714 345.489 36.6244C345.717 36.3681 346.024 36.24 346.409 36.24C346.821 36.24 347.136 36.4002 347.356 36.7204C347.584 37.0407 347.699 37.48 347.699 38.0383L347.37 37.3382H347.891L347.672 37.6264C347.672 37.2054 347.786 36.8714 348.015 36.6244C348.252 36.3681 348.568 36.24 348.962 36.24C349.429 36.24 349.794 36.4184 350.06 36.7754C350.325 37.1231 350.458 37.5898 350.458 38.1755V43.9273H349.14V38.2167C349.14 37.933 349.076 37.7133 348.948 37.5578C348.829 37.4023 348.655 37.3244 348.427 37.3244C348.197 37.3244 348.019 37.4023 347.891 37.5578C347.772 37.7043 347.713 37.9193 347.713 38.203V43.9273H346.601V38.2167C346.601 37.9239 346.536 37.7043 346.409 37.5578C346.28 37.4023 346.097 37.3244 345.86 37.3244C345.63 37.3244 345.456 37.4023 345.338 37.5578C345.228 37.7043 345.173 37.9193 345.173 38.203V43.9273H343.842ZM355.381 44.0645C354.767 44.0645 354.228 43.9455 353.761 43.7076C353.303 43.4605 352.951 43.1174 352.704 42.6781C352.457 42.2388 352.333 41.7264 352.333 41.1406V39.1639C352.333 38.5691 352.457 38.0565 352.704 37.6264C352.951 37.1872 353.303 36.8485 353.761 36.6106C354.228 36.3635 354.767 36.24 355.381 36.24C356.003 36.24 356.542 36.3635 357.001 36.6106C357.458 36.8485 357.811 37.1872 358.058 37.6264C358.305 38.0565 358.428 38.5691 358.428 39.1639V40.5092H353.761V41.1406C353.761 41.6989 353.898 42.1245 354.173 42.4173C354.456 42.7101 354.863 42.8565 355.395 42.8565C355.824 42.8565 356.172 42.7834 356.438 42.6369C356.703 42.4814 356.868 42.2571 356.932 41.9643H358.401C358.291 42.6049 357.962 43.1174 357.413 43.5017C356.863 43.8769 356.185 44.0645 355.381 44.0645ZM357.001 39.6169V39.1502C357.001 38.6011 356.863 38.1755 356.589 37.8735C356.314 37.5715 355.911 37.4205 355.381 37.4205C354.859 37.4205 354.456 37.5715 354.173 37.8735C353.898 38.1755 353.761 38.6056 353.761 39.1639V39.5071L357.111 39.4934L357.001 39.6169ZM360.605 43.1036V41.7034L364.71 39.7405C364.893 39.6581 365.067 39.5894 365.232 39.5345C365.396 39.4796 365.52 39.443 365.602 39.4247C365.51 39.4065 365.377 39.3698 365.204 39.3149C365.039 39.2508 364.875 39.1776 364.71 39.0953L360.605 37.1323V35.7046L366.618 38.6285V40.1797L360.605 43.1036Z" fill="#F43F5E"/>
<path d="M383.08 43.1036L377.067 40.1797V38.6285L383.08 35.7046V37.0911L378.975 39.0541C378.793 39.1364 378.618 39.2096 378.454 39.2737C378.289 39.3286 378.165 39.3653 378.083 39.3835C378.175 39.4018 378.303 39.4384 378.467 39.4934C378.642 39.5483 378.81 39.6169 378.975 39.6993L383.08 41.676V43.1036ZM388.304 44.0508C387.682 44.0508 387.142 43.9318 386.684 43.6939C386.227 43.456 385.875 43.1174 385.627 42.6781C385.38 42.2388 385.257 41.7217 385.257 41.1269V39.1776C385.257 38.5736 385.38 38.0565 385.627 37.6264C385.875 37.1872 386.227 36.8485 386.684 36.6106C387.142 36.3727 387.682 36.2537 388.304 36.2537C388.926 36.2537 389.467 36.3727 389.924 36.6106C390.381 36.8485 390.734 37.1872 390.981 37.6264C391.228 38.0565 391.352 38.5736 391.352 39.1776V41.1269C391.352 41.7217 391.228 42.2388 390.981 42.6781C390.734 43.1174 390.381 43.456 389.924 43.6939C389.467 43.9318 388.926 44.0508 388.304 44.0508ZM388.304 42.7467C388.808 42.7467 389.197 42.6095 389.471 42.3349C389.746 42.0512 389.883 41.6485 389.883 41.1269V39.1776C389.883 38.6468 389.746 38.2442 389.471 37.9696C389.197 37.6951 388.808 37.5578 388.304 37.5578C387.81 37.5578 387.422 37.6951 387.137 37.9696C386.863 38.2442 386.726 38.6468 386.726 39.1776V41.1269C386.726 41.6485 386.863 42.0512 387.137 42.3349C387.422 42.6095 387.81 42.7467 388.304 42.7467ZM393.57 46.3982V36.3773H395.039V37.8186H395.355L395.039 38.1618C395.039 37.567 395.223 37.1003 395.588 36.7616C395.964 36.4139 396.462 36.24 397.084 36.24C397.845 36.24 398.449 36.4963 398.896 37.0087C399.355 37.5121 399.583 38.203 399.583 39.0815V41.2093C399.583 41.795 399.478 42.3029 399.267 42.733C399.066 43.154 398.778 43.4835 398.402 43.7214C398.037 43.9502 397.598 44.0645 397.084 44.0645C396.472 44.0645 395.978 43.8953 395.602 43.5566C395.227 43.2089 395.039 42.7375 395.039 42.1427L395.355 42.4859H395.011L395.053 44.243V46.3982H393.57ZM396.576 42.7742C397.062 42.7742 397.437 42.6369 397.702 42.3624C397.976 42.0786 398.114 41.6715 398.114 41.1406V39.1639C398.114 38.6331 397.976 38.2304 397.702 37.9559C397.437 37.6722 397.062 37.5304 396.576 37.5304C396.11 37.5304 395.739 37.6768 395.464 37.9696C395.19 38.2534 395.053 38.6515 395.053 39.1639V41.1406C395.053 41.6531 395.19 42.0558 395.464 42.3486C395.739 42.6324 396.11 42.7742 396.576 42.7742ZM405.59 43.9273C404.903 43.9273 404.368 43.7396 403.984 43.3645C403.599 42.9893 403.407 42.4676 403.407 41.7995V37.7225H401.32V36.3773H403.407V34.2495H404.89V36.3773H407.841V37.7225H404.89V41.7995C404.89 42.3212 405.142 42.582 405.645 42.582H407.704V43.9273H405.59ZM409.991 43.9273V42.582H412.64V37.7225H410.334V36.3773H414.081V42.582H416.511V43.9273H409.991ZM413.217 35.0732C412.897 35.0732 412.64 34.9908 412.448 34.8261C412.256 34.6522 412.159 34.4235 412.159 34.1397C412.159 33.8469 412.256 33.6181 412.448 33.4534C412.64 33.2794 412.897 33.1925 413.217 33.1925C413.538 33.1925 413.793 33.2794 413.985 33.4534C414.177 33.6181 414.273 33.8469 414.273 34.1397C414.273 34.4235 414.177 34.6522 413.985 34.8261C413.793 34.9908 413.538 35.0732 413.217 35.0732ZM421.228 44.0508C420.606 44.0508 420.066 43.9318 419.608 43.6939C419.151 43.456 418.798 43.1174 418.551 42.6781C418.304 42.2388 418.18 41.7217 418.18 41.1269V39.1776C418.18 38.5736 418.304 38.0565 418.551 37.6264C418.798 37.1872 419.151 36.8485 419.608 36.6106C420.066 36.3727 420.606 36.2537 421.228 36.2537C421.851 36.2537 422.39 36.3727 422.848 36.6106C423.306 36.8485 423.657 37.1872 423.905 37.6264C424.152 38.0565 424.275 38.5736 424.275 39.1776V41.1269C424.275 41.7217 424.152 42.2388 423.905 42.6781C423.657 43.1174 423.306 43.456 422.848 43.6939C422.39 43.9318 421.851 44.0508 421.228 44.0508ZM421.228 42.7467C421.732 42.7467 422.12 42.6095 422.395 42.3349C422.669 42.0512 422.806 41.6485 422.806 41.1269V39.1776C422.806 38.6468 422.669 38.2442 422.395 37.9696C422.12 37.6951 421.732 37.5578 421.228 37.5578C420.734 37.5578 420.345 37.6951 420.061 37.9696C419.786 38.2442 419.649 38.6468 419.649 39.1776V41.1269C419.649 41.6485 419.786 42.0512 420.061 42.3349C420.345 42.6095 420.734 42.7467 421.228 42.7467ZM426.495 43.9273V36.3773H427.964V37.8186H428.321L427.964 38.1618C427.964 37.5578 428.142 37.0866 428.499 36.7479C428.856 36.4092 429.35 36.24 429.982 36.24C430.731 36.24 431.331 36.4826 431.78 36.9675C432.227 37.4435 432.453 38.0886 432.453 38.9031V43.9273H430.97V39.0678C430.97 38.5736 430.837 38.1938 430.572 37.9284C430.306 37.6631 429.945 37.5304 429.487 37.5304C429.021 37.5304 428.65 37.6722 428.376 37.9559C428.109 38.2304 427.977 38.6331 427.977 39.1639V43.9273H426.495ZM445.922 44.0508C445.298 44.0508 444.759 43.9318 444.302 43.6939C443.843 43.456 443.492 43.1174 443.245 42.6781C442.998 42.2388 442.874 41.7217 442.874 41.1269V39.1776C442.874 38.5736 442.998 38.0565 443.245 37.6264C443.492 37.1872 443.843 36.8485 444.302 36.6106C444.759 36.3727 445.298 36.2537 445.922 36.2537C446.544 36.2537 447.083 36.3727 447.541 36.6106C447.999 36.8485 448.351 37.1872 448.599 37.6264C448.846 38.0565 448.969 38.5736 448.969 39.1776V41.1269C448.969 41.7217 448.846 42.2388 448.599 42.6781C448.351 43.1174 447.999 43.456 447.541 43.6939C447.083 43.9318 446.544 44.0508 445.922 44.0508ZM445.922 42.7467C446.424 42.7467 446.814 42.6095 447.089 42.3349C447.363 42.0512 447.5 41.6485 447.5 41.1269V39.1776C447.5 38.6468 447.363 38.2442 447.089 37.9696C446.814 37.6951 446.424 37.5578 445.922 37.5578C445.428 37.5578 445.038 37.6951 444.755 37.9696C444.48 38.2442 444.343 38.6468 444.343 39.1776V41.1269C444.343 41.6485 444.48 42.0512 444.755 42.3349C445.038 42.6095 445.428 42.7467 445.922 42.7467ZM453.178 43.9273L450.68 36.3773H452.19L453.741 41.2093C453.841 41.493 453.929 41.7813 454.002 42.0741C454.084 42.3578 454.143 42.582 454.18 42.7467C454.225 42.582 454.286 42.3578 454.358 42.0741C454.441 41.7813 454.523 41.493 454.606 41.2093L456.129 36.3773H457.626L455.127 43.9273H453.178ZM462.383 44.0645C461.77 44.0645 461.23 43.9455 460.764 43.7076C460.306 43.4605 459.954 43.1174 459.707 42.6781C459.459 42.2388 459.336 41.7264 459.336 41.1406V39.1639C459.336 38.5691 459.459 38.0565 459.707 37.6264C459.954 37.1872 460.306 36.8485 460.764 36.6106C461.23 36.3635 461.77 36.24 462.383 36.24C463.005 36.24 463.546 36.3635 464.003 36.6106C464.46 36.8485 464.813 37.1872 465.06 37.6264C465.307 38.0565 465.431 38.5691 465.431 39.1639V40.5092H460.764V41.1406C460.764 41.6989 460.901 42.1245 461.175 42.4173C461.46 42.7101 461.866 42.8565 462.397 42.8565C462.827 42.8565 463.175 42.7834 463.44 42.6369C463.705 42.4814 463.87 42.2571 463.935 41.9643H465.403C465.294 42.6049 464.964 43.1174 464.415 43.5017C463.866 43.8769 463.189 44.0645 462.383 44.0645ZM464.003 39.6169V39.1502C464.003 38.6011 463.866 38.1755 463.591 37.8735C463.317 37.5715 462.915 37.4205 462.383 37.4205C461.862 37.4205 461.46 37.5715 461.175 37.8735C460.901 38.1755 460.764 38.6056 460.764 39.1639V39.5071L464.113 39.4934L464.003 39.6169ZM467.896 43.9273V36.3773H469.324V37.8186H469.681L469.228 38.7109C469.228 37.8965 469.406 37.2833 469.763 36.8714C470.12 36.4504 470.651 36.24 471.356 36.24C472.161 36.24 472.797 36.4916 473.264 36.995C473.74 37.4892 473.977 38.171 473.977 39.0404V39.5483H472.454V39.1639C472.454 38.624 472.316 38.2122 472.042 37.9284C471.777 37.6356 471.401 37.4892 470.916 37.4892C470.432 37.4892 470.051 37.6356 469.777 37.9284C469.512 38.2212 469.379 38.6331 469.379 39.1639V43.9273H467.896ZM476.127 43.9273V36.3773H477.555V37.8186H477.912L477.459 38.7109C477.459 37.8965 477.637 37.2833 477.994 36.8714C478.351 36.4504 478.882 36.24 479.586 36.24C480.392 36.24 481.028 36.4916 481.495 36.995C481.971 37.4892 482.208 38.171 482.208 39.0404V39.5483H480.685V39.1639C480.685 38.624 480.547 38.2122 480.273 37.9284C480.008 37.6356 479.632 37.4892 479.147 37.4892C478.663 37.4892 478.282 37.6356 478.008 37.9284C477.743 38.2212 477.61 38.6331 477.61 39.1639V43.9273H476.127ZM484.07 43.9273V42.582H486.719V37.7225H484.413V36.3773H488.16V42.582H490.59V43.9273H484.07ZM487.296 35.0732C486.976 35.0732 486.719 34.9908 486.527 34.8261C486.335 34.6522 486.239 34.4235 486.239 34.1397C486.239 33.8469 486.335 33.6181 486.527 33.4534C486.719 33.2794 486.976 33.1925 487.296 33.1925C487.617 33.1925 487.872 33.2794 488.064 33.4534C488.257 33.6181 488.353 33.8469 488.353 34.1397C488.353 34.4235 488.257 34.6522 488.064 34.8261C487.872 34.9908 487.617 35.0732 487.296 35.0732ZM494.772 44.0645C494.012 44.0645 493.404 43.8083 492.946 43.2958C492.489 42.7834 492.259 42.0923 492.259 41.223V39.0953C492.259 38.2167 492.489 37.5212 492.946 37.0087C493.404 36.4963 494.012 36.24 494.772 36.24C495.395 36.24 495.889 36.4139 496.254 36.7616C496.621 37.1003 496.803 37.567 496.803 38.1618L496.487 37.8186H496.831L496.789 36.0615V33.9064H498.272V43.9273H496.803V42.4859H496.487L496.803 42.1427C496.803 42.7375 496.621 43.2089 496.254 43.5566C495.889 43.8953 495.395 44.0645 494.772 44.0645ZM495.279 42.7742C495.746 42.7742 496.113 42.6324 496.378 42.3486C496.652 42.0558 496.789 41.6531 496.789 41.1406V39.1639C496.789 38.6515 496.652 38.2534 496.378 37.9696C496.113 37.6768 495.746 37.5304 495.279 37.5304C494.795 37.5304 494.415 37.6722 494.14 37.9559C493.866 38.2304 493.728 38.6331 493.728 39.1639V41.1406C493.728 41.6715 493.866 42.0786 494.14 42.3624C494.415 42.6369 494.795 42.7742 495.279 42.7742ZM503.538 44.0645C502.926 44.0645 502.385 43.9455 501.918 43.7076C501.461 43.4605 501.108 43.1174 500.861 42.6781C500.614 42.2388 500.49 41.7264 500.49 41.1406V39.1639C500.49 38.5691 500.614 38.0565 500.861 37.6264C501.108 37.1872 501.461 36.8485 501.918 36.6106C502.385 36.3635 502.926 36.24 503.538 36.24C504.161 36.24 504.7 36.3635 505.158 36.6106C505.616 36.8485 505.967 37.1872 506.215 37.6264C506.462 38.0565 506.585 38.5691 506.585 39.1639V40.5092H501.918V41.1406C501.918 41.6989 502.055 42.1245 502.33 42.4173C502.614 42.7101 503.022 42.8565 503.551 42.8565C503.983 42.8565 504.33 42.7834 504.595 42.6369C504.861 42.4814 505.026 42.2571 505.089 41.9643H506.558C506.448 42.6049 506.118 43.1174 505.569 43.5017C505.02 43.8769 504.344 44.0645 503.538 44.0645ZM505.158 39.6169V39.1502C505.158 38.6011 505.02 38.1755 504.746 37.8735C504.471 37.5715 504.069 37.4205 503.538 37.4205C503.016 37.4205 502.614 37.5715 502.33 37.8735C502.055 38.1755 501.918 38.6056 501.918 39.1639V39.5071L505.267 39.4934L505.158 39.6169ZM511.509 44.0508C510.968 44.0508 510.493 43.9639 510.082 43.79C509.678 43.6161 509.358 43.3782 509.121 43.0762C508.891 42.765 508.758 42.399 508.723 41.978H510.205C510.241 42.2251 510.374 42.4265 510.603 42.582C510.831 42.7285 511.133 42.8016 511.509 42.8016H512.099C512.547 42.8016 512.886 42.7101 513.115 42.5271C513.343 42.3441 513.458 42.1015 513.458 41.7995C513.458 41.5067 513.353 41.2779 513.143 41.1132C512.941 40.9393 512.639 40.8249 512.237 40.77L511.262 40.619C510.456 40.4909 509.862 40.2621 509.478 39.9326C509.101 39.594 508.915 39.0953 508.915 38.4364C508.915 37.7408 509.138 37.2054 509.587 36.8303C510.044 36.4459 510.717 36.2537 511.605 36.2537H512.127C512.913 36.2537 513.541 36.4367 514.008 36.8028C514.482 37.1597 514.753 37.6402 514.817 38.2442H513.335C513.298 38.0245 513.174 37.8461 512.964 37.7088C512.763 37.5715 512.484 37.5029 512.127 37.5029H511.605C511.174 37.5029 510.858 37.5853 510.658 37.75C510.466 37.9055 510.37 38.1389 510.37 38.4501C510.37 38.7246 510.456 38.9305 510.631 39.0678C510.804 39.2051 511.074 39.3012 511.441 39.3561L512.443 39.5208C513.294 39.6398 513.916 39.8777 514.31 40.2346C514.712 40.5823 514.914 41.0903 514.914 41.7584C514.914 42.4814 514.675 43.0442 514.2 43.4468C513.733 43.8494 513.033 44.0508 512.099 44.0508H511.509ZM516.995 43.1036V41.7034L521.099 39.7405C521.282 39.6581 521.456 39.5894 521.621 39.5345C521.785 39.4796 521.909 39.443 521.991 39.4247C521.899 39.4065 521.766 39.3698 521.593 39.3149C521.428 39.2508 521.264 39.1776 521.099 39.0953L516.995 37.1323V35.7046L523.007 38.6285V40.1797L516.995 43.1036Z" fill="#47BC99"/>
<path d="M113.717 122.173V114.623H115.185V116.064H115.542L115.185 116.407C115.185 115.803 115.364 115.332 115.721 114.993C116.078 114.655 116.572 114.485 117.203 114.485C117.954 114.485 118.553 114.728 119.002 115.213C119.45 115.689 119.674 116.334 119.674 117.148V122.173H118.192V117.313C118.192 116.819 118.059 116.439 117.794 116.174C117.528 115.908 117.167 115.776 116.709 115.776C116.242 115.776 115.872 115.917 115.597 116.201C115.332 116.476 115.199 116.878 115.199 117.409V122.173H113.717ZM121.385 122.173L124.034 118.274L121.55 114.623H123.252L124.583 116.709C124.647 116.819 124.711 116.938 124.775 117.066C124.84 117.185 124.89 117.286 124.926 117.368C124.954 117.286 125 117.185 125.064 117.066C125.128 116.938 125.192 116.819 125.256 116.709L126.587 114.623H128.29L125.805 118.288L128.441 122.173H126.738L125.27 119.908C125.206 119.798 125.142 119.674 125.077 119.537C125.013 119.4 124.963 119.29 124.926 119.207C124.89 119.29 124.835 119.4 124.762 119.537C124.698 119.674 124.629 119.798 124.556 119.908L123.073 122.173H121.385Z" fill="#94A3B8"/>
<path d="M142.198 122.173C141.512 122.173 140.976 121.985 140.592 121.61C140.208 121.235 140.015 120.713 140.015 120.045V115.968H137.929V114.623H140.015V112.495H141.498V114.623H144.449V115.968H141.498V120.045C141.498 120.567 141.75 120.828 142.253 120.828H144.312V122.173H142.198ZM149.605 122.31C148.993 122.31 148.452 122.191 147.985 121.953C147.528 121.706 147.175 121.363 146.928 120.924C146.681 120.484 146.558 119.972 146.558 119.386V117.409C146.558 116.815 146.681 116.302 146.928 115.872C147.175 115.433 147.528 115.094 147.985 114.856C148.452 114.609 148.993 114.486 149.605 114.486C150.228 114.486 150.768 114.609 151.225 114.856C151.684 115.094 152.035 115.433 152.282 115.872C152.529 116.302 152.653 116.815 152.653 117.409V118.755H147.985V119.386C147.985 119.944 148.123 120.37 148.397 120.663C148.681 120.956 149.089 121.102 149.619 121.102C150.05 121.102 150.397 121.029 150.662 120.882C150.928 120.727 151.093 120.503 151.156 120.21H152.625C152.515 120.85 152.186 121.363 151.637 121.747C151.088 122.122 150.411 122.31 149.605 122.31ZM151.225 117.862V117.396C151.225 116.847 151.088 116.421 150.813 116.119C150.539 115.817 150.136 115.666 149.605 115.666C149.084 115.666 148.681 115.817 148.397 116.119C148.123 116.421 147.985 116.851 147.985 117.409V117.753L151.335 117.739L151.225 117.862ZM157.575 122.296C157.036 122.296 156.559 122.209 156.148 122.036C155.745 121.862 155.426 121.624 155.187 121.322C154.959 121.011 154.826 120.645 154.789 120.224H156.271C156.308 120.471 156.441 120.672 156.669 120.828C156.898 120.974 157.2 121.047 157.575 121.047H158.166C158.614 121.047 158.953 120.956 159.181 120.773C159.411 120.59 159.525 120.347 159.525 120.045C159.525 119.752 159.42 119.523 159.209 119.359C159.008 119.185 158.706 119.07 158.303 119.016L157.328 118.865C156.524 118.736 155.928 118.508 155.544 118.178C155.169 117.84 154.981 117.341 154.981 116.682C154.981 115.986 155.206 115.451 155.653 115.076C156.112 114.691 156.785 114.499 157.671 114.499H158.193C158.981 114.499 159.607 114.682 160.074 115.048C160.55 115.405 160.82 115.886 160.884 116.49H159.401C159.365 116.27 159.242 116.092 159.03 115.954C158.83 115.817 158.55 115.748 158.193 115.748H157.671C157.242 115.748 156.926 115.831 156.724 115.996C156.532 116.151 156.436 116.384 156.436 116.696C156.436 116.97 156.524 117.176 156.697 117.313C156.871 117.451 157.141 117.547 157.507 117.602L158.509 117.766C159.36 117.885 159.983 118.123 160.376 118.48C160.779 118.828 160.98 119.336 160.98 120.004C160.98 120.727 160.742 121.29 160.266 121.692C159.799 122.095 159.099 122.296 158.166 122.296H157.575ZM166.892 122.173C166.206 122.173 165.67 121.985 165.286 121.61C164.901 121.235 164.709 120.713 164.709 120.045V115.968H162.623V114.623H164.709V112.495H166.192V114.623H169.143V115.968H166.192V120.045C166.192 120.567 166.443 120.828 166.947 120.828H169.006V122.173H166.892Z" fill="#6366F1"/>
<path d="M179.565 124.644V114.623H181.034V116.064H181.35L181.034 116.407C181.034 115.813 181.217 115.346 181.583 115.007C181.958 114.659 182.456 114.486 183.079 114.486C183.838 114.486 184.442 114.742 184.891 115.254C185.348 115.758 185.578 116.449 185.578 117.327V119.455C185.578 120.041 185.472 120.548 185.262 120.979C185.06 121.4 184.772 121.729 184.397 121.967C184.031 122.196 183.591 122.31 183.079 122.31C182.466 122.31 181.972 122.141 181.597 121.802C181.221 121.454 181.034 120.983 181.034 120.388L181.35 120.731H181.007L181.048 122.489V124.644H179.565ZM182.571 121.02C183.056 121.02 183.431 120.882 183.697 120.608C183.972 120.324 184.109 119.917 184.109 119.386V117.409C184.109 116.879 183.972 116.476 183.697 116.201C183.431 115.918 183.056 115.776 182.571 115.776C182.105 115.776 181.734 115.922 181.46 116.215C181.185 116.499 181.048 116.897 181.048 117.409V119.386C181.048 119.899 181.185 120.301 181.46 120.594C181.734 120.878 182.105 121.02 182.571 121.02ZM188.043 122.173V114.623H189.471V116.064H189.828L189.375 116.956C189.375 116.142 189.553 115.529 189.91 115.117C190.267 114.696 190.798 114.486 191.502 114.486C192.308 114.486 192.944 114.737 193.411 115.241C193.887 115.735 194.124 116.417 194.124 117.286V117.794H192.601V117.409C192.601 116.87 192.463 116.458 192.189 116.174C191.924 115.881 191.548 115.735 191.063 115.735C190.579 115.735 190.198 115.881 189.924 116.174C189.659 116.467 189.526 116.879 189.526 117.409V122.173H188.043ZM198.992 122.296C198.37 122.296 197.829 122.177 197.372 121.939C196.915 121.702 196.562 121.363 196.315 120.924C196.068 120.484 195.945 119.967 195.945 119.372V117.423C195.945 116.819 196.068 116.302 196.315 115.872C196.562 115.433 196.915 115.094 197.372 114.856C197.829 114.618 198.37 114.499 198.992 114.499C199.614 114.499 200.155 114.618 200.612 114.856C201.069 115.094 201.422 115.433 201.669 115.872C201.916 116.302 202.039 116.819 202.039 117.423V119.372C202.039 119.967 201.916 120.484 201.669 120.924C201.422 121.363 201.069 121.702 200.612 121.939C200.155 122.177 199.614 122.296 198.992 122.296ZM198.992 120.992C199.496 120.992 199.884 120.855 200.159 120.58C200.433 120.297 200.571 119.894 200.571 119.372V117.423C200.571 116.892 200.433 116.49 200.159 116.215C199.884 115.941 199.496 115.803 198.992 115.803C198.498 115.803 198.109 115.941 197.825 116.215C197.551 116.49 197.413 116.892 197.413 117.423V119.372C197.413 119.894 197.551 120.297 197.825 120.58C198.109 120.855 198.498 120.992 198.992 120.992ZM206.688 122.31C205.928 122.31 205.319 122.054 204.862 121.541C204.405 121.029 204.175 120.338 204.175 119.469V117.341C204.175 116.462 204.405 115.767 204.862 115.254C205.319 114.742 205.928 114.486 206.688 114.486C207.309 114.486 207.804 114.659 208.17 115.007C208.537 115.346 208.719 115.813 208.719 116.407L208.403 116.064H208.747L208.705 114.307V112.152H210.188V122.173H208.719V120.731H208.403L208.719 120.388C208.719 120.983 208.537 121.454 208.17 121.802C207.804 122.141 207.309 122.31 206.688 122.31ZM207.195 121.02C207.662 121.02 208.029 120.878 208.294 120.594C208.568 120.301 208.705 119.899 208.705 119.386V117.409C208.705 116.897 208.568 116.499 208.294 116.215C208.029 115.922 207.662 115.776 207.195 115.776C206.711 115.776 206.331 115.918 206.056 116.201C205.782 116.476 205.644 116.879 205.644 117.409V119.386C205.644 119.917 205.782 120.324 206.056 120.608C206.331 120.882 206.711 121.02 207.195 121.02ZM215.44 122.31C214.534 122.31 213.811 122.049 213.271 121.528C212.732 120.997 212.461 120.278 212.461 119.372V114.623H213.944V119.372C213.944 119.894 214.077 120.301 214.342 120.594C214.607 120.878 214.973 121.02 215.44 121.02C215.916 121.02 216.287 120.878 216.552 120.594C216.827 120.301 216.964 119.894 216.964 119.372V114.623H218.446V119.372C218.446 120.278 218.172 120.997 217.623 121.528C217.083 122.049 216.356 122.31 215.44 122.31ZM223.74 122.31C223.118 122.31 222.569 122.196 222.092 121.967C221.626 121.729 221.265 121.39 221.008 120.951C220.761 120.503 220.637 119.981 220.637 119.386V117.409C220.637 116.805 220.761 116.284 221.008 115.845C221.265 115.405 221.626 115.071 222.092 114.842C222.569 114.605 223.118 114.486 223.74 114.486C224.646 114.486 225.373 114.723 225.922 115.199C226.471 115.675 226.76 116.325 226.787 117.149H225.304C225.277 116.719 225.126 116.384 224.851 116.147C224.577 115.909 224.206 115.79 223.74 115.79C223.237 115.79 222.839 115.931 222.545 116.215C222.253 116.49 222.106 116.883 222.106 117.396V119.386C222.106 119.899 222.253 120.297 222.545 120.58C222.839 120.864 223.237 121.006 223.74 121.006C224.206 121.006 224.577 120.887 224.851 120.649C225.126 120.411 225.277 120.077 225.304 119.647H226.787C226.76 120.471 226.471 121.12 225.922 121.596C225.373 122.072 224.646 122.31 223.74 122.31ZM232.739 122.173C232.053 122.173 231.517 121.985 231.133 121.61C230.749 121.235 230.557 120.713 230.557 120.045V115.968H228.47V114.623H230.557V112.495H232.039V114.623H234.99V115.968H232.039V120.045C232.039 120.567 232.292 120.828 232.794 120.828H234.853V122.173H232.739ZM239.886 122.296C239.346 122.296 238.87 122.209 238.458 122.036C238.056 121.862 237.736 121.624 237.497 121.322C237.269 121.011 237.136 120.645 237.099 120.224H238.581C238.619 120.471 238.752 120.672 238.98 120.828C239.209 120.974 239.511 121.047 239.886 121.047H240.476C240.925 121.047 241.264 120.956 241.492 120.773C241.721 120.59 241.835 120.347 241.835 120.045C241.835 119.752 241.731 119.523 241.519 119.359C241.319 119.185 241.017 119.07 240.613 119.016L239.639 118.865C238.834 118.736 238.238 118.508 237.854 118.178C237.479 117.84 237.291 117.341 237.291 116.682C237.291 115.986 237.516 115.451 237.964 115.076C238.422 114.691 239.095 114.499 239.982 114.499H240.503C241.291 114.499 241.917 114.682 242.384 115.048C242.86 115.405 243.131 115.886 243.194 116.49H241.711C241.676 116.27 241.552 116.092 241.341 115.954C241.14 115.817 240.86 115.748 240.503 115.748H239.982C239.552 115.748 239.236 115.831 239.035 115.996C238.842 116.151 238.746 116.384 238.746 116.696C238.746 116.97 238.834 117.176 239.007 117.313C239.181 117.451 239.452 117.547 239.817 117.602L240.819 117.766C241.67 117.885 242.293 118.123 242.686 118.48C243.09 118.828 243.29 119.336 243.29 120.004C243.29 120.727 243.052 121.29 242.576 121.692C242.109 122.095 241.409 122.296 240.476 122.296H239.886Z" fill="#F43F5E"/>
<path d="M261.34 118.315V116.97H267.036V118.315H261.34ZM254.407 118.315V116.97H260.104V118.315H254.407ZM270.504 122.173L269.337 114.623H270.586L271.286 119.606C271.322 119.835 271.355 120.091 271.382 120.375C271.418 120.649 271.446 120.878 271.465 121.061C271.483 120.878 271.51 120.649 271.547 120.375C271.592 120.1 271.634 119.844 271.671 119.606L272.453 114.623H273.702L274.471 119.606C274.507 119.844 274.544 120.105 274.581 120.388C274.626 120.663 274.658 120.892 274.677 121.075C274.695 120.882 274.722 120.649 274.759 120.375C274.805 120.091 274.846 119.835 274.883 119.606L275.597 114.623H276.805L275.597 122.173H274.032L273.29 117.245C273.253 116.988 273.212 116.719 273.167 116.435C273.12 116.142 273.089 115.909 273.071 115.735C273.043 115.909 273.006 116.142 272.961 116.435C272.924 116.719 272.887 116.988 272.851 117.245L272.082 122.173H270.504ZM280.547 122.31C279.76 122.31 279.137 122.109 278.68 121.706C278.231 121.294 278.007 120.736 278.007 120.031C278.007 119.318 278.245 118.759 278.721 118.357C279.206 117.945 279.87 117.739 280.711 117.739H282.812V117.039C282.812 116.627 282.684 116.307 282.427 116.078C282.171 115.849 281.81 115.735 281.343 115.735C280.931 115.735 280.588 115.826 280.313 116.009C280.039 116.183 279.878 116.417 279.833 116.709H278.378C278.46 116.032 278.772 115.492 279.311 115.09C279.86 114.687 280.551 114.486 281.384 114.486C282.28 114.486 282.99 114.714 283.512 115.172C284.033 115.62 284.294 116.233 284.294 117.011V122.173H282.853V120.786H282.606L282.853 120.512C282.853 121.061 282.643 121.5 282.221 121.83C281.8 122.15 281.243 122.31 280.547 122.31ZM280.986 121.171C281.517 121.171 281.951 121.038 282.29 120.773C282.637 120.498 282.812 120.15 282.812 119.729V118.741H280.739C280.355 118.741 280.048 118.846 279.819 119.057C279.6 119.267 279.49 119.555 279.49 119.922C279.49 120.306 279.623 120.612 279.888 120.841C280.153 121.061 280.519 121.171 280.986 121.171ZM290.356 122.173C289.67 122.173 289.134 121.985 288.75 121.61C288.366 121.235 288.174 120.713 288.174 120.045V115.968H286.087V114.623H288.174V112.495H289.656V114.623H292.607V115.968H289.656V120.045C289.656 120.567 289.907 120.828 290.411 120.828H292.47V122.173H290.356ZM297.818 122.31C297.196 122.31 296.647 122.196 296.171 121.967C295.704 121.729 295.343 121.39 295.087 120.951C294.84 120.503 294.716 119.981 294.716 119.386V117.409C294.716 116.805 294.84 116.284 295.087 115.845C295.343 115.405 295.704 115.071 296.171 114.842C296.647 114.605 297.196 114.486 297.818 114.486C298.724 114.486 299.452 114.723 300.001 115.199C300.55 115.675 300.838 116.325 300.866 117.149H299.383C299.356 116.719 299.205 116.384 298.93 116.147C298.656 115.909 298.285 115.79 297.818 115.79C297.315 115.79 296.916 115.931 296.624 116.215C296.332 116.49 296.185 116.883 296.185 117.396V119.386C296.185 119.899 296.332 120.297 296.624 120.58C296.916 120.864 297.315 121.006 297.818 121.006C298.285 121.006 298.656 120.887 298.93 120.649C299.205 120.411 299.356 120.077 299.383 119.647H300.866C300.838 120.471 300.55 121.12 300.001 121.596C299.452 122.072 298.724 122.31 297.818 122.31ZM303.029 122.173V112.152H304.512V114.623L304.498 116.064H304.855L304.498 116.407C304.498 115.803 304.676 115.332 305.033 114.993C305.39 114.655 305.884 114.486 306.516 114.486C307.267 114.486 307.865 114.728 308.314 115.213C308.763 115.689 308.987 116.334 308.987 117.149V122.173H307.504V117.313C307.504 116.819 307.371 116.435 307.106 116.16C306.841 115.886 306.479 115.748 306.022 115.748C305.555 115.748 305.184 115.895 304.91 116.188C304.645 116.471 304.512 116.879 304.512 117.409V122.173H303.029Z" fill="#47BC99"/>
<path d="M194.756 48.0455C194.756 47.6665 194.448 47.3591 194.069 47.3591C193.69 47.3591 193.383 47.6665 193.383 48.0455H194.756ZM153.431 107.386C153.7 107.654 154.134 107.654 154.403 107.386L158.771 103.018C159.039 102.75 159.039 102.316 158.771 102.047C158.502 101.779 158.068 101.779 157.799 102.047L153.917 105.93L150.035 102.047C149.766 101.779 149.332 101.779 149.063 102.047C148.795 102.316 148.795 102.75 149.063 103.018L153.431 107.386ZM193.383 48.0455V57.3969H194.756V48.0455H193.383ZM153.231 97.549V106.901H154.603V97.549H153.231ZM173.993 76.7865C162.527 76.7865 153.231 86.0822 153.231 97.549H154.603C154.603 86.8404 163.285 78.1593 173.993 78.1593V76.7865ZM193.383 57.3969C193.383 68.1055 184.702 76.7865 173.993 76.7865V78.1593C185.46 78.1593 194.756 68.8637 194.756 57.3969H193.383Z" fill="#6366F1"/>
<path d="M212.115 106.872C212.384 107.14 212.818 107.14 213.087 106.872L217.455 102.504C217.723 102.236 217.723 101.801 217.455 101.533C217.186 101.265 216.752 101.265 216.483 101.533L212.601 105.416L208.719 101.533C208.45 101.265 208.016 101.265 207.747 101.533C207.479 101.801 207.479 102.236 207.747 102.504L212.115 106.872ZM309.893 54.2226H245.546V55.5954H309.893V54.2226ZM211.915 87.8544V106.386H213.287V87.8544H211.915ZM245.546 54.2226C226.972 54.2226 211.915 69.2801 211.915 87.8544H213.287C213.287 70.0382 227.73 55.5954 245.546 55.5954V54.2226ZM316.07 48.0454C316.07 51.457 313.304 54.2226 309.893 54.2226V55.5954C314.063 55.5954 317.443 52.2152 317.443 48.0454H316.07Z" fill="#F43F5E"/>
<path d="M287.787 107.215C288.056 107.483 288.489 107.483 288.758 107.215L293.126 102.847C293.394 102.579 293.394 102.144 293.126 101.876C292.857 101.608 292.424 101.608 292.155 101.876L288.272 105.759L284.39 101.876C284.121 101.608 283.688 101.608 283.419 101.876C283.151 102.144 283.151 102.579 283.419 102.847L287.787 107.215ZM436.586 62.459H321.218V63.8317H436.586V62.459ZM287.586 96.0908V106.729H288.959V96.0908H287.586ZM321.218 62.459C302.644 62.459 287.586 77.5164 287.586 96.0908H288.959C288.959 78.2746 303.401 63.8317 321.218 63.8317V62.459ZM451 48.0454C451 56.0058 444.546 62.459 436.586 62.459V63.8317C445.305 63.8317 452.372 56.764 452.372 48.0454H451Z" fill="#47BC99"/>
<path d="M27.0041 33.6221C26.9313 32.9761 26.631 32.4756 26.1032 32.1206C25.5755 31.7612 24.9113 31.5816 24.1104 31.5816C23.5372 31.5816 23.0412 31.6726 22.6227 31.8546C22.2041 32.0319 21.8788 32.2777 21.6468 32.5916C21.4193 32.901 21.3055 33.2535 21.3055 33.6494C21.3055 33.9815 21.3828 34.2681 21.5375 34.5093C21.6968 34.7505 21.9038 34.953 22.1586 35.1167C22.418 35.276 22.6954 35.4102 22.9913 35.5194C23.2869 35.624 23.5714 35.7104 23.8443 35.7787L25.2092 36.1335C25.6552 36.2428 26.1124 36.3906 26.5809 36.5772C27.0496 36.7637 27.4841 37.0095 27.8845 37.3142C28.2849 37.6191 28.6079 37.9967 28.8536 38.4471C29.1039 38.8975 29.2289 39.4367 29.2289 40.0646C29.2289 40.8562 29.0242 41.5592 28.6148 42.1734C28.2098 42.7875 27.6206 43.2721 26.8471 43.627C26.0782 43.9819 25.1478 44.1593 24.0558 44.1593C23.0094 44.1593 22.1041 43.9933 21.3397 43.6611C20.5753 43.3291 19.977 42.8581 19.5447 42.2485C19.1126 41.6342 18.8738 40.9062 18.8282 40.0646H20.9438C20.9847 40.5696 21.1486 40.9905 21.4353 41.3271C21.7264 41.6593 22.0972 41.9072 22.5476 42.071C23.0026 42.2302 23.5008 42.3098 24.0422 42.3098C24.6383 42.3098 25.1683 42.2166 25.6324 42.0301C26.101 41.839 26.4695 41.5751 26.738 41.2384C27.0063 40.8972 27.1406 40.4991 27.1406 40.0441C27.1406 39.6301 27.0223 39.2911 26.7857 39.0272C26.5538 38.7634 26.2375 38.545 25.8371 38.372C25.4413 38.1992 24.9931 38.0467 24.4926 37.9148L22.8411 37.4644C21.7219 37.1595 20.8347 36.7114 20.1795 36.1199C19.5288 35.5284 19.2035 34.746 19.2035 33.7723C19.2035 32.9669 19.4219 32.2641 19.8587 31.6635C20.2955 31.0629 20.887 30.5965 21.6331 30.2644C22.3793 29.9277 23.221 29.7594 24.1582 29.7594C25.1046 29.7594 25.9395 29.9255 26.6629 30.2576C27.3908 30.5898 27.9641 31.047 28.3826 31.6293C28.8013 32.2071 29.0197 32.8714 29.0378 33.6221H27.0041ZM32.875 47.8582C32.5701 47.8582 32.2926 47.8333 32.0425 47.7832C31.7922 47.7377 31.6057 47.6876 31.4828 47.6331L31.9741 45.961C32.3472 46.0612 32.6794 46.1043 32.9706 46.0907C33.2617 46.0771 33.5188 45.9679 33.7418 45.7632C33.9692 45.5584 34.1694 45.224 34.3423 44.7599L34.5948 44.0638L30.7594 33.4446H32.9432L35.5981 41.5797H35.7072L38.3619 33.4446H40.5527L36.2327 45.3264C36.0326 45.8723 35.7778 46.3341 35.4684 46.7117C35.159 47.0939 34.7904 47.3805 34.3628 47.5716C33.935 47.7627 33.4392 47.8582 32.875 47.8582ZM44.5109 37.7032V43.9273H42.4704V33.4446H44.4291V35.1508H44.5587C44.7999 34.5958 45.1775 34.1499 45.6916 33.8132C46.2104 33.4765 46.8632 33.3082 47.6504 33.3082C48.3646 33.3082 48.9903 33.4583 49.5272 33.7586C50.064 34.0544 50.4802 34.4957 50.7761 35.0826C51.0717 35.6695 51.2196 36.3952 51.2196 37.2597V43.9273H49.179V37.5053C49.179 36.7455 48.9811 36.1518 48.5853 35.724C48.1894 35.2919 47.6458 35.0757 46.9543 35.0757C46.4811 35.0757 46.0602 35.1781 45.6916 35.3829C45.3277 35.5876 45.0388 35.8879 44.8249 36.2837C44.6157 36.6751 44.5109 37.1482 44.5109 37.7032ZM58.8496 33.4446V35.0826H53.1237V33.4446H58.8496ZM54.6592 30.9332H56.6998V40.8494C56.6998 41.2453 56.759 41.5433 56.8773 41.7434C56.9955 41.939 57.148 42.0733 57.3345 42.1461C57.5256 42.2143 57.7326 42.2485 57.9556 42.2485C58.1193 42.2485 58.2626 42.2371 58.3855 42.2143C58.5084 42.1916 58.6039 42.1734 58.6721 42.1598L59.0407 43.8454C58.9224 43.8909 58.7541 43.9364 58.5357 43.9819C58.3173 44.0319 58.0442 44.0592 57.7167 44.0638C57.1798 44.073 56.6793 43.9774 56.2152 43.7771C55.7512 43.577 55.3758 43.2676 55.0892 42.849C54.8025 42.4305 54.6592 41.905 54.6592 41.2726V30.9332ZM64.1574 44.1593C63.4931 44.1593 62.8926 44.0364 62.3557 43.7909C61.8188 43.5406 61.3934 43.1789 61.0795 42.7057C60.7701 42.2325 60.6155 41.6524 60.6155 40.9654C60.6155 40.374 60.7292 39.8871 60.9566 39.5049C61.1842 39.1228 61.4913 38.8202 61.878 38.5973C62.2647 38.3744 62.697 38.2059 63.1747 38.0923C63.6524 37.9785 64.1393 37.8921 64.6351 37.833C65.263 37.7601 65.7725 37.701 66.1639 37.6555C66.5551 37.6054 66.8396 37.5257 67.0169 37.4166C67.1944 37.3075 67.2831 37.13 67.2831 36.8843V36.8365C67.2831 36.2405 67.1148 35.7787 66.7781 35.4511C66.446 35.1235 65.95 34.9597 65.2903 34.9597C64.6033 34.9597 64.0619 35.1122 63.6661 35.417C63.2747 35.7173 63.004 36.0517 62.8539 36.4201L60.9362 35.9835C61.1636 35.3465 61.4958 34.8323 61.9326 34.4411C62.374 34.0452 62.8812 33.7586 63.4544 33.5812C64.0278 33.3992 64.6306 33.3082 65.263 33.3082C65.6815 33.3082 66.1252 33.3583 66.5939 33.4583C67.067 33.5539 67.5084 33.7312 67.9178 33.9907C68.3319 34.25 68.6708 34.6208 68.9346 35.103C69.1986 35.5807 69.3305 36.2019 69.3305 36.9662V43.9273H67.3377V42.4942H67.2558C67.1239 42.758 66.9259 43.0173 66.6621 43.2721C66.3982 43.5269 66.0592 43.7386 65.6452 43.9069C65.2311 44.0751 64.7352 44.1593 64.1574 44.1593ZM64.6011 42.5215C65.1653 42.5215 65.6475 42.4099 66.0478 42.187C66.4527 41.964 66.7598 41.6729 66.9692 41.3135C67.183 40.9495 67.29 40.5604 67.29 40.1464V38.7952C67.2171 38.868 67.0761 38.9362 66.8668 38.9999C66.6621 39.0591 66.4278 39.1114 66.1639 39.1569C65.8999 39.1979 65.643 39.2366 65.3927 39.2729C65.1425 39.3048 64.9331 39.3321 64.7648 39.3548C64.3689 39.4049 64.0072 39.489 63.6797 39.6073C63.3567 39.7257 63.0974 39.8962 62.9016 40.1192C62.7105 40.3375 62.615 40.6288 62.615 40.9927C62.615 41.4977 62.8016 41.8799 63.1747 42.1392C63.5478 42.394 64.0231 42.5215 64.6011 42.5215ZM73.659 33.4446L75.9726 37.5257L78.3066 33.4446H80.5383L77.2693 38.686L80.5656 43.9273H78.334L75.9726 40.01L73.6181 43.9273H71.3796L74.6417 38.686L71.4205 33.4446H73.659ZM83.9779 44.057C83.6048 44.057 83.284 43.925 83.0156 43.6611C82.7471 43.3928 82.6129 43.0696 82.6129 42.692C82.6129 42.319 82.7471 42.0005 83.0156 41.7366C83.284 41.4682 83.6048 41.334 83.9779 41.334C84.3509 41.334 84.6717 41.4682 84.9402 41.7366C85.2086 42.0005 85.3428 42.319 85.3428 42.692C85.3428 42.9422 85.2791 43.172 85.1517 43.3814C85.0289 43.586 84.8651 43.7498 84.6603 43.8727C84.4556 43.9955 84.2282 44.057 83.9779 44.057ZM83.9779 36.427C83.6048 36.427 83.284 36.2928 83.0156 36.0244C82.7471 35.7559 82.6129 35.4352 82.6129 35.0621C82.6129 34.689 82.7471 34.3705 83.0156 34.1067C83.284 33.8382 83.6048 33.7041 83.9779 33.7041C84.3509 33.7041 84.6717 33.8382 84.9402 34.1067C85.2086 34.3705 85.3428 34.689 85.3428 35.0621C85.3428 35.3124 85.2791 35.5421 85.1517 35.7513C85.0289 35.9562 84.8651 36.1199 84.6603 36.2428C84.4556 36.3656 84.2282 36.427 83.9779 36.427Z" fill="#94A3B8"/>
<path d="M17.8455 47.7491H86.7009V49.0594H17.8455V47.7491Z" fill="#94A3B8"/>
<path d="M19.381 122.173V108.196H28.1438V110.011H21.4898V114.27H27.6865V116.078H21.4898V120.357H28.2257V122.173H19.381ZM32.4075 111.69L34.7211 115.771L37.0551 111.69H39.2868L36.0178 116.931L39.3141 122.173H37.0824L34.7211 118.255L32.3666 122.173H30.1281L33.3902 116.931L30.1691 111.69H32.4075ZM44.4138 122.405C43.7495 122.405 43.1489 122.282 42.6121 122.036C42.0752 121.786 41.6498 121.424 41.3358 120.951C41.0264 120.478 40.8717 119.898 40.8717 119.211C40.8717 118.619 40.9855 118.133 41.213 117.75C41.4404 117.368 41.7477 117.066 42.1343 116.843C42.521 116.62 42.9533 116.451 43.431 116.338C43.9087 116.224 44.3955 116.138 44.8915 116.078C45.5194 116.006 46.0289 115.946 46.4203 115.901C46.8115 115.851 47.0958 115.771 47.2733 115.662C47.4508 115.553 47.5395 115.375 47.5395 115.13V115.082C47.5395 114.486 47.3712 114.024 47.0344 113.697C46.7022 113.369 46.2064 113.205 45.5467 113.205C44.8596 113.205 44.3182 113.358 43.9223 113.662C43.5311 113.963 43.2604 114.297 43.1102 114.666L41.1925 114.229C41.42 113.592 41.7522 113.078 42.189 112.687C42.6303 112.291 43.1375 112.004 43.7108 111.827C44.284 111.645 44.8869 111.554 45.5194 111.554C45.9379 111.554 46.3816 111.604 46.8502 111.704C47.3234 111.799 47.7647 111.977 48.1742 112.236C48.5882 112.495 48.9272 112.866 49.191 113.348C49.455 113.826 49.5869 114.447 49.5869 115.212V122.173H47.5941V120.74H47.5121C47.3802 121.003 47.1823 121.263 46.9184 121.518C46.6545 121.772 46.3155 121.984 45.9015 122.152C45.4875 122.321 44.9915 122.405 44.4138 122.405ZM44.8574 120.767C45.4215 120.767 45.9039 120.655 46.3041 120.432C46.7091 120.209 47.0162 119.918 47.2255 119.559C47.4394 119.195 47.5463 118.806 47.5463 118.392V117.041C47.4734 117.113 47.3325 117.182 47.1231 117.245C46.9184 117.305 46.6841 117.357 46.4203 117.402C46.1563 117.443 45.8993 117.482 45.6491 117.518C45.3988 117.55 45.1895 117.578 45.0212 117.6C44.6253 117.65 44.2636 117.734 43.9361 117.853C43.6131 117.971 43.3536 118.142 43.158 118.365C42.9669 118.583 42.8714 118.874 42.8714 119.238C42.8714 119.743 43.0579 120.125 43.431 120.385C43.8041 120.639 44.2795 120.767 44.8574 120.767ZM52.3047 122.173V111.69H54.2635V113.396H54.3931C54.6115 112.818 54.9687 112.368 55.4646 112.045C55.9605 111.717 56.5542 111.554 57.2457 111.554C57.9465 111.554 58.5334 111.717 59.0065 112.045C59.4843 112.373 59.8369 112.823 60.0644 113.396H60.1735C60.4237 112.837 60.822 112.391 61.3679 112.059C61.9138 111.722 62.5645 111.554 63.3198 111.554C64.2707 111.554 65.0464 111.852 65.647 112.448C66.2521 113.044 66.5546 113.942 66.5546 115.143V122.173H64.5141V115.335C64.5141 114.625 64.3206 114.111 63.934 113.792C63.5473 113.474 63.0855 113.314 62.5486 113.314C61.8843 113.314 61.3679 113.519 60.9993 113.929C60.6308 114.334 60.4465 114.854 60.4465 115.491V122.173H58.4128V115.205C58.4128 114.636 58.2353 114.179 57.8805 113.833C57.5256 113.487 57.0639 113.314 56.4951 113.314C56.1083 113.314 55.7513 113.417 55.4236 113.621C55.1006 113.822 54.8389 114.102 54.6388 114.461C54.4432 114.82 54.3453 115.237 54.3453 115.71V122.173H52.3047ZM69.2896 126.104V111.69H71.2824V113.39H71.4529C71.5713 113.171 71.7419 112.919 71.9648 112.632C72.1877 112.345 72.4972 112.095 72.8931 111.881C73.2888 111.663 73.8121 111.554 74.4626 111.554C75.3089 111.554 76.0642 111.767 76.7285 112.195C77.3927 112.623 77.9137 113.239 78.2913 114.045C78.6735 114.85 78.8646 115.819 78.8646 116.952C78.8646 118.085 78.6757 119.056 78.2982 119.866C77.9205 120.671 77.4018 121.292 76.742 121.729C76.0823 122.161 75.3294 122.377 74.4831 122.377C73.8461 122.377 73.3252 122.271 72.9202 122.057C72.5199 121.843 72.206 121.593 71.9785 121.306C71.7509 121.019 71.5758 120.765 71.4529 120.542H71.3302V126.104H69.2896ZM71.2892 116.931C71.2892 117.668 71.3961 118.315 71.61 118.87C71.8238 119.425 72.1331 119.859 72.5381 120.173C72.943 120.483 73.439 120.637 74.0258 120.637C74.6356 120.637 75.1451 120.476 75.5546 120.153C75.9641 119.825 76.2734 119.381 76.4827 118.822C76.6966 118.262 76.8035 117.632 76.8035 116.931C76.8035 116.24 76.6988 115.619 76.4896 115.068C76.2848 114.518 75.9755 114.083 75.5614 113.765C75.1519 113.446 74.6401 113.287 74.0258 113.287C73.4345 113.287 72.934 113.439 72.5245 113.744C72.1195 114.049 71.8124 114.475 71.6031 115.021C71.3939 115.567 71.2892 116.203 71.2892 116.931ZM83.1914 108.196V122.173H81.1508V108.196H83.1914ZM90.4545 122.384C89.4216 122.384 88.5323 122.164 87.786 121.722C87.0445 121.277 86.4711 120.651 86.0663 119.846C85.6659 119.036 85.4657 118.087 85.4657 117C85.4657 115.926 85.6659 114.98 86.0663 114.161C86.4711 113.342 87.0353 112.702 87.7587 112.243C88.4867 111.783 89.3375 111.554 90.3112 111.554C90.9027 111.554 91.4759 111.651 92.0309 111.847C92.5861 112.043 93.0842 112.35 93.5256 112.768C93.9669 113.187 94.315 113.731 94.5698 114.4C94.8246 115.064 94.952 115.871 94.952 116.822V117.546H86.6191V116.017H92.9523C92.9523 115.48 92.8432 115.005 92.6248 114.591C92.4064 114.172 92.0993 113.842 91.7034 113.601C91.3122 113.36 90.8526 113.239 90.3248 113.239C89.7515 113.239 89.251 113.38 88.8234 113.662C88.4002 113.94 88.0727 114.304 87.8407 114.754C87.6132 115.2 87.4994 115.685 87.4994 116.208V117.402C87.4994 118.103 87.6223 118.699 87.868 119.19C88.1183 119.682 88.4662 120.057 88.9121 120.316C89.358 120.571 89.8789 120.699 90.4749 120.699C90.8616 120.699 91.2143 120.644 91.5328 120.535C91.8512 120.421 92.1265 120.253 92.3586 120.03C92.5906 119.807 92.7681 119.532 92.8909 119.204L94.8222 119.552C94.6675 120.121 94.39 120.619 93.9897 121.047C93.5938 121.47 93.0956 121.8 92.4951 122.036C91.899 122.268 91.2188 122.384 90.4545 122.384ZM98.5605 122.302C98.1873 122.302 97.8667 122.17 97.5982 121.907C97.3298 121.638 97.1955 121.315 97.1955 120.937C97.1955 120.564 97.3298 120.246 97.5982 119.982C97.8667 119.714 98.1873 119.579 98.5605 119.579C98.9336 119.579 99.2544 119.714 99.5227 119.982C99.7911 120.246 99.9253 120.564 99.9253 120.937C99.9253 121.188 99.8617 121.417 99.7343 121.627C99.6114 121.832 99.4476 121.995 99.243 122.118C99.0382 122.241 98.8107 122.302 98.5605 122.302ZM98.5605 114.672C98.1873 114.672 97.8667 114.538 97.5982 114.27C97.3298 114.001 97.1955 113.681 97.1955 113.308C97.1955 112.934 97.3298 112.616 97.5982 112.352C97.8667 112.084 98.1873 111.95 98.5605 111.95C98.9336 111.95 99.2544 112.084 99.5227 112.352C99.7911 112.616 99.9253 112.934 99.9253 113.308C99.9253 113.558 99.8617 113.788 99.7343 113.997C99.6114 114.202 99.4476 114.365 99.243 114.488C99.0382 114.611 98.8107 114.672 98.5605 114.672Z" fill="#94A3B8"/>
<path d="M17.8455 125.995H101.284V127.305H17.8455V125.995Z" fill="#94A3B8"/>
</svg>
