<svg width="1100" height="180" viewBox="0 0 1100 180" fill="none" xmlns="http://www.w3.org/2000/svg">
<g clip-path="url(#clip0_203_78)">
<path d="M1100 0H0V180H1100V0Z" fill="#0B1A2D"/>
<path d="M410.568 41.361L92.4754 97.4493L124.6 279.639L442.693 223.55L410.568 41.361Z" fill="#143055" stroke="#1E4880" stroke-width="6"/>
<path d="M413.002 37.8856L89 95.0159L92.6466 115.697L416.648 58.5666L413.002 37.8856Z" fill="#1E4880"/>
<path d="M101.279 107.066C102.911 106.779 104 105.223 103.712 103.591C103.425 101.959 101.869 100.87 100.237 101.158C98.6054 101.445 97.5159 103.001 97.8036 104.633C98.0913 106.265 99.6473 107.354 101.279 107.066Z" fill="#0B1A2D"/>
<path d="M112.112 105.156C113.744 104.869 114.833 103.313 114.545 101.681C114.258 100.049 112.702 98.9599 111.07 99.2476C109.438 99.5353 108.349 101.091 108.637 102.723C108.924 104.355 110.48 105.444 112.112 105.156Z" fill="#0B1A2D"/>
<path d="M122.945 103.246C124.577 102.959 125.666 101.403 125.378 99.7711C125.091 98.1394 123.535 97.0499 121.903 97.3376C120.271 97.6253 119.182 99.1813 119.47 100.813C119.757 102.445 121.313 103.534 122.945 103.246Z" fill="#0B1A2D"/>
<path d="M102.027 142.982C136.795 133.806 214.279 114.457 246.071 110.476C285.81 105.499 368.648 103.078 416.673 87.5017" stroke="#0B1A2D"/>
<path d="M113.103 205.795C147.871 196.618 208.351 187.376 240.143 183.395C279.883 178.418 379.724 165.891 427.749 150.315" stroke="#0B1A2D"/>
<path d="M106.331 167.388C141.099 158.211 190.813 154.134 222.604 150.153C262.344 145.177 372.952 127.483 420.977 111.907" stroke="#0B1A2D"/>
<path d="M124.885 108.489C128.27 136.324 132.436 168.591 139.037 188.751C145.638 208.911 147.7 238.841 147.081 248.766" stroke="#0B1A2D"/>
<path d="M341.05 70.3734C344.435 98.2085 348.601 130.475 355.202 150.635C361.803 170.795 363.865 200.725 363.246 210.65" stroke="#0B1A2D"/>
<path d="M179.309 243.083C175.924 215.248 171.757 182.982 165.156 162.822C158.555 142.662 156.493 112.732 157.112 102.807" stroke="#0B1A2D"/>
<path d="M185.18 97.8575C191.519 125.172 195.861 141.161 196.553 162.363C197.246 183.564 208.323 228.152 212.3 237.266" stroke="#0B1A2D"/>
<path d="M307.875 76.7307C314.214 104.045 321.335 135.791 322.027 156.993C322.719 178.195 331.018 207.025 334.995 216.139" stroke="#0B1A2D"/>
<path d="M302.767 221.822C296.428 194.508 289.307 162.762 288.615 141.56C287.923 120.358 279.624 91.5281 275.647 82.4135" stroke="#0B1A2D"/>
<path d="M247.58 87.3624C250.965 115.198 256.814 125.336 258.954 151.867C261.094 178.399 270.395 217.714 269.776 227.639" stroke="#0B1A2D"/>
<path d="M370.035 65.7704C376.374 93.0845 374.345 104.612 381.409 130.275C388.472 155.939 393.178 196.064 397.155 205.179" stroke="#0B1A2D"/>
<path d="M215.979 92.4268C222.136 117.742 235.426 179.675 239.335 224.883" stroke="#0B1A2D"/>
<path d="M398.661 60.215C404.818 85.5306 418.107 147.464 422.017 192.672" stroke="#0B1A2D"/>
<path d="M118.088 234.068C152.856 224.891 202.57 220.815 234.362 216.834C274.101 211.857 384.709 194.164 432.734 178.588" stroke="#0B1A2D"/>
<path d="M265.96 171.448C276.294 169.626 283.195 159.772 281.372 149.438C279.55 139.104 269.696 132.203 259.362 134.026C249.028 135.848 242.127 145.702 243.95 156.036C245.772 166.37 255.626 173.27 265.96 171.448Z" fill="white"/>
<path d="M271.311 149.961C272.758 150.487 273.092 152.382 271.912 153.372L260.634 162.836C259.455 163.825 257.646 163.167 257.379 161.651L254.823 147.152C254.555 145.636 256.029 144.399 257.476 144.925L271.311 149.961Z" fill="#143055"/>
<path d="M444.408 38.2764L122.637 66.4277L138.761 250.724L460.532 222.572L444.408 38.2764Z" fill="#143055" stroke="#1E4880" stroke-width="6"/>
<path d="M447.135 35.0263L119.387 63.7006L121.217 84.6207L448.965 55.9464L447.135 35.0263Z" fill="#1E4880"/>
<path d="M536.813 88C536.219 84.7187 533.594 82.7812 530.375 82.7812C526.281 82.7812 523.313 85.9375 523.313 91C523.313 96.0625 526.281 99.2187 530.375 99.2187C533.594 99.2187 536.219 97.2812 536.813 94H534.875C534.406 96.2188 532.5 97.4062 530.375 97.4062C527.469 97.4062 525.188 95.1562 525.188 91C525.188 86.8438 527.469 84.5937 530.375 84.5937C532.5 84.5937 534.406 85.7812 534.875 88H536.813ZM541.537 91.7812C541.537 89.6875 542.873 88.5 544.693 88.5C546.428 88.5 547.475 89.5937 547.475 91.5V99H549.318V91.375C549.318 88.2891 547.678 86.8438 545.225 86.8438C543.334 86.8438 542.256 87.6328 541.693 88.875H541.537V83H539.693V99H541.537V91.7812ZM557.723 99.25C560.16 99.25 561.941 98.0312 562.504 96.2188L560.723 95.7187C560.254 96.9687 559.168 97.5938 557.723 97.5938C555.559 97.5938 554.066 96.1953 553.98 93.625H562.691V92.8437C562.691 88.375 560.035 86.8438 557.535 86.8438C554.285 86.8438 552.129 89.4062 552.129 93.0938C552.129 96.7812 554.254 99.25 557.723 99.25ZM553.98 92.0312C554.105 90.1641 555.426 88.5 557.535 88.5C559.535 88.5 560.816 90 560.816 92.0312H553.98ZM570.371 99.25C573.027 99.25 574.777 97.625 575.09 95.5H573.246C572.902 96.8125 571.809 97.5938 570.371 97.5938C568.184 97.5938 566.777 95.7812 566.777 93C566.777 90.2812 568.215 88.5 570.371 88.5C571.996 88.5 572.965 89.5 573.246 90.5937H575.09C574.777 88.3438 572.871 86.8438 570.34 86.8438C567.09 86.8438 564.934 89.4062 564.934 93.0625C564.934 96.6562 566.996 99.25 570.371 99.25ZM577.785 99H579.629V94.5078L580.918 93.3125L585.41 99H587.754L582.309 92.125L587.379 87H585.098L579.848 92.3438H579.629V83H577.785V99ZM599.471 99.2813C601.564 99.2813 602.658 98.1562 603.033 97.375H603.127V99H604.971V91.0938C604.971 87.2812 602.064 86.8438 600.533 86.8438C598.721 86.8438 596.658 87.4687 595.721 89.6562L597.471 90.2812C597.877 89.4062 598.838 88.4687 600.596 88.4687C602.291 88.4687 603.127 89.3672 603.127 90.9062V90.9687C603.127 91.8594 602.221 91.7812 600.033 92.0625C597.807 92.3516 595.377 92.8437 595.377 95.5937C595.377 97.9375 597.189 99.2813 599.471 99.2813ZM599.752 97.625C598.283 97.625 597.221 96.9687 597.221 95.6875C597.221 94.2812 598.502 93.8438 599.939 93.6562C600.721 93.5625 602.814 93.3437 603.127 92.9687V94.6562C603.127 96.1562 601.939 97.625 599.752 97.625ZM610.18 83H608.336V99H610.18V83ZM615.4 83H613.557V99H615.4V83ZM629.84 99.25C633.09 99.25 635.277 96.7812 635.277 93.0625C635.277 89.3125 633.09 86.8438 629.84 86.8438C626.59 86.8438 624.402 89.3125 624.402 93.0625C624.402 96.7812 626.59 99.25 629.84 99.25ZM629.84 97.5938C627.371 97.5938 626.246 95.4687 626.246 93.0625C626.246 90.6562 627.371 88.5 629.84 88.5C632.309 88.5 633.434 90.6562 633.434 93.0625C633.434 95.4687 632.309 97.5938 629.84 97.5938ZM645.654 94.0937C645.654 96.3437 643.936 97.375 642.561 97.375C641.029 97.375 639.936 96.25 639.936 94.5V87H638.092V94.625C638.092 97.6875 639.717 99.1563 641.967 99.1563C643.779 99.1563 644.967 98.1875 645.529 96.9687H645.654V99H647.498V87H645.654V94.0937ZM650.875 99H652.719V91.4062C652.719 89.7812 654 88.5937 655.75 88.5937C656.242 88.5937 656.75 88.6875 656.875 88.7187V86.8438C656.664 86.8281 656.18 86.8125 655.906 86.8125C654.469 86.8125 653.219 87.625 652.781 88.8125H652.656V87H650.875V99ZM668.779 99.2813C670.873 99.2813 671.967 98.1562 672.342 97.375H672.436V99H674.279V91.0938C674.279 87.2812 671.373 86.8438 669.842 86.8438C668.029 86.8438 665.967 87.4687 665.029 89.6562L666.779 90.2812C667.186 89.4062 668.146 88.4687 669.904 88.4687C671.6 88.4687 672.436 89.3672 672.436 90.9062V90.9687C672.436 91.8594 671.529 91.7812 669.342 92.0625C667.115 92.3516 664.686 92.8437 664.686 95.5937C664.686 97.9375 666.498 99.2813 668.779 99.2813ZM669.061 97.625C667.592 97.625 666.529 96.9687 666.529 95.6875C666.529 94.2812 667.811 93.8438 669.248 93.6562C670.029 93.5625 672.123 93.3437 672.436 92.9687V94.6562C672.436 96.1562 671.248 97.625 669.061 97.625ZM687.027 87H685.027L681.715 96.5625H681.59L678.277 87H676.277L680.715 99H682.59L687.027 87ZM692.627 99.2813C694.721 99.2813 695.814 98.1562 696.189 97.375H696.283V99H698.127V91.0938C698.127 87.2812 695.221 86.8438 693.689 86.8438C691.877 86.8438 689.814 87.4687 688.877 89.6562L690.627 90.2812C691.033 89.4062 691.994 88.4687 693.752 88.4687C695.447 88.4687 696.283 89.3672 696.283 90.9062V90.9687C696.283 91.8594 695.377 91.7812 693.189 92.0625C690.963 92.3516 688.533 92.8437 688.533 95.5937C688.533 97.9375 690.346 99.2813 692.627 99.2813ZM692.908 97.625C691.439 97.625 690.377 96.9687 690.377 95.6875C690.377 94.2812 691.658 93.8438 693.096 93.6562C693.877 93.5625 695.971 93.3437 696.283 92.9687V94.6562C696.283 96.1562 695.096 97.625 692.908 97.625ZM701.492 99H703.336V87H701.492V99ZM702.43 85C703.148 85 703.742 84.4375 703.742 83.75C703.742 83.0625 703.148 82.5 702.43 82.5C701.711 82.5 701.117 83.0625 701.117 83.75C701.117 84.4375 701.711 85 702.43 85ZM708.557 83H706.713V99H708.557V83ZM715.465 99.2813C717.559 99.2813 718.652 98.1562 719.027 97.375H719.121V99H720.965V91.0938C720.965 87.2812 718.059 86.8438 716.527 86.8438C714.715 86.8438 712.652 87.4687 711.715 89.6562L713.465 90.2812C713.871 89.4062 714.832 88.4687 716.59 88.4687C718.285 88.4687 719.121 89.3672 719.121 90.9062V90.9687C719.121 91.8594 718.215 91.7812 716.027 92.0625C713.801 92.3516 711.371 92.8437 711.371 95.5937C711.371 97.9375 713.184 99.2813 715.465 99.2813ZM715.746 97.625C714.277 97.625 713.215 96.9687 713.215 95.6875C713.215 94.2812 714.496 93.8438 715.934 93.6562C716.715 93.5625 718.809 93.3437 719.121 92.9687V94.6562C719.121 96.1562 717.934 97.625 715.746 97.625ZM724.58 99H726.361V97.1562H726.58C726.986 97.8125 727.768 99.25 730.08 99.25C733.08 99.25 735.174 96.8437 735.174 93.0313C735.174 89.25 733.08 86.8438 730.049 86.8438C727.705 86.8438 726.986 88.2812 726.58 88.9062H726.424V83H724.58V99ZM726.393 93C726.393 90.3125 727.58 88.5 729.83 88.5C732.174 88.5 733.33 90.4687 733.33 93C733.33 95.5625 732.143 97.5938 729.83 97.5938C727.611 97.5938 726.393 95.7187 726.393 93ZM739.838 83H737.994V99H739.838V83ZM748.246 99.25C750.684 99.25 752.465 98.0312 753.027 96.2188L751.246 95.7187C750.777 96.9687 749.691 97.5938 748.246 97.5938C746.082 97.5938 744.59 96.1953 744.504 93.625H753.215V92.8437C753.215 88.375 750.559 86.8438 748.059 86.8438C744.809 86.8438 742.652 89.4062 742.652 93.0938C742.652 96.7812 744.777 99.25 748.246 99.25ZM744.504 92.0312C744.629 90.1641 745.949 88.5 748.059 88.5C750.059 88.5 751.34 90 751.34 92.0312H744.504ZM767.082 99.25C769.738 99.25 771.488 97.625 771.801 95.5H769.957C769.613 96.8125 768.52 97.5938 767.082 97.5938C764.895 97.5938 763.488 95.7812 763.488 93C763.488 90.2812 764.926 88.5 767.082 88.5C768.707 88.5 769.676 89.5 769.957 90.5937H771.801C771.488 88.3438 769.582 86.8438 767.051 86.8438C763.801 86.8438 761.645 89.4062 761.645 93.0625C761.645 96.6562 763.707 99.25 767.082 99.25ZM779.371 99.25C782.621 99.25 784.809 96.7812 784.809 93.0625C784.809 89.3125 782.621 86.8438 779.371 86.8438C776.121 86.8438 773.934 89.3125 773.934 93.0625C773.934 96.7812 776.121 99.25 779.371 99.25ZM779.371 97.5938C776.902 97.5938 775.777 95.4687 775.777 93.0625C775.777 90.6562 776.902 88.5 779.371 88.5C781.84 88.5 782.965 90.6562 782.965 93.0625C782.965 95.4687 781.84 97.5938 779.371 97.5938ZM795.186 94.0937C795.186 96.3437 793.467 97.375 792.092 97.375C790.561 97.375 789.467 96.25 789.467 94.5V87H787.623V94.625C787.623 97.6875 789.248 99.1563 791.498 99.1563C793.311 99.1563 794.498 98.1875 795.061 96.9687H795.186V99H797.029V87H795.186V94.0937ZM800.406 99H802.25V91.4062C802.25 89.7812 803.531 88.5937 805.281 88.5937C805.773 88.5937 806.281 88.6875 806.406 88.7187V86.8438C806.195 86.8281 805.711 86.8125 805.438 86.8125C804 86.8125 802.75 87.625 802.313 88.8125H802.187V87H800.406V99ZM817.092 89.6875C816.514 87.9844 815.217 86.8438 812.842 86.8438C810.311 86.8438 808.436 88.2812 808.436 90.3125C808.436 91.9687 809.42 93.0781 811.623 93.5937L813.623 94.0625C814.834 94.3437 815.404 94.9219 815.404 95.75C815.404 96.7812 814.311 97.625 812.592 97.625C811.084 97.625 810.139 96.9766 809.811 95.6875L808.061 96.125C808.49 98.1641 810.17 99.25 812.623 99.25C815.412 99.25 817.311 97.7266 817.311 95.6562C817.311 93.9844 816.264 92.9297 814.123 92.4063L812.342 91.9687C810.92 91.6172 810.279 91.1406 810.279 90.2187C810.279 89.1875 811.373 88.4375 812.842 88.4375C814.451 88.4375 815.115 89.3281 815.436 90.1562L817.092 89.6875ZM825.117 99.25C827.555 99.25 829.336 98.0312 829.898 96.2188L828.117 95.7187C827.648 96.9687 826.562 97.5938 825.117 97.5938C822.953 97.5938 821.461 96.1953 821.375 93.625H830.086V92.8437C830.086 88.375 827.43 86.8438 824.93 86.8438C821.68 86.8438 819.523 89.4062 819.523 93.0938C819.523 96.7812 821.648 99.25 825.117 99.25ZM821.375 92.0312C821.5 90.1641 822.82 88.5 824.93 88.5C826.93 88.5 828.211 90 828.211 92.0312H821.375ZM841.391 89.6875C840.813 87.9844 839.516 86.8438 837.141 86.8438C834.609 86.8438 832.734 88.2812 832.734 90.3125C832.734 91.9687 833.719 93.0781 835.922 93.5937L837.922 94.0625C839.133 94.3437 839.703 94.9219 839.703 95.75C839.703 96.7812 838.609 97.625 836.891 97.625C835.383 97.625 834.438 96.9766 834.109 95.6875L832.359 96.125C832.789 98.1641 834.469 99.25 836.922 99.25C839.711 99.25 841.609 97.7266 841.609 95.6562C841.609 93.9844 840.563 92.9297 838.422 92.4063L836.641 91.9687C835.219 91.6172 834.578 91.1406 834.578 90.2187C834.578 89.1875 835.672 88.4375 837.141 88.4375C838.75 88.4375 839.414 89.3281 839.734 90.1562L841.391 89.6875ZM854.104 99.2813C856.197 99.2813 857.291 98.1562 857.666 97.375H857.76V99H859.604V91.0938C859.604 87.2812 856.697 86.8438 855.166 86.8438C853.354 86.8438 851.291 87.4687 850.354 89.6562L852.104 90.2812C852.51 89.4062 853.471 88.4687 855.229 88.4687C856.924 88.4687 857.76 89.3672 857.76 90.9062V90.9687C857.76 91.8594 856.854 91.7812 854.666 92.0625C852.439 92.3516 850.01 92.8437 850.01 95.5937C850.01 97.9375 851.822 99.2813 854.104 99.2813ZM854.385 97.625C852.916 97.625 851.854 96.9687 851.854 95.6875C851.854 94.2812 853.135 93.8438 854.572 93.6562C855.354 93.5625 857.447 93.3437 857.76 92.9687V94.6562C857.76 96.1562 856.572 97.625 854.385 97.625ZM864.813 91.7812C864.813 89.6875 866.109 88.5 867.875 88.5C869.586 88.5 870.625 89.6172 870.625 91.5V99H872.469V91.375C872.469 88.3125 870.836 86.8438 868.406 86.8438C866.594 86.8438 865.469 87.6562 864.906 88.875H864.75V87H862.969V99H864.813V91.7812ZM880.369 99.25C882.682 99.25 883.463 97.8125 883.869 97.1562H884.088V99H885.869V83H884.025V88.9062H883.869C883.463 88.2812 882.744 86.8438 880.4 86.8438C877.369 86.8438 875.275 89.25 875.275 93.0313C875.275 96.8437 877.369 99.25 880.369 99.25ZM880.619 97.5938C878.307 97.5938 877.119 95.5625 877.119 93C877.119 90.4687 878.275 88.5 880.619 88.5C882.869 88.5 884.057 90.3125 884.057 93C884.057 95.7187 882.838 97.5938 880.619 97.5938ZM905.502 87H903.502L900.189 96.5625H900.064L896.752 87H894.752L899.189 99H901.064L905.502 87ZM907.936 99H909.779V87H907.936V99ZM908.873 85C909.592 85 910.186 84.4375 910.186 83.75C910.186 83.0625 909.592 82.5 908.873 82.5C908.154 82.5 907.561 83.0625 907.561 83.75C907.561 84.4375 908.154 85 908.873 85ZM917.688 99.25C920 99.25 920.781 97.8125 921.188 97.1562H921.406V99H923.188V83H921.344V88.9062H921.188C920.781 88.2812 920.062 86.8438 917.719 86.8438C914.688 86.8438 912.594 89.25 912.594 93.0313C912.594 96.8437 914.688 99.25 917.688 99.25ZM917.938 97.5938C915.625 97.5938 914.438 95.5625 914.438 93C914.438 90.4687 915.594 88.5 917.938 88.5C920.188 88.5 921.375 90.3125 921.375 93C921.375 95.7187 920.156 97.5938 917.938 97.5938ZM931.852 99.25C934.289 99.25 936.07 98.0312 936.633 96.2188L934.852 95.7187C934.383 96.9687 933.297 97.5938 931.852 97.5938C929.688 97.5938 928.195 96.1953 928.109 93.625H936.82V92.8437C936.82 88.375 934.164 86.8438 931.664 86.8438C928.414 86.8438 926.258 89.4062 926.258 93.0938C926.258 96.7812 928.383 99.25 931.852 99.25ZM928.109 92.0312C928.234 90.1641 929.555 88.5 931.664 88.5C933.664 88.5 934.945 90 934.945 92.0312H928.109ZM944.5 99.25C947.75 99.25 949.938 96.7812 949.938 93.0625C949.938 89.3125 947.75 86.8438 944.5 86.8438C941.25 86.8438 939.063 89.3125 939.063 93.0625C939.063 96.7812 941.25 99.25 944.5 99.25ZM944.5 97.5938C942.031 97.5938 940.906 95.4687 940.906 93.0625C940.906 90.6562 942.031 88.5 944.5 88.5C946.969 88.5 948.094 90.6562 948.094 93.0625C948.094 95.4687 946.969 97.5938 944.5 97.5938ZM961.252 89.6875C960.674 87.9844 959.377 86.8438 957.002 86.8438C954.471 86.8438 952.596 88.2812 952.596 90.3125C952.596 91.9687 953.58 93.0781 955.783 93.5937L957.783 94.0625C958.994 94.3437 959.564 94.9219 959.564 95.75C959.564 96.7812 958.471 97.625 956.752 97.625C955.244 97.625 954.299 96.9766 953.971 95.6875L952.221 96.125C952.65 98.1641 954.33 99.25 956.783 99.25C959.572 99.25 961.471 97.7266 961.471 95.6562C961.471 93.9844 960.424 92.9297 958.283 92.4063L956.502 91.9687C955.08 91.6172 954.439 91.1406 954.439 90.2187C954.439 89.1875 955.533 88.4375 957.002 88.4375C958.611 88.4375 959.275 89.3281 959.596 90.1562L961.252 89.6875ZM975.309 99.25C978.559 99.25 980.746 96.7812 980.746 93.0625C980.746 89.3125 978.559 86.8438 975.309 86.8438C972.059 86.8438 969.871 89.3125 969.871 93.0625C969.871 96.7812 972.059 99.25 975.309 99.25ZM975.309 97.5938C972.84 97.5938 971.715 95.4687 971.715 93.0625C971.715 90.6562 972.84 88.5 975.309 88.5C977.777 88.5 978.902 90.6562 978.902 93.0625C978.902 95.4687 977.777 97.5938 975.309 97.5938ZM985.404 91.7812C985.404 89.6875 986.701 88.5 988.467 88.5C990.178 88.5 991.217 89.6172 991.217 91.5V99H993.061V91.375C993.061 88.3125 991.428 86.8438 988.998 86.8438C987.186 86.8438 986.061 87.6562 985.498 88.875H985.342V87H983.561V99H985.404V91.7812ZM1015.55 83H1013.65V95.5937H1013.49L1004.74 83H1002.87V99H1004.8V86.4375H1004.96L1013.68 99H1015.55V83ZM1020.56 87H1018.43L1022.24 93L1018.43 99H1020.56L1023.43 94.3437L1026.31 99H1028.43L1024.56 93L1028.43 87H1026.31L1023.43 91.9062L1020.56 87ZM1033.5 83H1031.38L1031.53 94.5H1033.34L1033.5 83ZM1032.44 99.125C1033.21 99.125 1033.84 98.4922 1033.84 97.7187C1033.84 96.9453 1033.21 96.3125 1032.44 96.3125C1031.66 96.3125 1031.03 96.9453 1031.03 97.7187C1031.03 98.4922 1031.66 99.125 1032.44 99.125Z" fill="white"/>
<path d="M130.568 76.7758C132.219 76.6314 133.44 75.1763 133.296 73.5257C133.151 71.8752 131.696 70.6542 130.046 70.7986C128.395 70.943 127.174 72.3981 127.318 74.0486C127.463 75.6992 128.918 76.9202 130.568 76.7758Z" fill="#0B1A2D"/>
<path d="M141.527 75.817C143.178 75.6726 144.399 74.2175 144.255 72.567C144.11 70.9164 142.655 69.6954 141.005 69.8399C139.354 69.9843 138.133 71.4394 138.277 73.0899C138.422 74.7405 139.877 75.9614 141.527 75.817Z" fill="#0B1A2D"/>
<path d="M152.485 74.8584C154.136 74.714 155.357 73.2589 155.213 71.6083C155.068 69.9578 153.613 68.7368 151.963 68.8812C150.312 69.0256 149.091 70.4807 149.235 72.1313C149.38 73.7818 150.835 75.0028 152.485 74.8584Z" fill="#0B1A2D"/>
<path d="M131.584 98.5001C167.417 95.5001 247.084 89.9001 279.084 91.5001C319.084 93.5001 401.084 105.5 451.084 98.5001" stroke="#0B1A2D"/>
<path d="M131.584 162.282C167.417 159.282 228.584 160.682 260.584 162.282C300.584 164.282 401.084 169.282 451.084 162.282" stroke="#0B1A2D"/>
<path d="M131.584 123.282C167.417 120.282 217.084 124.9 249.084 126.5C289.084 128.5 401.084 130.282 451.084 123.282" stroke="#0B1A2D"/>
<path d="M160.084 68.5001C158.584 96.5001 157.084 129 160.084 150C163.084 171 159.917 200.833 157.584 210.5" stroke="#0B1A2D"/>
<path d="M379.584 68.5001C378.084 96.5001 376.584 129 379.584 150C382.584 171 379.417 200.833 377.084 210.5" stroke="#0B1A2D"/>
<path d="M190.309 210.5C191.809 182.5 193.309 150 190.309 129C187.309 108 190.476 78.1668 192.809 68.5001" stroke="#0B1A2D"/>
<path d="M221.309 68.5001C222.809 96.5001 224.309 113 221.309 134C218.309 155 221.476 200.833 223.809 210.5" stroke="#0B1A2D"/>
<path d="M345.809 69.0001C347.309 97.0001 348.809 129.5 345.809 150.5C342.809 171.5 345.976 201.333 348.309 211" stroke="#0B1A2D"/>
<path d="M315.584 211C314.084 183 312.584 150.5 315.584 129.5C318.584 108.5 315.417 78.6668 313.084 69.0001" stroke="#0B1A2D"/>
<path d="M284.584 69.0001C283.084 97.0001 287.084 108 284.584 134.5C282.084 161 284.417 201.333 282.084 211" stroke="#0B1A2D"/>
<path d="M408.928 69.0001C410.428 97.0001 406.428 108 408.928 134.5C411.428 161 409.095 201.333 411.428 211" stroke="#0B1A2D"/>
<path d="M252.584 68.5001C254.251 94.5001 256.584 157.8 252.584 203" stroke="#0B1A2D"/>
<path d="M438.084 68.5001C439.751 94.5001 442.084 157.8 438.084 203" stroke="#0B1A2D"/>
<path d="M288.084 155C298.577 155 307.084 146.493 307.084 136C307.084 125.507 298.577 117 288.084 117C277.591 117 269.084 125.507 269.084 136C269.084 146.493 277.591 155 288.084 155Z" fill="white"/>
<path d="M297.084 134.768C298.417 135.538 298.417 137.462 297.084 138.232L284.334 145.593C283.001 146.363 281.334 145.401 281.334 143.861V129.139C281.334 127.599 283.001 126.637 284.334 127.407L297.084 134.768Z" fill="#143055"/>
<path d="M477.084 36H154.084V221H477.084V36Z" fill="#143055" stroke="#1E4880" stroke-width="6"/>
<path d="M480.084 33H151.084V54H480.084V33Z" fill="#1E4880"/>
<path d="M161.084 47C162.741 47 164.084 45.6569 164.084 44C164.084 42.3431 162.741 41 161.084 41C159.427 41 158.084 42.3431 158.084 44C158.084 45.6569 159.427 47 161.084 47Z" fill="#0B1A2D"/>
<path d="M172.084 47C173.741 47 175.084 45.6569 175.084 44C175.084 42.3431 173.741 41 172.084 41C170.427 41 169.084 42.3431 169.084 44C169.084 45.6569 170.427 47 172.084 47Z" fill="#0B1A2D"/>
<path d="M183.084 47C184.741 47 186.084 45.6569 186.084 44C186.084 42.3431 184.741 41 183.084 41C181.427 41 180.084 42.3431 180.084 44C180.084 45.6569 181.427 47 183.084 47Z" fill="#0B1A2D"/>
<path d="M155.584 82.4999C191.418 79.4999 271.084 73.8999 303.084 75.4999C343.084 77.4999 425.084 89.4999 475.084 82.4999" stroke="#0B1A2D"/>
<path d="M155.584 146.282C191.418 143.282 252.584 144.682 284.584 146.282C324.584 148.282 425.084 153.282 475.084 146.282" stroke="#0B1A2D"/>
<path d="M155.584 107.282C191.418 104.282 241.084 108.9 273.084 110.5C313.084 112.5 425.084 114.282 475.084 107.282" stroke="#0B1A2D"/>
<path d="M184.084 52.5C182.584 80.5 181.084 113 184.084 134C187.084 155 183.918 184.833 181.584 194.5" stroke="#0B1A2D"/>
<path d="M403.584 52.5C402.084 80.5 400.584 113 403.584 134C406.584 155 403.418 184.833 401.084 194.5" stroke="#0B1A2D"/>
<path d="M214.309 194.5C215.809 166.5 217.309 134 214.309 113C211.309 92 214.476 62.1667 216.809 52.5" stroke="#0B1A2D"/>
<path d="M245.309 52.5C246.809 80.5 248.309 97 245.309 118C242.309 139 245.476 184.833 247.809 194.5" stroke="#0B1A2D"/>
<path d="M369.809 53C371.309 81 372.809 113.5 369.809 134.5C366.809 155.5 369.976 185.333 372.309 195" stroke="#0B1A2D"/>
<path d="M339.584 195C338.084 167 336.584 134.5 339.584 113.5C342.584 92.5 339.418 62.6667 337.084 53" stroke="#0B1A2D"/>
<path d="M308.584 53C307.084 81 311.084 92 308.584 118.5C306.084 145 308.418 185.333 306.084 195" stroke="#0B1A2D"/>
<path d="M432.928 53C434.428 81 430.428 92 432.928 118.5C435.428 145 433.095 185.333 435.428 195" stroke="#0B1A2D"/>
<path d="M276.584 52.5C278.251 78.5 280.584 141.8 276.584 187" stroke="#0B1A2D"/>
<path d="M462.084 52.5C463.751 78.5 466.084 141.8 462.084 187" stroke="#0B1A2D"/>
<path d="M155.584 174.991C191.418 171.991 241.084 176.609 273.084 178.209C313.084 180.209 425.084 181.991 475.084 174.991" stroke="#0B1A2D"/>
<path d="M312.084 139C322.577 139 331.084 130.493 331.084 120C331.084 109.507 322.577 101 312.084 101C301.591 101 293.084 109.507 293.084 120C293.084 130.493 301.591 139 312.084 139Z" fill="white"/>
<path d="M321.084 118.768C322.418 119.538 322.418 121.462 321.084 122.232L308.334 129.593C307.001 130.363 305.334 129.401 305.334 127.861V113.139C305.334 111.599 307.001 110.637 308.334 111.407L321.084 118.768Z" fill="#143055"/>
<path d="M47.8826 41.423L43.593 34.7102L43.5866 40.3503L36.1939 27.89H30.9932V48.9251H36.1357L36.1525 36.4802L43.469 48.3674L47.8826 41.423Z" fill="white"/>
<path d="M43.5943 33.2972H48.7304L48.742 33.2377V27.89H43.5995L43.593 33.2377L43.5943 33.2972Z" fill="white"/>
<path d="M56.6685 39.1289C55.4381 39.1055 54.3265 39.8608 53.8937 41.0141C54.6142 39.9354 55.9861 39.5019 57.1945 39.9712C57.7529 40.1989 58.487 40.5664 59.0686 40.3697C58.5154 39.5926 57.6217 39.1305 56.6685 39.1289Z" fill="#96D7E8"/>
<path d="M62.496 41.6597C62.496 41.0296 62.1535 40.8834 61.4427 40.6246C60.9154 40.4409 60.317 40.2339 59.8815 39.6645C59.7962 39.552 59.7173 39.4252 59.6333 39.2906C59.4451 38.9421 59.1899 38.6342 58.8824 38.3849C58.4675 38.0795 57.9234 37.9307 57.2178 37.9307C55.8018 37.9317 54.5262 38.7873 53.9867 40.098C54.6687 39.1506 55.8021 38.6372 56.9632 38.7499C58.1242 38.8626 59.138 39.5844 59.6256 40.6453C59.8691 41.0477 60.3495 41.2398 60.803 41.1163C61.497 40.9675 61.4492 41.6248 62.4973 41.8474L62.496 41.6597Z" fill="#48C4E5"/>
<path d="M64.785 41.5252V41.5109C64.7695 37.3394 61.3872 33.7708 57.2178 33.7708C54.6714 33.769 52.2952 35.0511 50.8966 37.1815L50.8694 37.1349L48.7292 33.7708H43.5944L48.4733 41.4204L43.712 48.925H48.6994L50.8694 45.588L53.0782 48.925H58.067L53.5435 41.7982C53.4684 41.6593 53.4276 41.5045 53.4246 41.3466C53.4242 40.34 53.8235 39.3745 54.5344 38.6627C55.2454 37.9509 56.2098 37.5512 57.2152 37.5516C59.3116 37.5516 59.6618 38.8067 60.1142 39.3967C61.0072 40.5612 62.7908 40.0514 62.7908 41.5704C62.7961 41.9264 62.9907 42.2525 63.3012 42.4258C63.6118 42.5992 63.9911 42.5935 64.2964 42.411C64.6016 42.2284 64.7864 41.8966 64.7811 41.5407V41.5252H64.785Z" fill="white"/>
<path d="M64.7901 42.5991C64.8408 42.9539 64.7907 43.3158 64.6454 43.6433C64.3611 44.3019 63.8867 44.0819 63.8867 44.0819C63.8867 44.0819 63.4783 43.8827 63.7265 43.501C64.0018 43.0753 64.5459 43.1244 64.7901 42.5991Z" fill="white"/>
</g>
<defs>
<clipPath id="clip0_203_78">
<rect width="1100" height="180" fill="white"/>
</clipPath>
</defs>
</svg>
