<svg width="2280" height="690" viewBox="0 0 2280 690" fill="none" xmlns="http://www.w3.org/2000/svg">
<g clip-path="url(#clip0_1804_1909)">
<path d="M501.301 378.943L445.849 292.265L445.766 365.093L350.198 204.199H282.967V475.814H349.447L349.664 315.12L444.245 468.613L501.301 378.943Z" fill="#0F172A"/>
<path d="M445.866 274.02H512.261L512.412 273.251V204.199H445.933L445.849 273.251L445.866 274.02Z" fill="#0F172A"/>
<path d="M614.879 349.321C598.973 349.02 584.603 358.772 579.008 373.664C588.322 359.735 606.057 354.138 621.679 360.197C628.897 363.138 638.387 367.883 645.905 365.344C638.755 355.309 627.201 349.342 614.879 349.321Z" fill="#0F172A"/>
<path d="M690.214 382.001C690.214 373.865 685.787 371.976 676.598 368.635C669.781 366.263 662.045 363.589 656.415 356.238C655.312 354.784 654.293 353.147 653.207 351.409C650.774 346.909 647.475 342.934 643.5 339.714C638.137 335.771 631.103 333.85 621.98 333.85C603.676 333.862 587.185 344.911 580.212 361.835C589.028 349.601 603.681 342.973 618.689 344.428C633.698 345.883 646.804 355.203 653.106 368.903C656.255 374.098 662.465 376.579 668.328 374.984C677.3 373.063 676.681 381.55 690.231 384.424L690.214 382.001Z" fill="#0F172A"/>
<path d="M719.803 380.263V380.08C719.603 326.214 675.879 280.134 621.98 280.134C589.062 280.112 558.344 296.667 540.264 324.176L539.913 323.574L512.245 280.134H445.866L508.937 378.91L447.386 475.814H511.861L539.913 432.725L568.466 475.814H632.957L574.481 383.788C573.51 381.996 572.983 379.996 572.944 377.957C572.939 364.959 578.101 352.493 587.291 343.302C596.482 334.111 608.949 328.949 621.947 328.954C649.047 328.954 653.574 345.16 659.422 352.779C670.967 367.816 694.024 361.233 694.024 380.848C694.092 385.444 696.607 389.655 700.622 391.893C704.637 394.132 709.541 394.059 713.487 391.701C717.433 389.343 719.822 385.059 719.753 380.464V380.263H719.803Z" fill="#0F172A"/>
<path d="M719.87 394.13C720.526 398.711 719.877 403.385 717.999 407.614C714.324 416.118 708.192 413.278 708.192 413.278C708.192 413.278 702.912 410.704 706.12 405.776C709.679 400.279 716.713 400.914 719.87 394.13Z" fill="#0F172A"/>
<path d="M1115.94 350.261C1115.67 347.511 1114.5 345.375 1112.43 343.852C1110.36 342.33 1107.56 341.568 1104.01 341.568C1101.6 341.568 1099.57 341.909 1097.91 342.591C1096.25 343.25 1094.98 344.17 1094.09 345.352C1093.23 346.534 1092.8 347.875 1092.8 349.375C1092.75 350.625 1093.01 351.716 1093.58 352.648C1094.17 353.58 1094.98 354.386 1096 355.068C1097.02 355.727 1098.2 356.307 1099.55 356.807C1100.89 357.284 1102.32 357.693 1103.84 358.034L1110.11 359.534C1113.16 360.216 1115.95 361.125 1118.5 362.261C1121.05 363.398 1123.25 364.795 1125.11 366.455C1126.98 368.114 1128.42 370.068 1129.44 372.318C1130.49 374.568 1131.02 377.148 1131.05 380.057C1131.02 384.33 1129.93 388.034 1127.77 391.17C1125.64 394.284 1122.55 396.705 1118.5 398.432C1114.48 400.136 1109.63 400.989 1103.94 400.989C1098.31 400.989 1093.4 400.125 1089.22 398.398C1085.06 396.67 1081.81 394.114 1079.47 390.727C1077.15 387.318 1075.93 383.102 1075.82 378.08H1090.1C1090.26 380.42 1090.93 382.375 1092.11 383.943C1093.32 385.489 1094.92 386.659 1096.92 387.455C1098.94 388.227 1101.23 388.614 1103.77 388.614C1106.27 388.614 1108.44 388.25 1110.28 387.523C1112.15 386.795 1113.59 385.784 1114.61 384.489C1115.64 383.193 1116.15 381.705 1116.15 380.023C1116.15 378.455 1115.68 377.136 1114.75 376.068C1113.84 375 1112.5 374.091 1110.73 373.341C1108.98 372.591 1106.83 371.909 1104.28 371.295L1096.68 369.386C1090.8 367.955 1086.15 365.716 1082.74 362.67C1079.33 359.625 1077.64 355.523 1077.66 350.364C1077.64 346.136 1078.76 342.443 1081.03 339.284C1083.33 336.125 1086.48 333.659 1090.48 331.886C1094.48 330.114 1099.02 329.227 1104.11 329.227C1109.3 329.227 1113.82 330.114 1117.68 331.886C1121.57 333.659 1124.59 336.125 1126.75 339.284C1128.91 342.443 1130.02 346.102 1130.09 350.261H1115.94ZM1135.42 400V347.636H1149.26V356.875H1149.88C1150.97 353.807 1152.79 351.386 1155.33 349.614C1157.88 347.841 1160.92 346.955 1164.47 346.955C1168.06 346.955 1171.11 347.852 1173.64 349.648C1176.16 351.42 1177.84 353.83 1178.68 356.875H1179.23C1180.3 353.875 1182.23 351.477 1185.02 349.682C1187.84 347.864 1191.17 346.955 1195.01 346.955C1199.9 346.955 1203.86 348.511 1206.91 351.625C1209.98 354.716 1211.51 359.102 1211.51 364.784V400H1197.02V367.648C1197.02 364.739 1196.25 362.557 1194.71 361.102C1193.16 359.648 1191.23 358.92 1188.91 358.92C1186.27 358.92 1184.22 359.761 1182.74 361.443C1181.26 363.102 1180.52 365.295 1180.52 368.023V400H1166.44V367.341C1166.44 364.773 1165.71 362.727 1164.23 361.205C1162.77 359.682 1160.85 358.92 1158.47 358.92C1156.85 358.92 1155.4 359.33 1154.1 360.148C1152.83 360.943 1151.82 362.068 1151.07 363.523C1150.32 364.955 1149.94 366.636 1149.94 368.568V400H1135.42ZM1232.64 400.989C1229.3 400.989 1226.32 400.409 1223.7 399.25C1221.09 398.068 1219.02 396.33 1217.5 394.034C1216 391.716 1215.25 388.83 1215.25 385.375C1215.25 382.466 1215.78 380.023 1216.85 378.045C1217.92 376.068 1219.37 374.477 1221.22 373.273C1223.06 372.068 1225.15 371.159 1227.49 370.545C1229.85 369.932 1232.33 369.5 1234.92 369.25C1237.97 368.932 1240.42 368.636 1242.28 368.364C1244.15 368.068 1245.5 367.636 1246.34 367.068C1247.18 366.5 1247.6 365.659 1247.6 364.545V364.341C1247.6 362.182 1246.92 360.511 1245.56 359.33C1244.22 358.148 1242.31 357.557 1239.83 357.557C1237.22 357.557 1235.14 358.136 1233.59 359.295C1232.05 360.432 1231.02 361.864 1230.52 363.591L1217.09 362.5C1217.77 359.318 1219.11 356.568 1221.11 354.25C1223.11 351.909 1225.69 350.114 1228.85 348.864C1232.03 347.591 1235.72 346.955 1239.9 346.955C1242.81 346.955 1245.59 347.295 1248.25 347.977C1250.93 348.659 1253.31 349.716 1255.37 351.148C1257.47 352.58 1259.11 354.42 1260.32 356.67C1261.52 358.898 1262.12 361.568 1262.12 364.682V400H1248.35V392.739H1247.94C1247.1 394.375 1245.98 395.818 1244.57 397.068C1243.16 398.295 1241.47 399.261 1239.49 399.966C1237.51 400.648 1235.23 400.989 1232.64 400.989ZM1236.8 390.966C1238.93 390.966 1240.82 390.545 1242.45 389.705C1244.09 388.841 1245.37 387.682 1246.31 386.227C1247.24 384.773 1247.7 383.125 1247.7 381.284V375.727C1247.25 376.023 1246.62 376.295 1245.83 376.545C1245.06 376.773 1244.18 376.989 1243.2 377.193C1242.23 377.375 1241.25 377.545 1240.27 377.705C1239.3 377.841 1238.41 377.966 1237.61 378.08C1235.91 378.33 1234.42 378.727 1233.15 379.273C1231.87 379.818 1230.89 380.557 1230.18 381.489C1229.48 382.398 1229.12 383.534 1229.12 384.898C1229.12 386.875 1229.84 388.386 1231.27 389.432C1232.73 390.455 1234.57 390.966 1236.8 390.966ZM1268.11 400V347.636H1282.19V356.773H1282.74C1283.69 353.523 1285.29 351.068 1287.54 349.409C1289.79 347.727 1292.38 346.886 1295.32 346.886C1296.04 346.886 1296.83 346.932 1297.67 347.023C1298.51 347.114 1299.25 347.239 1299.88 347.398V360.284C1299.2 360.08 1298.26 359.898 1297.05 359.739C1295.85 359.58 1294.75 359.5 1293.75 359.5C1291.61 359.5 1289.7 359.966 1288.02 360.898C1286.36 361.807 1285.04 363.08 1284.07 364.716C1283.11 366.352 1282.63 368.239 1282.63 370.375V400H1268.11ZM1332.59 347.636V358.545H1301.06V347.636H1332.59ZM1308.22 335.091H1322.74V383.909C1322.74 385.25 1322.94 386.295 1323.35 387.045C1323.76 387.773 1324.33 388.284 1325.06 388.58C1325.81 388.875 1326.67 389.023 1327.65 389.023C1328.33 389.023 1329.01 388.966 1329.69 388.852C1330.37 388.716 1330.9 388.614 1331.26 388.545L1333.54 399.352C1332.82 399.58 1331.79 399.841 1330.48 400.136C1329.16 400.455 1327.56 400.648 1325.67 400.716C1322.17 400.852 1319.1 400.386 1316.47 399.318C1313.85 398.25 1311.82 396.591 1310.36 394.341C1308.91 392.091 1308.19 389.25 1308.22 385.818V335.091Z" fill="url(#paint0_linear_1804_1909)"/>
<path d="M1353.98 330.182H1372.19L1391.41 377.091H1392.23L1411.46 330.182H1429.66V400H1415.35V354.557H1414.77L1396.7 399.659H1386.95L1368.88 354.386H1368.3V400H1353.98V330.182ZM1459.93 401.023C1454.64 401.023 1450.06 399.898 1446.19 397.648C1442.35 395.375 1439.39 392.216 1437.3 388.17C1435.2 384.102 1434.16 379.386 1434.16 374.023C1434.16 368.614 1435.2 363.886 1437.3 359.841C1439.39 355.773 1442.35 352.614 1446.19 350.364C1450.06 348.091 1454.64 346.955 1459.93 346.955C1465.23 346.955 1469.8 348.091 1473.64 350.364C1477.5 352.614 1480.48 355.773 1482.57 359.841C1484.66 363.886 1485.7 368.614 1485.7 374.023C1485.7 379.386 1484.66 384.102 1482.57 388.17C1480.48 392.216 1477.5 395.375 1473.64 397.648C1469.8 399.898 1465.23 401.023 1459.93 401.023ZM1460 389.773C1462.41 389.773 1464.42 389.091 1466.03 387.727C1467.65 386.341 1468.86 384.455 1469.68 382.068C1470.52 379.682 1470.94 376.966 1470.94 373.92C1470.94 370.875 1470.52 368.159 1469.68 365.773C1468.86 363.386 1467.65 361.5 1466.03 360.114C1464.42 358.727 1462.41 358.034 1460 358.034C1457.57 358.034 1455.52 358.727 1453.86 360.114C1452.23 361.5 1450.99 363.386 1450.15 365.773C1449.33 368.159 1448.92 370.875 1448.92 373.92C1448.92 376.966 1449.33 379.682 1450.15 382.068C1450.99 384.455 1452.23 386.341 1453.86 387.727C1455.52 389.091 1457.57 389.773 1460 389.773ZM1504.39 369.727V400H1489.87V347.636H1503.71V356.875H1504.32C1505.48 353.83 1507.42 351.42 1510.15 349.648C1512.88 347.852 1516.19 346.955 1520.07 346.955C1523.71 346.955 1526.88 347.75 1529.58 349.341C1532.29 350.932 1534.39 353.205 1535.89 356.159C1537.39 359.091 1538.14 362.591 1538.14 366.659V400H1523.62V369.25C1523.64 366.045 1522.82 363.545 1521.16 361.75C1519.5 359.932 1517.22 359.023 1514.31 359.023C1512.36 359.023 1510.63 359.443 1509.13 360.284C1507.65 361.125 1506.49 362.352 1505.65 363.966C1504.83 365.557 1504.41 367.477 1504.39 369.727ZM1567.97 401.023C1562.67 401.023 1558.09 399.898 1554.23 397.648C1550.39 395.375 1547.42 392.216 1545.33 388.17C1543.24 384.102 1542.19 379.386 1542.19 374.023C1542.19 368.614 1543.24 363.886 1545.33 359.841C1547.42 355.773 1550.39 352.614 1554.23 350.364C1558.09 348.091 1562.67 346.955 1567.97 346.955C1573.26 346.955 1577.83 348.091 1581.67 350.364C1585.53 352.614 1588.51 355.773 1590.6 359.841C1592.69 363.886 1593.74 368.614 1593.74 374.023C1593.74 379.386 1592.69 384.102 1590.6 388.17C1588.51 392.216 1585.53 395.375 1581.67 397.648C1577.83 399.898 1573.26 401.023 1567.97 401.023ZM1568.03 389.773C1570.44 389.773 1572.45 389.091 1574.07 387.727C1575.68 386.341 1576.9 384.455 1577.72 382.068C1578.56 379.682 1578.98 376.966 1578.98 373.92C1578.98 370.875 1578.56 368.159 1577.72 365.773C1576.9 363.386 1575.68 361.5 1574.07 360.114C1572.45 358.727 1570.44 358.034 1568.03 358.034C1565.6 358.034 1563.56 358.727 1561.9 360.114C1560.26 361.5 1559.02 363.386 1558.18 365.773C1557.36 368.159 1556.95 370.875 1556.95 373.92C1556.95 376.966 1557.36 379.682 1558.18 382.068C1559.02 384.455 1560.26 386.341 1561.9 387.727C1563.56 389.091 1565.6 389.773 1568.03 389.773ZM1597.9 400V347.636H1611.98V356.773H1612.53C1613.48 353.523 1615.08 351.068 1617.33 349.409C1619.58 347.727 1622.17 346.886 1625.11 346.886C1625.83 346.886 1626.62 346.932 1627.46 347.023C1628.3 347.114 1629.04 347.239 1629.67 347.398V360.284C1628.99 360.08 1628.05 359.898 1626.84 359.739C1625.64 359.58 1624.54 359.5 1623.54 359.5C1621.4 359.5 1619.49 359.966 1617.81 360.898C1616.15 361.807 1614.83 363.08 1613.86 364.716C1612.9 366.352 1612.42 368.239 1612.42 370.375V400H1597.9ZM1653.33 401.023C1647.94 401.023 1643.31 399.932 1639.42 397.75C1635.56 395.545 1632.58 392.432 1630.49 388.409C1628.4 384.364 1627.35 379.58 1627.35 374.057C1627.35 368.67 1628.4 363.943 1630.49 359.875C1632.58 355.807 1635.52 352.636 1639.32 350.364C1643.14 348.091 1647.61 346.955 1652.75 346.955C1656.2 346.955 1659.42 347.511 1662.4 348.625C1665.4 349.716 1668.01 351.364 1670.24 353.568C1672.49 355.773 1674.24 358.545 1675.49 361.886C1676.74 365.205 1677.36 369.091 1677.36 373.545V377.534H1633.15V368.534H1663.69C1663.69 366.443 1663.24 364.591 1662.33 362.977C1661.42 361.364 1660.16 360.102 1658.54 359.193C1656.95 358.261 1655.1 357.795 1652.99 357.795C1650.78 357.795 1648.83 358.307 1647.12 359.33C1645.44 360.33 1644.12 361.682 1643.17 363.386C1642.22 365.068 1641.73 366.943 1641.7 369.011V377.568C1641.7 380.159 1642.18 382.398 1643.14 384.284C1644.11 386.17 1645.49 387.625 1647.26 388.648C1649.03 389.67 1651.14 390.182 1653.57 390.182C1655.18 390.182 1656.66 389.955 1658 389.5C1659.34 389.045 1660.49 388.364 1661.44 387.455C1662.4 386.545 1663.12 385.432 1663.62 384.114L1677.06 385C1676.37 388.227 1674.98 391.045 1672.86 393.455C1670.77 395.841 1668.07 397.705 1664.75 399.045C1661.45 400.364 1657.65 401.023 1653.33 401.023ZM1681.56 419.636V347.636H1695.88V356.432H1696.53C1697.16 355.023 1698.08 353.591 1699.29 352.136C1700.52 350.659 1702.11 349.432 1704.06 348.455C1706.04 347.455 1708.49 346.955 1711.42 346.955C1715.24 346.955 1718.77 347.955 1721.99 349.955C1725.22 351.932 1727.8 354.92 1729.73 358.92C1731.66 362.898 1732.63 367.886 1732.63 373.886C1732.63 379.727 1731.69 384.659 1729.8 388.682C1727.94 392.682 1725.39 395.716 1722.16 397.784C1718.96 399.83 1715.37 400.852 1711.39 400.852C1708.57 400.852 1706.17 400.386 1704.2 399.455C1702.24 398.523 1700.64 397.352 1699.39 395.943C1698.14 394.511 1697.19 393.068 1696.53 391.614H1696.08V419.636H1681.56ZM1695.78 373.818C1695.78 376.932 1696.21 379.648 1697.07 381.966C1697.94 384.284 1699.19 386.091 1700.82 387.386C1702.46 388.659 1704.45 389.295 1706.79 389.295C1709.15 389.295 1711.15 388.648 1712.79 387.352C1714.42 386.034 1715.66 384.216 1716.5 381.898C1717.37 379.557 1717.8 376.864 1717.8 373.818C1717.8 370.795 1717.38 368.136 1716.54 365.841C1715.7 363.545 1714.46 361.75 1712.82 360.455C1711.19 359.159 1709.17 358.511 1706.79 358.511C1704.42 358.511 1702.42 359.136 1700.79 360.386C1699.17 361.636 1697.94 363.409 1697.07 365.705C1696.21 368 1695.78 370.705 1695.78 373.818ZM1760.69 401.023C1755.39 401.023 1750.81 399.898 1746.95 397.648C1743.11 395.375 1740.14 392.216 1738.05 388.17C1735.96 384.102 1734.92 379.386 1734.92 374.023C1734.92 368.614 1735.96 363.886 1738.05 359.841C1740.14 355.773 1743.11 352.614 1746.95 350.364C1750.81 348.091 1755.39 346.955 1760.69 346.955C1765.98 346.955 1770.55 348.091 1774.39 350.364C1778.26 352.614 1781.23 355.773 1783.33 359.841C1785.42 363.886 1786.46 368.614 1786.46 374.023C1786.46 379.386 1785.42 384.102 1783.33 388.17C1781.23 392.216 1778.26 395.375 1774.39 397.648C1770.55 399.898 1765.98 401.023 1760.69 401.023ZM1760.76 389.773C1763.17 389.773 1765.18 389.091 1766.79 387.727C1768.41 386.341 1769.62 384.455 1770.44 382.068C1771.28 379.682 1771.7 376.966 1771.7 373.92C1771.7 370.875 1771.28 368.159 1770.44 365.773C1769.62 363.386 1768.41 361.5 1766.79 360.114C1765.18 358.727 1763.17 358.034 1760.76 358.034C1758.33 358.034 1756.28 358.727 1754.62 360.114C1752.98 361.5 1751.75 363.386 1750.91 365.773C1750.09 368.159 1749.68 370.875 1749.68 373.92C1749.68 376.966 1750.09 379.682 1750.91 382.068C1751.75 384.455 1752.98 386.341 1754.62 387.727C1756.28 389.091 1758.33 389.773 1760.76 389.773ZM1816.05 377.602C1813.8 377.602 1811.87 376.807 1810.26 375.216C1808.67 373.602 1807.87 371.67 1807.87 369.42C1807.87 367.193 1808.67 365.284 1810.26 363.693C1811.87 362.102 1813.8 361.307 1816.05 361.307C1818.23 361.307 1820.14 362.102 1821.78 363.693C1823.42 365.284 1824.23 367.193 1824.23 369.42C1824.23 370.92 1823.85 372.295 1823.08 373.545C1822.33 374.773 1821.34 375.761 1820.11 376.511C1818.88 377.239 1817.53 377.602 1816.05 377.602ZM2107.92 354.625H2092.98C2092.71 352.693 2092.16 350.977 2091.31 349.477C2090.47 347.955 2089.39 346.659 2088.08 345.591C2086.76 344.523 2085.23 343.705 2083.51 343.136C2081.8 342.568 2079.95 342.284 2077.95 342.284C2074.34 342.284 2071.19 343.182 2068.51 344.977C2065.83 346.75 2063.75 349.341 2062.27 352.75C2060.79 356.136 2060.05 360.25 2060.05 365.091C2060.05 370.068 2060.79 374.25 2062.27 377.636C2063.77 381.023 2065.86 383.58 2068.54 385.307C2071.22 387.034 2074.33 387.898 2077.85 387.898C2079.83 387.898 2081.66 387.636 2083.34 387.114C2085.04 386.591 2086.55 385.83 2087.87 384.83C2089.19 383.807 2090.28 382.568 2091.14 381.114C2092.03 379.659 2092.64 378 2092.98 376.136L2107.92 376.205C2107.53 379.409 2106.56 382.5 2105.02 385.477C2103.5 388.432 2101.44 391.08 2098.85 393.42C2096.28 395.739 2093.21 397.58 2089.64 398.943C2086.1 400.284 2082.09 400.955 2077.61 400.955C2071.38 400.955 2065.81 399.545 2060.91 396.727C2056.02 393.909 2052.16 389.83 2049.31 384.489C2046.5 379.148 2045.09 372.682 2045.09 365.091C2045.09 357.477 2046.52 351 2049.38 345.659C2052.25 340.318 2056.13 336.25 2061.04 333.455C2065.95 330.636 2071.47 329.227 2077.61 329.227C2081.66 329.227 2085.41 329.795 2088.86 330.932C2092.34 332.068 2095.42 333.727 2098.1 335.909C2100.78 338.068 2102.96 340.716 2104.64 343.852C2106.35 346.989 2107.44 350.58 2107.92 354.625ZM2127.98 330.182V400H2113.22V330.182H2127.98Z" fill="#0F172A"/>
<path d="M1848.09 400V330.182H1894.32V342.352H1862.85V358.989H1891.25V371.159H1862.85V400H1848.09ZM1912.97 400.989C1909.63 400.989 1906.65 400.409 1904.04 399.25C1901.42 398.068 1899.35 396.33 1897.83 394.034C1896.33 391.716 1895.58 388.83 1895.58 385.375C1895.58 382.466 1896.12 380.023 1897.18 378.045C1898.25 376.068 1899.71 374.477 1901.55 373.273C1903.39 372.068 1905.48 371.159 1907.82 370.545C1910.18 369.932 1912.66 369.5 1915.25 369.25C1918.3 368.932 1920.75 368.636 1922.62 368.364C1924.48 368.068 1925.83 367.636 1926.67 367.068C1927.51 366.5 1927.93 365.659 1927.93 364.545V364.341C1927.93 362.182 1927.25 360.511 1925.89 359.33C1924.55 358.148 1922.64 357.557 1920.16 357.557C1917.55 357.557 1915.47 358.136 1913.92 359.295C1912.38 360.432 1911.35 361.864 1910.85 363.591L1897.42 362.5C1898.1 359.318 1899.45 356.568 1901.45 354.25C1903.45 351.909 1906.03 350.114 1909.18 348.864C1912.37 347.591 1916.05 346.955 1920.23 346.955C1923.14 346.955 1925.92 347.295 1928.58 347.977C1931.26 348.659 1933.64 349.716 1935.71 351.148C1937.8 352.58 1939.45 354.42 1940.65 356.67C1941.85 358.898 1942.46 361.568 1942.46 364.682V400H1928.68V392.739H1928.28C1927.43 394.375 1926.31 395.818 1924.9 397.068C1923.49 398.295 1921.8 399.261 1919.82 399.966C1917.84 400.648 1915.56 400.989 1912.97 400.989ZM1917.13 390.966C1919.26 390.966 1921.15 390.545 1922.79 389.705C1924.42 388.841 1925.71 387.682 1926.64 386.227C1927.57 384.773 1928.04 383.125 1928.04 381.284V375.727C1927.58 376.023 1926.96 376.295 1926.16 376.545C1925.39 376.773 1924.51 376.989 1923.54 377.193C1922.56 377.375 1921.58 377.545 1920.6 377.705C1919.63 377.841 1918.74 377.966 1917.95 378.08C1916.24 378.33 1914.75 378.727 1913.48 379.273C1912.21 379.818 1911.22 380.557 1910.51 381.489C1909.81 382.398 1909.46 383.534 1909.46 384.898C1909.46 386.875 1910.17 388.386 1911.6 389.432C1913.06 390.455 1914.9 390.966 1917.13 390.966ZM1992.01 362.568L1978.72 363.386C1978.49 362.25 1978 361.227 1977.25 360.318C1976.5 359.386 1975.51 358.648 1974.29 358.102C1973.08 357.534 1971.64 357.25 1969.96 357.25C1967.71 357.25 1965.81 357.727 1964.26 358.682C1962.72 359.614 1961.94 360.864 1961.94 362.432C1961.94 363.682 1962.44 364.739 1963.44 365.602C1964.44 366.466 1966.16 367.159 1968.59 367.682L1978.07 369.591C1983.16 370.636 1986.96 372.318 1989.46 374.636C1991.96 376.955 1993.21 380 1993.21 383.773C1993.21 387.205 1992.19 390.216 1990.17 392.807C1988.17 395.398 1985.42 397.42 1981.92 398.875C1978.44 400.307 1974.43 401.023 1969.89 401.023C1962.96 401.023 1957.43 399.58 1953.32 396.693C1949.23 393.784 1946.83 389.83 1946.13 384.83L1960.41 384.08C1960.84 386.193 1961.89 387.807 1963.55 388.92C1965.21 390.011 1967.33 390.557 1969.92 390.557C1972.47 390.557 1974.51 390.068 1976.06 389.091C1977.63 388.091 1978.42 386.807 1978.44 385.239C1978.42 383.92 1977.86 382.841 1976.77 382C1975.68 381.136 1974 380.477 1971.73 380.023L1962.66 378.216C1957.55 377.193 1953.74 375.42 1951.24 372.898C1948.76 370.375 1947.52 367.159 1947.52 363.25C1947.52 359.886 1948.43 356.989 1950.25 354.557C1952.09 352.125 1954.67 350.25 1957.99 348.932C1961.33 347.614 1965.24 346.955 1969.72 346.955C1976.33 346.955 1981.54 348.352 1985.33 351.148C1989.15 353.943 1991.38 357.75 1992.01 362.568ZM2024.92 347.636V358.545H1993.39V347.636H2024.92ZM2000.55 335.091H2015.07V383.909C2015.07 385.25 2015.28 386.295 2015.68 387.045C2016.09 387.773 2016.66 388.284 2017.39 388.58C2018.14 388.875 2019 389.023 2019.98 389.023C2020.66 389.023 2021.34 388.966 2022.03 388.852C2022.71 388.716 2023.23 388.614 2023.59 388.545L2025.88 399.352C2025.15 399.58 2024.13 399.841 2022.81 400.136C2021.49 400.455 2019.89 400.648 2018 400.716C2014.5 400.852 2011.43 400.386 2008.8 399.318C2006.18 398.25 2004.15 396.591 2002.7 394.341C2001.24 392.091 2000.53 389.25 2000.55 385.818V335.091Z" fill="url(#paint1_linear_1804_1909)"/>
</g>
<defs>
<linearGradient id="paint0_linear_1804_1909" x1="1072" y1="312" x2="1488.26" y2="312" gradientUnits="userSpaceOnUse">
<stop stop-color="#06B6D4"/>
<stop offset="1" stop-color="#3B82F6"/>
</linearGradient>
<linearGradient id="paint1_linear_1804_1909" x1="1072" y1="365.3" x2="1992.92" y2="365.3" gradientUnits="userSpaceOnUse">
<stop stop-color="#EC4899"/>
<stop offset="1" stop-color="#D946EF"/>
</linearGradient>
<clipPath id="clip0_1804_1909">
<rect width="2280" height="690" fill="white"/>
</clipPath>
</defs>
</svg>
