<svg width="1000" height="1000" viewBox="0 0 1000 1000" fill="none" xmlns="http://www.w3.org/2000/svg">
<path d="M499.651 555.512L416.132 686.623L277.653 462.192L277.333 697.143H180V300H278.426L418.345 535.244L418.479 428.768L499.651 555.512V555.512ZM515.678 402.082C516.318 400.804 515.678 301.305 515.891 300H418.559C418.612 301.571 418.425 400.564 418.479 402.082H515.678V402.082ZM665.917 512.181C654.556 511.963 643.406 515.267 634.003 521.639C624.6 528.011 617.406 537.137 613.411 547.762C620.029 537.871 629.827 530.531 641.187 526.953C652.546 523.374 664.788 523.772 675.89 528.08C686.45 532.368 700.344 539.319 711.357 535.617C706.19 528.388 699.374 522.491 691.472 518.416C683.57 514.34 674.81 512.203 665.917 512.181V512.181ZM756.316 540.438C746.317 536.976 734.983 533.061 726.743 522.301C725.143 520.17 723.65 517.774 722.05 515.244C718.48 508.669 713.651 502.86 707.837 498.145C699.997 492.393 689.704 489.57 676.37 489.57C663.264 489.573 650.454 493.463 639.563 500.745C628.673 508.028 620.193 518.376 615.197 530.477C621.53 521.672 630.067 514.682 639.954 510.206C649.84 505.73 660.73 503.925 671.535 504.971C682.339 506.017 692.679 509.878 701.52 516.168C710.362 522.457 717.395 530.955 721.917 540.811C724.168 544.503 727.558 547.366 731.578 548.97C735.598 550.574 740.031 550.832 744.21 549.706C757.357 546.909 756.476 559.294 776.29 563.501V559.959C776.21 548.081 769.73 545.312 756.29 540.438H756.316ZM810.289 574.154C813.196 572.389 815.582 569.887 817.207 566.903C818.833 563.919 819.638 560.559 819.543 557.163C819.276 478.411 755.277 411.031 676.344 411.031C652.616 411.011 629.257 416.887 608.369 428.129C587.482 439.37 569.722 455.625 556.691 475.428C556.424 474.736 516.105 411.776 515.678 411.031H418.479L510.825 555.458L420.719 697.143H515.118L556.184 634.131L597.997 697.143H692.424L606.824 562.596C605.406 559.975 604.638 557.052 604.584 554.074C604.581 544.663 606.433 535.344 610.037 526.649C613.64 517.955 618.923 510.054 625.585 503.398C632.246 496.743 640.155 491.464 648.86 487.862C657.565 484.26 666.895 482.406 676.317 482.406H676.344C716.023 482.406 722.637 506.109 731.197 517.241C748.103 539.239 781.863 529.598 781.863 558.282C781.924 561.571 782.846 564.788 784.539 567.611C786.233 570.434 788.637 572.764 791.513 574.37C794.388 575.976 797.635 576.801 800.93 576.763C804.224 576.725 807.451 575.826 810.289 574.154V574.154ZM819.623 577.697C815.009 587.604 804.69 586.698 799.49 594.715C794.796 601.932 802.53 605.687 802.53 605.687C802.53 605.687 811.516 609.842 816.876 597.405C819.649 591.252 820.609 584.408 819.623 577.697V577.697Z" fill="#020617"/>
</svg>
