<svg xmlns="http://www.w3.org/2000/svg" fill="none" viewBox="0 0 2280 690">
  <g clip-path="url(#a)">
    <path fill="#0F172A" d="m501.301 378.943-55.452-86.678-.083 72.828-95.568-160.894h-67.231v271.615h66.48l.217-160.694 94.581 153.493 57.056-89.67ZM445.866 274.02h66.395l.151-.769v-69.052h-66.479l-.084 69.052.017.769Zm169.013 75.301c-15.906-.301-30.276 9.451-35.871 24.343 9.314-13.929 27.049-19.526 42.671-13.467 7.218 2.941 16.708 7.686 24.226 5.147-7.15-10.035-18.704-16.002-31.026-16.023Z"/>
    <path fill="#0F172A" d="M690.214 382.001c0-8.136-4.427-10.025-13.616-13.366-6.817-2.372-14.553-5.046-20.183-12.397-1.103-1.454-2.122-3.091-3.208-4.829-2.433-4.5-5.732-8.475-9.707-11.695-5.363-3.943-12.397-5.864-21.52-5.864-18.304.012-34.795 11.061-41.768 27.985 8.816-12.234 23.469-18.862 38.477-17.407 15.009 1.455 28.115 10.775 34.417 24.475 3.149 5.195 9.359 7.676 15.222 6.081 8.972-1.921 8.353 6.566 21.903 9.44l-.017-2.423Z"/>
    <path fill="#0F172A" d="M719.803 380.263v-.183c-.2-53.866-43.924-99.946-97.823-99.946-32.918-.022-63.636 16.533-81.716 44.042l-.351-.602-27.668-43.44h-66.379l63.071 98.776-61.551 96.904h64.475l28.052-43.089 28.553 43.089h64.491l-58.476-92.026c-.971-1.792-1.498-3.792-1.537-5.831-.005-12.998 5.157-25.464 14.347-34.655 9.191-9.191 21.658-14.353 34.656-14.348 27.1 0 31.627 16.206 37.475 23.825 11.545 15.037 34.602 8.454 34.602 28.069.068 4.596 2.583 8.807 6.598 11.045 4.015 2.239 8.919 2.166 12.865-.192 3.946-2.358 6.335-6.642 6.266-11.237v-.201h.05Zm.067 13.867c.656 4.581.007 9.255-1.871 13.484-3.675 8.504-9.807 5.664-9.807 5.664s-5.28-2.574-2.072-7.502c3.559-5.497 10.593-4.862 13.75-11.646Z"/>
    <path fill="url(#b)" d="M1073.94 350.261c-.27-2.75-1.44-4.886-3.51-6.409-2.07-1.522-4.87-2.284-8.42-2.284-2.41 0-4.44.341-6.1 1.023-1.66.659-2.93 1.579-3.82 2.761-.86 1.182-1.29 2.523-1.29 4.023-.05 1.25.21 2.341.78 3.273.59.932 1.4 1.738 2.42 2.42 1.02.659 2.2 1.239 3.55 1.739 1.34.477 2.77.886 4.29 1.227l6.27 1.5c3.05.682 5.84 1.591 8.39 2.727 2.55 1.137 4.75 2.534 6.61 4.194 1.87 1.659 3.31 3.613 4.33 5.863 1.05 2.25 1.58 4.83 1.61 7.739-.03 4.273-1.12 7.977-3.28 11.113-2.13 3.114-5.22 5.535-9.27 7.262-4.02 1.704-8.87 2.557-14.56 2.557-5.63 0-10.54-.864-14.72-2.591-4.16-1.728-7.41-4.284-9.75-7.671-2.32-3.409-3.54-7.625-3.65-12.647h14.28c.16 2.34.83 4.295 2.01 5.863 1.21 1.546 2.81 2.716 4.81 3.512 2.02.772 4.31 1.159 6.85 1.159 2.5 0 4.67-.364 6.51-1.091 1.87-.728 3.31-1.739 4.33-3.034 1.03-1.296 1.54-2.784 1.54-4.466 0-1.568-.47-2.887-1.4-3.955-.91-1.068-2.25-1.977-4.02-2.727-1.75-.75-3.9-1.432-6.45-2.046l-7.6-1.909c-5.88-1.431-10.53-3.67-13.94-6.716-3.41-3.045-5.1-7.147-5.08-12.306-.02-4.228 1.1-7.921 3.37-11.08 2.3-3.159 5.45-5.625 9.45-7.398 4-1.772 8.54-2.659 13.63-2.659 5.19 0 9.71.887 13.57 2.659 3.89 1.773 6.91 4.239 9.07 7.398s3.27 6.818 3.34 10.977h-14.15ZM1093.42 400v-52.364h13.84v9.239h.62c1.09-3.068 2.91-5.489 5.45-7.261 2.55-1.773 5.59-2.659 9.14-2.659 3.59 0 6.64.897 9.17 2.693 2.52 1.772 4.2 4.182 5.04 7.227h.55c1.07-3 3-5.398 5.79-7.193 2.82-1.818 6.15-2.727 9.99-2.727 4.89 0 8.85 1.556 11.9 4.67 3.07 3.091 4.6 7.477 4.6 13.159V400h-14.49v-32.352c0-2.909-.77-5.091-2.31-6.546-1.55-1.454-3.48-2.182-5.8-2.182-2.64 0-4.69.841-6.17 2.523-1.48 1.659-2.22 3.852-2.22 6.58V400h-14.08v-32.659c0-2.568-.73-4.614-2.21-6.136-1.46-1.523-3.38-2.285-5.76-2.285-1.62 0-3.07.41-4.37 1.228-1.27.795-2.28 1.92-3.03 3.375-.75 1.432-1.13 3.113-1.13 5.045V400h-14.52Zm97.22.989c-3.34 0-6.32-.58-8.94-1.739-2.61-1.182-4.68-2.92-6.2-5.216-1.5-2.318-2.25-5.204-2.25-8.659 0-2.909.53-5.352 1.6-7.33 1.07-1.977 2.52-3.568 4.37-4.772 1.84-1.205 3.93-2.114 6.27-2.728 2.36-.613 4.84-1.045 7.43-1.295 3.05-.318 5.5-.614 7.36-.886 1.87-.296 3.22-.728 4.06-1.296.84-.568 1.26-1.409 1.26-2.523v-.204c0-2.159-.68-3.83-2.04-5.011-1.34-1.182-3.25-1.773-5.73-1.773-2.61 0-4.69.579-6.24 1.738-1.54 1.137-2.57 2.569-3.07 4.296l-13.43-1.091c.68-3.182 2.02-5.932 4.02-8.25 2-2.341 4.58-4.136 7.74-5.386 3.18-1.273 6.87-1.909 11.05-1.909 2.91 0 5.69.34 8.35 1.022 2.68.682 5.06 1.739 7.12 3.171 2.1 1.432 3.74 3.272 4.95 5.522 1.2 2.228 1.8 4.898 1.8 8.012V400h-13.77v-7.261h-.41c-.84 1.636-1.96 3.079-3.37 4.329-1.41 1.227-3.1 2.193-5.08 2.898-1.98.682-4.26 1.023-6.85 1.023Zm4.16-10.023c2.13 0 4.02-.421 5.65-1.261 1.64-.864 2.92-2.023 3.86-3.478.93-1.454 1.39-3.102 1.39-4.943v-5.557c-.45.296-1.08.568-1.87.818-.77.228-1.65.444-2.63.648-.97.182-1.95.352-2.93.512-.97.136-1.86.261-2.66.375-1.7.25-3.19.647-4.46 1.193-1.28.545-2.26 1.284-2.97 2.216-.7.909-1.06 2.045-1.06 3.409 0 1.977.72 3.488 2.15 4.534 1.46 1.023 3.3 1.534 5.53 1.534Zm31.31 9.034v-52.364h14.08v9.137h.55c.95-3.25 2.55-5.705 4.8-7.364 2.25-1.682 4.84-2.523 7.78-2.523.72 0 1.51.046 2.35.137.84.091 1.58.216 2.21.375v12.886c-.68-.204-1.62-.386-2.83-.545-1.2-.159-2.3-.239-3.3-.239-2.14 0-4.05.466-5.73 1.398-1.66.909-2.98 2.182-3.95 3.818-.96 1.636-1.44 3.523-1.44 5.659V400h-14.52Zm64.48-52.364v10.909h-31.53v-10.909h31.53Zm-24.37-12.545h14.52v48.818c0 1.341.2 2.386.61 3.136.41.728.98 1.239 1.71 1.535.75.295 1.61.443 2.59.443.68 0 1.36-.057 2.04-.171.68-.136 1.21-.238 1.57-.307l2.28 10.807c-.72.228-1.75.489-3.06.784-1.32.319-2.92.512-4.81.58-3.5.136-6.57-.33-9.2-1.398-2.62-1.068-4.65-2.727-6.11-4.977-1.45-2.25-2.17-5.091-2.14-8.523v-50.727Z"/>
    <path fill="#0F172A" d="M1311.98 330.182h18.21l19.22 46.909h.82l19.23-46.909h18.2V400h-14.31v-45.443h-.58l-18.07 45.102h-9.75l-18.07-45.273h-.58V400h-14.32v-69.818Zm105.95 70.841c-5.29 0-9.87-1.125-13.74-3.375-3.84-2.273-6.8-5.432-8.89-9.478-2.1-4.068-3.14-8.784-3.14-14.147 0-5.409 1.04-10.137 3.14-14.182 2.09-4.068 5.05-7.227 8.89-9.477 3.87-2.273 8.45-3.409 13.74-3.409 5.3 0 9.87 1.136 13.71 3.409 3.86 2.25 6.84 5.409 8.93 9.477 2.09 4.045 3.13 8.773 3.13 14.182 0 5.363-1.04 10.079-3.13 14.147-2.09 4.046-5.07 7.205-8.93 9.478-3.84 2.25-8.41 3.375-13.71 3.375Zm.07-11.25c2.41 0 4.42-.682 6.03-2.046 1.62-1.386 2.83-3.272 3.65-5.659.84-2.386 1.26-5.102 1.26-8.148 0-3.045-.42-5.761-1.26-8.147-.82-2.387-2.03-4.273-3.65-5.659-1.61-1.387-3.62-2.08-6.03-2.08-2.43 0-4.48.693-6.14 2.08-1.63 1.386-2.87 3.272-3.71 5.659-.82 2.386-1.23 5.102-1.23 8.147 0 3.046.41 5.762 1.23 8.148.84 2.387 2.08 4.273 3.71 5.659 1.66 1.364 3.71 2.046 6.14 2.046Zm44.39-20.046V400h-14.52v-52.364h13.84v9.239h.61c1.16-3.045 3.1-5.455 5.83-7.227 2.73-1.796 6.04-2.693 9.92-2.693 3.64 0 6.81.795 9.51 2.386 2.71 1.591 4.81 3.864 6.31 6.818 1.5 2.932 2.25 6.432 2.25 10.5V400h-14.52v-30.75c.02-3.205-.8-5.705-2.46-7.5-1.66-1.818-3.94-2.727-6.85-2.727-1.95 0-3.68.42-5.18 1.261-1.48.841-2.64 2.068-3.48 3.682-.82 1.591-1.24 3.511-1.26 5.761Zm63.58 31.296c-5.3 0-9.88-1.125-13.74-3.375-3.84-2.273-6.81-5.432-8.9-9.478-2.09-4.068-3.14-8.784-3.14-14.147 0-5.409 1.05-10.137 3.14-14.182 2.09-4.068 5.06-7.227 8.9-9.477 3.86-2.273 8.44-3.409 13.74-3.409 5.29 0 9.86 1.136 13.7 3.409 3.86 2.25 6.84 5.409 8.93 9.477 2.09 4.045 3.14 8.773 3.14 14.182 0 5.363-1.05 10.079-3.14 14.147-2.09 4.046-5.07 7.205-8.93 9.478-3.84 2.25-8.41 3.375-13.7 3.375Zm.06-11.25c2.41 0 4.42-.682 6.04-2.046 1.61-1.386 2.83-3.272 3.65-5.659.84-2.386 1.26-5.102 1.26-8.148 0-3.045-.42-5.761-1.26-8.147-.82-2.387-2.04-4.273-3.65-5.659-1.62-1.387-3.63-2.08-6.04-2.08-2.43 0-4.47.693-6.13 2.08-1.64 1.386-2.88 3.272-3.72 5.659-.82 2.386-1.23 5.102-1.23 8.147 0 3.046.41 5.762 1.23 8.148.84 2.387 2.08 4.273 3.72 5.659 1.66 1.364 3.7 2.046 6.13 2.046ZM1555.9 400v-52.364h14.08v9.137h.55c.95-3.25 2.55-5.705 4.8-7.364 2.25-1.682 4.84-2.523 7.78-2.523.72 0 1.51.046 2.35.137.84.091 1.58.216 2.21.375v12.886c-.68-.204-1.62-.386-2.83-.545-1.2-.159-2.3-.239-3.3-.239-2.14 0-4.05.466-5.73 1.398-1.66.909-2.98 2.182-3.95 3.818-.96 1.636-1.44 3.523-1.44 5.659V400h-14.52Zm55.43 1.023c-5.39 0-10.02-1.091-13.91-3.273-3.86-2.205-6.84-5.318-8.93-9.341-2.09-4.045-3.14-8.829-3.14-14.352 0-5.387 1.05-10.114 3.14-14.182s5.03-7.239 8.83-9.511c3.82-2.273 8.29-3.409 13.43-3.409 3.45 0 6.67.556 9.65 1.67 3 1.091 5.61 2.739 7.84 4.943 2.25 2.205 4 4.977 5.25 8.318 1.25 3.319 1.87 7.205 1.87 11.659v3.989h-44.21v-9h30.54c0-2.091-.45-3.943-1.36-5.557-.91-1.613-2.17-2.875-3.79-3.784-1.59-.932-3.44-1.398-5.55-1.398-2.21 0-4.16.512-5.87 1.535-1.68 1-3 2.352-3.95 4.056-.95 1.682-1.44 3.557-1.47 5.625v8.557c0 2.591.48 4.83 1.44 6.716.97 1.886 2.35 3.341 4.12 4.364 1.77 1.022 3.88 1.534 6.31 1.534 1.61 0 3.09-.227 4.43-.682 1.34-.455 2.49-1.136 3.44-2.045.96-.91 1.68-2.023 2.18-3.341l13.44.886c-.69 3.227-2.08 6.045-4.2 8.455-2.09 2.386-4.79 4.25-8.11 5.59-3.3 1.319-7.1 1.978-11.42 1.978Zm28.23 18.613v-72h14.32v8.796h.65c.63-1.409 1.55-2.841 2.76-4.296 1.23-1.477 2.82-2.704 4.77-3.681 1.98-1 4.43-1.5 7.36-1.5 3.82 0 7.35 1 10.57 3 3.23 1.977 5.81 4.965 7.74 8.965 1.93 3.978 2.9 8.966 2.9 14.966 0 5.841-.94 10.773-2.83 14.796-1.86 4-4.41 7.034-7.64 9.102-3.2 2.046-6.79 3.068-10.77 3.068-2.82 0-5.22-.466-7.19-1.397-1.96-.932-3.56-2.103-4.81-3.512-1.25-1.432-2.2-2.875-2.86-4.329h-.45v28.022h-14.52Zm14.22-45.818c0 3.114.43 5.83 1.29 8.148.87 2.318 2.12 4.125 3.75 5.42 1.64 1.273 3.63 1.909 5.97 1.909 2.36 0 4.36-.647 6-1.943 1.63-1.318 2.87-3.136 3.71-5.454.87-2.341 1.3-5.034 1.3-8.08 0-3.023-.42-5.682-1.26-7.977-.84-2.296-2.08-4.091-3.72-5.386-1.63-1.296-3.65-1.944-6.03-1.944-2.37 0-4.37.625-6 1.875-1.62 1.25-2.85 3.023-3.72 5.319-.86 2.295-1.29 5-1.29 8.113Zm64.91 27.205c-5.3 0-9.88-1.125-13.74-3.375-3.84-2.273-6.81-5.432-8.9-9.478-2.09-4.068-3.13-8.784-3.13-14.147 0-5.409 1.04-10.137 3.13-14.182 2.09-4.068 5.06-7.227 8.9-9.477 3.86-2.273 8.44-3.409 13.74-3.409 5.29 0 9.86 1.136 13.7 3.409 3.87 2.25 6.84 5.409 8.94 9.477 2.09 4.045 3.13 8.773 3.13 14.182 0 5.363-1.04 10.079-3.13 14.147-2.1 4.046-5.07 7.205-8.94 9.478-3.84 2.25-8.41 3.375-13.7 3.375Zm.07-11.25c2.41 0 4.42-.682 6.03-2.046 1.62-1.386 2.83-3.272 3.65-5.659.84-2.386 1.26-5.102 1.26-8.148 0-3.045-.42-5.761-1.26-8.147-.82-2.387-2.03-4.273-3.65-5.659-1.61-1.387-3.62-2.08-6.03-2.08-2.43 0-4.48.693-6.14 2.08-1.64 1.386-2.87 3.272-3.71 5.659-.82 2.386-1.23 5.102-1.23 8.147 0 3.046.41 5.762 1.23 8.148.84 2.387 2.07 4.273 3.71 5.659 1.66 1.364 3.71 2.046 6.14 2.046Zm73.43-27.205-13.29.818c-.23-1.136-.72-2.159-1.47-3.068-.75-.932-1.74-1.67-2.96-2.216-1.21-.568-2.65-.852-4.33-.852-2.25 0-4.15.477-5.7 1.432-1.54.932-2.31 2.182-2.31 3.75 0 1.25.5 2.307 1.5 3.17 1 .864 2.71 1.557 5.14 2.08l9.48 1.909c5.09 1.045 8.89 2.727 11.39 5.045 2.5 2.319 3.75 5.364 3.75 9.137 0 3.432-1.01 6.443-3.04 9.034-2 2.591-4.75 4.613-8.25 6.068-3.47 1.432-7.49 2.148-12.03 2.148-6.93 0-12.46-1.443-16.57-4.33-4.09-2.909-6.49-6.863-7.19-11.863l14.28-.75c.43 2.113 1.48 3.727 3.14 4.84 1.66 1.091 3.78 1.637 6.37 1.637 2.55 0 4.59-.489 6.14-1.466 1.57-1 2.36-2.284 2.39-3.852-.03-1.319-.58-2.398-1.67-3.239-1.1-.864-2.78-1.523-5.05-1.977l-9.07-1.807c-5.11-1.023-8.92-2.796-11.42-5.318-2.48-2.523-3.71-5.739-3.71-9.648 0-3.364.9-6.261 2.72-8.693 1.84-2.432 4.42-4.307 7.74-5.625 3.34-1.318 7.25-1.977 11.73-1.977 6.61 0 11.82 1.397 15.61 4.193 3.82 2.795 6.05 6.602 6.68 11.42Zm30.49 15.034c-2.25 0-4.18-.795-5.8-2.386-1.59-1.614-2.38-3.546-2.38-5.796 0-2.227.79-4.136 2.38-5.727 1.62-1.591 3.55-2.386 5.8-2.386 2.18 0 4.09.795 5.73 2.386 1.63 1.591 2.45 3.5 2.45 5.727 0 1.5-.39 2.875-1.16 4.125-.75 1.228-1.74 2.216-2.96 2.966-1.23.728-2.58 1.091-4.06 1.091Zm291.86-22.977h-14.93c-.27-1.932-.83-3.648-1.67-5.148-.84-1.522-1.92-2.818-3.24-3.886-1.32-1.068-2.84-1.886-4.57-2.455-1.7-.568-3.55-.852-5.55-.852-3.62 0-6.76.898-9.45 2.693-2.68 1.773-4.76 4.364-6.23 7.773-1.48 3.386-2.22 7.5-2.22 12.341 0 4.977.74 9.159 2.22 12.545 1.5 3.387 3.59 5.944 6.27 7.671 2.68 1.727 5.78 2.591 9.3 2.591 1.98 0 3.81-.262 5.49-.784 1.71-.523 3.22-1.284 4.54-2.284 1.32-1.023 2.41-2.262 3.27-3.716.89-1.455 1.5-3.114 1.84-4.978l14.93.069c-.38 3.204-1.35 6.295-2.89 9.272-1.53 2.955-3.58 5.603-6.18 7.943-2.56 2.319-5.63 4.16-9.2 5.523-3.55 1.341-7.56 2.012-12.03 2.012-6.23 0-11.8-1.41-16.71-4.228-4.88-2.818-8.75-6.897-11.59-12.238-2.82-5.341-4.23-11.807-4.23-19.398 0-7.614 1.44-14.091 4.3-19.432 2.86-5.341 6.75-9.409 11.66-12.204 4.91-2.819 10.43-4.228 16.57-4.228 4.04 0 7.79.568 11.25 1.705 3.47 1.136 6.55 2.795 9.23 4.977 2.69 2.159 4.87 4.807 6.55 7.943 1.7 3.137 2.8 6.728 3.27 10.773Zm20.07-24.443V400h-14.76v-69.818h14.76Z"/>
    <path fill="url(#c)" d="M1854.72 400v-69.818h46.22v12.17h-31.46v16.637h28.39v12.17h-28.39V400h-14.76Zm64.87.989c-3.34 0-6.31-.58-8.93-1.739-2.61-1.182-4.68-2.92-6.2-5.216-1.5-2.318-2.25-5.204-2.25-8.659 0-2.909.53-5.352 1.6-7.33 1.07-1.977 2.52-3.568 4.36-4.772 1.85-1.205 3.94-2.114 6.28-2.728 2.36-.613 4.84-1.045 7.43-1.295 3.04-.318 5.5-.614 7.36-.886 1.87-.296 3.22-.728 4.06-1.296.84-.568 1.26-1.409 1.26-2.523v-.204c0-2.159-.68-3.83-2.04-5.011-1.35-1.182-3.25-1.773-5.73-1.773-2.62 0-4.7.579-6.24 1.738-1.55 1.137-2.57 2.569-3.07 4.296l-13.43-1.091c.68-3.182 2.02-5.932 4.02-8.25 2-2.341 4.58-4.136 7.74-5.386 3.18-1.273 6.86-1.909 11.05-1.909 2.91 0 5.69.34 8.35 1.022 2.68.682 5.06 1.739 7.12 3.171 2.09 1.432 3.74 3.272 4.95 5.522 1.2 2.228 1.8 4.898 1.8 8.012V400h-13.77v-7.261h-.41c-.84 1.636-1.96 3.079-3.37 4.329-1.41 1.227-3.11 2.193-5.08 2.898-1.98.682-4.26 1.023-6.86 1.023Zm4.16-10.023c2.14 0 4.03-.421 5.66-1.261 1.64-.864 2.92-2.023 3.86-3.478.93-1.454 1.39-3.102 1.39-4.943v-5.557c-.45.296-1.08.568-1.87.818-.77.228-1.65.444-2.63.648-.97.182-1.95.352-2.93.512-.98.136-1.86.261-2.66.375-1.7.25-3.19.647-4.46 1.193-1.28.545-2.27 1.284-2.97 2.216-.7.909-1.06 2.045-1.06 3.409 0 1.977.72 3.488 2.15 4.534 1.46 1.023 3.3 1.534 5.52 1.534Zm74.89-28.398-13.3.818c-.22-1.136-.71-2.159-1.46-3.068-.75-.932-1.74-1.67-2.97-2.216-1.2-.568-2.65-.852-4.33-.852-2.25 0-4.15.477-5.69 1.432-1.55.932-2.32 2.182-2.32 3.75 0 1.25.5 2.307 1.5 3.17 1 .864 2.72 1.557 5.15 2.08l9.48 1.909c5.09 1.045 8.88 2.727 11.38 5.045 2.5 2.319 3.75 5.364 3.75 9.137 0 3.432-1.01 6.443-3.03 9.034-2 2.591-4.75 4.613-8.25 6.068-3.48 1.432-7.49 2.148-12.04 2.148-6.93 0-12.45-1.443-16.56-4.33-4.1-2.909-6.49-6.863-7.2-11.863l14.29-.75c.43 2.113 1.47 3.727 3.13 4.84 1.66 1.091 3.79 1.637 6.38 1.637 2.54 0 4.59-.489 6.13-1.466 1.57-1 2.37-2.284 2.39-3.852-.02-1.319-.58-2.398-1.67-3.239-1.09-.864-2.77-1.523-5.05-1.977l-9.06-1.807c-5.12-1.023-8.92-2.796-11.42-5.318-2.48-2.523-3.72-5.739-3.72-9.648 0-3.364.91-6.261 2.73-8.693 1.84-2.432 4.42-4.307 7.74-5.625 3.34-1.318 7.25-1.977 11.72-1.977 6.62 0 11.82 1.397 15.62 4.193 3.82 2.795 6.04 6.602 6.68 11.42Zm32.91-14.932v10.909h-31.54v-10.909h31.54Zm-24.38-12.545h14.53v48.818c0 1.341.2 2.386.61 3.136.41.728.98 1.239 1.7 1.535.75.295 1.62.443 2.6.443.68 0 1.36-.057 2.04-.171.68-.136 1.21-.238 1.57-.307l2.28 10.807c-.72.228-1.75.489-3.06.784-1.32.319-2.93.512-4.81.58-3.5.136-6.57-.33-9.21-1.398-2.61-1.068-4.64-2.727-6.1-4.977-1.45-2.25-2.17-5.091-2.15-8.523v-50.727Z"/>
  </g>
  <defs>
    <linearGradient id="b" x1="1030" x2="1462.57" y1="312" y2="312" gradientUnits="userSpaceOnUse">
      <stop stop-color="#06B6D4"/>
      <stop offset="1" stop-color="#3B82F6"/>
    </linearGradient>
    <linearGradient id="c" x1="1030" x2="1987" y1="365.3" y2="365.3" gradientUnits="userSpaceOnUse">
      <stop stop-color="#EC4899"/>
      <stop offset="1" stop-color="#D946EF"/>
    </linearGradient>
    <clipPath id="a">
      <path fill="#fff" d="M0 0h2280v690H0z"/>
    </clipPath>
  </defs>
</svg>
