<svg width="2280" height="690" viewBox="0 0 2280 690" fill="none" xmlns="http://www.w3.org/2000/svg">
<g clip-path="url(#clip0_1899_908)">
<path d="M501.301 378.943L445.849 292.265L445.766 365.093L350.198 204.199H282.967V475.814H349.447L349.664 315.12L444.245 468.613L501.301 378.943Z" fill="#0F172A"/>
<path d="M445.866 274.02H512.261L512.412 273.251V204.199H445.933L445.849 273.251L445.866 274.02Z" fill="#0F172A"/>
<path d="M614.879 349.321C598.973 349.02 584.603 358.772 579.008 373.664C588.322 359.735 606.057 354.138 621.679 360.197C628.897 363.138 638.387 367.883 645.905 365.344C638.755 355.309 627.201 349.342 614.879 349.321Z" fill="#0F172A"/>
<path d="M690.214 382.001C690.214 373.865 685.787 371.976 676.598 368.635C669.781 366.263 662.045 363.589 656.415 356.238C655.312 354.784 654.293 353.147 653.207 351.409C650.774 346.909 647.475 342.934 643.5 339.714C638.137 335.771 631.103 333.85 621.98 333.85C603.676 333.862 587.185 344.911 580.212 361.835C589.028 349.601 603.681 342.973 618.689 344.428C633.698 345.883 646.804 355.203 653.106 368.903C656.255 374.098 662.465 376.579 668.328 374.984C677.3 373.063 676.681 381.55 690.231 384.424L690.214 382.001Z" fill="#0F172A"/>
<path d="M719.803 380.263V380.08C719.603 326.214 675.879 280.134 621.98 280.134C589.062 280.112 558.344 296.667 540.264 324.176L539.913 323.574L512.245 280.134H445.866L508.937 378.91L447.386 475.814H511.861L539.913 432.725L568.466 475.814H632.957L574.481 383.788C573.51 381.996 572.983 379.996 572.944 377.957C572.939 364.959 578.101 352.493 587.291 343.302C596.482 334.111 608.949 328.949 621.947 328.954C649.047 328.954 653.574 345.16 659.422 352.779C670.967 367.816 694.024 361.233 694.024 380.848C694.092 385.444 696.607 389.655 700.622 391.893C704.637 394.132 709.541 394.059 713.487 391.701C717.433 389.343 719.822 385.059 719.753 380.464V380.263H719.803Z" fill="#0F172A"/>
<path d="M719.87 394.13C720.526 398.711 719.877 403.385 717.999 407.614C714.324 416.118 708.192 413.278 708.192 413.278C708.192 413.278 702.912 410.704 706.12 405.776C709.679 400.279 716.713 400.914 719.87 394.13Z" fill="#0F172A"/>
<path d="M1073.94 350.261C1073.67 347.511 1072.5 345.375 1070.43 343.852C1068.36 342.33 1065.56 341.568 1062.01 341.568C1059.6 341.568 1057.57 341.909 1055.91 342.591C1054.25 343.25 1052.98 344.17 1052.09 345.352C1051.23 346.534 1050.8 347.875 1050.8 349.375C1050.75 350.625 1051.01 351.716 1051.58 352.648C1052.17 353.58 1052.98 354.386 1054 355.068C1055.02 355.727 1056.2 356.307 1057.55 356.807C1058.89 357.284 1060.32 357.693 1061.84 358.034L1068.11 359.534C1071.16 360.216 1073.95 361.125 1076.5 362.261C1079.05 363.398 1081.25 364.795 1083.11 366.455C1084.98 368.114 1086.42 370.068 1087.44 372.318C1088.49 374.568 1089.02 377.148 1089.05 380.057C1089.02 384.33 1087.93 388.034 1085.77 391.17C1083.64 394.284 1080.55 396.705 1076.5 398.432C1072.48 400.136 1067.63 400.989 1061.94 400.989C1056.31 400.989 1051.4 400.125 1047.22 398.398C1043.06 396.67 1039.81 394.114 1037.47 390.727C1035.15 387.318 1033.93 383.102 1033.82 378.08H1048.1C1048.26 380.42 1048.93 382.375 1050.11 383.943C1051.32 385.489 1052.92 386.659 1054.92 387.455C1056.94 388.227 1059.23 388.614 1061.77 388.614C1064.27 388.614 1066.44 388.25 1068.28 387.523C1070.15 386.795 1071.59 385.784 1072.61 384.489C1073.64 383.193 1074.15 381.705 1074.15 380.023C1074.15 378.455 1073.68 377.136 1072.75 376.068C1071.84 375 1070.5 374.091 1068.73 373.341C1066.98 372.591 1064.83 371.909 1062.28 371.295L1054.68 369.386C1048.8 367.955 1044.15 365.716 1040.74 362.67C1037.33 359.625 1035.64 355.523 1035.66 350.364C1035.64 346.136 1036.76 342.443 1039.03 339.284C1041.33 336.125 1044.48 333.659 1048.48 331.886C1052.48 330.114 1057.02 329.227 1062.11 329.227C1067.3 329.227 1071.82 330.114 1075.68 331.886C1079.57 333.659 1082.59 336.125 1084.75 339.284C1086.91 342.443 1088.02 346.102 1088.09 350.261H1073.94ZM1093.42 400V347.636H1107.26V356.875H1107.88C1108.97 353.807 1110.79 351.386 1113.33 349.614C1115.88 347.841 1118.92 346.955 1122.47 346.955C1126.06 346.955 1129.11 347.852 1131.64 349.648C1134.16 351.42 1135.84 353.83 1136.68 356.875H1137.23C1138.3 353.875 1140.23 351.477 1143.02 349.682C1145.84 347.864 1149.17 346.955 1153.01 346.955C1157.9 346.955 1161.86 348.511 1164.91 351.625C1167.98 354.716 1169.51 359.102 1169.51 364.784V400H1155.02V367.648C1155.02 364.739 1154.25 362.557 1152.71 361.102C1151.16 359.648 1149.23 358.92 1146.91 358.92C1144.27 358.92 1142.22 359.761 1140.74 361.443C1139.26 363.102 1138.52 365.295 1138.52 368.023V400H1124.44V367.341C1124.44 364.773 1123.71 362.727 1122.23 361.205C1120.77 359.682 1118.85 358.92 1116.47 358.92C1114.85 358.92 1113.4 359.33 1112.1 360.148C1110.83 360.943 1109.82 362.068 1109.07 363.523C1108.32 364.955 1107.94 366.636 1107.94 368.568V400H1093.42ZM1190.64 400.989C1187.3 400.989 1184.32 400.409 1181.7 399.25C1179.09 398.068 1177.02 396.33 1175.5 394.034C1174 391.716 1173.25 388.83 1173.25 385.375C1173.25 382.466 1173.78 380.023 1174.85 378.045C1175.92 376.068 1177.37 374.477 1179.22 373.273C1181.06 372.068 1183.15 371.159 1185.49 370.545C1187.85 369.932 1190.33 369.5 1192.92 369.25C1195.97 368.932 1198.42 368.636 1200.28 368.364C1202.15 368.068 1203.5 367.636 1204.34 367.068C1205.18 366.5 1205.6 365.659 1205.6 364.545V364.341C1205.6 362.182 1204.92 360.511 1203.56 359.33C1202.22 358.148 1200.31 357.557 1197.83 357.557C1195.22 357.557 1193.14 358.136 1191.59 359.295C1190.05 360.432 1189.02 361.864 1188.52 363.591L1175.09 362.5C1175.77 359.318 1177.11 356.568 1179.11 354.25C1181.11 351.909 1183.69 350.114 1186.85 348.864C1190.03 347.591 1193.72 346.955 1197.9 346.955C1200.81 346.955 1203.59 347.295 1206.25 347.977C1208.93 348.659 1211.31 349.716 1213.37 351.148C1215.47 352.58 1217.11 354.42 1218.32 356.67C1219.52 358.898 1220.12 361.568 1220.12 364.682V400H1206.35V392.739H1205.94C1205.1 394.375 1203.98 395.818 1202.57 397.068C1201.16 398.295 1199.47 399.261 1197.49 399.966C1195.51 400.648 1193.23 400.989 1190.64 400.989ZM1194.8 390.966C1196.93 390.966 1198.82 390.545 1200.45 389.705C1202.09 388.841 1203.37 387.682 1204.31 386.227C1205.24 384.773 1205.7 383.125 1205.7 381.284V375.727C1205.25 376.023 1204.62 376.295 1203.83 376.545C1203.06 376.773 1202.18 376.989 1201.2 377.193C1200.23 377.375 1199.25 377.545 1198.27 377.705C1197.3 377.841 1196.41 377.966 1195.61 378.08C1193.91 378.33 1192.42 378.727 1191.15 379.273C1189.87 379.818 1188.89 380.557 1188.18 381.489C1187.48 382.398 1187.12 383.534 1187.12 384.898C1187.12 386.875 1187.84 388.386 1189.27 389.432C1190.73 390.455 1192.57 390.966 1194.8 390.966ZM1226.11 400V347.636H1240.19V356.773H1240.74C1241.69 353.523 1243.29 351.068 1245.54 349.409C1247.79 347.727 1250.38 346.886 1253.32 346.886C1254.04 346.886 1254.83 346.932 1255.67 347.023C1256.51 347.114 1257.25 347.239 1257.88 347.398V360.284C1257.2 360.08 1256.26 359.898 1255.05 359.739C1253.85 359.58 1252.75 359.5 1251.75 359.5C1249.61 359.5 1247.7 359.966 1246.02 360.898C1244.36 361.807 1243.04 363.08 1242.07 364.716C1241.11 366.352 1240.63 368.239 1240.63 370.375V400H1226.11ZM1290.59 347.636V358.545H1259.06V347.636H1290.59ZM1266.22 335.091H1280.74V383.909C1280.74 385.25 1280.94 386.295 1281.35 387.045C1281.76 387.773 1282.33 388.284 1283.06 388.58C1283.81 388.875 1284.67 389.023 1285.65 389.023C1286.33 389.023 1287.01 388.966 1287.69 388.852C1288.37 388.716 1288.9 388.614 1289.26 388.545L1291.54 399.352C1290.82 399.58 1289.79 399.841 1288.48 400.136C1287.16 400.455 1285.56 400.648 1283.67 400.716C1280.17 400.852 1277.1 400.386 1274.47 399.318C1271.85 398.25 1269.82 396.591 1268.36 394.341C1266.91 392.091 1266.19 389.25 1266.22 385.818V335.091Z" fill="url(#paint0_linear_1899_908)"/>
<path d="M1311.98 400V330.182H1339.53C1344.8 330.182 1349.3 331.125 1353.03 333.011C1356.78 334.875 1359.63 337.523 1361.58 340.955C1363.56 344.364 1364.55 348.375 1364.55 352.989C1364.55 357.625 1363.55 361.614 1361.55 364.955C1359.55 368.273 1356.65 370.818 1352.86 372.591C1349.08 374.364 1344.52 375.25 1339.15 375.25H1320.71V363.386H1336.77C1339.58 363.386 1341.93 363 1343.79 362.227C1345.65 361.455 1347.04 360.295 1347.95 358.75C1348.88 357.205 1349.35 355.284 1349.35 352.989C1349.35 350.67 1348.88 348.716 1347.95 347.125C1347.04 345.534 1345.64 344.33 1343.75 343.511C1341.89 342.67 1339.54 342.25 1336.7 342.25H1326.74V400H1311.98ZM1349.69 368.227L1367.04 400H1350.74L1333.77 368.227H1349.69ZM1392.45 401.023C1387.06 401.023 1382.43 399.932 1378.54 397.75C1374.68 395.545 1371.7 392.432 1369.61 388.409C1367.52 384.364 1366.47 379.58 1366.47 374.057C1366.47 368.67 1367.52 363.943 1369.61 359.875C1371.7 355.807 1374.64 352.636 1378.44 350.364C1382.26 348.091 1386.73 346.955 1391.87 346.955C1395.32 346.955 1398.54 347.511 1401.52 348.625C1404.52 349.716 1407.13 351.364 1409.36 353.568C1411.61 355.773 1413.36 358.545 1414.61 361.886C1415.86 365.205 1416.48 369.091 1416.48 373.545V377.534H1372.27V368.534H1402.81C1402.81 366.443 1402.36 364.591 1401.45 362.977C1400.54 361.364 1399.28 360.102 1397.67 359.193C1396.07 358.261 1394.22 357.795 1392.11 357.795C1389.9 357.795 1387.95 358.307 1386.24 359.33C1384.56 360.33 1383.24 361.682 1382.29 363.386C1381.34 365.068 1380.85 366.943 1380.82 369.011V377.568C1380.82 380.159 1381.3 382.398 1382.26 384.284C1383.23 386.17 1384.61 387.625 1386.38 388.648C1388.15 389.67 1390.26 390.182 1392.69 390.182C1394.3 390.182 1395.78 389.955 1397.12 389.5C1398.46 389.045 1399.61 388.364 1400.56 387.455C1401.52 386.545 1402.24 385.432 1402.74 384.114L1416.18 385C1415.49 388.227 1414.1 391.045 1411.98 393.455C1409.89 395.841 1407.19 397.705 1403.87 399.045C1400.57 400.364 1396.77 401.023 1392.45 401.023ZM1420.68 419.636V347.636H1435V356.432H1435.65C1436.28 355.023 1437.2 353.591 1438.41 352.136C1439.64 350.659 1441.23 349.432 1443.18 348.455C1445.16 347.455 1447.61 346.955 1450.54 346.955C1454.36 346.955 1457.89 347.955 1461.11 349.955C1464.34 351.932 1466.92 354.92 1468.85 358.92C1470.78 362.898 1471.75 367.886 1471.75 373.886C1471.75 379.727 1470.81 384.659 1468.92 388.682C1467.06 392.682 1464.51 395.716 1461.28 397.784C1458.08 399.83 1454.49 400.852 1450.51 400.852C1447.69 400.852 1445.29 400.386 1443.32 399.455C1441.36 398.523 1439.76 397.352 1438.51 395.943C1437.26 394.511 1436.31 393.068 1435.65 391.614H1435.2V419.636H1420.68ZM1434.9 373.818C1434.9 376.932 1435.33 379.648 1436.19 381.966C1437.06 384.284 1438.31 386.091 1439.94 387.386C1441.58 388.659 1443.57 389.295 1445.91 389.295C1448.27 389.295 1450.27 388.648 1451.91 387.352C1453.54 386.034 1454.78 384.216 1455.62 381.898C1456.49 379.557 1456.92 376.864 1456.92 373.818C1456.92 370.795 1456.5 368.136 1455.66 365.841C1454.82 363.545 1453.58 361.75 1451.94 360.455C1450.31 359.159 1448.29 358.511 1445.91 358.511C1443.54 358.511 1441.54 359.136 1439.91 360.386C1438.29 361.636 1437.06 363.409 1436.19 365.705C1435.33 368 1434.9 370.705 1434.9 373.818ZM1499.81 401.023C1494.51 401.023 1489.93 399.898 1486.07 397.648C1482.23 395.375 1479.26 392.216 1477.17 388.17C1475.08 384.102 1474.04 379.386 1474.04 374.023C1474.04 368.614 1475.08 363.886 1477.17 359.841C1479.26 355.773 1482.23 352.614 1486.07 350.364C1489.93 348.091 1494.51 346.955 1499.81 346.955C1505.11 346.955 1509.67 348.091 1513.51 350.364C1517.38 352.614 1520.36 355.773 1522.45 359.841C1524.54 363.886 1525.58 368.614 1525.58 374.023C1525.58 379.386 1524.54 384.102 1522.45 388.17C1520.36 392.216 1517.38 395.375 1513.51 397.648C1509.67 399.898 1505.11 401.023 1499.81 401.023ZM1499.88 389.773C1502.29 389.773 1504.3 389.091 1505.91 387.727C1507.53 386.341 1508.74 384.455 1509.56 382.068C1510.4 379.682 1510.82 376.966 1510.82 373.92C1510.82 370.875 1510.4 368.159 1509.56 365.773C1508.74 363.386 1507.53 361.5 1505.91 360.114C1504.3 358.727 1502.29 358.034 1499.88 358.034C1497.45 358.034 1495.4 358.727 1493.74 360.114C1492.11 361.5 1490.87 363.386 1490.03 365.773C1489.21 368.159 1488.8 370.875 1488.8 373.92C1488.8 376.966 1489.21 379.682 1490.03 382.068C1490.87 384.455 1492.11 386.341 1493.74 387.727C1495.4 389.091 1497.45 389.773 1499.88 389.773ZM1573.31 362.568L1560.02 363.386C1559.79 362.25 1559.3 361.227 1558.55 360.318C1557.8 359.386 1556.81 358.648 1555.59 358.102C1554.38 357.534 1552.94 357.25 1551.26 357.25C1549.01 357.25 1547.11 357.727 1545.56 358.682C1544.02 359.614 1543.25 360.864 1543.25 362.432C1543.25 363.682 1543.75 364.739 1544.75 365.602C1545.75 366.466 1547.46 367.159 1549.89 367.682L1559.37 369.591C1564.46 370.636 1568.26 372.318 1570.76 374.636C1573.26 376.955 1574.51 380 1574.51 383.773C1574.51 387.205 1573.5 390.216 1571.47 392.807C1569.47 395.398 1566.72 397.42 1563.22 398.875C1559.75 400.307 1555.73 401.023 1551.19 401.023C1544.26 401.023 1538.73 399.58 1534.62 396.693C1530.53 393.784 1528.13 389.83 1527.43 384.83L1541.71 384.08C1542.14 386.193 1543.19 387.807 1544.85 388.92C1546.51 390.011 1548.63 390.557 1551.22 390.557C1553.77 390.557 1555.81 390.068 1557.36 389.091C1558.93 388.091 1559.72 386.807 1559.75 385.239C1559.72 383.92 1559.17 382.841 1558.08 382C1556.98 381.136 1555.3 380.477 1553.03 380.023L1543.96 378.216C1538.85 377.193 1535.04 375.42 1532.54 372.898C1530.06 370.375 1528.83 367.159 1528.83 363.25C1528.83 359.886 1529.73 356.989 1531.55 354.557C1533.39 352.125 1535.97 350.25 1539.29 348.932C1542.63 347.614 1546.54 346.955 1551.02 346.955C1557.63 346.955 1562.84 348.352 1566.63 351.148C1570.45 353.943 1572.68 357.75 1573.31 362.568ZM1603.8 377.602C1601.55 377.602 1599.62 376.807 1598 375.216C1596.41 373.602 1595.62 371.67 1595.62 369.42C1595.62 367.193 1596.41 365.284 1598 363.693C1599.62 362.102 1601.55 361.307 1603.8 361.307C1605.98 361.307 1607.89 362.102 1609.53 363.693C1611.16 365.284 1611.98 367.193 1611.98 369.42C1611.98 370.92 1611.59 372.295 1610.82 373.545C1610.07 374.773 1609.08 375.761 1607.86 376.511C1606.63 377.239 1605.28 377.602 1603.8 377.602ZM1834.06 400V330.182H1862.02C1867.15 330.182 1871.44 330.943 1874.87 332.466C1878.3 333.989 1880.88 336.102 1882.61 338.807C1884.33 341.489 1885.2 344.58 1885.2 348.08C1885.2 350.807 1884.65 353.205 1883.56 355.273C1882.47 357.318 1880.97 359 1879.06 360.318C1877.17 361.614 1875.02 362.534 1872.58 363.08V363.761C1875.24 363.875 1877.73 364.625 1880.05 366.011C1882.39 367.398 1884.29 369.341 1885.74 371.841C1887.2 374.318 1887.92 377.273 1887.92 380.705C1887.92 384.409 1887 387.716 1885.16 390.625C1883.34 393.511 1880.65 395.795 1877.08 397.477C1873.52 399.159 1869.12 400 1863.89 400H1834.06ZM1848.82 387.932H1860.86C1864.97 387.932 1867.97 387.148 1869.86 385.58C1871.74 383.989 1872.69 381.875 1872.69 379.239C1872.69 377.307 1872.22 375.602 1871.29 374.125C1870.36 372.648 1869.03 371.489 1867.3 370.648C1865.59 369.807 1863.56 369.386 1861.2 369.386H1848.82V387.932ZM1848.82 359.398H1859.77C1861.79 359.398 1863.58 359.045 1865.15 358.341C1866.74 357.614 1867.99 356.591 1868.9 355.273C1869.83 353.955 1870.3 352.375 1870.3 350.534C1870.3 348.011 1869.4 345.977 1867.61 344.432C1865.83 342.886 1863.31 342.114 1860.04 342.114H1848.82V359.398ZM1925.56 377.705V347.636H1940.08V400H1926.14V390.489H1925.59C1924.41 393.557 1922.44 396.023 1919.69 397.886C1916.97 399.75 1913.64 400.682 1909.7 400.682C1906.2 400.682 1903.12 399.886 1900.47 398.295C1897.81 396.705 1895.73 394.443 1894.23 391.511C1892.75 388.58 1892 385.068 1891.98 380.977V347.636H1906.5V378.386C1906.52 381.477 1907.35 383.92 1908.99 385.716C1910.62 387.511 1912.82 388.409 1915.57 388.409C1917.32 388.409 1918.95 388.011 1920.48 387.216C1922 386.398 1923.23 385.193 1924.16 383.602C1925.11 382.011 1925.58 380.045 1925.56 377.705ZM1946.42 400V347.636H1960.94V400H1946.42ZM1953.71 340.886C1951.55 340.886 1949.7 340.17 1948.15 338.739C1946.63 337.284 1945.87 335.545 1945.87 333.523C1945.87 331.523 1946.63 329.807 1948.15 328.375C1949.7 326.92 1951.55 326.193 1953.71 326.193C1955.87 326.193 1957.71 326.92 1959.23 328.375C1960.78 329.807 1961.55 331.523 1961.55 333.523C1961.55 335.545 1960.78 337.284 1959.23 338.739C1957.71 340.17 1955.87 340.886 1953.71 340.886ZM1981.81 330.182V400H1967.29V330.182H1981.81ZM2007.46 400.852C2003.49 400.852 1999.88 399.83 1996.66 397.784C1993.45 395.716 1990.91 392.682 1989.02 388.682C1987.16 384.659 1986.22 379.727 1986.22 373.886C1986.22 367.886 1987.19 362.898 1989.12 358.92C1991.05 354.92 1993.62 351.932 1996.83 349.955C2000.05 347.955 2003.59 346.955 2007.43 346.955C2010.36 346.955 2012.8 347.455 2014.76 348.455C2016.74 349.432 2018.33 350.659 2019.53 352.136C2020.76 353.591 2021.69 355.023 2022.33 356.432H2022.77V330.182H2037.26V400H2022.94V391.614H2022.33C2021.65 393.068 2020.68 394.511 2019.43 395.943C2018.2 397.352 2016.6 398.523 2014.62 399.455C2012.67 400.386 2010.28 400.852 2007.46 400.852ZM2012.07 389.295C2014.41 389.295 2016.38 388.659 2018 387.386C2019.63 386.091 2020.88 384.284 2021.75 381.966C2022.63 379.648 2023.08 376.932 2023.08 373.818C2023.08 370.705 2022.65 368 2021.78 365.705C2020.92 363.409 2019.67 361.636 2018.03 360.386C2016.4 359.136 2014.41 358.511 2012.07 358.511C2009.68 358.511 2007.67 359.159 2006.03 360.455C2004.4 361.75 2003.16 363.545 2002.32 365.841C2001.47 368.136 2001.05 370.795 2001.05 373.818C2001.05 376.864 2001.47 379.557 2002.32 381.898C2003.18 384.216 2004.42 386.034 2006.03 387.352C2007.67 388.648 2009.68 389.295 2012.07 389.295ZM2087.49 362.568L2074.19 363.386C2073.96 362.25 2073.48 361.227 2072.73 360.318C2071.98 359.386 2070.99 358.648 2069.76 358.102C2068.56 357.534 2067.11 357.25 2065.43 357.25C2063.18 357.25 2061.28 357.727 2059.74 358.682C2058.19 359.614 2057.42 360.864 2057.42 362.432C2057.42 363.682 2057.92 364.739 2058.92 365.602C2059.92 366.466 2061.64 367.159 2064.07 367.682L2073.54 369.591C2078.64 370.636 2082.43 372.318 2084.93 374.636C2087.43 376.955 2088.68 380 2088.68 383.773C2088.68 387.205 2087.67 390.216 2085.65 392.807C2083.65 395.398 2080.9 397.42 2077.4 398.875C2073.92 400.307 2069.91 401.023 2065.36 401.023C2058.43 401.023 2052.91 399.58 2048.79 396.693C2044.7 393.784 2042.31 389.83 2041.6 384.83L2055.89 384.08C2056.32 386.193 2057.36 387.807 2059.02 388.92C2060.68 390.011 2062.81 390.557 2065.4 390.557C2067.94 390.557 2069.99 390.068 2071.53 389.091C2073.1 388.091 2073.9 386.807 2073.92 385.239C2073.9 383.92 2073.34 382.841 2072.25 382C2071.16 381.136 2069.48 380.477 2067.2 380.023L2058.14 378.216C2053.02 377.193 2049.21 375.42 2046.71 372.898C2044.24 370.375 2043 367.159 2043 363.25C2043 359.886 2043.91 356.989 2045.73 354.557C2047.57 352.125 2050.15 350.25 2053.46 348.932C2056.81 347.614 2060.71 346.955 2065.19 346.955C2071.81 346.955 2077.01 348.352 2080.81 351.148C2084.62 353.943 2086.85 357.75 2087.49 362.568Z" fill="#0F172A"/>
<path d="M1635.84 400V330.182H1682.06V342.352H1650.6V358.989H1678.99V371.159H1650.6V400H1635.84ZM1700.71 400.989C1697.37 400.989 1694.4 400.409 1691.78 399.25C1689.17 398.068 1687.1 396.33 1685.58 394.034C1684.08 391.716 1683.33 388.83 1683.33 385.375C1683.33 382.466 1683.86 380.023 1684.93 378.045C1686 376.068 1687.45 374.477 1689.29 373.273C1691.14 372.068 1693.23 371.159 1695.57 370.545C1697.93 369.932 1700.41 369.5 1703 369.25C1706.04 368.932 1708.5 368.636 1710.36 368.364C1712.23 368.068 1713.58 367.636 1714.42 367.068C1715.26 366.5 1715.68 365.659 1715.68 364.545V364.341C1715.68 362.182 1715 360.511 1713.64 359.33C1712.29 358.148 1710.39 357.557 1707.91 357.557C1705.29 357.557 1703.21 358.136 1701.67 359.295C1700.12 360.432 1699.1 361.864 1698.6 363.591L1685.17 362.5C1685.85 359.318 1687.19 356.568 1689.19 354.25C1691.19 351.909 1693.77 350.114 1696.93 348.864C1700.11 347.591 1703.79 346.955 1707.98 346.955C1710.89 346.955 1713.67 347.295 1716.33 347.977C1719.01 348.659 1721.39 349.716 1723.45 351.148C1725.54 352.58 1727.19 354.42 1728.4 356.67C1729.6 358.898 1730.2 361.568 1730.2 364.682V400H1716.43V392.739H1716.02C1715.18 394.375 1714.06 395.818 1712.65 397.068C1711.24 398.295 1709.54 399.261 1707.57 399.966C1705.59 400.648 1703.31 400.989 1700.71 400.989ZM1704.87 390.966C1707.01 390.966 1708.9 390.545 1710.53 389.705C1712.17 388.841 1713.45 387.682 1714.39 386.227C1715.32 384.773 1715.78 383.125 1715.78 381.284V375.727C1715.33 376.023 1714.7 376.295 1713.91 376.545C1713.14 376.773 1712.26 376.989 1711.28 377.193C1710.31 377.375 1709.33 377.545 1708.35 377.705C1707.37 377.841 1706.49 377.966 1705.69 378.08C1703.99 378.33 1702.5 378.727 1701.23 379.273C1699.95 379.818 1698.96 380.557 1698.26 381.489C1697.56 382.398 1697.2 383.534 1697.2 384.898C1697.2 386.875 1697.92 388.386 1699.35 389.432C1700.81 390.455 1702.65 390.966 1704.87 390.966ZM1779.76 362.568L1766.46 363.386C1766.24 362.25 1765.75 361.227 1765 360.318C1764.25 359.386 1763.26 358.648 1762.03 358.102C1760.83 357.534 1759.38 357.25 1757.7 357.25C1755.45 357.25 1753.55 357.727 1752.01 358.682C1750.46 359.614 1749.69 360.864 1749.69 362.432C1749.69 363.682 1750.19 364.739 1751.19 365.602C1752.19 366.466 1753.91 367.159 1756.34 367.682L1765.82 369.591C1770.91 370.636 1774.7 372.318 1777.2 374.636C1779.7 376.955 1780.95 380 1780.95 383.773C1780.95 387.205 1779.94 390.216 1777.92 392.807C1775.92 395.398 1773.17 397.42 1769.67 398.875C1766.19 400.307 1762.18 401.023 1757.63 401.023C1750.7 401.023 1745.18 399.58 1741.07 396.693C1736.97 393.784 1734.58 389.83 1733.87 384.83L1748.16 384.08C1748.59 386.193 1749.63 387.807 1751.29 388.92C1752.95 390.011 1755.08 390.557 1757.67 390.557C1760.21 390.557 1762.26 390.068 1763.8 389.091C1765.37 388.091 1766.17 386.807 1766.19 385.239C1766.17 383.92 1765.61 382.841 1764.52 382C1763.43 381.136 1761.75 380.477 1759.47 380.023L1750.41 378.216C1745.29 377.193 1741.49 375.42 1738.99 372.898C1736.51 370.375 1735.27 367.159 1735.27 363.25C1735.27 359.886 1736.18 356.989 1738 354.557C1739.84 352.125 1742.42 350.25 1745.74 348.932C1749.08 347.614 1752.99 346.955 1757.46 346.955C1764.08 346.955 1769.28 348.352 1773.08 351.148C1776.9 353.943 1779.12 357.75 1779.76 362.568ZM1812.67 347.636V358.545H1781.13V347.636H1812.67ZM1788.29 335.091H1802.82V383.909C1802.82 385.25 1803.02 386.295 1803.43 387.045C1803.84 387.773 1804.41 388.284 1805.13 388.58C1805.88 388.875 1806.75 389.023 1807.73 389.023C1808.41 389.023 1809.09 388.966 1809.77 388.852C1810.45 388.716 1810.98 388.614 1811.34 388.545L1813.62 399.352C1812.9 399.58 1811.87 399.841 1810.56 400.136C1809.24 400.455 1807.63 400.648 1805.75 400.716C1802.25 400.852 1799.18 400.386 1796.54 399.318C1793.93 398.25 1791.9 396.591 1790.44 394.341C1788.99 392.091 1788.27 389.25 1788.29 385.818V335.091Z" fill="url(#paint1_linear_1899_908)"/>
</g>
<defs>
<linearGradient id="paint0_linear_1899_908" x1="1030" y1="312" x2="1462.57" y2="312" gradientUnits="userSpaceOnUse">
<stop stop-color="#06B6D4"/>
<stop offset="1" stop-color="#3B82F6"/>
</linearGradient>
<linearGradient id="paint1_linear_1899_908" x1="1030" y1="365.3" x2="1987" y2="365.3" gradientUnits="userSpaceOnUse">
<stop stop-color="#EC4899"/>
<stop offset="1" stop-color="#D946EF"/>
</linearGradient>
<clipPath id="clip0_1899_908">
<rect width="2280" height="690" fill="white"/>
</clipPath>
</defs>
</svg>
