<svg width="500" height="350" viewBox="0 0 500 350" fill="none" xmlns="http://www.w3.org/2000/svg">
<rect x="50" y="35" width="112" height="64" rx="8" fill="#94A3B8"/>
<path d="M86.9796 73.1932C86.4265 73.1932 85.9265 73.0909 85.4796 72.8864C85.0326 72.678 84.6784 72.3769 84.4171 71.983C84.1595 71.589 84.0307 71.1061 84.0307 70.5341C84.0307 70.0417 84.1254 69.6364 84.3148 69.3182C84.5042 69 84.7599 68.7481 85.0818 68.5625C85.4038 68.3769 85.7637 68.2367 86.1614 68.142C86.5591 68.0473 86.9644 67.9754 87.3773 67.9261C87.9 67.8655 88.3243 67.8163 88.65 67.7784C88.9758 67.7367 89.2125 67.6705 89.3603 67.5795C89.508 67.4886 89.5818 67.3409 89.5818 67.1364V67.0966C89.5818 66.6004 89.4417 66.2159 89.1614 65.9432C88.8849 65.6705 88.472 65.5341 87.9228 65.5341C87.3508 65.5341 86.9 65.661 86.5705 65.9148C86.2447 66.1648 86.0193 66.4432 85.8943 66.75L84.2978 66.3864C84.4871 65.8561 84.7637 65.428 85.1273 65.1023C85.4947 64.7727 85.9171 64.5341 86.3943 64.3864C86.8716 64.2348 87.3735 64.1591 87.9 64.1591C88.2485 64.1591 88.6178 64.2008 89.008 64.2841C89.4019 64.3636 89.7693 64.5114 90.1103 64.7273C90.4549 64.9432 90.7371 65.2519 90.9568 65.6534C91.1765 66.0511 91.2864 66.5682 91.2864 67.2045V73H89.6273V71.8068H89.5591C89.4493 72.0265 89.2845 72.2424 89.0648 72.4545C88.8451 72.6667 88.5629 72.8428 88.2182 72.983C87.8735 73.1231 87.4606 73.1932 86.9796 73.1932ZM87.3489 71.8295C87.8186 71.8295 88.2201 71.7367 88.5534 71.5511C88.8906 71.3655 89.1462 71.1231 89.3205 70.8239C89.4985 70.5208 89.5875 70.197 89.5875 69.8523V68.7273C89.5269 68.7879 89.4095 68.8447 89.2353 68.8977C89.0648 68.947 88.8697 68.9905 88.65 69.0284C88.4303 69.0625 88.2163 69.0947 88.008 69.125C87.7996 69.1515 87.6254 69.1742 87.4853 69.1932C87.1557 69.2348 86.8546 69.3049 86.5818 69.4034C86.3129 69.5019 86.097 69.6439 85.9341 69.8295C85.775 70.0114 85.6955 70.2538 85.6955 70.5568C85.6955 70.9773 85.8508 71.2955 86.1614 71.5114C86.472 71.7235 86.8678 71.8295 87.3489 71.8295ZM96.4642 73.1705C95.7597 73.1705 95.1309 72.9905 94.5779 72.6307C94.0286 72.267 93.5968 71.75 93.2824 71.0795C92.9718 70.4053 92.8165 69.5966 92.8165 68.6534C92.8165 67.7102 92.9737 66.9034 93.2881 66.233C93.6063 65.5625 94.0419 65.0492 94.5949 64.6932C95.1479 64.3371 95.7748 64.1591 96.4756 64.1591C97.0172 64.1591 97.4529 64.25 97.7824 64.4318C98.1157 64.6098 98.3733 64.8182 98.5551 65.0568C98.7407 65.2955 98.8847 65.5057 98.9869 65.6875H99.0892V61.3636H100.788V73H99.129V71.642H98.9869C98.8847 71.8277 98.7369 72.0398 98.5438 72.2784C98.3544 72.517 98.093 72.7254 97.7597 72.9034C97.4263 73.0814 96.9945 73.1705 96.4642 73.1705ZM96.8392 71.7216C97.3279 71.7216 97.7407 71.5928 98.0779 71.3352C98.4188 71.0739 98.6763 70.7121 98.8506 70.25C99.0286 69.7879 99.1176 69.25 99.1176 68.6364C99.1176 68.0303 99.0305 67.5 98.8563 67.0455C98.682 66.5909 98.4263 66.2367 98.0892 65.983C97.7521 65.7292 97.3354 65.6023 96.8392 65.6023C96.3279 65.6023 95.9017 65.7348 95.5608 66C95.2199 66.2652 94.9623 66.6269 94.7881 67.0852C94.6176 67.5436 94.5324 68.0606 94.5324 68.6364C94.5324 69.2197 94.6195 69.7443 94.7938 70.2102C94.968 70.6761 95.2256 71.0455 95.5665 71.3182C95.9112 71.5871 96.3354 71.7216 96.8392 71.7216ZM102.861 73V64.2727H104.491V65.6932H104.599C104.781 65.2121 105.079 64.8371 105.491 64.5682C105.904 64.2955 106.399 64.1591 106.974 64.1591C107.558 64.1591 108.046 64.2955 108.44 64.5682C108.838 64.8409 109.132 65.2159 109.321 65.6932H109.412C109.62 65.2273 109.952 64.8561 110.406 64.5795C110.861 64.2992 111.402 64.1591 112.031 64.1591C112.823 64.1591 113.469 64.4072 113.969 64.9034C114.473 65.3996 114.724 66.1477 114.724 67.1477V73H113.026V67.3068C113.026 66.7159 112.865 66.2879 112.543 66.0227C112.221 65.7576 111.836 65.625 111.389 65.625C110.836 65.625 110.406 65.7955 110.099 66.1364C109.793 66.4735 109.639 66.9072 109.639 67.4375V73H107.946V67.1989C107.946 66.7254 107.798 66.3447 107.503 66.0568C107.207 65.7689 106.823 65.625 106.349 65.625C106.027 65.625 105.73 65.7102 105.457 65.8807C105.188 66.0473 104.971 66.2803 104.804 66.5795C104.641 66.8788 104.56 67.2254 104.56 67.6193V73H102.861ZM116.649 73V64.2727H118.348V73H116.649ZM117.507 62.9261C117.212 62.9261 116.958 62.8277 116.746 62.6307C116.538 62.4299 116.434 62.1913 116.434 61.9148C116.434 61.6345 116.538 61.3958 116.746 61.1989C116.958 60.9981 117.212 60.8977 117.507 60.8977C117.803 60.8977 118.055 60.9981 118.263 61.1989C118.475 61.3958 118.581 61.6345 118.581 61.9148C118.581 62.1913 118.475 62.4299 118.263 62.6307C118.055 62.8277 117.803 62.9261 117.507 62.9261ZM121.981 67.8182V73H120.282V64.2727H121.912V65.6932H122.02C122.221 65.2311 122.536 64.8598 122.964 64.5795C123.395 64.2992 123.939 64.1591 124.594 64.1591C125.189 64.1591 125.71 64.2841 126.157 64.5341C126.604 64.7803 126.95 65.1477 127.197 65.6364C127.443 66.125 127.566 66.7292 127.566 67.4489V73H125.867V67.6534C125.867 67.0208 125.702 66.5265 125.373 66.1705C125.043 65.8106 124.591 65.6307 124.015 65.6307C123.621 65.6307 123.27 65.7159 122.964 65.8864C122.661 66.0568 122.42 66.3068 122.242 66.6364C122.068 66.9621 121.981 67.3561 121.981 67.8182Z" fill="white"/>
<rect x="325" y="35" width="112" height="64" rx="8" fill="#94A3B8"/>
<path d="M369.737 66.4034L368.198 66.6761C368.133 66.4792 368.031 66.2917 367.891 66.1136C367.754 65.9356 367.569 65.7898 367.334 65.6761C367.099 65.5625 366.806 65.5057 366.453 65.5057C365.972 65.5057 365.571 65.6136 365.249 65.8295C364.927 66.0417 364.766 66.3163 364.766 66.6534C364.766 66.9451 364.874 67.1799 365.09 67.358C365.306 67.536 365.654 67.6818 366.135 67.7955L367.521 68.1136C368.325 68.2992 368.923 68.5852 369.317 68.9716C369.711 69.358 369.908 69.8598 369.908 70.4773C369.908 71 369.756 71.4659 369.453 71.875C369.154 72.2803 368.735 72.5985 368.198 72.8295C367.664 73.0606 367.044 73.1761 366.34 73.1761C365.362 73.1761 364.565 72.9678 363.948 72.5511C363.33 72.1307 362.951 71.5341 362.811 70.7614L364.453 70.5114C364.556 70.9394 364.766 71.2633 365.084 71.483C365.402 71.6989 365.817 71.8068 366.328 71.8068C366.885 71.8068 367.33 71.6913 367.664 71.4602C367.997 71.2254 368.164 70.9394 368.164 70.6023C368.164 70.3295 368.061 70.1004 367.857 69.9148C367.656 69.7292 367.347 69.589 366.931 69.4943L365.453 69.1705C364.639 68.9848 364.037 68.6894 363.646 68.2841C363.26 67.8788 363.067 67.3655 363.067 66.7443C363.067 66.2292 363.211 65.7784 363.499 65.392C363.787 65.0057 364.184 64.7045 364.692 64.4886C365.2 64.2689 365.781 64.1591 366.436 64.1591C367.379 64.1591 368.122 64.3636 368.664 64.7727C369.205 65.178 369.563 65.7216 369.737 66.4034ZM375.498 64.2727V65.6364H370.731V64.2727H375.498ZM372.009 62.1818H373.708V70.4375C373.708 70.767 373.757 71.0152 373.856 71.1818C373.954 71.3447 374.081 71.4564 374.236 71.517C374.395 71.5739 374.568 71.6023 374.753 71.6023C374.89 71.6023 375.009 71.5928 375.111 71.5739C375.214 71.5549 375.293 71.5398 375.35 71.5284L375.657 72.9318C375.558 72.9697 375.418 73.0076 375.236 73.0455C375.054 73.0871 374.827 73.1098 374.554 73.1136C374.107 73.1212 373.691 73.0417 373.304 72.875C372.918 72.7083 372.606 72.4508 372.367 72.1023C372.128 71.7538 372.009 71.3163 372.009 70.7898V62.1818ZM380.607 73.1761C379.789 73.1761 379.075 72.9886 378.465 72.6136C377.855 72.2386 377.382 71.714 377.045 71.0398C376.708 70.3655 376.539 69.5777 376.539 68.6761C376.539 67.7708 376.708 66.9792 377.045 66.3011C377.382 65.6231 377.855 65.0966 378.465 64.7216C379.075 64.3466 379.789 64.1591 380.607 64.1591C381.425 64.1591 382.139 64.3466 382.749 64.7216C383.359 65.0966 383.833 65.6231 384.17 66.3011C384.507 66.9792 384.675 67.7708 384.675 68.6761C384.675 69.5777 384.507 70.3655 384.17 71.0398C383.833 71.714 383.359 72.2386 382.749 72.6136C382.139 72.9886 381.425 73.1761 380.607 73.1761ZM380.613 71.75C381.143 71.75 381.583 71.6098 381.931 71.3295C382.28 71.0492 382.537 70.6761 382.704 70.2102C382.874 69.7443 382.96 69.2311 382.96 68.6705C382.96 68.1136 382.874 67.6023 382.704 67.1364C382.537 66.6667 382.28 66.2898 381.931 66.0057C381.583 65.7216 381.143 65.5795 380.613 65.5795C380.079 65.5795 379.636 65.7216 379.283 66.0057C378.935 66.2898 378.675 66.6667 378.505 67.1364C378.338 67.6023 378.255 68.1136 378.255 68.6705C378.255 69.2311 378.338 69.7443 378.505 70.2102C378.675 70.6761 378.935 71.0492 379.283 71.3295C379.636 71.6098 380.079 71.75 380.613 71.75ZM386.22 73V64.2727H387.862V65.6591H387.953C388.112 65.1894 388.392 64.8201 388.794 64.5511C389.199 64.2784 389.657 64.142 390.169 64.142C390.275 64.142 390.4 64.1458 390.544 64.1534C390.691 64.161 390.807 64.1705 390.89 64.1818V65.8068C390.822 65.7879 390.701 65.767 390.527 65.7443C390.352 65.7178 390.178 65.7045 390.004 65.7045C389.602 65.7045 389.244 65.7898 388.93 65.9602C388.619 66.1269 388.373 66.3598 388.191 66.6591C388.01 66.9545 387.919 67.2917 387.919 67.6705V73H386.22ZM395.457 73.1761C394.597 73.1761 393.857 72.9924 393.236 72.625C392.618 72.2538 392.141 71.733 391.804 71.0625C391.47 70.3883 391.304 69.5985 391.304 68.6932C391.304 67.7992 391.47 67.0114 391.804 66.3295C392.141 65.6477 392.611 65.1155 393.213 64.733C393.819 64.3504 394.527 64.1591 395.338 64.1591C395.83 64.1591 396.308 64.2405 396.77 64.4034C397.232 64.5663 397.647 64.822 398.014 65.1705C398.381 65.5189 398.671 65.9716 398.883 66.5284C399.095 67.0814 399.202 67.7538 399.202 68.5455V69.1477H392.264V67.875H397.537C397.537 67.428 397.446 67.0322 397.264 66.6875C397.082 66.339 396.827 66.0644 396.497 65.8636C396.171 65.6629 395.789 65.5625 395.349 65.5625C394.872 65.5625 394.455 65.6799 394.099 65.9148C393.747 66.1458 393.474 66.4489 393.281 66.8239C393.092 67.1951 392.997 67.5985 392.997 68.0341V69.0284C392.997 69.6117 393.099 70.108 393.304 70.517C393.512 70.9261 393.802 71.2386 394.173 71.4545C394.544 71.6667 394.978 71.7727 395.474 71.7727C395.796 71.7727 396.09 71.7273 396.355 71.6364C396.62 71.5417 396.849 71.4015 397.042 71.2159C397.236 71.0303 397.383 70.8011 397.486 70.5284L399.094 70.8182C398.965 71.2917 398.734 71.7064 398.4 72.0625C398.071 72.4148 397.656 72.6894 397.156 72.8864C396.66 73.0795 396.094 73.1761 395.457 73.1761Z" fill="white"/>
<rect x="26" y="240" width="160" height="70" rx="8" stroke="#94A3B8" stroke-width="2" stroke-miterlimit="0" stroke-linecap="round"/>
<path d="M68.6715 281.176C67.8268 281.176 67.0995 280.985 66.4897 280.602C65.8836 280.216 65.4177 279.684 65.0919 279.006C64.7662 278.328 64.6033 277.551 64.6033 276.676C64.6033 275.79 64.77 275.008 65.1033 274.33C65.4366 273.648 65.9063 273.116 66.5124 272.733C67.1185 272.35 67.8325 272.159 68.6544 272.159C69.3173 272.159 69.9082 272.282 70.4272 272.528C70.9461 272.771 71.3647 273.112 71.6829 273.551C72.0048 273.991 72.1961 274.504 72.2567 275.091H70.6033C70.5124 274.682 70.3041 274.33 69.9783 274.034C69.6563 273.739 69.2245 273.591 68.6829 273.591C68.2094 273.591 67.7946 273.716 67.4385 273.966C67.0863 274.212 66.8116 274.564 66.6147 275.023C66.4177 275.477 66.3192 276.015 66.3192 276.636C66.3192 277.273 66.4158 277.822 66.609 278.284C66.8022 278.746 67.0749 279.104 67.4272 279.358C67.7832 279.612 68.2018 279.739 68.6829 279.739C69.0048 279.739 69.2965 279.68 69.5579 279.562C69.823 279.441 70.0446 279.269 70.2226 279.045C70.4044 278.822 70.5313 278.553 70.6033 278.239H72.2567C72.1961 278.803 72.0124 279.307 71.7056 279.75C71.3988 280.193 70.9878 280.542 70.4726 280.795C69.9613 281.049 69.3609 281.176 68.6715 281.176ZM77.3976 281.176C76.5794 281.176 75.8654 280.989 75.2556 280.614C74.6457 280.239 74.1722 279.714 73.8351 279.04C73.498 278.366 73.3294 277.578 73.3294 276.676C73.3294 275.771 73.498 274.979 73.8351 274.301C74.1722 273.623 74.6457 273.097 75.2556 272.722C75.8654 272.347 76.5794 272.159 77.3976 272.159C78.2158 272.159 78.9298 272.347 79.5397 272.722C80.1495 273.097 80.623 273.623 80.9601 274.301C81.2972 274.979 81.4658 275.771 81.4658 276.676C81.4658 277.578 81.2972 278.366 80.9601 279.04C80.623 279.714 80.1495 280.239 79.5397 280.614C78.9298 280.989 78.2158 281.176 77.3976 281.176ZM77.4033 279.75C77.9336 279.75 78.373 279.61 78.7215 279.33C79.07 279.049 79.3275 278.676 79.4942 278.21C79.6647 277.744 79.7499 277.231 79.7499 276.67C79.7499 276.114 79.6647 275.602 79.4942 275.136C79.3275 274.667 79.07 274.29 78.7215 274.006C78.373 273.722 77.9336 273.58 77.4033 273.58C76.8692 273.58 76.426 273.722 76.0738 274.006C75.7253 274.29 75.4658 274.667 75.2953 275.136C75.1287 275.602 75.0453 276.114 75.0453 276.67C75.0453 277.231 75.1287 277.744 75.2953 278.21C75.4658 278.676 75.7253 279.049 76.0738 279.33C76.426 279.61 76.8692 279.75 77.4033 279.75ZM83.0101 281V272.273H84.6408V273.693H84.7487C84.9306 273.212 85.2279 272.837 85.6408 272.568C86.0537 272.295 86.548 272.159 87.1237 272.159C87.7071 272.159 88.1957 272.295 88.5897 272.568C88.9874 272.841 89.2809 273.216 89.4703 273.693H89.5612C89.7696 273.227 90.101 272.856 90.5556 272.58C91.0101 272.299 91.5518 272.159 92.1806 272.159C92.9722 272.159 93.6181 272.407 94.1181 272.903C94.6219 273.4 94.8737 274.148 94.8737 275.148V281H93.1749V275.307C93.1749 274.716 93.0139 274.288 92.6919 274.023C92.37 273.758 91.9855 273.625 91.5385 273.625C90.9855 273.625 90.5556 273.795 90.2487 274.136C89.9419 274.473 89.7885 274.907 89.7885 275.438V281H88.0953V275.199C88.0953 274.725 87.9476 274.345 87.6522 274.057C87.3567 273.769 86.9722 273.625 86.4987 273.625C86.1768 273.625 85.8794 273.71 85.6067 273.881C85.3378 274.047 85.12 274.28 84.9533 274.58C84.7904 274.879 84.709 275.225 84.709 275.619V281H83.0101ZM96.7987 281V272.273H98.4294V273.693H98.5374C98.7192 273.212 99.0165 272.837 99.4294 272.568C99.8423 272.295 100.337 272.159 100.912 272.159C101.496 272.159 101.984 272.295 102.378 272.568C102.776 272.841 103.07 273.216 103.259 273.693H103.35C103.558 273.227 103.89 272.856 104.344 272.58C104.799 272.299 105.34 272.159 105.969 272.159C106.761 272.159 107.407 272.407 107.907 272.903C108.41 273.4 108.662 274.148 108.662 275.148V281H106.964V275.307C106.964 274.716 106.803 274.288 106.481 274.023C106.159 273.758 105.774 273.625 105.327 273.625C104.774 273.625 104.344 273.795 104.037 274.136C103.731 274.473 103.577 274.907 103.577 275.438V281H101.884V275.199C101.884 274.725 101.736 274.345 101.441 274.057C101.145 273.769 100.761 273.625 100.287 273.625C99.9654 273.625 99.6681 273.71 99.3953 273.881C99.1264 274.047 98.9086 274.28 98.7419 274.58C98.579 274.879 98.4976 275.225 98.4976 275.619V281H96.7987ZM114.263 281.176C113.445 281.176 112.731 280.989 112.121 280.614C111.512 280.239 111.038 279.714 110.701 279.04C110.364 278.366 110.195 277.578 110.195 276.676C110.195 275.771 110.364 274.979 110.701 274.301C111.038 273.623 111.512 273.097 112.121 272.722C112.731 272.347 113.445 272.159 114.263 272.159C115.082 272.159 115.796 272.347 116.406 272.722C117.015 273.097 117.489 273.623 117.826 274.301C118.163 274.979 118.332 275.771 118.332 276.676C118.332 277.578 118.163 278.366 117.826 279.04C117.489 279.714 117.015 280.239 116.406 280.614C115.796 280.989 115.082 281.176 114.263 281.176ZM114.269 279.75C114.799 279.75 115.239 279.61 115.587 279.33C115.936 279.049 116.193 278.676 116.36 278.21C116.531 277.744 116.616 277.231 116.616 276.67C116.616 276.114 116.531 275.602 116.36 275.136C116.193 274.667 115.936 274.29 115.587 274.006C115.239 273.722 114.799 273.58 114.269 273.58C113.735 273.58 113.292 273.722 112.94 274.006C112.591 274.29 112.332 274.667 112.161 275.136C111.995 275.602 111.911 276.114 111.911 276.67C111.911 277.231 111.995 277.744 112.161 278.21C112.332 278.676 112.591 279.049 112.94 279.33C113.292 279.61 113.735 279.75 114.269 279.75ZM121.575 275.818V281H119.876V272.273H121.507V273.693H121.615C121.815 273.231 122.13 272.86 122.558 272.58C122.99 272.299 123.533 272.159 124.188 272.159C124.783 272.159 125.304 272.284 125.751 272.534C126.198 272.78 126.545 273.148 126.791 273.636C127.037 274.125 127.16 274.729 127.16 275.449V281H125.461V275.653C125.461 275.021 125.296 274.527 124.967 274.17C124.637 273.811 124.185 273.631 123.609 273.631C123.215 273.631 122.865 273.716 122.558 273.886C122.255 274.057 122.014 274.307 121.836 274.636C121.662 274.962 121.575 275.356 121.575 275.818ZM134.229 275.347V276.818H129.069V275.347H134.229ZM141.669 277.381V272.273H143.374V281H141.703V279.489H141.612C141.412 279.955 141.09 280.343 140.646 280.653C140.207 280.96 139.66 281.114 139.004 281.114C138.444 281.114 137.948 280.991 137.516 280.744C137.088 280.494 136.751 280.125 136.504 279.636C136.262 279.148 136.141 278.544 136.141 277.824V272.273H137.84V277.619C137.84 278.214 138.004 278.687 138.334 279.04C138.663 279.392 139.091 279.568 139.618 279.568C139.936 279.568 140.252 279.489 140.567 279.33C140.885 279.17 141.148 278.93 141.357 278.608C141.569 278.286 141.673 277.877 141.669 277.381ZM145.304 281V272.273H147.003V281H145.304ZM146.162 270.926C145.867 270.926 145.613 270.828 145.401 270.631C145.193 270.43 145.088 270.191 145.088 269.915C145.088 269.634 145.193 269.396 145.401 269.199C145.613 268.998 145.867 268.898 146.162 268.898C146.458 268.898 146.71 268.998 146.918 269.199C147.13 269.396 147.236 269.634 147.236 269.915C147.236 270.191 147.13 270.43 146.918 270.631C146.71 270.828 146.458 270.926 146.162 270.926Z" fill="#94A3B8"/>
<path d="M437.75 286C437.335 286 437 286.335 437 286.75V301.25C437 301.665 437.335 302 437.75 302H452.25C452.665 302 453 301.665 453 301.25V286.75C453 286.335 452.665 286 452.25 286H437.75ZM449.325 292.5C449.733 292.5 450.095 292.525 450.41 292.574C450.707 292.619 450.999 292.695 451.281 292.801V294.439C451.146 294.346 451.002 294.265 450.852 294.199C450.697 294.129 450.537 294.071 450.374 294.025C450.064 293.939 449.745 293.894 449.423 293.892C449.223 293.892 449.041 293.911 448.877 293.949C448.731 293.981 448.591 294.035 448.462 294.111C448.349 294.18 448.262 294.263 448.2 294.36C448.138 294.457 448.105 294.571 448.107 294.687C448.107 294.817 448.142 294.935 448.211 295.039C448.28 295.143 448.379 295.242 448.506 295.335C448.633 295.429 448.788 295.519 448.97 295.609C449.152 295.699 449.358 295.791 449.587 295.886C449.901 296.017 450.182 296.157 450.431 296.305C450.681 296.453 450.895 296.62 451.073 296.807C451.252 296.993 451.388 297.205 451.483 297.445C451.577 297.684 451.625 297.962 451.625 298.28C451.625 298.718 451.542 299.087 451.377 299.384C451.215 299.677 450.983 299.926 450.702 300.107C450.399 300.3 450.063 300.434 449.711 300.505C449.333 300.585 448.935 300.625 448.517 300.625C448.106 300.626 447.695 300.59 447.291 300.515C446.941 300.455 446.601 300.344 446.283 300.187V298.433C446.885 298.946 447.65 299.229 448.441 299.233C448.663 299.233 448.857 299.213 449.022 299.173C449.188 299.133 449.326 299.077 449.437 299.007C449.548 298.935 449.631 298.851 449.686 298.753C449.747 298.64 449.775 298.512 449.766 298.383C449.758 298.255 449.713 298.131 449.637 298.027C449.538 297.896 449.416 297.783 449.279 297.694C449.108 297.581 448.928 297.482 448.741 297.398C448.519 297.297 448.295 297.2 448.069 297.107C447.457 296.852 447.001 296.539 446.701 296.171C446.401 295.802 446.25 295.356 446.25 294.834C446.25 294.425 446.332 294.073 446.496 293.779C446.66 293.485 446.883 293.243 447.165 293.053C447.464 292.856 447.796 292.714 448.145 292.634C448.532 292.543 448.928 292.498 449.325 292.5V292.5ZM439.25 292.625H445.625V294.069H443.337V300.5H441.526V294.069H439.25V292.625Z" fill="#94A3B8"/>
<path d="M382.5 103C382.5 102.172 381.828 101.5 381 101.5C380.172 101.5 379.5 102.172 379.5 103H382.5ZM104.939 237.061C105.525 237.646 106.475 237.646 107.061 237.061L116.607 227.515C117.192 226.929 117.192 225.979 116.607 225.393C116.021 224.808 115.071 224.808 114.485 225.393L106 233.879L97.5147 225.393C96.9289 224.808 95.9792 224.808 95.3934 225.393C94.8076 225.979 94.8076 226.929 95.3934 227.515L104.939 237.061ZM379.5 103V145.5H382.5V103H379.5ZM357 168H130V171H357V168ZM104.5 193.5V236H107.5V193.5H104.5ZM130 168C115.917 168 104.5 179.417 104.5 193.5H107.5C107.5 181.074 117.574 171 130 171V168ZM379.5 145.5C379.5 157.926 369.426 168 357 168V171C371.083 171 382.5 159.583 382.5 145.5H379.5Z" fill="#94A3B8"/>
<rect x="301" y="240" width="160" height="70" rx="8" stroke="#94A3B8" stroke-width="2" stroke-miterlimit="0" stroke-linecap="round"/>
<path d="M349.202 284.273V272.273H350.861V273.688H351.003C351.102 273.506 351.244 273.295 351.429 273.057C351.615 272.818 351.873 272.61 352.202 272.432C352.532 272.25 352.967 272.159 353.509 272.159C354.214 272.159 354.842 272.337 355.395 272.693C355.948 273.049 356.382 273.562 356.696 274.233C357.015 274.903 357.174 275.71 357.174 276.653C357.174 277.597 357.017 278.405 356.702 279.08C356.388 279.75 355.956 280.267 355.407 280.631C354.857 280.991 354.231 281.17 353.526 281.17C352.996 281.17 352.562 281.081 352.225 280.903C351.892 280.725 351.63 280.517 351.441 280.278C351.251 280.04 351.106 279.828 351.003 279.642H350.901V284.273H349.202ZM350.867 276.636C350.867 277.25 350.956 277.788 351.134 278.25C351.312 278.712 351.57 279.074 351.907 279.335C352.244 279.593 352.657 279.722 353.145 279.722C353.653 279.722 354.077 279.587 354.418 279.318C354.759 279.045 355.017 278.676 355.191 278.21C355.369 277.744 355.458 277.22 355.458 276.636C355.458 276.061 355.371 275.544 355.196 275.085C355.026 274.627 354.768 274.265 354.424 274C354.083 273.735 353.657 273.602 353.145 273.602C352.653 273.602 352.236 273.729 351.895 273.983C351.558 274.237 351.303 274.591 351.128 275.045C350.954 275.5 350.867 276.03 350.867 276.636ZM358.725 281V272.273H360.367V273.659H360.458C360.617 273.189 360.898 272.82 361.299 272.551C361.704 272.278 362.163 272.142 362.674 272.142C362.78 272.142 362.905 272.146 363.049 272.153C363.197 272.161 363.312 272.17 363.396 272.182V273.807C363.327 273.788 363.206 273.767 363.032 273.744C362.858 273.718 362.684 273.705 362.509 273.705C362.108 273.705 361.75 273.79 361.435 273.96C361.125 274.127 360.879 274.36 360.697 274.659C360.515 274.955 360.424 275.292 360.424 275.67V281H358.725ZM367.877 281.176C367.059 281.176 366.345 280.989 365.735 280.614C365.126 280.239 364.652 279.714 364.315 279.04C363.978 278.366 363.809 277.578 363.809 276.676C363.809 275.771 363.978 274.979 364.315 274.301C364.652 273.623 365.126 273.097 365.735 272.722C366.345 272.347 367.059 272.159 367.877 272.159C368.696 272.159 369.41 272.347 370.019 272.722C370.629 273.097 371.103 273.623 371.44 274.301C371.777 274.979 371.946 275.771 371.946 276.676C371.946 277.578 371.777 278.366 371.44 279.04C371.103 279.714 370.629 280.239 370.019 280.614C369.41 280.989 368.696 281.176 367.877 281.176ZM367.883 279.75C368.413 279.75 368.853 279.61 369.201 279.33C369.55 279.049 369.807 278.676 369.974 278.21C370.144 277.744 370.23 277.231 370.23 276.67C370.23 276.114 370.144 275.602 369.974 275.136C369.807 274.667 369.55 274.29 369.201 274.006C368.853 273.722 368.413 273.58 367.883 273.58C367.349 273.58 366.906 273.722 366.554 274.006C366.205 274.29 365.946 274.667 365.775 275.136C365.608 275.602 365.525 276.114 365.525 276.67C365.525 277.231 365.608 277.744 365.775 278.21C365.946 278.676 366.205 279.049 366.554 279.33C366.906 279.61 367.349 279.75 367.883 279.75ZM376.757 281.17C376.052 281.17 375.424 280.991 374.871 280.631C374.321 280.267 373.89 279.75 373.575 279.08C373.265 278.405 373.109 277.597 373.109 276.653C373.109 275.71 373.266 274.903 373.581 274.233C373.899 273.562 374.335 273.049 374.888 272.693C375.441 272.337 376.068 272.159 376.768 272.159C377.31 272.159 377.746 272.25 378.075 272.432C378.408 272.61 378.666 272.818 378.848 273.057C379.033 273.295 379.177 273.506 379.28 273.688H379.382V269.364H381.081V281H379.422V279.642H379.28C379.177 279.828 379.03 280.04 378.837 280.278C378.647 280.517 378.386 280.725 378.052 280.903C377.719 281.081 377.287 281.17 376.757 281.17ZM377.132 279.722C377.621 279.722 378.033 279.593 378.371 279.335C378.712 279.074 378.969 278.712 379.143 278.25C379.321 277.788 379.41 277.25 379.41 276.636C379.41 276.03 379.323 275.5 379.149 275.045C378.975 274.591 378.719 274.237 378.382 273.983C378.045 273.729 377.628 273.602 377.132 273.602C376.621 273.602 376.194 273.735 375.854 274C375.513 274.265 375.255 274.627 375.081 275.085C374.91 275.544 374.825 276.061 374.825 276.636C374.825 277.22 374.912 277.744 375.087 278.21C375.261 278.676 375.518 279.045 375.859 279.318C376.204 279.587 376.628 279.722 377.132 279.722ZM388.682 277.381V272.273H390.386V281H388.716V279.489H388.625C388.424 279.955 388.102 280.343 387.659 280.653C387.22 280.96 386.672 281.114 386.017 281.114C385.457 281.114 384.96 280.991 384.529 280.744C384.101 280.494 383.763 280.125 383.517 279.636C383.275 279.148 383.154 278.544 383.154 277.824V272.273H384.852V277.619C384.852 278.214 385.017 278.687 385.347 279.04C385.676 279.392 386.104 279.568 386.631 279.568C386.949 279.568 387.265 279.489 387.58 279.33C387.898 279.17 388.161 278.93 388.369 278.608C388.582 278.286 388.686 277.877 388.682 277.381ZM395.993 281.176C395.149 281.176 394.421 280.985 393.811 280.602C393.205 280.216 392.74 279.684 392.414 279.006C392.088 278.328 391.925 277.551 391.925 276.676C391.925 275.79 392.092 275.008 392.425 274.33C392.758 273.648 393.228 273.116 393.834 272.733C394.44 272.35 395.154 272.159 395.976 272.159C396.639 272.159 397.23 272.282 397.749 272.528C398.268 272.771 398.686 273.112 399.005 273.551C399.327 273.991 399.518 274.504 399.579 275.091H397.925C397.834 274.682 397.626 274.33 397.3 274.034C396.978 273.739 396.546 273.591 396.005 273.591C395.531 273.591 395.116 273.716 394.76 273.966C394.408 274.212 394.133 274.564 393.936 275.023C393.74 275.477 393.641 276.015 393.641 276.636C393.641 277.273 393.738 277.822 393.931 278.284C394.124 278.746 394.397 279.104 394.749 279.358C395.105 279.612 395.524 279.739 396.005 279.739C396.327 279.739 396.618 279.68 396.88 279.562C397.145 279.441 397.366 279.269 397.544 279.045C397.726 278.822 397.853 278.553 397.925 278.239H399.579C399.518 278.803 399.334 279.307 399.027 279.75C398.721 280.193 398.31 280.542 397.794 280.795C397.283 281.049 396.683 281.176 395.993 281.176ZM405.117 272.273V273.636H400.35V272.273H405.117ZM401.629 270.182H403.327V278.438C403.327 278.767 403.377 279.015 403.475 279.182C403.574 279.345 403.7 279.456 403.856 279.517C404.015 279.574 404.187 279.602 404.373 279.602C404.509 279.602 404.629 279.593 404.731 279.574C404.833 279.555 404.913 279.54 404.969 279.528L405.276 280.932C405.178 280.97 405.038 281.008 404.856 281.045C404.674 281.087 404.447 281.11 404.174 281.114C403.727 281.121 403.31 281.042 402.924 280.875C402.538 280.708 402.225 280.451 401.986 280.102C401.748 279.754 401.629 279.316 401.629 278.79V270.182ZM413.044 274.403L411.504 274.676C411.439 274.479 411.337 274.292 411.197 274.114C411.061 273.936 410.875 273.79 410.64 273.676C410.405 273.562 410.112 273.506 409.759 273.506C409.278 273.506 408.877 273.614 408.555 273.83C408.233 274.042 408.072 274.316 408.072 274.653C408.072 274.945 408.18 275.18 408.396 275.358C408.612 275.536 408.96 275.682 409.441 275.795L410.828 276.114C411.631 276.299 412.229 276.585 412.623 276.972C413.017 277.358 413.214 277.86 413.214 278.477C413.214 279 413.063 279.466 412.759 279.875C412.46 280.28 412.042 280.598 411.504 280.83C410.97 281.061 410.35 281.176 409.646 281.176C408.669 281.176 407.871 280.968 407.254 280.551C406.636 280.131 406.258 279.534 406.117 278.761L407.759 278.511C407.862 278.939 408.072 279.263 408.39 279.483C408.708 279.699 409.123 279.807 409.634 279.807C410.191 279.807 410.636 279.691 410.97 279.46C411.303 279.225 411.47 278.939 411.47 278.602C411.47 278.33 411.367 278.1 411.163 277.915C410.962 277.729 410.653 277.589 410.237 277.494L408.759 277.17C407.945 276.985 407.343 276.689 406.953 276.284C406.566 275.879 406.373 275.366 406.373 274.744C406.373 274.229 406.517 273.778 406.805 273.392C407.093 273.006 407.491 272.705 407.998 272.489C408.506 272.269 409.087 272.159 409.742 272.159C410.686 272.159 411.428 272.364 411.97 272.773C412.511 273.178 412.869 273.722 413.044 274.403Z" fill="#94A3B8"/>
<path d="M107.5 103C107.5 102.172 106.828 101.5 106 101.5C105.172 101.5 104.5 102.172 104.5 103H107.5ZM104.939 237.061C105.525 237.646 106.475 237.646 107.061 237.061L116.607 227.515C117.192 226.929 117.192 225.979 116.607 225.393C116.021 224.808 115.071 224.808 114.485 225.393L106 233.879L97.5147 225.393C96.9289 224.808 95.9792 224.808 95.3934 225.393C94.8076 225.979 94.8076 226.929 95.3934 227.515L104.939 237.061ZM104.5 103V236H107.5V103H104.5Z" fill="#94A3B8"/>
<path d="M382.5 103C382.5 102.172 381.828 101.5 381 101.5C380.172 101.5 379.5 102.172 379.5 103H382.5ZM379.939 237.061C380.525 237.646 381.475 237.646 382.061 237.061L391.607 227.515C392.192 226.929 392.192 225.979 391.607 225.393C391.021 224.808 390.071 224.808 389.485 225.393L381 233.879L372.515 225.393C371.929 224.808 370.979 224.808 370.393 225.393C369.808 225.979 369.808 226.929 370.393 227.515L379.939 237.061ZM379.5 103V236H382.5V103H379.5Z" fill="#94A3B8"/>
<path d="M171.487 294.127C171.487 294.522 171.33 294.901 171.05 295.18C170.771 295.46 170.392 295.617 169.997 295.617C169.601 295.617 169.222 295.46 168.943 295.181C168.663 294.901 168.506 294.522 168.506 294.127C168.506 293.731 168.663 293.352 168.942 293.073C169.222 292.793 169.601 292.636 169.996 292.636C170.391 292.636 170.771 292.793 171.05 293.073C171.33 293.352 171.487 293.731 171.487 294.127V294.127ZM173.252 287C172.355 287 171.181 287.64 169.993 288.748C168.807 287.646 167.632 287.013 166.735 287.013C166.462 287.013 166.213 287.075 165.998 287.199C165.081 287.727 164.876 289.375 165.349 291.442C163.32 292.069 162 293.071 162 294.127C162 295.187 163.327 296.191 165.362 296.813C164.893 298.889 165.102 300.539 166.021 301.067C166.234 301.191 166.481 301.25 166.755 301.25C167.652 301.25 168.827 300.61 170.014 299.501C171.201 300.603 172.375 301.236 173.272 301.236C173.545 301.236 173.794 301.176 174.009 301.053C174.925 300.525 175.131 298.877 174.658 296.809C176.68 296.188 178 295.184 178 294.127C178 293.067 176.673 292.062 174.638 291.439C175.107 289.365 174.898 287.714 173.979 287.185C173.767 287.063 173.521 287.001 173.251 287H173.252ZM173.249 287.727V287.731C173.399 287.731 173.519 287.76 173.621 287.815C174.065 288.07 174.257 289.039 174.107 290.285C174.071 290.591 174.013 290.915 173.941 291.245C173.301 291.087 172.603 290.967 171.869 290.889C171.429 290.285 170.973 289.737 170.513 289.257C171.574 288.271 172.571 287.729 173.249 287.727L173.249 287.727ZM166.735 287.74C167.41 287.74 168.411 288.279 169.475 289.26C169.018 289.74 168.562 290.285 168.129 290.888C167.391 290.966 166.693 291.087 166.053 291.247C165.979 290.92 165.923 290.604 165.884 290.3C165.731 289.055 165.92 288.087 166.36 287.829C166.487 287.769 166.627 287.744 166.735 287.741V287.74ZM169.99 289.773C170.293 290.085 170.597 290.435 170.897 290.816C170.603 290.803 170.303 290.793 170 290.793C169.693 290.793 169.39 290.8 169.093 290.816C169.387 290.435 169.69 290.085 169.99 289.773V289.773ZM170 291.524C170.493 291.524 170.985 291.547 171.468 291.586C171.739 291.974 172.003 292.388 172.257 292.826C172.505 293.253 172.73 293.686 172.935 294.123C172.73 294.56 172.505 294.997 172.26 295.423C172.007 295.863 171.745 296.282 171.473 296.67C170.988 296.712 170.496 296.735 170 296.735C169.507 296.735 169.015 296.712 168.532 296.673C168.261 296.285 167.997 295.871 167.743 295.433C167.495 295.007 167.27 294.573 167.065 294.136C167.267 293.698 167.495 293.261 167.74 292.833C167.993 292.393 168.255 291.976 168.527 291.588C169.012 291.545 169.504 291.523 170 291.523V291.524ZM167.577 291.693C167.417 291.945 167.257 292.202 167.107 292.467C166.957 292.727 166.817 292.988 166.684 293.249C166.507 292.812 166.357 292.376 166.233 291.951C166.66 291.851 167.11 291.763 167.577 291.694V291.693ZM172.417 291.693C172.88 291.762 173.327 291.847 173.754 291.951C173.634 292.373 173.484 292.806 173.314 293.24C173.181 292.98 173.041 292.718 172.887 292.457C172.737 292.196 172.577 291.941 172.417 291.693H172.417ZM174.459 292.143C174.781 292.243 175.088 292.355 175.375 292.475C176.53 292.969 177.277 293.614 177.277 294.126C177.273 294.638 176.527 295.286 175.372 295.776C175.092 295.896 174.785 296.004 174.469 296.105C174.282 295.466 174.038 294.801 173.735 294.118C174.035 293.44 174.275 292.778 174.459 292.142V292.143ZM165.529 292.146C165.714 292.786 165.959 293.451 166.262 294.133C165.962 294.811 165.721 295.473 165.538 296.109C165.215 296.009 164.909 295.897 164.625 295.775C163.47 295.284 162.723 294.638 162.723 294.126C162.723 293.614 163.47 292.965 164.625 292.475C164.905 292.355 165.211 292.247 165.529 292.146V292.146ZM173.314 294.999C173.491 295.437 173.641 295.874 173.765 296.298C173.338 296.403 172.887 296.491 172.421 296.558C172.581 296.308 172.741 296.05 172.891 295.786C173.041 295.526 173.181 295.261 173.315 294.999H173.314ZM166.684 295.013C166.817 295.274 166.957 295.535 167.111 295.796C167.264 296.056 167.421 296.311 167.581 296.558C167.117 296.49 166.671 296.405 166.243 296.301C166.363 295.881 166.514 295.446 166.683 295.012L166.684 295.013ZM173.947 297.004C174.021 297.333 174.08 297.649 174.116 297.953C174.269 299.198 174.08 300.166 173.64 300.425C173.542 300.485 173.415 300.51 173.265 300.51C172.59 300.51 171.589 299.972 170.525 298.99C170.982 298.51 171.438 297.966 171.871 297.363C172.609 297.285 173.307 297.163 173.947 297.003V297.004ZM166.06 297.011C166.7 297.167 167.397 297.287 168.131 297.365C168.571 297.969 169.028 298.517 169.488 298.996C168.425 299.985 167.427 300.526 166.748 300.526C166.601 300.523 166.477 300.493 166.379 300.438C165.935 300.185 165.743 299.215 165.893 297.969C165.929 297.663 165.987 297.34 166.059 297.011H166.06ZM169.1 297.437C169.393 297.451 169.693 297.46 169.997 297.46C170.303 297.46 170.607 297.453 170.903 297.437C170.61 297.819 170.307 298.167 170.007 298.481C169.703 298.167 169.4 297.819 169.1 297.437Z" fill="#94A3B8"/>
<path d="M147.487 85.1267C147.487 85.5219 147.33 85.901 147.05 86.1805C146.771 86.46 146.392 86.6172 145.997 86.6173C145.601 86.6173 145.222 86.4603 144.943 86.1807C144.663 85.9012 144.506 85.522 144.506 85.1267C144.506 84.7314 144.663 84.3524 144.942 84.0728C145.222 83.7933 145.601 83.6362 145.996 83.636C146.391 83.636 146.771 83.7931 147.05 84.0726C147.33 84.3522 147.487 84.7313 147.487 85.1267V85.1267ZM149.252 78C148.355 78 147.181 78.64 145.993 79.748C144.807 78.646 143.632 78.0133 142.735 78.0133C142.462 78.0133 142.213 78.0753 141.998 78.1987C141.081 78.7273 140.876 80.3747 141.349 82.442C139.32 83.0687 138 84.0707 138 85.1267C138 86.1867 139.327 87.1913 141.362 87.8133C140.893 89.8887 141.102 91.5387 142.021 92.0667C142.234 92.1913 142.481 92.25 142.755 92.25C143.652 92.25 144.827 91.61 146.014 90.5007C147.201 91.6033 148.375 92.236 149.272 92.236C149.545 92.236 149.794 92.176 150.009 92.0527C150.925 91.5247 151.131 89.8773 150.658 87.8093C152.68 87.188 154 86.184 154 85.1267C154 84.0667 152.673 83.062 150.638 82.4387C151.107 80.3653 150.898 78.714 149.979 78.1853C149.767 78.0627 149.521 78.0007 149.251 78H149.252ZM149.249 78.7267V78.7307C149.399 78.7307 149.519 78.76 149.621 78.8153C150.065 79.07 150.257 80.0387 150.107 81.2847C150.071 81.5913 150.013 81.9147 149.941 82.2447C149.301 82.0873 148.603 81.9667 147.869 81.8887C147.429 81.2853 146.973 80.7373 146.513 80.2573C147.574 79.2707 148.571 78.7293 149.249 78.7273L149.249 78.7267ZM142.735 78.74C143.41 78.74 144.411 79.2787 145.475 80.26C145.018 80.74 144.562 81.2847 144.129 81.888C143.391 81.966 142.693 82.0867 142.053 82.2467C141.979 81.92 141.923 81.604 141.884 81.3C141.731 80.0547 141.92 79.0867 142.36 78.8287C142.487 78.7687 142.627 78.744 142.735 78.7407V78.74ZM145.99 80.7733C146.293 81.0853 146.597 81.4347 146.897 81.816C146.603 81.8027 146.303 81.7933 146 81.7933C145.693 81.7933 145.39 81.8 145.093 81.816C145.387 81.4347 145.69 81.0853 145.99 80.7727V80.7733ZM146 82.524C146.493 82.524 146.985 82.5467 147.468 82.586C147.739 82.974 148.003 83.388 148.257 83.826C148.505 84.2527 148.73 84.686 148.935 85.1233C148.73 85.56 148.505 85.9967 148.26 86.4233C148.007 86.8633 147.745 87.282 147.473 87.67C146.988 87.712 146.496 87.7353 146 87.7353C145.507 87.7353 145.015 87.712 144.532 87.6733C144.261 87.2853 143.997 86.8707 143.743 86.4333C143.495 86.0067 143.27 85.5733 143.065 85.136C143.267 84.698 143.495 84.2607 143.74 83.8333C143.993 83.3933 144.255 82.976 144.527 82.588C145.012 82.5453 145.504 82.5227 146 82.5227V82.524ZM143.577 82.6933C143.417 82.9447 143.257 83.202 143.107 83.4667C142.957 83.7267 142.817 83.988 142.684 84.2493C142.507 83.812 142.357 83.376 142.233 82.9513C142.66 82.8513 143.11 82.7627 143.577 82.694V82.6933ZM148.417 82.6933C148.88 82.762 149.327 82.8467 149.754 82.9513C149.634 83.3727 149.484 83.806 149.314 84.24C149.181 83.98 149.041 83.718 148.887 83.4573C148.737 83.196 148.577 82.9413 148.417 82.6933H148.417ZM150.459 83.1433C150.781 83.2433 151.088 83.3547 151.375 83.4753C152.53 83.9687 153.277 84.614 153.277 85.126C153.273 85.638 152.527 86.286 151.372 86.776C151.092 86.896 150.785 87.004 150.469 87.1047C150.282 86.466 150.038 85.8007 149.735 85.118C150.035 84.44 150.275 83.778 150.459 83.142V83.1433ZM141.529 83.146C141.714 83.786 141.959 84.4507 142.262 85.1327C141.962 85.8107 141.721 86.4727 141.538 87.1087C141.215 87.0087 140.909 86.8967 140.625 86.7753C139.47 86.284 138.723 85.638 138.723 85.126C138.723 84.614 139.47 83.9647 140.625 83.4753C140.905 83.3553 141.211 83.2473 141.529 83.146V83.146ZM149.314 85.9993C149.491 86.4373 149.641 86.874 149.765 87.298C149.338 87.4027 148.887 87.4913 148.421 87.558C148.581 87.308 148.741 87.05 148.891 86.786C149.041 86.526 149.181 86.2607 149.315 85.9993H149.314ZM142.684 86.0127C142.817 86.274 142.957 86.5347 143.111 86.796C143.264 87.056 143.421 87.3107 143.581 87.558C143.117 87.49 142.671 87.4047 142.243 87.3007C142.363 86.8807 142.514 86.446 142.683 86.012L142.684 86.0127ZM149.947 88.004C150.021 88.3327 150.08 88.6493 150.116 88.9527C150.269 90.198 150.08 91.166 149.64 91.4247C149.542 91.4847 149.415 91.51 149.265 91.51C148.59 91.51 147.589 90.972 146.525 89.99C146.982 89.51 147.438 88.966 147.871 88.3633C148.609 88.2847 149.307 88.1633 149.947 88.0033V88.004ZM142.06 88.0107C142.7 88.1667 143.397 88.2873 144.131 88.3653C144.571 88.9687 145.028 89.5167 145.488 89.996C144.425 90.9847 143.427 91.526 142.748 91.526C142.601 91.5227 142.477 91.4927 142.379 91.438C141.935 91.1847 141.743 90.2153 141.893 88.9693C141.929 88.6627 141.987 88.34 142.059 88.0107H142.06ZM145.1 88.4373C145.393 88.4507 145.693 88.46 145.997 88.46C146.303 88.46 146.607 88.4533 146.903 88.4373C146.61 88.8187 146.307 89.1673 146.007 89.4807C145.703 89.1673 145.4 88.8187 145.1 88.4373Z" fill="white"/>
<path d="M423.487 85.1267C423.487 85.5219 423.33 85.901 423.05 86.1805C422.771 86.46 422.392 86.6172 421.997 86.6173C421.601 86.6173 421.222 86.4603 420.943 86.1807C420.663 85.9012 420.506 85.522 420.506 85.1267C420.506 84.7314 420.663 84.3524 420.942 84.0728C421.222 83.7933 421.601 83.6362 421.996 83.636C422.391 83.636 422.771 83.7931 423.05 84.0726C423.33 84.3522 423.487 84.7313 423.487 85.1267V85.1267ZM425.252 78C424.355 78 423.181 78.64 421.993 79.748C420.807 78.646 419.632 78.0133 418.735 78.0133C418.462 78.0133 418.213 78.0753 417.998 78.1987C417.081 78.7273 416.876 80.3747 417.349 82.442C415.32 83.0687 414 84.0707 414 85.1267C414 86.1867 415.327 87.1913 417.362 87.8133C416.893 89.8887 417.102 91.5387 418.021 92.0667C418.234 92.1913 418.481 92.25 418.755 92.25C419.652 92.25 420.827 91.61 422.014 90.5007C423.201 91.6033 424.375 92.236 425.272 92.236C425.545 92.236 425.794 92.176 426.009 92.0527C426.925 91.5247 427.131 89.8773 426.658 87.8093C428.68 87.188 430 86.184 430 85.1267C430 84.0667 428.673 83.062 426.638 82.4387C427.107 80.3653 426.898 78.714 425.979 78.1853C425.767 78.0627 425.521 78.0007 425.251 78H425.252ZM425.249 78.7267V78.7307C425.399 78.7307 425.519 78.76 425.621 78.8153C426.065 79.07 426.257 80.0387 426.107 81.2847C426.071 81.5913 426.013 81.9147 425.941 82.2447C425.301 82.0873 424.603 81.9667 423.869 81.8887C423.429 81.2853 422.973 80.7373 422.513 80.2573C423.574 79.2707 424.571 78.7293 425.249 78.7273L425.249 78.7267ZM418.735 78.74C419.41 78.74 420.411 79.2787 421.475 80.26C421.018 80.74 420.562 81.2847 420.129 81.888C419.391 81.966 418.693 82.0867 418.053 82.2467C417.979 81.92 417.923 81.604 417.884 81.3C417.731 80.0547 417.92 79.0867 418.36 78.8287C418.487 78.7687 418.627 78.744 418.735 78.7407V78.74ZM421.99 80.7733C422.293 81.0853 422.597 81.4347 422.897 81.816C422.603 81.8027 422.303 81.7933 422 81.7933C421.693 81.7933 421.39 81.8 421.093 81.816C421.387 81.4347 421.69 81.0853 421.99 80.7727V80.7733ZM422 82.524C422.493 82.524 422.985 82.5467 423.468 82.586C423.739 82.974 424.003 83.388 424.257 83.826C424.505 84.2527 424.73 84.686 424.935 85.1233C424.73 85.56 424.505 85.9967 424.26 86.4233C424.007 86.8633 423.745 87.282 423.473 87.67C422.988 87.712 422.496 87.7353 422 87.7353C421.507 87.7353 421.015 87.712 420.532 87.6733C420.261 87.2853 419.997 86.8707 419.743 86.4333C419.495 86.0067 419.27 85.5733 419.065 85.136C419.267 84.698 419.495 84.2607 419.74 83.8333C419.993 83.3933 420.255 82.976 420.527 82.588C421.012 82.5453 421.504 82.5227 422 82.5227V82.524ZM419.577 82.6933C419.417 82.9447 419.257 83.202 419.107 83.4667C418.957 83.7267 418.817 83.988 418.684 84.2493C418.507 83.812 418.357 83.376 418.233 82.9513C418.66 82.8513 419.11 82.7627 419.577 82.694V82.6933ZM424.417 82.6933C424.88 82.762 425.327 82.8467 425.754 82.9513C425.634 83.3727 425.484 83.806 425.314 84.24C425.181 83.98 425.041 83.718 424.887 83.4573C424.737 83.196 424.577 82.9413 424.417 82.6933H424.417ZM426.459 83.1433C426.781 83.2433 427.088 83.3547 427.375 83.4753C428.53 83.9687 429.277 84.614 429.277 85.126C429.273 85.638 428.527 86.286 427.372 86.776C427.092 86.896 426.785 87.004 426.469 87.1047C426.282 86.466 426.038 85.8007 425.735 85.118C426.035 84.44 426.275 83.778 426.459 83.142V83.1433ZM417.529 83.146C417.714 83.786 417.959 84.4507 418.262 85.1327C417.962 85.8107 417.721 86.4727 417.538 87.1087C417.215 87.0087 416.909 86.8967 416.625 86.7753C415.47 86.284 414.723 85.638 414.723 85.126C414.723 84.614 415.47 83.9647 416.625 83.4753C416.905 83.3553 417.211 83.2473 417.529 83.146V83.146ZM425.314 85.9993C425.491 86.4373 425.641 86.874 425.765 87.298C425.338 87.4027 424.887 87.4913 424.421 87.558C424.581 87.308 424.741 87.05 424.891 86.786C425.041 86.526 425.181 86.2607 425.315 85.9993H425.314ZM418.684 86.0127C418.817 86.274 418.957 86.5347 419.111 86.796C419.264 87.056 419.421 87.3107 419.581 87.558C419.117 87.49 418.671 87.4047 418.243 87.3007C418.363 86.8807 418.514 86.446 418.683 86.012L418.684 86.0127ZM425.947 88.004C426.021 88.3327 426.08 88.6493 426.116 88.9527C426.269 90.198 426.08 91.166 425.64 91.4247C425.542 91.4847 425.415 91.51 425.265 91.51C424.59 91.51 423.589 90.972 422.525 89.99C422.982 89.51 423.438 88.966 423.871 88.3633C424.609 88.2847 425.307 88.1633 425.947 88.0033V88.004ZM418.06 88.0107C418.7 88.1667 419.397 88.2873 420.131 88.3653C420.571 88.9687 421.028 89.5167 421.488 89.996C420.425 90.9847 419.427 91.526 418.748 91.526C418.601 91.5227 418.477 91.4927 418.379 91.438C417.935 91.1847 417.743 90.2153 417.893 88.9693C417.929 88.6627 417.987 88.34 418.059 88.0107H418.06ZM421.1 88.4373C421.393 88.4507 421.693 88.46 421.997 88.46C422.303 88.46 422.607 88.4533 422.903 88.4373C422.61 88.8187 422.307 89.1673 422.007 89.4807C421.703 89.1673 421.4 88.8187 421.1 88.4373Z" fill="white"/>
</svg>
