<svg width="395" height="110" viewBox="0 0 395 110" fill="none" xmlns="http://www.w3.org/2000/svg">
<path d="M82.84 32V26.5H83.91V27.55H84.17L83.91 27.8C83.91 27.36 84.04 27.0167 84.3 26.77C84.56 26.5233 84.92 26.4 85.38 26.4C85.9267 26.4 86.3633 26.5767 86.69 26.93C87.0167 27.2767 87.18 27.7467 87.18 28.34V32H86.1V28.46C86.1 28.1 86.0033 27.8233 85.81 27.63C85.6167 27.4367 85.3533 27.34 85.02 27.34C84.68 27.34 84.41 27.4433 84.21 27.65C84.0167 27.85 83.92 28.1433 83.92 28.53V32H82.84ZM88.4261 32L90.3561 29.16L88.5461 26.5H89.7861L90.7561 28.02C90.8028 28.1 90.8494 28.1867 90.8961 28.28C90.9428 28.3667 90.9794 28.44 91.0061 28.5C91.0261 28.44 91.0594 28.3667 91.1061 28.28C91.1528 28.1867 91.1994 28.1 91.2461 28.02L92.2161 26.5H93.4561L91.6461 29.17L93.5661 32H92.3261L91.2561 30.35C91.2094 30.27 91.1628 30.18 91.1161 30.08C91.0694 29.98 91.0328 29.9 91.0061 29.84C90.9794 29.9 90.9394 29.98 90.8861 30.08C90.8394 30.18 90.7894 30.27 90.7361 30.35L89.6561 32H88.4261Z" fill="#94A3B8"/>
<path d="M105.178 31.4L100.798 29.27V28.14L105.178 26.01V27.02L102.188 28.45C102.055 28.51 101.928 28.5633 101.808 28.61C101.688 28.65 101.598 28.6767 101.538 28.69C101.605 28.7033 101.698 28.73 101.818 28.77C101.945 28.81 102.068 28.86 102.188 28.92L105.178 30.36V31.4ZM109.584 32C109.084 32 108.694 31.8633 108.414 31.59C108.134 31.3167 107.994 30.9367 107.994 30.45V27.48H106.474V26.5H107.994V24.95H109.074V26.5H111.224V27.48H109.074V30.45C109.074 30.83 109.258 31.02 109.624 31.02H111.124V32H109.584ZM114.43 32.1C113.857 32.1 113.404 31.9533 113.07 31.66C112.744 31.36 112.58 30.9533 112.58 30.44C112.58 29.92 112.754 29.5133 113.1 29.22C113.454 28.92 113.937 28.77 114.55 28.77H116.08V28.26C116.08 27.96 115.987 27.7267 115.8 27.56C115.614 27.3933 115.35 27.31 115.01 27.31C114.71 27.31 114.46 27.3767 114.26 27.51C114.06 27.6367 113.944 27.8067 113.91 28.02H112.85C112.91 27.5267 113.137 27.1333 113.53 26.84C113.93 26.5467 114.434 26.4 115.04 26.4C115.694 26.4 116.21 26.5667 116.59 26.9C116.97 27.2267 117.16 27.6733 117.16 28.24V32H116.11V30.99H115.93L116.11 30.79C116.11 31.19 115.957 31.51 115.65 31.75C115.344 31.9833 114.937 32.1 114.43 32.1ZM114.75 31.27C115.137 31.27 115.454 31.1733 115.7 30.98C115.954 30.78 116.08 30.5267 116.08 30.22V29.5H114.57C114.29 29.5 114.067 29.5767 113.9 29.73C113.74 29.8833 113.66 30.0933 113.66 30.36C113.66 30.64 113.757 30.8633 113.95 31.03C114.144 31.19 114.41 31.27 114.75 31.27ZM118.997 32V26.5H120.037V27.55H120.297L119.967 28.2C119.967 27.6067 120.097 27.16 120.357 26.86C120.617 26.5533 121.003 26.4 121.517 26.4C122.103 26.4 122.567 26.5833 122.907 26.95C123.253 27.31 123.427 27.8067 123.427 28.44V28.81H122.317V28.53C122.317 28.1367 122.217 27.8367 122.017 27.63C121.823 27.4167 121.55 27.31 121.197 27.31C120.843 27.31 120.567 27.4167 120.367 27.63C120.173 27.8433 120.077 28.1433 120.077 28.53V32H118.997ZM125.533 33.8V32.87H127.223C127.503 32.87 127.709 32.8033 127.843 32.67C127.983 32.5367 128.053 32.34 128.053 32.08V31.53L128.073 30.51H127.843L128.063 30.31C128.063 30.73 127.929 31.06 127.663 31.3C127.403 31.54 127.049 31.66 126.603 31.66C126.036 31.66 125.589 31.4733 125.263 31.1C124.936 30.7267 124.773 30.2233 124.773 29.59V28.47C124.773 27.8367 124.936 27.3333 125.263 26.96C125.589 26.5867 126.036 26.4 126.603 26.4C127.049 26.4 127.403 26.5233 127.663 26.77C127.929 27.01 128.063 27.34 128.063 27.76L127.843 27.55H128.063L128.053 26.5H129.123V32.1C129.123 32.6267 128.956 33.04 128.623 33.34C128.289 33.6467 127.826 33.8 127.233 33.8H125.533ZM126.953 30.73C127.293 30.73 127.559 30.6267 127.753 30.42C127.953 30.2067 128.053 29.9133 128.053 29.54V28.53C128.053 28.1567 127.953 27.8667 127.753 27.66C127.559 27.4467 127.293 27.34 126.953 27.34C126.599 27.34 126.326 27.4433 126.133 27.65C125.946 27.85 125.853 28.1433 125.853 28.53V29.54C125.853 29.92 125.946 30.2133 126.133 30.42C126.326 30.6267 126.599 30.73 126.953 30.73ZM132.969 32.1C132.522 32.1 132.129 32.0133 131.789 31.84C131.455 31.66 131.199 31.41 131.019 31.09C130.839 30.77 130.749 30.3967 130.749 29.97V28.53C130.749 28.0967 130.839 27.7233 131.019 27.41C131.199 27.09 131.455 26.8433 131.789 26.67C132.129 26.49 132.522 26.4 132.969 26.4C133.422 26.4 133.815 26.49 134.149 26.67C134.482 26.8433 134.739 27.09 134.919 27.41C135.099 27.7233 135.189 28.0967 135.189 28.53V29.51H131.789V29.97C131.789 30.3767 131.889 30.6867 132.089 30.9C132.295 31.1133 132.592 31.22 132.979 31.22C133.292 31.22 133.545 31.1667 133.739 31.06C133.932 30.9467 134.052 30.7833 134.099 30.57H135.169C135.089 31.0367 134.849 31.41 134.449 31.69C134.049 31.9633 133.555 32.1 132.969 32.1ZM134.149 28.86V28.52C134.149 28.12 134.049 27.81 133.849 27.59C133.649 27.37 133.355 27.26 132.969 27.26C132.589 27.26 132.295 27.37 132.089 27.59C131.889 27.81 131.789 28.1233 131.789 28.53V28.78L134.229 28.77L134.149 28.86ZM139.565 32C139.065 32 138.675 31.8633 138.395 31.59C138.115 31.3167 137.975 30.9367 137.975 30.45V27.48H136.455V26.5H137.975V24.95H139.055V26.5H141.205V27.48H139.055V30.45C139.055 30.83 139.238 31.02 139.605 31.02H141.105V32H139.565ZM148.797 32V26.5H149.867V27.55H150.127L149.867 27.8C149.867 27.36 149.997 27.0167 150.257 26.77C150.517 26.5233 150.877 26.4 151.337 26.4C151.884 26.4 152.32 26.5767 152.647 26.93C152.974 27.2767 153.137 27.7467 153.137 28.34V32H152.057V28.46C152.057 28.1 151.96 27.8233 151.767 27.63C151.574 27.4367 151.31 27.34 150.977 27.34C150.637 27.34 150.367 27.4433 150.167 27.65C149.974 27.85 149.877 28.1433 149.877 28.53V32H148.797ZM156.403 32.1C155.83 32.1 155.376 31.9533 155.043 31.66C154.716 31.36 154.553 30.9533 154.553 30.44C154.553 29.92 154.726 29.5133 155.073 29.22C155.426 28.92 155.91 28.77 156.523 28.77H158.053V28.26C158.053 27.96 157.96 27.7267 157.773 27.56C157.586 27.3933 157.323 27.31 156.983 27.31C156.683 27.31 156.433 27.3767 156.233 27.51C156.033 27.6367 155.916 27.8067 155.883 28.02H154.823C154.883 27.5267 155.11 27.1333 155.503 26.84C155.903 26.5467 156.406 26.4 157.013 26.4C157.666 26.4 158.183 26.5667 158.563 26.9C158.943 27.2267 159.133 27.6733 159.133 28.24V32H158.083V30.99H157.903L158.083 30.79C158.083 31.19 157.93 31.51 157.623 31.75C157.316 31.9833 156.91 32.1 156.403 32.1ZM156.723 31.27C157.11 31.27 157.426 31.1733 157.673 30.98C157.926 30.78 158.053 30.5267 158.053 30.22V29.5H156.543C156.263 29.5 156.04 29.5767 155.873 29.73C155.713 29.8833 155.633 30.0933 155.633 30.36C155.633 30.64 155.73 30.8633 155.923 31.03C156.116 31.19 156.383 31.27 156.723 31.27ZM160.539 32V26.5H161.439V27.2H161.639L161.489 27.41C161.489 27.1033 161.573 26.86 161.739 26.68C161.906 26.4933 162.129 26.4 162.409 26.4C162.709 26.4 162.939 26.5167 163.099 26.75C163.266 26.9833 163.349 27.3033 163.349 27.71L163.109 27.2H163.489L163.329 27.41C163.329 27.1033 163.413 26.86 163.579 26.68C163.753 26.4933 163.983 26.4 164.269 26.4C164.609 26.4 164.876 26.53 165.069 26.79C165.263 27.0433 165.359 27.3833 165.359 27.81V32H164.399V27.84C164.399 27.6333 164.353 27.4733 164.259 27.36C164.173 27.2467 164.046 27.19 163.879 27.19C163.713 27.19 163.583 27.2467 163.489 27.36C163.403 27.4667 163.359 27.6233 163.359 27.83V32H162.549V27.84C162.549 27.6267 162.503 27.4667 162.409 27.36C162.316 27.2467 162.183 27.19 162.009 27.19C161.843 27.19 161.716 27.2467 161.629 27.36C161.549 27.4667 161.509 27.6233 161.509 27.83V32H160.539ZM168.945 32.1C168.499 32.1 168.105 32.0133 167.765 31.84C167.432 31.66 167.175 31.41 166.995 31.09C166.815 30.77 166.725 30.3967 166.725 29.97V28.53C166.725 28.0967 166.815 27.7233 166.995 27.41C167.175 27.09 167.432 26.8433 167.765 26.67C168.105 26.49 168.499 26.4 168.945 26.4C169.399 26.4 169.792 26.49 170.125 26.67C170.459 26.8433 170.715 27.09 170.895 27.41C171.075 27.7233 171.165 28.0967 171.165 28.53V29.51H167.765V29.97C167.765 30.3767 167.865 30.6867 168.065 30.9C168.272 31.1133 168.569 31.22 168.955 31.22C169.269 31.22 169.522 31.1667 169.715 31.06C169.909 30.9467 170.029 30.7833 170.075 30.57H171.145C171.065 31.0367 170.825 31.41 170.425 31.69C170.025 31.9633 169.532 32.1 168.945 32.1ZM170.125 28.86V28.52C170.125 28.12 170.025 27.81 169.825 27.59C169.625 27.37 169.332 27.26 168.945 27.26C168.565 27.26 168.272 27.37 168.065 27.59C167.865 27.81 167.765 28.1233 167.765 28.53V28.78L170.205 28.77L170.125 28.86ZM172.751 31.4V30.38L175.741 28.95C175.875 28.89 176.001 28.84 176.121 28.8C176.241 28.76 176.331 28.7333 176.391 28.72C176.325 28.7067 176.228 28.68 176.101 28.64C175.981 28.5933 175.861 28.54 175.741 28.48L172.751 27.05V26.01L177.131 28.14V29.27L172.751 31.4Z" fill="#6366F1"/>
<path d="M189.124 31.4L184.744 29.27V28.14L189.124 26.01V27.02L186.134 28.45C186 28.51 185.874 28.5633 185.754 28.61C185.634 28.65 185.544 28.6767 185.484 28.69C185.55 28.7033 185.644 28.73 185.764 28.77C185.89 28.81 186.014 28.86 186.134 28.92L189.124 30.36V31.4ZM190.77 33.8V26.5H191.84V27.55H192.07L191.84 27.8C191.84 27.3667 191.973 27.0267 192.24 26.78C192.513 26.5267 192.876 26.4 193.33 26.4C193.883 26.4 194.323 26.5867 194.65 26.96C194.983 27.3267 195.15 27.83 195.15 28.47V30.02C195.15 30.4467 195.073 30.8167 194.92 31.13C194.773 31.4367 194.563 31.6767 194.29 31.85C194.023 32.0167 193.703 32.1 193.33 32.1C192.883 32.1 192.523 31.9767 192.25 31.73C191.976 31.4767 191.84 31.1333 191.84 30.7L192.07 30.95H191.82L191.85 32.23V33.8H190.77ZM192.96 31.16C193.313 31.16 193.586 31.06 193.78 30.86C193.98 30.6533 194.08 30.3567 194.08 29.97V28.53C194.08 28.1433 193.98 27.85 193.78 27.65C193.586 27.4433 193.313 27.34 192.96 27.34C192.62 27.34 192.35 27.4467 192.15 27.66C191.95 27.8667 191.85 28.1567 191.85 28.53V29.97C191.85 30.3433 191.95 30.6367 192.15 30.85C192.35 31.0567 192.62 31.16 192.96 31.16ZM196.946 32V26.5H197.986V27.55H198.246L197.916 28.2C197.916 27.6067 198.046 27.16 198.306 26.86C198.566 26.5533 198.952 26.4 199.466 26.4C200.052 26.4 200.516 26.5833 200.856 26.95C201.202 27.31 201.376 27.8067 201.376 28.44V28.81H200.266V28.53C200.266 28.1367 200.166 27.8367 199.966 27.63C199.772 27.4167 199.499 27.31 199.146 27.31C198.792 27.31 198.516 27.4167 198.316 27.63C198.122 27.8433 198.026 28.1433 198.026 28.53V32H196.946ZM204.922 32.09C204.469 32.09 204.075 32.0033 203.742 31.83C203.409 31.6567 203.152 31.41 202.972 31.09C202.792 30.77 202.702 30.3933 202.702 29.96V28.54C202.702 28.1 202.792 27.7233 202.972 27.41C203.152 27.09 203.409 26.8433 203.742 26.67C204.075 26.4967 204.469 26.41 204.922 26.41C205.375 26.41 205.769 26.4967 206.102 26.67C206.435 26.8433 206.692 27.09 206.872 27.41C207.052 27.7233 207.142 28.1 207.142 28.54V29.96C207.142 30.3933 207.052 30.77 206.872 31.09C206.692 31.41 206.435 31.6567 206.102 31.83C205.769 32.0033 205.375 32.09 204.922 32.09ZM204.922 31.14C205.289 31.14 205.572 31.04 205.772 30.84C205.972 30.6333 206.072 30.34 206.072 29.96V28.54C206.072 28.1533 205.972 27.86 205.772 27.66C205.572 27.46 205.289 27.36 204.922 27.36C204.562 27.36 204.279 27.46 204.072 27.66C203.872 27.86 203.772 28.1533 203.772 28.54V29.96C203.772 30.34 203.872 30.6333 204.072 30.84C204.279 31.04 204.562 31.14 204.922 31.14ZM208.758 33.8V32.8H210.138C210.505 32.8 210.791 32.7 210.998 32.5C211.205 32.3 211.308 32.0167 211.308 31.65V27.49H209.058V26.5H212.388V31.66C212.388 32.32 212.188 32.84 211.788 33.22C211.388 33.6067 210.848 33.8 210.168 33.8H208.758ZM211.798 25.55C211.565 25.55 211.378 25.49 211.238 25.37C211.098 25.2433 211.028 25.0767 211.028 24.87C211.028 24.6567 211.098 24.49 211.238 24.37C211.378 24.2433 211.565 24.18 211.798 24.18C212.031 24.18 212.218 24.2433 212.358 24.37C212.498 24.49 212.568 24.6567 212.568 24.87C212.568 25.0767 212.498 25.2433 212.358 25.37C212.218 25.49 212.031 25.55 211.798 25.55ZM216.914 32.1C216.467 32.1 216.074 32.0133 215.734 31.84C215.401 31.66 215.144 31.41 214.964 31.09C214.784 30.77 214.694 30.3967 214.694 29.97V28.53C214.694 28.0967 214.784 27.7233 214.964 27.41C215.144 27.09 215.401 26.8433 215.734 26.67C216.074 26.49 216.467 26.4 216.914 26.4C217.367 26.4 217.761 26.49 218.094 26.67C218.427 26.8433 218.684 27.09 218.864 27.41C219.044 27.7233 219.134 28.0967 219.134 28.53V29.51H215.734V29.97C215.734 30.3767 215.834 30.6867 216.034 30.9C216.241 31.1133 216.537 31.22 216.924 31.22C217.237 31.22 217.491 31.1667 217.684 31.06C217.877 30.9467 217.997 30.7833 218.044 30.57H219.114C219.034 31.0367 218.794 31.41 218.394 31.69C217.994 31.9633 217.501 32.1 216.914 32.1ZM218.094 28.86V28.52C218.094 28.12 217.994 27.81 217.794 27.59C217.594 27.37 217.301 27.26 216.914 27.26C216.534 27.26 216.241 27.37 216.034 27.59C215.834 27.81 215.734 28.1233 215.734 28.53V28.78L218.174 28.77L218.094 28.86ZM222.95 32.1C222.497 32.1 222.097 32.0167 221.75 31.85C221.41 31.6767 221.147 31.43 220.96 31.11C220.78 30.7833 220.69 30.4033 220.69 29.97V28.53C220.69 28.09 220.78 27.71 220.96 27.39C221.147 27.07 221.41 26.8267 221.75 26.66C222.097 26.4867 222.497 26.4 222.95 26.4C223.61 26.4 224.14 26.5733 224.54 26.92C224.94 27.2667 225.15 27.74 225.17 28.34H224.09C224.07 28.0267 223.96 27.7833 223.76 27.61C223.56 27.4367 223.29 27.35 222.95 27.35C222.583 27.35 222.293 27.4533 222.08 27.66C221.867 27.86 221.76 28.1467 221.76 28.52V29.97C221.76 30.3433 221.867 30.6333 222.08 30.84C222.293 31.0467 222.583 31.15 222.95 31.15C223.29 31.15 223.56 31.0633 223.76 30.89C223.96 30.7167 224.07 30.4733 224.09 30.16H225.17C225.15 30.76 224.94 31.2333 224.54 31.58C224.14 31.9267 223.61 32.1 222.95 32.1ZM229.506 32C229.006 32 228.616 31.8633 228.336 31.59C228.056 31.3167 227.916 30.9367 227.916 30.45V27.48H226.396V26.5H227.916V24.95H228.996V26.5H231.146V27.48H228.996V30.45C228.996 30.83 229.18 31.02 229.546 31.02H231.046V32H229.506ZM238.738 32V26.5H239.808V27.55H240.068L239.808 27.8C239.808 27.36 239.938 27.0167 240.198 26.77C240.458 26.5233 240.818 26.4 241.278 26.4C241.825 26.4 242.262 26.5767 242.588 26.93C242.915 27.2767 243.078 27.7467 243.078 28.34V32H241.998V28.46C241.998 28.1 241.902 27.8233 241.708 27.63C241.515 27.4367 241.252 27.34 240.918 27.34C240.578 27.34 240.308 27.4433 240.108 27.65C239.915 27.85 239.818 28.1433 239.818 28.53V32H238.738ZM246.345 32.1C245.771 32.1 245.318 31.9533 244.985 31.66C244.658 31.36 244.495 30.9533 244.495 30.44C244.495 29.92 244.668 29.5133 245.015 29.22C245.368 28.92 245.851 28.77 246.465 28.77H247.995V28.26C247.995 27.96 247.901 27.7267 247.715 27.56C247.528 27.3933 247.265 27.31 246.925 27.31C246.625 27.31 246.375 27.3767 246.175 27.51C245.975 27.6367 245.858 27.8067 245.825 28.02H244.765C244.825 27.5267 245.051 27.1333 245.445 26.84C245.845 26.5467 246.348 26.4 246.955 26.4C247.608 26.4 248.125 26.5667 248.505 26.9C248.885 27.2267 249.075 27.6733 249.075 28.24V32H248.025V30.99H247.845L248.025 30.79C248.025 31.19 247.871 31.51 247.565 31.75C247.258 31.9833 246.851 32.1 246.345 32.1ZM246.665 31.27C247.051 31.27 247.368 31.1733 247.615 30.98C247.868 30.78 247.995 30.5267 247.995 30.22V29.5H246.485C246.205 29.5 245.981 29.5767 245.815 29.73C245.655 29.8833 245.575 30.0933 245.575 30.36C245.575 30.64 245.671 30.8633 245.865 31.03C246.058 31.19 246.325 31.27 246.665 31.27ZM250.481 32V26.5H251.381V27.2H251.581L251.431 27.41C251.431 27.1033 251.514 26.86 251.681 26.68C251.847 26.4933 252.071 26.4 252.351 26.4C252.651 26.4 252.881 26.5167 253.041 26.75C253.207 26.9833 253.291 27.3033 253.291 27.71L253.051 27.2H253.431L253.271 27.41C253.271 27.1033 253.354 26.86 253.521 26.68C253.694 26.4933 253.924 26.4 254.211 26.4C254.551 26.4 254.817 26.53 255.011 26.79C255.204 27.0433 255.301 27.3833 255.301 27.81V32H254.341V27.84C254.341 27.6333 254.294 27.4733 254.201 27.36C254.114 27.2467 253.987 27.19 253.821 27.19C253.654 27.19 253.524 27.2467 253.431 27.36C253.344 27.4667 253.301 27.6233 253.301 27.83V32H252.491V27.84C252.491 27.6267 252.444 27.4667 252.351 27.36C252.257 27.2467 252.124 27.19 251.951 27.19C251.784 27.19 251.657 27.2467 251.571 27.36C251.491 27.4667 251.451 27.6233 251.451 27.83V32H250.481ZM258.887 32.1C258.44 32.1 258.047 32.0133 257.707 31.84C257.373 31.66 257.117 31.41 256.937 31.09C256.757 30.77 256.667 30.3967 256.667 29.97V28.53C256.667 28.0967 256.757 27.7233 256.937 27.41C257.117 27.09 257.373 26.8433 257.707 26.67C258.047 26.49 258.44 26.4 258.887 26.4C259.34 26.4 259.733 26.49 260.067 26.67C260.4 26.8433 260.657 27.09 260.837 27.41C261.017 27.7233 261.107 28.0967 261.107 28.53V29.51H257.707V29.97C257.707 30.3767 257.807 30.6867 258.007 30.9C258.213 31.1133 258.51 31.22 258.897 31.22C259.21 31.22 259.463 31.1667 259.657 31.06C259.85 30.9467 259.97 30.7833 260.017 30.57H261.087C261.007 31.0367 260.767 31.41 260.367 31.69C259.967 31.9633 259.473 32.1 258.887 32.1ZM260.067 28.86V28.52C260.067 28.12 259.967 27.81 259.767 27.59C259.567 27.37 259.273 27.26 258.887 27.26C258.507 27.26 258.213 27.37 258.007 27.59C257.807 27.81 257.707 28.1233 257.707 28.53V28.78L260.147 28.77L260.067 28.86ZM262.693 31.4V30.38L265.683 28.95C265.816 28.89 265.943 28.84 266.063 28.8C266.183 28.76 266.273 28.7333 266.333 28.72C266.266 28.7067 266.169 28.68 266.043 28.64C265.923 28.5933 265.803 28.54 265.683 28.48L262.693 27.05V26.01L267.073 28.14V29.27L262.693 31.4Z" fill="#F43F5E"/>
<path d="M279.065 31.4L274.685 29.27V28.14L279.065 26.01V27.02L276.075 28.45C275.942 28.51 275.815 28.5633 275.695 28.61C275.575 28.65 275.485 28.6767 275.425 28.69C275.492 28.7033 275.585 28.73 275.705 28.77C275.832 28.81 275.955 28.86 276.075 28.92L279.065 30.36V31.4ZM282.871 32.09C282.418 32.09 282.024 32.0033 281.691 31.83C281.358 31.6567 281.101 31.41 280.921 31.09C280.741 30.77 280.651 30.3933 280.651 29.96V28.54C280.651 28.1 280.741 27.7233 280.921 27.41C281.101 27.09 281.358 26.8433 281.691 26.67C282.024 26.4967 282.418 26.41 282.871 26.41C283.324 26.41 283.718 26.4967 284.051 26.67C284.384 26.8433 284.641 27.09 284.821 27.41C285.001 27.7233 285.091 28.1 285.091 28.54V29.96C285.091 30.3933 285.001 30.77 284.821 31.09C284.641 31.41 284.384 31.6567 284.051 31.83C283.718 32.0033 283.324 32.09 282.871 32.09ZM282.871 31.14C283.238 31.14 283.521 31.04 283.721 30.84C283.921 30.6333 284.021 30.34 284.021 29.96V28.54C284.021 28.1533 283.921 27.86 283.721 27.66C283.521 27.46 283.238 27.36 282.871 27.36C282.511 27.36 282.228 27.46 282.021 27.66C281.821 27.86 281.721 28.1533 281.721 28.54V29.96C281.721 30.34 281.821 30.6333 282.021 30.84C282.228 31.04 282.511 31.14 282.871 31.14ZM286.707 33.8V26.5H287.777V27.55H288.007L287.777 27.8C287.777 27.3667 287.911 27.0267 288.177 26.78C288.451 26.5267 288.814 26.4 289.267 26.4C289.821 26.4 290.261 26.5867 290.587 26.96C290.921 27.3267 291.087 27.83 291.087 28.47V30.02C291.087 30.4467 291.011 30.8167 290.857 31.13C290.711 31.4367 290.501 31.6767 290.227 31.85C289.961 32.0167 289.641 32.1 289.267 32.1C288.821 32.1 288.461 31.9767 288.187 31.73C287.914 31.4767 287.777 31.1333 287.777 30.7L288.007 30.95H287.757L287.787 32.23V33.8H286.707ZM288.897 31.16C289.251 31.16 289.524 31.06 289.717 30.86C289.917 30.6533 290.017 30.3567 290.017 29.97V28.53C290.017 28.1433 289.917 27.85 289.717 27.65C289.524 27.4433 289.251 27.34 288.897 27.34C288.557 27.34 288.287 27.4467 288.087 27.66C287.887 27.8667 287.787 28.1567 287.787 28.53V29.97C287.787 30.3433 287.887 30.6367 288.087 30.85C288.287 31.0567 288.557 31.16 288.897 31.16ZM295.463 32C294.963 32 294.573 31.8633 294.293 31.59C294.013 31.3167 293.873 30.9367 293.873 30.45V27.48H292.353V26.5H293.873V24.95H294.953V26.5H297.103V27.48H294.953V30.45C294.953 30.83 295.137 31.02 295.503 31.02H297.003V32H295.463ZM298.669 32V31.02H300.599V27.48H298.919V26.5H301.649V31.02H303.419V32H298.669ZM301.019 25.55C300.786 25.55 300.599 25.49 300.459 25.37C300.319 25.2433 300.249 25.0767 300.249 24.87C300.249 24.6567 300.319 24.49 300.459 24.37C300.599 24.2433 300.786 24.18 301.019 24.18C301.253 24.18 301.439 24.2433 301.579 24.37C301.719 24.49 301.789 24.6567 301.789 24.87C301.789 25.0767 301.719 25.2433 301.579 25.37C301.439 25.49 301.253 25.55 301.019 25.55ZM306.855 32.09C306.402 32.09 306.009 32.0033 305.675 31.83C305.342 31.6567 305.085 31.41 304.905 31.09C304.725 30.77 304.635 30.3933 304.635 29.96V28.54C304.635 28.1 304.725 27.7233 304.905 27.41C305.085 27.09 305.342 26.8433 305.675 26.67C306.009 26.4967 306.402 26.41 306.855 26.41C307.309 26.41 307.702 26.4967 308.035 26.67C308.369 26.8433 308.625 27.09 308.805 27.41C308.985 27.7233 309.075 28.1 309.075 28.54V29.96C309.075 30.3933 308.985 30.77 308.805 31.09C308.625 31.41 308.369 31.6567 308.035 31.83C307.702 32.0033 307.309 32.09 306.855 32.09ZM306.855 31.14C307.222 31.14 307.505 31.04 307.705 30.84C307.905 30.6333 308.005 30.34 308.005 29.96V28.54C308.005 28.1533 307.905 27.86 307.705 27.66C307.505 27.46 307.222 27.36 306.855 27.36C306.495 27.36 306.212 27.46 306.005 27.66C305.805 27.86 305.705 28.1533 305.705 28.54V29.96C305.705 30.34 305.805 30.6333 306.005 30.84C306.212 31.04 306.495 31.14 306.855 31.14ZM310.692 32V26.5H311.762V27.55H312.022L311.762 27.8C311.762 27.36 311.892 27.0167 312.152 26.77C312.412 26.5233 312.772 26.4 313.232 26.4C313.778 26.4 314.215 26.5767 314.542 26.93C314.868 27.2767 315.032 27.7467 315.032 28.34V32H313.952V28.46C313.952 28.1 313.855 27.8233 313.662 27.63C313.468 27.4367 313.205 27.34 312.872 27.34C312.532 27.34 312.262 27.4433 312.062 27.65C311.868 27.85 311.772 28.1433 311.772 28.53V32H310.692ZM324.844 32.09C324.39 32.09 323.997 32.0033 323.664 31.83C323.33 31.6567 323.074 31.41 322.894 31.09C322.714 30.77 322.624 30.3933 322.624 29.96V28.54C322.624 28.1 322.714 27.7233 322.894 27.41C323.074 27.09 323.33 26.8433 323.664 26.67C323.997 26.4967 324.39 26.41 324.844 26.41C325.297 26.41 325.69 26.4967 326.024 26.67C326.357 26.8433 326.614 27.09 326.794 27.41C326.974 27.7233 327.064 28.1 327.064 28.54V29.96C327.064 30.3933 326.974 30.77 326.794 31.09C326.614 31.41 326.357 31.6567 326.024 31.83C325.69 32.0033 325.297 32.09 324.844 32.09ZM324.844 31.14C325.21 31.14 325.494 31.04 325.694 30.84C325.894 30.6333 325.994 30.34 325.994 29.96V28.54C325.994 28.1533 325.894 27.86 325.694 27.66C325.494 27.46 325.21 27.36 324.844 27.36C324.484 27.36 324.2 27.46 323.994 27.66C323.794 27.86 323.694 28.1533 323.694 28.54V29.96C323.694 30.34 323.794 30.6333 323.994 30.84C324.2 31.04 324.484 31.14 324.844 31.14ZM330.13 32L328.31 26.5H329.41L330.54 30.02C330.613 30.2267 330.677 30.4367 330.73 30.65C330.79 30.8567 330.833 31.02 330.86 31.14C330.893 31.02 330.937 30.8567 330.99 30.65C331.05 30.4367 331.11 30.2267 331.17 30.02L332.28 26.5H333.37L331.55 32H330.13ZM336.836 32.1C336.389 32.1 335.996 32.0133 335.656 31.84C335.323 31.66 335.066 31.41 334.886 31.09C334.706 30.77 334.616 30.3967 334.616 29.97V28.53C334.616 28.0967 334.706 27.7233 334.886 27.41C335.066 27.09 335.323 26.8433 335.656 26.67C335.996 26.49 336.389 26.4 336.836 26.4C337.289 26.4 337.683 26.49 338.016 26.67C338.349 26.8433 338.606 27.09 338.786 27.41C338.966 27.7233 339.056 28.0967 339.056 28.53V29.51H335.656V29.97C335.656 30.3767 335.756 30.6867 335.956 30.9C336.163 31.1133 336.459 31.22 336.846 31.22C337.159 31.22 337.413 31.1667 337.606 31.06C337.799 30.9467 337.919 30.7833 337.966 30.57H339.036C338.956 31.0367 338.716 31.41 338.316 31.69C337.916 31.9633 337.423 32.1 336.836 32.1ZM338.016 28.86V28.52C338.016 28.12 337.916 27.81 337.716 27.59C337.516 27.37 337.223 27.26 336.836 27.26C336.456 27.26 336.163 27.37 335.956 27.59C335.756 27.81 335.656 28.1233 335.656 28.53V28.78L338.096 28.77L338.016 28.86ZM340.852 32V26.5H341.892V27.55H342.152L341.822 28.2C341.822 27.6067 341.952 27.16 342.212 26.86C342.472 26.5533 342.859 26.4 343.372 26.4C343.959 26.4 344.422 26.5833 344.762 26.95C345.109 27.31 345.282 27.8067 345.282 28.44V28.81H344.172V28.53C344.172 28.1367 344.072 27.8367 343.872 27.63C343.679 27.4167 343.405 27.31 343.052 27.31C342.699 27.31 342.422 27.4167 342.222 27.63C342.029 27.8433 341.932 28.1433 341.932 28.53V32H340.852ZM346.848 32V26.5H347.888V27.55H348.148L347.818 28.2C347.818 27.6067 347.948 27.16 348.208 26.86C348.468 26.5533 348.855 26.4 349.368 26.4C349.955 26.4 350.418 26.5833 350.758 26.95C351.105 27.31 351.278 27.8067 351.278 28.44V28.81H350.168V28.53C350.168 28.1367 350.068 27.8367 349.868 27.63C349.675 27.4167 349.401 27.31 349.048 27.31C348.695 27.31 348.418 27.4167 348.218 27.63C348.025 27.8433 347.928 28.1433 347.928 28.53V32H346.848ZM352.634 32V31.02H354.564V27.48H352.884V26.5H355.614V31.02H357.384V32H352.634ZM354.984 25.55C354.751 25.55 354.564 25.49 354.424 25.37C354.284 25.2433 354.214 25.0767 354.214 24.87C354.214 24.6567 354.284 24.49 354.424 24.37C354.564 24.2433 354.751 24.18 354.984 24.18C355.218 24.18 355.404 24.2433 355.544 24.37C355.684 24.49 355.754 24.6567 355.754 24.87C355.754 25.0767 355.684 25.2433 355.544 25.37C355.404 25.49 355.218 25.55 354.984 25.55ZM360.43 32.1C359.877 32.1 359.434 31.9133 359.1 31.54C358.767 31.1667 358.6 30.6633 358.6 30.03V28.48C358.6 27.84 358.767 27.3333 359.1 26.96C359.434 26.5867 359.877 26.4 360.43 26.4C360.884 26.4 361.244 26.5267 361.51 26.78C361.777 27.0267 361.91 27.3667 361.91 27.8L361.68 27.55H361.93L361.9 26.27V24.7H362.98V32H361.91V30.95H361.68L361.91 30.7C361.91 31.1333 361.777 31.4767 361.51 31.73C361.244 31.9767 360.884 32.1 360.43 32.1ZM360.8 31.16C361.14 31.16 361.407 31.0567 361.6 30.85C361.8 30.6367 361.9 30.3433 361.9 29.97V28.53C361.9 28.1567 361.8 27.8667 361.6 27.66C361.407 27.4467 361.14 27.34 360.8 27.34C360.447 27.34 360.17 27.4433 359.97 27.65C359.77 27.85 359.67 28.1433 359.67 28.53V29.97C359.67 30.3567 359.77 30.6533 359.97 30.86C360.17 31.06 360.447 31.16 360.8 31.16ZM366.816 32.1C366.37 32.1 365.976 32.0133 365.636 31.84C365.303 31.66 365.046 31.41 364.866 31.09C364.686 30.77 364.596 30.3967 364.596 29.97V28.53C364.596 28.0967 364.686 27.7233 364.866 27.41C365.046 27.09 365.303 26.8433 365.636 26.67C365.976 26.49 366.37 26.4 366.816 26.4C367.27 26.4 367.663 26.49 367.996 26.67C368.33 26.8433 368.586 27.09 368.766 27.41C368.946 27.7233 369.036 28.0967 369.036 28.53V29.51H365.636V29.97C365.636 30.3767 365.736 30.6867 365.936 30.9C366.143 31.1133 366.44 31.22 366.826 31.22C367.14 31.22 367.393 31.1667 367.586 31.06C367.78 30.9467 367.9 30.7833 367.946 30.57H369.016C368.936 31.0367 368.696 31.41 368.296 31.69C367.896 31.9633 367.403 32.1 366.816 32.1ZM367.996 28.86V28.52C367.996 28.12 367.896 27.81 367.696 27.59C367.496 27.37 367.203 27.26 366.816 27.26C366.436 27.26 366.143 27.37 365.936 27.59C365.736 27.81 365.636 28.1233 365.636 28.53V28.78L368.076 28.77L367.996 28.86ZM372.623 32.09C372.229 32.09 371.883 32.0267 371.583 31.9C371.289 31.7733 371.056 31.6 370.883 31.38C370.716 31.1533 370.619 30.8867 370.593 30.58H371.673C371.699 30.76 371.796 30.9067 371.963 31.02C372.129 31.1267 372.349 31.18 372.623 31.18H373.053C373.379 31.18 373.626 31.1133 373.793 30.98C373.959 30.8467 374.043 30.67 374.043 30.45C374.043 30.2367 373.966 30.07 373.813 29.95C373.666 29.8233 373.446 29.74 373.153 29.7L372.443 29.59C371.856 29.4967 371.423 29.33 371.143 29.09C370.869 28.8433 370.733 28.48 370.733 28C370.733 27.4933 370.896 27.1033 371.223 26.83C371.556 26.55 372.046 26.41 372.693 26.41H373.073C373.646 26.41 374.103 26.5433 374.443 26.81C374.789 27.07 374.986 27.42 375.033 27.86H373.953C373.926 27.7 373.836 27.57 373.683 27.47C373.536 27.37 373.333 27.32 373.073 27.32H372.693C372.379 27.32 372.149 27.38 372.003 27.5C371.863 27.6133 371.793 27.7833 371.793 28.01C371.793 28.21 371.856 28.36 371.983 28.46C372.109 28.56 372.306 28.63 372.573 28.67L373.303 28.79C373.923 28.8767 374.376 29.05 374.663 29.31C374.956 29.5633 375.103 29.9333 375.103 30.42C375.103 30.9467 374.929 31.3567 374.583 31.65C374.243 31.9433 373.733 32.09 373.053 32.09H372.623ZM376.619 31.4V30.38L379.609 28.95C379.742 28.89 379.869 28.84 379.989 28.8C380.109 28.76 380.199 28.7333 380.259 28.72C380.192 28.7067 380.095 28.68 379.969 28.64C379.849 28.5933 379.729 28.54 379.609 28.48L376.619 27.05V26.01L380.999 28.14V29.27L376.619 31.4Z" fill="#47BC99"/>
<path d="M82.84 89V83.5H83.91V84.55H84.17L83.91 84.8C83.91 84.36 84.04 84.0167 84.3 83.77C84.56 83.5233 84.92 83.4 85.38 83.4C85.9267 83.4 86.3633 83.5767 86.69 83.93C87.0167 84.2767 87.18 84.7467 87.18 85.34V89H86.1V85.46C86.1 85.1 86.0033 84.8233 85.81 84.63C85.6167 84.4367 85.3533 84.34 85.02 84.34C84.68 84.34 84.41 84.4433 84.21 84.65C84.0167 84.85 83.92 85.1433 83.92 85.53V89H82.84ZM88.4261 89L90.3561 86.16L88.5461 83.5H89.7861L90.7561 85.02C90.8028 85.1 90.8494 85.1867 90.8961 85.28C90.9428 85.3667 90.9794 85.44 91.0061 85.5C91.0261 85.44 91.0594 85.3667 91.1061 85.28C91.1528 85.1867 91.1994 85.1 91.2461 85.02L92.2161 83.5H93.4561L91.6461 86.17L93.5661 89H92.3261L91.2561 87.35C91.2094 87.27 91.1628 87.18 91.1161 87.08C91.0694 86.98 91.0328 86.9 91.0061 86.84C90.9794 86.9 90.9394 86.98 90.8861 87.08C90.8394 87.18 90.7894 87.27 90.7361 87.35L89.6561 89H88.4261Z" fill="#94A3B8"/>
<path d="M103.588 89C103.088 89 102.698 88.8633 102.418 88.59C102.138 88.3167 101.998 87.9367 101.998 87.45V84.48H100.478V83.5H101.998V81.95H103.078V83.5H105.228V84.48H103.078V87.45C103.078 87.83 103.262 88.02 103.628 88.02H105.128V89H103.588ZM108.984 89.1C108.538 89.1 108.144 89.0133 107.804 88.84C107.471 88.66 107.214 88.41 107.034 88.09C106.854 87.77 106.764 87.3967 106.764 86.97V85.53C106.764 85.0967 106.854 84.7233 107.034 84.41C107.214 84.09 107.471 83.8433 107.804 83.67C108.144 83.49 108.538 83.4 108.984 83.4C109.438 83.4 109.831 83.49 110.164 83.67C110.498 83.8433 110.754 84.09 110.934 84.41C111.114 84.7233 111.204 85.0967 111.204 85.53V86.51H107.804V86.97C107.804 87.3767 107.904 87.6867 108.104 87.9C108.311 88.1133 108.608 88.22 108.994 88.22C109.308 88.22 109.561 88.1667 109.754 88.06C109.948 87.9467 110.068 87.7833 110.114 87.57H111.184C111.104 88.0367 110.864 88.41 110.464 88.69C110.064 88.9633 109.571 89.1 108.984 89.1ZM110.164 85.86V85.52C110.164 85.12 110.064 84.81 109.864 84.59C109.664 84.37 109.371 84.26 108.984 84.26C108.604 84.26 108.311 84.37 108.104 84.59C107.904 84.81 107.804 85.1233 107.804 85.53V85.78L110.244 85.77L110.164 85.86ZM114.79 89.09C114.397 89.09 114.05 89.0267 113.75 88.9C113.457 88.7733 113.224 88.6 113.05 88.38C112.884 88.1533 112.787 87.8867 112.76 87.58H113.84C113.867 87.76 113.964 87.9067 114.13 88.02C114.297 88.1267 114.517 88.18 114.79 88.18H115.22C115.547 88.18 115.794 88.1133 115.96 87.98C116.127 87.8467 116.21 87.67 116.21 87.45C116.21 87.2367 116.134 87.07 115.98 86.95C115.834 86.8233 115.614 86.74 115.32 86.7L114.61 86.59C114.024 86.4967 113.59 86.33 113.31 86.09C113.037 85.8433 112.9 85.48 112.9 85C112.9 84.4933 113.064 84.1033 113.39 83.83C113.724 83.55 114.214 83.41 114.86 83.41H115.24C115.814 83.41 116.27 83.5433 116.61 83.81C116.957 84.07 117.154 84.42 117.2 84.86H116.12C116.094 84.7 116.004 84.57 115.85 84.47C115.704 84.37 115.5 84.32 115.24 84.32H114.86C114.547 84.32 114.317 84.38 114.17 84.5C114.03 84.6133 113.96 84.7833 113.96 85.01C113.96 85.21 114.024 85.36 114.15 85.46C114.277 85.56 114.474 85.63 114.74 85.67L115.47 85.79C116.09 85.8767 116.544 86.05 116.83 86.31C117.124 86.5633 117.27 86.9333 117.27 87.42C117.27 87.9467 117.097 88.3567 116.75 88.65C116.41 88.9433 115.9 89.09 115.22 89.09H114.79ZM121.577 89C121.077 89 120.687 88.8633 120.407 88.59C120.127 88.3167 119.987 87.9367 119.987 87.45V84.48H118.467V83.5H119.987V81.95H121.067V83.5H123.217V84.48H121.067V87.45C121.067 87.83 121.25 88.02 121.617 88.02H123.117V89H121.577Z" fill="#6366F1"/>
<path d="M130.809 90.8V83.5H131.879V84.55H132.109L131.879 84.8C131.879 84.3667 132.012 84.0267 132.279 83.78C132.552 83.5267 132.915 83.4 133.369 83.4C133.922 83.4 134.362 83.5867 134.689 83.96C135.022 84.3267 135.189 84.83 135.189 85.47V87.02C135.189 87.4467 135.112 87.8167 134.959 88.13C134.812 88.4367 134.602 88.6767 134.329 88.85C134.062 89.0167 133.742 89.1 133.369 89.1C132.922 89.1 132.562 88.9767 132.289 88.73C132.015 88.4767 131.879 88.1333 131.879 87.7L132.109 87.95H131.859L131.889 89.23V90.8H130.809ZM132.999 88.16C133.352 88.16 133.625 88.06 133.819 87.86C134.019 87.6533 134.119 87.3567 134.119 86.97V85.53C134.119 85.1433 134.019 84.85 133.819 84.65C133.625 84.4433 133.352 84.34 132.999 84.34C132.659 84.34 132.389 84.4467 132.189 84.66C131.989 84.8667 131.889 85.1567 131.889 85.53V86.97C131.889 87.3433 131.989 87.6367 132.189 87.85C132.389 88.0567 132.659 88.16 132.999 88.16ZM136.985 89V83.5H138.025V84.55H138.285L137.955 85.2C137.955 84.6067 138.085 84.16 138.345 83.86C138.605 83.5533 138.992 83.4 139.505 83.4C140.092 83.4 140.555 83.5833 140.895 83.95C141.242 84.31 141.415 84.8067 141.415 85.44V85.81H140.305V85.53C140.305 85.1367 140.205 84.8367 140.005 84.63C139.812 84.4167 139.538 84.31 139.185 84.31C138.832 84.31 138.555 84.4167 138.355 84.63C138.162 84.8433 138.065 85.1433 138.065 85.53V89H136.985ZM144.961 89.09C144.508 89.09 144.114 89.0033 143.781 88.83C143.448 88.6567 143.191 88.41 143.011 88.09C142.831 87.77 142.741 87.3933 142.741 86.96V85.54C142.741 85.1 142.831 84.7233 143.011 84.41C143.191 84.09 143.448 83.8433 143.781 83.67C144.114 83.4967 144.508 83.41 144.961 83.41C145.414 83.41 145.808 83.4967 146.141 83.67C146.474 83.8433 146.731 84.09 146.911 84.41C147.091 84.7233 147.181 85.1 147.181 85.54V86.96C147.181 87.3933 147.091 87.77 146.911 88.09C146.731 88.41 146.474 88.6567 146.141 88.83C145.808 89.0033 145.414 89.09 144.961 89.09ZM144.961 88.14C145.328 88.14 145.611 88.04 145.811 87.84C146.011 87.6333 146.111 87.34 146.111 86.96V85.54C146.111 85.1533 146.011 84.86 145.811 84.66C145.611 84.46 145.328 84.36 144.961 84.36C144.601 84.36 144.318 84.46 144.111 84.66C143.911 84.86 143.811 85.1533 143.811 85.54V86.96C143.811 87.34 143.911 87.6333 144.111 87.84C144.318 88.04 144.601 88.14 144.961 88.14ZM150.567 89.1C150.014 89.1 149.57 88.9133 149.237 88.54C148.904 88.1667 148.737 87.6633 148.737 87.03V85.48C148.737 84.84 148.904 84.3333 149.237 83.96C149.57 83.5867 150.014 83.4 150.567 83.4C151.02 83.4 151.38 83.5267 151.647 83.78C151.914 84.0267 152.047 84.3667 152.047 84.8L151.817 84.55H152.067L152.037 83.27V81.7H153.117V89H152.047V87.95H151.817L152.047 87.7C152.047 88.1333 151.914 88.4767 151.647 88.73C151.38 88.9767 151.02 89.1 150.567 89.1ZM150.937 88.16C151.277 88.16 151.544 88.0567 151.737 87.85C151.937 87.6367 152.037 87.3433 152.037 86.97V85.53C152.037 85.1567 151.937 84.8667 151.737 84.66C151.544 84.4467 151.277 84.34 150.937 84.34C150.584 84.34 150.307 84.4433 150.107 84.65C149.907 84.85 149.807 85.1433 149.807 85.53V86.97C149.807 87.3567 149.907 87.6533 150.107 87.86C150.307 88.06 150.584 88.16 150.937 88.16ZM156.943 89.1C156.283 89.1 155.756 88.91 155.363 88.53C154.97 88.1433 154.773 87.62 154.773 86.96V83.5H155.853V86.96C155.853 87.34 155.95 87.6367 156.143 87.85C156.336 88.0567 156.603 88.16 156.943 88.16C157.29 88.16 157.56 88.0567 157.753 87.85C157.953 87.6367 158.053 87.34 158.053 86.96V83.5H159.133V86.96C159.133 87.62 158.933 88.1433 158.533 88.53C158.14 88.91 157.61 89.1 156.943 89.1ZM162.989 89.1C162.536 89.1 162.136 89.0167 161.789 88.85C161.449 88.6767 161.186 88.43 160.999 88.11C160.819 87.7833 160.729 87.4033 160.729 86.97V85.53C160.729 85.09 160.819 84.71 160.999 84.39C161.186 84.07 161.449 83.8267 161.789 83.66C162.136 83.4867 162.536 83.4 162.989 83.4C163.649 83.4 164.179 83.5733 164.579 83.92C164.979 84.2667 165.189 84.74 165.209 85.34H164.129C164.109 85.0267 163.999 84.7833 163.799 84.61C163.599 84.4367 163.329 84.35 162.989 84.35C162.623 84.35 162.333 84.4533 162.119 84.66C161.906 84.86 161.799 85.1467 161.799 85.52V86.97C161.799 87.3433 161.906 87.6333 162.119 87.84C162.333 88.0467 162.623 88.15 162.989 88.15C163.329 88.15 163.599 88.0633 163.799 87.89C163.999 87.7167 164.109 87.4733 164.129 87.16H165.209C165.189 87.76 164.979 88.2333 164.579 88.58C164.179 88.9267 163.649 89.1 162.989 89.1ZM169.545 89C169.045 89 168.655 88.8633 168.375 88.59C168.095 88.3167 167.955 87.9367 167.955 87.45V84.48H166.435V83.5H167.955V81.95H169.035V83.5H171.185V84.48H169.035V87.45C169.035 87.83 169.219 88.02 169.585 88.02H171.085V89H169.545ZM174.751 89.09C174.358 89.09 174.011 89.0267 173.711 88.9C173.418 88.7733 173.185 88.6 173.011 88.38C172.845 88.1533 172.748 87.8867 172.721 87.58H173.801C173.828 87.76 173.925 87.9067 174.091 88.02C174.258 88.1267 174.478 88.18 174.751 88.18H175.181C175.508 88.18 175.755 88.1133 175.921 87.98C176.088 87.8467 176.171 87.67 176.171 87.45C176.171 87.2367 176.095 87.07 175.941 86.95C175.795 86.8233 175.575 86.74 175.281 86.7L174.571 86.59C173.985 86.4967 173.551 86.33 173.271 86.09C172.998 85.8433 172.861 85.48 172.861 85C172.861 84.4933 173.025 84.1033 173.351 83.83C173.685 83.55 174.175 83.41 174.821 83.41H175.201C175.775 83.41 176.231 83.5433 176.571 83.81C176.918 84.07 177.115 84.42 177.161 84.86H176.081C176.055 84.7 175.965 84.57 175.811 84.47C175.665 84.37 175.461 84.32 175.201 84.32H174.821C174.508 84.32 174.278 84.38 174.131 84.5C173.991 84.6133 173.921 84.7833 173.921 85.01C173.921 85.21 173.985 85.36 174.111 85.46C174.238 85.56 174.435 85.63 174.701 85.67L175.431 85.79C176.051 85.8767 176.505 86.05 176.791 86.31C177.085 86.5633 177.231 86.9333 177.231 87.42C177.231 87.9467 177.058 88.3567 176.711 88.65C176.371 88.9433 175.861 89.09 175.181 89.09H174.751Z" fill="#F43F5E"/>
<path d="M190.38 86.19V85.21H194.53V86.19H190.38ZM185.33 86.19V85.21H189.48V86.19H185.33ZM197.056 89L196.206 83.5H197.116L197.626 87.13C197.652 87.2967 197.676 87.4833 197.696 87.69C197.722 87.89 197.742 88.0567 197.756 88.19C197.769 88.0567 197.789 87.89 197.816 87.69C197.849 87.49 197.879 87.3033 197.906 87.13L198.476 83.5H199.386L199.946 87.13C199.972 87.3033 199.999 87.4933 200.026 87.7C200.059 87.9 200.082 88.0667 200.096 88.2C200.109 88.06 200.129 87.89 200.156 87.69C200.189 87.4833 200.219 87.2967 200.246 87.13L200.766 83.5H201.646L200.766 89H199.626L199.086 85.41C199.059 85.2233 199.029 85.0267 198.996 84.82C198.962 84.6067 198.939 84.4367 198.926 84.31C198.906 84.4367 198.879 84.6067 198.846 84.82C198.819 85.0267 198.792 85.2233 198.766 85.41L198.206 89H197.056ZM204.372 89.1C203.799 89.1 203.345 88.9533 203.012 88.66C202.685 88.36 202.522 87.9533 202.522 87.44C202.522 86.92 202.695 86.5133 203.042 86.22C203.395 85.92 203.879 85.77 204.492 85.77H206.022V85.26C206.022 84.96 205.929 84.7267 205.742 84.56C205.555 84.3933 205.292 84.31 204.952 84.31C204.652 84.31 204.402 84.3767 204.202 84.51C204.002 84.6367 203.885 84.8067 203.852 85.02H202.792C202.852 84.5267 203.079 84.1333 203.472 83.84C203.872 83.5467 204.375 83.4 204.982 83.4C205.635 83.4 206.152 83.5667 206.532 83.9C206.912 84.2267 207.102 84.6733 207.102 85.24V89H206.052V87.99H205.872L206.052 87.79C206.052 88.19 205.899 88.51 205.592 88.75C205.285 88.9833 204.879 89.1 204.372 89.1ZM204.692 88.27C205.079 88.27 205.395 88.1733 205.642 87.98C205.895 87.78 206.022 87.5267 206.022 87.22V86.5H204.512C204.232 86.5 204.009 86.5767 203.842 86.73C203.682 86.8833 203.602 87.0933 203.602 87.36C203.602 87.64 203.699 87.8633 203.892 88.03C204.085 88.19 204.352 88.27 204.692 88.27ZM211.518 89C211.018 89 210.628 88.8633 210.348 88.59C210.068 88.3167 209.928 87.9367 209.928 87.45V84.48H208.408V83.5H209.928V81.95H211.008V83.5H213.158V84.48H211.008V87.45C211.008 87.83 211.191 88.02 211.558 88.02H213.058V89H211.518ZM216.954 89.1C216.501 89.1 216.101 89.0167 215.754 88.85C215.414 88.6767 215.151 88.43 214.964 88.11C214.784 87.7833 214.694 87.4033 214.694 86.97V85.53C214.694 85.09 214.784 84.71 214.964 84.39C215.151 84.07 215.414 83.8267 215.754 83.66C216.101 83.4867 216.501 83.4 216.954 83.4C217.614 83.4 218.144 83.5733 218.544 83.92C218.944 84.2667 219.154 84.74 219.174 85.34H218.094C218.074 85.0267 217.964 84.7833 217.764 84.61C217.564 84.4367 217.294 84.35 216.954 84.35C216.587 84.35 216.297 84.4533 216.084 84.66C215.871 84.86 215.764 85.1467 215.764 85.52V86.97C215.764 87.3433 215.871 87.6333 216.084 87.84C216.297 88.0467 216.587 88.15 216.954 88.15C217.294 88.15 217.564 88.0633 217.764 87.89C217.964 87.7167 218.074 87.4733 218.094 87.16H219.174C219.154 87.76 218.944 88.2333 218.544 88.58C218.144 88.9267 217.614 89.1 216.954 89.1ZM220.75 89V81.7H221.83V83.5L221.82 84.55H222.08L221.82 84.8C221.82 84.36 221.95 84.0167 222.21 83.77C222.47 83.5233 222.83 83.4 223.29 83.4C223.837 83.4 224.273 83.5767 224.6 83.93C224.927 84.2767 225.09 84.7467 225.09 85.34V89H224.01V85.46C224.01 85.1 223.913 84.82 223.72 84.62C223.527 84.42 223.263 84.32 222.93 84.32C222.59 84.32 222.32 84.4267 222.12 84.64C221.927 84.8467 221.83 85.1433 221.83 85.53V89H220.75Z" fill="#47BC99"/>
<path d="M141.875 35C141.875 34.7239 141.651 34.5 141.375 34.5C141.099 34.5 140.875 34.7239 140.875 35H141.875ZM111.771 78.2283C111.967 78.4235 112.283 78.4235 112.479 78.2283L115.661 75.0463C115.856 74.851 115.856 74.5345 115.661 74.3392C115.465 74.1439 115.149 74.1439 114.953 74.3392L112.125 77.1676L109.297 74.3392C109.101 74.1439 108.785 74.1439 108.589 74.3392C108.394 74.5345 108.394 74.851 108.589 75.0463L111.771 78.2283ZM140.875 35V41.8123H141.875V35H140.875ZM111.625 71.0622V77.8747H112.625V71.0622H111.625ZM126.75 55.9372C118.397 55.9372 111.625 62.7089 111.625 71.0622H112.625C112.625 63.2612 118.949 56.9372 126.75 56.9372V55.9372ZM140.875 41.8123C140.875 49.6133 134.551 55.9372 126.75 55.9372V56.9372C135.103 56.9372 141.875 50.1656 141.875 41.8123H140.875Z" fill="#6366F1"/>
<path d="M154.521 77.8536C154.717 78.0488 155.033 78.0488 155.229 77.8536L158.411 74.6716C158.606 74.4763 158.606 74.1597 158.411 73.9645C158.215 73.7692 157.899 73.7692 157.703 73.9645L154.875 76.7929L152.047 73.9645C151.851 73.7692 151.535 73.7692 151.339 73.9645C151.144 74.1597 151.144 74.4763 151.339 74.6716L154.521 77.8536ZM230.75 35H231.25H230.75ZM225.75 39.5H178.875V40.5H225.75V39.5ZM154.375 64V77.5H155.375V64H154.375ZM178.875 39.5C165.344 39.5 154.375 50.469 154.375 64H155.375C155.375 51.0213 165.896 40.5 178.875 40.5V39.5ZM230.25 35C230.25 37.4853 228.235 39.5 225.75 39.5V40.5C228.788 40.5 231.25 38.0376 231.25 35H230.25Z" fill="#F43F5E"/>
<path d="M209.646 78.1036C209.842 78.2988 210.158 78.2988 210.354 78.1036L213.536 74.9216C213.731 74.7263 213.731 74.4097 213.536 74.2145C213.34 74.0192 213.024 74.0192 212.828 74.2145L210 77.0429L207.172 74.2145C206.976 74.0192 206.66 74.0192 206.464 74.2145C206.269 74.4097 206.269 74.7263 206.464 74.9216L209.646 78.1036ZM329.043 35H329.543H329.043ZM318.043 45.5H234V46.5H318.043V45.5ZM209.5 70V77.75H210.5V70H209.5ZM234 45.5C220.469 45.5 209.5 56.469 209.5 70H210.5C210.5 57.0213 221.021 46.5 234 46.5V45.5ZM328.543 35C328.543 40.799 323.842 45.5 318.043 45.5V46.5C324.395 46.5 329.543 41.3513 329.543 35H328.543Z" fill="#47BC99"/>
<path d="M19.6719 24.4929C19.6188 24.0223 19.4001 23.6577 19.0156 23.3991C18.6312 23.1373 18.1473 23.0064 17.5639 23.0064C17.1463 23.0064 16.785 23.0727 16.4801 23.2053C16.1752 23.3345 15.9382 23.5135 15.7692 23.7422C15.6035 23.9676 15.5206 24.2244 15.5206 24.5128C15.5206 24.7547 15.5769 24.9635 15.6896 25.1392C15.8056 25.3149 15.9564 25.4624 16.142 25.5817C16.331 25.6977 16.5331 25.7955 16.7486 25.875C16.964 25.9512 17.1712 26.0142 17.37 26.0639L18.3643 26.3224C18.6892 26.402 19.0223 26.5097 19.3636 26.6456C19.705 26.7815 20.0215 26.9605 20.3132 27.1825C20.6049 27.4046 20.8402 27.6797 21.0192 28.0078C21.2015 28.3359 21.2926 28.7287 21.2926 29.1861C21.2926 29.7628 21.1435 30.2749 20.8452 30.7223C20.5502 31.1697 20.121 31.5227 19.5575 31.7812C18.9974 32.0398 18.3196 32.169 17.5241 32.169C16.7618 32.169 16.1023 32.0481 15.5455 31.8061C14.9886 31.5642 14.5528 31.2211 14.2379 30.777C13.9231 30.3295 13.7491 29.7992 13.7159 29.1861H15.2571C15.2869 29.554 15.4063 29.8606 15.6151 30.1058C15.8272 30.3478 16.0973 30.5284 16.4254 30.6477C16.7569 30.7637 17.1198 30.8217 17.5142 30.8217C17.9484 30.8217 18.3345 30.7538 18.6726 30.6179C19.014 30.4787 19.2824 30.2865 19.478 30.0412C19.6735 29.7926 19.7713 29.5026 19.7713 29.1712C19.7713 28.8696 19.6851 28.6226 19.5128 28.4304C19.3438 28.2382 19.1134 28.0791 18.8217 27.9531C18.5334 27.8272 18.2069 27.7161 17.8423 27.62L16.6392 27.2919C15.8239 27.0698 15.1776 26.7434 14.7003 26.3125C14.2263 25.8816 13.9893 25.3116 13.9893 24.6023C13.9893 24.0156 14.1484 23.5036 14.4666 23.0661C14.7848 22.6286 15.2157 22.2888 15.7592 22.0469C16.3028 21.8016 16.916 21.679 17.5987 21.679C18.2881 21.679 18.8963 21.8 19.4233 22.0419C19.9536 22.2839 20.3712 22.617 20.6761 23.0412C20.9811 23.4621 21.1402 23.946 21.1534 24.4929H19.6719ZM23.9487 34.8636C23.7266 34.8636 23.5244 34.8454 23.3422 34.8089C23.1599 34.7758 23.024 34.7393 22.9345 34.6996L23.2924 33.4815C23.5642 33.5545 23.8062 33.5859 24.0183 33.576C24.2304 33.5661 24.4177 33.4865 24.5801 33.3374C24.7458 33.1882 24.8916 32.9446 25.0176 32.6065L25.2015 32.0994L22.4075 24.3636H23.9984L25.9324 30.2898H26.0119L27.9458 24.3636H29.5417L26.3947 33.0192C26.2489 33.4169 26.0633 33.7533 25.8379 34.0284C25.6125 34.3068 25.344 34.5156 25.0325 34.6548C24.7209 34.794 24.3597 34.8636 23.9487 34.8636ZM32.4252 27.4659V32H30.9387V24.3636H32.3656V25.6065H32.46C32.6357 25.2022 32.9108 24.8774 33.2853 24.6321C33.6632 24.3868 34.1388 24.2642 34.7122 24.2642C35.2325 24.2642 35.6883 24.3736 36.0794 24.5923C36.4705 24.8078 36.7737 25.1293 36.9892 25.5568C37.2046 25.9844 37.3123 26.513 37.3123 27.1428V32H35.8258V27.3217C35.8258 26.7682 35.6816 26.3357 35.3933 26.0241C35.1049 25.7093 34.7089 25.5518 34.2051 25.5518C33.8604 25.5518 33.5538 25.6264 33.2853 25.7756C33.0202 25.9247 32.8097 26.1435 32.6539 26.4318C32.5015 26.7169 32.4252 27.0616 32.4252 27.4659ZM42.8706 24.3636V25.5568H38.6994V24.3636H42.8706ZM39.818 22.5341H41.3045V29.7578C41.3045 30.0462 41.3476 30.2633 41.4338 30.4091C41.5199 30.5516 41.631 30.6494 41.7669 30.7024C41.9061 30.7521 42.0569 30.777 42.2193 30.777C42.3386 30.777 42.443 30.7687 42.5325 30.7521C42.622 30.7356 42.6916 30.7223 42.7413 30.7124L43.0098 31.9403C42.9236 31.9735 42.801 32.0066 42.6419 32.0398C42.4828 32.0762 42.2839 32.0961 42.0453 32.0994C41.6542 32.1061 41.2896 32.0365 40.9515 31.8906C40.6135 31.7448 40.34 31.5194 40.1312 31.2145C39.9224 30.9096 39.818 30.5268 39.818 30.0661V22.5341ZM46.7372 32.169C46.2533 32.169 45.8158 32.0795 45.4247 31.9006C45.0336 31.7183 44.7237 31.4548 44.495 31.1101C44.2696 30.7654 44.157 30.3428 44.157 29.8423C44.157 29.4115 44.2398 29.0568 44.4055 28.7784C44.5713 28.5 44.795 28.2796 45.0767 28.1172C45.3584 27.9548 45.6733 27.8321 46.0213 27.7493C46.3693 27.6664 46.724 27.6035 47.0852 27.5604C47.5426 27.5073 47.9138 27.4643 48.1989 27.4311C48.4839 27.3946 48.6911 27.3366 48.8203 27.2571C48.9496 27.1776 49.0142 27.0483 49.0142 26.8693V26.8345C49.0142 26.4003 48.8916 26.0639 48.6463 25.8253C48.4044 25.5866 48.0431 25.4673 47.5625 25.4673C47.062 25.4673 46.6676 25.5784 46.3793 25.8004C46.0942 26.0192 45.897 26.2628 45.7876 26.5312L44.3906 26.2131C44.5563 25.7491 44.7983 25.3745 45.1165 25.0895C45.438 24.8011 45.8075 24.5923 46.2251 24.4631C46.6428 24.3305 47.0819 24.2642 47.5426 24.2642C47.8475 24.2642 48.1707 24.3007 48.5121 24.3736C48.8568 24.4432 49.1783 24.5724 49.4766 24.7614C49.7782 24.9503 50.0251 25.2204 50.2173 25.5717C50.4096 25.9197 50.5057 26.3722 50.5057 26.929V32H49.054V30.956H48.9943C48.8982 31.1482 48.754 31.3371 48.5618 31.5227C48.3696 31.7083 48.1226 31.8625 47.821 31.9851C47.5194 32.1077 47.1581 32.169 46.7372 32.169ZM47.0604 30.9759C47.4714 30.9759 47.8227 30.8946 48.1143 30.7322C48.4093 30.5698 48.633 30.3577 48.7855 30.0959C48.9413 29.8307 49.0192 29.5473 49.0192 29.2457V28.2614C48.9661 28.3144 48.8634 28.3641 48.7109 28.4105C48.5618 28.4536 48.3911 28.4917 48.1989 28.5249C48.0066 28.5547 47.8194 28.5829 47.6371 28.6094C47.4548 28.6326 47.3023 28.6525 47.1797 28.669C46.8913 28.7055 46.6278 28.7668 46.3892 28.853C46.1539 28.9392 45.965 29.0634 45.8224 29.2259C45.6832 29.3849 45.6136 29.5971 45.6136 29.8622C45.6136 30.2301 45.7495 30.5085 46.0213 30.6974C46.2931 30.883 46.6394 30.9759 47.0604 30.9759ZM53.6589 24.3636L55.3443 27.3366L57.0446 24.3636H58.6703L56.2889 28.1818L58.6902 32H57.0645L55.3443 29.1463L53.6291 32H51.9984L54.3748 28.1818L52.0282 24.3636H53.6589ZM61.176 32.0945C60.9042 32.0945 60.6705 31.9983 60.475 31.8061C60.2794 31.6106 60.1816 31.3752 60.1816 31.1001C60.1816 30.8284 60.2794 30.5964 60.475 30.4041C60.6705 30.2086 60.9042 30.1108 61.176 30.1108C61.4477 30.1108 61.6814 30.2086 61.877 30.4041C62.0725 30.5964 62.1703 30.8284 62.1703 31.1001C62.1703 31.2824 62.1239 31.4498 62.0311 31.6023C61.9416 31.7514 61.8223 31.8707 61.6731 31.9602C61.524 32.0497 61.3583 32.0945 61.176 32.0945ZM61.176 26.5362C60.9042 26.5362 60.6705 26.4384 60.475 26.2429C60.2794 26.0473 60.1816 25.8137 60.1816 25.5419C60.1816 25.2701 60.2794 25.0381 60.475 24.8459C60.6705 24.6503 60.9042 24.5526 61.176 24.5526C61.4477 24.5526 61.6814 24.6503 61.877 24.8459C62.0725 25.0381 62.1703 25.2701 62.1703 25.5419C62.1703 25.7242 62.1239 25.8916 62.0311 26.044C61.9416 26.1932 61.8223 26.3125 61.6731 26.402C61.524 26.4915 61.3583 26.5362 61.176 26.5362Z" fill="#94A3B8"/>
<path d="M13 34.7841H63.1596V35.7386H13V34.7841Z" fill="#94A3B8"/>
<path d="M14.1186 89V78.8182H20.5021V80.1406H15.6548V83.2429H20.169V84.5604H15.6548V87.6776H20.5618V89H14.1186ZM23.6081 81.3636L25.2935 84.3366L26.9938 81.3636H28.6195L26.2381 85.1818L28.6394 89H27.0137L25.2935 86.1463L23.5783 89H21.9476L24.324 85.1818L21.9775 81.3636H23.6081ZM32.3544 89.169C31.8705 89.169 31.433 89.0795 31.0419 88.9006C30.6508 88.7183 30.3409 88.4548 30.1122 88.1101C29.8868 87.7654 29.7741 87.3428 29.7741 86.8423C29.7741 86.4115 29.857 86.0568 30.0227 85.7784C30.1884 85.5 30.4122 85.2796 30.6939 85.1172C30.9756 84.9548 31.2905 84.8321 31.6385 84.7493C31.9865 84.6664 32.3411 84.6035 32.7024 84.5604C33.1598 84.5073 33.531 84.4643 33.8161 84.4311C34.1011 84.3946 34.3082 84.3366 34.4375 84.2571C34.5668 84.1776 34.6314 84.0483 34.6314 83.8693V83.8345C34.6314 83.4003 34.5088 83.0639 34.2635 82.8253C34.0215 82.5866 33.6603 82.4673 33.1797 82.4673C32.6792 82.4673 32.2848 82.5784 31.9964 82.8004C31.7114 83.0192 31.5142 83.2628 31.4048 83.5312L30.0078 83.2131C30.1735 82.7491 30.4155 82.3745 30.7337 82.0895C31.0552 81.8011 31.4247 81.5923 31.8423 81.4631C32.2599 81.3305 32.6991 81.2642 33.1598 81.2642C33.4647 81.2642 33.7879 81.3007 34.1293 81.3736C34.474 81.4432 34.7955 81.5724 35.0938 81.7614C35.3954 81.9503 35.6423 82.2204 35.8345 82.5717C36.0268 82.9197 36.1229 83.3722 36.1229 83.929V89H34.6712V87.956H34.6115C34.5154 88.1482 34.3712 88.3371 34.179 88.5227C33.9867 88.7083 33.7398 88.8625 33.4382 88.9851C33.1366 89.1077 32.7753 89.169 32.3544 89.169ZM32.6776 87.9759C33.0885 87.9759 33.4399 87.8946 33.7315 87.7322C34.0265 87.5698 34.2502 87.3577 34.4027 87.0959C34.5585 86.8307 34.6364 86.5473 34.6364 86.2457V85.2614C34.5833 85.3144 34.4806 85.3641 34.3281 85.4105C34.179 85.4536 34.0083 85.4917 33.8161 85.5249C33.6238 85.5547 33.4366 85.5829 33.2543 85.6094C33.072 85.6326 32.9195 85.6525 32.7969 85.669C32.5085 85.7055 32.245 85.7668 32.0064 85.853C31.7711 85.9392 31.5821 86.0634 31.4396 86.2259C31.3004 86.3849 31.2308 86.5971 31.2308 86.8622C31.2308 87.2301 31.3667 87.5085 31.6385 87.6974C31.9103 87.883 32.2566 87.9759 32.6776 87.9759ZM38.1028 89V81.3636H39.5297V82.6065H39.6241C39.7832 82.1856 40.0434 81.8575 40.4047 81.6222C40.7659 81.3835 41.1984 81.2642 41.7022 81.2642C42.2127 81.2642 42.6402 81.3835 42.9849 81.6222C43.3329 81.8608 43.5898 82.1889 43.7555 82.6065H43.835C44.0173 82.1989 44.3074 81.8741 44.7051 81.6321C45.1028 81.3868 45.5768 81.2642 46.127 81.2642C46.8197 81.2642 47.3848 81.4813 47.8223 81.9155C48.2631 82.3497 48.4835 83.0043 48.4835 83.8793V89H46.997V84.0185C46.997 83.5014 46.8561 83.1269 46.5744 82.8949C46.2927 82.6629 45.9563 82.5469 45.5652 82.5469C45.0813 82.5469 44.7051 82.696 44.4366 82.9943C44.1681 83.2893 44.0339 83.6688 44.0339 84.1328V89H42.5524V83.924C42.5524 83.5097 42.4231 83.1766 42.1646 82.9247C41.9061 82.6728 41.5697 82.5469 41.1554 82.5469C40.8736 82.5469 40.6135 82.6214 40.3748 82.7706C40.1395 82.9164 39.9489 83.1203 39.8031 83.3821C39.6606 83.6439 39.5893 83.9472 39.5893 84.2919V89H38.1028ZM50.4759 91.8636V81.3636H51.9276V82.6016H52.0518C52.138 82.4425 52.2623 82.2585 52.4247 82.0497C52.5871 81.8409 52.8125 81.6586 53.1009 81.5028C53.3892 81.3438 53.7704 81.2642 54.2443 81.2642C54.8608 81.2642 55.411 81.42 55.8949 81.7315C56.3788 82.0431 56.7583 82.4922 57.0334 83.0788C57.3118 83.6655 57.451 84.3714 57.451 85.1967C57.451 86.022 57.3134 86.7296 57.0384 87.3196C56.7633 87.9062 56.3854 88.3587 55.9048 88.6768C55.4242 88.9917 54.8757 89.1491 54.2592 89.1491C53.7952 89.1491 53.4157 89.0713 53.1207 88.9155C52.8291 88.7597 52.6004 88.5774 52.4347 88.3686C52.2689 88.1598 52.1413 87.9742 52.0518 87.8118H51.9624V91.8636H50.4759ZM51.9325 85.1818C51.9325 85.7187 52.0104 86.1894 52.1662 86.5938C52.322 86.9981 52.5473 87.3146 52.8423 87.5433C53.1373 87.7687 53.4986 87.8814 53.9261 87.8814C54.3703 87.8814 54.7415 87.7637 55.0398 87.5284C55.3381 87.2898 55.5634 86.9666 55.7159 86.5589C55.8717 86.1513 55.9496 85.6922 55.9496 85.1818C55.9496 84.678 55.8733 84.2256 55.7209 83.8246C55.5717 83.4235 55.3464 83.107 55.0447 82.875C54.7464 82.643 54.3736 82.527 53.9261 82.527C53.4953 82.527 53.1307 82.638 52.8324 82.8601C52.5374 83.0821 52.3137 83.392 52.1612 83.7898C52.0088 84.1875 51.9325 84.6515 51.9325 85.1818ZM60.603 78.8182V89H59.1165V78.8182H60.603ZM65.894 89.1541C65.1416 89.1541 64.4937 88.9934 63.9501 88.6719C63.4099 88.3471 62.9922 87.8913 62.6973 87.3047C62.4056 86.7147 62.2598 86.0237 62.2598 85.2315C62.2598 84.4493 62.4056 83.7599 62.6973 83.1634C62.9922 82.5668 63.4032 82.1011 63.9302 81.7663C64.4605 81.4316 65.0803 81.2642 65.7896 81.2642C66.2205 81.2642 66.6381 81.3355 67.0424 81.478C67.4468 81.6205 67.8097 81.8442 68.1312 82.1491C68.4527 82.4541 68.7063 82.8501 68.8919 83.3374C69.0775 83.8213 69.1703 84.4096 69.1703 85.1023V85.6293H63.1V84.5156H67.7136C67.7136 84.1245 67.6341 83.7782 67.475 83.4766C67.3159 83.1716 67.0922 82.9313 66.8038 82.7557C66.5188 82.58 66.184 82.4922 65.7995 82.4922C65.3819 82.4922 65.0173 82.5949 64.7058 82.8004C64.3975 83.0026 64.1589 83.2678 63.9899 83.5959C63.8242 83.9207 63.7413 84.2737 63.7413 84.6548V85.5249C63.7413 86.0353 63.8308 86.4695 64.0098 86.8274C64.1921 87.1854 64.4456 87.4588 64.7704 87.6477C65.0952 87.8333 65.4747 87.9261 65.9089 87.9261C66.1906 87.9261 66.4475 87.8864 66.6795 87.8068C66.9115 87.724 67.112 87.6013 67.2811 87.4389C67.4501 87.2765 67.5794 87.076 67.6689 86.8374L69.0758 87.0909C68.9631 87.5052 68.7609 87.8681 68.4693 88.1797C68.1809 88.4879 67.818 88.7282 67.3805 88.9006C66.9463 89.0696 66.4508 89.1541 65.894 89.1541ZM71.799 89.0945C71.5272 89.0945 71.2936 88.9983 71.098 88.8061C70.9025 88.6106 70.8047 88.3752 70.8047 88.1001C70.8047 87.8284 70.9025 87.5964 71.098 87.4041C71.2936 87.2086 71.5272 87.1108 71.799 87.1108C72.0708 87.1108 72.3045 87.2086 72.5 87.4041C72.6955 87.5964 72.7933 87.8284 72.7933 88.1001C72.7933 88.2824 72.7469 88.4498 72.6541 88.6023C72.5646 88.7514 72.4453 88.8707 72.2962 88.9602C72.147 89.0497 71.9813 89.0945 71.799 89.0945ZM71.799 83.5362C71.5272 83.5362 71.2936 83.4384 71.098 83.2429C70.9025 83.0473 70.8047 82.8137 70.8047 82.5419C70.8047 82.2701 70.9025 82.0381 71.098 81.8459C71.2936 81.6503 71.5272 81.5526 71.799 81.5526C72.0708 81.5526 72.3045 81.6503 72.5 81.8459C72.6955 82.0381 72.7933 82.2701 72.7933 82.5419C72.7933 82.7242 72.7469 82.8916 72.6541 83.044C72.5646 83.1932 72.4453 83.3125 72.2962 83.402C72.147 83.4915 71.9813 83.5362 71.799 83.5362Z" fill="#94A3B8"/>
<path d="M13 91.7841H73.7827V92.7386H13V91.7841Z" fill="#94A3B8"/>
</svg>
