<svg width="800" height="160" viewBox="0 0 800 160" fill="none" xmlns="http://www.w3.org/2000/svg">
<path d="M282.048 51.2V140.8H268.352L218.944 80.128V140.8H202.432V51.2H216.128L265.536 111.872V51.2H282.048Z" fill="white"/>
<path d="M348.041 140.8L330.505 117.12L312.841 140.8H295.177L321.801 106.112L296.329 72.448H314.121L330.889 94.848L347.657 72.448H364.937L339.337 105.856L366.089 140.8H348.041Z" fill="white"/>
<path d="M456.279 142.08C447.234 142.08 439.042 140.117 431.703 136.192C424.45 132.181 418.732 126.677 414.551 119.68C410.455 112.683 408.407 104.789 408.407 96.0001C408.407 87.2107 410.498 79.3174 414.679 72.32C418.86 65.3227 424.578 59.8614 431.831 55.936C439.17 51.9254 447.362 49.92 456.407 49.92C463.746 49.92 470.444 51.2 476.503 53.76C482.562 56.32 487.682 60.032 491.863 64.896L481.111 75.008C474.626 68.0107 466.647 64.512 457.175 64.512C451.031 64.512 445.527 65.8774 440.663 68.608C435.799 71.2534 432.002 74.9654 429.271 79.744C426.54 84.5227 425.175 89.9414 425.175 96.0001C425.175 102.059 426.54 107.477 429.271 112.256C432.002 117.035 435.799 120.789 440.663 123.52C445.527 126.165 451.031 127.488 457.175 127.488C466.647 127.488 474.626 123.947 481.111 116.864L491.863 127.104C487.682 131.968 482.519 135.68 476.375 138.24C470.316 140.8 463.618 142.08 456.279 142.08Z" fill="white"/>
<path d="M506.271 45.824H522.271V140.8H506.271V45.824Z" fill="white"/>
<path d="M573.991 141.696C567.079 141.696 560.85 140.203 555.303 137.216C549.756 134.229 545.404 130.091 542.247 124.8C539.175 119.424 537.639 113.365 537.639 106.624C537.639 99.8827 539.175 93.8667 542.247 88.576C545.404 83.2854 549.756 79.1467 555.303 76.16C560.85 73.1734 567.079 71.68 573.991 71.68C580.988 71.68 587.26 73.1734 592.807 76.16C598.354 79.1467 602.663 83.2854 605.735 88.576C608.892 93.8667 610.471 99.8827 610.471 106.624C610.471 113.365 608.892 119.424 605.735 124.8C602.663 130.091 598.354 134.229 592.807 137.216C587.26 140.203 580.988 141.696 573.991 141.696ZM573.991 128C579.879 128 584.743 126.037 588.583 122.112C592.423 118.187 594.343 113.024 594.343 106.624C594.343 100.224 592.423 95.0614 588.583 91.136C584.743 87.2107 579.879 85.248 573.991 85.248C568.103 85.248 563.239 87.2107 559.399 91.136C555.644 95.0614 553.767 100.224 553.767 106.624C553.767 113.024 555.644 118.187 559.399 122.112C563.239 126.037 568.103 128 573.991 128Z" fill="white"/>
<path d="M691.947 72.448V140.8H676.715V132.096C674.155 135.168 670.955 137.557 667.115 139.264C663.275 140.885 659.136 141.696 654.699 141.696C645.568 141.696 638.358 139.179 633.067 134.144C627.862 129.024 625.259 121.472 625.259 111.488V72.448H641.259V109.312C641.259 115.456 642.624 120.064 645.355 123.136C648.171 126.123 652.139 127.616 657.259 127.616C662.976 127.616 667.499 125.867 670.827 122.368C674.24 118.784 675.947 113.664 675.947 107.008V72.448H691.947Z" fill="white"/>
<path d="M779.84 45.824V140.8H764.48V131.968C761.835 135.211 758.549 137.643 754.624 139.264C750.784 140.885 746.517 141.696 741.824 141.696C735.253 141.696 729.323 140.245 724.032 137.344C718.827 134.443 714.731 130.347 711.744 125.056C708.757 119.68 707.264 113.536 707.264 106.624C707.264 99.7121 708.757 93.6107 711.744 88.32C714.731 83.0294 718.827 78.9334 724.032 76.032C729.323 73.1307 735.253 71.68 741.824 71.68C746.347 71.68 750.485 72.448 754.24 73.984C757.995 75.52 761.195 77.824 763.84 80.896V45.824H779.84ZM743.744 128C747.584 128 751.04 127.147 754.112 125.44C757.184 123.648 759.616 121.131 761.408 117.888C763.2 114.645 764.096 110.891 764.096 106.624C764.096 102.357 763.2 98.6027 761.408 95.36C759.616 92.1174 757.184 89.6427 754.112 87.936C751.04 86.144 747.584 85.248 743.744 85.248C739.904 85.248 736.448 86.144 733.376 87.936C730.304 89.6427 727.872 92.1174 726.08 95.36C724.288 98.6027 723.392 102.357 723.392 106.624C723.392 110.891 724.288 114.645 726.08 117.888C727.872 121.131 730.304 123.648 733.376 125.44C736.448 127.147 739.904 128 743.744 128Z" fill="white"/>
<path d="M144 32V48C126.336 48 112 62.336 112 80C112 97.664 97.664 112 80 112C62.336 112 48 126.336 48 144H32C23.168 144 16 136.832 16 128V32C16 23.168 23.168 16 32 16H128C136.832 16 144 23.168 144 32Z" fill="#0E2039"/>
<path d="M144 48V128C144 136.832 136.832 144 128 144H48C48 126.336 62.336 112 80 112C97.664 112 112 97.664 112 80C112 62.336 126.336 48 144 48Z" fill="white"/>
</svg>
